%FSLAX45Y45*%
G04 Gerber Fmt 4.5, Leading zero omitted, Abs format (unit mm)*
G04 Created by KiCad (PCBNEW (6.0.1-0)) date 2022-10-24 19:00:19*
%MOMM*%
%LPD*%
G01*
G04 APERTURE LIST*
%TA.AperFunction,Profile*%
%ADD10C,0.100000*%
%TD*%
%ADD11C,0.200000*%
%ADD12C,0.020000*%
%ADD13C,0.095000*%
%ADD14C,0.100000*%
G04 APERTURE END LIST*
D10*
X16767190Y-7429500D02*
X16767190Y-12509500D01*
X12509500Y-6985000D02*
G75*
G03*
X12065000Y-7429500I0J-444500D01*
G01*
X16322690Y-12954000D02*
X12509500Y-12954000D01*
X16767190Y-7429500D02*
G75*
G03*
X16322690Y-6985000I-444500J0D01*
G01*
X12065000Y-12509500D02*
X12065000Y-7429500D01*
X12509500Y-6985000D02*
X16322690Y-6985000D01*
X16322690Y-12954000D02*
G75*
G03*
X16767190Y-12509500I0J444500D01*
G01*
X12065000Y-12509500D02*
G75*
G03*
X12509500Y-12954000I444500J0D01*
G01*
D11*
D12*
X12237880Y-8295800D02*
X12257880Y-8315800D01*
X12257880Y-8295800D02*
X12237880Y-8315800D01*
X12298840Y-8366920D02*
X12318840Y-8386920D01*
X12318840Y-8366920D02*
X12298840Y-8386920D01*
X12347100Y-10912000D02*
X12367100Y-10932000D01*
X12367100Y-10912000D02*
X12347100Y-10932000D01*
X12781440Y-8336440D02*
X12801440Y-8356440D01*
X12801440Y-8336440D02*
X12781440Y-8356440D01*
X12994800Y-7152800D02*
X13014800Y-7172800D01*
X13014800Y-7152800D02*
X12994800Y-7172800D01*
X12994800Y-7254400D02*
X13014800Y-7274400D01*
X13014800Y-7254400D02*
X12994800Y-7274400D01*
X12994800Y-7356000D02*
X13014800Y-7376000D01*
X13014800Y-7356000D02*
X12994800Y-7376000D01*
X12994800Y-7444900D02*
X13014800Y-7464900D01*
X13014800Y-7444900D02*
X12994800Y-7464900D01*
X12994800Y-7533800D02*
X13014800Y-7553800D01*
X13014800Y-7533800D02*
X12994800Y-7553800D01*
X12994800Y-7622700D02*
X13014800Y-7642700D01*
X13014800Y-7622700D02*
X12994800Y-7642700D01*
X13096400Y-7152800D02*
X13116400Y-7172800D01*
X13116400Y-7152800D02*
X13096400Y-7172800D01*
X13096400Y-7254400D02*
X13116400Y-7274400D01*
X13116400Y-7254400D02*
X13096400Y-7274400D01*
X13096400Y-7356000D02*
X13116400Y-7376000D01*
X13116400Y-7356000D02*
X13096400Y-7376000D01*
X13096400Y-7444900D02*
X13116400Y-7464900D01*
X13116400Y-7444900D02*
X13096400Y-7464900D01*
X13096400Y-7533800D02*
X13116400Y-7553800D01*
X13116400Y-7533800D02*
X13096400Y-7553800D01*
X13096400Y-7622700D02*
X13116400Y-7642700D01*
X13116400Y-7622700D02*
X13096400Y-7642700D01*
X13198000Y-7152800D02*
X13218000Y-7172800D01*
X13218000Y-7152800D02*
X13198000Y-7172800D01*
X13198000Y-7254400D02*
X13218000Y-7274400D01*
X13218000Y-7254400D02*
X13198000Y-7274400D01*
X13198000Y-7356000D02*
X13218000Y-7376000D01*
X13218000Y-7356000D02*
X13198000Y-7376000D01*
X13502800Y-11318400D02*
X13522800Y-11338400D01*
X13522800Y-11318400D02*
X13502800Y-11338400D01*
X13695840Y-9438800D02*
X13715840Y-9458800D01*
X13715840Y-9438800D02*
X13695840Y-9458800D01*
X13726320Y-8600600D02*
X13746320Y-8620600D01*
X13746320Y-8600600D02*
X13726320Y-8620600D01*
X13766960Y-9067960D02*
X13786960Y-9087960D01*
X13786960Y-9067960D02*
X13766960Y-9087960D01*
X13780720Y-10285680D02*
X13800720Y-10305680D01*
X13800720Y-10285680D02*
X13780720Y-10305680D01*
X13794900Y-11572400D02*
X13814900Y-11592400D01*
X13814900Y-11572400D02*
X13794900Y-11592400D01*
X13848240Y-7569360D02*
X13868240Y-7589360D01*
X13868240Y-7569360D02*
X13848240Y-7589360D01*
X13975240Y-10962800D02*
X13995240Y-10982800D01*
X13995240Y-10962800D02*
X13975240Y-10982800D01*
X14114940Y-8953660D02*
X14134940Y-8973660D01*
X14134940Y-8953660D02*
X14114940Y-8973660D01*
X14229240Y-10972960D02*
X14249240Y-10992960D01*
X14249240Y-10972960D02*
X14229240Y-10992960D01*
X14285120Y-8686960D02*
X14305120Y-8706960D01*
X14305120Y-8686960D02*
X14285120Y-8706960D01*
X14290200Y-8813960D02*
X14310200Y-8833960D01*
X14310200Y-8813960D02*
X14290200Y-8833960D01*
X14341000Y-10967880D02*
X14361000Y-10987880D01*
X14361000Y-10967880D02*
X14341000Y-10987880D01*
X14483240Y-10978040D02*
X14503240Y-10998040D01*
X14503240Y-10978040D02*
X14483240Y-10998040D01*
X14534040Y-10556400D02*
X14554040Y-10576400D01*
X14554040Y-10556400D02*
X14534040Y-10576400D01*
X14554360Y-10480200D02*
X14574360Y-10500200D01*
X14574360Y-10480200D02*
X14554360Y-10500200D01*
X14559440Y-10678320D02*
X14579440Y-10698320D01*
X14579440Y-10678320D02*
X14559440Y-10698320D01*
X14569600Y-10845960D02*
X14589600Y-10865960D01*
X14589600Y-10845960D02*
X14569600Y-10865960D01*
X14600080Y-8432960D02*
X14620080Y-8452960D01*
X14620080Y-8432960D02*
X14600080Y-8452960D01*
X14605160Y-8570120D02*
X14625160Y-8590120D01*
X14625160Y-8570120D02*
X14605160Y-8590120D01*
X14610240Y-8305960D02*
X14630240Y-8325960D01*
X14630240Y-8305960D02*
X14610240Y-8325960D01*
X14983620Y-10528460D02*
X15003620Y-10548460D01*
X15003620Y-10528460D02*
X14983620Y-10548460D01*
X15006480Y-11765440D02*
X15026480Y-11785440D01*
X15026480Y-11765440D02*
X15006480Y-11785440D01*
X15021720Y-11943240D02*
X15041720Y-11963240D01*
X15041720Y-11943240D02*
X15021720Y-11963240D01*
X15026800Y-7264560D02*
X15046800Y-7284560D01*
X15046800Y-7264560D02*
X15026800Y-7284560D01*
X15047120Y-11541920D02*
X15067120Y-11561920D01*
X15067120Y-11541920D02*
X15047120Y-11561920D01*
X15189360Y-10942480D02*
X15209360Y-10962480D01*
X15209360Y-10942480D02*
X15189360Y-10962480D01*
X15260440Y-9967160D02*
X15280440Y-9987160D01*
X15280440Y-9967160D02*
X15260440Y-9987160D01*
X15301120Y-12369960D02*
X15321120Y-12389960D01*
X15321120Y-12369960D02*
X15301120Y-12389960D01*
X15306200Y-12187080D02*
X15326200Y-12207080D01*
X15326200Y-12187080D02*
X15306200Y-12207080D01*
X15351880Y-9337160D02*
X15371880Y-9357160D01*
X15371880Y-9337160D02*
X15351880Y-9357160D01*
X15351920Y-10967880D02*
X15371920Y-10987880D01*
X15371920Y-10967880D02*
X15351920Y-10987880D01*
X15397640Y-10576720D02*
X15417640Y-10596720D01*
X15417640Y-10576720D02*
X15397640Y-10596720D01*
X15402720Y-10490360D02*
X15422720Y-10510360D01*
X15422720Y-10490360D02*
X15402720Y-10510360D01*
X15417960Y-11633360D02*
X15437960Y-11653360D01*
X15437960Y-11633360D02*
X15417960Y-11653360D01*
X15423040Y-10317640D02*
X15443040Y-10337640D01*
X15443040Y-10317640D02*
X15423040Y-10337640D01*
X15433200Y-10693560D02*
X15453200Y-10713560D01*
X15453200Y-10693560D02*
X15433200Y-10713560D01*
X15532200Y-10381080D02*
X15552200Y-10401080D01*
X15552200Y-10381080D02*
X15532200Y-10401080D01*
X15565280Y-10678320D02*
X15585280Y-10698320D01*
X15585280Y-10678320D02*
X15565280Y-10698320D01*
X15788800Y-10292240D02*
X15808800Y-10312240D01*
X15808800Y-10292240D02*
X15788800Y-10312240D01*
X15824360Y-10490360D02*
X15844360Y-10510360D01*
X15844360Y-10490360D02*
X15824360Y-10510360D01*
D13*
X16427120Y-8170100D02*
G75*
G03*
X16427120Y-8170100I-47500J0D01*
G01*
X16427120Y-8420100D02*
G75*
G03*
X16427120Y-8420100I-47500J0D01*
G01*
X16427120Y-8670100D02*
G75*
G03*
X16427120Y-8670100I-47500J0D01*
G01*
X16427120Y-8920100D02*
G75*
G03*
X16427120Y-8920100I-47500J0D01*
G01*
X16427120Y-10692320D02*
G75*
G03*
X16427120Y-10692320I-47500J0D01*
G01*
X16427120Y-10942320D02*
G75*
G03*
X16427120Y-10942320I-47500J0D01*
G01*
X16427120Y-11192320D02*
G75*
G03*
X16427120Y-11192320I-47500J0D01*
G01*
D14*
X12420600Y-11460200D02*
X12420600Y-11560200D01*
X12370600Y-11510200D02*
X12470600Y-11510200D01*
X12420600Y-11710200D02*
X12420600Y-11810200D01*
X12370600Y-11760200D02*
X12470600Y-11760200D01*
D11*
X12317619Y-13269476D02*
X12317619Y-13069476D01*
X12365238Y-13069476D01*
X12393809Y-13079000D01*
X12412857Y-13098048D01*
X12422381Y-13117095D01*
X12431905Y-13155190D01*
X12431905Y-13183762D01*
X12422381Y-13221857D01*
X12412857Y-13240905D01*
X12393809Y-13259952D01*
X12365238Y-13269476D01*
X12317619Y-13269476D01*
X12517619Y-13269476D02*
X12517619Y-13136143D01*
X12517619Y-13174238D02*
X12527143Y-13155190D01*
X12536667Y-13145667D01*
X12555714Y-13136143D01*
X12574762Y-13136143D01*
X12641428Y-13269476D02*
X12641428Y-13136143D01*
X12641428Y-13069476D02*
X12631905Y-13079000D01*
X12641428Y-13088524D01*
X12650952Y-13079000D01*
X12641428Y-13069476D01*
X12641428Y-13088524D01*
X12765238Y-13269476D02*
X12746190Y-13259952D01*
X12736667Y-13240905D01*
X12736667Y-13069476D01*
X12870000Y-13269476D02*
X12850952Y-13259952D01*
X12841428Y-13240905D01*
X12841428Y-13069476D01*
X13098571Y-13269476D02*
X13098571Y-13069476D01*
X13165238Y-13212333D01*
X13231905Y-13069476D01*
X13231905Y-13269476D01*
X13412857Y-13269476D02*
X13412857Y-13164714D01*
X13403333Y-13145667D01*
X13384286Y-13136143D01*
X13346190Y-13136143D01*
X13327143Y-13145667D01*
X13412857Y-13259952D02*
X13393809Y-13269476D01*
X13346190Y-13269476D01*
X13327143Y-13259952D01*
X13317619Y-13240905D01*
X13317619Y-13221857D01*
X13327143Y-13202809D01*
X13346190Y-13193286D01*
X13393809Y-13193286D01*
X13412857Y-13183762D01*
X13508095Y-13136143D02*
X13508095Y-13336143D01*
X13508095Y-13145667D02*
X13527143Y-13136143D01*
X13565238Y-13136143D01*
X13584286Y-13145667D01*
X13593809Y-13155190D01*
X13603333Y-13174238D01*
X13603333Y-13231381D01*
X13593809Y-13250428D01*
X13584286Y-13259952D01*
X13565238Y-13269476D01*
X13527143Y-13269476D01*
X13508095Y-13259952D01*
X13689048Y-13250428D02*
X13698571Y-13259952D01*
X13689048Y-13269476D01*
X13679524Y-13259952D01*
X13689048Y-13250428D01*
X13689048Y-13269476D01*
X13689048Y-13145667D02*
X13698571Y-13155190D01*
X13689048Y-13164714D01*
X13679524Y-13155190D01*
X13689048Y-13145667D01*
X13689048Y-13164714D01*
D12*
X12040000Y-13589000D02*
X12060000Y-13609000D01*
X12060000Y-13589000D02*
X12040000Y-13609000D01*
D11*
X12355714Y-13489476D02*
X12374762Y-13489476D01*
X12393809Y-13499000D01*
X12403333Y-13508524D01*
X12412857Y-13527571D01*
X12422381Y-13565667D01*
X12422381Y-13613286D01*
X12412857Y-13651381D01*
X12403333Y-13670428D01*
X12393809Y-13679952D01*
X12374762Y-13689476D01*
X12355714Y-13689476D01*
X12336667Y-13679952D01*
X12327143Y-13670428D01*
X12317619Y-13651381D01*
X12308095Y-13613286D01*
X12308095Y-13565667D01*
X12317619Y-13527571D01*
X12327143Y-13508524D01*
X12336667Y-13499000D01*
X12355714Y-13489476D01*
X12508095Y-13670428D02*
X12517619Y-13679952D01*
X12508095Y-13689476D01*
X12498571Y-13679952D01*
X12508095Y-13670428D01*
X12508095Y-13689476D01*
X12593809Y-13508524D02*
X12603333Y-13499000D01*
X12622381Y-13489476D01*
X12670000Y-13489476D01*
X12689048Y-13499000D01*
X12698571Y-13508524D01*
X12708095Y-13527571D01*
X12708095Y-13546619D01*
X12698571Y-13575190D01*
X12584286Y-13689476D01*
X12708095Y-13689476D01*
X12831905Y-13489476D02*
X12850952Y-13489476D01*
X12870000Y-13499000D01*
X12879524Y-13508524D01*
X12889048Y-13527571D01*
X12898571Y-13565667D01*
X12898571Y-13613286D01*
X12889048Y-13651381D01*
X12879524Y-13670428D01*
X12870000Y-13679952D01*
X12850952Y-13689476D01*
X12831905Y-13689476D01*
X12812857Y-13679952D01*
X12803333Y-13670428D01*
X12793809Y-13651381D01*
X12784286Y-13613286D01*
X12784286Y-13565667D01*
X12793809Y-13527571D01*
X12803333Y-13508524D01*
X12812857Y-13499000D01*
X12831905Y-13489476D01*
X13022381Y-13489476D02*
X13041428Y-13489476D01*
X13060476Y-13499000D01*
X13070000Y-13508524D01*
X13079524Y-13527571D01*
X13089048Y-13565667D01*
X13089048Y-13613286D01*
X13079524Y-13651381D01*
X13070000Y-13670428D01*
X13060476Y-13679952D01*
X13041428Y-13689476D01*
X13022381Y-13689476D01*
X13003333Y-13679952D01*
X12993809Y-13670428D01*
X12984286Y-13651381D01*
X12974762Y-13613286D01*
X12974762Y-13565667D01*
X12984286Y-13527571D01*
X12993809Y-13508524D01*
X13003333Y-13499000D01*
X13022381Y-13489476D01*
X13174762Y-13689476D02*
X13174762Y-13556143D01*
X13174762Y-13575190D02*
X13184286Y-13565667D01*
X13203333Y-13556143D01*
X13231905Y-13556143D01*
X13250952Y-13565667D01*
X13260476Y-13584714D01*
X13260476Y-13689476D01*
X13260476Y-13584714D02*
X13270000Y-13565667D01*
X13289048Y-13556143D01*
X13317619Y-13556143D01*
X13336667Y-13565667D01*
X13346190Y-13584714D01*
X13346190Y-13689476D01*
X13441428Y-13689476D02*
X13441428Y-13556143D01*
X13441428Y-13575190D02*
X13450952Y-13565667D01*
X13470000Y-13556143D01*
X13498571Y-13556143D01*
X13517619Y-13565667D01*
X13527143Y-13584714D01*
X13527143Y-13689476D01*
X13527143Y-13584714D02*
X13536667Y-13565667D01*
X13555714Y-13556143D01*
X13584286Y-13556143D01*
X13603333Y-13565667D01*
X13612857Y-13584714D01*
X13612857Y-13689476D01*
X14003333Y-13479952D02*
X13831905Y-13737095D01*
X14260476Y-13489476D02*
X14279524Y-13489476D01*
X14298571Y-13499000D01*
X14308095Y-13508524D01*
X14317619Y-13527571D01*
X14327143Y-13565667D01*
X14327143Y-13613286D01*
X14317619Y-13651381D01*
X14308095Y-13670428D01*
X14298571Y-13679952D01*
X14279524Y-13689476D01*
X14260476Y-13689476D01*
X14241428Y-13679952D01*
X14231905Y-13670428D01*
X14222381Y-13651381D01*
X14212857Y-13613286D01*
X14212857Y-13565667D01*
X14222381Y-13527571D01*
X14231905Y-13508524D01*
X14241428Y-13499000D01*
X14260476Y-13489476D01*
X14412857Y-13670428D02*
X14422381Y-13679952D01*
X14412857Y-13689476D01*
X14403333Y-13679952D01*
X14412857Y-13670428D01*
X14412857Y-13689476D01*
X14546190Y-13489476D02*
X14565238Y-13489476D01*
X14584286Y-13499000D01*
X14593809Y-13508524D01*
X14603333Y-13527571D01*
X14612857Y-13565667D01*
X14612857Y-13613286D01*
X14603333Y-13651381D01*
X14593809Y-13670428D01*
X14584286Y-13679952D01*
X14565238Y-13689476D01*
X14546190Y-13689476D01*
X14527143Y-13679952D01*
X14517619Y-13670428D01*
X14508095Y-13651381D01*
X14498571Y-13613286D01*
X14498571Y-13565667D01*
X14508095Y-13527571D01*
X14517619Y-13508524D01*
X14527143Y-13499000D01*
X14546190Y-13489476D01*
X14736667Y-13489476D02*
X14755714Y-13489476D01*
X14774762Y-13499000D01*
X14784286Y-13508524D01*
X14793809Y-13527571D01*
X14803333Y-13565667D01*
X14803333Y-13613286D01*
X14793809Y-13651381D01*
X14784286Y-13670428D01*
X14774762Y-13679952D01*
X14755714Y-13689476D01*
X14736667Y-13689476D01*
X14717619Y-13679952D01*
X14708095Y-13670428D01*
X14698571Y-13651381D01*
X14689048Y-13613286D01*
X14689048Y-13565667D01*
X14698571Y-13527571D01*
X14708095Y-13508524D01*
X14717619Y-13499000D01*
X14736667Y-13489476D01*
X14870000Y-13489476D02*
X15003333Y-13489476D01*
X14917619Y-13689476D01*
X15089048Y-13689476D02*
X15127143Y-13689476D01*
X15146190Y-13679952D01*
X15155714Y-13670428D01*
X15174762Y-13641857D01*
X15184286Y-13603762D01*
X15184286Y-13527571D01*
X15174762Y-13508524D01*
X15165238Y-13499000D01*
X15146190Y-13489476D01*
X15108095Y-13489476D01*
X15089048Y-13499000D01*
X15079524Y-13508524D01*
X15070000Y-13527571D01*
X15070000Y-13575190D01*
X15079524Y-13594238D01*
X15089048Y-13603762D01*
X15108095Y-13613286D01*
X15146190Y-13613286D01*
X15165238Y-13603762D01*
X15174762Y-13594238D01*
X15184286Y-13575190D01*
X15260476Y-13489476D02*
X15260476Y-13527571D01*
X15336667Y-13489476D02*
X15336667Y-13527571D01*
X15631905Y-13765667D02*
X15622381Y-13756143D01*
X15603333Y-13727571D01*
X15593809Y-13708524D01*
X15584286Y-13679952D01*
X15574762Y-13632333D01*
X15574762Y-13594238D01*
X15584286Y-13546619D01*
X15593809Y-13518048D01*
X15603333Y-13499000D01*
X15622381Y-13470428D01*
X15631905Y-13460905D01*
X15793809Y-13489476D02*
X15755714Y-13489476D01*
X15736667Y-13499000D01*
X15727143Y-13508524D01*
X15708095Y-13537095D01*
X15698571Y-13575190D01*
X15698571Y-13651381D01*
X15708095Y-13670428D01*
X15717619Y-13679952D01*
X15736667Y-13689476D01*
X15774762Y-13689476D01*
X15793809Y-13679952D01*
X15803333Y-13670428D01*
X15812857Y-13651381D01*
X15812857Y-13603762D01*
X15803333Y-13584714D01*
X15793809Y-13575190D01*
X15774762Y-13565667D01*
X15736667Y-13565667D01*
X15717619Y-13575190D01*
X15708095Y-13584714D01*
X15698571Y-13603762D01*
X15936667Y-13489476D02*
X15955714Y-13489476D01*
X15974762Y-13499000D01*
X15984286Y-13508524D01*
X15993809Y-13527571D01*
X16003333Y-13565667D01*
X16003333Y-13613286D01*
X15993809Y-13651381D01*
X15984286Y-13670428D01*
X15974762Y-13679952D01*
X15955714Y-13689476D01*
X15936667Y-13689476D01*
X15917619Y-13679952D01*
X15908095Y-13670428D01*
X15898571Y-13651381D01*
X15889048Y-13613286D01*
X15889048Y-13565667D01*
X15898571Y-13527571D01*
X15908095Y-13508524D01*
X15917619Y-13499000D01*
X15936667Y-13489476D01*
X16241428Y-13689476D02*
X16241428Y-13489476D01*
X16327143Y-13689476D02*
X16327143Y-13584714D01*
X16317619Y-13565667D01*
X16298571Y-13556143D01*
X16270000Y-13556143D01*
X16250952Y-13565667D01*
X16241428Y-13575190D01*
X16450952Y-13689476D02*
X16431905Y-13679952D01*
X16422381Y-13670428D01*
X16412857Y-13651381D01*
X16412857Y-13594238D01*
X16422381Y-13575190D01*
X16431905Y-13565667D01*
X16450952Y-13556143D01*
X16479524Y-13556143D01*
X16498571Y-13565667D01*
X16508095Y-13575190D01*
X16517619Y-13594238D01*
X16517619Y-13651381D01*
X16508095Y-13670428D01*
X16498571Y-13679952D01*
X16479524Y-13689476D01*
X16450952Y-13689476D01*
X16631905Y-13689476D02*
X16612857Y-13679952D01*
X16603333Y-13660905D01*
X16603333Y-13489476D01*
X16784286Y-13679952D02*
X16765238Y-13689476D01*
X16727143Y-13689476D01*
X16708095Y-13679952D01*
X16698571Y-13660905D01*
X16698571Y-13584714D01*
X16708095Y-13565667D01*
X16727143Y-13556143D01*
X16765238Y-13556143D01*
X16784286Y-13565667D01*
X16793810Y-13584714D01*
X16793810Y-13603762D01*
X16698571Y-13622809D01*
X16870000Y-13679952D02*
X16889048Y-13689476D01*
X16927143Y-13689476D01*
X16946190Y-13679952D01*
X16955714Y-13660905D01*
X16955714Y-13651381D01*
X16946190Y-13632333D01*
X16927143Y-13622809D01*
X16898571Y-13622809D01*
X16879524Y-13613286D01*
X16870000Y-13594238D01*
X16870000Y-13584714D01*
X16879524Y-13565667D01*
X16898571Y-13556143D01*
X16927143Y-13556143D01*
X16946190Y-13565667D01*
X17022381Y-13765667D02*
X17031905Y-13756143D01*
X17050952Y-13727571D01*
X17060476Y-13708524D01*
X17070000Y-13679952D01*
X17079524Y-13632333D01*
X17079524Y-13594238D01*
X17070000Y-13546619D01*
X17060476Y-13518048D01*
X17050952Y-13499000D01*
X17031905Y-13470428D01*
X17022381Y-13460905D01*
D13*
X12060000Y-13863000D02*
G75*
G03*
X12060000Y-13863000I-47500J0D01*
G01*
D11*
X12355714Y-13753476D02*
X12374762Y-13753476D01*
X12393809Y-13763000D01*
X12403333Y-13772524D01*
X12412857Y-13791571D01*
X12422381Y-13829667D01*
X12422381Y-13877286D01*
X12412857Y-13915381D01*
X12403333Y-13934428D01*
X12393809Y-13943952D01*
X12374762Y-13953476D01*
X12355714Y-13953476D01*
X12336667Y-13943952D01*
X12327143Y-13934428D01*
X12317619Y-13915381D01*
X12308095Y-13877286D01*
X12308095Y-13829667D01*
X12317619Y-13791571D01*
X12327143Y-13772524D01*
X12336667Y-13763000D01*
X12355714Y-13753476D01*
X12508095Y-13934428D02*
X12517619Y-13943952D01*
X12508095Y-13953476D01*
X12498571Y-13943952D01*
X12508095Y-13934428D01*
X12508095Y-13953476D01*
X12612857Y-13953476D02*
X12650952Y-13953476D01*
X12670000Y-13943952D01*
X12679524Y-13934428D01*
X12698571Y-13905857D01*
X12708095Y-13867762D01*
X12708095Y-13791571D01*
X12698571Y-13772524D01*
X12689048Y-13763000D01*
X12670000Y-13753476D01*
X12631905Y-13753476D01*
X12612857Y-13763000D01*
X12603333Y-13772524D01*
X12593809Y-13791571D01*
X12593809Y-13839190D01*
X12603333Y-13858238D01*
X12612857Y-13867762D01*
X12631905Y-13877286D01*
X12670000Y-13877286D01*
X12689048Y-13867762D01*
X12698571Y-13858238D01*
X12708095Y-13839190D01*
X12889048Y-13753476D02*
X12793809Y-13753476D01*
X12784286Y-13848714D01*
X12793809Y-13839190D01*
X12812857Y-13829667D01*
X12860476Y-13829667D01*
X12879524Y-13839190D01*
X12889048Y-13848714D01*
X12898571Y-13867762D01*
X12898571Y-13915381D01*
X12889048Y-13934428D01*
X12879524Y-13943952D01*
X12860476Y-13953476D01*
X12812857Y-13953476D01*
X12793809Y-13943952D01*
X12784286Y-13934428D01*
X13022381Y-13753476D02*
X13041428Y-13753476D01*
X13060476Y-13763000D01*
X13070000Y-13772524D01*
X13079524Y-13791571D01*
X13089048Y-13829667D01*
X13089048Y-13877286D01*
X13079524Y-13915381D01*
X13070000Y-13934428D01*
X13060476Y-13943952D01*
X13041428Y-13953476D01*
X13022381Y-13953476D01*
X13003333Y-13943952D01*
X12993809Y-13934428D01*
X12984286Y-13915381D01*
X12974762Y-13877286D01*
X12974762Y-13829667D01*
X12984286Y-13791571D01*
X12993809Y-13772524D01*
X13003333Y-13763000D01*
X13022381Y-13753476D01*
X13174762Y-13953476D02*
X13174762Y-13820143D01*
X13174762Y-13839190D02*
X13184286Y-13829667D01*
X13203333Y-13820143D01*
X13231905Y-13820143D01*
X13250952Y-13829667D01*
X13260476Y-13848714D01*
X13260476Y-13953476D01*
X13260476Y-13848714D02*
X13270000Y-13829667D01*
X13289048Y-13820143D01*
X13317619Y-13820143D01*
X13336667Y-13829667D01*
X13346190Y-13848714D01*
X13346190Y-13953476D01*
X13441428Y-13953476D02*
X13441428Y-13820143D01*
X13441428Y-13839190D02*
X13450952Y-13829667D01*
X13470000Y-13820143D01*
X13498571Y-13820143D01*
X13517619Y-13829667D01*
X13527143Y-13848714D01*
X13527143Y-13953476D01*
X13527143Y-13848714D02*
X13536667Y-13829667D01*
X13555714Y-13820143D01*
X13584286Y-13820143D01*
X13603333Y-13829667D01*
X13612857Y-13848714D01*
X13612857Y-13953476D01*
X14003333Y-13743952D02*
X13831905Y-14001095D01*
X14260476Y-13753476D02*
X14279524Y-13753476D01*
X14298571Y-13763000D01*
X14308095Y-13772524D01*
X14317619Y-13791571D01*
X14327143Y-13829667D01*
X14327143Y-13877286D01*
X14317619Y-13915381D01*
X14308095Y-13934428D01*
X14298571Y-13943952D01*
X14279524Y-13953476D01*
X14260476Y-13953476D01*
X14241428Y-13943952D01*
X14231905Y-13934428D01*
X14222381Y-13915381D01*
X14212857Y-13877286D01*
X14212857Y-13829667D01*
X14222381Y-13791571D01*
X14231905Y-13772524D01*
X14241428Y-13763000D01*
X14260476Y-13753476D01*
X14412857Y-13934428D02*
X14422381Y-13943952D01*
X14412857Y-13953476D01*
X14403333Y-13943952D01*
X14412857Y-13934428D01*
X14412857Y-13953476D01*
X14546190Y-13753476D02*
X14565238Y-13753476D01*
X14584286Y-13763000D01*
X14593809Y-13772524D01*
X14603333Y-13791571D01*
X14612857Y-13829667D01*
X14612857Y-13877286D01*
X14603333Y-13915381D01*
X14593809Y-13934428D01*
X14584286Y-13943952D01*
X14565238Y-13953476D01*
X14546190Y-13953476D01*
X14527143Y-13943952D01*
X14517619Y-13934428D01*
X14508095Y-13915381D01*
X14498571Y-13877286D01*
X14498571Y-13829667D01*
X14508095Y-13791571D01*
X14517619Y-13772524D01*
X14527143Y-13763000D01*
X14546190Y-13753476D01*
X14679524Y-13753476D02*
X14803333Y-13753476D01*
X14736667Y-13829667D01*
X14765238Y-13829667D01*
X14784286Y-13839190D01*
X14793809Y-13848714D01*
X14803333Y-13867762D01*
X14803333Y-13915381D01*
X14793809Y-13934428D01*
X14784286Y-13943952D01*
X14765238Y-13953476D01*
X14708095Y-13953476D01*
X14689048Y-13943952D01*
X14679524Y-13934428D01*
X14870000Y-13753476D02*
X15003333Y-13753476D01*
X14917619Y-13953476D01*
X15165238Y-13820143D02*
X15165238Y-13953476D01*
X15117619Y-13743952D02*
X15070000Y-13886809D01*
X15193809Y-13886809D01*
X15260476Y-13753476D02*
X15260476Y-13791571D01*
X15336667Y-13753476D02*
X15336667Y-13791571D01*
X15631905Y-14029667D02*
X15622381Y-14020143D01*
X15603333Y-13991571D01*
X15593809Y-13972524D01*
X15584286Y-13943952D01*
X15574762Y-13896333D01*
X15574762Y-13858238D01*
X15584286Y-13810619D01*
X15593809Y-13782048D01*
X15603333Y-13763000D01*
X15622381Y-13734428D01*
X15631905Y-13724905D01*
X15689048Y-13753476D02*
X15822381Y-13753476D01*
X15736667Y-13953476D01*
X16050952Y-13953476D02*
X16050952Y-13753476D01*
X16136667Y-13953476D02*
X16136667Y-13848714D01*
X16127143Y-13829667D01*
X16108095Y-13820143D01*
X16079524Y-13820143D01*
X16060476Y-13829667D01*
X16050952Y-13839190D01*
X16260476Y-13953476D02*
X16241428Y-13943952D01*
X16231905Y-13934428D01*
X16222381Y-13915381D01*
X16222381Y-13858238D01*
X16231905Y-13839190D01*
X16241428Y-13829667D01*
X16260476Y-13820143D01*
X16289048Y-13820143D01*
X16308095Y-13829667D01*
X16317619Y-13839190D01*
X16327143Y-13858238D01*
X16327143Y-13915381D01*
X16317619Y-13934428D01*
X16308095Y-13943952D01*
X16289048Y-13953476D01*
X16260476Y-13953476D01*
X16441428Y-13953476D02*
X16422381Y-13943952D01*
X16412857Y-13924905D01*
X16412857Y-13753476D01*
X16593809Y-13943952D02*
X16574762Y-13953476D01*
X16536667Y-13953476D01*
X16517619Y-13943952D01*
X16508095Y-13924905D01*
X16508095Y-13848714D01*
X16517619Y-13829667D01*
X16536667Y-13820143D01*
X16574762Y-13820143D01*
X16593809Y-13829667D01*
X16603333Y-13848714D01*
X16603333Y-13867762D01*
X16508095Y-13886809D01*
X16679524Y-13943952D02*
X16698571Y-13953476D01*
X16736667Y-13953476D01*
X16755714Y-13943952D01*
X16765238Y-13924905D01*
X16765238Y-13915381D01*
X16755714Y-13896333D01*
X16736667Y-13886809D01*
X16708095Y-13886809D01*
X16689048Y-13877286D01*
X16679524Y-13858238D01*
X16679524Y-13848714D01*
X16689048Y-13829667D01*
X16708095Y-13820143D01*
X16736667Y-13820143D01*
X16755714Y-13829667D01*
X16831905Y-14029667D02*
X16841429Y-14020143D01*
X16860476Y-13991571D01*
X16870000Y-13972524D01*
X16879524Y-13943952D01*
X16889048Y-13896333D01*
X16889048Y-13858238D01*
X16879524Y-13810619D01*
X16870000Y-13782048D01*
X16860476Y-13763000D01*
X16841429Y-13734428D01*
X16831905Y-13724905D01*
D14*
X12010000Y-14077000D02*
X12010000Y-14177000D01*
X11960000Y-14127000D02*
X12060000Y-14127000D01*
D11*
X12422381Y-14217476D02*
X12308095Y-14217476D01*
X12365238Y-14217476D02*
X12365238Y-14017476D01*
X12346190Y-14046048D01*
X12327143Y-14065095D01*
X12308095Y-14074619D01*
X12508095Y-14198428D02*
X12517619Y-14207952D01*
X12508095Y-14217476D01*
X12498571Y-14207952D01*
X12508095Y-14198428D01*
X12508095Y-14217476D01*
X12641428Y-14017476D02*
X12660476Y-14017476D01*
X12679524Y-14027000D01*
X12689048Y-14036524D01*
X12698571Y-14055571D01*
X12708095Y-14093667D01*
X12708095Y-14141286D01*
X12698571Y-14179381D01*
X12689048Y-14198428D01*
X12679524Y-14207952D01*
X12660476Y-14217476D01*
X12641428Y-14217476D01*
X12622381Y-14207952D01*
X12612857Y-14198428D01*
X12603333Y-14179381D01*
X12593809Y-14141286D01*
X12593809Y-14093667D01*
X12603333Y-14055571D01*
X12612857Y-14036524D01*
X12622381Y-14027000D01*
X12641428Y-14017476D01*
X12831905Y-14017476D02*
X12850952Y-14017476D01*
X12870000Y-14027000D01*
X12879524Y-14036524D01*
X12889048Y-14055571D01*
X12898571Y-14093667D01*
X12898571Y-14141286D01*
X12889048Y-14179381D01*
X12879524Y-14198428D01*
X12870000Y-14207952D01*
X12850952Y-14217476D01*
X12831905Y-14217476D01*
X12812857Y-14207952D01*
X12803333Y-14198428D01*
X12793809Y-14179381D01*
X12784286Y-14141286D01*
X12784286Y-14093667D01*
X12793809Y-14055571D01*
X12803333Y-14036524D01*
X12812857Y-14027000D01*
X12831905Y-14017476D01*
X13022381Y-14017476D02*
X13041428Y-14017476D01*
X13060476Y-14027000D01*
X13070000Y-14036524D01*
X13079524Y-14055571D01*
X13089048Y-14093667D01*
X13089048Y-14141286D01*
X13079524Y-14179381D01*
X13070000Y-14198428D01*
X13060476Y-14207952D01*
X13041428Y-14217476D01*
X13022381Y-14217476D01*
X13003333Y-14207952D01*
X12993809Y-14198428D01*
X12984286Y-14179381D01*
X12974762Y-14141286D01*
X12974762Y-14093667D01*
X12984286Y-14055571D01*
X12993809Y-14036524D01*
X13003333Y-14027000D01*
X13022381Y-14017476D01*
X13174762Y-14217476D02*
X13174762Y-14084143D01*
X13174762Y-14103190D02*
X13184286Y-14093667D01*
X13203333Y-14084143D01*
X13231905Y-14084143D01*
X13250952Y-14093667D01*
X13260476Y-14112714D01*
X13260476Y-14217476D01*
X13260476Y-14112714D02*
X13270000Y-14093667D01*
X13289048Y-14084143D01*
X13317619Y-14084143D01*
X13336667Y-14093667D01*
X13346190Y-14112714D01*
X13346190Y-14217476D01*
X13441428Y-14217476D02*
X13441428Y-14084143D01*
X13441428Y-14103190D02*
X13450952Y-14093667D01*
X13470000Y-14084143D01*
X13498571Y-14084143D01*
X13517619Y-14093667D01*
X13527143Y-14112714D01*
X13527143Y-14217476D01*
X13527143Y-14112714D02*
X13536667Y-14093667D01*
X13555714Y-14084143D01*
X13584286Y-14084143D01*
X13603333Y-14093667D01*
X13612857Y-14112714D01*
X13612857Y-14217476D01*
X14003333Y-14007952D02*
X13831905Y-14265095D01*
X14260476Y-14017476D02*
X14279524Y-14017476D01*
X14298571Y-14027000D01*
X14308095Y-14036524D01*
X14317619Y-14055571D01*
X14327143Y-14093667D01*
X14327143Y-14141286D01*
X14317619Y-14179381D01*
X14308095Y-14198428D01*
X14298571Y-14207952D01*
X14279524Y-14217476D01*
X14260476Y-14217476D01*
X14241428Y-14207952D01*
X14231905Y-14198428D01*
X14222381Y-14179381D01*
X14212857Y-14141286D01*
X14212857Y-14093667D01*
X14222381Y-14055571D01*
X14231905Y-14036524D01*
X14241428Y-14027000D01*
X14260476Y-14017476D01*
X14412857Y-14198428D02*
X14422381Y-14207952D01*
X14412857Y-14217476D01*
X14403333Y-14207952D01*
X14412857Y-14198428D01*
X14412857Y-14217476D01*
X14546190Y-14017476D02*
X14565238Y-14017476D01*
X14584286Y-14027000D01*
X14593809Y-14036524D01*
X14603333Y-14055571D01*
X14612857Y-14093667D01*
X14612857Y-14141286D01*
X14603333Y-14179381D01*
X14593809Y-14198428D01*
X14584286Y-14207952D01*
X14565238Y-14217476D01*
X14546190Y-14217476D01*
X14527143Y-14207952D01*
X14517619Y-14198428D01*
X14508095Y-14179381D01*
X14498571Y-14141286D01*
X14498571Y-14093667D01*
X14508095Y-14055571D01*
X14517619Y-14036524D01*
X14527143Y-14027000D01*
X14546190Y-14017476D01*
X14679524Y-14017476D02*
X14803333Y-14017476D01*
X14736667Y-14093667D01*
X14765238Y-14093667D01*
X14784286Y-14103190D01*
X14793809Y-14112714D01*
X14803333Y-14131762D01*
X14803333Y-14179381D01*
X14793809Y-14198428D01*
X14784286Y-14207952D01*
X14765238Y-14217476D01*
X14708095Y-14217476D01*
X14689048Y-14207952D01*
X14679524Y-14198428D01*
X14898571Y-14217476D02*
X14936667Y-14217476D01*
X14955714Y-14207952D01*
X14965238Y-14198428D01*
X14984286Y-14169857D01*
X14993809Y-14131762D01*
X14993809Y-14055571D01*
X14984286Y-14036524D01*
X14974762Y-14027000D01*
X14955714Y-14017476D01*
X14917619Y-14017476D01*
X14898571Y-14027000D01*
X14889048Y-14036524D01*
X14879524Y-14055571D01*
X14879524Y-14103190D01*
X14889048Y-14122238D01*
X14898571Y-14131762D01*
X14917619Y-14141286D01*
X14955714Y-14141286D01*
X14974762Y-14131762D01*
X14984286Y-14122238D01*
X14993809Y-14103190D01*
X15165238Y-14084143D02*
X15165238Y-14217476D01*
X15117619Y-14007952D02*
X15070000Y-14150809D01*
X15193809Y-14150809D01*
X15260476Y-14017476D02*
X15260476Y-14055571D01*
X15336667Y-14017476D02*
X15336667Y-14055571D01*
X15631905Y-14293667D02*
X15622381Y-14284143D01*
X15603333Y-14255571D01*
X15593809Y-14236524D01*
X15584286Y-14207952D01*
X15574762Y-14160333D01*
X15574762Y-14122238D01*
X15584286Y-14074619D01*
X15593809Y-14046048D01*
X15603333Y-14027000D01*
X15622381Y-13998428D01*
X15631905Y-13988905D01*
X15698571Y-14036524D02*
X15708095Y-14027000D01*
X15727143Y-14017476D01*
X15774762Y-14017476D01*
X15793809Y-14027000D01*
X15803333Y-14036524D01*
X15812857Y-14055571D01*
X15812857Y-14074619D01*
X15803333Y-14103190D01*
X15689048Y-14217476D01*
X15812857Y-14217476D01*
X16050952Y-14217476D02*
X16050952Y-14017476D01*
X16136667Y-14217476D02*
X16136667Y-14112714D01*
X16127143Y-14093667D01*
X16108095Y-14084143D01*
X16079524Y-14084143D01*
X16060476Y-14093667D01*
X16050952Y-14103190D01*
X16260476Y-14217476D02*
X16241428Y-14207952D01*
X16231905Y-14198428D01*
X16222381Y-14179381D01*
X16222381Y-14122238D01*
X16231905Y-14103190D01*
X16241428Y-14093667D01*
X16260476Y-14084143D01*
X16289048Y-14084143D01*
X16308095Y-14093667D01*
X16317619Y-14103190D01*
X16327143Y-14122238D01*
X16327143Y-14179381D01*
X16317619Y-14198428D01*
X16308095Y-14207952D01*
X16289048Y-14217476D01*
X16260476Y-14217476D01*
X16441428Y-14217476D02*
X16422381Y-14207952D01*
X16412857Y-14188905D01*
X16412857Y-14017476D01*
X16593809Y-14207952D02*
X16574762Y-14217476D01*
X16536667Y-14217476D01*
X16517619Y-14207952D01*
X16508095Y-14188905D01*
X16508095Y-14112714D01*
X16517619Y-14093667D01*
X16536667Y-14084143D01*
X16574762Y-14084143D01*
X16593809Y-14093667D01*
X16603333Y-14112714D01*
X16603333Y-14131762D01*
X16508095Y-14150809D01*
X16679524Y-14207952D02*
X16698571Y-14217476D01*
X16736667Y-14217476D01*
X16755714Y-14207952D01*
X16765238Y-14188905D01*
X16765238Y-14179381D01*
X16755714Y-14160333D01*
X16736667Y-14150809D01*
X16708095Y-14150809D01*
X16689048Y-14141286D01*
X16679524Y-14122238D01*
X16679524Y-14112714D01*
X16689048Y-14093667D01*
X16708095Y-14084143D01*
X16736667Y-14084143D01*
X16755714Y-14093667D01*
X16831905Y-14293667D02*
X16841429Y-14284143D01*
X16860476Y-14255571D01*
X16870000Y-14236524D01*
X16879524Y-14207952D01*
X16889048Y-14160333D01*
X16889048Y-14122238D01*
X16879524Y-14074619D01*
X16870000Y-14046048D01*
X16860476Y-14027000D01*
X16841429Y-13998428D01*
X16831905Y-13988905D01*
M02*
