%FSLAX45Y45*%
G04 Gerber Fmt 4.5, Leading zero omitted, Abs format (unit mm)*
G04 Created by KiCad (PCBNEW (6.0.1-0)) date 2022-10-24 19:00:19*
%MOMM*%
%LPD*%
G01*
G04 APERTURE LIST*
%TA.AperFunction,Profile*%
%ADD10C,0.100000*%
%TD*%
%ADD11C,0.200000*%
%ADD12C,0.320000*%
G04 APERTURE END LIST*
D10*
X16767190Y-7429500D02*
X16767190Y-12509500D01*
X12509500Y-6985000D02*
G75*
G03*
X12065000Y-7429500I0J-444500D01*
G01*
X16322690Y-12954000D02*
X12509500Y-12954000D01*
X16767190Y-7429500D02*
G75*
G03*
X16322690Y-6985000I-444500J0D01*
G01*
X12065000Y-12509500D02*
X12065000Y-7429500D01*
X12509500Y-6985000D02*
X16322690Y-6985000D01*
X16322690Y-12954000D02*
G75*
G03*
X16767190Y-12509500I0J444500D01*
G01*
X12065000Y-12509500D02*
G75*
G03*
X12509500Y-12954000I444500J0D01*
G01*
D11*
D12*
X12349500Y-7269500D02*
X12669500Y-7589500D01*
X12669500Y-7269500D02*
X12349500Y-7589500D01*
X12349500Y-12349500D02*
X12669500Y-12669500D01*
X12669500Y-12349500D02*
X12349500Y-12669500D01*
X16159500Y-7269500D02*
X16479500Y-7589500D01*
X16479500Y-7269500D02*
X16159500Y-7589500D01*
X16159500Y-12349500D02*
X16479500Y-12669500D01*
X16479500Y-12349500D02*
X16159500Y-12669500D01*
D11*
X12317619Y-13269476D02*
X12317619Y-13069476D01*
X12365238Y-13069476D01*
X12393809Y-13079000D01*
X12412857Y-13098048D01*
X12422381Y-13117095D01*
X12431905Y-13155190D01*
X12431905Y-13183762D01*
X12422381Y-13221857D01*
X12412857Y-13240905D01*
X12393809Y-13259952D01*
X12365238Y-13269476D01*
X12317619Y-13269476D01*
X12517619Y-13269476D02*
X12517619Y-13136143D01*
X12517619Y-13174238D02*
X12527143Y-13155190D01*
X12536667Y-13145667D01*
X12555714Y-13136143D01*
X12574762Y-13136143D01*
X12641428Y-13269476D02*
X12641428Y-13136143D01*
X12641428Y-13069476D02*
X12631905Y-13079000D01*
X12641428Y-13088524D01*
X12650952Y-13079000D01*
X12641428Y-13069476D01*
X12641428Y-13088524D01*
X12765238Y-13269476D02*
X12746190Y-13259952D01*
X12736667Y-13240905D01*
X12736667Y-13069476D01*
X12870000Y-13269476D02*
X12850952Y-13259952D01*
X12841428Y-13240905D01*
X12841428Y-13069476D01*
X13098571Y-13269476D02*
X13098571Y-13069476D01*
X13165238Y-13212333D01*
X13231905Y-13069476D01*
X13231905Y-13269476D01*
X13412857Y-13269476D02*
X13412857Y-13164714D01*
X13403333Y-13145667D01*
X13384286Y-13136143D01*
X13346190Y-13136143D01*
X13327143Y-13145667D01*
X13412857Y-13259952D02*
X13393809Y-13269476D01*
X13346190Y-13269476D01*
X13327143Y-13259952D01*
X13317619Y-13240905D01*
X13317619Y-13221857D01*
X13327143Y-13202809D01*
X13346190Y-13193286D01*
X13393809Y-13193286D01*
X13412857Y-13183762D01*
X13508095Y-13136143D02*
X13508095Y-13336143D01*
X13508095Y-13145667D02*
X13527143Y-13136143D01*
X13565238Y-13136143D01*
X13584286Y-13145667D01*
X13593809Y-13155190D01*
X13603333Y-13174238D01*
X13603333Y-13231381D01*
X13593809Y-13250428D01*
X13584286Y-13259952D01*
X13565238Y-13269476D01*
X13527143Y-13269476D01*
X13508095Y-13259952D01*
X13689048Y-13250428D02*
X13698571Y-13259952D01*
X13689048Y-13269476D01*
X13679524Y-13259952D01*
X13689048Y-13250428D01*
X13689048Y-13269476D01*
X13689048Y-13145667D02*
X13698571Y-13155190D01*
X13689048Y-13164714D01*
X13679524Y-13155190D01*
X13689048Y-13145667D01*
X13689048Y-13164714D01*
X11860000Y-13499000D02*
X12060000Y-13699000D01*
X12060000Y-13499000D02*
X11860000Y-13699000D01*
X12298571Y-13489476D02*
X12422381Y-13489476D01*
X12355714Y-13565667D01*
X12384286Y-13565667D01*
X12403333Y-13575190D01*
X12412857Y-13584714D01*
X12422381Y-13603762D01*
X12422381Y-13651381D01*
X12412857Y-13670428D01*
X12403333Y-13679952D01*
X12384286Y-13689476D01*
X12327143Y-13689476D01*
X12308095Y-13679952D01*
X12298571Y-13670428D01*
X12508095Y-13670428D02*
X12517619Y-13679952D01*
X12508095Y-13689476D01*
X12498571Y-13679952D01*
X12508095Y-13670428D01*
X12508095Y-13689476D01*
X12593809Y-13508524D02*
X12603333Y-13499000D01*
X12622381Y-13489476D01*
X12670000Y-13489476D01*
X12689048Y-13499000D01*
X12698571Y-13508524D01*
X12708095Y-13527571D01*
X12708095Y-13546619D01*
X12698571Y-13575190D01*
X12584286Y-13689476D01*
X12708095Y-13689476D01*
X12831905Y-13489476D02*
X12850952Y-13489476D01*
X12870000Y-13499000D01*
X12879524Y-13508524D01*
X12889048Y-13527571D01*
X12898571Y-13565667D01*
X12898571Y-13613286D01*
X12889048Y-13651381D01*
X12879524Y-13670428D01*
X12870000Y-13679952D01*
X12850952Y-13689476D01*
X12831905Y-13689476D01*
X12812857Y-13679952D01*
X12803333Y-13670428D01*
X12793809Y-13651381D01*
X12784286Y-13613286D01*
X12784286Y-13565667D01*
X12793809Y-13527571D01*
X12803333Y-13508524D01*
X12812857Y-13499000D01*
X12831905Y-13489476D01*
X13022381Y-13489476D02*
X13041428Y-13489476D01*
X13060476Y-13499000D01*
X13070000Y-13508524D01*
X13079524Y-13527571D01*
X13089048Y-13565667D01*
X13089048Y-13613286D01*
X13079524Y-13651381D01*
X13070000Y-13670428D01*
X13060476Y-13679952D01*
X13041428Y-13689476D01*
X13022381Y-13689476D01*
X13003333Y-13679952D01*
X12993809Y-13670428D01*
X12984286Y-13651381D01*
X12974762Y-13613286D01*
X12974762Y-13565667D01*
X12984286Y-13527571D01*
X12993809Y-13508524D01*
X13003333Y-13499000D01*
X13022381Y-13489476D01*
X13174762Y-13689476D02*
X13174762Y-13556143D01*
X13174762Y-13575190D02*
X13184286Y-13565667D01*
X13203333Y-13556143D01*
X13231905Y-13556143D01*
X13250952Y-13565667D01*
X13260476Y-13584714D01*
X13260476Y-13689476D01*
X13260476Y-13584714D02*
X13270000Y-13565667D01*
X13289048Y-13556143D01*
X13317619Y-13556143D01*
X13336667Y-13565667D01*
X13346190Y-13584714D01*
X13346190Y-13689476D01*
X13441428Y-13689476D02*
X13441428Y-13556143D01*
X13441428Y-13575190D02*
X13450952Y-13565667D01*
X13470000Y-13556143D01*
X13498571Y-13556143D01*
X13517619Y-13565667D01*
X13527143Y-13584714D01*
X13527143Y-13689476D01*
X13527143Y-13584714D02*
X13536667Y-13565667D01*
X13555714Y-13556143D01*
X13584286Y-13556143D01*
X13603333Y-13565667D01*
X13612857Y-13584714D01*
X13612857Y-13689476D01*
X14003333Y-13479952D02*
X13831905Y-13737095D01*
X14260476Y-13489476D02*
X14279524Y-13489476D01*
X14298571Y-13499000D01*
X14308095Y-13508524D01*
X14317619Y-13527571D01*
X14327143Y-13565667D01*
X14327143Y-13613286D01*
X14317619Y-13651381D01*
X14308095Y-13670428D01*
X14298571Y-13679952D01*
X14279524Y-13689476D01*
X14260476Y-13689476D01*
X14241428Y-13679952D01*
X14231905Y-13670428D01*
X14222381Y-13651381D01*
X14212857Y-13613286D01*
X14212857Y-13565667D01*
X14222381Y-13527571D01*
X14231905Y-13508524D01*
X14241428Y-13499000D01*
X14260476Y-13489476D01*
X14412857Y-13670428D02*
X14422381Y-13679952D01*
X14412857Y-13689476D01*
X14403333Y-13679952D01*
X14412857Y-13670428D01*
X14412857Y-13689476D01*
X14612857Y-13689476D02*
X14498571Y-13689476D01*
X14555714Y-13689476D02*
X14555714Y-13489476D01*
X14536667Y-13518048D01*
X14517619Y-13537095D01*
X14498571Y-13546619D01*
X14689048Y-13508524D02*
X14698571Y-13499000D01*
X14717619Y-13489476D01*
X14765238Y-13489476D01*
X14784286Y-13499000D01*
X14793809Y-13508524D01*
X14803333Y-13527571D01*
X14803333Y-13546619D01*
X14793809Y-13575190D01*
X14679524Y-13689476D01*
X14803333Y-13689476D01*
X14974762Y-13489476D02*
X14936667Y-13489476D01*
X14917619Y-13499000D01*
X14908095Y-13508524D01*
X14889048Y-13537095D01*
X14879524Y-13575190D01*
X14879524Y-13651381D01*
X14889048Y-13670428D01*
X14898571Y-13679952D01*
X14917619Y-13689476D01*
X14955714Y-13689476D01*
X14974762Y-13679952D01*
X14984286Y-13670428D01*
X14993809Y-13651381D01*
X14993809Y-13603762D01*
X14984286Y-13584714D01*
X14974762Y-13575190D01*
X14955714Y-13565667D01*
X14917619Y-13565667D01*
X14898571Y-13575190D01*
X14889048Y-13584714D01*
X14879524Y-13603762D01*
X15117619Y-13489476D02*
X15136667Y-13489476D01*
X15155714Y-13499000D01*
X15165238Y-13508524D01*
X15174762Y-13527571D01*
X15184286Y-13565667D01*
X15184286Y-13613286D01*
X15174762Y-13651381D01*
X15165238Y-13670428D01*
X15155714Y-13679952D01*
X15136667Y-13689476D01*
X15117619Y-13689476D01*
X15098571Y-13679952D01*
X15089048Y-13670428D01*
X15079524Y-13651381D01*
X15070000Y-13613286D01*
X15070000Y-13565667D01*
X15079524Y-13527571D01*
X15089048Y-13508524D01*
X15098571Y-13499000D01*
X15117619Y-13489476D01*
X15260476Y-13489476D02*
X15260476Y-13527571D01*
X15336667Y-13489476D02*
X15336667Y-13527571D01*
X15631905Y-13765667D02*
X15622381Y-13756143D01*
X15603333Y-13727571D01*
X15593809Y-13708524D01*
X15584286Y-13679952D01*
X15574762Y-13632333D01*
X15574762Y-13594238D01*
X15584286Y-13546619D01*
X15593809Y-13518048D01*
X15603333Y-13499000D01*
X15622381Y-13470428D01*
X15631905Y-13460905D01*
X15793809Y-13556143D02*
X15793809Y-13689476D01*
X15746190Y-13479952D02*
X15698571Y-13622809D01*
X15822381Y-13622809D01*
X16050952Y-13689476D02*
X16050952Y-13489476D01*
X16136667Y-13689476D02*
X16136667Y-13584714D01*
X16127143Y-13565667D01*
X16108095Y-13556143D01*
X16079524Y-13556143D01*
X16060476Y-13565667D01*
X16050952Y-13575190D01*
X16260476Y-13689476D02*
X16241428Y-13679952D01*
X16231905Y-13670428D01*
X16222381Y-13651381D01*
X16222381Y-13594238D01*
X16231905Y-13575190D01*
X16241428Y-13565667D01*
X16260476Y-13556143D01*
X16289048Y-13556143D01*
X16308095Y-13565667D01*
X16317619Y-13575190D01*
X16327143Y-13594238D01*
X16327143Y-13651381D01*
X16317619Y-13670428D01*
X16308095Y-13679952D01*
X16289048Y-13689476D01*
X16260476Y-13689476D01*
X16441428Y-13689476D02*
X16422381Y-13679952D01*
X16412857Y-13660905D01*
X16412857Y-13489476D01*
X16593809Y-13679952D02*
X16574762Y-13689476D01*
X16536667Y-13689476D01*
X16517619Y-13679952D01*
X16508095Y-13660905D01*
X16508095Y-13584714D01*
X16517619Y-13565667D01*
X16536667Y-13556143D01*
X16574762Y-13556143D01*
X16593809Y-13565667D01*
X16603333Y-13584714D01*
X16603333Y-13603762D01*
X16508095Y-13622809D01*
X16679524Y-13679952D02*
X16698571Y-13689476D01*
X16736667Y-13689476D01*
X16755714Y-13679952D01*
X16765238Y-13660905D01*
X16765238Y-13651381D01*
X16755714Y-13632333D01*
X16736667Y-13622809D01*
X16708095Y-13622809D01*
X16689048Y-13613286D01*
X16679524Y-13594238D01*
X16679524Y-13584714D01*
X16689048Y-13565667D01*
X16708095Y-13556143D01*
X16736667Y-13556143D01*
X16755714Y-13565667D01*
X16831905Y-13765667D02*
X16841429Y-13756143D01*
X16860476Y-13727571D01*
X16870000Y-13708524D01*
X16879524Y-13679952D01*
X16889048Y-13632333D01*
X16889048Y-13594238D01*
X16879524Y-13546619D01*
X16870000Y-13518048D01*
X16860476Y-13499000D01*
X16841429Y-13470428D01*
X16831905Y-13460905D01*
X17193810Y-13765667D02*
X17184286Y-13756143D01*
X17165238Y-13727571D01*
X17155714Y-13708524D01*
X17146190Y-13679952D01*
X17136667Y-13632333D01*
X17136667Y-13594238D01*
X17146190Y-13546619D01*
X17155714Y-13518048D01*
X17165238Y-13499000D01*
X17184286Y-13470428D01*
X17193810Y-13460905D01*
X17270000Y-13556143D02*
X17270000Y-13689476D01*
X17270000Y-13575190D02*
X17279524Y-13565667D01*
X17298571Y-13556143D01*
X17327143Y-13556143D01*
X17346190Y-13565667D01*
X17355714Y-13584714D01*
X17355714Y-13689476D01*
X17479524Y-13689476D02*
X17460476Y-13679952D01*
X17450952Y-13670428D01*
X17441429Y-13651381D01*
X17441429Y-13594238D01*
X17450952Y-13575190D01*
X17460476Y-13565667D01*
X17479524Y-13556143D01*
X17508095Y-13556143D01*
X17527143Y-13565667D01*
X17536667Y-13575190D01*
X17546190Y-13594238D01*
X17546190Y-13651381D01*
X17536667Y-13670428D01*
X17527143Y-13679952D01*
X17508095Y-13689476D01*
X17479524Y-13689476D01*
X17603333Y-13556143D02*
X17679524Y-13556143D01*
X17631905Y-13489476D02*
X17631905Y-13660905D01*
X17641429Y-13679952D01*
X17660476Y-13689476D01*
X17679524Y-13689476D01*
X17898571Y-13556143D02*
X17898571Y-13756143D01*
X17898571Y-13565667D02*
X17917619Y-13556143D01*
X17955714Y-13556143D01*
X17974762Y-13565667D01*
X17984286Y-13575190D01*
X17993810Y-13594238D01*
X17993810Y-13651381D01*
X17984286Y-13670428D01*
X17974762Y-13679952D01*
X17955714Y-13689476D01*
X17917619Y-13689476D01*
X17898571Y-13679952D01*
X18108095Y-13689476D02*
X18089048Y-13679952D01*
X18079524Y-13660905D01*
X18079524Y-13489476D01*
X18270000Y-13689476D02*
X18270000Y-13584714D01*
X18260476Y-13565667D01*
X18241429Y-13556143D01*
X18203333Y-13556143D01*
X18184286Y-13565667D01*
X18270000Y-13679952D02*
X18250952Y-13689476D01*
X18203333Y-13689476D01*
X18184286Y-13679952D01*
X18174762Y-13660905D01*
X18174762Y-13641857D01*
X18184286Y-13622809D01*
X18203333Y-13613286D01*
X18250952Y-13613286D01*
X18270000Y-13603762D01*
X18336667Y-13556143D02*
X18412857Y-13556143D01*
X18365238Y-13489476D02*
X18365238Y-13660905D01*
X18374762Y-13679952D01*
X18393810Y-13689476D01*
X18412857Y-13689476D01*
X18555714Y-13679952D02*
X18536667Y-13689476D01*
X18498571Y-13689476D01*
X18479524Y-13679952D01*
X18470000Y-13660905D01*
X18470000Y-13584714D01*
X18479524Y-13565667D01*
X18498571Y-13556143D01*
X18536667Y-13556143D01*
X18555714Y-13565667D01*
X18565238Y-13584714D01*
X18565238Y-13603762D01*
X18470000Y-13622809D01*
X18736667Y-13689476D02*
X18736667Y-13489476D01*
X18736667Y-13679952D02*
X18717619Y-13689476D01*
X18679524Y-13689476D01*
X18660476Y-13679952D01*
X18650952Y-13670428D01*
X18641429Y-13651381D01*
X18641429Y-13594238D01*
X18650952Y-13575190D01*
X18660476Y-13565667D01*
X18679524Y-13556143D01*
X18717619Y-13556143D01*
X18736667Y-13565667D01*
X18812857Y-13765667D02*
X18822381Y-13756143D01*
X18841429Y-13727571D01*
X18850952Y-13708524D01*
X18860476Y-13679952D01*
X18870000Y-13632333D01*
X18870000Y-13594238D01*
X18860476Y-13546619D01*
X18850952Y-13518048D01*
X18841429Y-13499000D01*
X18822381Y-13470428D01*
X18812857Y-13460905D01*
M02*
