%TF.GenerationSoftware,KiCad,Pcbnew,(6.0.1-0)*%
%TF.CreationDate,2022-10-07T23:17:40-05:00*%
%TF.ProjectId,tackle_sensor_hardware,7461636b-6c65-45f7-9365-6e736f725f68,rev?*%
%TF.SameCoordinates,Original*%
%TF.FileFunction,Copper,L3,Inr*%
%TF.FilePolarity,Positive*%
%FSLAX46Y46*%
G04 Gerber Fmt 4.6, Leading zero omitted, Abs format (unit mm)*
G04 Created by KiCad (PCBNEW (6.0.1-0)) date 2022-10-07 23:17:40*
%MOMM*%
%LPD*%
G01*
G04 APERTURE LIST*
G04 Aperture macros list*
%AMRoundRect*
0 Rectangle with rounded corners*
0 $1 Rounding radius*
0 $2 $3 $4 $5 $6 $7 $8 $9 X,Y pos of 4 corners*
0 Add a 4 corners polygon primitive as box body*
4,1,4,$2,$3,$4,$5,$6,$7,$8,$9,$2,$3,0*
0 Add four circle primitives for the rounded corners*
1,1,$1+$1,$2,$3*
1,1,$1+$1,$4,$5*
1,1,$1+$1,$6,$7*
1,1,$1+$1,$8,$9*
0 Add four rect primitives between the rounded corners*
20,1,$1+$1,$2,$3,$4,$5,0*
20,1,$1+$1,$4,$5,$6,$7,0*
20,1,$1+$1,$6,$7,$8,$9,0*
20,1,$1+$1,$8,$9,$2,$3,0*%
G04 Aperture macros list end*
%TA.AperFunction,ComponentPad*%
%ADD10RoundRect,0.250000X-0.725000X0.600000X-0.725000X-0.600000X0.725000X-0.600000X0.725000X0.600000X0*%
%TD*%
%TA.AperFunction,ComponentPad*%
%ADD11O,1.950000X1.700000*%
%TD*%
%TA.AperFunction,ComponentPad*%
%ADD12RoundRect,0.250000X0.750000X-0.600000X0.750000X0.600000X-0.750000X0.600000X-0.750000X-0.600000X0*%
%TD*%
%TA.AperFunction,ComponentPad*%
%ADD13O,2.000000X1.700000*%
%TD*%
%TA.AperFunction,ViaPad*%
%ADD14C,0.800000*%
%TD*%
%TA.AperFunction,ViaPad*%
%ADD15C,0.500000*%
%TD*%
%TA.AperFunction,ViaPad*%
%ADD16C,1.000000*%
%TD*%
G04 APERTURE END LIST*
D10*
%TO.N,Net-(J3-Pad1)*%
%TO.C,J3*%
X162305000Y-102870000D03*
D11*
%TO.N,Net-(J3-Pad2)*%
X162305000Y-105370000D03*
%TO.N,GND*%
X162305000Y-107870000D03*
%TD*%
D12*
%TO.N,GND*%
%TO.C,J1*%
X124460000Y-115911000D03*
D13*
%TO.N,Net-(J1-Pad2)*%
X124460000Y-113411000D03*
%TD*%
D10*
%TO.N,Net-(F1-Pad2)*%
%TO.C,J2*%
X161815000Y-81340000D03*
D11*
%TO.N,Net-(J2-Pad2)*%
X161815000Y-83840000D03*
%TO.N,Net-(J2-Pad3)*%
X161815000Y-86340000D03*
%TO.N,Net-(J2-Pad4)*%
X161815000Y-88840000D03*
%TD*%
D14*
%TO.N,GND*%
X135255000Y-111760000D03*
D15*
X132080000Y-74549000D03*
X131064000Y-75438000D03*
X130048000Y-74549000D03*
X131064000Y-73660000D03*
X127508000Y-78105000D03*
X132080000Y-73660000D03*
X147769500Y-111816000D03*
X149293500Y-112578000D03*
X130048000Y-75438000D03*
X157040500Y-109657000D03*
X130048000Y-71628000D03*
X131064000Y-71628000D03*
X131064000Y-74549000D03*
X136525000Y-70739000D03*
X145102500Y-103942000D03*
X132080000Y-72644000D03*
X156659500Y-113848000D03*
X143256000Y-109855000D03*
X126492000Y-78105000D03*
X132080000Y-71628000D03*
X125476000Y-78105000D03*
X137541000Y-70739000D03*
X131064000Y-76327000D03*
X130048000Y-72644000D03*
X135509000Y-70739000D03*
X142478000Y-97665000D03*
X130048000Y-76327000D03*
X131064000Y-72644000D03*
X132080000Y-75438000D03*
X127381000Y-83312000D03*
X130048000Y-73660000D03*
%TO.N,+3V3*%
X144912000Y-102862500D03*
X152341500Y-113848000D03*
X144383000Y-103634000D03*
X152341500Y-111816000D03*
X152341500Y-109657000D03*
%TO.N,Net-(R7-Pad2)*%
X123317000Y-79375000D03*
X136398000Y-82677000D03*
%TO.N,Net-(R4-Pad1)*%
X125095000Y-84582000D03*
X127635000Y-80645000D03*
D16*
%TO.N,+12V*%
X139065000Y-80772000D03*
X150856000Y-73214000D03*
D15*
%TO.N,Net-(C9-Pad2)*%
X155829000Y-96393000D03*
%TO.N,/SWCLK*%
X139827000Y-82296000D03*
%TO.N,TACKLE_STATUS*%
X164102774Y-97241000D03*
%TO.N,Net-(C9-Pad2)*%
X151910774Y-95717000D03*
%TO.N,/SPI1_SCK*%
X150309500Y-109149000D03*
X144467500Y-106609000D03*
%TO.N,/ACC_INT1*%
X148150500Y-104831000D03*
X151071500Y-108768000D03*
X143256000Y-107950000D03*
X142181500Y-106863000D03*
%TO.N,Net-(SW2-Pad2)*%
X144975500Y-101910000D03*
X141165500Y-105085000D03*
%TD*%
%TA.AperFunction,Conductor*%
%TO.N,+3V3*%
G36*
X134728623Y-70378002D02*
G01*
X134775116Y-70431658D01*
X134785220Y-70501932D01*
X134778905Y-70527091D01*
X134767103Y-70559516D01*
X134745775Y-70728343D01*
X134762381Y-70897699D01*
X134816094Y-71059167D01*
X134819741Y-71065189D01*
X134819742Y-71065191D01*
X134873454Y-71153879D01*
X134904246Y-71204723D01*
X135022455Y-71327132D01*
X135164846Y-71420310D01*
X135171450Y-71422766D01*
X135171452Y-71422767D01*
X135207844Y-71436301D01*
X135324341Y-71479626D01*
X135493015Y-71502132D01*
X135500026Y-71501494D01*
X135500030Y-71501494D01*
X135655462Y-71487348D01*
X135662483Y-71486709D01*
X135669185Y-71484531D01*
X135669187Y-71484531D01*
X135817623Y-71436301D01*
X135817626Y-71436300D01*
X135824322Y-71434124D01*
X135954307Y-71356637D01*
X136023062Y-71338937D01*
X136087817Y-71359434D01*
X136180846Y-71420310D01*
X136187450Y-71422766D01*
X136187452Y-71422767D01*
X136223844Y-71436301D01*
X136340341Y-71479626D01*
X136509015Y-71502132D01*
X136516026Y-71501494D01*
X136516030Y-71501494D01*
X136671462Y-71487348D01*
X136678483Y-71486709D01*
X136685185Y-71484531D01*
X136685187Y-71484531D01*
X136833623Y-71436301D01*
X136833626Y-71436300D01*
X136840322Y-71434124D01*
X136970307Y-71356637D01*
X137039062Y-71338937D01*
X137103817Y-71359434D01*
X137196846Y-71420310D01*
X137203450Y-71422766D01*
X137203452Y-71422767D01*
X137239844Y-71436301D01*
X137356341Y-71479626D01*
X137525015Y-71502132D01*
X137532026Y-71501494D01*
X137532030Y-71501494D01*
X137687462Y-71487348D01*
X137694483Y-71486709D01*
X137701185Y-71484531D01*
X137701187Y-71484531D01*
X137849623Y-71436301D01*
X137849626Y-71436300D01*
X137856322Y-71434124D01*
X138002490Y-71346990D01*
X138007584Y-71342139D01*
X138007588Y-71342136D01*
X138074833Y-71278099D01*
X138125721Y-71229639D01*
X138219891Y-71087902D01*
X138280319Y-70928825D01*
X138304001Y-70760313D01*
X138304299Y-70739000D01*
X138285331Y-70569892D01*
X138269850Y-70525437D01*
X138266336Y-70454528D01*
X138301717Y-70392975D01*
X138364759Y-70360323D01*
X138388841Y-70358000D01*
X161272582Y-70358000D01*
X161291967Y-70359500D01*
X161306768Y-70361805D01*
X161306771Y-70361805D01*
X161315640Y-70363186D01*
X161335536Y-70360584D01*
X161357694Y-70359654D01*
X161679353Y-70374525D01*
X161690942Y-70375599D01*
X162039568Y-70424231D01*
X162051007Y-70426370D01*
X162170729Y-70454528D01*
X162393654Y-70506959D01*
X162404836Y-70510140D01*
X162532419Y-70552902D01*
X162738595Y-70622006D01*
X162749447Y-70626210D01*
X163071457Y-70768391D01*
X163081862Y-70773571D01*
X163389397Y-70944867D01*
X163399274Y-70950983D01*
X163689677Y-71149914D01*
X163698965Y-71156928D01*
X163969775Y-71381806D01*
X163978375Y-71389647D01*
X164227263Y-71638535D01*
X164235104Y-71647135D01*
X164459982Y-71917945D01*
X164466996Y-71927233D01*
X164598112Y-72118639D01*
X164644731Y-72186693D01*
X164665927Y-72217636D01*
X164672043Y-72227513D01*
X164843339Y-72535048D01*
X164848519Y-72545453D01*
X164990700Y-72867463D01*
X164994904Y-72878315D01*
X165031102Y-72986314D01*
X165106241Y-73210495D01*
X165106767Y-73212065D01*
X165109952Y-73223260D01*
X165190540Y-73565903D01*
X165192679Y-73577342D01*
X165241311Y-73925968D01*
X165242385Y-73937557D01*
X165256913Y-74251816D01*
X165255548Y-74277015D01*
X165253724Y-74288730D01*
X165254888Y-74297632D01*
X165254888Y-74297635D01*
X165257846Y-74320251D01*
X165258910Y-74336589D01*
X165258910Y-122505672D01*
X165257410Y-122525056D01*
X165253724Y-122548730D01*
X165255364Y-122561270D01*
X165256326Y-122568626D01*
X165257256Y-122590784D01*
X165242385Y-122912443D01*
X165241311Y-122924032D01*
X165192679Y-123272658D01*
X165190540Y-123284097D01*
X165109952Y-123626740D01*
X165106770Y-123637926D01*
X165060621Y-123775614D01*
X164994904Y-123971685D01*
X164990700Y-123982537D01*
X164848519Y-124304547D01*
X164843339Y-124314952D01*
X164672043Y-124622487D01*
X164665928Y-124632363D01*
X164644698Y-124663354D01*
X164466996Y-124922767D01*
X164459982Y-124932055D01*
X164235104Y-125202865D01*
X164227263Y-125211465D01*
X163978375Y-125460353D01*
X163969775Y-125468194D01*
X163698965Y-125693072D01*
X163689677Y-125700086D01*
X163399274Y-125899017D01*
X163389397Y-125905133D01*
X163081862Y-126076429D01*
X163071457Y-126081609D01*
X162749447Y-126223790D01*
X162738595Y-126227994D01*
X162571720Y-126283925D01*
X162404836Y-126339860D01*
X162393654Y-126343041D01*
X162244398Y-126378145D01*
X162051007Y-126423630D01*
X162039568Y-126425769D01*
X161690942Y-126474401D01*
X161679354Y-126475475D01*
X161654301Y-126476633D01*
X161365094Y-126490003D01*
X161339895Y-126488638D01*
X161337052Y-126488195D01*
X161337050Y-126488195D01*
X161328180Y-126486814D01*
X161319278Y-126487978D01*
X161319275Y-126487978D01*
X161296659Y-126490936D01*
X161280321Y-126492000D01*
X125144328Y-126492000D01*
X125124943Y-126490500D01*
X125110142Y-126488195D01*
X125110139Y-126488195D01*
X125101270Y-126486814D01*
X125082105Y-126489320D01*
X125081374Y-126489416D01*
X125059216Y-126490346D01*
X124737557Y-126475475D01*
X124725968Y-126474401D01*
X124377342Y-126425769D01*
X124365903Y-126423630D01*
X124172512Y-126378145D01*
X124023256Y-126343041D01*
X124012074Y-126339860D01*
X123845190Y-126283926D01*
X123678315Y-126227994D01*
X123667463Y-126223790D01*
X123345453Y-126081609D01*
X123335048Y-126076429D01*
X123027513Y-125905133D01*
X123017636Y-125899017D01*
X122727233Y-125700086D01*
X122717945Y-125693072D01*
X122447135Y-125468194D01*
X122438535Y-125460353D01*
X122189647Y-125211465D01*
X122181806Y-125202865D01*
X121956928Y-124932055D01*
X121949914Y-124922767D01*
X121772212Y-124663354D01*
X121750982Y-124632363D01*
X121744867Y-124622487D01*
X121573571Y-124314952D01*
X121568391Y-124304547D01*
X121426210Y-123982537D01*
X121422006Y-123971685D01*
X121356289Y-123775614D01*
X121310140Y-123637926D01*
X121306958Y-123626740D01*
X121226370Y-123284097D01*
X121224231Y-123272658D01*
X121175599Y-122924032D01*
X121174525Y-122912443D01*
X121164135Y-122687703D01*
X122985743Y-122687703D01*
X123023268Y-122972734D01*
X123099129Y-123250036D01*
X123211923Y-123514476D01*
X123359561Y-123761161D01*
X123539313Y-123985528D01*
X123747851Y-124183423D01*
X123981317Y-124351186D01*
X123985112Y-124353195D01*
X123985113Y-124353196D01*
X124006869Y-124364715D01*
X124235392Y-124485712D01*
X124505373Y-124584511D01*
X124786264Y-124645755D01*
X124814841Y-124648004D01*
X125009282Y-124663307D01*
X125009291Y-124663307D01*
X125011739Y-124663500D01*
X125167271Y-124663500D01*
X125169407Y-124663354D01*
X125169418Y-124663354D01*
X125377548Y-124649165D01*
X125377554Y-124649164D01*
X125381825Y-124648873D01*
X125386020Y-124648004D01*
X125386022Y-124648004D01*
X125522584Y-124619723D01*
X125663342Y-124590574D01*
X125934343Y-124494607D01*
X126189812Y-124362750D01*
X126193313Y-124360289D01*
X126193317Y-124360287D01*
X126349328Y-124250640D01*
X126425023Y-124197441D01*
X126635622Y-124001740D01*
X126817713Y-123779268D01*
X126967927Y-123534142D01*
X127083483Y-123270898D01*
X127162244Y-122994406D01*
X127202751Y-122709784D01*
X127202845Y-122691951D01*
X127202867Y-122687703D01*
X159180743Y-122687703D01*
X159218268Y-122972734D01*
X159294129Y-123250036D01*
X159406923Y-123514476D01*
X159554561Y-123761161D01*
X159734313Y-123985528D01*
X159942851Y-124183423D01*
X160176317Y-124351186D01*
X160180112Y-124353195D01*
X160180113Y-124353196D01*
X160201869Y-124364715D01*
X160430392Y-124485712D01*
X160700373Y-124584511D01*
X160981264Y-124645755D01*
X161009841Y-124648004D01*
X161204282Y-124663307D01*
X161204291Y-124663307D01*
X161206739Y-124663500D01*
X161362271Y-124663500D01*
X161364407Y-124663354D01*
X161364418Y-124663354D01*
X161572548Y-124649165D01*
X161572554Y-124649164D01*
X161576825Y-124648873D01*
X161581020Y-124648004D01*
X161581022Y-124648004D01*
X161717584Y-124619723D01*
X161858342Y-124590574D01*
X162129343Y-124494607D01*
X162384812Y-124362750D01*
X162388313Y-124360289D01*
X162388317Y-124360287D01*
X162544328Y-124250640D01*
X162620023Y-124197441D01*
X162830622Y-124001740D01*
X163012713Y-123779268D01*
X163162927Y-123534142D01*
X163278483Y-123270898D01*
X163357244Y-122994406D01*
X163397751Y-122709784D01*
X163397845Y-122691951D01*
X163399235Y-122426583D01*
X163399235Y-122426576D01*
X163399257Y-122422297D01*
X163361732Y-122137266D01*
X163285871Y-121859964D01*
X163173077Y-121595524D01*
X163025439Y-121348839D01*
X162845687Y-121124472D01*
X162637149Y-120926577D01*
X162403683Y-120758814D01*
X162381843Y-120747250D01*
X162358654Y-120734972D01*
X162149608Y-120624288D01*
X161879627Y-120525489D01*
X161598736Y-120464245D01*
X161567685Y-120461801D01*
X161375718Y-120446693D01*
X161375709Y-120446693D01*
X161373261Y-120446500D01*
X161217729Y-120446500D01*
X161215593Y-120446646D01*
X161215582Y-120446646D01*
X161007452Y-120460835D01*
X161007446Y-120460836D01*
X161003175Y-120461127D01*
X160998980Y-120461996D01*
X160998978Y-120461996D01*
X160862416Y-120490277D01*
X160721658Y-120519426D01*
X160450657Y-120615393D01*
X160195188Y-120747250D01*
X160191687Y-120749711D01*
X160191683Y-120749713D01*
X160181594Y-120756804D01*
X159959977Y-120912559D01*
X159749378Y-121108260D01*
X159567287Y-121330732D01*
X159417073Y-121575858D01*
X159301517Y-121839102D01*
X159222756Y-122115594D01*
X159182249Y-122400216D01*
X159182227Y-122404505D01*
X159182226Y-122404512D01*
X159180765Y-122683417D01*
X159180743Y-122687703D01*
X127202867Y-122687703D01*
X127204235Y-122426583D01*
X127204235Y-122426576D01*
X127204257Y-122422297D01*
X127166732Y-122137266D01*
X127090871Y-121859964D01*
X126978077Y-121595524D01*
X126830439Y-121348839D01*
X126650687Y-121124472D01*
X126442149Y-120926577D01*
X126208683Y-120758814D01*
X126186843Y-120747250D01*
X126163654Y-120734972D01*
X125954608Y-120624288D01*
X125684627Y-120525489D01*
X125403736Y-120464245D01*
X125372685Y-120461801D01*
X125180718Y-120446693D01*
X125180709Y-120446693D01*
X125178261Y-120446500D01*
X125022729Y-120446500D01*
X125020593Y-120446646D01*
X125020582Y-120446646D01*
X124812452Y-120460835D01*
X124812446Y-120460836D01*
X124808175Y-120461127D01*
X124803980Y-120461996D01*
X124803978Y-120461996D01*
X124667416Y-120490277D01*
X124526658Y-120519426D01*
X124255657Y-120615393D01*
X124000188Y-120747250D01*
X123996687Y-120749711D01*
X123996683Y-120749713D01*
X123986594Y-120756804D01*
X123764977Y-120912559D01*
X123554378Y-121108260D01*
X123372287Y-121330732D01*
X123222073Y-121575858D01*
X123106517Y-121839102D01*
X123027756Y-122115594D01*
X122987249Y-122400216D01*
X122987227Y-122404505D01*
X122987226Y-122404512D01*
X122985765Y-122683417D01*
X122985743Y-122687703D01*
X121164135Y-122687703D01*
X121159997Y-122598184D01*
X121161362Y-122572985D01*
X121161805Y-122570142D01*
X121161805Y-122570140D01*
X121163186Y-122561270D01*
X121161547Y-122548730D01*
X121159064Y-122529749D01*
X121158000Y-122513411D01*
X121158000Y-113346774D01*
X122948102Y-113346774D01*
X122948302Y-113352103D01*
X122948302Y-113352105D01*
X122949344Y-113379854D01*
X122956751Y-113577158D01*
X123004093Y-113802791D01*
X123006051Y-113807750D01*
X123006052Y-113807752D01*
X123084621Y-114006699D01*
X123088776Y-114017221D01*
X123208377Y-114214317D01*
X123211874Y-114218347D01*
X123316258Y-114338639D01*
X123359477Y-114388445D01*
X123395120Y-114417670D01*
X123435114Y-114476329D01*
X123437046Y-114547299D01*
X123400302Y-114608048D01*
X123381532Y-114622248D01*
X123250579Y-114703285D01*
X123235652Y-114712522D01*
X123110695Y-114837697D01*
X123017885Y-114988262D01*
X122962203Y-115156139D01*
X122951500Y-115260600D01*
X122951500Y-116561400D01*
X122962474Y-116667166D01*
X123018450Y-116834946D01*
X123111522Y-116985348D01*
X123236697Y-117110305D01*
X123242927Y-117114145D01*
X123242928Y-117114146D01*
X123380090Y-117198694D01*
X123387262Y-117203115D01*
X123467005Y-117229564D01*
X123548611Y-117256632D01*
X123548613Y-117256632D01*
X123555139Y-117258797D01*
X123561975Y-117259497D01*
X123561978Y-117259498D01*
X123605031Y-117263909D01*
X123659600Y-117269500D01*
X125260400Y-117269500D01*
X125263646Y-117269163D01*
X125263650Y-117269163D01*
X125359308Y-117259238D01*
X125359312Y-117259237D01*
X125366166Y-117258526D01*
X125372702Y-117256345D01*
X125372704Y-117256345D01*
X125504806Y-117212272D01*
X125533946Y-117202550D01*
X125684348Y-117109478D01*
X125809305Y-116984303D01*
X125902115Y-116833738D01*
X125957797Y-116665861D01*
X125968500Y-116561400D01*
X125968500Y-115260600D01*
X125957526Y-115154834D01*
X125901550Y-114987054D01*
X125808478Y-114836652D01*
X125683303Y-114711695D01*
X125537660Y-114621919D01*
X125490168Y-114569148D01*
X125478744Y-114499076D01*
X125507018Y-114433952D01*
X125516805Y-114423490D01*
X125563385Y-114379054D01*
X125631135Y-114314424D01*
X125768754Y-114129458D01*
X125873240Y-113923949D01*
X125900133Y-113837343D01*
X155896275Y-113837343D01*
X155912881Y-114006699D01*
X155966594Y-114168167D01*
X155970241Y-114174189D01*
X155970242Y-114174191D01*
X155983997Y-114196902D01*
X156054746Y-114313723D01*
X156172955Y-114436132D01*
X156244151Y-114482721D01*
X156269144Y-114499076D01*
X156315346Y-114529310D01*
X156321950Y-114531766D01*
X156321952Y-114531767D01*
X156395094Y-114558968D01*
X156474841Y-114588626D01*
X156643515Y-114611132D01*
X156650526Y-114610494D01*
X156650530Y-114610494D01*
X156805962Y-114596348D01*
X156812983Y-114595709D01*
X156819685Y-114593531D01*
X156819687Y-114593531D01*
X156968123Y-114545301D01*
X156968126Y-114545300D01*
X156974822Y-114543124D01*
X157120990Y-114455990D01*
X157126084Y-114451139D01*
X157126088Y-114451136D01*
X157196154Y-114384412D01*
X157244221Y-114338639D01*
X157260310Y-114314424D01*
X157334490Y-114202773D01*
X157338391Y-114196902D01*
X157398819Y-114037825D01*
X157401074Y-114021783D01*
X157414154Y-113928704D01*
X157422501Y-113869313D01*
X157422799Y-113848000D01*
X157403831Y-113678892D01*
X157347868Y-113518189D01*
X157341883Y-113508610D01*
X157317690Y-113469895D01*
X157257692Y-113373879D01*
X157137786Y-113253132D01*
X157121539Y-113242821D01*
X157031987Y-113185990D01*
X156994108Y-113161951D01*
X156833800Y-113104868D01*
X156664829Y-113084720D01*
X156657826Y-113085456D01*
X156657825Y-113085456D01*
X156502601Y-113101770D01*
X156502597Y-113101771D01*
X156495593Y-113102507D01*
X156488922Y-113104778D01*
X156341173Y-113155075D01*
X156341170Y-113155076D01*
X156334503Y-113157346D01*
X156328505Y-113161036D01*
X156328503Y-113161037D01*
X156195565Y-113242821D01*
X156195563Y-113242823D01*
X156189566Y-113246512D01*
X156184533Y-113251441D01*
X156092580Y-113341489D01*
X156067986Y-113365573D01*
X155975804Y-113508610D01*
X155917603Y-113668516D01*
X155896275Y-113837343D01*
X125900133Y-113837343D01*
X125909321Y-113807752D01*
X125940024Y-113708871D01*
X125941607Y-113703773D01*
X125947157Y-113661897D01*
X125971198Y-113480511D01*
X125971198Y-113480506D01*
X125971898Y-113475226D01*
X125963249Y-113244842D01*
X125915907Y-113019209D01*
X125831224Y-112804779D01*
X125711623Y-112607683D01*
X125674019Y-112564348D01*
X125564023Y-112437588D01*
X125564021Y-112437586D01*
X125560523Y-112433555D01*
X125517790Y-112398516D01*
X125386373Y-112290760D01*
X125386367Y-112290756D01*
X125382245Y-112287376D01*
X125377609Y-112284737D01*
X125377606Y-112284735D01*
X125186529Y-112175968D01*
X125181886Y-112173325D01*
X124965175Y-112094663D01*
X124959926Y-112093714D01*
X124959923Y-112093713D01*
X124742392Y-112054377D01*
X124742385Y-112054376D01*
X124738308Y-112053639D01*
X124720586Y-112052803D01*
X124715644Y-112052570D01*
X124715637Y-112052570D01*
X124714156Y-112052500D01*
X124252110Y-112052500D01*
X124185191Y-112058178D01*
X124085591Y-112066629D01*
X124085587Y-112066630D01*
X124080280Y-112067080D01*
X124075125Y-112068418D01*
X124075119Y-112068419D01*
X123862297Y-112123657D01*
X123862293Y-112123658D01*
X123857128Y-112124999D01*
X123852262Y-112127191D01*
X123852259Y-112127192D01*
X123743980Y-112175968D01*
X123646925Y-112219688D01*
X123455681Y-112348441D01*
X123451824Y-112352120D01*
X123451822Y-112352122D01*
X123399287Y-112402238D01*
X123288865Y-112507576D01*
X123151246Y-112692542D01*
X123046760Y-112898051D01*
X123045178Y-112903145D01*
X123045177Y-112903148D01*
X123003397Y-113037700D01*
X122978393Y-113118227D01*
X122977692Y-113123516D01*
X122948850Y-113341132D01*
X122948102Y-113346774D01*
X121158000Y-113346774D01*
X121158000Y-111760000D01*
X134341496Y-111760000D01*
X134342186Y-111766565D01*
X134355762Y-111895730D01*
X134361458Y-111949928D01*
X134420473Y-112131556D01*
X134515960Y-112296944D01*
X134520378Y-112301851D01*
X134520379Y-112301852D01*
X134633598Y-112427594D01*
X134643747Y-112438866D01*
X134798248Y-112551118D01*
X134804276Y-112553802D01*
X134804278Y-112553803D01*
X134966681Y-112626109D01*
X134972712Y-112628794D01*
X135066112Y-112648647D01*
X135153056Y-112667128D01*
X135153061Y-112667128D01*
X135159513Y-112668500D01*
X135350487Y-112668500D01*
X135356939Y-112667128D01*
X135356944Y-112667128D01*
X135443888Y-112648647D01*
X135537288Y-112628794D01*
X135543319Y-112626109D01*
X135705722Y-112553803D01*
X135705724Y-112553802D01*
X135711752Y-112551118D01*
X135866253Y-112438866D01*
X135876402Y-112427594D01*
X135989621Y-112301852D01*
X135989622Y-112301851D01*
X135994040Y-112296944D01*
X136089527Y-112131556D01*
X136148542Y-111949928D01*
X136154239Y-111895730D01*
X136163739Y-111805343D01*
X147006275Y-111805343D01*
X147022881Y-111974699D01*
X147025105Y-111981384D01*
X147025105Y-111981385D01*
X147033235Y-112005825D01*
X147076594Y-112136167D01*
X147080241Y-112142189D01*
X147080242Y-112142191D01*
X147148469Y-112254846D01*
X147164746Y-112281723D01*
X147282955Y-112404132D01*
X147425346Y-112497310D01*
X147431950Y-112499766D01*
X147431952Y-112499767D01*
X147464453Y-112511854D01*
X147584841Y-112556626D01*
X147753515Y-112579132D01*
X147760526Y-112578494D01*
X147760530Y-112578494D01*
X147915962Y-112564348D01*
X147922983Y-112563709D01*
X147929685Y-112561531D01*
X147929687Y-112561531D01*
X148078123Y-112513301D01*
X148078126Y-112513300D01*
X148084822Y-112511124D01*
X148230990Y-112423990D01*
X148306459Y-112352122D01*
X148335543Y-112324426D01*
X148398668Y-112291934D01*
X148469339Y-112298727D01*
X148525118Y-112342650D01*
X148548296Y-112409757D01*
X148547441Y-112431460D01*
X148530275Y-112567343D01*
X148546881Y-112736699D01*
X148549105Y-112743384D01*
X148549105Y-112743385D01*
X148569528Y-112804779D01*
X148600594Y-112898167D01*
X148604241Y-112904189D01*
X148604242Y-112904191D01*
X148677061Y-113024428D01*
X148688746Y-113043723D01*
X148806955Y-113166132D01*
X148812851Y-113169990D01*
X148929789Y-113246512D01*
X148949346Y-113259310D01*
X148955950Y-113261766D01*
X148955952Y-113261767D01*
X148992344Y-113275301D01*
X149108841Y-113318626D01*
X149277515Y-113341132D01*
X149284526Y-113340494D01*
X149284530Y-113340494D01*
X149439962Y-113326348D01*
X149446983Y-113325709D01*
X149453685Y-113323531D01*
X149453687Y-113323531D01*
X149602123Y-113275301D01*
X149602126Y-113275300D01*
X149608822Y-113273124D01*
X149754990Y-113185990D01*
X149760084Y-113181139D01*
X149760088Y-113181136D01*
X149861334Y-113084720D01*
X149878221Y-113068639D01*
X149972391Y-112926902D01*
X150032819Y-112767825D01*
X150056501Y-112599313D01*
X150056799Y-112578000D01*
X150037831Y-112408892D01*
X150018062Y-112352122D01*
X150008417Y-112324426D01*
X149981868Y-112248189D01*
X149975883Y-112238610D01*
X149935087Y-112173325D01*
X149891692Y-112103879D01*
X149854702Y-112066629D01*
X149776748Y-111988129D01*
X149771786Y-111983132D01*
X149755539Y-111972821D01*
X149709123Y-111943365D01*
X149628108Y-111891951D01*
X149467800Y-111834868D01*
X149298829Y-111814720D01*
X149291826Y-111815456D01*
X149291825Y-111815456D01*
X149136601Y-111831770D01*
X149136597Y-111831771D01*
X149129593Y-111832507D01*
X149122922Y-111834778D01*
X148975173Y-111885075D01*
X148975170Y-111885076D01*
X148968503Y-111887346D01*
X148962505Y-111891036D01*
X148962503Y-111891037D01*
X148829565Y-111972821D01*
X148829563Y-111972823D01*
X148823566Y-111976512D01*
X148811703Y-111988129D01*
X148727808Y-112070286D01*
X148665143Y-112103657D01*
X148594384Y-112097851D01*
X148537997Y-112054712D01*
X148513884Y-111987936D01*
X148514876Y-111962728D01*
X148525155Y-111889586D01*
X148532501Y-111837313D01*
X148532799Y-111816000D01*
X148513831Y-111646892D01*
X148457868Y-111486189D01*
X148451883Y-111476610D01*
X148429920Y-111441464D01*
X148367692Y-111341879D01*
X148247786Y-111221132D01*
X148231539Y-111210821D01*
X148192906Y-111186304D01*
X148104108Y-111129951D01*
X147943800Y-111072868D01*
X147774829Y-111052720D01*
X147767826Y-111053456D01*
X147767825Y-111053456D01*
X147612601Y-111069770D01*
X147612597Y-111069771D01*
X147605593Y-111070507D01*
X147598922Y-111072778D01*
X147451173Y-111123075D01*
X147451170Y-111123076D01*
X147444503Y-111125346D01*
X147438505Y-111129036D01*
X147438503Y-111129037D01*
X147305565Y-111210821D01*
X147305563Y-111210823D01*
X147299566Y-111214512D01*
X147177986Y-111333573D01*
X147174175Y-111339487D01*
X147174173Y-111339489D01*
X147138573Y-111394729D01*
X147085804Y-111476610D01*
X147027603Y-111636516D01*
X147006275Y-111805343D01*
X136163739Y-111805343D01*
X136167814Y-111766565D01*
X136168504Y-111760000D01*
X136155917Y-111640238D01*
X136149232Y-111576635D01*
X136149232Y-111576633D01*
X136148542Y-111570072D01*
X136089527Y-111388444D01*
X135994040Y-111223056D01*
X135866253Y-111081134D01*
X135711752Y-110968882D01*
X135705724Y-110966198D01*
X135705722Y-110966197D01*
X135543319Y-110893891D01*
X135543318Y-110893891D01*
X135537288Y-110891206D01*
X135443887Y-110871353D01*
X135356944Y-110852872D01*
X135356939Y-110852872D01*
X135350487Y-110851500D01*
X135159513Y-110851500D01*
X135153061Y-110852872D01*
X135153056Y-110852872D01*
X135066113Y-110871353D01*
X134972712Y-110891206D01*
X134966682Y-110893891D01*
X134966681Y-110893891D01*
X134804278Y-110966197D01*
X134804276Y-110966198D01*
X134798248Y-110968882D01*
X134643747Y-111081134D01*
X134515960Y-111223056D01*
X134420473Y-111388444D01*
X134361458Y-111570072D01*
X134360768Y-111576633D01*
X134360768Y-111576635D01*
X134354083Y-111640238D01*
X134341496Y-111760000D01*
X121158000Y-111760000D01*
X121158000Y-109844343D01*
X142492775Y-109844343D01*
X142509381Y-110013699D01*
X142563094Y-110175167D01*
X142566741Y-110181189D01*
X142566742Y-110181191D01*
X142619676Y-110268594D01*
X142651246Y-110320723D01*
X142769455Y-110443132D01*
X142911846Y-110536310D01*
X142918450Y-110538766D01*
X142918452Y-110538767D01*
X142954844Y-110552301D01*
X143071341Y-110595626D01*
X143240015Y-110618132D01*
X143247026Y-110617494D01*
X143247030Y-110617494D01*
X143402462Y-110603348D01*
X143409483Y-110602709D01*
X143416185Y-110600531D01*
X143416187Y-110600531D01*
X143564623Y-110552301D01*
X143564626Y-110552300D01*
X143571322Y-110550124D01*
X143717490Y-110462990D01*
X143722584Y-110458139D01*
X143722588Y-110458136D01*
X143789833Y-110394099D01*
X143840721Y-110345639D01*
X143845591Y-110338310D01*
X143897529Y-110260136D01*
X143934891Y-110203902D01*
X143995319Y-110044825D01*
X144019001Y-109876313D01*
X144019299Y-109855000D01*
X144000331Y-109685892D01*
X143944368Y-109525189D01*
X143938844Y-109516348D01*
X143903332Y-109459518D01*
X143854192Y-109380879D01*
X143734286Y-109260132D01*
X143722683Y-109252768D01*
X143621970Y-109188854D01*
X143590608Y-109168951D01*
X143504651Y-109138343D01*
X149546275Y-109138343D01*
X149562881Y-109307699D01*
X149616594Y-109469167D01*
X149620241Y-109475189D01*
X149620242Y-109475191D01*
X149625884Y-109484506D01*
X149704746Y-109614723D01*
X149822955Y-109737132D01*
X149965346Y-109830310D01*
X149971950Y-109832766D01*
X149971952Y-109832767D01*
X150003079Y-109844343D01*
X150124841Y-109889626D01*
X150293515Y-109912132D01*
X150300526Y-109911494D01*
X150300530Y-109911494D01*
X150455962Y-109897348D01*
X150462983Y-109896709D01*
X150469685Y-109894531D01*
X150469687Y-109894531D01*
X150618123Y-109846301D01*
X150618126Y-109846300D01*
X150624822Y-109844124D01*
X150770990Y-109756990D01*
X150776084Y-109752139D01*
X150776088Y-109752136D01*
X150863497Y-109668897D01*
X150887181Y-109646343D01*
X156277275Y-109646343D01*
X156293881Y-109815699D01*
X156296105Y-109822384D01*
X156296105Y-109822385D01*
X156314044Y-109876313D01*
X156347594Y-109977167D01*
X156351241Y-109983189D01*
X156351242Y-109983191D01*
X156392560Y-110051414D01*
X156435746Y-110122723D01*
X156553955Y-110245132D01*
X156696346Y-110338310D01*
X156702950Y-110340766D01*
X156702952Y-110340767D01*
X156739344Y-110354301D01*
X156855841Y-110397626D01*
X157024515Y-110420132D01*
X157031526Y-110419494D01*
X157031530Y-110419494D01*
X157186962Y-110405348D01*
X157193983Y-110404709D01*
X157200685Y-110402531D01*
X157200687Y-110402531D01*
X157349123Y-110354301D01*
X157349126Y-110354300D01*
X157355822Y-110352124D01*
X157501990Y-110264990D01*
X157507084Y-110260139D01*
X157507088Y-110260136D01*
X157589988Y-110181191D01*
X157625221Y-110147639D01*
X157719391Y-110005902D01*
X157779819Y-109846825D01*
X157803501Y-109678313D01*
X157803799Y-109657000D01*
X157784831Y-109487892D01*
X157728868Y-109327189D01*
X157722883Y-109317610D01*
X157689069Y-109263498D01*
X157638692Y-109182879D01*
X157623954Y-109168037D01*
X157523748Y-109067129D01*
X157518786Y-109062132D01*
X157512791Y-109058327D01*
X157414996Y-108996265D01*
X157375108Y-108970951D01*
X157214800Y-108913868D01*
X157045829Y-108893720D01*
X157038826Y-108894456D01*
X157038825Y-108894456D01*
X156883601Y-108910770D01*
X156883597Y-108910771D01*
X156876593Y-108911507D01*
X156869922Y-108913778D01*
X156722173Y-108964075D01*
X156722170Y-108964076D01*
X156715503Y-108966346D01*
X156709505Y-108970036D01*
X156709503Y-108970037D01*
X156576565Y-109051821D01*
X156576563Y-109051823D01*
X156570566Y-109055512D01*
X156532740Y-109092554D01*
X156466581Y-109157343D01*
X156448986Y-109174573D01*
X156445175Y-109180487D01*
X156445173Y-109180489D01*
X156393846Y-109260132D01*
X156356804Y-109317610D01*
X156298603Y-109477516D01*
X156277275Y-109646343D01*
X150887181Y-109646343D01*
X150894221Y-109639639D01*
X150930007Y-109585777D01*
X150984363Y-109540108D01*
X151041445Y-109532050D01*
X151041487Y-109530053D01*
X151048535Y-109530201D01*
X151055515Y-109531132D01*
X151062526Y-109530494D01*
X151062530Y-109530494D01*
X151217962Y-109516348D01*
X151224983Y-109515709D01*
X151231685Y-109513531D01*
X151231687Y-109513531D01*
X151380123Y-109465301D01*
X151380126Y-109465300D01*
X151386822Y-109463124D01*
X151532990Y-109375990D01*
X151538084Y-109371139D01*
X151538088Y-109371136D01*
X151612063Y-109300690D01*
X151656221Y-109258639D01*
X151676246Y-109228500D01*
X151713299Y-109172730D01*
X151750391Y-109116902D01*
X151810819Y-108957825D01*
X151834501Y-108789313D01*
X151834799Y-108768000D01*
X151815831Y-108598892D01*
X151812198Y-108588458D01*
X151766887Y-108458346D01*
X151759868Y-108438189D01*
X151737736Y-108402770D01*
X151676499Y-108304773D01*
X151669692Y-108293879D01*
X151637828Y-108261791D01*
X151554748Y-108178129D01*
X151549786Y-108173132D01*
X151533539Y-108162821D01*
X151448256Y-108108699D01*
X151406108Y-108081951D01*
X151245800Y-108024868D01*
X151076829Y-108004720D01*
X151069826Y-108005456D01*
X151069825Y-108005456D01*
X150914601Y-108021770D01*
X150914597Y-108021771D01*
X150907593Y-108022507D01*
X150900922Y-108024778D01*
X150753173Y-108075075D01*
X150753170Y-108075076D01*
X150746503Y-108077346D01*
X150740505Y-108081036D01*
X150740503Y-108081037D01*
X150607565Y-108162821D01*
X150607563Y-108162823D01*
X150601566Y-108166512D01*
X150596533Y-108171441D01*
X150509601Y-108256572D01*
X150479986Y-108285573D01*
X150476173Y-108291490D01*
X150476171Y-108291492D01*
X150450914Y-108330682D01*
X150397199Y-108377106D01*
X150330087Y-108387539D01*
X150321824Y-108386554D01*
X150321823Y-108386554D01*
X150314829Y-108385720D01*
X150307826Y-108386456D01*
X150307825Y-108386456D01*
X150152601Y-108402770D01*
X150152597Y-108402771D01*
X150145593Y-108403507D01*
X150138922Y-108405778D01*
X149991173Y-108456075D01*
X149991170Y-108456076D01*
X149984503Y-108458346D01*
X149978505Y-108462036D01*
X149978503Y-108462037D01*
X149845565Y-108543821D01*
X149845563Y-108543823D01*
X149839566Y-108547512D01*
X149717986Y-108666573D01*
X149714175Y-108672487D01*
X149714173Y-108672489D01*
X149636365Y-108793223D01*
X149625804Y-108809610D01*
X149567603Y-108969516D01*
X149546275Y-109138343D01*
X143504651Y-109138343D01*
X143430300Y-109111868D01*
X143261329Y-109091720D01*
X143254326Y-109092456D01*
X143254325Y-109092456D01*
X143099101Y-109108770D01*
X143099097Y-109108771D01*
X143092093Y-109109507D01*
X143085422Y-109111778D01*
X142937673Y-109162075D01*
X142937670Y-109162076D01*
X142931003Y-109164346D01*
X142925005Y-109168036D01*
X142925003Y-109168037D01*
X142792065Y-109249821D01*
X142792063Y-109249823D01*
X142786066Y-109253512D01*
X142664486Y-109372573D01*
X142660675Y-109378487D01*
X142660673Y-109378489D01*
X142576121Y-109509687D01*
X142572304Y-109515610D01*
X142546765Y-109585778D01*
X142519401Y-109660961D01*
X142514103Y-109675516D01*
X142492775Y-109844343D01*
X121158000Y-109844343D01*
X121158000Y-106852343D01*
X141418275Y-106852343D01*
X141434881Y-107021699D01*
X141437105Y-107028384D01*
X141437105Y-107028385D01*
X141449845Y-107066683D01*
X141488594Y-107183167D01*
X141492241Y-107189189D01*
X141492242Y-107189191D01*
X141563167Y-107306301D01*
X141576746Y-107328723D01*
X141694955Y-107451132D01*
X141837346Y-107544310D01*
X141843950Y-107546766D01*
X141843952Y-107546767D01*
X141912149Y-107572129D01*
X141996841Y-107603626D01*
X142165515Y-107626132D01*
X142172526Y-107625494D01*
X142172530Y-107625494D01*
X142327962Y-107611348D01*
X142334983Y-107610709D01*
X142358401Y-107603100D01*
X142429368Y-107601074D01*
X142490165Y-107637737D01*
X142521490Y-107701450D01*
X142516571Y-107756661D01*
X142518169Y-107757048D01*
X142516512Y-107763897D01*
X142514103Y-107770516D01*
X142492775Y-107939343D01*
X142509381Y-108108699D01*
X142511605Y-108115384D01*
X142511605Y-108115385D01*
X142527369Y-108162773D01*
X142563094Y-108270167D01*
X142566741Y-108276189D01*
X142566742Y-108276191D01*
X142643848Y-108403507D01*
X142651246Y-108415723D01*
X142769455Y-108538132D01*
X142792384Y-108553136D01*
X142873002Y-108605891D01*
X142911846Y-108631310D01*
X142918450Y-108633766D01*
X142918452Y-108633767D01*
X142954844Y-108647301D01*
X143071341Y-108690626D01*
X143240015Y-108713132D01*
X143247026Y-108712494D01*
X143247030Y-108712494D01*
X143402462Y-108698348D01*
X143409483Y-108697709D01*
X143416185Y-108695531D01*
X143416187Y-108695531D01*
X143564623Y-108647301D01*
X143564626Y-108647300D01*
X143571322Y-108645124D01*
X143717490Y-108557990D01*
X143722584Y-108553139D01*
X143722588Y-108553136D01*
X143789833Y-108489099D01*
X143840721Y-108440639D01*
X143846320Y-108432213D01*
X143930990Y-108304773D01*
X143934891Y-108298902D01*
X143995319Y-108139825D01*
X144019001Y-107971313D01*
X144019299Y-107950000D01*
X144003122Y-107805774D01*
X160818102Y-107805774D01*
X160826751Y-108036158D01*
X160827846Y-108041377D01*
X160835393Y-108077346D01*
X160874093Y-108261791D01*
X160876051Y-108266750D01*
X160876052Y-108266752D01*
X160930957Y-108405778D01*
X160958776Y-108476221D01*
X160961543Y-108480780D01*
X160961544Y-108480783D01*
X161005449Y-108553136D01*
X161078377Y-108673317D01*
X161081874Y-108677347D01*
X161196646Y-108809610D01*
X161229477Y-108847445D01*
X161233608Y-108850832D01*
X161403627Y-108990240D01*
X161403633Y-108990244D01*
X161407755Y-108993624D01*
X161412391Y-108996263D01*
X161412394Y-108996265D01*
X161525136Y-109060441D01*
X161608114Y-109107675D01*
X161824825Y-109186337D01*
X161830074Y-109187286D01*
X161830077Y-109187287D01*
X162047608Y-109226623D01*
X162047615Y-109226624D01*
X162051692Y-109227361D01*
X162069414Y-109228197D01*
X162074356Y-109228430D01*
X162074363Y-109228430D01*
X162075844Y-109228500D01*
X162487890Y-109228500D01*
X162554809Y-109222822D01*
X162654409Y-109214371D01*
X162654413Y-109214370D01*
X162659720Y-109213920D01*
X162664875Y-109212582D01*
X162664881Y-109212581D01*
X162877703Y-109157343D01*
X162877707Y-109157342D01*
X162882872Y-109156001D01*
X162887738Y-109153809D01*
X162887741Y-109153808D01*
X163034629Y-109087640D01*
X163093075Y-109061312D01*
X163284319Y-108932559D01*
X163304787Y-108913034D01*
X163434479Y-108789313D01*
X163451135Y-108773424D01*
X163588754Y-108588458D01*
X163602413Y-108561594D01*
X163663909Y-108440639D01*
X163693240Y-108382949D01*
X163695055Y-108377106D01*
X163760024Y-108167871D01*
X163761607Y-108162773D01*
X163763775Y-108146414D01*
X163791198Y-107939511D01*
X163791198Y-107939506D01*
X163791898Y-107934226D01*
X163783249Y-107703842D01*
X163735907Y-107478209D01*
X163731707Y-107467573D01*
X163653185Y-107268744D01*
X163653184Y-107268742D01*
X163651224Y-107263779D01*
X163617553Y-107208290D01*
X163534390Y-107071243D01*
X163531623Y-107066683D01*
X163442323Y-106963773D01*
X163384023Y-106896588D01*
X163384021Y-106896586D01*
X163380523Y-106892555D01*
X163322951Y-106845349D01*
X163206373Y-106749760D01*
X163206367Y-106749756D01*
X163202245Y-106746376D01*
X163170750Y-106728448D01*
X163121445Y-106677368D01*
X163107583Y-106607738D01*
X163133566Y-106541667D01*
X163162716Y-106514427D01*
X163198642Y-106490240D01*
X163284319Y-106432559D01*
X163294448Y-106422897D01*
X163438113Y-106285846D01*
X163451135Y-106273424D01*
X163588754Y-106088458D01*
X163693240Y-105882949D01*
X163697810Y-105868233D01*
X163760024Y-105667871D01*
X163761607Y-105662773D01*
X163762308Y-105657484D01*
X163791198Y-105439511D01*
X163791198Y-105439506D01*
X163791898Y-105434226D01*
X163783249Y-105203842D01*
X163735907Y-104978209D01*
X163711297Y-104915892D01*
X163653185Y-104768744D01*
X163653184Y-104768742D01*
X163651224Y-104763779D01*
X163646012Y-104755189D01*
X163534390Y-104571243D01*
X163531623Y-104566683D01*
X163480567Y-104507846D01*
X163384023Y-104396588D01*
X163384021Y-104396586D01*
X163380523Y-104392555D01*
X163344880Y-104363330D01*
X163304886Y-104304671D01*
X163302954Y-104233701D01*
X163339698Y-104172952D01*
X163358468Y-104158752D01*
X163498120Y-104072332D01*
X163504348Y-104068478D01*
X163629305Y-103943303D01*
X163636677Y-103931343D01*
X163718275Y-103798968D01*
X163718276Y-103798966D01*
X163722115Y-103792738D01*
X163777797Y-103624861D01*
X163779096Y-103612189D01*
X163788172Y-103523598D01*
X163788500Y-103520400D01*
X163788500Y-102219600D01*
X163777526Y-102113834D01*
X163775051Y-102106414D01*
X163723868Y-101953002D01*
X163721550Y-101946054D01*
X163628478Y-101795652D01*
X163503303Y-101670695D01*
X163497072Y-101666854D01*
X163358968Y-101581725D01*
X163358966Y-101581724D01*
X163352738Y-101577885D01*
X163192254Y-101524655D01*
X163191389Y-101524368D01*
X163191387Y-101524368D01*
X163184861Y-101522203D01*
X163178025Y-101521503D01*
X163178022Y-101521502D01*
X163134969Y-101517091D01*
X163080400Y-101511500D01*
X161529600Y-101511500D01*
X161526354Y-101511837D01*
X161526350Y-101511837D01*
X161430692Y-101521762D01*
X161430688Y-101521763D01*
X161423834Y-101522474D01*
X161417298Y-101524655D01*
X161417296Y-101524655D01*
X161297307Y-101564687D01*
X161256054Y-101578450D01*
X161105652Y-101671522D01*
X160980695Y-101796697D01*
X160976855Y-101802927D01*
X160976854Y-101802928D01*
X160913101Y-101906355D01*
X160887885Y-101947262D01*
X160885581Y-101954209D01*
X160839598Y-102092845D01*
X160832203Y-102115139D01*
X160821500Y-102219600D01*
X160821500Y-103520400D01*
X160821837Y-103523646D01*
X160821837Y-103523650D01*
X160831024Y-103612189D01*
X160832474Y-103626166D01*
X160888450Y-103793946D01*
X160981522Y-103944348D01*
X161106697Y-104069305D01*
X161252340Y-104159081D01*
X161299832Y-104211852D01*
X161311256Y-104281924D01*
X161282982Y-104347048D01*
X161273195Y-104357510D01*
X161158865Y-104466576D01*
X161021246Y-104651542D01*
X161018830Y-104656293D01*
X161018828Y-104656297D01*
X161012425Y-104668891D01*
X160916760Y-104857051D01*
X160915178Y-104862145D01*
X160915177Y-104862148D01*
X160875571Y-104989699D01*
X160848393Y-105077227D01*
X160847692Y-105082516D01*
X160819302Y-105296723D01*
X160818102Y-105305774D01*
X160818302Y-105311103D01*
X160818302Y-105311105D01*
X160818880Y-105326498D01*
X160826751Y-105536158D01*
X160827846Y-105541377D01*
X160833677Y-105569169D01*
X160874093Y-105761791D01*
X160876051Y-105766750D01*
X160876052Y-105766752D01*
X160937739Y-105922951D01*
X160958776Y-105976221D01*
X161078377Y-106173317D01*
X161081874Y-106177347D01*
X161170248Y-106279189D01*
X161229477Y-106347445D01*
X161233608Y-106350832D01*
X161403627Y-106490240D01*
X161403633Y-106490244D01*
X161407755Y-106493624D01*
X161439250Y-106511552D01*
X161488555Y-106562632D01*
X161502417Y-106632262D01*
X161476434Y-106698333D01*
X161447284Y-106725573D01*
X161325681Y-106807441D01*
X161158865Y-106966576D01*
X161021246Y-107151542D01*
X161018830Y-107156293D01*
X161018828Y-107156297D01*
X160986138Y-107220594D01*
X160916760Y-107357051D01*
X160915178Y-107362145D01*
X160915177Y-107362148D01*
X160859812Y-107540452D01*
X160848393Y-107577227D01*
X160847692Y-107582516D01*
X160821400Y-107780892D01*
X160818102Y-107805774D01*
X144003122Y-107805774D01*
X144000331Y-107780892D01*
X143944368Y-107620189D01*
X143938844Y-107611348D01*
X143858909Y-107483428D01*
X143854192Y-107475879D01*
X143833449Y-107454990D01*
X143796264Y-107417545D01*
X143734286Y-107355132D01*
X143721739Y-107347169D01*
X143648228Y-107300518D01*
X143590608Y-107263951D01*
X143430300Y-107206868D01*
X143261329Y-107186720D01*
X143254326Y-107187456D01*
X143254325Y-107187456D01*
X143099101Y-107203770D01*
X143099097Y-107203771D01*
X143092093Y-107204507D01*
X143085421Y-107206778D01*
X143085418Y-107206779D01*
X143081449Y-107208130D01*
X143078751Y-107208245D01*
X143078545Y-107208290D01*
X143078537Y-107208254D01*
X143010516Y-107211147D01*
X142949213Y-107175337D01*
X142917002Y-107112067D01*
X142918782Y-107058188D01*
X142920819Y-107052825D01*
X142944501Y-106884313D01*
X142944799Y-106863000D01*
X142925831Y-106693892D01*
X142920537Y-106678688D01*
X142892557Y-106598343D01*
X143704275Y-106598343D01*
X143720881Y-106767699D01*
X143774594Y-106929167D01*
X143778241Y-106935189D01*
X143778242Y-106935191D01*
X143857877Y-107066683D01*
X143862746Y-107074723D01*
X143980955Y-107197132D01*
X144002372Y-107211147D01*
X144090390Y-107268744D01*
X144123346Y-107290310D01*
X144129950Y-107292766D01*
X144129952Y-107292767D01*
X144166344Y-107306301D01*
X144282841Y-107349626D01*
X144451515Y-107372132D01*
X144458526Y-107371494D01*
X144458530Y-107371494D01*
X144613962Y-107357348D01*
X144620983Y-107356709D01*
X144627685Y-107354531D01*
X144627687Y-107354531D01*
X144776123Y-107306301D01*
X144776126Y-107306300D01*
X144782822Y-107304124D01*
X144928990Y-107216990D01*
X144934084Y-107212139D01*
X144934088Y-107212136D01*
X145039170Y-107112067D01*
X145052221Y-107099639D01*
X145076795Y-107062653D01*
X145108661Y-107014690D01*
X145146391Y-106957902D01*
X145206819Y-106798825D01*
X145230501Y-106630313D01*
X145230799Y-106609000D01*
X145211831Y-106439892D01*
X145209278Y-106432559D01*
X145158186Y-106285846D01*
X145155868Y-106279189D01*
X145152082Y-106273129D01*
X145092229Y-106177347D01*
X145065692Y-106134879D01*
X145049958Y-106119034D01*
X144950748Y-106019129D01*
X144945786Y-106014132D01*
X144929539Y-106003821D01*
X144878224Y-105971256D01*
X144802108Y-105922951D01*
X144641800Y-105865868D01*
X144472829Y-105845720D01*
X144465826Y-105846456D01*
X144465825Y-105846456D01*
X144310601Y-105862770D01*
X144310597Y-105862771D01*
X144303593Y-105863507D01*
X144296922Y-105865778D01*
X144149173Y-105916075D01*
X144149170Y-105916076D01*
X144142503Y-105918346D01*
X144136505Y-105922036D01*
X144136503Y-105922037D01*
X144003565Y-106003821D01*
X144003563Y-106003823D01*
X143997566Y-106007512D01*
X143992533Y-106012441D01*
X143883685Y-106119034D01*
X143875986Y-106126573D01*
X143872175Y-106132487D01*
X143872173Y-106132489D01*
X143789023Y-106261512D01*
X143783804Y-106269610D01*
X143725603Y-106429516D01*
X143704275Y-106598343D01*
X142892557Y-106598343D01*
X142869868Y-106533189D01*
X142863883Y-106523610D01*
X142809453Y-106436506D01*
X142779692Y-106388879D01*
X142659786Y-106268132D01*
X142643539Y-106257821D01*
X142604906Y-106233304D01*
X142516108Y-106176951D01*
X142355800Y-106119868D01*
X142186829Y-106099720D01*
X142179826Y-106100456D01*
X142179825Y-106100456D01*
X142024601Y-106116770D01*
X142024597Y-106116771D01*
X142017593Y-106117507D01*
X142010922Y-106119778D01*
X141863173Y-106170075D01*
X141863170Y-106170076D01*
X141856503Y-106172346D01*
X141850505Y-106176036D01*
X141850503Y-106176037D01*
X141717565Y-106257821D01*
X141717563Y-106257823D01*
X141711566Y-106261512D01*
X141589986Y-106380573D01*
X141586175Y-106386487D01*
X141586173Y-106386489D01*
X141519310Y-106490240D01*
X141497804Y-106523610D01*
X141439603Y-106683516D01*
X141418275Y-106852343D01*
X121158000Y-106852343D01*
X121158000Y-105074343D01*
X140402275Y-105074343D01*
X140418881Y-105243699D01*
X140421105Y-105250384D01*
X140421105Y-105250385D01*
X140441304Y-105311105D01*
X140472594Y-105405167D01*
X140476241Y-105411189D01*
X140476242Y-105411191D01*
X140548697Y-105530827D01*
X140560746Y-105550723D01*
X140678955Y-105673132D01*
X140684851Y-105676990D01*
X140806465Y-105756572D01*
X140821346Y-105766310D01*
X140827950Y-105768766D01*
X140827952Y-105768767D01*
X140864344Y-105782301D01*
X140980841Y-105825626D01*
X141149515Y-105848132D01*
X141156526Y-105847494D01*
X141156530Y-105847494D01*
X141311962Y-105833348D01*
X141318983Y-105832709D01*
X141325685Y-105830531D01*
X141325687Y-105830531D01*
X141474123Y-105782301D01*
X141474126Y-105782300D01*
X141480822Y-105780124D01*
X141626990Y-105692990D01*
X141632084Y-105688139D01*
X141632088Y-105688136D01*
X141731780Y-105593200D01*
X141750221Y-105575639D01*
X141844391Y-105433902D01*
X141904819Y-105274825D01*
X141928501Y-105106313D01*
X141928799Y-105085000D01*
X141909831Y-104915892D01*
X141876557Y-104820343D01*
X147387275Y-104820343D01*
X147403881Y-104989699D01*
X147457594Y-105151167D01*
X147461241Y-105157189D01*
X147461242Y-105157191D01*
X147536475Y-105281414D01*
X147545746Y-105296723D01*
X147663955Y-105419132D01*
X147806346Y-105512310D01*
X147812950Y-105514766D01*
X147812952Y-105514767D01*
X147849344Y-105528301D01*
X147965841Y-105571626D01*
X148134515Y-105594132D01*
X148141526Y-105593494D01*
X148141530Y-105593494D01*
X148296962Y-105579348D01*
X148303983Y-105578709D01*
X148310685Y-105576531D01*
X148310687Y-105576531D01*
X148459123Y-105528301D01*
X148459126Y-105528300D01*
X148465822Y-105526124D01*
X148611990Y-105438990D01*
X148617084Y-105434139D01*
X148617088Y-105434136D01*
X148684333Y-105370099D01*
X148735221Y-105321639D01*
X148761947Y-105281414D01*
X148825490Y-105185773D01*
X148829391Y-105179902D01*
X148889819Y-105020825D01*
X148913501Y-104852313D01*
X148913799Y-104831000D01*
X148894831Y-104661892D01*
X148838868Y-104501189D01*
X148835082Y-104495129D01*
X148792364Y-104426768D01*
X148748692Y-104356879D01*
X148738930Y-104347048D01*
X148648003Y-104255484D01*
X148628786Y-104236132D01*
X148612539Y-104225821D01*
X148512154Y-104162115D01*
X148485108Y-104144951D01*
X148324800Y-104087868D01*
X148155829Y-104067720D01*
X148148826Y-104068456D01*
X148148825Y-104068456D01*
X147993601Y-104084770D01*
X147993597Y-104084771D01*
X147986593Y-104085507D01*
X147979922Y-104087778D01*
X147832173Y-104138075D01*
X147832170Y-104138076D01*
X147825503Y-104140346D01*
X147819505Y-104144036D01*
X147819503Y-104144037D01*
X147686565Y-104225821D01*
X147686563Y-104225823D01*
X147680566Y-104229512D01*
X147675533Y-104234441D01*
X147566685Y-104341034D01*
X147558986Y-104348573D01*
X147555175Y-104354487D01*
X147555173Y-104354489D01*
X147472023Y-104483512D01*
X147466804Y-104491610D01*
X147408603Y-104651516D01*
X147387275Y-104820343D01*
X141876557Y-104820343D01*
X141853868Y-104755189D01*
X141847883Y-104745610D01*
X141825920Y-104710464D01*
X141763692Y-104610879D01*
X141643786Y-104490132D01*
X141627539Y-104479821D01*
X141560848Y-104437498D01*
X141500108Y-104398951D01*
X141339800Y-104341868D01*
X141170829Y-104321720D01*
X141163826Y-104322456D01*
X141163825Y-104322456D01*
X141008601Y-104338770D01*
X141008597Y-104338771D01*
X141001593Y-104339507D01*
X140994922Y-104341778D01*
X140847173Y-104392075D01*
X140847170Y-104392076D01*
X140840503Y-104394346D01*
X140834505Y-104398036D01*
X140834503Y-104398037D01*
X140701565Y-104479821D01*
X140701563Y-104479823D01*
X140695566Y-104483512D01*
X140573986Y-104602573D01*
X140570175Y-104608487D01*
X140570173Y-104608489D01*
X140485621Y-104739687D01*
X140481804Y-104745610D01*
X140423603Y-104905516D01*
X140402275Y-105074343D01*
X121158000Y-105074343D01*
X121158000Y-103931343D01*
X144339275Y-103931343D01*
X144355881Y-104100699D01*
X144409594Y-104262167D01*
X144413241Y-104268189D01*
X144413242Y-104268191D01*
X144489645Y-104394346D01*
X144497746Y-104407723D01*
X144615955Y-104530132D01*
X144621851Y-104533990D01*
X144726657Y-104602573D01*
X144758346Y-104623310D01*
X144764950Y-104625766D01*
X144764952Y-104625767D01*
X144801344Y-104639301D01*
X144917841Y-104682626D01*
X145086515Y-104705132D01*
X145093526Y-104704494D01*
X145093530Y-104704494D01*
X145248962Y-104690348D01*
X145255983Y-104689709D01*
X145262685Y-104687531D01*
X145262687Y-104687531D01*
X145411123Y-104639301D01*
X145411126Y-104639300D01*
X145417822Y-104637124D01*
X145563990Y-104549990D01*
X145569084Y-104545139D01*
X145569088Y-104545136D01*
X145647091Y-104470854D01*
X145687221Y-104432639D01*
X145781391Y-104290902D01*
X145841819Y-104131825D01*
X145865501Y-103963313D01*
X145865694Y-103949521D01*
X145865744Y-103945961D01*
X145865744Y-103945955D01*
X145865799Y-103942000D01*
X145846831Y-103772892D01*
X145790868Y-103612189D01*
X145784883Y-103602610D01*
X145735542Y-103523650D01*
X145700692Y-103467879D01*
X145580786Y-103347132D01*
X145564539Y-103336821D01*
X145525906Y-103312304D01*
X145437108Y-103255951D01*
X145276800Y-103198868D01*
X145107829Y-103178720D01*
X145100826Y-103179456D01*
X145100825Y-103179456D01*
X144945601Y-103195770D01*
X144945597Y-103195771D01*
X144938593Y-103196507D01*
X144931922Y-103198778D01*
X144784173Y-103249075D01*
X144784170Y-103249076D01*
X144777503Y-103251346D01*
X144771505Y-103255036D01*
X144771503Y-103255037D01*
X144638565Y-103336821D01*
X144638563Y-103336823D01*
X144632566Y-103340512D01*
X144510986Y-103459573D01*
X144507175Y-103465487D01*
X144507173Y-103465489D01*
X144471785Y-103520400D01*
X144418804Y-103602610D01*
X144360603Y-103762516D01*
X144339275Y-103931343D01*
X121158000Y-103931343D01*
X121158000Y-101899343D01*
X144212275Y-101899343D01*
X144228881Y-102068699D01*
X144282594Y-102230167D01*
X144286241Y-102236189D01*
X144286242Y-102236191D01*
X144299997Y-102258902D01*
X144370746Y-102375723D01*
X144488955Y-102498132D01*
X144631346Y-102591310D01*
X144637950Y-102593766D01*
X144637952Y-102593767D01*
X144674344Y-102607301D01*
X144790841Y-102650626D01*
X144959515Y-102673132D01*
X144966526Y-102672494D01*
X144966530Y-102672494D01*
X145121962Y-102658348D01*
X145128983Y-102657709D01*
X145135685Y-102655531D01*
X145135687Y-102655531D01*
X145284123Y-102607301D01*
X145284126Y-102607300D01*
X145290822Y-102605124D01*
X145436990Y-102517990D01*
X145442084Y-102513139D01*
X145442088Y-102513136D01*
X145509333Y-102449099D01*
X145560221Y-102400639D01*
X145654391Y-102258902D01*
X145714819Y-102099825D01*
X145738501Y-101931313D01*
X145738799Y-101910000D01*
X145719831Y-101740892D01*
X145663868Y-101580189D01*
X145657883Y-101570610D01*
X145620946Y-101511500D01*
X145573692Y-101435879D01*
X145453786Y-101315132D01*
X145437539Y-101304821D01*
X145398906Y-101280304D01*
X145310108Y-101223951D01*
X145149800Y-101166868D01*
X144980829Y-101146720D01*
X144973826Y-101147456D01*
X144973825Y-101147456D01*
X144818601Y-101163770D01*
X144818597Y-101163771D01*
X144811593Y-101164507D01*
X144804922Y-101166778D01*
X144657173Y-101217075D01*
X144657170Y-101217076D01*
X144650503Y-101219346D01*
X144644505Y-101223036D01*
X144644503Y-101223037D01*
X144511565Y-101304821D01*
X144511563Y-101304823D01*
X144505566Y-101308512D01*
X144383986Y-101427573D01*
X144380175Y-101433487D01*
X144380173Y-101433489D01*
X144322826Y-101522474D01*
X144291804Y-101570610D01*
X144233603Y-101730516D01*
X144212275Y-101899343D01*
X121158000Y-101899343D01*
X121158000Y-97654343D01*
X141714775Y-97654343D01*
X141731381Y-97823699D01*
X141785094Y-97985167D01*
X141788741Y-97991189D01*
X141788742Y-97991191D01*
X141802497Y-98013902D01*
X141873246Y-98130723D01*
X141991455Y-98253132D01*
X142133846Y-98346310D01*
X142140450Y-98348766D01*
X142140452Y-98348767D01*
X142176844Y-98362301D01*
X142293341Y-98405626D01*
X142462015Y-98428132D01*
X142469026Y-98427494D01*
X142469030Y-98427494D01*
X142624462Y-98413348D01*
X142631483Y-98412709D01*
X142638185Y-98410531D01*
X142638187Y-98410531D01*
X142786623Y-98362301D01*
X142786626Y-98362300D01*
X142793322Y-98360124D01*
X142939490Y-98272990D01*
X142944584Y-98268139D01*
X142944588Y-98268136D01*
X143011833Y-98204099D01*
X143062721Y-98155639D01*
X143156891Y-98013902D01*
X143217319Y-97854825D01*
X143241001Y-97686313D01*
X143241299Y-97665000D01*
X143222331Y-97495892D01*
X143166368Y-97335189D01*
X143160383Y-97325610D01*
X143118363Y-97258366D01*
X143100852Y-97230343D01*
X163339549Y-97230343D01*
X163356155Y-97399699D01*
X163409868Y-97561167D01*
X163413515Y-97567189D01*
X163413516Y-97567191D01*
X163472752Y-97665000D01*
X163498020Y-97706723D01*
X163616229Y-97829132D01*
X163758620Y-97922310D01*
X163765224Y-97924766D01*
X163765226Y-97924767D01*
X163801618Y-97938301D01*
X163918115Y-97981626D01*
X164086789Y-98004132D01*
X164093800Y-98003494D01*
X164093804Y-98003494D01*
X164249236Y-97989348D01*
X164256257Y-97988709D01*
X164262959Y-97986531D01*
X164262961Y-97986531D01*
X164411397Y-97938301D01*
X164411400Y-97938300D01*
X164418096Y-97936124D01*
X164564264Y-97848990D01*
X164569358Y-97844139D01*
X164569362Y-97844136D01*
X164636607Y-97780099D01*
X164687495Y-97731639D01*
X164781665Y-97589902D01*
X164842093Y-97430825D01*
X164865775Y-97262313D01*
X164866073Y-97241000D01*
X164847105Y-97071892D01*
X164842902Y-97059821D01*
X164794570Y-96921034D01*
X164791142Y-96911189D01*
X164785157Y-96901610D01*
X164758357Y-96858723D01*
X164700966Y-96766879D01*
X164581060Y-96646132D01*
X164564813Y-96635821D01*
X164481304Y-96582825D01*
X164437382Y-96554951D01*
X164277074Y-96497868D01*
X164108103Y-96477720D01*
X164101100Y-96478456D01*
X164101099Y-96478456D01*
X163945875Y-96494770D01*
X163945871Y-96494771D01*
X163938867Y-96495507D01*
X163932196Y-96497778D01*
X163784447Y-96548075D01*
X163784444Y-96548076D01*
X163777777Y-96550346D01*
X163771779Y-96554036D01*
X163771777Y-96554037D01*
X163638839Y-96635821D01*
X163638837Y-96635823D01*
X163632840Y-96639512D01*
X163511260Y-96758573D01*
X163507449Y-96764487D01*
X163507447Y-96764489D01*
X163427528Y-96888498D01*
X163419078Y-96901610D01*
X163360877Y-97061516D01*
X163339549Y-97230343D01*
X143100852Y-97230343D01*
X143076192Y-97190879D01*
X143041054Y-97155494D01*
X143016898Y-97131169D01*
X142956286Y-97070132D01*
X142948575Y-97065238D01*
X142901406Y-97035304D01*
X142812608Y-96978951D01*
X142652300Y-96921868D01*
X142483329Y-96901720D01*
X142476326Y-96902456D01*
X142476325Y-96902456D01*
X142321101Y-96918770D01*
X142321097Y-96918771D01*
X142314093Y-96919507D01*
X142307422Y-96921778D01*
X142159673Y-96972075D01*
X142159670Y-96972076D01*
X142153003Y-96974346D01*
X142147005Y-96978036D01*
X142147003Y-96978037D01*
X142014065Y-97059821D01*
X142014063Y-97059823D01*
X142008066Y-97063512D01*
X141886486Y-97182573D01*
X141882675Y-97188487D01*
X141882673Y-97188489D01*
X141798121Y-97319687D01*
X141794304Y-97325610D01*
X141736103Y-97485516D01*
X141714775Y-97654343D01*
X121158000Y-97654343D01*
X121158000Y-95706343D01*
X151147549Y-95706343D01*
X151164155Y-95875699D01*
X151217868Y-96037167D01*
X151221515Y-96043189D01*
X151221516Y-96043191D01*
X151235271Y-96065902D01*
X151306020Y-96182723D01*
X151424229Y-96305132D01*
X151430125Y-96308990D01*
X151552488Y-96389062D01*
X151566620Y-96398310D01*
X151573224Y-96400766D01*
X151573226Y-96400767D01*
X151620164Y-96418223D01*
X151726115Y-96457626D01*
X151894789Y-96480132D01*
X151901800Y-96479494D01*
X151901804Y-96479494D01*
X152057236Y-96465348D01*
X152064257Y-96464709D01*
X152070959Y-96462531D01*
X152070961Y-96462531D01*
X152219397Y-96414301D01*
X152219400Y-96414300D01*
X152226096Y-96412124D01*
X152276054Y-96382343D01*
X155065775Y-96382343D01*
X155082381Y-96551699D01*
X155136094Y-96713167D01*
X155139741Y-96719189D01*
X155139742Y-96719191D01*
X155172242Y-96772854D01*
X155224246Y-96858723D01*
X155342455Y-96981132D01*
X155348351Y-96984990D01*
X155475977Y-97068506D01*
X155484846Y-97074310D01*
X155491450Y-97076766D01*
X155491452Y-97076767D01*
X155527844Y-97090301D01*
X155644341Y-97133626D01*
X155813015Y-97156132D01*
X155820026Y-97155494D01*
X155820030Y-97155494D01*
X155975462Y-97141348D01*
X155982483Y-97140709D01*
X155989185Y-97138531D01*
X155989187Y-97138531D01*
X156137623Y-97090301D01*
X156137626Y-97090300D01*
X156144322Y-97088124D01*
X156290490Y-97000990D01*
X156295584Y-96996139D01*
X156295588Y-96996136D01*
X156377800Y-96917846D01*
X156413721Y-96883639D01*
X156507891Y-96741902D01*
X156568319Y-96582825D01*
X156592001Y-96414313D01*
X156592118Y-96405964D01*
X156592244Y-96396961D01*
X156592244Y-96396955D01*
X156592299Y-96393000D01*
X156573331Y-96223892D01*
X156517368Y-96063189D01*
X156511383Y-96053610D01*
X156489420Y-96018464D01*
X156427192Y-95918879D01*
X156307286Y-95798132D01*
X156291039Y-95787821D01*
X156252406Y-95763304D01*
X156163608Y-95706951D01*
X156003300Y-95649868D01*
X155834329Y-95629720D01*
X155827326Y-95630456D01*
X155827325Y-95630456D01*
X155672101Y-95646770D01*
X155672097Y-95646771D01*
X155665093Y-95647507D01*
X155658422Y-95649778D01*
X155510673Y-95700075D01*
X155510670Y-95700076D01*
X155504003Y-95702346D01*
X155498005Y-95706036D01*
X155498003Y-95706037D01*
X155365065Y-95787821D01*
X155365063Y-95787823D01*
X155359066Y-95791512D01*
X155237486Y-95910573D01*
X155233675Y-95916487D01*
X155233673Y-95916489D01*
X155149121Y-96047687D01*
X155145304Y-96053610D01*
X155087103Y-96213516D01*
X155065775Y-96382343D01*
X152276054Y-96382343D01*
X152372264Y-96324990D01*
X152377358Y-96320139D01*
X152377362Y-96320136D01*
X152471078Y-96230891D01*
X152495495Y-96207639D01*
X152589665Y-96065902D01*
X152650093Y-95906825D01*
X152673775Y-95738313D01*
X152674073Y-95717000D01*
X152655105Y-95547892D01*
X152599142Y-95387189D01*
X152593157Y-95377610D01*
X152571194Y-95342464D01*
X152508966Y-95242879D01*
X152389060Y-95122132D01*
X152372813Y-95111821D01*
X152334180Y-95087304D01*
X152245382Y-95030951D01*
X152085074Y-94973868D01*
X151916103Y-94953720D01*
X151909100Y-94954456D01*
X151909099Y-94954456D01*
X151753875Y-94970770D01*
X151753871Y-94970771D01*
X151746867Y-94971507D01*
X151740196Y-94973778D01*
X151592447Y-95024075D01*
X151592444Y-95024076D01*
X151585777Y-95026346D01*
X151579779Y-95030036D01*
X151579777Y-95030037D01*
X151446839Y-95111821D01*
X151446837Y-95111823D01*
X151440840Y-95115512D01*
X151319260Y-95234573D01*
X151227078Y-95377610D01*
X151168877Y-95537516D01*
X151147549Y-95706343D01*
X121158000Y-95706343D01*
X121158000Y-88775774D01*
X160328102Y-88775774D01*
X160336751Y-89006158D01*
X160384093Y-89231791D01*
X160468776Y-89446221D01*
X160588377Y-89643317D01*
X160591874Y-89647347D01*
X160678438Y-89747103D01*
X160739477Y-89817445D01*
X160743608Y-89820832D01*
X160913627Y-89960240D01*
X160913633Y-89960244D01*
X160917755Y-89963624D01*
X160922391Y-89966263D01*
X160922394Y-89966265D01*
X161031422Y-90028327D01*
X161118114Y-90077675D01*
X161334825Y-90156337D01*
X161340074Y-90157286D01*
X161340077Y-90157287D01*
X161557608Y-90196623D01*
X161557615Y-90196624D01*
X161561692Y-90197361D01*
X161579414Y-90198197D01*
X161584356Y-90198430D01*
X161584363Y-90198430D01*
X161585844Y-90198500D01*
X161997890Y-90198500D01*
X162064809Y-90192822D01*
X162164409Y-90184371D01*
X162164413Y-90184370D01*
X162169720Y-90183920D01*
X162174875Y-90182582D01*
X162174881Y-90182581D01*
X162387703Y-90127343D01*
X162387707Y-90127342D01*
X162392872Y-90126001D01*
X162397738Y-90123809D01*
X162397741Y-90123808D01*
X162598202Y-90033507D01*
X162603075Y-90031312D01*
X162794319Y-89902559D01*
X162961135Y-89743424D01*
X163098754Y-89558458D01*
X163203240Y-89352949D01*
X163239321Y-89236752D01*
X163270024Y-89137871D01*
X163271607Y-89132773D01*
X163272308Y-89127484D01*
X163301198Y-88909511D01*
X163301198Y-88909506D01*
X163301898Y-88904226D01*
X163293249Y-88673842D01*
X163245907Y-88448209D01*
X163161224Y-88233779D01*
X163041623Y-88036683D01*
X162954755Y-87936576D01*
X162894023Y-87866588D01*
X162894021Y-87866586D01*
X162890523Y-87862555D01*
X162848970Y-87828484D01*
X162716373Y-87719760D01*
X162716367Y-87719756D01*
X162712245Y-87716376D01*
X162680750Y-87698448D01*
X162631445Y-87647368D01*
X162617583Y-87577738D01*
X162643566Y-87511667D01*
X162672716Y-87484427D01*
X162708642Y-87460240D01*
X162794319Y-87402559D01*
X162961135Y-87243424D01*
X163098754Y-87058458D01*
X163203240Y-86852949D01*
X163239321Y-86736752D01*
X163270024Y-86637871D01*
X163271607Y-86632773D01*
X163272308Y-86627484D01*
X163301198Y-86409511D01*
X163301198Y-86409506D01*
X163301898Y-86404226D01*
X163293249Y-86173842D01*
X163245907Y-85948209D01*
X163161224Y-85733779D01*
X163041623Y-85536683D01*
X162954755Y-85436576D01*
X162894023Y-85366588D01*
X162894021Y-85366586D01*
X162890523Y-85362555D01*
X162838830Y-85320169D01*
X162716373Y-85219760D01*
X162716367Y-85219756D01*
X162712245Y-85216376D01*
X162680750Y-85198448D01*
X162631445Y-85147368D01*
X162617583Y-85077738D01*
X162643566Y-85011667D01*
X162672716Y-84984427D01*
X162743499Y-84936773D01*
X162794319Y-84902559D01*
X162801736Y-84895484D01*
X162938680Y-84764845D01*
X162961135Y-84743424D01*
X163098754Y-84558458D01*
X163203240Y-84352949D01*
X163237502Y-84242610D01*
X163270024Y-84137871D01*
X163271607Y-84132773D01*
X163272308Y-84127484D01*
X163301198Y-83909511D01*
X163301198Y-83909506D01*
X163301898Y-83904226D01*
X163301415Y-83891346D01*
X163293449Y-83679173D01*
X163293249Y-83673842D01*
X163245907Y-83448209D01*
X163236879Y-83425348D01*
X163163185Y-83238744D01*
X163163184Y-83238742D01*
X163161224Y-83233779D01*
X163110320Y-83149891D01*
X163044390Y-83041243D01*
X163041623Y-83036683D01*
X162986754Y-82973452D01*
X162894023Y-82866588D01*
X162894021Y-82866586D01*
X162890523Y-82862555D01*
X162854880Y-82833330D01*
X162814886Y-82774671D01*
X162812954Y-82703701D01*
X162849698Y-82642952D01*
X162868468Y-82628752D01*
X163008120Y-82542332D01*
X163014348Y-82538478D01*
X163139305Y-82413303D01*
X163175955Y-82353846D01*
X163228275Y-82268968D01*
X163228276Y-82268966D01*
X163232115Y-82262738D01*
X163258564Y-82182995D01*
X163285632Y-82101389D01*
X163285632Y-82101387D01*
X163287797Y-82094861D01*
X163289275Y-82080441D01*
X163298172Y-81993598D01*
X163298500Y-81990400D01*
X163298500Y-80689600D01*
X163298163Y-80686350D01*
X163288238Y-80590692D01*
X163288237Y-80590688D01*
X163287526Y-80583834D01*
X163284635Y-80575167D01*
X163233868Y-80423002D01*
X163231550Y-80416054D01*
X163138478Y-80265652D01*
X163013303Y-80140695D01*
X162985161Y-80123348D01*
X162868968Y-80051725D01*
X162868966Y-80051724D01*
X162862738Y-80047885D01*
X162702254Y-79994655D01*
X162701389Y-79994368D01*
X162701387Y-79994368D01*
X162694861Y-79992203D01*
X162688025Y-79991503D01*
X162688022Y-79991502D01*
X162640117Y-79986594D01*
X162590400Y-79981500D01*
X161039600Y-79981500D01*
X161036354Y-79981837D01*
X161036350Y-79981837D01*
X160940692Y-79991762D01*
X160940688Y-79991763D01*
X160933834Y-79992474D01*
X160927298Y-79994655D01*
X160927296Y-79994655D01*
X160795194Y-80038728D01*
X160766054Y-80048450D01*
X160615652Y-80141522D01*
X160490695Y-80266697D01*
X160486855Y-80272927D01*
X160486854Y-80272928D01*
X160413623Y-80391731D01*
X160397885Y-80417262D01*
X160378438Y-80475892D01*
X160345511Y-80575167D01*
X160342203Y-80585139D01*
X160331500Y-80689600D01*
X160331500Y-81990400D01*
X160331837Y-81993646D01*
X160331837Y-81993650D01*
X160341018Y-82082132D01*
X160342474Y-82096166D01*
X160398450Y-82263946D01*
X160491522Y-82414348D01*
X160616697Y-82539305D01*
X160762340Y-82629081D01*
X160809832Y-82681852D01*
X160821256Y-82751924D01*
X160792982Y-82817048D01*
X160783195Y-82827510D01*
X160777566Y-82832880D01*
X160668865Y-82936576D01*
X160531246Y-83121542D01*
X160528830Y-83126293D01*
X160528828Y-83126297D01*
X160479003Y-83224297D01*
X160426760Y-83327051D01*
X160425178Y-83332145D01*
X160425177Y-83332148D01*
X160384332Y-83463690D01*
X160358393Y-83547227D01*
X160357692Y-83552516D01*
X160342304Y-83668623D01*
X160328102Y-83775774D01*
X160328302Y-83781103D01*
X160328302Y-83781105D01*
X160330354Y-83835770D01*
X160336751Y-84006158D01*
X160384093Y-84231791D01*
X160386051Y-84236750D01*
X160386052Y-84236752D01*
X160455614Y-84412892D01*
X160468776Y-84446221D01*
X160588377Y-84643317D01*
X160591874Y-84647347D01*
X160705608Y-84778414D01*
X160739477Y-84817445D01*
X160743608Y-84820832D01*
X160913627Y-84960240D01*
X160913633Y-84960244D01*
X160917755Y-84963624D01*
X160949250Y-84981552D01*
X160998555Y-85032632D01*
X161012417Y-85102262D01*
X160986434Y-85168333D01*
X160957284Y-85195573D01*
X160835681Y-85277441D01*
X160668865Y-85436576D01*
X160531246Y-85621542D01*
X160426760Y-85827051D01*
X160425178Y-85832145D01*
X160425177Y-85832148D01*
X160363115Y-86032020D01*
X160358393Y-86047227D01*
X160357692Y-86052516D01*
X160342304Y-86168623D01*
X160328102Y-86275774D01*
X160336751Y-86506158D01*
X160384093Y-86731791D01*
X160468776Y-86946221D01*
X160588377Y-87143317D01*
X160591874Y-87147347D01*
X160678438Y-87247103D01*
X160739477Y-87317445D01*
X160743608Y-87320832D01*
X160913627Y-87460240D01*
X160913633Y-87460244D01*
X160917755Y-87463624D01*
X160949250Y-87481552D01*
X160998555Y-87532632D01*
X161012417Y-87602262D01*
X160986434Y-87668333D01*
X160957284Y-87695573D01*
X160835681Y-87777441D01*
X160668865Y-87936576D01*
X160531246Y-88121542D01*
X160426760Y-88327051D01*
X160425178Y-88332145D01*
X160425177Y-88332148D01*
X160363115Y-88532020D01*
X160358393Y-88547227D01*
X160357692Y-88552516D01*
X160342304Y-88668623D01*
X160328102Y-88775774D01*
X121158000Y-88775774D01*
X121158000Y-84571343D01*
X124331775Y-84571343D01*
X124348381Y-84740699D01*
X124402094Y-84902167D01*
X124405741Y-84908189D01*
X124405742Y-84908191D01*
X124481107Y-85032632D01*
X124490246Y-85047723D01*
X124608455Y-85170132D01*
X124750846Y-85263310D01*
X124757450Y-85265766D01*
X124757452Y-85265767D01*
X124830594Y-85292968D01*
X124910341Y-85322626D01*
X125079015Y-85345132D01*
X125086026Y-85344494D01*
X125086030Y-85344494D01*
X125241462Y-85330348D01*
X125248483Y-85329709D01*
X125255185Y-85327531D01*
X125255187Y-85327531D01*
X125403623Y-85279301D01*
X125403626Y-85279300D01*
X125410322Y-85277124D01*
X125556490Y-85189990D01*
X125561584Y-85185139D01*
X125561588Y-85185136D01*
X125628833Y-85121099D01*
X125679721Y-85072639D01*
X125773891Y-84930902D01*
X125834319Y-84771825D01*
X125858001Y-84603313D01*
X125858299Y-84582000D01*
X125839331Y-84412892D01*
X125783368Y-84252189D01*
X125777383Y-84242610D01*
X125711933Y-84137871D01*
X125693192Y-84107879D01*
X125573286Y-83987132D01*
X125557039Y-83976821D01*
X125467487Y-83919990D01*
X125429608Y-83895951D01*
X125269300Y-83838868D01*
X125100329Y-83818720D01*
X125093326Y-83819456D01*
X125093325Y-83819456D01*
X124938101Y-83835770D01*
X124938097Y-83835771D01*
X124931093Y-83836507D01*
X124924422Y-83838778D01*
X124776673Y-83889075D01*
X124776670Y-83889076D01*
X124770003Y-83891346D01*
X124764005Y-83895036D01*
X124764003Y-83895037D01*
X124631065Y-83976821D01*
X124631063Y-83976823D01*
X124625066Y-83980512D01*
X124597891Y-84007124D01*
X124529096Y-84074494D01*
X124503486Y-84099573D01*
X124411304Y-84242610D01*
X124353103Y-84402516D01*
X124331775Y-84571343D01*
X121158000Y-84571343D01*
X121158000Y-83301343D01*
X126617775Y-83301343D01*
X126634381Y-83470699D01*
X126688094Y-83632167D01*
X126691741Y-83638189D01*
X126691742Y-83638191D01*
X126710173Y-83668623D01*
X126776246Y-83777723D01*
X126894455Y-83900132D01*
X126908788Y-83909511D01*
X127017289Y-83980512D01*
X127036846Y-83993310D01*
X127043450Y-83995766D01*
X127043452Y-83995767D01*
X127079844Y-84009301D01*
X127196341Y-84052626D01*
X127365015Y-84075132D01*
X127372026Y-84074494D01*
X127372030Y-84074494D01*
X127527462Y-84060348D01*
X127534483Y-84059709D01*
X127541185Y-84057531D01*
X127541187Y-84057531D01*
X127689623Y-84009301D01*
X127689626Y-84009300D01*
X127696322Y-84007124D01*
X127842490Y-83919990D01*
X127847584Y-83915139D01*
X127847588Y-83915136D01*
X127948834Y-83818720D01*
X127965721Y-83802639D01*
X127987082Y-83770489D01*
X128047752Y-83679173D01*
X128059891Y-83660902D01*
X128120319Y-83501825D01*
X128144001Y-83333313D01*
X128144299Y-83312000D01*
X128125331Y-83142892D01*
X128069368Y-82982189D01*
X128063909Y-82973452D01*
X128008094Y-82884132D01*
X127979192Y-82837879D01*
X127859286Y-82717132D01*
X127843039Y-82706821D01*
X127796048Y-82677000D01*
X127779255Y-82666343D01*
X135634775Y-82666343D01*
X135651381Y-82835699D01*
X135653605Y-82842384D01*
X135653605Y-82842385D01*
X135667492Y-82884132D01*
X135705094Y-82997167D01*
X135708741Y-83003189D01*
X135708742Y-83003191D01*
X135789319Y-83136238D01*
X135793246Y-83142723D01*
X135911455Y-83265132D01*
X135917351Y-83268990D01*
X136021622Y-83337223D01*
X136053846Y-83358310D01*
X136060450Y-83360766D01*
X136060452Y-83360767D01*
X136096844Y-83374301D01*
X136213341Y-83417626D01*
X136382015Y-83440132D01*
X136389026Y-83439494D01*
X136389030Y-83439494D01*
X136544462Y-83425348D01*
X136551483Y-83424709D01*
X136558185Y-83422531D01*
X136558187Y-83422531D01*
X136706623Y-83374301D01*
X136706626Y-83374300D01*
X136713322Y-83372124D01*
X136859490Y-83284990D01*
X136864584Y-83280139D01*
X136864588Y-83280136D01*
X136931833Y-83216099D01*
X136982721Y-83167639D01*
X137010455Y-83125897D01*
X137066698Y-83041243D01*
X137076891Y-83025902D01*
X137137319Y-82866825D01*
X137161001Y-82698313D01*
X137161152Y-82687526D01*
X137161244Y-82680961D01*
X137161244Y-82680955D01*
X137161299Y-82677000D01*
X137142331Y-82507892D01*
X137134647Y-82485825D01*
X137109391Y-82413303D01*
X137086368Y-82347189D01*
X137080383Y-82337610D01*
X137034351Y-82263946D01*
X136996192Y-82202879D01*
X136876286Y-82082132D01*
X136860039Y-82071821D01*
X136821406Y-82047304D01*
X136732608Y-81990951D01*
X136572300Y-81933868D01*
X136403329Y-81913720D01*
X136396326Y-81914456D01*
X136396325Y-81914456D01*
X136241101Y-81930770D01*
X136241097Y-81930771D01*
X136234093Y-81931507D01*
X136227422Y-81933778D01*
X136079673Y-81984075D01*
X136079670Y-81984076D01*
X136073003Y-81986346D01*
X136067005Y-81990036D01*
X136067003Y-81990037D01*
X135934065Y-82071821D01*
X135934063Y-82071823D01*
X135928066Y-82075512D01*
X135806486Y-82194573D01*
X135802675Y-82200487D01*
X135802673Y-82200489D01*
X135724865Y-82321223D01*
X135714304Y-82337610D01*
X135656103Y-82497516D01*
X135634775Y-82666343D01*
X127779255Y-82666343D01*
X127715608Y-82625951D01*
X127555300Y-82568868D01*
X127386329Y-82548720D01*
X127379326Y-82549456D01*
X127379325Y-82549456D01*
X127224101Y-82565770D01*
X127224097Y-82565771D01*
X127217093Y-82566507D01*
X127210422Y-82568778D01*
X127062673Y-82619075D01*
X127062670Y-82619076D01*
X127056003Y-82621346D01*
X127050005Y-82625036D01*
X127050003Y-82625037D01*
X126917065Y-82706821D01*
X126917063Y-82706823D01*
X126911066Y-82710512D01*
X126789486Y-82829573D01*
X126785675Y-82835487D01*
X126785673Y-82835489D01*
X126701121Y-82966687D01*
X126697304Y-82972610D01*
X126639103Y-83132516D01*
X126617775Y-83301343D01*
X121158000Y-83301343D01*
X121158000Y-80634343D01*
X126871775Y-80634343D01*
X126888381Y-80803699D01*
X126942094Y-80965167D01*
X126945741Y-80971189D01*
X126945742Y-80971191D01*
X126959497Y-80993902D01*
X127030246Y-81110723D01*
X127148455Y-81233132D01*
X127290846Y-81326310D01*
X127297450Y-81328766D01*
X127297452Y-81328767D01*
X127333844Y-81342301D01*
X127450341Y-81385626D01*
X127619015Y-81408132D01*
X127626026Y-81407494D01*
X127626030Y-81407494D01*
X127781462Y-81393348D01*
X127788483Y-81392709D01*
X127795185Y-81390531D01*
X127795187Y-81390531D01*
X127943623Y-81342301D01*
X127943626Y-81342300D01*
X127950322Y-81340124D01*
X128096490Y-81252990D01*
X128101584Y-81248139D01*
X128101588Y-81248136D01*
X128174895Y-81178326D01*
X128219721Y-81135639D01*
X128313891Y-80993902D01*
X128374319Y-80834825D01*
X128385137Y-80757851D01*
X138051719Y-80757851D01*
X138068268Y-80954934D01*
X138081869Y-81002365D01*
X138111213Y-81104700D01*
X138122783Y-81145050D01*
X138213187Y-81320956D01*
X138336035Y-81475953D01*
X138486650Y-81604136D01*
X138659294Y-81700624D01*
X138847392Y-81761740D01*
X139032647Y-81783831D01*
X139041563Y-81784894D01*
X139106836Y-81812822D01*
X139146649Y-81871605D01*
X139148361Y-81942581D01*
X139143091Y-81956533D01*
X139143304Y-81956610D01*
X139085103Y-82116516D01*
X139063775Y-82285343D01*
X139080381Y-82454699D01*
X139082605Y-82461384D01*
X139082605Y-82461385D01*
X139098076Y-82507892D01*
X139134094Y-82616167D01*
X139137741Y-82622189D01*
X139137742Y-82622191D01*
X139216312Y-82751924D01*
X139222246Y-82761723D01*
X139340455Y-82884132D01*
X139346351Y-82887990D01*
X139475664Y-82972610D01*
X139482846Y-82977310D01*
X139489450Y-82979766D01*
X139489452Y-82979767D01*
X139562594Y-83006968D01*
X139642341Y-83036626D01*
X139811015Y-83059132D01*
X139818026Y-83058494D01*
X139818030Y-83058494D01*
X139973462Y-83044348D01*
X139980483Y-83043709D01*
X139987185Y-83041531D01*
X139987187Y-83041531D01*
X140135623Y-82993301D01*
X140135626Y-82993300D01*
X140142322Y-82991124D01*
X140288490Y-82903990D01*
X140293584Y-82899139D01*
X140293588Y-82899136D01*
X140368802Y-82827510D01*
X140411721Y-82786639D01*
X140505891Y-82644902D01*
X140566319Y-82485825D01*
X140590001Y-82317313D01*
X140590299Y-82296000D01*
X140571331Y-82126892D01*
X140553439Y-82075512D01*
X140523673Y-81990037D01*
X140515368Y-81966189D01*
X140509383Y-81956610D01*
X140482581Y-81913720D01*
X140425192Y-81821879D01*
X140305286Y-81701132D01*
X140161608Y-81609951D01*
X140001300Y-81552868D01*
X139994305Y-81552034D01*
X139994301Y-81552033D01*
X139984302Y-81550841D01*
X139982673Y-81550647D01*
X139917399Y-81522721D01*
X139877586Y-81463938D01*
X139875873Y-81392962D01*
X139893104Y-81356160D01*
X139893078Y-81356145D01*
X139893265Y-81355815D01*
X139990769Y-81184179D01*
X140053197Y-80996513D01*
X140077985Y-80800295D01*
X140078380Y-80772000D01*
X140059080Y-80575167D01*
X140001916Y-80385831D01*
X139909066Y-80211204D01*
X139835115Y-80120531D01*
X139787960Y-80062713D01*
X139787957Y-80062710D01*
X139784065Y-80057938D01*
X139776555Y-80051725D01*
X139636425Y-79935799D01*
X139636421Y-79935797D01*
X139631675Y-79931870D01*
X139457701Y-79837802D01*
X139268768Y-79779318D01*
X139262643Y-79778674D01*
X139262642Y-79778674D01*
X139078204Y-79759289D01*
X139078202Y-79759289D01*
X139072075Y-79758645D01*
X138989576Y-79766153D01*
X138881251Y-79776011D01*
X138881248Y-79776012D01*
X138875112Y-79776570D01*
X138869206Y-79778308D01*
X138869202Y-79778309D01*
X138764076Y-79809249D01*
X138685381Y-79832410D01*
X138679923Y-79835263D01*
X138679919Y-79835265D01*
X138659793Y-79845787D01*
X138510110Y-79924040D01*
X138355975Y-80047968D01*
X138352011Y-80052692D01*
X138343602Y-80062713D01*
X138228846Y-80199474D01*
X138225879Y-80204872D01*
X138225875Y-80204877D01*
X138161572Y-80321846D01*
X138133567Y-80372787D01*
X138131706Y-80378654D01*
X138131705Y-80378656D01*
X138102971Y-80469238D01*
X138073765Y-80561306D01*
X138051719Y-80757851D01*
X128385137Y-80757851D01*
X128398001Y-80666313D01*
X128398299Y-80645000D01*
X128379331Y-80475892D01*
X128323368Y-80315189D01*
X128317383Y-80305610D01*
X128258390Y-80211204D01*
X128233192Y-80170879D01*
X128204040Y-80141522D01*
X128175264Y-80112545D01*
X128113286Y-80050132D01*
X128103788Y-80044104D01*
X128025416Y-79994368D01*
X127969608Y-79958951D01*
X127809300Y-79901868D01*
X127640329Y-79881720D01*
X127633326Y-79882456D01*
X127633325Y-79882456D01*
X127478101Y-79898770D01*
X127478097Y-79898771D01*
X127471093Y-79899507D01*
X127464422Y-79901778D01*
X127316673Y-79952075D01*
X127316670Y-79952076D01*
X127310003Y-79954346D01*
X127304005Y-79958036D01*
X127304003Y-79958037D01*
X127171065Y-80039821D01*
X127171063Y-80039823D01*
X127165066Y-80043512D01*
X127156086Y-80052306D01*
X127069096Y-80137494D01*
X127043486Y-80162573D01*
X127039675Y-80168487D01*
X127039673Y-80168489D01*
X126980389Y-80260479D01*
X126951304Y-80305610D01*
X126924086Y-80380392D01*
X126908138Y-80424209D01*
X126893103Y-80465516D01*
X126871775Y-80634343D01*
X121158000Y-80634343D01*
X121158000Y-79364343D01*
X122553775Y-79364343D01*
X122570381Y-79533699D01*
X122624094Y-79695167D01*
X122627741Y-79701189D01*
X122627742Y-79701191D01*
X122706158Y-79830670D01*
X122712246Y-79840723D01*
X122830455Y-79963132D01*
X122836351Y-79966990D01*
X122960835Y-80048450D01*
X122972846Y-80056310D01*
X122979450Y-80058766D01*
X122979452Y-80058767D01*
X123015844Y-80072301D01*
X123132341Y-80115626D01*
X123301015Y-80138132D01*
X123308026Y-80137494D01*
X123308030Y-80137494D01*
X123463462Y-80123348D01*
X123470483Y-80122709D01*
X123477185Y-80120531D01*
X123477187Y-80120531D01*
X123625623Y-80072301D01*
X123625626Y-80072300D01*
X123632322Y-80070124D01*
X123778490Y-79982990D01*
X123783584Y-79978139D01*
X123783588Y-79978136D01*
X123884834Y-79881720D01*
X123901721Y-79865639D01*
X123921427Y-79835980D01*
X123959073Y-79779318D01*
X123995891Y-79723902D01*
X124056319Y-79564825D01*
X124080001Y-79396313D01*
X124080299Y-79375000D01*
X124061331Y-79205892D01*
X124005368Y-79045189D01*
X123999383Y-79035610D01*
X123977420Y-79000464D01*
X123915192Y-78900879D01*
X123795286Y-78780132D01*
X123779039Y-78769821D01*
X123709096Y-78725434D01*
X123651608Y-78688951D01*
X123491300Y-78631868D01*
X123322329Y-78611720D01*
X123315326Y-78612456D01*
X123315325Y-78612456D01*
X123160101Y-78628770D01*
X123160097Y-78628771D01*
X123153093Y-78629507D01*
X123146422Y-78631778D01*
X122998673Y-78682075D01*
X122998670Y-78682076D01*
X122992003Y-78684346D01*
X122986005Y-78688036D01*
X122986003Y-78688037D01*
X122853065Y-78769821D01*
X122853063Y-78769823D01*
X122847066Y-78773512D01*
X122842033Y-78778441D01*
X122751096Y-78867494D01*
X122725486Y-78892573D01*
X122633304Y-79035610D01*
X122575103Y-79195516D01*
X122553775Y-79364343D01*
X121158000Y-79364343D01*
X121158000Y-78094343D01*
X124712775Y-78094343D01*
X124729381Y-78263699D01*
X124783094Y-78425167D01*
X124786741Y-78431189D01*
X124786742Y-78431191D01*
X124800497Y-78453902D01*
X124871246Y-78570723D01*
X124989455Y-78693132D01*
X125038818Y-78725434D01*
X125112289Y-78773512D01*
X125131846Y-78786310D01*
X125138450Y-78788766D01*
X125138452Y-78788767D01*
X125174844Y-78802301D01*
X125291341Y-78845626D01*
X125460015Y-78868132D01*
X125467026Y-78867494D01*
X125467030Y-78867494D01*
X125622462Y-78853348D01*
X125629483Y-78852709D01*
X125636185Y-78850531D01*
X125636187Y-78850531D01*
X125784623Y-78802301D01*
X125784626Y-78802300D01*
X125791322Y-78800124D01*
X125921307Y-78722637D01*
X125990062Y-78704937D01*
X126054818Y-78725434D01*
X126128289Y-78773512D01*
X126147846Y-78786310D01*
X126154450Y-78788766D01*
X126154452Y-78788767D01*
X126190844Y-78802301D01*
X126307341Y-78845626D01*
X126476015Y-78868132D01*
X126483026Y-78867494D01*
X126483030Y-78867494D01*
X126638462Y-78853348D01*
X126645483Y-78852709D01*
X126652185Y-78850531D01*
X126652187Y-78850531D01*
X126800623Y-78802301D01*
X126800626Y-78802300D01*
X126807322Y-78800124D01*
X126937307Y-78722637D01*
X127006062Y-78704937D01*
X127070818Y-78725434D01*
X127144289Y-78773512D01*
X127163846Y-78786310D01*
X127170450Y-78788766D01*
X127170452Y-78788767D01*
X127206844Y-78802301D01*
X127323341Y-78845626D01*
X127492015Y-78868132D01*
X127499026Y-78867494D01*
X127499030Y-78867494D01*
X127654462Y-78853348D01*
X127661483Y-78852709D01*
X127668185Y-78850531D01*
X127668187Y-78850531D01*
X127816623Y-78802301D01*
X127816626Y-78802300D01*
X127823322Y-78800124D01*
X127969490Y-78712990D01*
X127974584Y-78708139D01*
X127974588Y-78708136D01*
X128075834Y-78611720D01*
X128092721Y-78595639D01*
X128186891Y-78453902D01*
X128247319Y-78294825D01*
X128271001Y-78126313D01*
X128271299Y-78105000D01*
X128252331Y-77935892D01*
X128196368Y-77775189D01*
X128190383Y-77765610D01*
X128168420Y-77730464D01*
X128106192Y-77630879D01*
X127986286Y-77510132D01*
X127970039Y-77499821D01*
X127931406Y-77475304D01*
X127842608Y-77418951D01*
X127682300Y-77361868D01*
X127513329Y-77341720D01*
X127506326Y-77342456D01*
X127506325Y-77342456D01*
X127351101Y-77358770D01*
X127351097Y-77358771D01*
X127344093Y-77359507D01*
X127337422Y-77361778D01*
X127189673Y-77412075D01*
X127189670Y-77412076D01*
X127183003Y-77414346D01*
X127177005Y-77418036D01*
X127177003Y-77418037D01*
X127065411Y-77486689D01*
X126996910Y-77505347D01*
X126931877Y-77485757D01*
X126826608Y-77418951D01*
X126666300Y-77361868D01*
X126497329Y-77341720D01*
X126490326Y-77342456D01*
X126490325Y-77342456D01*
X126335101Y-77358770D01*
X126335097Y-77358771D01*
X126328093Y-77359507D01*
X126321422Y-77361778D01*
X126173673Y-77412075D01*
X126173670Y-77412076D01*
X126167003Y-77414346D01*
X126161005Y-77418036D01*
X126161003Y-77418037D01*
X126049411Y-77486689D01*
X125980910Y-77505347D01*
X125915877Y-77485757D01*
X125810608Y-77418951D01*
X125650300Y-77361868D01*
X125481329Y-77341720D01*
X125474326Y-77342456D01*
X125474325Y-77342456D01*
X125319101Y-77358770D01*
X125319097Y-77358771D01*
X125312093Y-77359507D01*
X125305422Y-77361778D01*
X125157673Y-77412075D01*
X125157670Y-77412076D01*
X125151003Y-77414346D01*
X125145005Y-77418036D01*
X125145003Y-77418037D01*
X125012065Y-77499821D01*
X125012063Y-77499823D01*
X125006066Y-77503512D01*
X124884486Y-77622573D01*
X124792304Y-77765610D01*
X124734103Y-77925516D01*
X124712775Y-78094343D01*
X121158000Y-78094343D01*
X121158000Y-74427703D01*
X122985743Y-74427703D01*
X123023268Y-74712734D01*
X123099129Y-74990036D01*
X123100813Y-74993984D01*
X123148265Y-75105232D01*
X123211923Y-75254476D01*
X123223693Y-75274142D01*
X123336856Y-75463223D01*
X123359561Y-75501161D01*
X123539313Y-75725528D01*
X123747851Y-75923423D01*
X123981317Y-76091186D01*
X123985112Y-76093195D01*
X123985113Y-76093196D01*
X124006869Y-76104715D01*
X124235392Y-76225712D01*
X124505373Y-76324511D01*
X124786264Y-76385755D01*
X124814841Y-76388004D01*
X125009282Y-76403307D01*
X125009291Y-76403307D01*
X125011739Y-76403500D01*
X125167271Y-76403500D01*
X125169407Y-76403354D01*
X125169418Y-76403354D01*
X125377548Y-76389165D01*
X125377554Y-76389164D01*
X125381825Y-76388873D01*
X125386020Y-76388004D01*
X125386022Y-76388004D01*
X125577683Y-76348313D01*
X125663342Y-76330574D01*
X125703529Y-76316343D01*
X129284775Y-76316343D01*
X129301381Y-76485699D01*
X129355094Y-76647167D01*
X129358741Y-76653189D01*
X129358742Y-76653191D01*
X129372497Y-76675902D01*
X129443246Y-76792723D01*
X129561455Y-76915132D01*
X129703846Y-77008310D01*
X129710450Y-77010766D01*
X129710452Y-77010767D01*
X129746844Y-77024301D01*
X129863341Y-77067626D01*
X130032015Y-77090132D01*
X130039026Y-77089494D01*
X130039030Y-77089494D01*
X130194462Y-77075348D01*
X130201483Y-77074709D01*
X130208185Y-77072531D01*
X130208187Y-77072531D01*
X130356623Y-77024301D01*
X130356626Y-77024300D01*
X130363322Y-77022124D01*
X130493307Y-76944637D01*
X130562062Y-76926937D01*
X130626817Y-76947434D01*
X130719846Y-77008310D01*
X130726450Y-77010766D01*
X130726452Y-77010767D01*
X130762844Y-77024301D01*
X130879341Y-77067626D01*
X131048015Y-77090132D01*
X131055026Y-77089494D01*
X131055030Y-77089494D01*
X131210462Y-77075348D01*
X131217483Y-77074709D01*
X131224185Y-77072531D01*
X131224187Y-77072531D01*
X131372623Y-77024301D01*
X131372626Y-77024300D01*
X131379322Y-77022124D01*
X131525490Y-76934990D01*
X131530584Y-76930139D01*
X131530588Y-76930136D01*
X131597833Y-76866099D01*
X131648721Y-76817639D01*
X131742891Y-76675902D01*
X131803319Y-76516825D01*
X131827001Y-76348313D01*
X131827299Y-76327000D01*
X131826858Y-76323070D01*
X131826685Y-76319532D01*
X131843333Y-76250515D01*
X131894652Y-76201456D01*
X131969198Y-76188481D01*
X132003171Y-76193014D01*
X132064015Y-76201132D01*
X132071026Y-76200494D01*
X132071030Y-76200494D01*
X132226462Y-76186348D01*
X132233483Y-76185709D01*
X132240185Y-76183531D01*
X132240187Y-76183531D01*
X132388623Y-76135301D01*
X132388626Y-76135300D01*
X132395322Y-76133124D01*
X132541490Y-76045990D01*
X132546584Y-76041139D01*
X132546588Y-76041136D01*
X132613833Y-75977099D01*
X132664721Y-75928639D01*
X132670147Y-75920473D01*
X132754990Y-75792773D01*
X132758891Y-75786902D01*
X132819319Y-75627825D01*
X132843001Y-75459313D01*
X132843299Y-75438000D01*
X132824331Y-75268892D01*
X132768368Y-75108189D01*
X132764635Y-75102215D01*
X132764633Y-75102211D01*
X132739090Y-75061335D01*
X132719953Y-74992966D01*
X132740996Y-74924836D01*
X132754990Y-74903775D01*
X132754993Y-74903768D01*
X132758891Y-74897902D01*
X132819319Y-74738825D01*
X132843001Y-74570313D01*
X132843299Y-74549000D01*
X132829694Y-74427703D01*
X159180743Y-74427703D01*
X159218268Y-74712734D01*
X159294129Y-74990036D01*
X159295813Y-74993984D01*
X159343265Y-75105232D01*
X159406923Y-75254476D01*
X159418693Y-75274142D01*
X159531856Y-75463223D01*
X159554561Y-75501161D01*
X159734313Y-75725528D01*
X159942851Y-75923423D01*
X160176317Y-76091186D01*
X160180112Y-76093195D01*
X160180113Y-76093196D01*
X160201869Y-76104715D01*
X160430392Y-76225712D01*
X160700373Y-76324511D01*
X160981264Y-76385755D01*
X161009841Y-76388004D01*
X161204282Y-76403307D01*
X161204291Y-76403307D01*
X161206739Y-76403500D01*
X161362271Y-76403500D01*
X161364407Y-76403354D01*
X161364418Y-76403354D01*
X161572548Y-76389165D01*
X161572554Y-76389164D01*
X161576825Y-76388873D01*
X161581020Y-76388004D01*
X161581022Y-76388004D01*
X161772683Y-76348313D01*
X161858342Y-76330574D01*
X162129343Y-76234607D01*
X162384812Y-76102750D01*
X162388313Y-76100289D01*
X162388317Y-76100287D01*
X162502417Y-76020096D01*
X162620023Y-75937441D01*
X162806457Y-75764196D01*
X162827479Y-75744661D01*
X162827481Y-75744658D01*
X162830622Y-75741740D01*
X163012713Y-75519268D01*
X163162927Y-75274142D01*
X163168153Y-75262238D01*
X163276757Y-75014830D01*
X163278483Y-75010898D01*
X163302999Y-74924836D01*
X163356068Y-74738534D01*
X163357244Y-74734406D01*
X163397751Y-74449784D01*
X163397845Y-74431951D01*
X163399235Y-74166583D01*
X163399235Y-74166576D01*
X163399257Y-74162297D01*
X163361732Y-73877266D01*
X163343793Y-73811690D01*
X163330460Y-73762956D01*
X163285871Y-73599964D01*
X163234922Y-73480516D01*
X163174763Y-73339476D01*
X163174761Y-73339472D01*
X163173077Y-73335524D01*
X163025439Y-73088839D01*
X162845687Y-72864472D01*
X162637149Y-72666577D01*
X162403683Y-72498814D01*
X162398386Y-72496009D01*
X162326404Y-72457897D01*
X162149608Y-72364288D01*
X161918739Y-72279802D01*
X161883658Y-72266964D01*
X161883656Y-72266963D01*
X161879627Y-72265489D01*
X161598736Y-72204245D01*
X161560096Y-72201204D01*
X161375718Y-72186693D01*
X161375709Y-72186693D01*
X161373261Y-72186500D01*
X161217729Y-72186500D01*
X161215593Y-72186646D01*
X161215582Y-72186646D01*
X161007452Y-72200835D01*
X161007446Y-72200836D01*
X161003175Y-72201127D01*
X160998980Y-72201996D01*
X160998978Y-72201996D01*
X160875674Y-72227531D01*
X160721658Y-72259426D01*
X160450657Y-72355393D01*
X160446848Y-72357359D01*
X160225692Y-72471506D01*
X160195188Y-72487250D01*
X160191687Y-72489711D01*
X160191683Y-72489713D01*
X160127197Y-72535035D01*
X159959977Y-72652559D01*
X159749378Y-72848260D01*
X159567287Y-73070732D01*
X159417073Y-73315858D01*
X159301517Y-73579102D01*
X159300342Y-73583229D01*
X159300341Y-73583230D01*
X159296699Y-73596016D01*
X159222756Y-73855594D01*
X159182249Y-74140216D01*
X159182227Y-74144505D01*
X159182226Y-74144512D01*
X159180765Y-74423417D01*
X159180743Y-74427703D01*
X132829694Y-74427703D01*
X132824331Y-74379892D01*
X132809632Y-74337681D01*
X132770686Y-74225846D01*
X132768368Y-74219189D01*
X132764635Y-74213215D01*
X132764633Y-74213211D01*
X132739090Y-74172335D01*
X132719953Y-74103966D01*
X132740996Y-74035836D01*
X132754990Y-74014775D01*
X132754993Y-74014768D01*
X132758891Y-74008902D01*
X132819319Y-73849825D01*
X132843001Y-73681313D01*
X132843299Y-73660000D01*
X132824331Y-73490892D01*
X132808129Y-73444365D01*
X132770686Y-73336846D01*
X132768368Y-73330189D01*
X132762383Y-73320610D01*
X132710964Y-73238324D01*
X132698193Y-73217887D01*
X132693145Y-73199851D01*
X149842719Y-73199851D01*
X149844535Y-73221473D01*
X149853162Y-73324213D01*
X149859268Y-73396934D01*
X149871191Y-73438513D01*
X149911504Y-73579102D01*
X149913783Y-73587050D01*
X150004187Y-73762956D01*
X150127035Y-73917953D01*
X150131728Y-73921947D01*
X150131729Y-73921948D01*
X150265548Y-74035836D01*
X150277650Y-74046136D01*
X150450294Y-74142624D01*
X150638392Y-74203740D01*
X150834777Y-74227158D01*
X150840912Y-74226686D01*
X150840914Y-74226686D01*
X151025830Y-74212457D01*
X151025834Y-74212456D01*
X151031972Y-74211984D01*
X151222463Y-74158798D01*
X151227967Y-74156018D01*
X151227969Y-74156017D01*
X151393495Y-74072404D01*
X151393497Y-74072403D01*
X151398996Y-74069625D01*
X151554847Y-73947861D01*
X151666336Y-73818699D01*
X151680049Y-73802813D01*
X151680050Y-73802811D01*
X151684078Y-73798145D01*
X151781769Y-73626179D01*
X151844197Y-73438513D01*
X151868985Y-73242295D01*
X151869380Y-73214000D01*
X151850080Y-73017167D01*
X151792916Y-72827831D01*
X151700066Y-72653204D01*
X151607843Y-72540128D01*
X151578960Y-72504713D01*
X151578957Y-72504710D01*
X151575065Y-72499938D01*
X151568724Y-72494692D01*
X151427425Y-72377799D01*
X151427421Y-72377797D01*
X151422675Y-72373870D01*
X151248701Y-72279802D01*
X151059768Y-72221318D01*
X151053643Y-72220674D01*
X151053642Y-72220674D01*
X150869204Y-72201289D01*
X150869202Y-72201289D01*
X150863075Y-72200645D01*
X150780576Y-72208153D01*
X150672251Y-72218011D01*
X150672248Y-72218012D01*
X150666112Y-72218570D01*
X150660206Y-72220308D01*
X150660202Y-72220309D01*
X150555076Y-72251249D01*
X150476381Y-72274410D01*
X150470923Y-72277263D01*
X150470919Y-72277265D01*
X150429953Y-72298682D01*
X150301110Y-72366040D01*
X150146975Y-72489968D01*
X150019846Y-72641474D01*
X150016879Y-72646872D01*
X150016875Y-72646877D01*
X149938095Y-72790180D01*
X149924567Y-72814787D01*
X149922706Y-72820654D01*
X149922705Y-72820656D01*
X149879301Y-72957484D01*
X149864765Y-73003306D01*
X149842719Y-73199851D01*
X132693145Y-73199851D01*
X132679057Y-73149518D01*
X132700098Y-73081393D01*
X132758891Y-72992902D01*
X132819319Y-72833825D01*
X132843001Y-72665313D01*
X132843170Y-72653204D01*
X132843244Y-72647961D01*
X132843244Y-72647955D01*
X132843299Y-72644000D01*
X132824331Y-72474892D01*
X132768368Y-72314189D01*
X132762383Y-72304610D01*
X132700237Y-72205158D01*
X132698193Y-72201887D01*
X132679057Y-72133518D01*
X132700098Y-72065393D01*
X132758891Y-71976902D01*
X132819319Y-71817825D01*
X132843001Y-71649313D01*
X132843299Y-71628000D01*
X132824331Y-71458892D01*
X132768368Y-71298189D01*
X132762383Y-71288610D01*
X132721864Y-71223768D01*
X132678192Y-71153879D01*
X132558286Y-71033132D01*
X132542039Y-71022821D01*
X132503406Y-70998304D01*
X132414608Y-70941951D01*
X132254300Y-70884868D01*
X132085329Y-70864720D01*
X132078326Y-70865456D01*
X132078325Y-70865456D01*
X131923101Y-70881770D01*
X131923097Y-70881771D01*
X131916093Y-70882507D01*
X131909422Y-70884778D01*
X131761673Y-70935075D01*
X131761670Y-70935076D01*
X131755003Y-70937346D01*
X131749005Y-70941036D01*
X131749003Y-70941037D01*
X131637411Y-71009689D01*
X131568910Y-71028347D01*
X131503877Y-71008757D01*
X131398608Y-70941951D01*
X131238300Y-70884868D01*
X131069329Y-70864720D01*
X131062326Y-70865456D01*
X131062325Y-70865456D01*
X130907101Y-70881770D01*
X130907097Y-70881771D01*
X130900093Y-70882507D01*
X130893422Y-70884778D01*
X130745673Y-70935075D01*
X130745670Y-70935076D01*
X130739003Y-70937346D01*
X130733005Y-70941036D01*
X130733003Y-70941037D01*
X130621411Y-71009689D01*
X130552910Y-71028347D01*
X130487877Y-71008757D01*
X130382608Y-70941951D01*
X130222300Y-70884868D01*
X130053329Y-70864720D01*
X130046326Y-70865456D01*
X130046325Y-70865456D01*
X129891101Y-70881770D01*
X129891097Y-70881771D01*
X129884093Y-70882507D01*
X129877422Y-70884778D01*
X129729673Y-70935075D01*
X129729670Y-70935076D01*
X129723003Y-70937346D01*
X129717005Y-70941036D01*
X129717003Y-70941037D01*
X129584065Y-71022821D01*
X129584063Y-71022823D01*
X129578066Y-71026512D01*
X129456486Y-71145573D01*
X129452675Y-71151487D01*
X129452673Y-71151489D01*
X129399177Y-71234498D01*
X129364304Y-71288610D01*
X129306103Y-71448516D01*
X129284775Y-71617343D01*
X129301381Y-71786699D01*
X129355094Y-71948167D01*
X129430058Y-72071948D01*
X129448237Y-72140576D01*
X129428193Y-72205473D01*
X129368124Y-72298682D01*
X129364304Y-72304610D01*
X129306103Y-72464516D01*
X129284775Y-72633343D01*
X129301381Y-72802699D01*
X129355094Y-72964167D01*
X129430058Y-73087948D01*
X129448237Y-73156576D01*
X129428193Y-73221473D01*
X129369723Y-73312201D01*
X129364304Y-73320610D01*
X129306103Y-73480516D01*
X129284775Y-73649343D01*
X129301381Y-73818699D01*
X129355094Y-73980167D01*
X129358744Y-73986194D01*
X129358745Y-73986196D01*
X129390406Y-74038475D01*
X129408585Y-74107104D01*
X129388541Y-74172002D01*
X129364304Y-74209610D01*
X129306103Y-74369516D01*
X129284775Y-74538343D01*
X129301381Y-74707699D01*
X129355094Y-74869167D01*
X129358744Y-74875194D01*
X129358745Y-74875196D01*
X129390406Y-74927475D01*
X129408585Y-74996104D01*
X129388541Y-75061002D01*
X129364304Y-75098610D01*
X129306103Y-75258516D01*
X129284775Y-75427343D01*
X129301381Y-75596699D01*
X129355094Y-75758167D01*
X129358744Y-75764194D01*
X129358745Y-75764196D01*
X129390406Y-75816475D01*
X129408585Y-75885104D01*
X129388541Y-75950002D01*
X129364304Y-75987610D01*
X129306103Y-76147516D01*
X129284775Y-76316343D01*
X125703529Y-76316343D01*
X125934343Y-76234607D01*
X126189812Y-76102750D01*
X126193313Y-76100289D01*
X126193317Y-76100287D01*
X126307417Y-76020096D01*
X126425023Y-75937441D01*
X126611457Y-75764196D01*
X126632479Y-75744661D01*
X126632481Y-75744658D01*
X126635622Y-75741740D01*
X126817713Y-75519268D01*
X126967927Y-75274142D01*
X126973153Y-75262238D01*
X127081757Y-75014830D01*
X127083483Y-75010898D01*
X127107999Y-74924836D01*
X127161068Y-74738534D01*
X127162244Y-74734406D01*
X127202751Y-74449784D01*
X127202845Y-74431951D01*
X127204235Y-74166583D01*
X127204235Y-74166576D01*
X127204257Y-74162297D01*
X127166732Y-73877266D01*
X127148793Y-73811690D01*
X127135460Y-73762956D01*
X127090871Y-73599964D01*
X127039922Y-73480516D01*
X126979763Y-73339476D01*
X126979761Y-73339472D01*
X126978077Y-73335524D01*
X126830439Y-73088839D01*
X126650687Y-72864472D01*
X126442149Y-72666577D01*
X126208683Y-72498814D01*
X126203386Y-72496009D01*
X126131404Y-72457897D01*
X125954608Y-72364288D01*
X125723739Y-72279802D01*
X125688658Y-72266964D01*
X125688656Y-72266963D01*
X125684627Y-72265489D01*
X125403736Y-72204245D01*
X125365096Y-72201204D01*
X125180718Y-72186693D01*
X125180709Y-72186693D01*
X125178261Y-72186500D01*
X125022729Y-72186500D01*
X125020593Y-72186646D01*
X125020582Y-72186646D01*
X124812452Y-72200835D01*
X124812446Y-72200836D01*
X124808175Y-72201127D01*
X124803980Y-72201996D01*
X124803978Y-72201996D01*
X124680674Y-72227531D01*
X124526658Y-72259426D01*
X124255657Y-72355393D01*
X124251848Y-72357359D01*
X124030692Y-72471506D01*
X124000188Y-72487250D01*
X123996687Y-72489711D01*
X123996683Y-72489713D01*
X123932197Y-72535035D01*
X123764977Y-72652559D01*
X123554378Y-72848260D01*
X123372287Y-73070732D01*
X123222073Y-73315858D01*
X123106517Y-73579102D01*
X123105342Y-73583229D01*
X123105341Y-73583230D01*
X123101699Y-73596016D01*
X123027756Y-73855594D01*
X122987249Y-74140216D01*
X122987227Y-74144505D01*
X122987226Y-74144512D01*
X122985765Y-74423417D01*
X122985743Y-74427703D01*
X121158000Y-74427703D01*
X121158000Y-74344328D01*
X121159500Y-74324943D01*
X121161805Y-74310142D01*
X121161805Y-74310139D01*
X121163186Y-74301270D01*
X121160584Y-74281374D01*
X121159654Y-74259216D01*
X121174525Y-73937557D01*
X121175599Y-73925968D01*
X121224231Y-73577342D01*
X121226370Y-73565903D01*
X121306958Y-73223260D01*
X121310143Y-73212065D01*
X121310670Y-73210495D01*
X121385808Y-72986314D01*
X121422006Y-72878315D01*
X121426210Y-72867463D01*
X121568391Y-72545453D01*
X121573571Y-72535048D01*
X121744867Y-72227513D01*
X121750983Y-72217636D01*
X121772180Y-72186693D01*
X121818798Y-72118639D01*
X121949914Y-71927233D01*
X121956928Y-71917945D01*
X122181806Y-71647135D01*
X122189647Y-71638535D01*
X122438535Y-71389647D01*
X122447135Y-71381806D01*
X122717945Y-71156928D01*
X122727233Y-71149914D01*
X123017636Y-70950983D01*
X123027513Y-70944867D01*
X123335048Y-70773571D01*
X123345453Y-70768391D01*
X123667463Y-70626210D01*
X123678315Y-70622006D01*
X123884491Y-70552902D01*
X124012074Y-70510140D01*
X124023256Y-70506959D01*
X124246181Y-70454528D01*
X124365903Y-70426370D01*
X124377342Y-70424231D01*
X124725968Y-70375599D01*
X124737556Y-70374525D01*
X124762609Y-70373367D01*
X125051816Y-70359997D01*
X125077015Y-70361362D01*
X125079858Y-70361805D01*
X125079860Y-70361805D01*
X125088730Y-70363186D01*
X125097632Y-70362022D01*
X125097635Y-70362022D01*
X125120251Y-70359064D01*
X125136589Y-70358000D01*
X134660502Y-70358000D01*
X134728623Y-70378002D01*
G37*
%TD.AperFunction*%
%TD*%
M02*
