%TF.GenerationSoftware,KiCad,Pcbnew,(6.0.1-0)*%
%TF.CreationDate,2022-10-07T23:17:40-05:00*%
%TF.ProjectId,tackle_sensor_hardware,7461636b-6c65-45f7-9365-6e736f725f68,rev?*%
%TF.SameCoordinates,Original*%
%TF.FileFunction,Copper,L4,Bot*%
%TF.FilePolarity,Positive*%
%FSLAX46Y46*%
G04 Gerber Fmt 4.6, Leading zero omitted, Abs format (unit mm)*
G04 Created by KiCad (PCBNEW (6.0.1-0)) date 2022-10-07 23:17:40*
%MOMM*%
%LPD*%
G01*
G04 APERTURE LIST*
G04 Aperture macros list*
%AMRoundRect*
0 Rectangle with rounded corners*
0 $1 Rounding radius*
0 $2 $3 $4 $5 $6 $7 $8 $9 X,Y pos of 4 corners*
0 Add a 4 corners polygon primitive as box body*
4,1,4,$2,$3,$4,$5,$6,$7,$8,$9,$2,$3,0*
0 Add four circle primitives for the rounded corners*
1,1,$1+$1,$2,$3*
1,1,$1+$1,$4,$5*
1,1,$1+$1,$6,$7*
1,1,$1+$1,$8,$9*
0 Add four rect primitives between the rounded corners*
20,1,$1+$1,$2,$3,$4,$5,0*
20,1,$1+$1,$4,$5,$6,$7,0*
20,1,$1+$1,$6,$7,$8,$9,0*
20,1,$1+$1,$8,$9,$2,$3,0*%
G04 Aperture macros list end*
%TA.AperFunction,ComponentPad*%
%ADD10RoundRect,0.250000X-0.725000X0.600000X-0.725000X-0.600000X0.725000X-0.600000X0.725000X0.600000X0*%
%TD*%
%TA.AperFunction,ComponentPad*%
%ADD11O,1.950000X1.700000*%
%TD*%
%TA.AperFunction,ComponentPad*%
%ADD12RoundRect,0.250000X0.750000X-0.600000X0.750000X0.600000X-0.750000X0.600000X-0.750000X-0.600000X0*%
%TD*%
%TA.AperFunction,ComponentPad*%
%ADD13O,2.000000X1.700000*%
%TD*%
%TA.AperFunction,SMDPad,CuDef*%
%ADD14C,1.000000*%
%TD*%
%TA.AperFunction,ViaPad*%
%ADD15C,0.800000*%
%TD*%
%TA.AperFunction,ViaPad*%
%ADD16C,0.500000*%
%TD*%
%TA.AperFunction,ViaPad*%
%ADD17C,1.000000*%
%TD*%
%TA.AperFunction,Conductor*%
%ADD18C,1.524000*%
%TD*%
%TA.AperFunction,Conductor*%
%ADD19C,0.254000*%
%TD*%
G04 APERTURE END LIST*
D10*
%TO.P,J3,1,Pin_1*%
%TO.N,Net-(J3-Pad1)*%
X162305000Y-102870000D03*
D11*
%TO.P,J3,2,Pin_2*%
%TO.N,Net-(J3-Pad2)*%
X162305000Y-105370000D03*
%TO.P,J3,3,Pin_3*%
%TO.N,GND*%
X162305000Y-107870000D03*
%TD*%
D12*
%TO.P,J1,1,Pin_1*%
%TO.N,GND*%
X124460000Y-115911000D03*
D13*
%TO.P,J1,2,Pin_2*%
%TO.N,Net-(J1-Pad2)*%
X124460000Y-113411000D03*
%TD*%
D10*
%TO.P,J2,1,Pin_1*%
%TO.N,Net-(F1-Pad2)*%
X161815000Y-81340000D03*
D11*
%TO.P,J2,2,Pin_2*%
%TO.N,Net-(J2-Pad2)*%
X161815000Y-83840000D03*
%TO.P,J2,3,Pin_3*%
%TO.N,Net-(J2-Pad3)*%
X161815000Y-86340000D03*
%TO.P,J2,4,Pin_4*%
%TO.N,Net-(J2-Pad4)*%
X161815000Y-88840000D03*
%TD*%
D14*
%TO.P,TP7,1,1*%
%TO.N,/SPI1_SCK*%
X163830000Y-117983000D03*
%TD*%
%TO.P,TP5,1,1*%
%TO.N,/SPI1_MOSI*%
X155067000Y-112268000D03*
%TD*%
%TO.P,TP13,1,1*%
%TO.N,UART_TX*%
X153416000Y-104648000D03*
%TD*%
%TO.P,TP8,1,1*%
%TO.N,/ACC_INT1*%
X154813000Y-122936000D03*
%TD*%
%TO.P,TP6,1,1*%
%TO.N,/SPI1_MISO*%
X156464000Y-118110000D03*
%TD*%
%TO.P,TP14,1,1*%
%TO.N,UART_RX*%
X153035000Y-107569000D03*
%TD*%
%TO.P,TP4,1,1*%
%TO.N,/SPI1_NSS*%
X152781000Y-119253000D03*
%TD*%
%TO.P,TP9,1,1*%
%TO.N,/ACC_INT2*%
X153543000Y-115951000D03*
%TD*%
D15*
%TO.N,GND*%
X135255000Y-111760000D03*
D16*
X132080000Y-74549000D03*
X131064000Y-75438000D03*
X130048000Y-74549000D03*
X131064000Y-73660000D03*
X127508000Y-78105000D03*
X132080000Y-73660000D03*
X147769500Y-111816000D03*
X149293500Y-112578000D03*
X130048000Y-75438000D03*
X157040500Y-109657000D03*
X130048000Y-71628000D03*
X131064000Y-71628000D03*
X131064000Y-74549000D03*
X136525000Y-70739000D03*
X145102500Y-103942000D03*
X132080000Y-72644000D03*
X156659500Y-113848000D03*
X143256000Y-109855000D03*
X126492000Y-78105000D03*
X132080000Y-71628000D03*
X125476000Y-78105000D03*
X137541000Y-70739000D03*
X131064000Y-76327000D03*
X130048000Y-72644000D03*
X135509000Y-70739000D03*
X142478000Y-97665000D03*
X130048000Y-76327000D03*
X131064000Y-72644000D03*
X132080000Y-75438000D03*
X127381000Y-83312000D03*
X130048000Y-73660000D03*
%TO.N,+3V3*%
X144912000Y-102862500D03*
X152341500Y-113848000D03*
X144383000Y-103634000D03*
X152341500Y-111816000D03*
X152341500Y-109657000D03*
%TO.N,Net-(R7-Pad2)*%
X123317000Y-79375000D03*
X136398000Y-82677000D03*
%TO.N,Net-(R4-Pad1)*%
X125095000Y-84582000D03*
X127635000Y-80645000D03*
D17*
%TO.N,+12V*%
X139065000Y-80772000D03*
X150856000Y-73214000D03*
D16*
%TO.N,Net-(C9-Pad2)*%
X155829000Y-96393000D03*
%TO.N,/SWCLK*%
X139827000Y-82296000D03*
%TO.N,TACKLE_STATUS*%
X164102774Y-97241000D03*
%TO.N,Net-(C9-Pad2)*%
X151910774Y-95717000D03*
%TO.N,/SPI1_SCK*%
X150309500Y-109149000D03*
X144467500Y-106609000D03*
%TO.N,/ACC_INT1*%
X148150500Y-104831000D03*
X151071500Y-108768000D03*
X143256000Y-107950000D03*
X142181500Y-106863000D03*
%TO.N,Net-(SW2-Pad2)*%
X144975500Y-101910000D03*
X141165500Y-105085000D03*
%TD*%
D18*
%TO.N,Net-(F1-Pad2)*%
X161815000Y-81340000D02*
X161813597Y-81338597D01*
D19*
%TO.N,Net-(R7-Pad2)*%
X133096000Y-79375000D02*
X136398000Y-82677000D01*
X123317000Y-79375000D02*
X133096000Y-79375000D01*
%TO.N,Net-(R4-Pad1)*%
X125095000Y-84582000D02*
X127635000Y-82042000D01*
X127635000Y-82042000D02*
X127635000Y-80645000D01*
%TO.N,TACKLE_STATUS*%
X163086774Y-96225000D02*
X164102774Y-97241000D01*
%TO.N,UART_TX*%
X150513774Y-96307340D02*
X151152615Y-95668499D01*
X150513774Y-97368000D02*
X150513774Y-96307340D01*
X163927273Y-95668499D02*
X163975774Y-95717000D01*
%TO.N,/SPI1_SCK*%
X148543989Y-107383489D02*
X145241989Y-107383489D01*
X144467500Y-106609000D02*
X143324500Y-105466000D01*
X150309500Y-109149000D02*
X148543989Y-107383489D01*
X145241989Y-107383489D02*
X144467500Y-106609000D01*
%TO.N,/SPI1_NSS*%
X154881500Y-108133000D02*
X158818500Y-108133000D01*
%TO.N,/SPI1_MISO*%
X155389500Y-103942000D02*
X159834500Y-103942000D01*
%TO.N,/SPI1_MOSI*%
X155516500Y-102799000D02*
X155516500Y-102418000D01*
X155516500Y-102418000D02*
X156532500Y-101402000D01*
%TO.N,/ACC_INT2*%
X156151500Y-106609000D02*
X156659500Y-106101000D01*
%TO.N,/ACC_INT1*%
X151071500Y-108768000D02*
X148150500Y-105847000D01*
X142181500Y-106863000D02*
X142181500Y-107752000D01*
X148150500Y-105847000D02*
X148150500Y-104831000D01*
X142181500Y-107752000D02*
X142943500Y-108514000D01*
%TO.N,UART_RX*%
X154069774Y-98511000D02*
X155212774Y-97368000D01*
%TO.N,Net-(SW2-Pad2)*%
X141165500Y-104196000D02*
X141165500Y-105085000D01*
X143451500Y-101910000D02*
X141165500Y-104196000D01*
X144975500Y-101910000D02*
X143451500Y-101910000D01*
%TD*%
%TA.AperFunction,Conductor*%
%TO.N,GND*%
G36*
X161291967Y-70359500D02*
G01*
X161306768Y-70361805D01*
X161306771Y-70361805D01*
X161315640Y-70363186D01*
X161335536Y-70360584D01*
X161357694Y-70359654D01*
X161679353Y-70374525D01*
X161690942Y-70375599D01*
X162039568Y-70424231D01*
X162051007Y-70426370D01*
X162244398Y-70471855D01*
X162393654Y-70506959D01*
X162404836Y-70510140D01*
X162571720Y-70566074D01*
X162738595Y-70622006D01*
X162749447Y-70626210D01*
X163071457Y-70768391D01*
X163081862Y-70773571D01*
X163389397Y-70944867D01*
X163399274Y-70950983D01*
X163689677Y-71149914D01*
X163698965Y-71156928D01*
X163969775Y-71381806D01*
X163978375Y-71389647D01*
X164227263Y-71638535D01*
X164235104Y-71647135D01*
X164459982Y-71917945D01*
X164466996Y-71927233D01*
X164644731Y-72186693D01*
X164665927Y-72217636D01*
X164672043Y-72227513D01*
X164843339Y-72535048D01*
X164848519Y-72545453D01*
X164990700Y-72867463D01*
X164994904Y-72878315D01*
X165106241Y-73210495D01*
X165106767Y-73212065D01*
X165109952Y-73223260D01*
X165190540Y-73565903D01*
X165192679Y-73577342D01*
X165241311Y-73925968D01*
X165242385Y-73937557D01*
X165256913Y-74251816D01*
X165255548Y-74277015D01*
X165253724Y-74288730D01*
X165254888Y-74297632D01*
X165254888Y-74297635D01*
X165257846Y-74320251D01*
X165258910Y-74336589D01*
X165258910Y-122505672D01*
X165257410Y-122525057D01*
X165255584Y-122536787D01*
X165253724Y-122548730D01*
X165255364Y-122561270D01*
X165256326Y-122568626D01*
X165257256Y-122590784D01*
X165242385Y-122912443D01*
X165241311Y-122924031D01*
X165239150Y-122939523D01*
X165192679Y-123272658D01*
X165190540Y-123284097D01*
X165136284Y-123514784D01*
X165109952Y-123626740D01*
X165106770Y-123637926D01*
X165062120Y-123771141D01*
X164994904Y-123971685D01*
X164990700Y-123982537D01*
X164848519Y-124304547D01*
X164843339Y-124314952D01*
X164672043Y-124622487D01*
X164665928Y-124632363D01*
X164644698Y-124663354D01*
X164466996Y-124922767D01*
X164459982Y-124932055D01*
X164235104Y-125202865D01*
X164227263Y-125211465D01*
X163978375Y-125460353D01*
X163969775Y-125468194D01*
X163698965Y-125693072D01*
X163689677Y-125700086D01*
X163399274Y-125899017D01*
X163389397Y-125905133D01*
X163081862Y-126076429D01*
X163071457Y-126081609D01*
X162749447Y-126223790D01*
X162738595Y-126227994D01*
X162571720Y-126283925D01*
X162404836Y-126339860D01*
X162393654Y-126343041D01*
X162244398Y-126378145D01*
X162051007Y-126423630D01*
X162039568Y-126425769D01*
X161690942Y-126474401D01*
X161679354Y-126475475D01*
X161654301Y-126476633D01*
X161365094Y-126490003D01*
X161339895Y-126488638D01*
X161337052Y-126488195D01*
X161337050Y-126488195D01*
X161328180Y-126486814D01*
X161319278Y-126487978D01*
X161319275Y-126487978D01*
X161296659Y-126490936D01*
X161280321Y-126492000D01*
X125144328Y-126492000D01*
X125124943Y-126490500D01*
X125110142Y-126488195D01*
X125110139Y-126488195D01*
X125101270Y-126486814D01*
X125082105Y-126489320D01*
X125081374Y-126489416D01*
X125059216Y-126490346D01*
X124737557Y-126475475D01*
X124725968Y-126474401D01*
X124377342Y-126425769D01*
X124365903Y-126423630D01*
X124172512Y-126378145D01*
X124023256Y-126343041D01*
X124012074Y-126339860D01*
X123845190Y-126283926D01*
X123678315Y-126227994D01*
X123667463Y-126223790D01*
X123345453Y-126081609D01*
X123335048Y-126076429D01*
X123027513Y-125905133D01*
X123017636Y-125899017D01*
X122727233Y-125700086D01*
X122717945Y-125693072D01*
X122447135Y-125468194D01*
X122438535Y-125460353D01*
X122189647Y-125211465D01*
X122181806Y-125202865D01*
X121956928Y-124932055D01*
X121949914Y-124922767D01*
X121772212Y-124663354D01*
X121750982Y-124632363D01*
X121744867Y-124622487D01*
X121573571Y-124314952D01*
X121568391Y-124304547D01*
X121426210Y-123982537D01*
X121422006Y-123971685D01*
X121354790Y-123771141D01*
X121310140Y-123637926D01*
X121306958Y-123626740D01*
X121280627Y-123514784D01*
X121226370Y-123284097D01*
X121224231Y-123272658D01*
X121177760Y-122939523D01*
X121175599Y-122924031D01*
X121174525Y-122912443D01*
X121164135Y-122687703D01*
X122985743Y-122687703D01*
X122986302Y-122691947D01*
X122986302Y-122691951D01*
X122991499Y-122731425D01*
X123023268Y-122972734D01*
X123099129Y-123250036D01*
X123100813Y-123253984D01*
X123199332Y-123484956D01*
X123211923Y-123514476D01*
X123359561Y-123761161D01*
X123539313Y-123985528D01*
X123747851Y-124183423D01*
X123981317Y-124351186D01*
X123985112Y-124353195D01*
X123985113Y-124353196D01*
X124006869Y-124364715D01*
X124235392Y-124485712D01*
X124505373Y-124584511D01*
X124786264Y-124645755D01*
X124814841Y-124648004D01*
X125009282Y-124663307D01*
X125009291Y-124663307D01*
X125011739Y-124663500D01*
X125167271Y-124663500D01*
X125169407Y-124663354D01*
X125169418Y-124663354D01*
X125377548Y-124649165D01*
X125377554Y-124649164D01*
X125381825Y-124648873D01*
X125386020Y-124648004D01*
X125386022Y-124648004D01*
X125522584Y-124619723D01*
X125663342Y-124590574D01*
X125934343Y-124494607D01*
X126189812Y-124362750D01*
X126193313Y-124360289D01*
X126193317Y-124360287D01*
X126349328Y-124250640D01*
X126425023Y-124197441D01*
X126635622Y-124001740D01*
X126817713Y-123779268D01*
X126967927Y-123534142D01*
X127083483Y-123270898D01*
X127162244Y-122994406D01*
X127172570Y-122921851D01*
X153799719Y-122921851D01*
X153816268Y-123118934D01*
X153817967Y-123124858D01*
X153863628Y-123284097D01*
X153870783Y-123309050D01*
X153961187Y-123484956D01*
X154084035Y-123639953D01*
X154234650Y-123768136D01*
X154407294Y-123864624D01*
X154595392Y-123925740D01*
X154791777Y-123949158D01*
X154797912Y-123948686D01*
X154797914Y-123948686D01*
X154982830Y-123934457D01*
X154982834Y-123934456D01*
X154988972Y-123933984D01*
X155179463Y-123880798D01*
X155184967Y-123878018D01*
X155184969Y-123878017D01*
X155350495Y-123794404D01*
X155350497Y-123794403D01*
X155355996Y-123791625D01*
X155511847Y-123669861D01*
X155641078Y-123520145D01*
X155738769Y-123348179D01*
X155801197Y-123160513D01*
X155825985Y-122964295D01*
X155826380Y-122936000D01*
X155807080Y-122739167D01*
X155799493Y-122714036D01*
X155791542Y-122687703D01*
X159180743Y-122687703D01*
X159181302Y-122691947D01*
X159181302Y-122691951D01*
X159186499Y-122731425D01*
X159218268Y-122972734D01*
X159294129Y-123250036D01*
X159295813Y-123253984D01*
X159394332Y-123484956D01*
X159406923Y-123514476D01*
X159554561Y-123761161D01*
X159734313Y-123985528D01*
X159942851Y-124183423D01*
X160176317Y-124351186D01*
X160180112Y-124353195D01*
X160180113Y-124353196D01*
X160201869Y-124364715D01*
X160430392Y-124485712D01*
X160700373Y-124584511D01*
X160981264Y-124645755D01*
X161009841Y-124648004D01*
X161204282Y-124663307D01*
X161204291Y-124663307D01*
X161206739Y-124663500D01*
X161362271Y-124663500D01*
X161364407Y-124663354D01*
X161364418Y-124663354D01*
X161572548Y-124649165D01*
X161572554Y-124649164D01*
X161576825Y-124648873D01*
X161581020Y-124648004D01*
X161581022Y-124648004D01*
X161717584Y-124619723D01*
X161858342Y-124590574D01*
X162129343Y-124494607D01*
X162384812Y-124362750D01*
X162388313Y-124360289D01*
X162388317Y-124360287D01*
X162544328Y-124250640D01*
X162620023Y-124197441D01*
X162830622Y-124001740D01*
X163012713Y-123779268D01*
X163162927Y-123534142D01*
X163278483Y-123270898D01*
X163357244Y-122994406D01*
X163397751Y-122709784D01*
X163397845Y-122691951D01*
X163399235Y-122426583D01*
X163399235Y-122426576D01*
X163399257Y-122422297D01*
X163393774Y-122380645D01*
X163372362Y-122218009D01*
X163361732Y-122137266D01*
X163285871Y-121859964D01*
X163173077Y-121595524D01*
X163025439Y-121348839D01*
X162845687Y-121124472D01*
X162637149Y-120926577D01*
X162403683Y-120758814D01*
X162381843Y-120747250D01*
X162358654Y-120734972D01*
X162149608Y-120624288D01*
X161879627Y-120525489D01*
X161598736Y-120464245D01*
X161567685Y-120461801D01*
X161375718Y-120446693D01*
X161375709Y-120446693D01*
X161373261Y-120446500D01*
X161217729Y-120446500D01*
X161215593Y-120446646D01*
X161215582Y-120446646D01*
X161007452Y-120460835D01*
X161007446Y-120460836D01*
X161003175Y-120461127D01*
X160998980Y-120461996D01*
X160998978Y-120461996D01*
X160862416Y-120490277D01*
X160721658Y-120519426D01*
X160450657Y-120615393D01*
X160195188Y-120747250D01*
X160191687Y-120749711D01*
X160191683Y-120749713D01*
X160181594Y-120756804D01*
X159959977Y-120912559D01*
X159749378Y-121108260D01*
X159567287Y-121330732D01*
X159417073Y-121575858D01*
X159301517Y-121839102D01*
X159222756Y-122115594D01*
X159182249Y-122400216D01*
X159182227Y-122404505D01*
X159182226Y-122404512D01*
X159180765Y-122683417D01*
X159180743Y-122687703D01*
X155791542Y-122687703D01*
X155783162Y-122659947D01*
X155749916Y-122549831D01*
X155657066Y-122375204D01*
X155586709Y-122288938D01*
X155535960Y-122226713D01*
X155535957Y-122226710D01*
X155532065Y-122221938D01*
X155525724Y-122216692D01*
X155384425Y-122099799D01*
X155384421Y-122099797D01*
X155379675Y-122095870D01*
X155205701Y-122001802D01*
X155016768Y-121943318D01*
X155010643Y-121942674D01*
X155010642Y-121942674D01*
X154826204Y-121923289D01*
X154826202Y-121923289D01*
X154820075Y-121922645D01*
X154737576Y-121930153D01*
X154629251Y-121940011D01*
X154629248Y-121940012D01*
X154623112Y-121940570D01*
X154617206Y-121942308D01*
X154617202Y-121942309D01*
X154512076Y-121973249D01*
X154433381Y-121996410D01*
X154427923Y-121999263D01*
X154427919Y-121999265D01*
X154337147Y-122046720D01*
X154258110Y-122088040D01*
X154103975Y-122211968D01*
X153976846Y-122363474D01*
X153973879Y-122368872D01*
X153973875Y-122368877D01*
X153895095Y-122512180D01*
X153881567Y-122536787D01*
X153879706Y-122542654D01*
X153879705Y-122542656D01*
X153835053Y-122683417D01*
X153821765Y-122725306D01*
X153799719Y-122921851D01*
X127172570Y-122921851D01*
X127202751Y-122709784D01*
X127202845Y-122691951D01*
X127204235Y-122426583D01*
X127204235Y-122426576D01*
X127204257Y-122422297D01*
X127198774Y-122380645D01*
X127177362Y-122218009D01*
X127166732Y-122137266D01*
X127090871Y-121859964D01*
X126978077Y-121595524D01*
X126830439Y-121348839D01*
X126650687Y-121124472D01*
X126442149Y-120926577D01*
X126208683Y-120758814D01*
X126186843Y-120747250D01*
X126163654Y-120734972D01*
X125954608Y-120624288D01*
X125684627Y-120525489D01*
X125403736Y-120464245D01*
X125372685Y-120461801D01*
X125180718Y-120446693D01*
X125180709Y-120446693D01*
X125178261Y-120446500D01*
X125022729Y-120446500D01*
X125020593Y-120446646D01*
X125020582Y-120446646D01*
X124812452Y-120460835D01*
X124812446Y-120460836D01*
X124808175Y-120461127D01*
X124803980Y-120461996D01*
X124803978Y-120461996D01*
X124667416Y-120490277D01*
X124526658Y-120519426D01*
X124255657Y-120615393D01*
X124000188Y-120747250D01*
X123996687Y-120749711D01*
X123996683Y-120749713D01*
X123986594Y-120756804D01*
X123764977Y-120912559D01*
X123554378Y-121108260D01*
X123372287Y-121330732D01*
X123222073Y-121575858D01*
X123106517Y-121839102D01*
X123027756Y-122115594D01*
X122987249Y-122400216D01*
X122987227Y-122404505D01*
X122987226Y-122404512D01*
X122985765Y-122683417D01*
X122985743Y-122687703D01*
X121164135Y-122687703D01*
X121159997Y-122598184D01*
X121161362Y-122572985D01*
X121161805Y-122570142D01*
X121161805Y-122570140D01*
X121163186Y-122561270D01*
X121161691Y-122549831D01*
X121159064Y-122529749D01*
X121158000Y-122513411D01*
X121158000Y-119238851D01*
X151767719Y-119238851D01*
X151784268Y-119435934D01*
X151838783Y-119626050D01*
X151929187Y-119801956D01*
X152052035Y-119956953D01*
X152202650Y-120085136D01*
X152375294Y-120181624D01*
X152563392Y-120242740D01*
X152759777Y-120266158D01*
X152765912Y-120265686D01*
X152765914Y-120265686D01*
X152950830Y-120251457D01*
X152950834Y-120251456D01*
X152956972Y-120250984D01*
X153147463Y-120197798D01*
X153152967Y-120195018D01*
X153152969Y-120195017D01*
X153318495Y-120111404D01*
X153318497Y-120111403D01*
X153323996Y-120108625D01*
X153479847Y-119986861D01*
X153609078Y-119837145D01*
X153706769Y-119665179D01*
X153769197Y-119477513D01*
X153793985Y-119281295D01*
X153794380Y-119253000D01*
X153775080Y-119056167D01*
X153769784Y-119038624D01*
X153735483Y-118925017D01*
X153717916Y-118866831D01*
X153625066Y-118692204D01*
X153554709Y-118605938D01*
X153503960Y-118543713D01*
X153503957Y-118543710D01*
X153500065Y-118538938D01*
X153493724Y-118533692D01*
X153352425Y-118416799D01*
X153352421Y-118416797D01*
X153347675Y-118412870D01*
X153173701Y-118318802D01*
X152984768Y-118260318D01*
X152978643Y-118259674D01*
X152978642Y-118259674D01*
X152794204Y-118240289D01*
X152794202Y-118240289D01*
X152788075Y-118239645D01*
X152705576Y-118247153D01*
X152597251Y-118257011D01*
X152597248Y-118257012D01*
X152591112Y-118257570D01*
X152585206Y-118259308D01*
X152585202Y-118259309D01*
X152491819Y-118286793D01*
X152401381Y-118313410D01*
X152395923Y-118316263D01*
X152395919Y-118316265D01*
X152349821Y-118340365D01*
X152226110Y-118405040D01*
X152071975Y-118528968D01*
X151944846Y-118680474D01*
X151941879Y-118685872D01*
X151941875Y-118685877D01*
X151869163Y-118818141D01*
X151849567Y-118853787D01*
X151847706Y-118859654D01*
X151847705Y-118859656D01*
X151791627Y-119036436D01*
X151789765Y-119042306D01*
X151767719Y-119238851D01*
X121158000Y-119238851D01*
X121158000Y-118095851D01*
X155450719Y-118095851D01*
X155451235Y-118101995D01*
X155464445Y-118259309D01*
X155467268Y-118292934D01*
X155473958Y-118316265D01*
X155500522Y-118408903D01*
X155521783Y-118483050D01*
X155612187Y-118658956D01*
X155735035Y-118813953D01*
X155739728Y-118817947D01*
X155739729Y-118817948D01*
X155852036Y-118913528D01*
X155885650Y-118942136D01*
X156058294Y-119038624D01*
X156246392Y-119099740D01*
X156442777Y-119123158D01*
X156448912Y-119122686D01*
X156448914Y-119122686D01*
X156633830Y-119108457D01*
X156633834Y-119108456D01*
X156639972Y-119107984D01*
X156830463Y-119054798D01*
X156835967Y-119052018D01*
X156835969Y-119052017D01*
X157001495Y-118968404D01*
X157001497Y-118968403D01*
X157006996Y-118965625D01*
X157162847Y-118843861D01*
X157292078Y-118694145D01*
X157389769Y-118522179D01*
X157452197Y-118334513D01*
X157476985Y-118138295D01*
X157477380Y-118110000D01*
X157463540Y-117968851D01*
X162816719Y-117968851D01*
X162833268Y-118165934D01*
X162887783Y-118356050D01*
X162890602Y-118361535D01*
X162974666Y-118525104D01*
X162978187Y-118531956D01*
X163101035Y-118686953D01*
X163105728Y-118690947D01*
X163105729Y-118690948D01*
X163109486Y-118694145D01*
X163251650Y-118815136D01*
X163424294Y-118911624D01*
X163612392Y-118972740D01*
X163808777Y-118996158D01*
X163814912Y-118995686D01*
X163814914Y-118995686D01*
X163999830Y-118981457D01*
X163999834Y-118981456D01*
X164005972Y-118980984D01*
X164196463Y-118927798D01*
X164201967Y-118925018D01*
X164201969Y-118925017D01*
X164367495Y-118841404D01*
X164367497Y-118841403D01*
X164372996Y-118838625D01*
X164528847Y-118716861D01*
X164658078Y-118567145D01*
X164755769Y-118395179D01*
X164818197Y-118207513D01*
X164842985Y-118011295D01*
X164843380Y-117983000D01*
X164824080Y-117786167D01*
X164803618Y-117718392D01*
X164768697Y-117602731D01*
X164766916Y-117596831D01*
X164674066Y-117422204D01*
X164553030Y-117273799D01*
X164552960Y-117273713D01*
X164552957Y-117273710D01*
X164549065Y-117268938D01*
X164542724Y-117263692D01*
X164401425Y-117146799D01*
X164401421Y-117146797D01*
X164396675Y-117142870D01*
X164222701Y-117048802D01*
X164033768Y-116990318D01*
X164027643Y-116989674D01*
X164027642Y-116989674D01*
X163843204Y-116970289D01*
X163843202Y-116970289D01*
X163837075Y-116969645D01*
X163754576Y-116977153D01*
X163646251Y-116987011D01*
X163646248Y-116987012D01*
X163640112Y-116987570D01*
X163634206Y-116989308D01*
X163634202Y-116989309D01*
X163529076Y-117020249D01*
X163450381Y-117043410D01*
X163444923Y-117046263D01*
X163444919Y-117046265D01*
X163354147Y-117093720D01*
X163275110Y-117135040D01*
X163120975Y-117258968D01*
X163117011Y-117263692D01*
X163113960Y-117267328D01*
X162993846Y-117410474D01*
X162990879Y-117415872D01*
X162990875Y-117415877D01*
X162987397Y-117422204D01*
X162898567Y-117583787D01*
X162896706Y-117589654D01*
X162896705Y-117589656D01*
X162854142Y-117723831D01*
X162838765Y-117772306D01*
X162816719Y-117968851D01*
X157463540Y-117968851D01*
X157458080Y-117913167D01*
X157400916Y-117723831D01*
X157308066Y-117549204D01*
X157199327Y-117415877D01*
X157186960Y-117400713D01*
X157186957Y-117400710D01*
X157183065Y-117395938D01*
X157176724Y-117390692D01*
X157035425Y-117273799D01*
X157035421Y-117273797D01*
X157030675Y-117269870D01*
X156856701Y-117175802D01*
X156667768Y-117117318D01*
X156661643Y-117116674D01*
X156661642Y-117116674D01*
X156477204Y-117097289D01*
X156477202Y-117097289D01*
X156471075Y-117096645D01*
X156391345Y-117103901D01*
X156280251Y-117114011D01*
X156280248Y-117114012D01*
X156274112Y-117114570D01*
X156268206Y-117116308D01*
X156268202Y-117116309D01*
X156191434Y-117138903D01*
X156084381Y-117170410D01*
X156078923Y-117173263D01*
X156078919Y-117173265D01*
X155988147Y-117220720D01*
X155909110Y-117262040D01*
X155754975Y-117385968D01*
X155627846Y-117537474D01*
X155624879Y-117542872D01*
X155624875Y-117542877D01*
X155546095Y-117686180D01*
X155532567Y-117710787D01*
X155530706Y-117716654D01*
X155530705Y-117716656D01*
X155508655Y-117786167D01*
X155472765Y-117899306D01*
X155450719Y-118095851D01*
X121158000Y-118095851D01*
X121158000Y-116558095D01*
X122952001Y-116558095D01*
X122952338Y-116564614D01*
X122962257Y-116660206D01*
X122965149Y-116673600D01*
X123016588Y-116827784D01*
X123022761Y-116840962D01*
X123108063Y-116978807D01*
X123117099Y-116990208D01*
X123231829Y-117104739D01*
X123243240Y-117113751D01*
X123381243Y-117198816D01*
X123394424Y-117204963D01*
X123548710Y-117256138D01*
X123562086Y-117259005D01*
X123656438Y-117268672D01*
X123662854Y-117269000D01*
X124187885Y-117269000D01*
X124203124Y-117264525D01*
X124204329Y-117263135D01*
X124206000Y-117255452D01*
X124206000Y-117250884D01*
X124714000Y-117250884D01*
X124718475Y-117266123D01*
X124719865Y-117267328D01*
X124727548Y-117268999D01*
X125257095Y-117268999D01*
X125263614Y-117268662D01*
X125359206Y-117258743D01*
X125372600Y-117255851D01*
X125526784Y-117204412D01*
X125539962Y-117198239D01*
X125677807Y-117112937D01*
X125689208Y-117103901D01*
X125803739Y-116989171D01*
X125812751Y-116977760D01*
X125897816Y-116839757D01*
X125903963Y-116826576D01*
X125955138Y-116672290D01*
X125958005Y-116658914D01*
X125967672Y-116564562D01*
X125968000Y-116558146D01*
X125968000Y-116183115D01*
X125963525Y-116167876D01*
X125962135Y-116166671D01*
X125954452Y-116165000D01*
X124732115Y-116165000D01*
X124716876Y-116169475D01*
X124715671Y-116170865D01*
X124714000Y-116178548D01*
X124714000Y-117250884D01*
X124206000Y-117250884D01*
X124206000Y-116183115D01*
X124201525Y-116167876D01*
X124200135Y-116166671D01*
X124192452Y-116165000D01*
X122970116Y-116165000D01*
X122954877Y-116169475D01*
X122953672Y-116170865D01*
X122952001Y-116178548D01*
X122952001Y-116558095D01*
X121158000Y-116558095D01*
X121158000Y-115936851D01*
X152529719Y-115936851D01*
X152546268Y-116133934D01*
X152600783Y-116324050D01*
X152691187Y-116499956D01*
X152814035Y-116654953D01*
X152964650Y-116783136D01*
X153137294Y-116879624D01*
X153325392Y-116940740D01*
X153521777Y-116964158D01*
X153527912Y-116963686D01*
X153527914Y-116963686D01*
X153712830Y-116949457D01*
X153712834Y-116949456D01*
X153718972Y-116948984D01*
X153909463Y-116895798D01*
X153914967Y-116893018D01*
X153914969Y-116893017D01*
X154080495Y-116809404D01*
X154080497Y-116809403D01*
X154085996Y-116806625D01*
X154241847Y-116684861D01*
X154371078Y-116535145D01*
X154468769Y-116363179D01*
X154531197Y-116175513D01*
X154555985Y-115979295D01*
X154556380Y-115951000D01*
X154537080Y-115754167D01*
X154479916Y-115564831D01*
X154387066Y-115390204D01*
X154284018Y-115263855D01*
X154265960Y-115241713D01*
X154265957Y-115241710D01*
X154262065Y-115236938D01*
X154255724Y-115231692D01*
X154114425Y-115114799D01*
X154114421Y-115114797D01*
X154109675Y-115110870D01*
X153935701Y-115016802D01*
X153746768Y-114958318D01*
X153740643Y-114957674D01*
X153740642Y-114957674D01*
X153556204Y-114938289D01*
X153556202Y-114938289D01*
X153550075Y-114937645D01*
X153467576Y-114945153D01*
X153359251Y-114955011D01*
X153359248Y-114955012D01*
X153353112Y-114955570D01*
X153347206Y-114957308D01*
X153347202Y-114957309D01*
X153242076Y-114988249D01*
X153163381Y-115011410D01*
X153157923Y-115014263D01*
X153157919Y-115014265D01*
X153067147Y-115061720D01*
X152988110Y-115103040D01*
X152833975Y-115226968D01*
X152706846Y-115378474D01*
X152703879Y-115383872D01*
X152703875Y-115383877D01*
X152700397Y-115390204D01*
X152611567Y-115551787D01*
X152609706Y-115557654D01*
X152609705Y-115557656D01*
X152583938Y-115638885D01*
X152551765Y-115740306D01*
X152529719Y-115936851D01*
X121158000Y-115936851D01*
X121158000Y-113346774D01*
X122948102Y-113346774D01*
X122948302Y-113352103D01*
X122948302Y-113352105D01*
X122949344Y-113379854D01*
X122956751Y-113577158D01*
X123004093Y-113802791D01*
X123006051Y-113807750D01*
X123006052Y-113807752D01*
X123084621Y-114006699D01*
X123088776Y-114017221D01*
X123208377Y-114214317D01*
X123211874Y-114218347D01*
X123316258Y-114338639D01*
X123359477Y-114388445D01*
X123363608Y-114391832D01*
X123395529Y-114418006D01*
X123435524Y-114476666D01*
X123437455Y-114547636D01*
X123400710Y-114608384D01*
X123381941Y-114622584D01*
X123242193Y-114709063D01*
X123230792Y-114718099D01*
X123116261Y-114832829D01*
X123107249Y-114844240D01*
X123022184Y-114982243D01*
X123016037Y-114995424D01*
X122964862Y-115149710D01*
X122961995Y-115163086D01*
X122952328Y-115257438D01*
X122952000Y-115263855D01*
X122952000Y-115638885D01*
X122956475Y-115654124D01*
X122957865Y-115655329D01*
X122965548Y-115657000D01*
X125949884Y-115657000D01*
X125965123Y-115652525D01*
X125966328Y-115651135D01*
X125967999Y-115643452D01*
X125967999Y-115263905D01*
X125967662Y-115257386D01*
X125957743Y-115161794D01*
X125954851Y-115148400D01*
X125903412Y-114994216D01*
X125897239Y-114981038D01*
X125811937Y-114843193D01*
X125802901Y-114831792D01*
X125688171Y-114717261D01*
X125676757Y-114708247D01*
X125537287Y-114622277D01*
X125489793Y-114569505D01*
X125478369Y-114499434D01*
X125506643Y-114434310D01*
X125516430Y-114423847D01*
X125549991Y-114391832D01*
X125631135Y-114314424D01*
X125768754Y-114129458D01*
X125873240Y-113923949D01*
X125900133Y-113837343D01*
X151578275Y-113837343D01*
X151594881Y-114006699D01*
X151648594Y-114168167D01*
X151652241Y-114174189D01*
X151652242Y-114174191D01*
X151665997Y-114196902D01*
X151736746Y-114313723D01*
X151854955Y-114436132D01*
X151997346Y-114529310D01*
X152003950Y-114531766D01*
X152003952Y-114531767D01*
X152040344Y-114545301D01*
X152156841Y-114588626D01*
X152325515Y-114611132D01*
X152332526Y-114610494D01*
X152332530Y-114610494D01*
X152487962Y-114596348D01*
X152494983Y-114595709D01*
X152501685Y-114593531D01*
X152501687Y-114593531D01*
X152650123Y-114545301D01*
X152650126Y-114545300D01*
X152656822Y-114543124D01*
X152802990Y-114455990D01*
X152808084Y-114451139D01*
X152808088Y-114451136D01*
X152878154Y-114384412D01*
X152926221Y-114338639D01*
X152942310Y-114314424D01*
X153016490Y-114202773D01*
X153020391Y-114196902D01*
X153080819Y-114037825D01*
X153083074Y-114021783D01*
X153096154Y-113928704D01*
X153104501Y-113869313D01*
X153104799Y-113848000D01*
X153085831Y-113678892D01*
X153029868Y-113518189D01*
X153023883Y-113508610D01*
X152999690Y-113469895D01*
X152939692Y-113373879D01*
X152819786Y-113253132D01*
X152803539Y-113242821D01*
X152733744Y-113198528D01*
X152676108Y-113161951D01*
X152515800Y-113104868D01*
X152346829Y-113084720D01*
X152339826Y-113085456D01*
X152339825Y-113085456D01*
X152184601Y-113101770D01*
X152184597Y-113101771D01*
X152177593Y-113102507D01*
X152170922Y-113104778D01*
X152023173Y-113155075D01*
X152023170Y-113155076D01*
X152016503Y-113157346D01*
X152010505Y-113161036D01*
X152010503Y-113161037D01*
X151877565Y-113242821D01*
X151877563Y-113242823D01*
X151871566Y-113246512D01*
X151836669Y-113280686D01*
X151774580Y-113341489D01*
X151749986Y-113365573D01*
X151657804Y-113508610D01*
X151599603Y-113668516D01*
X151578275Y-113837343D01*
X125900133Y-113837343D01*
X125909321Y-113807752D01*
X125940024Y-113708871D01*
X125941607Y-113703773D01*
X125947157Y-113661897D01*
X125971198Y-113480511D01*
X125971198Y-113480506D01*
X125971898Y-113475226D01*
X125963249Y-113244842D01*
X125915907Y-113019209D01*
X125907214Y-112997197D01*
X125833185Y-112809744D01*
X125833184Y-112809742D01*
X125831224Y-112804779D01*
X125711623Y-112607683D01*
X125674019Y-112564348D01*
X125564023Y-112437588D01*
X125564021Y-112437586D01*
X125560523Y-112433555D01*
X125518458Y-112399064D01*
X125386373Y-112290760D01*
X125386367Y-112290756D01*
X125382245Y-112287376D01*
X125377609Y-112284737D01*
X125377606Y-112284735D01*
X125186529Y-112175968D01*
X125181886Y-112173325D01*
X124965175Y-112094663D01*
X124959926Y-112093714D01*
X124959923Y-112093713D01*
X124742392Y-112054377D01*
X124742385Y-112054376D01*
X124738308Y-112053639D01*
X124720586Y-112052803D01*
X124715644Y-112052570D01*
X124715637Y-112052570D01*
X124714156Y-112052500D01*
X124252110Y-112052500D01*
X124195470Y-112057306D01*
X124085591Y-112066629D01*
X124085587Y-112066630D01*
X124080280Y-112067080D01*
X124075125Y-112068418D01*
X124075119Y-112068419D01*
X123862297Y-112123657D01*
X123862293Y-112123658D01*
X123857128Y-112124999D01*
X123852262Y-112127191D01*
X123852259Y-112127192D01*
X123743980Y-112175968D01*
X123646925Y-112219688D01*
X123455681Y-112348441D01*
X123451824Y-112352120D01*
X123451822Y-112352122D01*
X123397302Y-112404132D01*
X123288865Y-112507576D01*
X123151246Y-112692542D01*
X123046760Y-112898051D01*
X123045178Y-112903145D01*
X123045177Y-112903148D01*
X122988797Y-113084720D01*
X122978393Y-113118227D01*
X122977692Y-113123516D01*
X122956799Y-113281158D01*
X122948102Y-113346774D01*
X121158000Y-113346774D01*
X121158000Y-111805343D01*
X151578275Y-111805343D01*
X151594881Y-111974699D01*
X151648594Y-112136167D01*
X151652241Y-112142189D01*
X151652242Y-112142191D01*
X151730569Y-112271523D01*
X151736746Y-112281723D01*
X151854955Y-112404132D01*
X151997346Y-112497310D01*
X152003950Y-112499766D01*
X152003952Y-112499767D01*
X152036453Y-112511854D01*
X152156841Y-112556626D01*
X152325515Y-112579132D01*
X152332526Y-112578494D01*
X152332530Y-112578494D01*
X152487962Y-112564348D01*
X152494983Y-112563709D01*
X152501685Y-112561531D01*
X152501687Y-112561531D01*
X152650123Y-112513301D01*
X152650126Y-112513300D01*
X152656822Y-112511124D01*
X152802990Y-112423990D01*
X152808084Y-112419139D01*
X152808088Y-112419136D01*
X152885454Y-112345461D01*
X152926221Y-112306639D01*
X152930766Y-112299799D01*
X152961293Y-112253851D01*
X154053719Y-112253851D01*
X154054235Y-112259995D01*
X154068809Y-112433555D01*
X154070268Y-112450934D01*
X154092906Y-112529881D01*
X154116523Y-112612243D01*
X154124783Y-112641050D01*
X154127602Y-112646535D01*
X154211481Y-112809744D01*
X154215187Y-112816956D01*
X154338035Y-112971953D01*
X154342728Y-112975947D01*
X154342729Y-112975948D01*
X154387732Y-113014248D01*
X154488650Y-113100136D01*
X154661294Y-113196624D01*
X154849392Y-113257740D01*
X155045777Y-113281158D01*
X155051912Y-113280686D01*
X155051914Y-113280686D01*
X155236830Y-113266457D01*
X155236834Y-113266456D01*
X155242972Y-113265984D01*
X155433463Y-113212798D01*
X155438967Y-113210018D01*
X155438969Y-113210017D01*
X155604495Y-113126404D01*
X155604497Y-113126403D01*
X155609996Y-113123625D01*
X155765847Y-113001861D01*
X155895078Y-112852145D01*
X155992769Y-112680179D01*
X156055197Y-112492513D01*
X156079985Y-112296295D01*
X156080380Y-112268000D01*
X156061080Y-112071167D01*
X156003916Y-111881831D01*
X155911066Y-111707204D01*
X155840709Y-111620938D01*
X155789960Y-111558713D01*
X155789957Y-111558710D01*
X155786065Y-111553938D01*
X155779724Y-111548692D01*
X155638425Y-111431799D01*
X155638421Y-111431797D01*
X155633675Y-111427870D01*
X155459701Y-111333802D01*
X155270768Y-111275318D01*
X155264643Y-111274674D01*
X155264642Y-111274674D01*
X155080204Y-111255289D01*
X155080202Y-111255289D01*
X155074075Y-111254645D01*
X154991576Y-111262153D01*
X154883251Y-111272011D01*
X154883248Y-111272012D01*
X154877112Y-111272570D01*
X154871206Y-111274308D01*
X154871202Y-111274309D01*
X154766076Y-111305249D01*
X154687381Y-111328410D01*
X154681923Y-111331263D01*
X154681919Y-111331265D01*
X154661617Y-111341879D01*
X154512110Y-111420040D01*
X154357975Y-111543968D01*
X154230846Y-111695474D01*
X154227879Y-111700872D01*
X154227875Y-111700877D01*
X154164587Y-111816000D01*
X154135567Y-111868787D01*
X154133706Y-111874654D01*
X154133705Y-111874656D01*
X154099849Y-111981385D01*
X154075765Y-112057306D01*
X154053719Y-112253851D01*
X152961293Y-112253851D01*
X152983991Y-112219688D01*
X153020391Y-112164902D01*
X153080819Y-112005825D01*
X153104501Y-111837313D01*
X153104799Y-111816000D01*
X153085831Y-111646892D01*
X153029868Y-111486189D01*
X153023883Y-111476610D01*
X152986750Y-111417187D01*
X152939692Y-111341879D01*
X152819786Y-111221132D01*
X152803539Y-111210821D01*
X152764906Y-111186304D01*
X152676108Y-111129951D01*
X152515800Y-111072868D01*
X152346829Y-111052720D01*
X152339826Y-111053456D01*
X152339825Y-111053456D01*
X152184601Y-111069770D01*
X152184597Y-111069771D01*
X152177593Y-111070507D01*
X152170922Y-111072778D01*
X152023173Y-111123075D01*
X152023170Y-111123076D01*
X152016503Y-111125346D01*
X152010505Y-111129036D01*
X152010503Y-111129037D01*
X151877565Y-111210821D01*
X151877563Y-111210823D01*
X151871566Y-111214512D01*
X151749986Y-111333573D01*
X151746175Y-111339487D01*
X151746173Y-111339489D01*
X151691104Y-111424939D01*
X151657804Y-111476610D01*
X151599603Y-111636516D01*
X151578275Y-111805343D01*
X121158000Y-111805343D01*
X121158000Y-106852343D01*
X141418275Y-106852343D01*
X141434881Y-107021699D01*
X141437105Y-107028384D01*
X141437105Y-107028385D01*
X141440254Y-107037851D01*
X141488594Y-107183167D01*
X141492243Y-107189192D01*
X141527776Y-107247864D01*
X141546000Y-107313136D01*
X141546000Y-107672980D01*
X141545470Y-107684214D01*
X141543792Y-107691719D01*
X141544041Y-107699638D01*
X141545938Y-107760012D01*
X141546000Y-107763969D01*
X141546000Y-107791983D01*
X141546496Y-107795908D01*
X141546496Y-107795909D01*
X141546508Y-107796004D01*
X141547441Y-107807849D01*
X141548835Y-107852205D01*
X141553211Y-107867266D01*
X141554513Y-107871748D01*
X141558523Y-107891112D01*
X141561073Y-107911299D01*
X141563989Y-107918663D01*
X141563990Y-107918668D01*
X141577407Y-107952556D01*
X141581252Y-107963785D01*
X141586098Y-107980465D01*
X141593631Y-108006393D01*
X141597669Y-108013220D01*
X141597670Y-108013223D01*
X141603988Y-108023906D01*
X141612688Y-108041664D01*
X141617261Y-108053215D01*
X141617265Y-108053221D01*
X141620181Y-108060588D01*
X141624839Y-108066999D01*
X141624840Y-108067001D01*
X141646264Y-108096488D01*
X141652781Y-108106410D01*
X141671326Y-108137768D01*
X141671329Y-108137772D01*
X141675366Y-108144598D01*
X141689750Y-108158982D01*
X141702591Y-108174016D01*
X141714558Y-108190487D01*
X141746764Y-108217130D01*
X141748750Y-108218773D01*
X141757531Y-108226763D01*
X142522406Y-108991639D01*
X142617433Y-109065350D01*
X142624706Y-109068497D01*
X142624709Y-109068499D01*
X142703106Y-109102424D01*
X142764792Y-109129117D01*
X142923379Y-109154235D01*
X142952446Y-109151487D01*
X143075344Y-109139870D01*
X143075347Y-109139869D01*
X143083232Y-109139124D01*
X143090686Y-109136441D01*
X143090688Y-109136440D01*
X143226846Y-109087420D01*
X143234304Y-109084735D01*
X143367104Y-108994485D01*
X143372349Y-108988536D01*
X143372351Y-108988534D01*
X143468045Y-108879989D01*
X143473287Y-108874043D01*
X143514468Y-108793221D01*
X143542583Y-108738043D01*
X143542584Y-108738041D01*
X143546182Y-108730979D01*
X143547911Y-108723242D01*
X143547914Y-108723235D01*
X143552622Y-108702173D01*
X143587002Y-108640056D01*
X143611069Y-108621430D01*
X143711444Y-108561594D01*
X143717490Y-108557990D01*
X143722584Y-108553139D01*
X143722588Y-108553136D01*
X143810886Y-108469050D01*
X143840721Y-108440639D01*
X143846320Y-108432213D01*
X143887806Y-108369770D01*
X143934891Y-108298902D01*
X143995319Y-108139825D01*
X144019001Y-107971313D01*
X144019299Y-107950000D01*
X144000331Y-107780892D01*
X143978872Y-107719269D01*
X143972035Y-107699638D01*
X143944368Y-107620189D01*
X143930530Y-107598043D01*
X143876500Y-107511579D01*
X143854192Y-107475879D01*
X143734286Y-107355132D01*
X143590608Y-107263951D01*
X143430300Y-107206868D01*
X143261329Y-107186720D01*
X143254326Y-107187456D01*
X143254325Y-107187456D01*
X143099101Y-107203770D01*
X143099097Y-107203771D01*
X143092093Y-107204507D01*
X143085421Y-107206778D01*
X143085418Y-107206779D01*
X143081449Y-107208130D01*
X143078751Y-107208245D01*
X143078545Y-107208290D01*
X143078537Y-107208254D01*
X143010516Y-107211147D01*
X142949213Y-107175337D01*
X142917002Y-107112067D01*
X142918782Y-107058188D01*
X142920819Y-107052825D01*
X142922924Y-107037851D01*
X142932292Y-106971186D01*
X142944501Y-106884313D01*
X142944799Y-106863000D01*
X142925831Y-106693892D01*
X142920186Y-106677680D01*
X142883930Y-106573570D01*
X142869868Y-106533189D01*
X142864689Y-106524900D01*
X142811569Y-106439892D01*
X142779692Y-106388879D01*
X142659786Y-106268132D01*
X142643539Y-106257821D01*
X142554649Y-106201410D01*
X142516108Y-106176951D01*
X142355800Y-106119868D01*
X142186829Y-106099720D01*
X142179826Y-106100456D01*
X142179825Y-106100456D01*
X142024601Y-106116770D01*
X142024597Y-106116771D01*
X142017593Y-106117507D01*
X142010922Y-106119778D01*
X141863173Y-106170075D01*
X141863170Y-106170076D01*
X141856503Y-106172346D01*
X141850505Y-106176036D01*
X141850503Y-106176037D01*
X141717565Y-106257821D01*
X141717563Y-106257823D01*
X141711566Y-106261512D01*
X141589986Y-106380573D01*
X141586175Y-106386487D01*
X141586173Y-106386489D01*
X141505396Y-106511829D01*
X141497804Y-106523610D01*
X141439603Y-106683516D01*
X141418275Y-106852343D01*
X121158000Y-106852343D01*
X121158000Y-105074343D01*
X140402275Y-105074343D01*
X140418881Y-105243699D01*
X140421105Y-105250384D01*
X140421105Y-105250385D01*
X140441304Y-105311105D01*
X140472594Y-105405167D01*
X140476241Y-105411189D01*
X140476242Y-105411191D01*
X140549151Y-105531577D01*
X140560746Y-105550723D01*
X140678955Y-105673132D01*
X140684851Y-105676990D01*
X140806465Y-105756572D01*
X140821346Y-105766310D01*
X140827950Y-105768766D01*
X140827952Y-105768767D01*
X140864344Y-105782301D01*
X140980841Y-105825626D01*
X141149515Y-105848132D01*
X141156526Y-105847494D01*
X141156530Y-105847494D01*
X141311962Y-105833348D01*
X141318983Y-105832709D01*
X141325685Y-105830531D01*
X141325687Y-105830531D01*
X141474123Y-105782301D01*
X141474126Y-105782300D01*
X141480822Y-105780124D01*
X141626990Y-105692990D01*
X141632084Y-105688139D01*
X141632088Y-105688136D01*
X141702932Y-105620672D01*
X141750221Y-105575639D01*
X141761755Y-105558280D01*
X141821513Y-105468336D01*
X141844391Y-105433902D01*
X141855097Y-105405719D01*
X142686792Y-105405719D01*
X142691835Y-105566205D01*
X142694047Y-105573817D01*
X142694047Y-105573820D01*
X142734419Y-105712780D01*
X142736631Y-105720393D01*
X142818366Y-105858598D01*
X142823972Y-105864204D01*
X143696538Y-106736771D01*
X143727000Y-106786094D01*
X143774594Y-106929167D01*
X143778241Y-106935189D01*
X143778242Y-106935191D01*
X143855615Y-107062948D01*
X143862746Y-107074723D01*
X143980955Y-107197132D01*
X144002372Y-107211147D01*
X144104466Y-107277955D01*
X144123346Y-107290310D01*
X144129950Y-107292766D01*
X144129952Y-107292767D01*
X144276231Y-107347168D01*
X144276233Y-107347169D01*
X144282841Y-107349626D01*
X144284998Y-107349914D01*
X144341843Y-107382075D01*
X144542391Y-107582624D01*
X144736744Y-107776977D01*
X144744314Y-107785296D01*
X144748436Y-107791792D01*
X144754214Y-107797218D01*
X144754215Y-107797219D01*
X144798254Y-107838574D01*
X144801096Y-107841329D01*
X144820895Y-107861128D01*
X144824020Y-107863552D01*
X144824029Y-107863560D01*
X144824115Y-107863626D01*
X144833140Y-107871334D01*
X144865483Y-107901706D01*
X144872427Y-107905524D01*
X144872429Y-107905525D01*
X144883318Y-107911511D01*
X144899836Y-107922362D01*
X144915922Y-107934839D01*
X144956655Y-107952465D01*
X144967303Y-107957682D01*
X145006186Y-107979058D01*
X145013861Y-107981029D01*
X145013867Y-107981031D01*
X145025900Y-107984120D01*
X145044602Y-107990523D01*
X145063281Y-107998606D01*
X145097117Y-108003965D01*
X145107116Y-108005549D01*
X145118729Y-108007954D01*
X145161707Y-108018989D01*
X145182054Y-108018989D01*
X145201766Y-108020540D01*
X145221868Y-108023724D01*
X145229760Y-108022978D01*
X145266045Y-108019548D01*
X145277903Y-108018989D01*
X148228567Y-108018989D01*
X148296688Y-108038991D01*
X148317662Y-108055894D01*
X149538537Y-109276770D01*
X149569000Y-109326094D01*
X149616594Y-109469167D01*
X149620241Y-109475189D01*
X149620242Y-109475191D01*
X149684372Y-109581081D01*
X149704746Y-109614723D01*
X149822955Y-109737132D01*
X149965346Y-109830310D01*
X149971950Y-109832766D01*
X149971952Y-109832767D01*
X150008344Y-109846301D01*
X150124841Y-109889626D01*
X150293515Y-109912132D01*
X150300526Y-109911494D01*
X150300530Y-109911494D01*
X150455962Y-109897348D01*
X150462983Y-109896709D01*
X150469685Y-109894531D01*
X150469687Y-109894531D01*
X150618123Y-109846301D01*
X150618126Y-109846300D01*
X150624822Y-109844124D01*
X150770990Y-109756990D01*
X150776084Y-109752139D01*
X150776088Y-109752136D01*
X150857754Y-109674366D01*
X150894221Y-109639639D01*
X150930007Y-109585777D01*
X150984363Y-109540108D01*
X151041445Y-109532050D01*
X151041487Y-109530053D01*
X151048535Y-109530201D01*
X151055515Y-109531132D01*
X151062526Y-109530494D01*
X151062530Y-109530494D01*
X151217962Y-109516348D01*
X151224983Y-109515709D01*
X151231685Y-109513531D01*
X151231687Y-109513531D01*
X151380123Y-109465301D01*
X151380126Y-109465300D01*
X151386822Y-109463124D01*
X151396996Y-109457059D01*
X151465751Y-109439359D01*
X151533160Y-109461641D01*
X151577823Y-109516829D01*
X151586520Y-109581079D01*
X151578275Y-109646343D01*
X151594881Y-109815699D01*
X151648594Y-109977167D01*
X151652241Y-109983189D01*
X151652242Y-109983191D01*
X151665997Y-110005902D01*
X151736746Y-110122723D01*
X151854955Y-110245132D01*
X151997346Y-110338310D01*
X152003950Y-110340766D01*
X152003952Y-110340767D01*
X152040344Y-110354301D01*
X152156841Y-110397626D01*
X152325515Y-110420132D01*
X152332526Y-110419494D01*
X152332530Y-110419494D01*
X152487962Y-110405348D01*
X152494983Y-110404709D01*
X152501685Y-110402531D01*
X152501687Y-110402531D01*
X152650123Y-110354301D01*
X152650126Y-110354300D01*
X152656822Y-110352124D01*
X152802990Y-110264990D01*
X152808084Y-110260139D01*
X152808088Y-110260136D01*
X152875333Y-110196099D01*
X152926221Y-110147639D01*
X153020391Y-110005902D01*
X153080819Y-109846825D01*
X153104501Y-109678313D01*
X153104799Y-109657000D01*
X153085831Y-109487892D01*
X153076690Y-109461641D01*
X153032186Y-109333846D01*
X153029868Y-109327189D01*
X153023883Y-109317610D01*
X152987033Y-109258639D01*
X152939692Y-109182879D01*
X152819786Y-109062132D01*
X152676108Y-108970951D01*
X152515800Y-108913868D01*
X152346829Y-108893720D01*
X152339826Y-108894456D01*
X152339825Y-108894456D01*
X152184601Y-108910770D01*
X152184597Y-108910771D01*
X152177593Y-108911507D01*
X152170922Y-108913778D01*
X152023173Y-108964075D01*
X152023170Y-108964076D01*
X152016503Y-108966346D01*
X152010504Y-108970037D01*
X152005692Y-108972301D01*
X151935538Y-108983206D01*
X151870625Y-108954452D01*
X151831562Y-108895168D01*
X151827271Y-108840756D01*
X151833952Y-108793221D01*
X151833952Y-108793218D01*
X151834501Y-108789313D01*
X151834618Y-108780964D01*
X151834744Y-108771961D01*
X151834744Y-108771955D01*
X151834799Y-108768000D01*
X151815831Y-108598892D01*
X151804720Y-108566984D01*
X151786198Y-108513798D01*
X151759868Y-108438189D01*
X151669692Y-108293879D01*
X151644116Y-108268123D01*
X151554748Y-108178129D01*
X151549786Y-108173132D01*
X151541322Y-108167760D01*
X151476898Y-108126876D01*
X151406108Y-108081951D01*
X151245800Y-108024868D01*
X151246668Y-108022430D01*
X151197044Y-107994812D01*
X150757083Y-107554851D01*
X152021719Y-107554851D01*
X152022235Y-107560995D01*
X152033877Y-107699638D01*
X152038268Y-107751934D01*
X152060906Y-107830881D01*
X152089322Y-107929979D01*
X152092783Y-107942050D01*
X152099347Y-107954822D01*
X152157000Y-108067001D01*
X152183187Y-108117956D01*
X152306035Y-108272953D01*
X152310728Y-108276947D01*
X152310729Y-108276948D01*
X152440647Y-108387516D01*
X152456650Y-108401136D01*
X152629294Y-108497624D01*
X152817392Y-108558740D01*
X153013777Y-108582158D01*
X153019912Y-108581686D01*
X153019914Y-108581686D01*
X153204830Y-108567457D01*
X153204834Y-108567456D01*
X153210972Y-108566984D01*
X153401463Y-108513798D01*
X153406967Y-108511018D01*
X153406969Y-108511017D01*
X153572495Y-108427404D01*
X153572497Y-108427403D01*
X153577996Y-108424625D01*
X153733847Y-108302861D01*
X153839029Y-108181006D01*
X153859049Y-108157813D01*
X153859050Y-108157811D01*
X153863078Y-108153145D01*
X153897371Y-108092779D01*
X154242213Y-108092779D01*
X154245674Y-108147784D01*
X154250643Y-108226763D01*
X154252295Y-108253027D01*
X154254744Y-108260563D01*
X154254744Y-108260565D01*
X154299121Y-108397143D01*
X154301912Y-108405733D01*
X154387947Y-108541303D01*
X154393726Y-108546730D01*
X154393727Y-108546731D01*
X154473274Y-108621430D01*
X154504994Y-108651217D01*
X154645697Y-108728569D01*
X154801218Y-108768500D01*
X158858483Y-108768500D01*
X158914616Y-108761409D01*
X158969934Y-108754421D01*
X158969937Y-108754420D01*
X158977799Y-108753427D01*
X158985165Y-108750510D01*
X158985167Y-108750510D01*
X159119719Y-108697237D01*
X159119722Y-108697236D01*
X159127088Y-108694319D01*
X159256987Y-108599942D01*
X159359335Y-108476224D01*
X159427700Y-108330941D01*
X159429185Y-108323158D01*
X159429186Y-108323154D01*
X159456302Y-108181006D01*
X159456302Y-108181005D01*
X159457787Y-108173221D01*
X159455608Y-108138580D01*
X160848752Y-108138580D01*
X160873477Y-108256421D01*
X160876537Y-108266617D01*
X160957263Y-108471029D01*
X160961994Y-108480561D01*
X161076016Y-108668462D01*
X161082280Y-108677052D01*
X161226327Y-108843052D01*
X161233958Y-108850472D01*
X161403911Y-108989826D01*
X161412678Y-108995850D01*
X161603682Y-109104576D01*
X161613346Y-109109041D01*
X161819941Y-109184031D01*
X161830208Y-109186802D01*
X162033174Y-109223504D01*
X162046414Y-109222085D01*
X162051000Y-109207450D01*
X162051000Y-109203849D01*
X162559000Y-109203849D01*
X162563310Y-109218527D01*
X162575193Y-109220590D01*
X162654325Y-109213876D01*
X162664797Y-109212086D01*
X162877535Y-109156870D01*
X162887575Y-109153335D01*
X163087970Y-109063063D01*
X163097256Y-109057894D01*
X163279575Y-108935150D01*
X163287870Y-108928481D01*
X163446900Y-108776772D01*
X163453941Y-108768814D01*
X163585141Y-108592475D01*
X163590745Y-108583438D01*
X163690357Y-108387516D01*
X163694357Y-108377665D01*
X163759534Y-108167760D01*
X163761817Y-108157376D01*
X163763861Y-108141957D01*
X163761665Y-108127793D01*
X163748478Y-108124000D01*
X162577115Y-108124000D01*
X162561876Y-108128475D01*
X162560671Y-108129865D01*
X162559000Y-108137548D01*
X162559000Y-109203849D01*
X162051000Y-109203849D01*
X162051000Y-108142115D01*
X162046525Y-108126876D01*
X162045135Y-108125671D01*
X162037452Y-108124000D01*
X160863808Y-108124000D01*
X160850277Y-108127973D01*
X160848752Y-108138580D01*
X159455608Y-108138580D01*
X159450701Y-108060588D01*
X159448203Y-108020884D01*
X159448203Y-108020882D01*
X159447705Y-108012973D01*
X159445256Y-108005435D01*
X159400539Y-107867809D01*
X159400537Y-107867806D01*
X159398088Y-107860267D01*
X159312053Y-107724697D01*
X159269611Y-107684841D01*
X159200783Y-107620208D01*
X159195006Y-107614783D01*
X159054303Y-107537431D01*
X158898782Y-107497500D01*
X156131646Y-107497500D01*
X156113103Y-107492055D01*
X156107017Y-107495200D01*
X156083052Y-107497500D01*
X154841517Y-107497500D01*
X154785384Y-107504591D01*
X154730066Y-107511579D01*
X154730063Y-107511580D01*
X154722201Y-107512573D01*
X154714835Y-107515490D01*
X154714833Y-107515490D01*
X154580281Y-107568763D01*
X154580278Y-107568764D01*
X154572912Y-107571681D01*
X154566501Y-107576339D01*
X154566499Y-107576340D01*
X154513587Y-107614783D01*
X154443013Y-107666058D01*
X154340665Y-107789776D01*
X154337290Y-107796949D01*
X154337289Y-107796950D01*
X154336153Y-107799365D01*
X154272300Y-107935059D01*
X154270815Y-107942842D01*
X154270814Y-107942846D01*
X154243698Y-108084994D01*
X154242213Y-108092779D01*
X153897371Y-108092779D01*
X153960769Y-107981179D01*
X154023197Y-107793513D01*
X154047985Y-107597295D01*
X154048380Y-107569000D01*
X154029080Y-107372167D01*
X154023138Y-107352484D01*
X153997923Y-107268971D01*
X153971916Y-107182831D01*
X153879066Y-107008204D01*
X153788328Y-106896948D01*
X153757960Y-106859713D01*
X153757957Y-106859710D01*
X153754065Y-106854938D01*
X153742474Y-106845349D01*
X153606425Y-106732799D01*
X153606421Y-106732797D01*
X153601675Y-106728870D01*
X153427701Y-106634802D01*
X153279346Y-106588879D01*
X155511265Y-106588879D01*
X155512011Y-106596770D01*
X155524356Y-106727361D01*
X155526376Y-106748732D01*
X155529059Y-106756186D01*
X155529060Y-106756188D01*
X155566331Y-106859713D01*
X155580765Y-106899804D01*
X155671015Y-107032604D01*
X155676964Y-107037849D01*
X155676966Y-107037851D01*
X155711958Y-107068700D01*
X155791457Y-107138787D01*
X155798517Y-107142384D01*
X155798518Y-107142385D01*
X155927457Y-107208083D01*
X155927459Y-107208084D01*
X155934521Y-107211682D01*
X156091219Y-107246708D01*
X156096146Y-107246553D01*
X156103392Y-107249446D01*
X156127689Y-107245562D01*
X156151892Y-107244801D01*
X156251705Y-107241665D01*
X156259317Y-107239453D01*
X156259320Y-107239453D01*
X156398280Y-107199081D01*
X156398281Y-107199080D01*
X156405893Y-107196869D01*
X156474048Y-107156562D01*
X156537271Y-107119172D01*
X156537274Y-107119170D01*
X156544098Y-107115134D01*
X157137138Y-106522094D01*
X157210849Y-106427067D01*
X157274617Y-106279708D01*
X157299735Y-106121121D01*
X157289621Y-106014132D01*
X157285370Y-105969156D01*
X157285369Y-105969153D01*
X157284624Y-105961268D01*
X157263595Y-105902856D01*
X157232921Y-105817656D01*
X157232920Y-105817654D01*
X157230235Y-105810196D01*
X157211278Y-105782301D01*
X157144438Y-105683951D01*
X157139984Y-105677397D01*
X157134043Y-105672159D01*
X157134041Y-105672157D01*
X157062593Y-105609167D01*
X157019543Y-105571213D01*
X156886895Y-105503625D01*
X156883543Y-105501917D01*
X156883541Y-105501916D01*
X156876479Y-105498318D01*
X156719781Y-105463292D01*
X156559295Y-105468336D01*
X156462048Y-105496589D01*
X156412720Y-105510920D01*
X156412719Y-105510921D01*
X156405107Y-105513132D01*
X156398284Y-105517167D01*
X156285669Y-105583767D01*
X156266901Y-105594866D01*
X155673861Y-106187906D01*
X155600150Y-106282933D01*
X155597003Y-106290206D01*
X155597001Y-106290209D01*
X155570768Y-106350832D01*
X155536383Y-106430292D01*
X155511265Y-106588879D01*
X153279346Y-106588879D01*
X153238768Y-106576318D01*
X153232643Y-106575674D01*
X153232642Y-106575674D01*
X153048204Y-106556289D01*
X153048202Y-106556289D01*
X153042075Y-106555645D01*
X152962224Y-106562912D01*
X152851251Y-106573011D01*
X152851248Y-106573012D01*
X152845112Y-106573570D01*
X152839206Y-106575308D01*
X152839202Y-106575309D01*
X152771598Y-106595206D01*
X152655381Y-106629410D01*
X152649923Y-106632263D01*
X152649919Y-106632265D01*
X152604517Y-106656001D01*
X152480110Y-106721040D01*
X152325975Y-106844968D01*
X152198846Y-106996474D01*
X152195879Y-107001872D01*
X152195875Y-107001877D01*
X152131393Y-107119172D01*
X152103567Y-107169787D01*
X152101706Y-107175654D01*
X152101705Y-107175656D01*
X152065335Y-107290310D01*
X152043765Y-107358306D01*
X152021719Y-107554851D01*
X150757083Y-107554851D01*
X148822905Y-105620672D01*
X148788879Y-105558360D01*
X148786000Y-105531577D01*
X148786000Y-105283252D01*
X148807052Y-105213525D01*
X148818060Y-105196956D01*
X148829391Y-105179902D01*
X148889819Y-105020825D01*
X148913501Y-104852313D01*
X148913661Y-104840876D01*
X148913744Y-104834961D01*
X148913744Y-104834955D01*
X148913799Y-104831000D01*
X148894831Y-104661892D01*
X148885066Y-104633851D01*
X152402719Y-104633851D01*
X152403235Y-104639995D01*
X152418379Y-104820343D01*
X152419268Y-104830934D01*
X152429436Y-104866393D01*
X152464410Y-104988361D01*
X152473783Y-105021050D01*
X152476602Y-105026535D01*
X152552037Y-105173314D01*
X152564187Y-105196956D01*
X152687035Y-105351953D01*
X152691728Y-105355947D01*
X152691729Y-105355948D01*
X152789916Y-105439511D01*
X152837650Y-105480136D01*
X153010294Y-105576624D01*
X153198392Y-105637740D01*
X153394777Y-105661158D01*
X153400912Y-105660686D01*
X153400914Y-105660686D01*
X153585830Y-105646457D01*
X153585834Y-105646456D01*
X153591972Y-105645984D01*
X153782463Y-105592798D01*
X153787967Y-105590018D01*
X153787969Y-105590017D01*
X153953495Y-105506404D01*
X153953497Y-105506403D01*
X153958996Y-105503625D01*
X154114847Y-105381861D01*
X154180523Y-105305774D01*
X160818102Y-105305774D01*
X160818302Y-105311103D01*
X160818302Y-105311105D01*
X160822426Y-105420966D01*
X160826751Y-105536158D01*
X160827846Y-105541377D01*
X160835641Y-105578528D01*
X160874093Y-105761791D01*
X160876051Y-105766750D01*
X160876052Y-105766752D01*
X160937739Y-105922951D01*
X160958776Y-105976221D01*
X161078377Y-106173317D01*
X161081874Y-106177347D01*
X161200262Y-106313777D01*
X161229477Y-106347445D01*
X161233608Y-106350832D01*
X161403627Y-106490240D01*
X161403633Y-106490244D01*
X161407755Y-106493624D01*
X161412398Y-106496267D01*
X161439735Y-106511829D01*
X161489041Y-106562912D01*
X161502902Y-106632542D01*
X161476918Y-106698613D01*
X161447768Y-106725851D01*
X161330422Y-106804852D01*
X161322130Y-106811519D01*
X161163100Y-106963228D01*
X161156059Y-106971186D01*
X161024859Y-107147525D01*
X161019255Y-107156562D01*
X160919643Y-107352484D01*
X160915643Y-107362335D01*
X160850466Y-107572240D01*
X160848183Y-107582624D01*
X160846139Y-107598043D01*
X160848335Y-107612207D01*
X160861522Y-107616000D01*
X163746192Y-107616000D01*
X163759723Y-107612027D01*
X163761248Y-107601420D01*
X163736523Y-107483579D01*
X163733463Y-107473383D01*
X163652737Y-107268971D01*
X163648006Y-107259439D01*
X163533984Y-107071538D01*
X163527720Y-107062948D01*
X163383673Y-106896948D01*
X163376042Y-106889528D01*
X163206089Y-106750174D01*
X163197326Y-106744152D01*
X163170289Y-106728762D01*
X163120982Y-106677680D01*
X163107120Y-106608049D01*
X163133103Y-106541978D01*
X163162253Y-106514739D01*
X163248823Y-106456456D01*
X163284319Y-106432559D01*
X163297703Y-106419792D01*
X163377769Y-106343412D01*
X163451135Y-106273424D01*
X163588754Y-106088458D01*
X163693240Y-105882949D01*
X163700802Y-105858598D01*
X163760024Y-105667871D01*
X163761607Y-105662773D01*
X163762308Y-105657484D01*
X163791198Y-105439511D01*
X163791198Y-105439506D01*
X163791898Y-105434226D01*
X163790538Y-105397985D01*
X163785652Y-105267845D01*
X163783249Y-105203842D01*
X163735907Y-104978209D01*
X163710806Y-104914650D01*
X163653185Y-104768744D01*
X163653184Y-104768742D01*
X163651224Y-104763779D01*
X163646012Y-104755189D01*
X163534390Y-104571243D01*
X163531623Y-104566683D01*
X163525399Y-104559510D01*
X163384023Y-104396588D01*
X163384021Y-104396586D01*
X163380523Y-104392555D01*
X163344880Y-104363330D01*
X163304886Y-104304671D01*
X163302954Y-104233701D01*
X163339698Y-104172952D01*
X163358468Y-104158752D01*
X163498120Y-104072332D01*
X163504348Y-104068478D01*
X163629305Y-103943303D01*
X163637500Y-103930009D01*
X163718275Y-103798968D01*
X163718276Y-103798966D01*
X163722115Y-103792738D01*
X163768030Y-103654309D01*
X163775632Y-103631389D01*
X163775632Y-103631387D01*
X163777797Y-103624861D01*
X163781096Y-103592668D01*
X163785056Y-103554016D01*
X163788500Y-103520400D01*
X163788500Y-102219600D01*
X163784619Y-102182197D01*
X163778238Y-102120692D01*
X163778237Y-102120688D01*
X163777526Y-102113834D01*
X163775051Y-102106414D01*
X163723868Y-101953002D01*
X163721550Y-101946054D01*
X163628478Y-101795652D01*
X163503303Y-101670695D01*
X163497072Y-101666854D01*
X163358968Y-101581725D01*
X163358966Y-101581724D01*
X163352738Y-101577885D01*
X163192254Y-101524655D01*
X163191389Y-101524368D01*
X163191387Y-101524368D01*
X163184861Y-101522203D01*
X163178025Y-101521503D01*
X163178022Y-101521502D01*
X163134969Y-101517091D01*
X163080400Y-101511500D01*
X161529600Y-101511500D01*
X161526354Y-101511837D01*
X161526350Y-101511837D01*
X161430692Y-101521762D01*
X161430688Y-101521763D01*
X161423834Y-101522474D01*
X161417298Y-101524655D01*
X161417296Y-101524655D01*
X161285194Y-101568728D01*
X161256054Y-101578450D01*
X161105652Y-101671522D01*
X160980695Y-101796697D01*
X160976855Y-101802927D01*
X160976854Y-101802928D01*
X160898389Y-101930222D01*
X160887885Y-101947262D01*
X160861436Y-102027005D01*
X160839598Y-102092845D01*
X160832203Y-102115139D01*
X160821500Y-102219600D01*
X160821500Y-103520400D01*
X160821837Y-103523646D01*
X160821837Y-103523650D01*
X160822880Y-103533697D01*
X160832474Y-103626166D01*
X160834655Y-103632702D01*
X160834655Y-103632704D01*
X160849370Y-103676809D01*
X160888450Y-103793946D01*
X160981522Y-103944348D01*
X160986704Y-103949521D01*
X161026766Y-103989513D01*
X161106697Y-104069305D01*
X161252340Y-104159081D01*
X161299832Y-104211852D01*
X161311256Y-104281924D01*
X161282982Y-104347048D01*
X161273195Y-104357510D01*
X161158865Y-104466576D01*
X161021246Y-104651542D01*
X161018830Y-104656293D01*
X161018828Y-104656297D01*
X161008661Y-104676295D01*
X160916760Y-104857051D01*
X160915178Y-104862145D01*
X160915177Y-104862148D01*
X160864133Y-105026535D01*
X160848393Y-105077227D01*
X160847692Y-105082516D01*
X160821331Y-105281414D01*
X160818102Y-105305774D01*
X154180523Y-105305774D01*
X154244078Y-105232145D01*
X154341769Y-105060179D01*
X154404197Y-104872513D01*
X154428985Y-104676295D01*
X154429380Y-104648000D01*
X154410080Y-104451167D01*
X154398739Y-104413602D01*
X154379105Y-104348573D01*
X154352916Y-104261831D01*
X154260066Y-104087204D01*
X154180391Y-103989513D01*
X154138960Y-103938713D01*
X154138957Y-103938710D01*
X154135065Y-103933938D01*
X154128724Y-103928692D01*
X154096192Y-103901779D01*
X154750213Y-103901779D01*
X154760295Y-104062027D01*
X154762744Y-104069563D01*
X154762744Y-104069565D01*
X154799852Y-104183771D01*
X154809912Y-104214733D01*
X154895947Y-104350303D01*
X154901726Y-104355730D01*
X154901727Y-104355731D01*
X154945236Y-104396588D01*
X155012994Y-104460217D01*
X155153697Y-104537569D01*
X155309218Y-104577500D01*
X159874483Y-104577500D01*
X159930616Y-104570409D01*
X159985934Y-104563421D01*
X159985937Y-104563420D01*
X159993799Y-104562427D01*
X160001165Y-104559510D01*
X160001167Y-104559510D01*
X160135719Y-104506237D01*
X160135722Y-104506236D01*
X160143088Y-104503319D01*
X160167357Y-104485687D01*
X160266573Y-104413602D01*
X160272987Y-104408942D01*
X160375335Y-104285224D01*
X160443700Y-104139941D01*
X160445185Y-104132158D01*
X160445186Y-104132154D01*
X160472302Y-103990006D01*
X160472302Y-103990005D01*
X160473787Y-103982221D01*
X160467180Y-103877209D01*
X160464203Y-103829884D01*
X160464203Y-103829882D01*
X160463705Y-103821973D01*
X160461022Y-103813715D01*
X160416539Y-103676809D01*
X160416537Y-103676806D01*
X160414088Y-103669267D01*
X160328053Y-103533697D01*
X160310468Y-103517183D01*
X160216783Y-103429208D01*
X160211006Y-103423783D01*
X160203334Y-103419565D01*
X160187938Y-103411101D01*
X160070303Y-103346431D01*
X159914782Y-103306500D01*
X156175757Y-103306500D01*
X156107636Y-103286498D01*
X156061143Y-103232842D01*
X156051039Y-103162568D01*
X156065342Y-103119799D01*
X156112069Y-103034803D01*
X156152000Y-102879282D01*
X156152000Y-102733423D01*
X156172002Y-102665302D01*
X156188905Y-102644327D01*
X156586116Y-102247117D01*
X157010139Y-101823094D01*
X157083850Y-101728067D01*
X157106077Y-101676704D01*
X157144469Y-101587982D01*
X157147617Y-101580708D01*
X157172735Y-101422121D01*
X157165085Y-101341191D01*
X157158370Y-101270156D01*
X157158369Y-101270153D01*
X157157624Y-101262268D01*
X157103235Y-101111196D01*
X157012985Y-100978396D01*
X157007036Y-100973151D01*
X157007034Y-100973149D01*
X156898489Y-100877455D01*
X156892543Y-100872213D01*
X156749479Y-100799318D01*
X156741740Y-100797588D01*
X156741737Y-100797587D01*
X156600522Y-100766021D01*
X156600519Y-100766021D01*
X156592781Y-100764291D01*
X156584856Y-100764540D01*
X156584855Y-100764540D01*
X156512538Y-100766813D01*
X156432295Y-100769335D01*
X156320249Y-100801888D01*
X156285720Y-100811919D01*
X156285719Y-100811920D01*
X156278107Y-100814131D01*
X156271283Y-100818167D01*
X156146729Y-100891828D01*
X156146726Y-100891830D01*
X156139902Y-100895866D01*
X156134291Y-100901477D01*
X155123017Y-101912750D01*
X155114691Y-101920326D01*
X155108197Y-101924447D01*
X155102774Y-101930222D01*
X155061415Y-101974265D01*
X155058660Y-101977107D01*
X155038861Y-101996906D01*
X155036437Y-102000031D01*
X155036429Y-102000040D01*
X155036363Y-102000126D01*
X155028655Y-102009151D01*
X154998283Y-102041494D01*
X154994465Y-102048438D01*
X154994464Y-102048440D01*
X154988478Y-102059329D01*
X154977627Y-102075847D01*
X154965150Y-102091933D01*
X154947524Y-102132666D01*
X154942307Y-102143314D01*
X154920931Y-102182197D01*
X154918960Y-102189872D01*
X154918958Y-102189878D01*
X154915869Y-102201911D01*
X154909466Y-102220613D01*
X154901383Y-102239292D01*
X154898277Y-102258902D01*
X154894440Y-102283127D01*
X154892035Y-102294740D01*
X154881000Y-102337718D01*
X154881000Y-102358065D01*
X154879449Y-102377776D01*
X154876265Y-102397879D01*
X154877011Y-102405771D01*
X154880441Y-102442056D01*
X154881000Y-102453914D01*
X154881000Y-102838983D01*
X154883971Y-102862500D01*
X154893830Y-102940541D01*
X154896073Y-102958299D01*
X154898990Y-102965665D01*
X154898990Y-102965667D01*
X154935910Y-103058914D01*
X154955181Y-103107588D01*
X154959839Y-103113999D01*
X154959840Y-103114001D01*
X155034872Y-103217273D01*
X155045332Y-103231670D01*
X155049558Y-103237487D01*
X155048619Y-103238169D01*
X155077234Y-103294731D01*
X155069944Y-103365352D01*
X155027393Y-103419564D01*
X154951013Y-103475058D01*
X154848665Y-103598776D01*
X154845290Y-103605949D01*
X154845289Y-103605950D01*
X154839003Y-103619308D01*
X154780300Y-103744059D01*
X154778815Y-103751842D01*
X154778814Y-103751846D01*
X154760851Y-103846014D01*
X154750213Y-103901779D01*
X154096192Y-103901779D01*
X153987425Y-103811799D01*
X153987421Y-103811797D01*
X153982675Y-103807870D01*
X153808701Y-103713802D01*
X153619768Y-103655318D01*
X153613643Y-103654674D01*
X153613642Y-103654674D01*
X153429204Y-103635289D01*
X153429202Y-103635289D01*
X153423075Y-103634645D01*
X153340576Y-103642153D01*
X153232251Y-103652011D01*
X153232248Y-103652012D01*
X153226112Y-103652570D01*
X153220206Y-103654308D01*
X153220202Y-103654309D01*
X153115076Y-103685249D01*
X153036381Y-103708410D01*
X153030923Y-103711263D01*
X153030919Y-103711265D01*
X152949763Y-103753693D01*
X152861110Y-103800040D01*
X152706975Y-103923968D01*
X152579846Y-104075474D01*
X152576879Y-104080872D01*
X152576875Y-104080877D01*
X152507434Y-104207191D01*
X152484567Y-104248787D01*
X152482706Y-104254654D01*
X152482705Y-104254656D01*
X152437509Y-104397132D01*
X152424765Y-104437306D01*
X152402719Y-104633851D01*
X148885066Y-104633851D01*
X148838868Y-104501189D01*
X148832883Y-104491610D01*
X148773505Y-104396588D01*
X148748692Y-104356879D01*
X148738930Y-104347048D01*
X148641353Y-104248787D01*
X148628786Y-104236132D01*
X148612539Y-104225821D01*
X148546278Y-104183771D01*
X148485108Y-104144951D01*
X148324800Y-104087868D01*
X148155829Y-104067720D01*
X148148826Y-104068456D01*
X148148825Y-104068456D01*
X147993601Y-104084770D01*
X147993597Y-104084771D01*
X147986593Y-104085507D01*
X147979922Y-104087778D01*
X147832173Y-104138075D01*
X147832170Y-104138076D01*
X147825503Y-104140346D01*
X147819505Y-104144036D01*
X147819503Y-104144037D01*
X147686565Y-104225821D01*
X147686563Y-104225823D01*
X147680566Y-104229512D01*
X147558986Y-104348573D01*
X147555175Y-104354487D01*
X147555173Y-104354489D01*
X147485308Y-104462897D01*
X147466804Y-104491610D01*
X147440667Y-104563421D01*
X147415033Y-104633851D01*
X147408603Y-104651516D01*
X147387275Y-104820343D01*
X147403881Y-104989699D01*
X147457594Y-105151167D01*
X147461243Y-105157192D01*
X147496776Y-105215864D01*
X147515000Y-105281136D01*
X147515000Y-105767980D01*
X147514470Y-105779214D01*
X147512792Y-105786719D01*
X147513041Y-105794638D01*
X147514938Y-105855012D01*
X147515000Y-105858969D01*
X147515000Y-105886983D01*
X147515496Y-105890908D01*
X147515496Y-105890909D01*
X147515508Y-105891004D01*
X147516441Y-105902849D01*
X147517835Y-105947205D01*
X147520047Y-105954817D01*
X147523513Y-105966748D01*
X147527523Y-105986112D01*
X147530073Y-106006299D01*
X147532989Y-106013663D01*
X147532990Y-106013668D01*
X147546407Y-106047556D01*
X147550252Y-106058785D01*
X147562631Y-106101393D01*
X147566669Y-106108220D01*
X147566670Y-106108223D01*
X147572988Y-106118906D01*
X147581688Y-106136664D01*
X147586261Y-106148215D01*
X147586265Y-106148221D01*
X147589181Y-106155588D01*
X147593839Y-106161999D01*
X147593840Y-106162001D01*
X147615264Y-106191488D01*
X147621781Y-106201410D01*
X147640326Y-106232768D01*
X147640329Y-106232772D01*
X147644366Y-106239598D01*
X147658750Y-106253982D01*
X147671591Y-106269016D01*
X147673670Y-106271878D01*
X147683558Y-106285487D01*
X147689666Y-106290540D01*
X147717755Y-106313777D01*
X147726535Y-106321767D01*
X147937662Y-106532894D01*
X147971688Y-106595206D01*
X147966623Y-106666021D01*
X147924076Y-106722857D01*
X147857556Y-106747668D01*
X147848567Y-106747989D01*
X145557412Y-106747989D01*
X145489291Y-106727987D01*
X145468316Y-106711084D01*
X145240093Y-106482860D01*
X145210198Y-106435203D01*
X145191174Y-106380573D01*
X145155868Y-106279189D01*
X145152082Y-106273129D01*
X145126861Y-106232768D01*
X145065692Y-106134879D01*
X145049958Y-106119034D01*
X144950748Y-106019129D01*
X144945786Y-106014132D01*
X144933444Y-106006299D01*
X144862486Y-105961268D01*
X144802108Y-105922951D01*
X144641800Y-105865868D01*
X144642667Y-105863433D01*
X144593045Y-105835812D01*
X143745594Y-104988361D01*
X143650567Y-104914650D01*
X143643294Y-104911503D01*
X143643291Y-104911501D01*
X143529240Y-104862148D01*
X143503208Y-104850883D01*
X143344621Y-104825765D01*
X143331504Y-104827005D01*
X143192656Y-104840130D01*
X143192653Y-104840131D01*
X143184768Y-104840876D01*
X143177314Y-104843559D01*
X143177312Y-104843560D01*
X143125682Y-104862148D01*
X143033696Y-104895265D01*
X142900896Y-104985515D01*
X142895651Y-104991464D01*
X142895649Y-104991466D01*
X142875920Y-105013845D01*
X142794713Y-105105957D01*
X142791116Y-105113017D01*
X142791115Y-105113018D01*
X142730417Y-105232145D01*
X142721818Y-105249021D01*
X142686792Y-105405719D01*
X141855097Y-105405719D01*
X141904819Y-105274825D01*
X141928501Y-105106313D01*
X141928799Y-105085000D01*
X141909831Y-104915892D01*
X141853868Y-104755189D01*
X141850135Y-104749215D01*
X141850133Y-104749211D01*
X141820146Y-104701222D01*
X141801000Y-104634452D01*
X141801000Y-104511422D01*
X141821002Y-104443301D01*
X141837905Y-104422327D01*
X143677827Y-102582405D01*
X143740139Y-102548379D01*
X143766922Y-102545500D01*
X144044557Y-102545500D01*
X144112678Y-102565502D01*
X144159171Y-102619158D01*
X144169563Y-102687292D01*
X144150643Y-102837055D01*
X144122261Y-102902132D01*
X144070751Y-102937449D01*
X144071046Y-102938076D01*
X144067189Y-102939891D01*
X144066241Y-102940541D01*
X144064674Y-102941074D01*
X144064666Y-102941078D01*
X144058003Y-102943346D01*
X144052008Y-102947034D01*
X144052004Y-102947036D01*
X143919065Y-103028821D01*
X143919063Y-103028823D01*
X143913066Y-103032512D01*
X143791486Y-103151573D01*
X143787675Y-103157487D01*
X143787673Y-103157489D01*
X143735678Y-103238169D01*
X143699304Y-103294610D01*
X143641103Y-103454516D01*
X143619775Y-103623343D01*
X143636381Y-103792699D01*
X143638605Y-103799384D01*
X143638605Y-103799385D01*
X143644413Y-103816845D01*
X143690094Y-103954167D01*
X143693741Y-103960189D01*
X143693742Y-103960191D01*
X143772499Y-104090233D01*
X143778246Y-104099723D01*
X143896455Y-104222132D01*
X144038846Y-104315310D01*
X144045450Y-104317766D01*
X144045452Y-104317767D01*
X144081844Y-104331301D01*
X144198341Y-104374626D01*
X144367015Y-104397132D01*
X144374026Y-104396494D01*
X144374030Y-104396494D01*
X144529462Y-104382348D01*
X144536483Y-104381709D01*
X144543185Y-104379531D01*
X144543187Y-104379531D01*
X144691623Y-104331301D01*
X144691626Y-104331300D01*
X144698322Y-104329124D01*
X144844490Y-104241990D01*
X144849584Y-104237139D01*
X144849588Y-104237136D01*
X144928367Y-104162115D01*
X144967721Y-104124639D01*
X144990581Y-104090233D01*
X145043872Y-104010022D01*
X145061891Y-103982902D01*
X145122319Y-103823825D01*
X145128741Y-103778126D01*
X145145617Y-103658047D01*
X145174905Y-103593372D01*
X145218343Y-103560834D01*
X145220617Y-103559803D01*
X145227322Y-103557624D01*
X145233373Y-103554017D01*
X145233375Y-103554016D01*
X145367444Y-103474094D01*
X145373490Y-103470490D01*
X145378584Y-103465639D01*
X145378588Y-103465636D01*
X145483896Y-103365352D01*
X145496721Y-103353139D01*
X145504018Y-103342157D01*
X145577425Y-103231670D01*
X145590891Y-103211402D01*
X145651319Y-103052325D01*
X145675001Y-102883813D01*
X145675299Y-102862500D01*
X145656331Y-102693392D01*
X145652097Y-102681232D01*
X145602686Y-102539346D01*
X145600368Y-102532689D01*
X145581419Y-102502365D01*
X145562282Y-102433996D01*
X145583323Y-102365867D01*
X145654391Y-102258902D01*
X145714819Y-102099825D01*
X145738501Y-101931313D01*
X145738799Y-101910000D01*
X145719831Y-101740892D01*
X145663868Y-101580189D01*
X145573692Y-101435879D01*
X145453786Y-101315132D01*
X145445309Y-101309752D01*
X145393835Y-101277086D01*
X145310108Y-101223951D01*
X145149800Y-101166868D01*
X144980829Y-101146720D01*
X144973826Y-101147456D01*
X144973825Y-101147456D01*
X144818601Y-101163770D01*
X144818597Y-101163771D01*
X144811593Y-101164507D01*
X144804922Y-101166778D01*
X144657173Y-101217075D01*
X144657170Y-101217076D01*
X144650503Y-101219346D01*
X144591221Y-101255817D01*
X144525198Y-101274500D01*
X143530520Y-101274500D01*
X143519286Y-101273970D01*
X143511781Y-101272292D01*
X143444071Y-101274420D01*
X143443488Y-101274438D01*
X143439531Y-101274500D01*
X143411517Y-101274500D01*
X143407592Y-101274996D01*
X143407591Y-101274996D01*
X143407496Y-101275008D01*
X143395651Y-101275941D01*
X143365830Y-101276878D01*
X143359218Y-101277086D01*
X143359217Y-101277086D01*
X143351295Y-101277335D01*
X143331752Y-101283013D01*
X143312388Y-101287023D01*
X143300060Y-101288580D01*
X143300058Y-101288580D01*
X143292201Y-101289573D01*
X143284837Y-101292489D01*
X143284832Y-101292490D01*
X143250944Y-101305907D01*
X143239715Y-101309752D01*
X143225741Y-101313812D01*
X143197107Y-101322131D01*
X143190281Y-101326168D01*
X143179591Y-101332490D01*
X143161841Y-101341187D01*
X143142912Y-101348681D01*
X143136496Y-101353342D01*
X143136495Y-101353343D01*
X143107019Y-101374759D01*
X143097095Y-101381278D01*
X143065724Y-101399830D01*
X143065719Y-101399834D01*
X143058901Y-101403866D01*
X143044514Y-101418253D01*
X143029480Y-101431094D01*
X143013013Y-101443058D01*
X143007960Y-101449166D01*
X142984728Y-101477249D01*
X142976738Y-101486029D01*
X140772017Y-103690750D01*
X140763691Y-103698326D01*
X140757197Y-103702447D01*
X140751774Y-103708222D01*
X140710415Y-103752265D01*
X140707660Y-103755107D01*
X140687861Y-103774906D01*
X140685437Y-103778031D01*
X140685429Y-103778040D01*
X140685363Y-103778126D01*
X140677655Y-103787151D01*
X140647283Y-103819494D01*
X140643465Y-103826438D01*
X140643464Y-103826440D01*
X140637478Y-103837329D01*
X140626627Y-103853847D01*
X140614150Y-103869933D01*
X140596524Y-103910666D01*
X140591307Y-103921314D01*
X140569931Y-103960197D01*
X140567960Y-103967872D01*
X140567958Y-103967878D01*
X140564869Y-103979911D01*
X140558466Y-103998613D01*
X140550383Y-104017292D01*
X140549144Y-104025117D01*
X140543440Y-104061127D01*
X140541035Y-104072740D01*
X140530000Y-104115718D01*
X140530000Y-104136065D01*
X140528449Y-104155776D01*
X140527445Y-104162115D01*
X140525265Y-104175879D01*
X140526011Y-104183771D01*
X140529441Y-104220056D01*
X140530000Y-104231914D01*
X140530000Y-104633741D01*
X140509911Y-104701997D01*
X140481804Y-104745610D01*
X140423603Y-104905516D01*
X140402275Y-105074343D01*
X121158000Y-105074343D01*
X121158000Y-98490879D01*
X153429539Y-98490879D01*
X153444650Y-98650732D01*
X153499039Y-98801804D01*
X153589289Y-98934604D01*
X153595238Y-98939849D01*
X153595240Y-98939851D01*
X153676537Y-99011523D01*
X153709731Y-99040787D01*
X153716791Y-99044384D01*
X153716792Y-99044385D01*
X153845731Y-99110083D01*
X153845733Y-99110084D01*
X153852795Y-99113682D01*
X154009493Y-99148708D01*
X154169979Y-99143665D01*
X154177591Y-99141453D01*
X154177594Y-99141453D01*
X154316554Y-99101081D01*
X154316555Y-99101080D01*
X154324167Y-99098869D01*
X154416294Y-99044385D01*
X154455545Y-99021172D01*
X154455548Y-99021170D01*
X154462372Y-99017134D01*
X155690413Y-97789094D01*
X155731210Y-97736498D01*
X155759264Y-97700332D01*
X155759266Y-97700329D01*
X155764123Y-97694067D01*
X155827891Y-97546708D01*
X155853009Y-97388121D01*
X155842824Y-97280380D01*
X155856326Y-97210680D01*
X155905368Y-97159344D01*
X155956841Y-97143043D01*
X155982483Y-97140709D01*
X155989185Y-97138531D01*
X155989187Y-97138531D01*
X156137623Y-97090301D01*
X156137626Y-97090300D01*
X156144322Y-97088124D01*
X156290490Y-97000990D01*
X156295584Y-96996139D01*
X156295588Y-96996136D01*
X156377800Y-96917846D01*
X156413721Y-96883639D01*
X156507891Y-96741902D01*
X156568319Y-96582825D01*
X156592001Y-96414313D01*
X156592118Y-96405964D01*
X156592244Y-96396961D01*
X156592244Y-96396955D01*
X156592299Y-96393000D01*
X156573331Y-96223892D01*
X156552725Y-96164719D01*
X162449066Y-96164719D01*
X162454109Y-96325205D01*
X162456321Y-96332817D01*
X162456321Y-96332820D01*
X162496693Y-96471780D01*
X162498905Y-96479393D01*
X162580640Y-96617598D01*
X162586246Y-96623204D01*
X163331812Y-97368771D01*
X163362274Y-97418094D01*
X163409868Y-97561167D01*
X163413515Y-97567189D01*
X163413516Y-97567191D01*
X163479770Y-97676588D01*
X163498020Y-97706723D01*
X163616229Y-97829132D01*
X163758620Y-97922310D01*
X163765224Y-97924766D01*
X163765226Y-97924767D01*
X163801618Y-97938301D01*
X163918115Y-97981626D01*
X164086789Y-98004132D01*
X164093800Y-98003494D01*
X164093804Y-98003494D01*
X164249236Y-97989348D01*
X164256257Y-97988709D01*
X164262959Y-97986531D01*
X164262961Y-97986531D01*
X164411397Y-97938301D01*
X164411400Y-97938300D01*
X164418096Y-97936124D01*
X164564264Y-97848990D01*
X164569358Y-97844139D01*
X164569362Y-97844136D01*
X164636607Y-97780099D01*
X164687495Y-97731639D01*
X164708296Y-97700332D01*
X164777764Y-97595773D01*
X164781665Y-97589902D01*
X164842093Y-97430825D01*
X164865775Y-97262313D01*
X164866073Y-97241000D01*
X164847105Y-97071892D01*
X164791142Y-96911189D01*
X164700966Y-96766879D01*
X164581060Y-96646132D01*
X164544237Y-96622763D01*
X164481304Y-96582825D01*
X164437382Y-96554951D01*
X164301262Y-96506481D01*
X164243798Y-96464787D01*
X164217998Y-96398644D01*
X164232053Y-96329053D01*
X164272707Y-96283570D01*
X164384437Y-96207639D01*
X164399378Y-96197485D01*
X164404623Y-96191536D01*
X164404625Y-96191534D01*
X164500319Y-96082989D01*
X164505561Y-96077043D01*
X164514595Y-96059314D01*
X164574855Y-95941046D01*
X164578456Y-95933979D01*
X164581832Y-95918879D01*
X164611753Y-95785022D01*
X164611753Y-95785019D01*
X164613483Y-95777281D01*
X164608439Y-95616795D01*
X164563643Y-95462607D01*
X164522776Y-95393505D01*
X164485944Y-95331226D01*
X164485943Y-95331225D01*
X164481908Y-95324402D01*
X164348367Y-95190860D01*
X164253340Y-95117149D01*
X164246067Y-95114002D01*
X164246064Y-95114000D01*
X164158445Y-95076085D01*
X164105981Y-95053382D01*
X163947394Y-95028264D01*
X163918969Y-95030951D01*
X163795429Y-95042629D01*
X163795426Y-95042630D01*
X163787541Y-95043375D01*
X163780087Y-95046058D01*
X163780085Y-95046059D01*
X163715203Y-95069418D01*
X163636469Y-95097764D01*
X163503669Y-95188014D01*
X163498424Y-95193963D01*
X163498422Y-95193965D01*
X163402728Y-95302510D01*
X163397486Y-95308456D01*
X163324591Y-95451520D01*
X163322861Y-95459259D01*
X163322860Y-95459262D01*
X163314192Y-95498038D01*
X163279812Y-95560154D01*
X163217306Y-95593823D01*
X163171516Y-95595000D01*
X163114724Y-95586005D01*
X163106895Y-95584765D01*
X163093778Y-95586005D01*
X162954930Y-95599130D01*
X162954927Y-95599131D01*
X162947042Y-95599876D01*
X162939588Y-95602559D01*
X162939586Y-95602560D01*
X162862102Y-95630456D01*
X162795970Y-95654265D01*
X162663170Y-95744515D01*
X162657925Y-95750464D01*
X162657923Y-95750466D01*
X162612411Y-95802090D01*
X162556987Y-95864957D01*
X162553390Y-95872017D01*
X162553389Y-95872018D01*
X162494014Y-95988549D01*
X162484092Y-96008021D01*
X162449066Y-96164719D01*
X156552725Y-96164719D01*
X156517368Y-96063189D01*
X156511383Y-96053610D01*
X156470727Y-95988549D01*
X156427192Y-95918879D01*
X156397899Y-95889380D01*
X156312248Y-95803129D01*
X156307286Y-95798132D01*
X156291039Y-95787821D01*
X156252406Y-95763304D01*
X156163608Y-95706951D01*
X156003300Y-95649868D01*
X155834329Y-95629720D01*
X155827326Y-95630456D01*
X155827325Y-95630456D01*
X155672101Y-95646770D01*
X155672097Y-95646771D01*
X155665093Y-95647507D01*
X155658422Y-95649778D01*
X155510673Y-95700075D01*
X155510670Y-95700076D01*
X155504003Y-95702346D01*
X155498005Y-95706036D01*
X155498003Y-95706037D01*
X155365065Y-95787821D01*
X155365063Y-95787823D01*
X155359066Y-95791512D01*
X155340105Y-95810080D01*
X155249824Y-95898491D01*
X155237486Y-95910573D01*
X155233675Y-95916487D01*
X155233673Y-95916489D01*
X155207337Y-95957354D01*
X155145304Y-96053610D01*
X155134611Y-96082989D01*
X155097814Y-96184089D01*
X155087103Y-96213516D01*
X155065775Y-96382343D01*
X155082381Y-96551699D01*
X155099417Y-96602910D01*
X155101939Y-96673862D01*
X155065702Y-96734914D01*
X155015012Y-96763678D01*
X154958381Y-96780131D01*
X154951557Y-96784167D01*
X154827003Y-96857828D01*
X154827000Y-96857830D01*
X154820176Y-96861866D01*
X153592135Y-98089906D01*
X153518424Y-98184933D01*
X153454657Y-98332292D01*
X153429539Y-98490879D01*
X121158000Y-98490879D01*
X121158000Y-96287219D01*
X149873539Y-96287219D01*
X149874285Y-96295111D01*
X149877715Y-96331396D01*
X149878274Y-96343254D01*
X149878274Y-97407983D01*
X149893347Y-97527299D01*
X149896264Y-97534665D01*
X149896264Y-97534667D01*
X149901032Y-97546708D01*
X149952455Y-97676588D01*
X149957113Y-97682999D01*
X149957114Y-97683001D01*
X149988186Y-97725768D01*
X150046832Y-97806487D01*
X150170550Y-97908835D01*
X150315833Y-97977200D01*
X150323616Y-97978685D01*
X150323620Y-97978686D01*
X150465768Y-98005802D01*
X150473553Y-98007287D01*
X150553677Y-98002246D01*
X150625890Y-97997703D01*
X150625892Y-97997703D01*
X150633801Y-97997205D01*
X150641337Y-97994756D01*
X150641339Y-97994756D01*
X150778965Y-97950039D01*
X150778968Y-97950037D01*
X150786507Y-97947588D01*
X150922077Y-97861553D01*
X150933875Y-97848990D01*
X151026566Y-97750283D01*
X151031991Y-97744506D01*
X151109343Y-97603803D01*
X151149274Y-97448282D01*
X151149274Y-96622763D01*
X151169276Y-96554642D01*
X151186179Y-96533667D01*
X151346073Y-96373774D01*
X151408385Y-96339749D01*
X151479201Y-96344814D01*
X151504161Y-96357438D01*
X151552488Y-96389062D01*
X151566620Y-96398310D01*
X151573224Y-96400766D01*
X151573226Y-96400767D01*
X151620164Y-96418223D01*
X151726115Y-96457626D01*
X151894789Y-96480132D01*
X151901800Y-96479494D01*
X151901804Y-96479494D01*
X152057236Y-96465348D01*
X152064257Y-96464709D01*
X152070959Y-96462531D01*
X152070961Y-96462531D01*
X152219397Y-96414301D01*
X152219400Y-96414300D01*
X152226096Y-96412124D01*
X152372264Y-96324990D01*
X152377358Y-96320139D01*
X152377362Y-96320136D01*
X152475103Y-96227058D01*
X152495495Y-96207639D01*
X152502242Y-96197485D01*
X152552817Y-96121362D01*
X152589665Y-96065902D01*
X152650093Y-95906825D01*
X152673775Y-95738313D01*
X152674073Y-95717000D01*
X152655105Y-95547892D01*
X152599142Y-95387189D01*
X152508966Y-95242879D01*
X152389060Y-95122132D01*
X152245382Y-95030951D01*
X152085074Y-94973868D01*
X151916103Y-94953720D01*
X151909100Y-94954456D01*
X151909099Y-94954456D01*
X151753875Y-94970770D01*
X151753871Y-94970771D01*
X151746867Y-94971507D01*
X151740196Y-94973778D01*
X151592447Y-95024075D01*
X151592444Y-95024076D01*
X151585777Y-95026346D01*
X151579779Y-95030036D01*
X151579777Y-95030037D01*
X151541831Y-95053382D01*
X151515765Y-95069418D01*
X151512972Y-95071136D01*
X151444471Y-95089794D01*
X151389747Y-95076085D01*
X151376662Y-95069418D01*
X151376663Y-95069418D01*
X151369595Y-95065817D01*
X151361856Y-95064087D01*
X151361853Y-95064086D01*
X151220637Y-95032520D01*
X151220634Y-95032520D01*
X151212896Y-95030790D01*
X151204971Y-95031039D01*
X151204970Y-95031039D01*
X151132653Y-95033312D01*
X151052410Y-95035834D01*
X150940364Y-95068387D01*
X150905835Y-95078418D01*
X150905834Y-95078419D01*
X150898222Y-95080630D01*
X150891400Y-95084665D01*
X150891399Y-95084665D01*
X150834429Y-95118357D01*
X150760017Y-95162364D01*
X150120291Y-95802090D01*
X150111965Y-95809666D01*
X150105471Y-95813787D01*
X150100048Y-95819562D01*
X150058689Y-95863605D01*
X150055934Y-95866447D01*
X150036135Y-95886246D01*
X150033711Y-95889371D01*
X150033703Y-95889380D01*
X150033637Y-95889466D01*
X150025929Y-95898491D01*
X149995557Y-95930834D01*
X149991739Y-95937778D01*
X149991738Y-95937780D01*
X149985752Y-95948669D01*
X149974901Y-95965187D01*
X149962424Y-95981273D01*
X149944798Y-96022006D01*
X149939581Y-96032654D01*
X149918205Y-96071537D01*
X149916234Y-96079212D01*
X149916232Y-96079218D01*
X149913143Y-96091251D01*
X149906740Y-96109953D01*
X149898657Y-96128632D01*
X149897418Y-96136457D01*
X149891714Y-96172467D01*
X149889309Y-96184080D01*
X149878274Y-96227058D01*
X149878274Y-96247405D01*
X149876723Y-96267116D01*
X149873539Y-96287219D01*
X121158000Y-96287219D01*
X121158000Y-88775774D01*
X160328102Y-88775774D01*
X160336751Y-89006158D01*
X160384093Y-89231791D01*
X160468776Y-89446221D01*
X160588377Y-89643317D01*
X160591874Y-89647347D01*
X160678438Y-89747103D01*
X160739477Y-89817445D01*
X160743608Y-89820832D01*
X160913627Y-89960240D01*
X160913633Y-89960244D01*
X160917755Y-89963624D01*
X160922391Y-89966263D01*
X160922394Y-89966265D01*
X161031422Y-90028327D01*
X161118114Y-90077675D01*
X161334825Y-90156337D01*
X161340074Y-90157286D01*
X161340077Y-90157287D01*
X161557608Y-90196623D01*
X161557615Y-90196624D01*
X161561692Y-90197361D01*
X161579414Y-90198197D01*
X161584356Y-90198430D01*
X161584363Y-90198430D01*
X161585844Y-90198500D01*
X161997890Y-90198500D01*
X162064809Y-90192822D01*
X162164409Y-90184371D01*
X162164413Y-90184370D01*
X162169720Y-90183920D01*
X162174875Y-90182582D01*
X162174881Y-90182581D01*
X162387703Y-90127343D01*
X162387707Y-90127342D01*
X162392872Y-90126001D01*
X162397738Y-90123809D01*
X162397741Y-90123808D01*
X162598202Y-90033507D01*
X162603075Y-90031312D01*
X162794319Y-89902559D01*
X162961135Y-89743424D01*
X163098754Y-89558458D01*
X163203240Y-89352949D01*
X163239321Y-89236752D01*
X163270024Y-89137871D01*
X163271607Y-89132773D01*
X163272308Y-89127484D01*
X163301198Y-88909511D01*
X163301198Y-88909506D01*
X163301898Y-88904226D01*
X163293249Y-88673842D01*
X163245907Y-88448209D01*
X163161224Y-88233779D01*
X163041623Y-88036683D01*
X162954755Y-87936576D01*
X162894023Y-87866588D01*
X162894021Y-87866586D01*
X162890523Y-87862555D01*
X162848970Y-87828484D01*
X162716373Y-87719760D01*
X162716367Y-87719756D01*
X162712245Y-87716376D01*
X162680750Y-87698448D01*
X162631445Y-87647368D01*
X162617583Y-87577738D01*
X162643566Y-87511667D01*
X162672716Y-87484427D01*
X162708642Y-87460240D01*
X162794319Y-87402559D01*
X162961135Y-87243424D01*
X163098754Y-87058458D01*
X163203240Y-86852949D01*
X163239321Y-86736752D01*
X163270024Y-86637871D01*
X163271607Y-86632773D01*
X163272308Y-86627484D01*
X163301198Y-86409511D01*
X163301198Y-86409506D01*
X163301898Y-86404226D01*
X163293249Y-86173842D01*
X163245907Y-85948209D01*
X163161224Y-85733779D01*
X163041623Y-85536683D01*
X162954755Y-85436576D01*
X162894023Y-85366588D01*
X162894021Y-85366586D01*
X162890523Y-85362555D01*
X162838830Y-85320169D01*
X162716373Y-85219760D01*
X162716367Y-85219756D01*
X162712245Y-85216376D01*
X162680750Y-85198448D01*
X162631445Y-85147368D01*
X162617583Y-85077738D01*
X162643566Y-85011667D01*
X162672716Y-84984427D01*
X162743499Y-84936773D01*
X162794319Y-84902559D01*
X162801736Y-84895484D01*
X162938117Y-84765382D01*
X162961135Y-84743424D01*
X163098754Y-84558458D01*
X163203240Y-84352949D01*
X163237502Y-84242610D01*
X163270024Y-84137871D01*
X163271607Y-84132773D01*
X163276660Y-84094648D01*
X163301198Y-83909511D01*
X163301198Y-83909506D01*
X163301898Y-83904226D01*
X163301415Y-83891346D01*
X163293449Y-83679173D01*
X163293249Y-83673842D01*
X163245907Y-83448209D01*
X163236879Y-83425348D01*
X163163185Y-83238744D01*
X163163184Y-83238742D01*
X163161224Y-83233779D01*
X163041623Y-83036683D01*
X162954755Y-82936576D01*
X162894023Y-82866588D01*
X162894021Y-82866586D01*
X162890523Y-82862555D01*
X162854880Y-82833330D01*
X162814886Y-82774671D01*
X162812954Y-82703701D01*
X162849698Y-82642952D01*
X162868468Y-82628752D01*
X163008120Y-82542332D01*
X163014348Y-82538478D01*
X163139305Y-82413303D01*
X163157277Y-82384147D01*
X163228275Y-82268968D01*
X163228276Y-82268966D01*
X163232115Y-82262738D01*
X163264450Y-82165251D01*
X163285632Y-82101389D01*
X163285632Y-82101387D01*
X163287797Y-82094861D01*
X163290350Y-82069950D01*
X163295678Y-82017944D01*
X163298500Y-81990400D01*
X163298500Y-80689600D01*
X163298163Y-80686350D01*
X163288238Y-80590692D01*
X163288237Y-80590688D01*
X163287526Y-80583834D01*
X163284635Y-80575167D01*
X163233868Y-80423002D01*
X163231550Y-80416054D01*
X163138478Y-80265652D01*
X163013303Y-80140695D01*
X162985161Y-80123348D01*
X162868968Y-80051725D01*
X162868966Y-80051724D01*
X162862738Y-80047885D01*
X162702254Y-79994655D01*
X162701389Y-79994368D01*
X162701387Y-79994368D01*
X162694861Y-79992203D01*
X162688025Y-79991503D01*
X162688022Y-79991502D01*
X162644969Y-79987091D01*
X162590400Y-79981500D01*
X161039600Y-79981500D01*
X161036354Y-79981837D01*
X161036350Y-79981837D01*
X160940692Y-79991762D01*
X160940688Y-79991763D01*
X160933834Y-79992474D01*
X160927298Y-79994655D01*
X160927296Y-79994655D01*
X160795194Y-80038728D01*
X160766054Y-80048450D01*
X160615652Y-80141522D01*
X160490695Y-80266697D01*
X160486855Y-80272927D01*
X160486854Y-80272928D01*
X160413623Y-80391731D01*
X160397885Y-80417262D01*
X160378438Y-80475892D01*
X160345511Y-80575167D01*
X160342203Y-80585139D01*
X160331500Y-80689600D01*
X160331500Y-81990400D01*
X160331837Y-81993646D01*
X160331837Y-81993650D01*
X160341018Y-82082132D01*
X160342474Y-82096166D01*
X160398450Y-82263946D01*
X160491522Y-82414348D01*
X160616697Y-82539305D01*
X160762340Y-82629081D01*
X160809832Y-82681852D01*
X160821256Y-82751924D01*
X160792982Y-82817048D01*
X160783195Y-82827510D01*
X160668865Y-82936576D01*
X160531246Y-83121542D01*
X160528830Y-83126293D01*
X160528828Y-83126297D01*
X160479003Y-83224297D01*
X160426760Y-83327051D01*
X160425178Y-83332145D01*
X160425177Y-83332148D01*
X160363115Y-83532020D01*
X160358393Y-83547227D01*
X160357692Y-83552516D01*
X160342304Y-83668623D01*
X160328102Y-83775774D01*
X160336751Y-84006158D01*
X160384093Y-84231791D01*
X160386051Y-84236750D01*
X160386052Y-84236752D01*
X160388366Y-84242610D01*
X160468776Y-84446221D01*
X160588377Y-84643317D01*
X160591874Y-84647347D01*
X160705602Y-84778407D01*
X160739477Y-84817445D01*
X160743608Y-84820832D01*
X160913627Y-84960240D01*
X160913633Y-84960244D01*
X160917755Y-84963624D01*
X160949250Y-84981552D01*
X160998555Y-85032632D01*
X161012417Y-85102262D01*
X160986434Y-85168333D01*
X160957284Y-85195573D01*
X160835681Y-85277441D01*
X160668865Y-85436576D01*
X160531246Y-85621542D01*
X160426760Y-85827051D01*
X160425178Y-85832145D01*
X160425177Y-85832148D01*
X160363115Y-86032020D01*
X160358393Y-86047227D01*
X160357692Y-86052516D01*
X160342304Y-86168623D01*
X160328102Y-86275774D01*
X160336751Y-86506158D01*
X160384093Y-86731791D01*
X160468776Y-86946221D01*
X160588377Y-87143317D01*
X160591874Y-87147347D01*
X160678438Y-87247103D01*
X160739477Y-87317445D01*
X160743608Y-87320832D01*
X160913627Y-87460240D01*
X160913633Y-87460244D01*
X160917755Y-87463624D01*
X160949250Y-87481552D01*
X160998555Y-87532632D01*
X161012417Y-87602262D01*
X160986434Y-87668333D01*
X160957284Y-87695573D01*
X160835681Y-87777441D01*
X160668865Y-87936576D01*
X160531246Y-88121542D01*
X160426760Y-88327051D01*
X160425178Y-88332145D01*
X160425177Y-88332148D01*
X160363115Y-88532020D01*
X160358393Y-88547227D01*
X160357692Y-88552516D01*
X160342304Y-88668623D01*
X160328102Y-88775774D01*
X121158000Y-88775774D01*
X121158000Y-79364343D01*
X122553775Y-79364343D01*
X122570381Y-79533699D01*
X122624094Y-79695167D01*
X122627741Y-79701189D01*
X122627742Y-79701191D01*
X122706158Y-79830670D01*
X122712246Y-79840723D01*
X122830455Y-79963132D01*
X122836351Y-79966990D01*
X122960835Y-80048450D01*
X122972846Y-80056310D01*
X122979450Y-80058766D01*
X122979452Y-80058767D01*
X123015844Y-80072301D01*
X123132341Y-80115626D01*
X123301015Y-80138132D01*
X123308026Y-80137494D01*
X123308030Y-80137494D01*
X123463462Y-80123348D01*
X123470483Y-80122709D01*
X123477185Y-80120531D01*
X123477187Y-80120531D01*
X123625623Y-80072301D01*
X123625626Y-80072300D01*
X123632322Y-80070124D01*
X123702531Y-80028271D01*
X123767048Y-80010500D01*
X126910390Y-80010500D01*
X126978511Y-80030502D01*
X127025004Y-80084158D01*
X127035108Y-80154432D01*
X127016302Y-80204755D01*
X126951304Y-80305610D01*
X126924086Y-80380392D01*
X126908138Y-80424209D01*
X126893103Y-80465516D01*
X126871775Y-80634343D01*
X126888381Y-80803699D01*
X126942094Y-80965167D01*
X126945743Y-80971192D01*
X126981276Y-81029864D01*
X126999500Y-81095136D01*
X126999500Y-81726577D01*
X126979498Y-81794698D01*
X126962595Y-81815672D01*
X124968000Y-83810267D01*
X124919510Y-83840450D01*
X124776673Y-83889075D01*
X124776670Y-83889076D01*
X124770003Y-83891346D01*
X124764005Y-83895036D01*
X124764003Y-83895037D01*
X124631065Y-83976821D01*
X124631063Y-83976823D01*
X124625066Y-83980512D01*
X124503486Y-84099573D01*
X124411304Y-84242610D01*
X124353103Y-84402516D01*
X124331775Y-84571343D01*
X124348381Y-84740699D01*
X124402094Y-84902167D01*
X124405741Y-84908189D01*
X124405742Y-84908191D01*
X124481107Y-85032632D01*
X124490246Y-85047723D01*
X124608455Y-85170132D01*
X124750846Y-85263310D01*
X124757450Y-85265766D01*
X124757452Y-85265767D01*
X124830594Y-85292968D01*
X124910341Y-85322626D01*
X125079015Y-85345132D01*
X125086026Y-85344494D01*
X125086030Y-85344494D01*
X125241462Y-85330348D01*
X125248483Y-85329709D01*
X125255185Y-85327531D01*
X125255187Y-85327531D01*
X125403623Y-85279301D01*
X125403626Y-85279300D01*
X125410322Y-85277124D01*
X125556490Y-85189990D01*
X125561584Y-85185139D01*
X125561588Y-85185136D01*
X125628833Y-85121099D01*
X125679721Y-85072639D01*
X125773891Y-84930902D01*
X125815703Y-84820832D01*
X125831819Y-84778407D01*
X125831820Y-84778405D01*
X125834319Y-84771825D01*
X125835245Y-84765239D01*
X125868109Y-84707623D01*
X128028477Y-82547255D01*
X128036803Y-82539678D01*
X128043303Y-82535553D01*
X128090101Y-82485718D01*
X128092855Y-82482877D01*
X128112638Y-82463094D01*
X128115129Y-82459883D01*
X128122838Y-82450856D01*
X128147789Y-82424286D01*
X128153217Y-82418506D01*
X128163022Y-82400671D01*
X128173876Y-82384147D01*
X128181491Y-82374330D01*
X128181492Y-82374329D01*
X128186349Y-82368067D01*
X128203969Y-82327350D01*
X128209192Y-82316689D01*
X128226749Y-82284753D01*
X128226751Y-82284748D01*
X128230569Y-82277803D01*
X128232539Y-82270129D01*
X128232542Y-82270122D01*
X128235632Y-82258087D01*
X128242036Y-82239382D01*
X128246967Y-82227987D01*
X128250117Y-82220708D01*
X128257060Y-82176873D01*
X128259467Y-82165251D01*
X128267519Y-82133891D01*
X128270500Y-82122282D01*
X128270500Y-82101935D01*
X128272051Y-82082224D01*
X128273995Y-82069950D01*
X128275235Y-82062121D01*
X128271059Y-82017944D01*
X128270500Y-82006086D01*
X128270500Y-81097252D01*
X128291552Y-81027525D01*
X128309990Y-80999773D01*
X128313891Y-80993902D01*
X128374319Y-80834825D01*
X128398001Y-80666313D01*
X128398299Y-80645000D01*
X128379331Y-80475892D01*
X128323368Y-80315189D01*
X128253431Y-80203268D01*
X128234296Y-80134902D01*
X128255161Y-80067040D01*
X128309402Y-80021232D01*
X128360286Y-80010500D01*
X132780578Y-80010500D01*
X132848699Y-80030502D01*
X132869673Y-80047405D01*
X135627036Y-82804768D01*
X135657499Y-82854091D01*
X135667492Y-82884132D01*
X135705094Y-82997167D01*
X135708741Y-83003189D01*
X135708742Y-83003191D01*
X135729556Y-83037558D01*
X135793246Y-83142723D01*
X135911455Y-83265132D01*
X136053846Y-83358310D01*
X136060450Y-83360766D01*
X136060452Y-83360767D01*
X136096844Y-83374301D01*
X136213341Y-83417626D01*
X136382015Y-83440132D01*
X136389026Y-83439494D01*
X136389030Y-83439494D01*
X136544462Y-83425348D01*
X136551483Y-83424709D01*
X136558185Y-83422531D01*
X136558187Y-83422531D01*
X136706623Y-83374301D01*
X136706626Y-83374300D01*
X136713322Y-83372124D01*
X136859490Y-83284990D01*
X136864584Y-83280139D01*
X136864588Y-83280136D01*
X136931833Y-83216099D01*
X136982721Y-83167639D01*
X137076891Y-83025902D01*
X137137319Y-82866825D01*
X137161001Y-82698313D01*
X137161152Y-82687526D01*
X137161244Y-82680961D01*
X137161244Y-82680955D01*
X137161299Y-82677000D01*
X137142331Y-82507892D01*
X137134647Y-82485825D01*
X137108783Y-82411557D01*
X137086368Y-82347189D01*
X137070143Y-82321223D01*
X137038244Y-82270176D01*
X136996192Y-82202879D01*
X136876286Y-82082132D01*
X136857091Y-82069950D01*
X136775142Y-82017944D01*
X136732608Y-81990951D01*
X136572300Y-81933868D01*
X136573167Y-81931433D01*
X136523545Y-81903812D01*
X135377584Y-80757851D01*
X138051719Y-80757851D01*
X138068268Y-80954934D01*
X138122783Y-81145050D01*
X138213187Y-81320956D01*
X138336035Y-81475953D01*
X138486650Y-81604136D01*
X138659294Y-81700624D01*
X138847392Y-81761740D01*
X138990182Y-81778767D01*
X139041563Y-81784894D01*
X139106836Y-81812822D01*
X139146649Y-81871605D01*
X139148361Y-81942581D01*
X139143091Y-81956533D01*
X139143304Y-81956610D01*
X139085103Y-82116516D01*
X139063775Y-82285343D01*
X139080381Y-82454699D01*
X139082605Y-82461384D01*
X139082605Y-82461385D01*
X139090225Y-82484291D01*
X139134094Y-82616167D01*
X139137741Y-82622189D01*
X139137742Y-82622191D01*
X139216312Y-82751924D01*
X139222246Y-82761723D01*
X139340455Y-82884132D01*
X139482846Y-82977310D01*
X139489450Y-82979766D01*
X139489452Y-82979767D01*
X139562594Y-83006968D01*
X139642341Y-83036626D01*
X139811015Y-83059132D01*
X139818026Y-83058494D01*
X139818030Y-83058494D01*
X139973462Y-83044348D01*
X139980483Y-83043709D01*
X139987185Y-83041531D01*
X139987187Y-83041531D01*
X140135623Y-82993301D01*
X140135626Y-82993300D01*
X140142322Y-82991124D01*
X140288490Y-82903990D01*
X140293584Y-82899139D01*
X140293588Y-82899136D01*
X140379788Y-82817048D01*
X140411721Y-82786639D01*
X140505891Y-82644902D01*
X140566319Y-82485825D01*
X140590001Y-82317313D01*
X140590299Y-82296000D01*
X140571331Y-82126892D01*
X140515368Y-81966189D01*
X140509383Y-81956610D01*
X140476390Y-81903812D01*
X140425192Y-81821879D01*
X140305286Y-81701132D01*
X140161608Y-81609951D01*
X140001300Y-81552868D01*
X139994305Y-81552034D01*
X139994301Y-81552033D01*
X139984302Y-81550841D01*
X139982673Y-81550647D01*
X139917399Y-81522721D01*
X139877586Y-81463938D01*
X139875873Y-81392962D01*
X139893104Y-81356160D01*
X139893078Y-81356145D01*
X139893265Y-81355815D01*
X139990769Y-81184179D01*
X140053197Y-80996513D01*
X140077985Y-80800295D01*
X140078380Y-80772000D01*
X140059080Y-80575167D01*
X140001916Y-80385831D01*
X139909066Y-80211204D01*
X139835115Y-80120531D01*
X139787960Y-80062713D01*
X139787957Y-80062710D01*
X139784065Y-80057938D01*
X139776555Y-80051725D01*
X139636425Y-79935799D01*
X139636421Y-79935797D01*
X139631675Y-79931870D01*
X139457701Y-79837802D01*
X139268768Y-79779318D01*
X139262643Y-79778674D01*
X139262642Y-79778674D01*
X139078204Y-79759289D01*
X139078202Y-79759289D01*
X139072075Y-79758645D01*
X138989576Y-79766153D01*
X138881251Y-79776011D01*
X138881248Y-79776012D01*
X138875112Y-79776570D01*
X138869206Y-79778308D01*
X138869202Y-79778309D01*
X138764076Y-79809249D01*
X138685381Y-79832410D01*
X138679923Y-79835263D01*
X138679919Y-79835265D01*
X138659793Y-79845787D01*
X138510110Y-79924040D01*
X138355975Y-80047968D01*
X138352011Y-80052692D01*
X138343602Y-80062713D01*
X138228846Y-80199474D01*
X138225879Y-80204872D01*
X138225875Y-80204877D01*
X138161572Y-80321846D01*
X138133567Y-80372787D01*
X138131706Y-80378654D01*
X138131705Y-80378656D01*
X138102971Y-80469238D01*
X138073765Y-80561306D01*
X138051719Y-80757851D01*
X135377584Y-80757851D01*
X133601250Y-78981517D01*
X133593674Y-78973191D01*
X133589553Y-78966697D01*
X133539734Y-78919914D01*
X133536893Y-78917160D01*
X133517094Y-78897361D01*
X133513969Y-78894937D01*
X133513960Y-78894929D01*
X133513874Y-78894863D01*
X133504849Y-78887155D01*
X133478285Y-78862210D01*
X133472506Y-78856783D01*
X133454669Y-78846977D01*
X133438153Y-78836127D01*
X133422067Y-78823650D01*
X133381334Y-78806024D01*
X133370686Y-78800807D01*
X133359058Y-78794415D01*
X133331803Y-78779431D01*
X133324128Y-78777460D01*
X133324122Y-78777458D01*
X133312089Y-78774369D01*
X133293387Y-78767966D01*
X133274708Y-78759883D01*
X133240872Y-78754524D01*
X133230873Y-78752940D01*
X133219260Y-78750535D01*
X133176282Y-78739500D01*
X133155935Y-78739500D01*
X133136224Y-78737949D01*
X133123950Y-78736005D01*
X133116121Y-78734765D01*
X133108229Y-78735511D01*
X133071944Y-78738941D01*
X133060086Y-78739500D01*
X123767866Y-78739500D01*
X123700352Y-78719885D01*
X123657562Y-78692729D01*
X123657558Y-78692727D01*
X123651608Y-78688951D01*
X123491300Y-78631868D01*
X123322329Y-78611720D01*
X123315326Y-78612456D01*
X123315325Y-78612456D01*
X123160101Y-78628770D01*
X123160097Y-78628771D01*
X123153093Y-78629507D01*
X123146422Y-78631778D01*
X122998673Y-78682075D01*
X122998670Y-78682076D01*
X122992003Y-78684346D01*
X122986005Y-78688036D01*
X122986003Y-78688037D01*
X122853065Y-78769821D01*
X122853063Y-78769823D01*
X122847066Y-78773512D01*
X122842033Y-78778441D01*
X122731019Y-78887155D01*
X122725486Y-78892573D01*
X122721675Y-78898487D01*
X122721673Y-78898489D01*
X122668165Y-78981517D01*
X122633304Y-79035610D01*
X122575103Y-79195516D01*
X122553775Y-79364343D01*
X121158000Y-79364343D01*
X121158000Y-74427703D01*
X122985743Y-74427703D01*
X123023268Y-74712734D01*
X123099129Y-74990036D01*
X123211923Y-75254476D01*
X123359561Y-75501161D01*
X123539313Y-75725528D01*
X123747851Y-75923423D01*
X123981317Y-76091186D01*
X123985112Y-76093195D01*
X123985113Y-76093196D01*
X124006869Y-76104715D01*
X124235392Y-76225712D01*
X124505373Y-76324511D01*
X124786264Y-76385755D01*
X124814841Y-76388004D01*
X125009282Y-76403307D01*
X125009291Y-76403307D01*
X125011739Y-76403500D01*
X125167271Y-76403500D01*
X125169407Y-76403354D01*
X125169418Y-76403354D01*
X125377548Y-76389165D01*
X125377554Y-76389164D01*
X125381825Y-76388873D01*
X125386020Y-76388004D01*
X125386022Y-76388004D01*
X125522584Y-76359723D01*
X125663342Y-76330574D01*
X125934343Y-76234607D01*
X126189812Y-76102750D01*
X126193313Y-76100289D01*
X126193317Y-76100287D01*
X126307417Y-76020096D01*
X126425023Y-75937441D01*
X126635622Y-75741740D01*
X126817713Y-75519268D01*
X126967927Y-75274142D01*
X127083483Y-75010898D01*
X127162244Y-74734406D01*
X127202751Y-74449784D01*
X127202845Y-74431951D01*
X127202867Y-74427703D01*
X159180743Y-74427703D01*
X159218268Y-74712734D01*
X159294129Y-74990036D01*
X159406923Y-75254476D01*
X159554561Y-75501161D01*
X159734313Y-75725528D01*
X159942851Y-75923423D01*
X160176317Y-76091186D01*
X160180112Y-76093195D01*
X160180113Y-76093196D01*
X160201869Y-76104715D01*
X160430392Y-76225712D01*
X160700373Y-76324511D01*
X160981264Y-76385755D01*
X161009841Y-76388004D01*
X161204282Y-76403307D01*
X161204291Y-76403307D01*
X161206739Y-76403500D01*
X161362271Y-76403500D01*
X161364407Y-76403354D01*
X161364418Y-76403354D01*
X161572548Y-76389165D01*
X161572554Y-76389164D01*
X161576825Y-76388873D01*
X161581020Y-76388004D01*
X161581022Y-76388004D01*
X161717584Y-76359723D01*
X161858342Y-76330574D01*
X162129343Y-76234607D01*
X162384812Y-76102750D01*
X162388313Y-76100289D01*
X162388317Y-76100287D01*
X162502417Y-76020096D01*
X162620023Y-75937441D01*
X162830622Y-75741740D01*
X163012713Y-75519268D01*
X163162927Y-75274142D01*
X163278483Y-75010898D01*
X163357244Y-74734406D01*
X163397751Y-74449784D01*
X163397845Y-74431951D01*
X163399235Y-74166583D01*
X163399235Y-74166576D01*
X163399257Y-74162297D01*
X163361732Y-73877266D01*
X163285871Y-73599964D01*
X163215124Y-73434101D01*
X163174763Y-73339476D01*
X163174761Y-73339472D01*
X163173077Y-73335524D01*
X163025439Y-73088839D01*
X162845687Y-72864472D01*
X162637149Y-72666577D01*
X162403683Y-72498814D01*
X162398386Y-72496009D01*
X162358654Y-72474972D01*
X162149608Y-72364288D01*
X161918739Y-72279802D01*
X161883658Y-72266964D01*
X161883656Y-72266963D01*
X161879627Y-72265489D01*
X161598736Y-72204245D01*
X161560096Y-72201204D01*
X161375718Y-72186693D01*
X161375709Y-72186693D01*
X161373261Y-72186500D01*
X161217729Y-72186500D01*
X161215593Y-72186646D01*
X161215582Y-72186646D01*
X161007452Y-72200835D01*
X161007446Y-72200836D01*
X161003175Y-72201127D01*
X160998980Y-72201996D01*
X160998978Y-72201996D01*
X160875674Y-72227531D01*
X160721658Y-72259426D01*
X160450657Y-72355393D01*
X160195188Y-72487250D01*
X160191687Y-72489711D01*
X160191683Y-72489713D01*
X160127197Y-72535035D01*
X159959977Y-72652559D01*
X159749378Y-72848260D01*
X159567287Y-73070732D01*
X159417073Y-73315858D01*
X159301517Y-73579102D01*
X159300342Y-73583229D01*
X159300341Y-73583230D01*
X159296699Y-73596016D01*
X159222756Y-73855594D01*
X159182249Y-74140216D01*
X159182227Y-74144505D01*
X159182226Y-74144512D01*
X159180765Y-74423417D01*
X159180743Y-74427703D01*
X127202867Y-74427703D01*
X127204235Y-74166583D01*
X127204235Y-74166576D01*
X127204257Y-74162297D01*
X127166732Y-73877266D01*
X127090871Y-73599964D01*
X127020124Y-73434101D01*
X126979763Y-73339476D01*
X126979761Y-73339472D01*
X126978077Y-73335524D01*
X126896878Y-73199851D01*
X149842719Y-73199851D01*
X149859268Y-73396934D01*
X149871191Y-73438513D01*
X149911504Y-73579102D01*
X149913783Y-73587050D01*
X150004187Y-73762956D01*
X150127035Y-73917953D01*
X150131728Y-73921947D01*
X150131729Y-73921948D01*
X150143234Y-73931739D01*
X150277650Y-74046136D01*
X150450294Y-74142624D01*
X150638392Y-74203740D01*
X150834777Y-74227158D01*
X150840912Y-74226686D01*
X150840914Y-74226686D01*
X151025830Y-74212457D01*
X151025834Y-74212456D01*
X151031972Y-74211984D01*
X151222463Y-74158798D01*
X151227967Y-74156018D01*
X151227969Y-74156017D01*
X151393495Y-74072404D01*
X151393497Y-74072403D01*
X151398996Y-74069625D01*
X151554847Y-73947861D01*
X151684078Y-73798145D01*
X151781769Y-73626179D01*
X151844197Y-73438513D01*
X151868985Y-73242295D01*
X151869380Y-73214000D01*
X151850080Y-73017167D01*
X151792916Y-72827831D01*
X151700066Y-72653204D01*
X151607843Y-72540128D01*
X151578960Y-72504713D01*
X151578957Y-72504710D01*
X151575065Y-72499938D01*
X151568724Y-72494692D01*
X151427425Y-72377799D01*
X151427421Y-72377797D01*
X151422675Y-72373870D01*
X151248701Y-72279802D01*
X151059768Y-72221318D01*
X151053643Y-72220674D01*
X151053642Y-72220674D01*
X150869204Y-72201289D01*
X150869202Y-72201289D01*
X150863075Y-72200645D01*
X150780576Y-72208153D01*
X150672251Y-72218011D01*
X150672248Y-72218012D01*
X150666112Y-72218570D01*
X150660206Y-72220308D01*
X150660202Y-72220309D01*
X150555076Y-72251249D01*
X150476381Y-72274410D01*
X150470923Y-72277263D01*
X150470919Y-72277265D01*
X150380147Y-72324720D01*
X150301110Y-72366040D01*
X150146975Y-72489968D01*
X150019846Y-72641474D01*
X150016879Y-72646872D01*
X150016875Y-72646877D01*
X149938095Y-72790180D01*
X149924567Y-72814787D01*
X149922706Y-72820654D01*
X149922705Y-72820656D01*
X149866627Y-72997436D01*
X149864765Y-73003306D01*
X149842719Y-73199851D01*
X126896878Y-73199851D01*
X126830439Y-73088839D01*
X126650687Y-72864472D01*
X126442149Y-72666577D01*
X126208683Y-72498814D01*
X126203386Y-72496009D01*
X126163654Y-72474972D01*
X125954608Y-72364288D01*
X125723739Y-72279802D01*
X125688658Y-72266964D01*
X125688656Y-72266963D01*
X125684627Y-72265489D01*
X125403736Y-72204245D01*
X125365096Y-72201204D01*
X125180718Y-72186693D01*
X125180709Y-72186693D01*
X125178261Y-72186500D01*
X125022729Y-72186500D01*
X125020593Y-72186646D01*
X125020582Y-72186646D01*
X124812452Y-72200835D01*
X124812446Y-72200836D01*
X124808175Y-72201127D01*
X124803980Y-72201996D01*
X124803978Y-72201996D01*
X124680674Y-72227531D01*
X124526658Y-72259426D01*
X124255657Y-72355393D01*
X124000188Y-72487250D01*
X123996687Y-72489711D01*
X123996683Y-72489713D01*
X123932197Y-72535035D01*
X123764977Y-72652559D01*
X123554378Y-72848260D01*
X123372287Y-73070732D01*
X123222073Y-73315858D01*
X123106517Y-73579102D01*
X123105342Y-73583229D01*
X123105341Y-73583230D01*
X123101699Y-73596016D01*
X123027756Y-73855594D01*
X122987249Y-74140216D01*
X122987227Y-74144505D01*
X122987226Y-74144512D01*
X122985765Y-74423417D01*
X122985743Y-74427703D01*
X121158000Y-74427703D01*
X121158000Y-74344328D01*
X121159500Y-74324943D01*
X121161805Y-74310142D01*
X121161805Y-74310139D01*
X121163186Y-74301270D01*
X121160584Y-74281374D01*
X121159654Y-74259216D01*
X121174525Y-73937557D01*
X121175599Y-73925968D01*
X121224231Y-73577342D01*
X121226370Y-73565903D01*
X121306958Y-73223260D01*
X121310143Y-73212065D01*
X121310670Y-73210495D01*
X121422006Y-72878315D01*
X121426210Y-72867463D01*
X121568391Y-72545453D01*
X121573571Y-72535048D01*
X121744867Y-72227513D01*
X121750983Y-72217636D01*
X121772180Y-72186693D01*
X121949914Y-71927233D01*
X121956928Y-71917945D01*
X122181806Y-71647135D01*
X122189647Y-71638535D01*
X122438535Y-71389647D01*
X122447135Y-71381806D01*
X122717945Y-71156928D01*
X122727233Y-71149914D01*
X123017636Y-70950983D01*
X123027513Y-70944867D01*
X123335048Y-70773571D01*
X123345453Y-70768391D01*
X123667463Y-70626210D01*
X123678315Y-70622006D01*
X123845190Y-70566075D01*
X124012074Y-70510140D01*
X124023256Y-70506959D01*
X124172512Y-70471855D01*
X124365903Y-70426370D01*
X124377342Y-70424231D01*
X124725968Y-70375599D01*
X124737556Y-70374525D01*
X124762609Y-70373367D01*
X125051816Y-70359997D01*
X125077015Y-70361362D01*
X125079858Y-70361805D01*
X125079860Y-70361805D01*
X125088730Y-70363186D01*
X125097632Y-70362022D01*
X125097635Y-70362022D01*
X125120251Y-70359064D01*
X125136589Y-70358000D01*
X161272582Y-70358000D01*
X161291967Y-70359500D01*
G37*
%TD.AperFunction*%
%TD*%
M02*
