%TF.GenerationSoftware,KiCad,Pcbnew,(6.0.1-0)*%
%TF.CreationDate,2022-10-07T23:17:41-05:00*%
%TF.ProjectId,tackle_sensor_hardware,7461636b-6c65-45f7-9365-6e736f725f68,rev?*%
%TF.SameCoordinates,Original*%
%TF.FileFunction,Soldermask,Bot*%
%TF.FilePolarity,Negative*%
%FSLAX46Y46*%
G04 Gerber Fmt 4.6, Leading zero omitted, Abs format (unit mm)*
G04 Created by KiCad (PCBNEW (6.0.1-0)) date 2022-10-07 23:17:41*
%MOMM*%
%LPD*%
G01*
G04 APERTURE LIST*
G04 Aperture macros list*
%AMRoundRect*
0 Rectangle with rounded corners*
0 $1 Rounding radius*
0 $2 $3 $4 $5 $6 $7 $8 $9 X,Y pos of 4 corners*
0 Add a 4 corners polygon primitive as box body*
4,1,4,$2,$3,$4,$5,$6,$7,$8,$9,$2,$3,0*
0 Add four circle primitives for the rounded corners*
1,1,$1+$1,$2,$3*
1,1,$1+$1,$4,$5*
1,1,$1+$1,$6,$7*
1,1,$1+$1,$8,$9*
0 Add four rect primitives between the rounded corners*
20,1,$1+$1,$2,$3,$4,$5,0*
20,1,$1+$1,$4,$5,$6,$7,0*
20,1,$1+$1,$6,$7,$8,$9,0*
20,1,$1+$1,$8,$9,$2,$3,0*%
G04 Aperture macros list end*
%ADD10RoundRect,0.250000X-0.725000X0.600000X-0.725000X-0.600000X0.725000X-0.600000X0.725000X0.600000X0*%
%ADD11O,1.950000X1.700000*%
%ADD12C,3.200000*%
%ADD13RoundRect,0.250000X0.750000X-0.600000X0.750000X0.600000X-0.750000X0.600000X-0.750000X-0.600000X0*%
%ADD14O,2.000000X1.700000*%
%ADD15C,1.000000*%
G04 APERTURE END LIST*
%TO.C,G\u002A\u002A\u002A*%
G36*
X141115317Y-89726436D02*
G01*
X141093288Y-89783641D01*
X141059318Y-89828426D01*
X140967377Y-89950689D01*
X140828230Y-90136195D01*
X140651098Y-90372642D01*
X140445199Y-90647727D01*
X140219756Y-90949148D01*
X140026132Y-91206926D01*
X139818145Y-91480968D01*
X139637745Y-91715576D01*
X139493991Y-91899083D01*
X139395938Y-92019822D01*
X139352645Y-92066127D01*
X139339545Y-92076232D01*
X139271479Y-92155082D01*
X139167018Y-92292895D01*
X139042846Y-92468025D01*
X139024247Y-92494795D01*
X138920199Y-92641289D01*
X138766153Y-92855228D01*
X138572835Y-93121953D01*
X138350973Y-93426803D01*
X138111294Y-93755120D01*
X137864525Y-94092241D01*
X137621393Y-94423508D01*
X137392625Y-94734260D01*
X137188949Y-95009837D01*
X137021091Y-95235580D01*
X136899779Y-95396827D01*
X136878407Y-95423209D01*
X136858636Y-95438021D01*
X136842432Y-95429822D01*
X136829460Y-95390195D01*
X136819388Y-95310725D01*
X136811879Y-95182994D01*
X136806602Y-94998587D01*
X136803223Y-94749088D01*
X136801406Y-94426081D01*
X136800819Y-94021149D01*
X136801128Y-93525877D01*
X136801998Y-92931848D01*
X136802170Y-92840736D01*
X136804051Y-92340914D01*
X136807337Y-91884817D01*
X136811853Y-91481508D01*
X136817428Y-91140053D01*
X136823890Y-90869515D01*
X136831065Y-90678958D01*
X136838782Y-90577446D01*
X136846867Y-90574042D01*
X136871405Y-90702114D01*
X136923379Y-90924350D01*
X136983642Y-91144277D01*
X137042551Y-91327608D01*
X137090461Y-91440058D01*
X137130303Y-91501998D01*
X137234616Y-91641668D01*
X137348772Y-91774809D01*
X137448830Y-91874452D01*
X137510851Y-91913629D01*
X137535079Y-91956618D01*
X137550964Y-92095846D01*
X137557383Y-92334890D01*
X137554535Y-92677236D01*
X137540204Y-93440920D01*
X137956434Y-93006114D01*
X138056519Y-92901084D01*
X138241354Y-92706087D01*
X138478431Y-92455225D01*
X138755907Y-92161054D01*
X139061943Y-91836131D01*
X139384697Y-91493012D01*
X139712325Y-91144253D01*
X139715279Y-91141107D01*
X140022161Y-90815541D01*
X140306718Y-90516172D01*
X140560497Y-90251705D01*
X140775042Y-90030844D01*
X140941901Y-89862291D01*
X141052618Y-89754751D01*
X141098739Y-89716928D01*
X141115317Y-89726436D01*
G37*
G36*
X138720975Y-82539630D02*
G01*
X138721005Y-82556155D01*
X138721135Y-82645616D01*
X138716894Y-82724014D01*
X138702354Y-82801075D01*
X138671586Y-82886528D01*
X138618662Y-82990103D01*
X138537653Y-83121527D01*
X138422631Y-83290529D01*
X138267668Y-83506837D01*
X138066833Y-83780181D01*
X137814200Y-84120287D01*
X137503839Y-84536886D01*
X136791861Y-85492767D01*
X136791861Y-84243607D01*
X137039287Y-83939099D01*
X137083001Y-83885795D01*
X137268498Y-83667210D01*
X137482389Y-83424352D01*
X137710596Y-83172261D01*
X137939040Y-82925980D01*
X138153642Y-82700552D01*
X138340324Y-82511016D01*
X138485007Y-82372417D01*
X138573612Y-82299795D01*
X138720975Y-82208489D01*
X138720975Y-82539630D01*
G37*
G36*
X138738619Y-98025514D02*
G01*
X138738524Y-98096403D01*
X138732145Y-98242396D01*
X138720535Y-98437823D01*
X138693302Y-98853156D01*
X137818285Y-100026465D01*
X137809252Y-100038580D01*
X137578370Y-100349510D01*
X137368767Y-100634168D01*
X137189056Y-100880668D01*
X137047852Y-101077123D01*
X136953768Y-101211646D01*
X136915418Y-101272351D01*
X136879482Y-101341255D01*
X136841890Y-101336588D01*
X136814426Y-101229117D01*
X136797585Y-101021073D01*
X136791861Y-100714688D01*
X136791861Y-100084449D01*
X137759641Y-99053507D01*
X138009334Y-98787884D01*
X138243456Y-98539563D01*
X138443019Y-98328668D01*
X138598346Y-98165397D01*
X138699763Y-98059950D01*
X138737595Y-98022528D01*
X138738619Y-98025514D01*
G37*
G36*
X138730589Y-106611000D02*
G01*
X138713411Y-106999292D01*
X138033965Y-107913155D01*
X138008924Y-107946839D01*
X137785711Y-108247369D01*
X137566995Y-108542292D01*
X137367652Y-108811518D01*
X137202557Y-109034957D01*
X137086587Y-109192520D01*
X136818654Y-109558022D01*
X136803519Y-108930164D01*
X136788383Y-108302307D01*
X137241902Y-107784271D01*
X137431496Y-107572628D01*
X137696094Y-107287101D01*
X137971473Y-106998299D01*
X138221595Y-106744473D01*
X138747768Y-106222709D01*
X138730589Y-106611000D01*
G37*
G36*
X143396557Y-107049184D02*
G01*
X143578309Y-107145779D01*
X143589758Y-107156577D01*
X143666701Y-107301384D01*
X143671402Y-107482837D01*
X143608668Y-107666861D01*
X143483305Y-107819382D01*
X143456458Y-107841838D01*
X143353058Y-107962937D01*
X143342536Y-108076660D01*
X143428128Y-108195811D01*
X143613066Y-108333195D01*
X143745845Y-108422276D01*
X143885656Y-108526201D01*
X143967373Y-108599779D01*
X144008247Y-108668436D01*
X144004524Y-108765769D01*
X143929842Y-108828963D01*
X143806470Y-108843917D01*
X143656679Y-108796527D01*
X143614642Y-108779243D01*
X143472798Y-108741580D01*
X143297309Y-108710863D01*
X143032321Y-108675711D01*
X142158247Y-109559369D01*
X142063059Y-109655298D01*
X141760801Y-109954475D01*
X141522034Y-110180577D01*
X141340624Y-110339041D01*
X141210441Y-110435301D01*
X141125351Y-110474792D01*
X141017136Y-110516293D01*
X140982465Y-110577225D01*
X140982703Y-110578939D01*
X140947800Y-110644317D01*
X140848733Y-110764022D01*
X140700163Y-110921582D01*
X140516749Y-111100525D01*
X140342320Y-111264593D01*
X140113219Y-111480452D01*
X139902378Y-111679472D01*
X139739744Y-111833405D01*
X139444393Y-112113655D01*
X139682652Y-112114734D01*
X139888311Y-112141240D01*
X140121594Y-112254888D01*
X140248249Y-112331275D01*
X140358918Y-112356287D01*
X140410079Y-112294476D01*
X140405626Y-112144328D01*
X140398453Y-112099486D01*
X140393351Y-112029238D01*
X140413936Y-111978830D01*
X140476167Y-111940512D01*
X140596008Y-111906532D01*
X140789418Y-111869142D01*
X141072358Y-111820592D01*
X141575007Y-111734992D01*
X141752913Y-111929220D01*
X141845715Y-112021968D01*
X141962314Y-112095647D01*
X142080855Y-112106235D01*
X142090702Y-112105059D01*
X142183584Y-112079559D01*
X142227961Y-112012360D01*
X142246906Y-111870738D01*
X142258166Y-111760251D01*
X142291105Y-111678202D01*
X142371636Y-111629235D01*
X142528112Y-111584488D01*
X142601318Y-111563752D01*
X142774868Y-111483651D01*
X142881069Y-111367946D01*
X142912904Y-111319421D01*
X143090407Y-111155076D01*
X143313596Y-111064377D01*
X143557287Y-111046334D01*
X143796293Y-111099956D01*
X144005429Y-111224253D01*
X144159510Y-111418233D01*
X144175015Y-111450415D01*
X144212861Y-111576679D01*
X144223151Y-111741316D01*
X144208818Y-111977616D01*
X144198359Y-112150954D01*
X144196811Y-112382052D01*
X144206510Y-112604235D01*
X144225592Y-112792955D01*
X144252187Y-112923665D01*
X144284430Y-112971816D01*
X144295269Y-112966145D01*
X144347653Y-112895702D01*
X144413540Y-112770867D01*
X144438065Y-112721980D01*
X144563551Y-112553756D01*
X144744060Y-112425628D01*
X144996782Y-112327937D01*
X145338908Y-112251027D01*
X145539189Y-112215306D01*
X145846698Y-112160164D01*
X146180175Y-112100122D01*
X146495753Y-112043067D01*
X146520834Y-112038558D01*
X146783112Y-111995997D01*
X147011730Y-111966704D01*
X147182881Y-111953276D01*
X147272757Y-111958311D01*
X147341996Y-111967983D01*
X147468252Y-111914206D01*
X147592284Y-111852087D01*
X147775376Y-111832177D01*
X147951249Y-111870712D01*
X148024230Y-111882132D01*
X148045026Y-111808334D01*
X148063270Y-111730581D01*
X148138802Y-111621771D01*
X148162539Y-111608216D01*
X148283220Y-111564859D01*
X148484891Y-111506212D01*
X148751116Y-111436659D01*
X149065458Y-111360581D01*
X149411481Y-111282363D01*
X149753908Y-111205492D01*
X150126491Y-111115559D01*
X150417350Y-111037265D01*
X150618518Y-110972786D01*
X150722031Y-110924299D01*
X150829705Y-110865660D01*
X150970980Y-110853121D01*
X151046801Y-110858668D01*
X151114963Y-110813034D01*
X151137762Y-110782359D01*
X151236231Y-110703703D01*
X151379343Y-110617407D01*
X151617042Y-110491308D01*
X152169992Y-110818691D01*
X152378592Y-110948163D01*
X152580153Y-111085745D01*
X152733085Y-111203870D01*
X152814875Y-111286216D01*
X152815186Y-111286690D01*
X152862472Y-111372271D01*
X152880288Y-111460981D01*
X152869807Y-111586437D01*
X152832205Y-111782259D01*
X152786427Y-111964626D01*
X152735708Y-112109173D01*
X152692137Y-112179753D01*
X152622131Y-112212416D01*
X152490493Y-112202016D01*
X152386291Y-112090439D01*
X152364860Y-112053576D01*
X152318155Y-111998960D01*
X152244479Y-111951754D01*
X152124652Y-111903336D01*
X151939492Y-111845083D01*
X151669817Y-111768372D01*
X151519681Y-111728604D01*
X151400246Y-111708466D01*
X151325512Y-111720486D01*
X151263699Y-111764350D01*
X151156113Y-111821325D01*
X151006326Y-111847882D01*
X150903810Y-111870725D01*
X150719853Y-111935646D01*
X150469300Y-112036734D01*
X150166798Y-112168080D01*
X149826994Y-112323773D01*
X149748033Y-112360768D01*
X149442513Y-112502909D01*
X149168219Y-112628993D01*
X148941561Y-112731576D01*
X148778955Y-112803212D01*
X148696812Y-112836456D01*
X148629189Y-112864117D01*
X148589009Y-112918513D01*
X148623641Y-113005876D01*
X148735510Y-113145570D01*
X148756889Y-113171245D01*
X148874078Y-113353147D01*
X148956653Y-113543710D01*
X148975733Y-113611306D01*
X148992673Y-113716305D01*
X148980485Y-113821273D01*
X148933365Y-113958400D01*
X148845504Y-114159874D01*
X148810524Y-114237203D01*
X148712876Y-114445461D01*
X148640265Y-114577422D01*
X148579462Y-114650331D01*
X148517238Y-114681431D01*
X148440363Y-114687966D01*
X148417562Y-114687558D01*
X148348876Y-114668862D01*
X148319295Y-114601135D01*
X148312958Y-114455435D01*
X148312500Y-114405686D01*
X148304065Y-114315059D01*
X148275460Y-114233361D01*
X148214516Y-114144775D01*
X148109062Y-114033484D01*
X147946928Y-113883671D01*
X147715944Y-113679519D01*
X147525485Y-113512294D01*
X147318440Y-113617852D01*
X147267017Y-113643105D01*
X147131689Y-113700495D01*
X147046469Y-113723409D01*
X146982992Y-113745389D01*
X146836055Y-113807739D01*
X146619046Y-113904445D01*
X146345274Y-114029494D01*
X146028048Y-114176871D01*
X145680676Y-114340564D01*
X145679491Y-114341126D01*
X145332945Y-114503817D01*
X145017053Y-114648862D01*
X144744989Y-114770474D01*
X144529926Y-114862865D01*
X144385036Y-114920248D01*
X144323494Y-114936836D01*
X144248638Y-114954162D01*
X144146454Y-115025792D01*
X143987810Y-115115011D01*
X143788024Y-115146001D01*
X143579123Y-115122092D01*
X143389290Y-115050163D01*
X143246708Y-114937093D01*
X143179559Y-114789763D01*
X143155439Y-114671056D01*
X143106075Y-114513810D01*
X143099914Y-114498294D01*
X143060807Y-114425051D01*
X143000227Y-114385578D01*
X142889619Y-114369501D01*
X142700426Y-114366447D01*
X142352372Y-114366447D01*
X142396574Y-115060627D01*
X141992213Y-115147044D01*
X141980178Y-115149620D01*
X141754623Y-115199196D01*
X141546797Y-115246968D01*
X141400300Y-115282928D01*
X141364813Y-115292003D01*
X141271175Y-115305384D01*
X141193534Y-115281563D01*
X141103231Y-115205883D01*
X140971608Y-115063688D01*
X140927348Y-115015111D01*
X140795308Y-114886182D01*
X140698565Y-114827817D01*
X140616659Y-114826336D01*
X140605802Y-114829541D01*
X140550525Y-114861289D01*
X140515558Y-114929168D01*
X140493393Y-115056851D01*
X140476516Y-115268011D01*
X140469694Y-115426427D01*
X140482720Y-115661882D01*
X140535444Y-115814119D01*
X140633939Y-115896018D01*
X140784282Y-115920456D01*
X140929776Y-115941549D01*
X141072265Y-116011172D01*
X141157153Y-116110605D01*
X141159861Y-116220232D01*
X141138713Y-116287881D01*
X141128042Y-116419326D01*
X141127852Y-116474550D01*
X141092175Y-116580085D01*
X141089230Y-116584314D01*
X141053792Y-116684684D01*
X141032967Y-116829321D01*
X141031519Y-116850461D01*
X141005685Y-116981461D01*
X140939010Y-117056541D01*
X140809836Y-117088680D01*
X140596503Y-117090857D01*
X140493973Y-117089973D01*
X140268650Y-117100233D01*
X140079939Y-117123048D01*
X139946900Y-117141100D01*
X139839020Y-117123751D01*
X139747247Y-117053900D01*
X139722089Y-117030663D01*
X139585691Y-116929779D01*
X139424888Y-116835145D01*
X139237462Y-116715032D01*
X139048934Y-116500008D01*
X138954959Y-116236097D01*
X138922321Y-116031993D01*
X138535748Y-116244157D01*
X138362580Y-116333298D01*
X138097478Y-116434573D01*
X137878981Y-116459368D01*
X137689435Y-116408336D01*
X137511185Y-116282132D01*
X137465880Y-116238575D01*
X137344919Y-116074454D01*
X137290572Y-115880244D01*
X137267947Y-115762415D01*
X137203029Y-115638415D01*
X137072908Y-115536896D01*
X136885786Y-115421248D01*
X136921114Y-115031384D01*
X136956443Y-114641520D01*
X136710403Y-114604624D01*
X136693955Y-114602199D01*
X136535914Y-114589453D01*
X136430105Y-114616588D01*
X136329070Y-114694830D01*
X136294103Y-114726002D01*
X136215322Y-114776847D01*
X136113616Y-114805719D01*
X135960931Y-114818527D01*
X135729211Y-114821181D01*
X135718312Y-114821158D01*
X135473747Y-114815382D01*
X135297057Y-114794717D01*
X135150594Y-114751884D01*
X134996714Y-114679610D01*
X134817580Y-114577185D01*
X134659251Y-114450962D01*
X134558457Y-114304440D01*
X134489779Y-114109006D01*
X134454377Y-113820859D01*
X134499078Y-113471741D01*
X134629125Y-113121525D01*
X134693722Y-113004561D01*
X134848036Y-112813089D01*
X135012765Y-112726794D01*
X135189675Y-112744491D01*
X135198100Y-112747605D01*
X135302150Y-112772963D01*
X135345026Y-112758309D01*
X135347210Y-112747664D01*
X135392946Y-112667108D01*
X135479326Y-112553883D01*
X135567712Y-112470744D01*
X135791069Y-112357480D01*
X136063935Y-112304811D01*
X136360323Y-112313404D01*
X136654247Y-112383922D01*
X136919723Y-112517030D01*
X137106587Y-112643839D01*
X137141034Y-112487000D01*
X137157578Y-112422812D01*
X137197785Y-112360391D01*
X137282072Y-112334981D01*
X137441944Y-112330160D01*
X137531355Y-112329124D01*
X137653726Y-112314583D01*
X137718952Y-112270241D01*
X137760653Y-112180287D01*
X137779875Y-112145827D01*
X137872246Y-112033690D01*
X138026314Y-111872392D01*
X138229455Y-111673161D01*
X138469042Y-111447226D01*
X138732451Y-111205818D01*
X139007057Y-110960165D01*
X139280235Y-110721496D01*
X139539359Y-110501041D01*
X139771803Y-110310028D01*
X139964944Y-110159688D01*
X140106156Y-110061249D01*
X140182813Y-110025941D01*
X140194465Y-110025358D01*
X140298493Y-109982134D01*
X140439192Y-109864499D01*
X140626649Y-109664232D01*
X140766416Y-109507931D01*
X140975641Y-109279879D01*
X141205496Y-109034025D01*
X141426565Y-108802075D01*
X141451345Y-108776350D01*
X141634112Y-108584021D01*
X141788970Y-108416732D01*
X141900234Y-108291670D01*
X141952224Y-108226021D01*
X141978985Y-108191433D01*
X142059397Y-108150286D01*
X142066296Y-108148768D01*
X142130849Y-108091504D01*
X142227083Y-107968028D01*
X142336896Y-107801115D01*
X142501665Y-107560653D01*
X142730216Y-107308854D01*
X142962333Y-107136095D01*
X143187839Y-107047747D01*
X143396557Y-107049184D01*
G37*
%TD*%
D10*
%TO.C,J3*%
X162305000Y-102870000D03*
D11*
X162305000Y-105370000D03*
X162305000Y-107870000D03*
%TD*%
D12*
%TO.C,H3*%
X125095000Y-122555000D03*
%TD*%
D13*
%TO.C,J1*%
X124460000Y-115911000D03*
D14*
X124460000Y-113411000D03*
%TD*%
D12*
%TO.C,H4*%
X161290000Y-122555000D03*
%TD*%
D10*
%TO.C,J2*%
X161815000Y-81340000D03*
D11*
X161815000Y-83840000D03*
X161815000Y-86340000D03*
X161815000Y-88840000D03*
%TD*%
D12*
%TO.C,H2*%
X161290000Y-74295000D03*
%TD*%
%TO.C,H1*%
X125095000Y-74295000D03*
%TD*%
D15*
%TO.C,TP7*%
X163830000Y-117983000D03*
%TD*%
%TO.C,TP5*%
X155067000Y-112268000D03*
%TD*%
%TO.C,TP13*%
X153416000Y-104648000D03*
%TD*%
%TO.C,TP8*%
X154813000Y-122936000D03*
%TD*%
%TO.C,TP6*%
X156464000Y-118110000D03*
%TD*%
%TO.C,TP14*%
X153035000Y-107569000D03*
%TD*%
%TO.C,TP4*%
X152781000Y-119253000D03*
%TD*%
%TO.C,TP9*%
X153543000Y-115951000D03*
%TD*%
M02*
