%TF.GenerationSoftware,KiCad,Pcbnew,(6.0.1-0)*%
%TF.CreationDate,2022-10-07T23:17:41-05:00*%
%TF.ProjectId,tackle_sensor_hardware,7461636b-6c65-45f7-9365-6e736f725f68,rev?*%
%TF.SameCoordinates,Original*%
%TF.FileFunction,Legend,Bot*%
%TF.FilePolarity,Positive*%
%FSLAX46Y46*%
G04 Gerber Fmt 4.6, Leading zero omitted, Abs format (unit mm)*
G04 Created by KiCad (PCBNEW (6.0.1-0)) date 2022-10-07 23:17:41*
%MOMM*%
%LPD*%
G01*
G04 APERTURE LIST*
G04 Aperture macros list*
%AMRoundRect*
0 Rectangle with rounded corners*
0 $1 Rounding radius*
0 $2 $3 $4 $5 $6 $7 $8 $9 X,Y pos of 4 corners*
0 Add a 4 corners polygon primitive as box body*
4,1,4,$2,$3,$4,$5,$6,$7,$8,$9,$2,$3,0*
0 Add four circle primitives for the rounded corners*
1,1,$1+$1,$2,$3*
1,1,$1+$1,$4,$5*
1,1,$1+$1,$6,$7*
1,1,$1+$1,$8,$9*
0 Add four rect primitives between the rounded corners*
20,1,$1+$1,$2,$3,$4,$5,0*
20,1,$1+$1,$4,$5,$6,$7,0*
20,1,$1+$1,$6,$7,$8,$9,0*
20,1,$1+$1,$8,$9,$2,$3,0*%
G04 Aperture macros list end*
%ADD10C,0.150000*%
%ADD11C,0.300000*%
%ADD12C,0.120000*%
%ADD13RoundRect,0.250000X-0.725000X0.600000X-0.725000X-0.600000X0.725000X-0.600000X0.725000X0.600000X0*%
%ADD14O,1.950000X1.700000*%
%ADD15C,3.200000*%
%ADD16RoundRect,0.250000X0.750000X-0.600000X0.750000X0.600000X-0.750000X0.600000X-0.750000X-0.600000X0*%
%ADD17O,2.000000X1.700000*%
%ADD18C,1.000000*%
G04 APERTURE END LIST*
D10*
X147668571Y-120211380D02*
X148001904Y-119735190D01*
X148240000Y-120211380D02*
X148240000Y-119211380D01*
X147859047Y-119211380D01*
X147763809Y-119259000D01*
X147716190Y-119306619D01*
X147668571Y-119401857D01*
X147668571Y-119544714D01*
X147716190Y-119639952D01*
X147763809Y-119687571D01*
X147859047Y-119735190D01*
X148240000Y-119735190D01*
X147097142Y-120211380D02*
X147192380Y-120163761D01*
X147240000Y-120116142D01*
X147287619Y-120020904D01*
X147287619Y-119735190D01*
X147240000Y-119639952D01*
X147192380Y-119592333D01*
X147097142Y-119544714D01*
X146954285Y-119544714D01*
X146859047Y-119592333D01*
X146811428Y-119639952D01*
X146763809Y-119735190D01*
X146763809Y-120020904D01*
X146811428Y-120116142D01*
X146859047Y-120163761D01*
X146954285Y-120211380D01*
X147097142Y-120211380D01*
X146335238Y-120211380D02*
X146335238Y-119211380D01*
X146335238Y-119592333D02*
X146240000Y-119544714D01*
X146049523Y-119544714D01*
X145954285Y-119592333D01*
X145906666Y-119639952D01*
X145859047Y-119735190D01*
X145859047Y-120020904D01*
X145906666Y-120116142D01*
X145954285Y-120163761D01*
X146049523Y-120211380D01*
X146240000Y-120211380D01*
X146335238Y-120163761D01*
X145287619Y-120211380D02*
X145382857Y-120163761D01*
X145430476Y-120116142D01*
X145478095Y-120020904D01*
X145478095Y-119735190D01*
X145430476Y-119639952D01*
X145382857Y-119592333D01*
X145287619Y-119544714D01*
X145144761Y-119544714D01*
X145049523Y-119592333D01*
X145001904Y-119639952D01*
X144954285Y-119735190D01*
X144954285Y-120020904D01*
X145001904Y-120116142D01*
X145049523Y-120163761D01*
X145144761Y-120211380D01*
X145287619Y-120211380D01*
X144668571Y-119544714D02*
X144287619Y-119544714D01*
X144525714Y-119211380D02*
X144525714Y-120068523D01*
X144478095Y-120163761D01*
X144382857Y-120211380D01*
X144287619Y-120211380D01*
X143954285Y-120211380D02*
X143954285Y-119544714D01*
X143954285Y-119211380D02*
X144001904Y-119259000D01*
X143954285Y-119306619D01*
X143906666Y-119259000D01*
X143954285Y-119211380D01*
X143954285Y-119306619D01*
X143049523Y-120163761D02*
X143144761Y-120211380D01*
X143335238Y-120211380D01*
X143430476Y-120163761D01*
X143478095Y-120116142D01*
X143525714Y-120020904D01*
X143525714Y-119735190D01*
X143478095Y-119639952D01*
X143430476Y-119592333D01*
X143335238Y-119544714D01*
X143144761Y-119544714D01*
X143049523Y-119592333D01*
X141525714Y-119687571D02*
X141859047Y-119687571D01*
X141859047Y-120211380D02*
X141859047Y-119211380D01*
X141382857Y-119211380D01*
X140859047Y-120211380D02*
X140954285Y-120163761D01*
X141001904Y-120116142D01*
X141049523Y-120020904D01*
X141049523Y-119735190D01*
X141001904Y-119639952D01*
X140954285Y-119592333D01*
X140859047Y-119544714D01*
X140716190Y-119544714D01*
X140620952Y-119592333D01*
X140573333Y-119639952D01*
X140525714Y-119735190D01*
X140525714Y-120020904D01*
X140573333Y-120116142D01*
X140620952Y-120163761D01*
X140716190Y-120211380D01*
X140859047Y-120211380D01*
X139954285Y-120211380D02*
X140049523Y-120163761D01*
X140097142Y-120116142D01*
X140144761Y-120020904D01*
X140144761Y-119735190D01*
X140097142Y-119639952D01*
X140049523Y-119592333D01*
X139954285Y-119544714D01*
X139811428Y-119544714D01*
X139716190Y-119592333D01*
X139668571Y-119639952D01*
X139620952Y-119735190D01*
X139620952Y-120020904D01*
X139668571Y-120116142D01*
X139716190Y-120163761D01*
X139811428Y-120211380D01*
X139954285Y-120211380D01*
X139335238Y-119544714D02*
X138954285Y-119544714D01*
X139192380Y-119211380D02*
X139192380Y-120068523D01*
X139144761Y-120163761D01*
X139049523Y-120211380D01*
X138954285Y-120211380D01*
X138620952Y-120211380D02*
X138620952Y-119211380D01*
X138620952Y-119592333D02*
X138525714Y-119544714D01*
X138335238Y-119544714D01*
X138240000Y-119592333D01*
X138192380Y-119639952D01*
X138144761Y-119735190D01*
X138144761Y-120020904D01*
X138192380Y-120116142D01*
X138240000Y-120163761D01*
X138335238Y-120211380D01*
X138525714Y-120211380D01*
X138620952Y-120163761D01*
X137287619Y-120211380D02*
X137287619Y-119687571D01*
X137335238Y-119592333D01*
X137430476Y-119544714D01*
X137620952Y-119544714D01*
X137716190Y-119592333D01*
X137287619Y-120163761D02*
X137382857Y-120211380D01*
X137620952Y-120211380D01*
X137716190Y-120163761D01*
X137763809Y-120068523D01*
X137763809Y-119973285D01*
X137716190Y-119878047D01*
X137620952Y-119830428D01*
X137382857Y-119830428D01*
X137287619Y-119782809D01*
X136668571Y-120211380D02*
X136763809Y-120163761D01*
X136811428Y-120068523D01*
X136811428Y-119211380D01*
X136144761Y-120211380D02*
X136240000Y-120163761D01*
X136287619Y-120068523D01*
X136287619Y-119211380D01*
X147406666Y-120821380D02*
X146835238Y-120821380D01*
X147120952Y-121821380D02*
X147120952Y-120821380D01*
X146073333Y-121821380D02*
X146073333Y-121297571D01*
X146120952Y-121202333D01*
X146216190Y-121154714D01*
X146406666Y-121154714D01*
X146501904Y-121202333D01*
X146073333Y-121773761D02*
X146168571Y-121821380D01*
X146406666Y-121821380D01*
X146501904Y-121773761D01*
X146549523Y-121678523D01*
X146549523Y-121583285D01*
X146501904Y-121488047D01*
X146406666Y-121440428D01*
X146168571Y-121440428D01*
X146073333Y-121392809D01*
X145168571Y-121773761D02*
X145263809Y-121821380D01*
X145454285Y-121821380D01*
X145549523Y-121773761D01*
X145597142Y-121726142D01*
X145644761Y-121630904D01*
X145644761Y-121345190D01*
X145597142Y-121249952D01*
X145549523Y-121202333D01*
X145454285Y-121154714D01*
X145263809Y-121154714D01*
X145168571Y-121202333D01*
X144740000Y-121821380D02*
X144740000Y-120821380D01*
X144644761Y-121440428D02*
X144359047Y-121821380D01*
X144359047Y-121154714D02*
X144740000Y-121535666D01*
X143787619Y-121821380D02*
X143882857Y-121773761D01*
X143930476Y-121678523D01*
X143930476Y-120821380D01*
X143025714Y-121773761D02*
X143120952Y-121821380D01*
X143311428Y-121821380D01*
X143406666Y-121773761D01*
X143454285Y-121678523D01*
X143454285Y-121297571D01*
X143406666Y-121202333D01*
X143311428Y-121154714D01*
X143120952Y-121154714D01*
X143025714Y-121202333D01*
X142978095Y-121297571D01*
X142978095Y-121392809D01*
X143454285Y-121488047D01*
X141835238Y-121773761D02*
X141692380Y-121821380D01*
X141454285Y-121821380D01*
X141359047Y-121773761D01*
X141311428Y-121726142D01*
X141263809Y-121630904D01*
X141263809Y-121535666D01*
X141311428Y-121440428D01*
X141359047Y-121392809D01*
X141454285Y-121345190D01*
X141644761Y-121297571D01*
X141740000Y-121249952D01*
X141787619Y-121202333D01*
X141835238Y-121107095D01*
X141835238Y-121011857D01*
X141787619Y-120916619D01*
X141740000Y-120869000D01*
X141644761Y-120821380D01*
X141406666Y-120821380D01*
X141263809Y-120869000D01*
X140454285Y-121773761D02*
X140549523Y-121821380D01*
X140740000Y-121821380D01*
X140835238Y-121773761D01*
X140882857Y-121678523D01*
X140882857Y-121297571D01*
X140835238Y-121202333D01*
X140740000Y-121154714D01*
X140549523Y-121154714D01*
X140454285Y-121202333D01*
X140406666Y-121297571D01*
X140406666Y-121392809D01*
X140882857Y-121488047D01*
X139978095Y-121154714D02*
X139978095Y-121821380D01*
X139978095Y-121249952D02*
X139930476Y-121202333D01*
X139835238Y-121154714D01*
X139692380Y-121154714D01*
X139597142Y-121202333D01*
X139549523Y-121297571D01*
X139549523Y-121821380D01*
X139120952Y-121773761D02*
X139025714Y-121821380D01*
X138835238Y-121821380D01*
X138740000Y-121773761D01*
X138692380Y-121678523D01*
X138692380Y-121630904D01*
X138740000Y-121535666D01*
X138835238Y-121488047D01*
X138978095Y-121488047D01*
X139073333Y-121440428D01*
X139120952Y-121345190D01*
X139120952Y-121297571D01*
X139073333Y-121202333D01*
X138978095Y-121154714D01*
X138835238Y-121154714D01*
X138740000Y-121202333D01*
X138120952Y-121821380D02*
X138216190Y-121773761D01*
X138263809Y-121726142D01*
X138311428Y-121630904D01*
X138311428Y-121345190D01*
X138263809Y-121249952D01*
X138216190Y-121202333D01*
X138120952Y-121154714D01*
X137978095Y-121154714D01*
X137882857Y-121202333D01*
X137835238Y-121249952D01*
X137787619Y-121345190D01*
X137787619Y-121630904D01*
X137835238Y-121726142D01*
X137882857Y-121773761D01*
X137978095Y-121821380D01*
X138120952Y-121821380D01*
X137359047Y-121821380D02*
X137359047Y-121154714D01*
X137359047Y-121345190D02*
X137311428Y-121249952D01*
X137263809Y-121202333D01*
X137168571Y-121154714D01*
X137073333Y-121154714D01*
X143763809Y-122431380D02*
X143430476Y-123431380D01*
X143097142Y-122431380D01*
X142573333Y-122431380D02*
X142478095Y-122431380D01*
X142382857Y-122479000D01*
X142335238Y-122526619D01*
X142287619Y-122621857D01*
X142240000Y-122812333D01*
X142240000Y-123050428D01*
X142287619Y-123240904D01*
X142335238Y-123336142D01*
X142382857Y-123383761D01*
X142478095Y-123431380D01*
X142573333Y-123431380D01*
X142668571Y-123383761D01*
X142716190Y-123336142D01*
X142763809Y-123240904D01*
X142811428Y-123050428D01*
X142811428Y-122812333D01*
X142763809Y-122621857D01*
X142716190Y-122526619D01*
X142668571Y-122479000D01*
X142573333Y-122431380D01*
X141811428Y-123336142D02*
X141763809Y-123383761D01*
X141811428Y-123431380D01*
X141859047Y-123383761D01*
X141811428Y-123336142D01*
X141811428Y-123431380D01*
X141144761Y-122431380D02*
X141049523Y-122431380D01*
X140954285Y-122479000D01*
X140906666Y-122526619D01*
X140859047Y-122621857D01*
X140811428Y-122812333D01*
X140811428Y-123050428D01*
X140859047Y-123240904D01*
X140906666Y-123336142D01*
X140954285Y-123383761D01*
X141049523Y-123431380D01*
X141144761Y-123431380D01*
X141240000Y-123383761D01*
X141287619Y-123336142D01*
X141335238Y-123240904D01*
X141382857Y-123050428D01*
X141382857Y-122812333D01*
X141335238Y-122621857D01*
X141287619Y-122526619D01*
X141240000Y-122479000D01*
X141144761Y-122431380D01*
X145954285Y-124374714D02*
X145954285Y-125041380D01*
X146192380Y-123993761D02*
X146430476Y-124708047D01*
X145811428Y-124708047D01*
X144716190Y-123993761D02*
X145573333Y-125279476D01*
X143859047Y-125041380D02*
X144430476Y-125041380D01*
X144144761Y-125041380D02*
X144144761Y-124041380D01*
X144240000Y-124184238D01*
X144335238Y-124279476D01*
X144430476Y-124327095D01*
X143287619Y-124469952D02*
X143382857Y-124422333D01*
X143430476Y-124374714D01*
X143478095Y-124279476D01*
X143478095Y-124231857D01*
X143430476Y-124136619D01*
X143382857Y-124089000D01*
X143287619Y-124041380D01*
X143097142Y-124041380D01*
X143001904Y-124089000D01*
X142954285Y-124136619D01*
X142906666Y-124231857D01*
X142906666Y-124279476D01*
X142954285Y-124374714D01*
X143001904Y-124422333D01*
X143097142Y-124469952D01*
X143287619Y-124469952D01*
X143382857Y-124517571D01*
X143430476Y-124565190D01*
X143478095Y-124660428D01*
X143478095Y-124850904D01*
X143430476Y-124946142D01*
X143382857Y-124993761D01*
X143287619Y-125041380D01*
X143097142Y-125041380D01*
X143001904Y-124993761D01*
X142954285Y-124946142D01*
X142906666Y-124850904D01*
X142906666Y-124660428D01*
X142954285Y-124565190D01*
X143001904Y-124517571D01*
X143097142Y-124469952D01*
X141763809Y-123993761D02*
X142620952Y-125279476D01*
X141478095Y-124136619D02*
X141430476Y-124089000D01*
X141335238Y-124041380D01*
X141097142Y-124041380D01*
X141001904Y-124089000D01*
X140954285Y-124136619D01*
X140906666Y-124231857D01*
X140906666Y-124327095D01*
X140954285Y-124469952D01*
X141525714Y-125041380D01*
X140906666Y-125041380D01*
X140287619Y-124041380D02*
X140192380Y-124041380D01*
X140097142Y-124089000D01*
X140049523Y-124136619D01*
X140001904Y-124231857D01*
X139954285Y-124422333D01*
X139954285Y-124660428D01*
X140001904Y-124850904D01*
X140049523Y-124946142D01*
X140097142Y-124993761D01*
X140192380Y-125041380D01*
X140287619Y-125041380D01*
X140382857Y-124993761D01*
X140430476Y-124946142D01*
X140478095Y-124850904D01*
X140525714Y-124660428D01*
X140525714Y-124422333D01*
X140478095Y-124231857D01*
X140430476Y-124136619D01*
X140382857Y-124089000D01*
X140287619Y-124041380D01*
X139573333Y-124136619D02*
X139525714Y-124089000D01*
X139430476Y-124041380D01*
X139192380Y-124041380D01*
X139097142Y-124089000D01*
X139049523Y-124136619D01*
X139001904Y-124231857D01*
X139001904Y-124327095D01*
X139049523Y-124469952D01*
X139620952Y-125041380D01*
X139001904Y-125041380D01*
X138620952Y-124136619D02*
X138573333Y-124089000D01*
X138478095Y-124041380D01*
X138240000Y-124041380D01*
X138144761Y-124089000D01*
X138097142Y-124136619D01*
X138049523Y-124231857D01*
X138049523Y-124327095D01*
X138097142Y-124469952D01*
X138668571Y-125041380D01*
X138049523Y-125041380D01*
D11*
%TO.C,G\u002A\u002A\u002A*%
X142621000Y-94161428D02*
X142548428Y-94016285D01*
X142548428Y-93798571D01*
X142621000Y-93580857D01*
X142766142Y-93435714D01*
X142911285Y-93363142D01*
X143201571Y-93290571D01*
X143419285Y-93290571D01*
X143709571Y-93363142D01*
X143854714Y-93435714D01*
X143999857Y-93580857D01*
X144072428Y-93798571D01*
X144072428Y-93943714D01*
X143999857Y-94161428D01*
X143927285Y-94234000D01*
X143419285Y-94234000D01*
X143419285Y-93943714D01*
X142548428Y-95104857D02*
X142911285Y-95104857D01*
X142766142Y-94742000D02*
X142911285Y-95104857D01*
X142766142Y-95467714D01*
X143201571Y-94887142D02*
X142911285Y-95104857D01*
X143201571Y-95322571D01*
X142548428Y-96266000D02*
X142911285Y-96266000D01*
X142766142Y-95903142D02*
X142911285Y-96266000D01*
X142766142Y-96628857D01*
X143201571Y-96048285D02*
X142911285Y-96266000D01*
X143201571Y-96483714D01*
X142548428Y-97427142D02*
X142911285Y-97427142D01*
X142766142Y-97064285D02*
X142911285Y-97427142D01*
X142766142Y-97790000D01*
X143201571Y-97209428D02*
X142911285Y-97427142D01*
X143201571Y-97644857D01*
D10*
%TO.C,TP7*%
X165472904Y-119340380D02*
X164901476Y-119340380D01*
X165187190Y-120340380D02*
X165187190Y-119340380D01*
X164568142Y-120340380D02*
X164568142Y-119340380D01*
X164187190Y-119340380D01*
X164091952Y-119388000D01*
X164044333Y-119435619D01*
X163996714Y-119530857D01*
X163996714Y-119673714D01*
X164044333Y-119768952D01*
X164091952Y-119816571D01*
X164187190Y-119864190D01*
X164568142Y-119864190D01*
X163663380Y-119340380D02*
X162996714Y-119340380D01*
X163425285Y-120340380D01*
D11*
%TO.C,G\u002A\u002A\u002A*%
X142621000Y-94161428D02*
X142548428Y-94016285D01*
X142548428Y-93798571D01*
X142621000Y-93580857D01*
X142766142Y-93435714D01*
X142911285Y-93363142D01*
X143201571Y-93290571D01*
X143419285Y-93290571D01*
X143709571Y-93363142D01*
X143854714Y-93435714D01*
X143999857Y-93580857D01*
X144072428Y-93798571D01*
X144072428Y-93943714D01*
X143999857Y-94161428D01*
X143927285Y-94234000D01*
X143419285Y-94234000D01*
X143419285Y-93943714D01*
X142548428Y-95104857D02*
X142911285Y-95104857D01*
X142766142Y-94742000D02*
X142911285Y-95104857D01*
X142766142Y-95467714D01*
X143201571Y-94887142D02*
X142911285Y-95104857D01*
X143201571Y-95322571D01*
X142548428Y-96266000D02*
X142911285Y-96266000D01*
X142766142Y-95903142D02*
X142911285Y-96266000D01*
X142766142Y-96628857D01*
X143201571Y-96048285D02*
X142911285Y-96266000D01*
X143201571Y-96483714D01*
X142548428Y-97427142D02*
X142911285Y-97427142D01*
X142766142Y-97064285D02*
X142911285Y-97427142D01*
X142766142Y-97790000D01*
X143201571Y-97209428D02*
X142911285Y-97427142D01*
X143201571Y-97644857D01*
D10*
%TO.C,TP5*%
X156007404Y-109378380D02*
X155435976Y-109378380D01*
X155721690Y-110378380D02*
X155721690Y-109378380D01*
X155102642Y-110378380D02*
X155102642Y-109378380D01*
X154721690Y-109378380D01*
X154626452Y-109426000D01*
X154578833Y-109473619D01*
X154531214Y-109568857D01*
X154531214Y-109711714D01*
X154578833Y-109806952D01*
X154626452Y-109854571D01*
X154721690Y-109902190D01*
X155102642Y-109902190D01*
X153626452Y-109378380D02*
X154102642Y-109378380D01*
X154150261Y-109854571D01*
X154102642Y-109806952D01*
X154007404Y-109759333D01*
X153769309Y-109759333D01*
X153674071Y-109806952D01*
X153626452Y-109854571D01*
X153578833Y-109949809D01*
X153578833Y-110187904D01*
X153626452Y-110283142D01*
X153674071Y-110330761D01*
X153769309Y-110378380D01*
X154007404Y-110378380D01*
X154102642Y-110330761D01*
X154150261Y-110283142D01*
%TO.C,TP13*%
X155154095Y-102652380D02*
X154582666Y-102652380D01*
X154868380Y-103652380D02*
X154868380Y-102652380D01*
X154249333Y-103652380D02*
X154249333Y-102652380D01*
X153868380Y-102652380D01*
X153773142Y-102700000D01*
X153725523Y-102747619D01*
X153677904Y-102842857D01*
X153677904Y-102985714D01*
X153725523Y-103080952D01*
X153773142Y-103128571D01*
X153868380Y-103176190D01*
X154249333Y-103176190D01*
X152725523Y-103652380D02*
X153296952Y-103652380D01*
X153011238Y-103652380D02*
X153011238Y-102652380D01*
X153106476Y-102795238D01*
X153201714Y-102890476D01*
X153296952Y-102938095D01*
X152392190Y-102652380D02*
X151773142Y-102652380D01*
X152106476Y-103033333D01*
X151963619Y-103033333D01*
X151868380Y-103080952D01*
X151820761Y-103128571D01*
X151773142Y-103223809D01*
X151773142Y-103461904D01*
X151820761Y-103557142D01*
X151868380Y-103604761D01*
X151963619Y-103652380D01*
X152249333Y-103652380D01*
X152344571Y-103604761D01*
X152392190Y-103557142D01*
%TO.C,TP8*%
X156074904Y-120940380D02*
X155503476Y-120940380D01*
X155789190Y-121940380D02*
X155789190Y-120940380D01*
X155170142Y-121940380D02*
X155170142Y-120940380D01*
X154789190Y-120940380D01*
X154693952Y-120988000D01*
X154646333Y-121035619D01*
X154598714Y-121130857D01*
X154598714Y-121273714D01*
X154646333Y-121368952D01*
X154693952Y-121416571D01*
X154789190Y-121464190D01*
X155170142Y-121464190D01*
X154027285Y-121368952D02*
X154122523Y-121321333D01*
X154170142Y-121273714D01*
X154217761Y-121178476D01*
X154217761Y-121130857D01*
X154170142Y-121035619D01*
X154122523Y-120988000D01*
X154027285Y-120940380D01*
X153836809Y-120940380D01*
X153741571Y-120988000D01*
X153693952Y-121035619D01*
X153646333Y-121130857D01*
X153646333Y-121178476D01*
X153693952Y-121273714D01*
X153741571Y-121321333D01*
X153836809Y-121368952D01*
X154027285Y-121368952D01*
X154122523Y-121416571D01*
X154170142Y-121464190D01*
X154217761Y-121559428D01*
X154217761Y-121749904D01*
X154170142Y-121845142D01*
X154122523Y-121892761D01*
X154027285Y-121940380D01*
X153836809Y-121940380D01*
X153741571Y-121892761D01*
X153693952Y-121845142D01*
X153646333Y-121749904D01*
X153646333Y-121559428D01*
X153693952Y-121464190D01*
X153741571Y-121416571D01*
X153836809Y-121368952D01*
%TO.C,TP6*%
X157364380Y-116848095D02*
X157364380Y-117419523D01*
X158364380Y-117133809D02*
X157364380Y-117133809D01*
X158364380Y-117752857D02*
X157364380Y-117752857D01*
X157364380Y-118133809D01*
X157412000Y-118229047D01*
X157459619Y-118276666D01*
X157554857Y-118324285D01*
X157697714Y-118324285D01*
X157792952Y-118276666D01*
X157840571Y-118229047D01*
X157888190Y-118133809D01*
X157888190Y-117752857D01*
X157364380Y-119181428D02*
X157364380Y-118990952D01*
X157412000Y-118895714D01*
X157459619Y-118848095D01*
X157602476Y-118752857D01*
X157792952Y-118705238D01*
X158173904Y-118705238D01*
X158269142Y-118752857D01*
X158316761Y-118800476D01*
X158364380Y-118895714D01*
X158364380Y-119086190D01*
X158316761Y-119181428D01*
X158269142Y-119229047D01*
X158173904Y-119276666D01*
X157935809Y-119276666D01*
X157840571Y-119229047D01*
X157792952Y-119181428D01*
X157745333Y-119086190D01*
X157745333Y-118895714D01*
X157792952Y-118800476D01*
X157840571Y-118752857D01*
X157935809Y-118705238D01*
%TO.C,TP14*%
X154773095Y-105573380D02*
X154201666Y-105573380D01*
X154487380Y-106573380D02*
X154487380Y-105573380D01*
X153868333Y-106573380D02*
X153868333Y-105573380D01*
X153487380Y-105573380D01*
X153392142Y-105621000D01*
X153344523Y-105668619D01*
X153296904Y-105763857D01*
X153296904Y-105906714D01*
X153344523Y-106001952D01*
X153392142Y-106049571D01*
X153487380Y-106097190D01*
X153868333Y-106097190D01*
X152344523Y-106573380D02*
X152915952Y-106573380D01*
X152630238Y-106573380D02*
X152630238Y-105573380D01*
X152725476Y-105716238D01*
X152820714Y-105811476D01*
X152915952Y-105859095D01*
X151487380Y-105906714D02*
X151487380Y-106573380D01*
X151725476Y-105525761D02*
X151963571Y-106240047D01*
X151344523Y-106240047D01*
%TO.C,TP4*%
X150785380Y-117991095D02*
X150785380Y-118562523D01*
X151785380Y-118276809D02*
X150785380Y-118276809D01*
X151785380Y-118895857D02*
X150785380Y-118895857D01*
X150785380Y-119276809D01*
X150833000Y-119372047D01*
X150880619Y-119419666D01*
X150975857Y-119467285D01*
X151118714Y-119467285D01*
X151213952Y-119419666D01*
X151261571Y-119372047D01*
X151309190Y-119276809D01*
X151309190Y-118895857D01*
X151118714Y-120324428D02*
X151785380Y-120324428D01*
X150737761Y-120086333D02*
X151452047Y-119848238D01*
X151452047Y-120467285D01*
%TO.C,TP9*%
X154804904Y-113955380D02*
X154233476Y-113955380D01*
X154519190Y-114955380D02*
X154519190Y-113955380D01*
X153900142Y-114955380D02*
X153900142Y-113955380D01*
X153519190Y-113955380D01*
X153423952Y-114003000D01*
X153376333Y-114050619D01*
X153328714Y-114145857D01*
X153328714Y-114288714D01*
X153376333Y-114383952D01*
X153423952Y-114431571D01*
X153519190Y-114479190D01*
X153900142Y-114479190D01*
X152852523Y-114955380D02*
X152662047Y-114955380D01*
X152566809Y-114907761D01*
X152519190Y-114860142D01*
X152423952Y-114717285D01*
X152376333Y-114526809D01*
X152376333Y-114145857D01*
X152423952Y-114050619D01*
X152471571Y-114003000D01*
X152566809Y-113955380D01*
X152757285Y-113955380D01*
X152852523Y-114003000D01*
X152900142Y-114050619D01*
X152947761Y-114145857D01*
X152947761Y-114383952D01*
X152900142Y-114479190D01*
X152852523Y-114526809D01*
X152757285Y-114574428D01*
X152566809Y-114574428D01*
X152471571Y-114526809D01*
X152423952Y-114479190D01*
X152376333Y-114383952D01*
%TO.C,G\u002A\u002A\u002A*%
G36*
X147747503Y-73101221D02*
G01*
X147910265Y-73119013D01*
X148049038Y-73149762D01*
X148171037Y-73192939D01*
X148283473Y-73248017D01*
X148393560Y-73314470D01*
X148508510Y-73391771D01*
X148522659Y-73401671D01*
X148777302Y-73645975D01*
X148968063Y-73972856D01*
X149096721Y-74385317D01*
X149104659Y-74432019D01*
X149118785Y-74576682D01*
X149130870Y-74794724D01*
X149141011Y-75090973D01*
X149149302Y-75470254D01*
X149155836Y-75937395D01*
X149160710Y-76497220D01*
X149164017Y-77154557D01*
X149165851Y-77914232D01*
X149166457Y-78450166D01*
X149166594Y-79046188D01*
X149165847Y-79548796D01*
X149164031Y-79965713D01*
X149160962Y-80304661D01*
X149156456Y-80573362D01*
X149150330Y-80779538D01*
X149142399Y-80930911D01*
X149132479Y-81035204D01*
X149120386Y-81100138D01*
X149105938Y-81133435D01*
X149088948Y-81142819D01*
X149046402Y-81137172D01*
X148914567Y-81112173D01*
X148717934Y-81071511D01*
X148477708Y-81019914D01*
X148215096Y-80962115D01*
X147951304Y-80902843D01*
X147707539Y-80846830D01*
X147505007Y-80798805D01*
X147364916Y-80763499D01*
X147308470Y-80745644D01*
X147305053Y-80691353D01*
X147300668Y-80540336D01*
X147295507Y-80303097D01*
X147289753Y-79990131D01*
X147283586Y-79611935D01*
X147277187Y-79179002D01*
X147270737Y-78701828D01*
X147264417Y-78190907D01*
X147258148Y-77695877D01*
X147251127Y-77209309D01*
X147243828Y-76763510D01*
X147236472Y-76369547D01*
X147229282Y-76038486D01*
X147222482Y-75781394D01*
X147216293Y-75609336D01*
X147210939Y-75533380D01*
X147162875Y-75408379D01*
X147028649Y-75289388D01*
X146825480Y-75248304D01*
X146784724Y-75251338D01*
X146637083Y-75270561D01*
X146402790Y-75305806D01*
X146093826Y-75355113D01*
X145722176Y-75416517D01*
X145299821Y-75488055D01*
X144838746Y-75567765D01*
X144350932Y-75653683D01*
X144312795Y-75660461D01*
X143755469Y-75759510D01*
X143170028Y-75863543D01*
X142578744Y-75968603D01*
X142003888Y-76070735D01*
X141467733Y-76165979D01*
X140992553Y-76250380D01*
X140600619Y-76319980D01*
X140195203Y-76392758D01*
X139810227Y-76465082D01*
X139508885Y-76527547D01*
X139279240Y-76584069D01*
X139109358Y-76638567D01*
X138987303Y-76694956D01*
X138901140Y-76757155D01*
X138838933Y-76829081D01*
X138788748Y-76914651D01*
X138782185Y-76931382D01*
X138766784Y-77011784D01*
X138753975Y-77150408D01*
X138743582Y-77354246D01*
X138735433Y-77630290D01*
X138729351Y-77985532D01*
X138725162Y-78426963D01*
X138722692Y-78961575D01*
X138721765Y-79596359D01*
X138720975Y-82149267D01*
X138037747Y-82865159D01*
X137857220Y-83055143D01*
X137615797Y-83311537D01*
X137391861Y-83551810D01*
X137204359Y-83755600D01*
X137072243Y-83902546D01*
X136789967Y-84224042D01*
X136806098Y-80392608D01*
X136807819Y-79979215D01*
X136810820Y-79280881D01*
X136813998Y-78677278D01*
X136817914Y-78160287D01*
X136823130Y-77721792D01*
X136830209Y-77353675D01*
X136839714Y-77047819D01*
X136852205Y-76796107D01*
X136868246Y-76590422D01*
X136888399Y-76422645D01*
X136913225Y-76284661D01*
X136943288Y-76168350D01*
X136979150Y-76065597D01*
X137021372Y-75968284D01*
X137070517Y-75868294D01*
X137127147Y-75757509D01*
X137307296Y-75487008D01*
X137585336Y-75203040D01*
X137927392Y-74945460D01*
X138311075Y-74730939D01*
X138713996Y-74576143D01*
X138715473Y-74575716D01*
X138811085Y-74554112D01*
X139003147Y-74515703D01*
X139282846Y-74462108D01*
X139641370Y-74394944D01*
X140069905Y-74315829D01*
X140559639Y-74226382D01*
X141101759Y-74128221D01*
X141687452Y-74022962D01*
X142307907Y-73912226D01*
X142954308Y-73797628D01*
X143213720Y-73751807D01*
X144013068Y-73611055D01*
X144716299Y-73488530D01*
X145330628Y-73383703D01*
X145863265Y-73296048D01*
X146321424Y-73225039D01*
X146712319Y-73170147D01*
X147043161Y-73130847D01*
X147321164Y-73106610D01*
X147553540Y-73096911D01*
X147747503Y-73101221D01*
G37*
G36*
X149170342Y-93017431D02*
G01*
X148513908Y-93136178D01*
X148473854Y-93143418D01*
X148212612Y-93190457D01*
X147890484Y-93248222D01*
X147520271Y-93314437D01*
X147114770Y-93386829D01*
X146686781Y-93463121D01*
X146249104Y-93541041D01*
X145814537Y-93618312D01*
X145395879Y-93692660D01*
X145005929Y-93761812D01*
X144657488Y-93823491D01*
X144363353Y-93875423D01*
X144136323Y-93915333D01*
X143989199Y-93940948D01*
X143934779Y-93949992D01*
X143933594Y-93955886D01*
X143930195Y-94040805D01*
X143927086Y-94217739D01*
X143924353Y-94475320D01*
X143922079Y-94802184D01*
X143920350Y-95186962D01*
X143919251Y-95618289D01*
X143918865Y-96084799D01*
X143918865Y-98219607D01*
X143074878Y-98366811D01*
X142902971Y-98396935D01*
X142620720Y-98447031D01*
X142380501Y-98490452D01*
X142203508Y-98523351D01*
X142110934Y-98541877D01*
X141990977Y-98569741D01*
X141976968Y-96429485D01*
X141962958Y-94289228D01*
X140784055Y-94488127D01*
X140525008Y-94532126D01*
X140111170Y-94604408D01*
X139783952Y-94665237D01*
X139530705Y-94717541D01*
X139338777Y-94764249D01*
X139195518Y-94808290D01*
X139088280Y-94852591D01*
X139004410Y-94900081D01*
X138938588Y-94946443D01*
X138870848Y-95010333D01*
X138818775Y-95091820D01*
X138780310Y-95203701D01*
X138753392Y-95358771D01*
X138735962Y-95569825D01*
X138725960Y-95849658D01*
X138721327Y-96211067D01*
X138720002Y-96666845D01*
X138719028Y-98049359D01*
X138391725Y-98397671D01*
X138328769Y-98464579D01*
X138120484Y-98685157D01*
X137891574Y-98926725D01*
X137681247Y-99147882D01*
X137597429Y-99236445D01*
X137393652Y-99455981D01*
X137199000Y-99670663D01*
X137046274Y-99844506D01*
X136794475Y-100139232D01*
X136793509Y-96441764D01*
X137383467Y-95637966D01*
X137574128Y-95378095D01*
X137837935Y-95018311D01*
X138121696Y-94631132D01*
X138401971Y-94248539D01*
X138655322Y-93902516D01*
X138716721Y-93818770D01*
X138924017Y-93538050D01*
X139114691Y-93282791D01*
X139277164Y-93068315D01*
X139399855Y-92909943D01*
X139471186Y-92822995D01*
X139491568Y-92801744D01*
X139525496Y-92773651D01*
X139572280Y-92746437D01*
X139639635Y-92718425D01*
X139735276Y-92687942D01*
X139866918Y-92653310D01*
X140042275Y-92612856D01*
X140269063Y-92564903D01*
X140554996Y-92507777D01*
X140907789Y-92439802D01*
X141335157Y-92359303D01*
X141844815Y-92264605D01*
X142444478Y-92154032D01*
X143141861Y-92025910D01*
X143229797Y-92009767D01*
X143874696Y-91891314D01*
X144519495Y-91772775D01*
X145151029Y-91656576D01*
X145756133Y-91545142D01*
X146321643Y-91440902D01*
X146834395Y-91346281D01*
X147281225Y-91263705D01*
X147648966Y-91195601D01*
X147924456Y-91144396D01*
X149170342Y-90912098D01*
X149170342Y-93017431D01*
G37*
G36*
X143918273Y-82720661D02*
G01*
X144137190Y-82679613D01*
X144849182Y-82546006D01*
X145530510Y-82417999D01*
X146173705Y-82297003D01*
X146771299Y-82184428D01*
X147315825Y-82081686D01*
X147799814Y-81990190D01*
X148215799Y-81911349D01*
X148556312Y-81846575D01*
X148813883Y-81797280D01*
X148981047Y-81764875D01*
X149050333Y-81750772D01*
X149172649Y-81720073D01*
X149143549Y-83845911D01*
X146852726Y-84246359D01*
X144561903Y-84646806D01*
X144561961Y-87385646D01*
X146156130Y-87674059D01*
X146183833Y-87679071D01*
X146627996Y-87759637D01*
X147075196Y-87841086D01*
X147503732Y-87919444D01*
X147891900Y-87990734D01*
X148217997Y-88050979D01*
X148460321Y-88096205D01*
X149170342Y-88229938D01*
X149170342Y-89325222D01*
X149170313Y-89431444D01*
X149169353Y-89774643D01*
X149166177Y-90027298D01*
X149159628Y-90202590D01*
X149148550Y-90313703D01*
X149131784Y-90373818D01*
X149108175Y-90396117D01*
X149076566Y-90393782D01*
X149030080Y-90382321D01*
X148896048Y-90354196D01*
X148682960Y-90312815D01*
X148386385Y-90257362D01*
X148001897Y-90187022D01*
X147525067Y-90100980D01*
X146951468Y-89998423D01*
X146276671Y-89878534D01*
X146200801Y-89865082D01*
X145807295Y-89795166D01*
X145445433Y-89730630D01*
X145129993Y-89674128D01*
X144875754Y-89628314D01*
X144697496Y-89595839D01*
X144609997Y-89579357D01*
X144537606Y-89570008D01*
X144484930Y-89594426D01*
X144448599Y-89678484D01*
X144411429Y-89845186D01*
X144368306Y-90025264D01*
X144210122Y-90426268D01*
X143974422Y-90769890D01*
X143656804Y-91059653D01*
X143252866Y-91299083D01*
X142758208Y-91491702D01*
X142168427Y-91641035D01*
X141996990Y-91674341D01*
X141753619Y-91719709D01*
X141460375Y-91773144D01*
X141134516Y-91831622D01*
X140793300Y-91892116D01*
X140453985Y-91951604D01*
X140133828Y-92007058D01*
X139850087Y-92055455D01*
X139620020Y-92093769D01*
X139460884Y-92118976D01*
X139389937Y-92128051D01*
X139379566Y-92121686D01*
X139388535Y-92086361D01*
X139430905Y-92011841D01*
X139512927Y-91888871D01*
X139640851Y-91708195D01*
X139820927Y-91460557D01*
X140059407Y-91136700D01*
X140209000Y-90934139D01*
X140453849Y-90601224D01*
X140637289Y-90348391D01*
X140761069Y-90171769D01*
X140826935Y-90067489D01*
X140836631Y-90031683D01*
X140791906Y-90060480D01*
X140694505Y-90150011D01*
X140546175Y-90296407D01*
X140348662Y-90495798D01*
X140272040Y-90573550D01*
X139993193Y-90857339D01*
X139697180Y-91159641D01*
X139414861Y-91448905D01*
X139177100Y-91693576D01*
X138641875Y-92246180D01*
X138325353Y-92210370D01*
X138157986Y-92185808D01*
X137740942Y-92065714D01*
X137395072Y-91871210D01*
X137318026Y-91800771D01*
X137167938Y-91599809D01*
X137028908Y-91339098D01*
X136916197Y-91049430D01*
X136845069Y-90761595D01*
X136842926Y-90746741D01*
X136831348Y-90603916D01*
X136820754Y-90370231D01*
X136811438Y-90059528D01*
X136803697Y-89685651D01*
X136797828Y-89262443D01*
X136794127Y-88803748D01*
X136792890Y-88323409D01*
X136792983Y-88036656D01*
X136793047Y-87983022D01*
X138720975Y-87983022D01*
X138721088Y-88356754D01*
X138721911Y-88778238D01*
X138724066Y-89111984D01*
X138728169Y-89369177D01*
X138734835Y-89560999D01*
X138744680Y-89698636D01*
X138758318Y-89793271D01*
X138776365Y-89856088D01*
X138799437Y-89898271D01*
X138828148Y-89931004D01*
X138931661Y-89999717D01*
X139139701Y-90038177D01*
X139231383Y-90031168D01*
X139419161Y-90007204D01*
X139677489Y-89969147D01*
X139988723Y-89920055D01*
X140335217Y-89862983D01*
X140699327Y-89800987D01*
X141063408Y-89737124D01*
X141409813Y-89674449D01*
X141720899Y-89616019D01*
X141979020Y-89564889D01*
X142166531Y-89524116D01*
X142265788Y-89496755D01*
X142400689Y-89419119D01*
X142533720Y-89306197D01*
X142659583Y-89172285D01*
X142675338Y-87086666D01*
X142676647Y-86897418D01*
X142678796Y-86321645D01*
X142677421Y-85848581D01*
X142672537Y-85479108D01*
X142664161Y-85214106D01*
X142652309Y-85054458D01*
X142636997Y-85001046D01*
X142622000Y-85001887D01*
X142507179Y-85017873D01*
X142308875Y-85051758D01*
X142042822Y-85100392D01*
X141724751Y-85160628D01*
X141370397Y-85229316D01*
X140995492Y-85303310D01*
X140615769Y-85379460D01*
X140246961Y-85454619D01*
X139904801Y-85525638D01*
X139605023Y-85589369D01*
X139363358Y-85642664D01*
X139195540Y-85682374D01*
X139117302Y-85705352D01*
X139096177Y-85716596D01*
X138962409Y-85821642D01*
X138843545Y-85960131D01*
X138840539Y-85964600D01*
X138808324Y-86015100D01*
X138782487Y-86068267D01*
X138762324Y-86135713D01*
X138747132Y-86229049D01*
X138736208Y-86359887D01*
X138728848Y-86539838D01*
X138724348Y-86780516D01*
X138722005Y-87093531D01*
X138721115Y-87490496D01*
X138720975Y-87983022D01*
X136793047Y-87983022D01*
X136793553Y-87555263D01*
X136795065Y-87165163D01*
X136798029Y-86855871D01*
X136802955Y-86616903D01*
X136810350Y-86437775D01*
X136820725Y-86308002D01*
X136834589Y-86217100D01*
X136852451Y-86154585D01*
X136874820Y-86109972D01*
X136902205Y-86072776D01*
X136970942Y-85985133D01*
X137093448Y-85825502D01*
X137256395Y-85611414D01*
X137447740Y-85358822D01*
X137655444Y-85083676D01*
X137867464Y-84801930D01*
X138071759Y-84529535D01*
X138256288Y-84282444D01*
X138409009Y-84076608D01*
X138448418Y-84024561D01*
X138585555Y-83861702D01*
X138707717Y-83741646D01*
X138792309Y-83687340D01*
X138802215Y-83685232D01*
X138900983Y-83665908D01*
X139095385Y-83628693D01*
X139377964Y-83574993D01*
X139741264Y-83506214D01*
X140177830Y-83423762D01*
X140680206Y-83329044D01*
X141240935Y-83223464D01*
X141852562Y-83108430D01*
X142507632Y-82985348D01*
X142636997Y-82961064D01*
X143198687Y-82855623D01*
X143918273Y-82720661D01*
G37*
G36*
X147512922Y-98270472D02*
G01*
X147759505Y-98277468D01*
X147942628Y-98297246D01*
X148094259Y-98334491D01*
X148246365Y-98393885D01*
X148556725Y-98586541D01*
X148812865Y-98864298D01*
X149001913Y-99213654D01*
X149115820Y-99623228D01*
X149121985Y-99692494D01*
X149129588Y-99868130D01*
X149136819Y-100132293D01*
X149143529Y-100474562D01*
X149149568Y-100884513D01*
X149154788Y-101351726D01*
X149159040Y-101865778D01*
X149162173Y-102416248D01*
X149164039Y-102992713D01*
X149165052Y-103571278D01*
X149165518Y-104144987D01*
X149165041Y-104626358D01*
X149163421Y-105023335D01*
X149160457Y-105343859D01*
X149155949Y-105595876D01*
X149149696Y-105787327D01*
X149141497Y-105926157D01*
X149131153Y-106020309D01*
X149118462Y-106077725D01*
X149103225Y-106106350D01*
X149085240Y-106114127D01*
X149045369Y-106109167D01*
X148915083Y-106084925D01*
X148719481Y-106044746D01*
X148479835Y-105993387D01*
X148217420Y-105935605D01*
X147953507Y-105876156D01*
X147709370Y-105819796D01*
X147506280Y-105771282D01*
X147365511Y-105735371D01*
X147308336Y-105716818D01*
X147308298Y-105716773D01*
X147304214Y-105660413D01*
X147298878Y-105507495D01*
X147292518Y-105268504D01*
X147285357Y-104953926D01*
X147277620Y-104574246D01*
X147269534Y-104139949D01*
X147261323Y-103661522D01*
X147253211Y-103149449D01*
X147253114Y-103143035D01*
X147243994Y-102532147D01*
X147235828Y-102019722D01*
X147227192Y-101597157D01*
X147216665Y-101255853D01*
X147202823Y-100987208D01*
X147184245Y-100782621D01*
X147159508Y-100633491D01*
X147127190Y-100531217D01*
X147085867Y-100467197D01*
X147034119Y-100432832D01*
X146970521Y-100419520D01*
X146893653Y-100418659D01*
X146802091Y-100421649D01*
X146728064Y-100428710D01*
X146551083Y-100453233D01*
X146289982Y-100493420D01*
X145956492Y-100547339D01*
X145562340Y-100613055D01*
X145119257Y-100688635D01*
X144638971Y-100772145D01*
X144133211Y-100861652D01*
X143891030Y-100904871D01*
X143327834Y-101005283D01*
X142757943Y-101106771D01*
X142200057Y-101206011D01*
X141672874Y-101299680D01*
X141195094Y-101384454D01*
X140785415Y-101457012D01*
X140462536Y-101514028D01*
X140272045Y-101548079D01*
X139922489Y-101613154D01*
X139608331Y-101674906D01*
X139347142Y-101729718D01*
X139156496Y-101773970D01*
X139053962Y-101804046D01*
X138975628Y-101839721D01*
X138908902Y-101883590D01*
X138854961Y-101944603D01*
X138812437Y-102032763D01*
X138779964Y-102158074D01*
X138756174Y-102330539D01*
X138739701Y-102560161D01*
X138729177Y-102856942D01*
X138723234Y-103230886D01*
X138720507Y-103691996D01*
X138719627Y-104250275D01*
X138718279Y-106248093D01*
X138143572Y-106846727D01*
X138095628Y-106896726D01*
X137850398Y-107153948D01*
X137598565Y-107420160D01*
X137367171Y-107666691D01*
X137183259Y-107864871D01*
X136797652Y-108284380D01*
X136794757Y-105262669D01*
X136791861Y-102240958D01*
X137075417Y-101886719D01*
X137083122Y-101877081D01*
X137209692Y-101716700D01*
X137384460Y-101492671D01*
X137591937Y-101224973D01*
X137816636Y-100933584D01*
X138043069Y-100638485D01*
X138195071Y-100441143D01*
X138412558Y-100165873D01*
X138581036Y-99964448D01*
X138708406Y-99828061D01*
X138802571Y-99747904D01*
X138871433Y-99715169D01*
X138942442Y-99701821D01*
X139111351Y-99670776D01*
X139368807Y-99623750D01*
X139706205Y-99562307D01*
X140114941Y-99488010D01*
X140586409Y-99402421D01*
X141112006Y-99307103D01*
X141683126Y-99203620D01*
X142291164Y-99093535D01*
X142927515Y-98978410D01*
X143372515Y-98898024D01*
X144071445Y-98772293D01*
X144677616Y-98664141D01*
X145199049Y-98572298D01*
X145643763Y-98495495D01*
X146019778Y-98432463D01*
X146335114Y-98381932D01*
X146597790Y-98342632D01*
X146815828Y-98313295D01*
X146997247Y-98292651D01*
X147150067Y-98279430D01*
X147282307Y-98272364D01*
X147401988Y-98270182D01*
X147512922Y-98270472D01*
G37*
D12*
%TO.C,TP7*%
X164530000Y-117983000D02*
G75*
G03*
X164530000Y-117983000I-700000J0D01*
G01*
%TO.C,TP5*%
X155767000Y-112268000D02*
G75*
G03*
X155767000Y-112268000I-700000J0D01*
G01*
%TO.C,TP13*%
X154116000Y-104648000D02*
G75*
G03*
X154116000Y-104648000I-700000J0D01*
G01*
%TO.C,TP8*%
X155513000Y-122936000D02*
G75*
G03*
X155513000Y-122936000I-700000J0D01*
G01*
%TO.C,TP6*%
X157164000Y-118110000D02*
G75*
G03*
X157164000Y-118110000I-700000J0D01*
G01*
%TO.C,TP14*%
X153735000Y-107569000D02*
G75*
G03*
X153735000Y-107569000I-700000J0D01*
G01*
%TO.C,TP4*%
X153481000Y-119253000D02*
G75*
G03*
X153481000Y-119253000I-700000J0D01*
G01*
%TO.C,TP9*%
X154243000Y-115951000D02*
G75*
G03*
X154243000Y-115951000I-700000J0D01*
G01*
%TD*%
%LPC*%
%TO.C,G\u002A\u002A\u002A*%
G36*
X141115317Y-89726436D02*
G01*
X141093288Y-89783641D01*
X141059318Y-89828426D01*
X140967377Y-89950689D01*
X140828230Y-90136195D01*
X140651098Y-90372642D01*
X140445199Y-90647727D01*
X140219756Y-90949148D01*
X140026132Y-91206926D01*
X139818145Y-91480968D01*
X139637745Y-91715576D01*
X139493991Y-91899083D01*
X139395938Y-92019822D01*
X139352645Y-92066127D01*
X139339545Y-92076232D01*
X139271479Y-92155082D01*
X139167018Y-92292895D01*
X139042846Y-92468025D01*
X139024247Y-92494795D01*
X138920199Y-92641289D01*
X138766153Y-92855228D01*
X138572835Y-93121953D01*
X138350973Y-93426803D01*
X138111294Y-93755120D01*
X137864525Y-94092241D01*
X137621393Y-94423508D01*
X137392625Y-94734260D01*
X137188949Y-95009837D01*
X137021091Y-95235580D01*
X136899779Y-95396827D01*
X136878407Y-95423209D01*
X136858636Y-95438021D01*
X136842432Y-95429822D01*
X136829460Y-95390195D01*
X136819388Y-95310725D01*
X136811879Y-95182994D01*
X136806602Y-94998587D01*
X136803223Y-94749088D01*
X136801406Y-94426081D01*
X136800819Y-94021149D01*
X136801128Y-93525877D01*
X136801998Y-92931848D01*
X136802170Y-92840736D01*
X136804051Y-92340914D01*
X136807337Y-91884817D01*
X136811853Y-91481508D01*
X136817428Y-91140053D01*
X136823890Y-90869515D01*
X136831065Y-90678958D01*
X136838782Y-90577446D01*
X136846867Y-90574042D01*
X136871405Y-90702114D01*
X136923379Y-90924350D01*
X136983642Y-91144277D01*
X137042551Y-91327608D01*
X137090461Y-91440058D01*
X137130303Y-91501998D01*
X137234616Y-91641668D01*
X137348772Y-91774809D01*
X137448830Y-91874452D01*
X137510851Y-91913629D01*
X137535079Y-91956618D01*
X137550964Y-92095846D01*
X137557383Y-92334890D01*
X137554535Y-92677236D01*
X137540204Y-93440920D01*
X137956434Y-93006114D01*
X138056519Y-92901084D01*
X138241354Y-92706087D01*
X138478431Y-92455225D01*
X138755907Y-92161054D01*
X139061943Y-91836131D01*
X139384697Y-91493012D01*
X139712325Y-91144253D01*
X139715279Y-91141107D01*
X140022161Y-90815541D01*
X140306718Y-90516172D01*
X140560497Y-90251705D01*
X140775042Y-90030844D01*
X140941901Y-89862291D01*
X141052618Y-89754751D01*
X141098739Y-89716928D01*
X141115317Y-89726436D01*
G37*
G36*
X138720975Y-82539630D02*
G01*
X138721005Y-82556155D01*
X138721135Y-82645616D01*
X138716894Y-82724014D01*
X138702354Y-82801075D01*
X138671586Y-82886528D01*
X138618662Y-82990103D01*
X138537653Y-83121527D01*
X138422631Y-83290529D01*
X138267668Y-83506837D01*
X138066833Y-83780181D01*
X137814200Y-84120287D01*
X137503839Y-84536886D01*
X136791861Y-85492767D01*
X136791861Y-84243607D01*
X137039287Y-83939099D01*
X137083001Y-83885795D01*
X137268498Y-83667210D01*
X137482389Y-83424352D01*
X137710596Y-83172261D01*
X137939040Y-82925980D01*
X138153642Y-82700552D01*
X138340324Y-82511016D01*
X138485007Y-82372417D01*
X138573612Y-82299795D01*
X138720975Y-82208489D01*
X138720975Y-82539630D01*
G37*
G36*
X138738619Y-98025514D02*
G01*
X138738524Y-98096403D01*
X138732145Y-98242396D01*
X138720535Y-98437823D01*
X138693302Y-98853156D01*
X137818285Y-100026465D01*
X137809252Y-100038580D01*
X137578370Y-100349510D01*
X137368767Y-100634168D01*
X137189056Y-100880668D01*
X137047852Y-101077123D01*
X136953768Y-101211646D01*
X136915418Y-101272351D01*
X136879482Y-101341255D01*
X136841890Y-101336588D01*
X136814426Y-101229117D01*
X136797585Y-101021073D01*
X136791861Y-100714688D01*
X136791861Y-100084449D01*
X137759641Y-99053507D01*
X138009334Y-98787884D01*
X138243456Y-98539563D01*
X138443019Y-98328668D01*
X138598346Y-98165397D01*
X138699763Y-98059950D01*
X138737595Y-98022528D01*
X138738619Y-98025514D01*
G37*
G36*
X138730589Y-106611000D02*
G01*
X138713411Y-106999292D01*
X138033965Y-107913155D01*
X138008924Y-107946839D01*
X137785711Y-108247369D01*
X137566995Y-108542292D01*
X137367652Y-108811518D01*
X137202557Y-109034957D01*
X137086587Y-109192520D01*
X136818654Y-109558022D01*
X136803519Y-108930164D01*
X136788383Y-108302307D01*
X137241902Y-107784271D01*
X137431496Y-107572628D01*
X137696094Y-107287101D01*
X137971473Y-106998299D01*
X138221595Y-106744473D01*
X138747768Y-106222709D01*
X138730589Y-106611000D01*
G37*
G36*
X143396557Y-107049184D02*
G01*
X143578309Y-107145779D01*
X143589758Y-107156577D01*
X143666701Y-107301384D01*
X143671402Y-107482837D01*
X143608668Y-107666861D01*
X143483305Y-107819382D01*
X143456458Y-107841838D01*
X143353058Y-107962937D01*
X143342536Y-108076660D01*
X143428128Y-108195811D01*
X143613066Y-108333195D01*
X143745845Y-108422276D01*
X143885656Y-108526201D01*
X143967373Y-108599779D01*
X144008247Y-108668436D01*
X144004524Y-108765769D01*
X143929842Y-108828963D01*
X143806470Y-108843917D01*
X143656679Y-108796527D01*
X143614642Y-108779243D01*
X143472798Y-108741580D01*
X143297309Y-108710863D01*
X143032321Y-108675711D01*
X142158247Y-109559369D01*
X142063059Y-109655298D01*
X141760801Y-109954475D01*
X141522034Y-110180577D01*
X141340624Y-110339041D01*
X141210441Y-110435301D01*
X141125351Y-110474792D01*
X141017136Y-110516293D01*
X140982465Y-110577225D01*
X140982703Y-110578939D01*
X140947800Y-110644317D01*
X140848733Y-110764022D01*
X140700163Y-110921582D01*
X140516749Y-111100525D01*
X140342320Y-111264593D01*
X140113219Y-111480452D01*
X139902378Y-111679472D01*
X139739744Y-111833405D01*
X139444393Y-112113655D01*
X139682652Y-112114734D01*
X139888311Y-112141240D01*
X140121594Y-112254888D01*
X140248249Y-112331275D01*
X140358918Y-112356287D01*
X140410079Y-112294476D01*
X140405626Y-112144328D01*
X140398453Y-112099486D01*
X140393351Y-112029238D01*
X140413936Y-111978830D01*
X140476167Y-111940512D01*
X140596008Y-111906532D01*
X140789418Y-111869142D01*
X141072358Y-111820592D01*
X141575007Y-111734992D01*
X141752913Y-111929220D01*
X141845715Y-112021968D01*
X141962314Y-112095647D01*
X142080855Y-112106235D01*
X142090702Y-112105059D01*
X142183584Y-112079559D01*
X142227961Y-112012360D01*
X142246906Y-111870738D01*
X142258166Y-111760251D01*
X142291105Y-111678202D01*
X142371636Y-111629235D01*
X142528112Y-111584488D01*
X142601318Y-111563752D01*
X142774868Y-111483651D01*
X142881069Y-111367946D01*
X142912904Y-111319421D01*
X143090407Y-111155076D01*
X143313596Y-111064377D01*
X143557287Y-111046334D01*
X143796293Y-111099956D01*
X144005429Y-111224253D01*
X144159510Y-111418233D01*
X144175015Y-111450415D01*
X144212861Y-111576679D01*
X144223151Y-111741316D01*
X144208818Y-111977616D01*
X144198359Y-112150954D01*
X144196811Y-112382052D01*
X144206510Y-112604235D01*
X144225592Y-112792955D01*
X144252187Y-112923665D01*
X144284430Y-112971816D01*
X144295269Y-112966145D01*
X144347653Y-112895702D01*
X144413540Y-112770867D01*
X144438065Y-112721980D01*
X144563551Y-112553756D01*
X144744060Y-112425628D01*
X144996782Y-112327937D01*
X145338908Y-112251027D01*
X145539189Y-112215306D01*
X145846698Y-112160164D01*
X146180175Y-112100122D01*
X146495753Y-112043067D01*
X146520834Y-112038558D01*
X146783112Y-111995997D01*
X147011730Y-111966704D01*
X147182881Y-111953276D01*
X147272757Y-111958311D01*
X147341996Y-111967983D01*
X147468252Y-111914206D01*
X147592284Y-111852087D01*
X147775376Y-111832177D01*
X147951249Y-111870712D01*
X148024230Y-111882132D01*
X148045026Y-111808334D01*
X148063270Y-111730581D01*
X148138802Y-111621771D01*
X148162539Y-111608216D01*
X148283220Y-111564859D01*
X148484891Y-111506212D01*
X148751116Y-111436659D01*
X149065458Y-111360581D01*
X149411481Y-111282363D01*
X149753908Y-111205492D01*
X150126491Y-111115559D01*
X150417350Y-111037265D01*
X150618518Y-110972786D01*
X150722031Y-110924299D01*
X150829705Y-110865660D01*
X150970980Y-110853121D01*
X151046801Y-110858668D01*
X151114963Y-110813034D01*
X151137762Y-110782359D01*
X151236231Y-110703703D01*
X151379343Y-110617407D01*
X151617042Y-110491308D01*
X152169992Y-110818691D01*
X152378592Y-110948163D01*
X152580153Y-111085745D01*
X152733085Y-111203870D01*
X152814875Y-111286216D01*
X152815186Y-111286690D01*
X152862472Y-111372271D01*
X152880288Y-111460981D01*
X152869807Y-111586437D01*
X152832205Y-111782259D01*
X152786427Y-111964626D01*
X152735708Y-112109173D01*
X152692137Y-112179753D01*
X152622131Y-112212416D01*
X152490493Y-112202016D01*
X152386291Y-112090439D01*
X152364860Y-112053576D01*
X152318155Y-111998960D01*
X152244479Y-111951754D01*
X152124652Y-111903336D01*
X151939492Y-111845083D01*
X151669817Y-111768372D01*
X151519681Y-111728604D01*
X151400246Y-111708466D01*
X151325512Y-111720486D01*
X151263699Y-111764350D01*
X151156113Y-111821325D01*
X151006326Y-111847882D01*
X150903810Y-111870725D01*
X150719853Y-111935646D01*
X150469300Y-112036734D01*
X150166798Y-112168080D01*
X149826994Y-112323773D01*
X149748033Y-112360768D01*
X149442513Y-112502909D01*
X149168219Y-112628993D01*
X148941561Y-112731576D01*
X148778955Y-112803212D01*
X148696812Y-112836456D01*
X148629189Y-112864117D01*
X148589009Y-112918513D01*
X148623641Y-113005876D01*
X148735510Y-113145570D01*
X148756889Y-113171245D01*
X148874078Y-113353147D01*
X148956653Y-113543710D01*
X148975733Y-113611306D01*
X148992673Y-113716305D01*
X148980485Y-113821273D01*
X148933365Y-113958400D01*
X148845504Y-114159874D01*
X148810524Y-114237203D01*
X148712876Y-114445461D01*
X148640265Y-114577422D01*
X148579462Y-114650331D01*
X148517238Y-114681431D01*
X148440363Y-114687966D01*
X148417562Y-114687558D01*
X148348876Y-114668862D01*
X148319295Y-114601135D01*
X148312958Y-114455435D01*
X148312500Y-114405686D01*
X148304065Y-114315059D01*
X148275460Y-114233361D01*
X148214516Y-114144775D01*
X148109062Y-114033484D01*
X147946928Y-113883671D01*
X147715944Y-113679519D01*
X147525485Y-113512294D01*
X147318440Y-113617852D01*
X147267017Y-113643105D01*
X147131689Y-113700495D01*
X147046469Y-113723409D01*
X146982992Y-113745389D01*
X146836055Y-113807739D01*
X146619046Y-113904445D01*
X146345274Y-114029494D01*
X146028048Y-114176871D01*
X145680676Y-114340564D01*
X145679491Y-114341126D01*
X145332945Y-114503817D01*
X145017053Y-114648862D01*
X144744989Y-114770474D01*
X144529926Y-114862865D01*
X144385036Y-114920248D01*
X144323494Y-114936836D01*
X144248638Y-114954162D01*
X144146454Y-115025792D01*
X143987810Y-115115011D01*
X143788024Y-115146001D01*
X143579123Y-115122092D01*
X143389290Y-115050163D01*
X143246708Y-114937093D01*
X143179559Y-114789763D01*
X143155439Y-114671056D01*
X143106075Y-114513810D01*
X143099914Y-114498294D01*
X143060807Y-114425051D01*
X143000227Y-114385578D01*
X142889619Y-114369501D01*
X142700426Y-114366447D01*
X142352372Y-114366447D01*
X142396574Y-115060627D01*
X141992213Y-115147044D01*
X141980178Y-115149620D01*
X141754623Y-115199196D01*
X141546797Y-115246968D01*
X141400300Y-115282928D01*
X141364813Y-115292003D01*
X141271175Y-115305384D01*
X141193534Y-115281563D01*
X141103231Y-115205883D01*
X140971608Y-115063688D01*
X140927348Y-115015111D01*
X140795308Y-114886182D01*
X140698565Y-114827817D01*
X140616659Y-114826336D01*
X140605802Y-114829541D01*
X140550525Y-114861289D01*
X140515558Y-114929168D01*
X140493393Y-115056851D01*
X140476516Y-115268011D01*
X140469694Y-115426427D01*
X140482720Y-115661882D01*
X140535444Y-115814119D01*
X140633939Y-115896018D01*
X140784282Y-115920456D01*
X140929776Y-115941549D01*
X141072265Y-116011172D01*
X141157153Y-116110605D01*
X141159861Y-116220232D01*
X141138713Y-116287881D01*
X141128042Y-116419326D01*
X141127852Y-116474550D01*
X141092175Y-116580085D01*
X141089230Y-116584314D01*
X141053792Y-116684684D01*
X141032967Y-116829321D01*
X141031519Y-116850461D01*
X141005685Y-116981461D01*
X140939010Y-117056541D01*
X140809836Y-117088680D01*
X140596503Y-117090857D01*
X140493973Y-117089973D01*
X140268650Y-117100233D01*
X140079939Y-117123048D01*
X139946900Y-117141100D01*
X139839020Y-117123751D01*
X139747247Y-117053900D01*
X139722089Y-117030663D01*
X139585691Y-116929779D01*
X139424888Y-116835145D01*
X139237462Y-116715032D01*
X139048934Y-116500008D01*
X138954959Y-116236097D01*
X138922321Y-116031993D01*
X138535748Y-116244157D01*
X138362580Y-116333298D01*
X138097478Y-116434573D01*
X137878981Y-116459368D01*
X137689435Y-116408336D01*
X137511185Y-116282132D01*
X137465880Y-116238575D01*
X137344919Y-116074454D01*
X137290572Y-115880244D01*
X137267947Y-115762415D01*
X137203029Y-115638415D01*
X137072908Y-115536896D01*
X136885786Y-115421248D01*
X136921114Y-115031384D01*
X136956443Y-114641520D01*
X136710403Y-114604624D01*
X136693955Y-114602199D01*
X136535914Y-114589453D01*
X136430105Y-114616588D01*
X136329070Y-114694830D01*
X136294103Y-114726002D01*
X136215322Y-114776847D01*
X136113616Y-114805719D01*
X135960931Y-114818527D01*
X135729211Y-114821181D01*
X135718312Y-114821158D01*
X135473747Y-114815382D01*
X135297057Y-114794717D01*
X135150594Y-114751884D01*
X134996714Y-114679610D01*
X134817580Y-114577185D01*
X134659251Y-114450962D01*
X134558457Y-114304440D01*
X134489779Y-114109006D01*
X134454377Y-113820859D01*
X134499078Y-113471741D01*
X134629125Y-113121525D01*
X134693722Y-113004561D01*
X134848036Y-112813089D01*
X135012765Y-112726794D01*
X135189675Y-112744491D01*
X135198100Y-112747605D01*
X135302150Y-112772963D01*
X135345026Y-112758309D01*
X135347210Y-112747664D01*
X135392946Y-112667108D01*
X135479326Y-112553883D01*
X135567712Y-112470744D01*
X135791069Y-112357480D01*
X136063935Y-112304811D01*
X136360323Y-112313404D01*
X136654247Y-112383922D01*
X136919723Y-112517030D01*
X137106587Y-112643839D01*
X137141034Y-112487000D01*
X137157578Y-112422812D01*
X137197785Y-112360391D01*
X137282072Y-112334981D01*
X137441944Y-112330160D01*
X137531355Y-112329124D01*
X137653726Y-112314583D01*
X137718952Y-112270241D01*
X137760653Y-112180287D01*
X137779875Y-112145827D01*
X137872246Y-112033690D01*
X138026314Y-111872392D01*
X138229455Y-111673161D01*
X138469042Y-111447226D01*
X138732451Y-111205818D01*
X139007057Y-110960165D01*
X139280235Y-110721496D01*
X139539359Y-110501041D01*
X139771803Y-110310028D01*
X139964944Y-110159688D01*
X140106156Y-110061249D01*
X140182813Y-110025941D01*
X140194465Y-110025358D01*
X140298493Y-109982134D01*
X140439192Y-109864499D01*
X140626649Y-109664232D01*
X140766416Y-109507931D01*
X140975641Y-109279879D01*
X141205496Y-109034025D01*
X141426565Y-108802075D01*
X141451345Y-108776350D01*
X141634112Y-108584021D01*
X141788970Y-108416732D01*
X141900234Y-108291670D01*
X141952224Y-108226021D01*
X141978985Y-108191433D01*
X142059397Y-108150286D01*
X142066296Y-108148768D01*
X142130849Y-108091504D01*
X142227083Y-107968028D01*
X142336896Y-107801115D01*
X142501665Y-107560653D01*
X142730216Y-107308854D01*
X142962333Y-107136095D01*
X143187839Y-107047747D01*
X143396557Y-107049184D01*
G37*
%TD*%
D13*
%TO.C,J3*%
X162305000Y-102870000D03*
D14*
X162305000Y-105370000D03*
X162305000Y-107870000D03*
%TD*%
D15*
%TO.C,H3*%
X125095000Y-122555000D03*
%TD*%
D16*
%TO.C,J1*%
X124460000Y-115911000D03*
D17*
X124460000Y-113411000D03*
%TD*%
D15*
%TO.C,H4*%
X161290000Y-122555000D03*
%TD*%
D13*
%TO.C,J2*%
X161815000Y-81340000D03*
D14*
X161815000Y-83840000D03*
X161815000Y-86340000D03*
X161815000Y-88840000D03*
%TD*%
D15*
%TO.C,H2*%
X161290000Y-74295000D03*
%TD*%
%TO.C,H1*%
X125095000Y-74295000D03*
%TD*%
D18*
%TO.C,TP7*%
X163830000Y-117983000D03*
%TD*%
%TO.C,TP5*%
X155067000Y-112268000D03*
%TD*%
%TO.C,TP13*%
X153416000Y-104648000D03*
%TD*%
%TO.C,TP8*%
X154813000Y-122936000D03*
%TD*%
%TO.C,TP6*%
X156464000Y-118110000D03*
%TD*%
%TO.C,TP14*%
X153035000Y-107569000D03*
%TD*%
%TO.C,TP4*%
X152781000Y-119253000D03*
%TD*%
%TO.C,TP9*%
X153543000Y-115951000D03*
%TD*%
M02*
