%TF.GenerationSoftware,KiCad,Pcbnew,(6.0.1-0)*%
%TF.CreationDate,2022-10-07T23:17:40-05:00*%
%TF.ProjectId,tackle_sensor_hardware,7461636b-6c65-45f7-9365-6e736f725f68,rev?*%
%TF.SameCoordinates,Original*%
%TF.FileFunction,Copper,L2,Inr*%
%TF.FilePolarity,Positive*%
%FSLAX46Y46*%
G04 Gerber Fmt 4.6, Leading zero omitted, Abs format (unit mm)*
G04 Created by KiCad (PCBNEW (6.0.1-0)) date 2022-10-07 23:17:40*
%MOMM*%
%LPD*%
G01*
G04 APERTURE LIST*
G04 Aperture macros list*
%AMRoundRect*
0 Rectangle with rounded corners*
0 $1 Rounding radius*
0 $2 $3 $4 $5 $6 $7 $8 $9 X,Y pos of 4 corners*
0 Add a 4 corners polygon primitive as box body*
4,1,4,$2,$3,$4,$5,$6,$7,$8,$9,$2,$3,0*
0 Add four circle primitives for the rounded corners*
1,1,$1+$1,$2,$3*
1,1,$1+$1,$4,$5*
1,1,$1+$1,$6,$7*
1,1,$1+$1,$8,$9*
0 Add four rect primitives between the rounded corners*
20,1,$1+$1,$2,$3,$4,$5,0*
20,1,$1+$1,$4,$5,$6,$7,0*
20,1,$1+$1,$6,$7,$8,$9,0*
20,1,$1+$1,$8,$9,$2,$3,0*%
G04 Aperture macros list end*
%TA.AperFunction,ComponentPad*%
%ADD10RoundRect,0.250000X-0.725000X0.600000X-0.725000X-0.600000X0.725000X-0.600000X0.725000X0.600000X0*%
%TD*%
%TA.AperFunction,ComponentPad*%
%ADD11O,1.950000X1.700000*%
%TD*%
%TA.AperFunction,ComponentPad*%
%ADD12RoundRect,0.250000X0.750000X-0.600000X0.750000X0.600000X-0.750000X0.600000X-0.750000X-0.600000X0*%
%TD*%
%TA.AperFunction,ComponentPad*%
%ADD13O,2.000000X1.700000*%
%TD*%
%TA.AperFunction,ViaPad*%
%ADD14C,0.800000*%
%TD*%
%TA.AperFunction,ViaPad*%
%ADD15C,0.500000*%
%TD*%
%TA.AperFunction,ViaPad*%
%ADD16C,1.000000*%
%TD*%
G04 APERTURE END LIST*
D10*
%TO.N,Net-(J3-Pad1)*%
%TO.C,J3*%
X162305000Y-102870000D03*
D11*
%TO.N,Net-(J3-Pad2)*%
X162305000Y-105370000D03*
%TO.N,GND*%
X162305000Y-107870000D03*
%TD*%
D12*
%TO.N,GND*%
%TO.C,J1*%
X124460000Y-115911000D03*
D13*
%TO.N,Net-(J1-Pad2)*%
X124460000Y-113411000D03*
%TD*%
D10*
%TO.N,Net-(F1-Pad2)*%
%TO.C,J2*%
X161815000Y-81340000D03*
D11*
%TO.N,Net-(J2-Pad2)*%
X161815000Y-83840000D03*
%TO.N,Net-(J2-Pad3)*%
X161815000Y-86340000D03*
%TO.N,Net-(J2-Pad4)*%
X161815000Y-88840000D03*
%TD*%
D14*
%TO.N,GND*%
X135255000Y-111760000D03*
D15*
X132080000Y-74549000D03*
X131064000Y-75438000D03*
X130048000Y-74549000D03*
X131064000Y-73660000D03*
X127508000Y-78105000D03*
X132080000Y-73660000D03*
X147769500Y-111816000D03*
X149293500Y-112578000D03*
X130048000Y-75438000D03*
X157040500Y-109657000D03*
X130048000Y-71628000D03*
X131064000Y-71628000D03*
X131064000Y-74549000D03*
X136525000Y-70739000D03*
X145102500Y-103942000D03*
X132080000Y-72644000D03*
X156659500Y-113848000D03*
X143256000Y-109855000D03*
X126492000Y-78105000D03*
X132080000Y-71628000D03*
X125476000Y-78105000D03*
X137541000Y-70739000D03*
X131064000Y-76327000D03*
X130048000Y-72644000D03*
X135509000Y-70739000D03*
X142478000Y-97665000D03*
X130048000Y-76327000D03*
X131064000Y-72644000D03*
X132080000Y-75438000D03*
X127381000Y-83312000D03*
X130048000Y-73660000D03*
%TO.N,+3V3*%
X144912000Y-102862500D03*
X152341500Y-113848000D03*
X144383000Y-103634000D03*
X152341500Y-111816000D03*
X152341500Y-109657000D03*
%TO.N,Net-(R7-Pad2)*%
X123317000Y-79375000D03*
X136398000Y-82677000D03*
%TO.N,Net-(R4-Pad1)*%
X125095000Y-84582000D03*
X127635000Y-80645000D03*
D16*
%TO.N,+12V*%
X139065000Y-80772000D03*
X150856000Y-73214000D03*
D15*
%TO.N,Net-(C9-Pad2)*%
X155829000Y-96393000D03*
%TO.N,/SWCLK*%
X139827000Y-82296000D03*
%TO.N,TACKLE_STATUS*%
X164102774Y-97241000D03*
%TO.N,Net-(C9-Pad2)*%
X151910774Y-95717000D03*
%TO.N,/SPI1_SCK*%
X150309500Y-109149000D03*
X144467500Y-106609000D03*
%TO.N,/ACC_INT1*%
X148150500Y-104831000D03*
X151071500Y-108768000D03*
X143256000Y-107950000D03*
X142181500Y-106863000D03*
%TO.N,Net-(SW2-Pad2)*%
X144975500Y-101910000D03*
X141165500Y-105085000D03*
%TD*%
%TA.AperFunction,Conductor*%
%TO.N,GND*%
G36*
X161291967Y-70359500D02*
G01*
X161306768Y-70361805D01*
X161306771Y-70361805D01*
X161315640Y-70363186D01*
X161335536Y-70360584D01*
X161357694Y-70359654D01*
X161679353Y-70374525D01*
X161690942Y-70375599D01*
X162039568Y-70424231D01*
X162051007Y-70426370D01*
X162244398Y-70471855D01*
X162393654Y-70506959D01*
X162404836Y-70510140D01*
X162571720Y-70566074D01*
X162738595Y-70622006D01*
X162749447Y-70626210D01*
X163071457Y-70768391D01*
X163081862Y-70773571D01*
X163389397Y-70944867D01*
X163399274Y-70950983D01*
X163689677Y-71149914D01*
X163698965Y-71156928D01*
X163969775Y-71381806D01*
X163978375Y-71389647D01*
X164227263Y-71638535D01*
X164235104Y-71647135D01*
X164459982Y-71917945D01*
X164466996Y-71927233D01*
X164644731Y-72186693D01*
X164665927Y-72217636D01*
X164672043Y-72227513D01*
X164843339Y-72535048D01*
X164848519Y-72545453D01*
X164990700Y-72867463D01*
X164994904Y-72878315D01*
X165106241Y-73210495D01*
X165106767Y-73212065D01*
X165109952Y-73223260D01*
X165190540Y-73565903D01*
X165192679Y-73577342D01*
X165241311Y-73925968D01*
X165242385Y-73937557D01*
X165256913Y-74251816D01*
X165255548Y-74277015D01*
X165253724Y-74288730D01*
X165254888Y-74297632D01*
X165254888Y-74297635D01*
X165257846Y-74320251D01*
X165258910Y-74336589D01*
X165258910Y-122505672D01*
X165257410Y-122525056D01*
X165253724Y-122548730D01*
X165255364Y-122561270D01*
X165256326Y-122568626D01*
X165257256Y-122590784D01*
X165242385Y-122912443D01*
X165241311Y-122924032D01*
X165192679Y-123272658D01*
X165190540Y-123284097D01*
X165109952Y-123626740D01*
X165106770Y-123637926D01*
X165060621Y-123775614D01*
X164994904Y-123971685D01*
X164990700Y-123982537D01*
X164848519Y-124304547D01*
X164843339Y-124314952D01*
X164672043Y-124622487D01*
X164665928Y-124632363D01*
X164644698Y-124663354D01*
X164466996Y-124922767D01*
X164459982Y-124932055D01*
X164235104Y-125202865D01*
X164227263Y-125211465D01*
X163978375Y-125460353D01*
X163969775Y-125468194D01*
X163698965Y-125693072D01*
X163689677Y-125700086D01*
X163399274Y-125899017D01*
X163389397Y-125905133D01*
X163081862Y-126076429D01*
X163071457Y-126081609D01*
X162749447Y-126223790D01*
X162738595Y-126227994D01*
X162571720Y-126283925D01*
X162404836Y-126339860D01*
X162393654Y-126343041D01*
X162244398Y-126378145D01*
X162051007Y-126423630D01*
X162039568Y-126425769D01*
X161690942Y-126474401D01*
X161679354Y-126475475D01*
X161654301Y-126476633D01*
X161365094Y-126490003D01*
X161339895Y-126488638D01*
X161337052Y-126488195D01*
X161337050Y-126488195D01*
X161328180Y-126486814D01*
X161319278Y-126487978D01*
X161319275Y-126487978D01*
X161296659Y-126490936D01*
X161280321Y-126492000D01*
X125144328Y-126492000D01*
X125124943Y-126490500D01*
X125110142Y-126488195D01*
X125110139Y-126488195D01*
X125101270Y-126486814D01*
X125082105Y-126489320D01*
X125081374Y-126489416D01*
X125059216Y-126490346D01*
X124737557Y-126475475D01*
X124725968Y-126474401D01*
X124377342Y-126425769D01*
X124365903Y-126423630D01*
X124172512Y-126378145D01*
X124023256Y-126343041D01*
X124012074Y-126339860D01*
X123845190Y-126283926D01*
X123678315Y-126227994D01*
X123667463Y-126223790D01*
X123345453Y-126081609D01*
X123335048Y-126076429D01*
X123027513Y-125905133D01*
X123017636Y-125899017D01*
X122727233Y-125700086D01*
X122717945Y-125693072D01*
X122447135Y-125468194D01*
X122438535Y-125460353D01*
X122189647Y-125211465D01*
X122181806Y-125202865D01*
X121956928Y-124932055D01*
X121949914Y-124922767D01*
X121772212Y-124663354D01*
X121750982Y-124632363D01*
X121744867Y-124622487D01*
X121573571Y-124314952D01*
X121568391Y-124304547D01*
X121426210Y-123982537D01*
X121422006Y-123971685D01*
X121356289Y-123775614D01*
X121310140Y-123637926D01*
X121306958Y-123626740D01*
X121226370Y-123284097D01*
X121224231Y-123272658D01*
X121175599Y-122924032D01*
X121174525Y-122912443D01*
X121164135Y-122687703D01*
X122985743Y-122687703D01*
X123023268Y-122972734D01*
X123099129Y-123250036D01*
X123211923Y-123514476D01*
X123359561Y-123761161D01*
X123539313Y-123985528D01*
X123747851Y-124183423D01*
X123981317Y-124351186D01*
X123985112Y-124353195D01*
X123985113Y-124353196D01*
X124006869Y-124364715D01*
X124235392Y-124485712D01*
X124505373Y-124584511D01*
X124786264Y-124645755D01*
X124814841Y-124648004D01*
X125009282Y-124663307D01*
X125009291Y-124663307D01*
X125011739Y-124663500D01*
X125167271Y-124663500D01*
X125169407Y-124663354D01*
X125169418Y-124663354D01*
X125377548Y-124649165D01*
X125377554Y-124649164D01*
X125381825Y-124648873D01*
X125386020Y-124648004D01*
X125386022Y-124648004D01*
X125522584Y-124619723D01*
X125663342Y-124590574D01*
X125934343Y-124494607D01*
X126189812Y-124362750D01*
X126193313Y-124360289D01*
X126193317Y-124360287D01*
X126349328Y-124250640D01*
X126425023Y-124197441D01*
X126635622Y-124001740D01*
X126817713Y-123779268D01*
X126967927Y-123534142D01*
X127083483Y-123270898D01*
X127162244Y-122994406D01*
X127202751Y-122709784D01*
X127202845Y-122691951D01*
X127202867Y-122687703D01*
X159180743Y-122687703D01*
X159218268Y-122972734D01*
X159294129Y-123250036D01*
X159406923Y-123514476D01*
X159554561Y-123761161D01*
X159734313Y-123985528D01*
X159942851Y-124183423D01*
X160176317Y-124351186D01*
X160180112Y-124353195D01*
X160180113Y-124353196D01*
X160201869Y-124364715D01*
X160430392Y-124485712D01*
X160700373Y-124584511D01*
X160981264Y-124645755D01*
X161009841Y-124648004D01*
X161204282Y-124663307D01*
X161204291Y-124663307D01*
X161206739Y-124663500D01*
X161362271Y-124663500D01*
X161364407Y-124663354D01*
X161364418Y-124663354D01*
X161572548Y-124649165D01*
X161572554Y-124649164D01*
X161576825Y-124648873D01*
X161581020Y-124648004D01*
X161581022Y-124648004D01*
X161717584Y-124619723D01*
X161858342Y-124590574D01*
X162129343Y-124494607D01*
X162384812Y-124362750D01*
X162388313Y-124360289D01*
X162388317Y-124360287D01*
X162544328Y-124250640D01*
X162620023Y-124197441D01*
X162830622Y-124001740D01*
X163012713Y-123779268D01*
X163162927Y-123534142D01*
X163278483Y-123270898D01*
X163357244Y-122994406D01*
X163397751Y-122709784D01*
X163397845Y-122691951D01*
X163399235Y-122426583D01*
X163399235Y-122426576D01*
X163399257Y-122422297D01*
X163361732Y-122137266D01*
X163285871Y-121859964D01*
X163173077Y-121595524D01*
X163025439Y-121348839D01*
X162845687Y-121124472D01*
X162637149Y-120926577D01*
X162403683Y-120758814D01*
X162381843Y-120747250D01*
X162358654Y-120734972D01*
X162149608Y-120624288D01*
X161879627Y-120525489D01*
X161598736Y-120464245D01*
X161567685Y-120461801D01*
X161375718Y-120446693D01*
X161375709Y-120446693D01*
X161373261Y-120446500D01*
X161217729Y-120446500D01*
X161215593Y-120446646D01*
X161215582Y-120446646D01*
X161007452Y-120460835D01*
X161007446Y-120460836D01*
X161003175Y-120461127D01*
X160998980Y-120461996D01*
X160998978Y-120461996D01*
X160862416Y-120490277D01*
X160721658Y-120519426D01*
X160450657Y-120615393D01*
X160195188Y-120747250D01*
X160191687Y-120749711D01*
X160191683Y-120749713D01*
X160181594Y-120756804D01*
X159959977Y-120912559D01*
X159749378Y-121108260D01*
X159567287Y-121330732D01*
X159417073Y-121575858D01*
X159301517Y-121839102D01*
X159222756Y-122115594D01*
X159182249Y-122400216D01*
X159182227Y-122404505D01*
X159182226Y-122404512D01*
X159180765Y-122683417D01*
X159180743Y-122687703D01*
X127202867Y-122687703D01*
X127204235Y-122426583D01*
X127204235Y-122426576D01*
X127204257Y-122422297D01*
X127166732Y-122137266D01*
X127090871Y-121859964D01*
X126978077Y-121595524D01*
X126830439Y-121348839D01*
X126650687Y-121124472D01*
X126442149Y-120926577D01*
X126208683Y-120758814D01*
X126186843Y-120747250D01*
X126163654Y-120734972D01*
X125954608Y-120624288D01*
X125684627Y-120525489D01*
X125403736Y-120464245D01*
X125372685Y-120461801D01*
X125180718Y-120446693D01*
X125180709Y-120446693D01*
X125178261Y-120446500D01*
X125022729Y-120446500D01*
X125020593Y-120446646D01*
X125020582Y-120446646D01*
X124812452Y-120460835D01*
X124812446Y-120460836D01*
X124808175Y-120461127D01*
X124803980Y-120461996D01*
X124803978Y-120461996D01*
X124667416Y-120490277D01*
X124526658Y-120519426D01*
X124255657Y-120615393D01*
X124000188Y-120747250D01*
X123996687Y-120749711D01*
X123996683Y-120749713D01*
X123986594Y-120756804D01*
X123764977Y-120912559D01*
X123554378Y-121108260D01*
X123372287Y-121330732D01*
X123222073Y-121575858D01*
X123106517Y-121839102D01*
X123027756Y-122115594D01*
X122987249Y-122400216D01*
X122987227Y-122404505D01*
X122987226Y-122404512D01*
X122985765Y-122683417D01*
X122985743Y-122687703D01*
X121164135Y-122687703D01*
X121159997Y-122598184D01*
X121161362Y-122572985D01*
X121161805Y-122570142D01*
X121161805Y-122570140D01*
X121163186Y-122561270D01*
X121161547Y-122548730D01*
X121159064Y-122529749D01*
X121158000Y-122513411D01*
X121158000Y-116558095D01*
X122952001Y-116558095D01*
X122952338Y-116564614D01*
X122962257Y-116660206D01*
X122965149Y-116673600D01*
X123016588Y-116827784D01*
X123022761Y-116840962D01*
X123108063Y-116978807D01*
X123117099Y-116990208D01*
X123231829Y-117104739D01*
X123243240Y-117113751D01*
X123381243Y-117198816D01*
X123394424Y-117204963D01*
X123548710Y-117256138D01*
X123562086Y-117259005D01*
X123656438Y-117268672D01*
X123662854Y-117269000D01*
X124187885Y-117269000D01*
X124203124Y-117264525D01*
X124204329Y-117263135D01*
X124206000Y-117255452D01*
X124206000Y-117250884D01*
X124714000Y-117250884D01*
X124718475Y-117266123D01*
X124719865Y-117267328D01*
X124727548Y-117268999D01*
X125257095Y-117268999D01*
X125263614Y-117268662D01*
X125359206Y-117258743D01*
X125372600Y-117255851D01*
X125526784Y-117204412D01*
X125539962Y-117198239D01*
X125677807Y-117112937D01*
X125689208Y-117103901D01*
X125803739Y-116989171D01*
X125812751Y-116977760D01*
X125897816Y-116839757D01*
X125903963Y-116826576D01*
X125955138Y-116672290D01*
X125958005Y-116658914D01*
X125967672Y-116564562D01*
X125968000Y-116558146D01*
X125968000Y-116183115D01*
X125963525Y-116167876D01*
X125962135Y-116166671D01*
X125954452Y-116165000D01*
X124732115Y-116165000D01*
X124716876Y-116169475D01*
X124715671Y-116170865D01*
X124714000Y-116178548D01*
X124714000Y-117250884D01*
X124206000Y-117250884D01*
X124206000Y-116183115D01*
X124201525Y-116167876D01*
X124200135Y-116166671D01*
X124192452Y-116165000D01*
X122970116Y-116165000D01*
X122954877Y-116169475D01*
X122953672Y-116170865D01*
X122952001Y-116178548D01*
X122952001Y-116558095D01*
X121158000Y-116558095D01*
X121158000Y-113346774D01*
X122948102Y-113346774D01*
X122948302Y-113352103D01*
X122948302Y-113352105D01*
X122949344Y-113379854D01*
X122956751Y-113577158D01*
X123004093Y-113802791D01*
X123006051Y-113807750D01*
X123006052Y-113807752D01*
X123084621Y-114006699D01*
X123088776Y-114017221D01*
X123208377Y-114214317D01*
X123211874Y-114218347D01*
X123316258Y-114338639D01*
X123359477Y-114388445D01*
X123363608Y-114391832D01*
X123395529Y-114418006D01*
X123435524Y-114476666D01*
X123437455Y-114547636D01*
X123400710Y-114608384D01*
X123381941Y-114622584D01*
X123242193Y-114709063D01*
X123230792Y-114718099D01*
X123116261Y-114832829D01*
X123107249Y-114844240D01*
X123022184Y-114982243D01*
X123016037Y-114995424D01*
X122964862Y-115149710D01*
X122961995Y-115163086D01*
X122952328Y-115257438D01*
X122952000Y-115263855D01*
X122952000Y-115638885D01*
X122956475Y-115654124D01*
X122957865Y-115655329D01*
X122965548Y-115657000D01*
X125949884Y-115657000D01*
X125965123Y-115652525D01*
X125966328Y-115651135D01*
X125967999Y-115643452D01*
X125967999Y-115263905D01*
X125967662Y-115257386D01*
X125957743Y-115161794D01*
X125954851Y-115148400D01*
X125903412Y-114994216D01*
X125897239Y-114981038D01*
X125811937Y-114843193D01*
X125802901Y-114831792D01*
X125688171Y-114717261D01*
X125676757Y-114708247D01*
X125537287Y-114622277D01*
X125489793Y-114569505D01*
X125478369Y-114499434D01*
X125506643Y-114434310D01*
X125516430Y-114423847D01*
X125549991Y-114391832D01*
X125631135Y-114314424D01*
X125768754Y-114129458D01*
X125873240Y-113923949D01*
X125900133Y-113837343D01*
X151578275Y-113837343D01*
X151594881Y-114006699D01*
X151648594Y-114168167D01*
X151652241Y-114174189D01*
X151652242Y-114174191D01*
X151665997Y-114196902D01*
X151736746Y-114313723D01*
X151854955Y-114436132D01*
X151997346Y-114529310D01*
X152003950Y-114531766D01*
X152003952Y-114531767D01*
X152040344Y-114545301D01*
X152156841Y-114588626D01*
X152325515Y-114611132D01*
X152332526Y-114610494D01*
X152332530Y-114610494D01*
X152487962Y-114596348D01*
X152494983Y-114595709D01*
X152501685Y-114593531D01*
X152501687Y-114593531D01*
X152650123Y-114545301D01*
X152650126Y-114545300D01*
X152656822Y-114543124D01*
X152802990Y-114455990D01*
X152808084Y-114451139D01*
X152808088Y-114451136D01*
X152878154Y-114384412D01*
X152926221Y-114338639D01*
X152942310Y-114314424D01*
X153016490Y-114202773D01*
X153020391Y-114196902D01*
X153080819Y-114037825D01*
X153083074Y-114021783D01*
X153096154Y-113928704D01*
X153104501Y-113869313D01*
X153104799Y-113848000D01*
X153085831Y-113678892D01*
X153029868Y-113518189D01*
X153023883Y-113508610D01*
X152999690Y-113469895D01*
X152939692Y-113373879D01*
X152819786Y-113253132D01*
X152803539Y-113242821D01*
X152764906Y-113218304D01*
X152676108Y-113161951D01*
X152515800Y-113104868D01*
X152346829Y-113084720D01*
X152339826Y-113085456D01*
X152339825Y-113085456D01*
X152184601Y-113101770D01*
X152184597Y-113101771D01*
X152177593Y-113102507D01*
X152170922Y-113104778D01*
X152023173Y-113155075D01*
X152023170Y-113155076D01*
X152016503Y-113157346D01*
X152010505Y-113161036D01*
X152010503Y-113161037D01*
X151877565Y-113242821D01*
X151877563Y-113242823D01*
X151871566Y-113246512D01*
X151866533Y-113251441D01*
X151774580Y-113341489D01*
X151749986Y-113365573D01*
X151657804Y-113508610D01*
X151599603Y-113668516D01*
X151578275Y-113837343D01*
X125900133Y-113837343D01*
X125909321Y-113807752D01*
X125940024Y-113708871D01*
X125941607Y-113703773D01*
X125947157Y-113661897D01*
X125971198Y-113480511D01*
X125971198Y-113480506D01*
X125971898Y-113475226D01*
X125963249Y-113244842D01*
X125915907Y-113019209D01*
X125831224Y-112804779D01*
X125711623Y-112607683D01*
X125674019Y-112564348D01*
X125564023Y-112437588D01*
X125564021Y-112437586D01*
X125560523Y-112433555D01*
X125518458Y-112399064D01*
X125386373Y-112290760D01*
X125386367Y-112290756D01*
X125382245Y-112287376D01*
X125377609Y-112284737D01*
X125377606Y-112284735D01*
X125186529Y-112175968D01*
X125181886Y-112173325D01*
X124965175Y-112094663D01*
X124959926Y-112093714D01*
X124959923Y-112093713D01*
X124742392Y-112054377D01*
X124742385Y-112054376D01*
X124738308Y-112053639D01*
X124720586Y-112052803D01*
X124715644Y-112052570D01*
X124715637Y-112052570D01*
X124714156Y-112052500D01*
X124252110Y-112052500D01*
X124185191Y-112058178D01*
X124085591Y-112066629D01*
X124085587Y-112066630D01*
X124080280Y-112067080D01*
X124075125Y-112068418D01*
X124075119Y-112068419D01*
X123862297Y-112123657D01*
X123862293Y-112123658D01*
X123857128Y-112124999D01*
X123852262Y-112127191D01*
X123852259Y-112127192D01*
X123743980Y-112175968D01*
X123646925Y-112219688D01*
X123455681Y-112348441D01*
X123451824Y-112352120D01*
X123451822Y-112352122D01*
X123397302Y-112404132D01*
X123288865Y-112507576D01*
X123151246Y-112692542D01*
X123046760Y-112898051D01*
X123045178Y-112903145D01*
X123045177Y-112903148D01*
X122988797Y-113084720D01*
X122978393Y-113118227D01*
X122977692Y-113123516D01*
X122959851Y-113258129D01*
X122948102Y-113346774D01*
X121158000Y-113346774D01*
X121158000Y-111805343D01*
X151578275Y-111805343D01*
X151594881Y-111974699D01*
X151648594Y-112136167D01*
X151652241Y-112142189D01*
X151652242Y-112142191D01*
X151671098Y-112173325D01*
X151736746Y-112281723D01*
X151854955Y-112404132D01*
X151997346Y-112497310D01*
X152003950Y-112499766D01*
X152003952Y-112499767D01*
X152036453Y-112511854D01*
X152156841Y-112556626D01*
X152325515Y-112579132D01*
X152332526Y-112578494D01*
X152332530Y-112578494D01*
X152487962Y-112564348D01*
X152494983Y-112563709D01*
X152501685Y-112561531D01*
X152501687Y-112561531D01*
X152650123Y-112513301D01*
X152650126Y-112513300D01*
X152656822Y-112511124D01*
X152802990Y-112423990D01*
X152808084Y-112419139D01*
X152808088Y-112419136D01*
X152885454Y-112345461D01*
X152926221Y-112306639D01*
X152939020Y-112287376D01*
X152983991Y-112219688D01*
X153020391Y-112164902D01*
X153080819Y-112005825D01*
X153104501Y-111837313D01*
X153104799Y-111816000D01*
X153085831Y-111646892D01*
X153029868Y-111486189D01*
X153023883Y-111476610D01*
X153001920Y-111441464D01*
X152939692Y-111341879D01*
X152819786Y-111221132D01*
X152803539Y-111210821D01*
X152764906Y-111186304D01*
X152676108Y-111129951D01*
X152515800Y-111072868D01*
X152346829Y-111052720D01*
X152339826Y-111053456D01*
X152339825Y-111053456D01*
X152184601Y-111069770D01*
X152184597Y-111069771D01*
X152177593Y-111070507D01*
X152170922Y-111072778D01*
X152023173Y-111123075D01*
X152023170Y-111123076D01*
X152016503Y-111125346D01*
X152010505Y-111129036D01*
X152010503Y-111129037D01*
X151877565Y-111210821D01*
X151877563Y-111210823D01*
X151871566Y-111214512D01*
X151749986Y-111333573D01*
X151657804Y-111476610D01*
X151599603Y-111636516D01*
X151578275Y-111805343D01*
X121158000Y-111805343D01*
X121158000Y-109138343D01*
X149546275Y-109138343D01*
X149562881Y-109307699D01*
X149616594Y-109469167D01*
X149620241Y-109475189D01*
X149620242Y-109475191D01*
X149684372Y-109581081D01*
X149704746Y-109614723D01*
X149822955Y-109737132D01*
X149965346Y-109830310D01*
X149971950Y-109832766D01*
X149971952Y-109832767D01*
X150008344Y-109846301D01*
X150124841Y-109889626D01*
X150293515Y-109912132D01*
X150300526Y-109911494D01*
X150300530Y-109911494D01*
X150455962Y-109897348D01*
X150462983Y-109896709D01*
X150469685Y-109894531D01*
X150469687Y-109894531D01*
X150618123Y-109846301D01*
X150618126Y-109846300D01*
X150624822Y-109844124D01*
X150770990Y-109756990D01*
X150776084Y-109752139D01*
X150776088Y-109752136D01*
X150857754Y-109674366D01*
X150894221Y-109639639D01*
X150930007Y-109585777D01*
X150984363Y-109540108D01*
X151041445Y-109532050D01*
X151041487Y-109530053D01*
X151048535Y-109530201D01*
X151055515Y-109531132D01*
X151062526Y-109530494D01*
X151062530Y-109530494D01*
X151217962Y-109516348D01*
X151224983Y-109515709D01*
X151231685Y-109513531D01*
X151231687Y-109513531D01*
X151380123Y-109465301D01*
X151380126Y-109465300D01*
X151386822Y-109463124D01*
X151396996Y-109457059D01*
X151465751Y-109439359D01*
X151533160Y-109461641D01*
X151577823Y-109516829D01*
X151586520Y-109581079D01*
X151578275Y-109646343D01*
X151594881Y-109815699D01*
X151648594Y-109977167D01*
X151652241Y-109983189D01*
X151652242Y-109983191D01*
X151665997Y-110005902D01*
X151736746Y-110122723D01*
X151854955Y-110245132D01*
X151997346Y-110338310D01*
X152003950Y-110340766D01*
X152003952Y-110340767D01*
X152040344Y-110354301D01*
X152156841Y-110397626D01*
X152325515Y-110420132D01*
X152332526Y-110419494D01*
X152332530Y-110419494D01*
X152487962Y-110405348D01*
X152494983Y-110404709D01*
X152501685Y-110402531D01*
X152501687Y-110402531D01*
X152650123Y-110354301D01*
X152650126Y-110354300D01*
X152656822Y-110352124D01*
X152802990Y-110264990D01*
X152808084Y-110260139D01*
X152808088Y-110260136D01*
X152875333Y-110196099D01*
X152926221Y-110147639D01*
X153020391Y-110005902D01*
X153080819Y-109846825D01*
X153104501Y-109678313D01*
X153104799Y-109657000D01*
X153085831Y-109487892D01*
X153076690Y-109461641D01*
X153032186Y-109333846D01*
X153029868Y-109327189D01*
X153023883Y-109317610D01*
X152987033Y-109258639D01*
X152939692Y-109182879D01*
X152819786Y-109062132D01*
X152676108Y-108970951D01*
X152515800Y-108913868D01*
X152346829Y-108893720D01*
X152339826Y-108894456D01*
X152339825Y-108894456D01*
X152184601Y-108910770D01*
X152184597Y-108910771D01*
X152177593Y-108911507D01*
X152170922Y-108913778D01*
X152023173Y-108964075D01*
X152023170Y-108964076D01*
X152016503Y-108966346D01*
X152010504Y-108970037D01*
X152005692Y-108972301D01*
X151935538Y-108983206D01*
X151870625Y-108954452D01*
X151831562Y-108895168D01*
X151827271Y-108840756D01*
X151833952Y-108793221D01*
X151833952Y-108793218D01*
X151834501Y-108789313D01*
X151834618Y-108780964D01*
X151834744Y-108771961D01*
X151834744Y-108771955D01*
X151834799Y-108768000D01*
X151815831Y-108598892D01*
X151797939Y-108547512D01*
X151790683Y-108526678D01*
X151759868Y-108438189D01*
X151737736Y-108402770D01*
X151676499Y-108304773D01*
X151669692Y-108293879D01*
X151549786Y-108173132D01*
X151541322Y-108167760D01*
X151495341Y-108138580D01*
X160848752Y-108138580D01*
X160873477Y-108256421D01*
X160876537Y-108266617D01*
X160957263Y-108471029D01*
X160961994Y-108480561D01*
X161076016Y-108668462D01*
X161082280Y-108677052D01*
X161226327Y-108843052D01*
X161233958Y-108850472D01*
X161403911Y-108989826D01*
X161412678Y-108995850D01*
X161603682Y-109104576D01*
X161613346Y-109109041D01*
X161819941Y-109184031D01*
X161830208Y-109186802D01*
X162033174Y-109223504D01*
X162046414Y-109222085D01*
X162051000Y-109207450D01*
X162051000Y-109203849D01*
X162559000Y-109203849D01*
X162563310Y-109218527D01*
X162575193Y-109220590D01*
X162654325Y-109213876D01*
X162664797Y-109212086D01*
X162877535Y-109156870D01*
X162887575Y-109153335D01*
X163087970Y-109063063D01*
X163097256Y-109057894D01*
X163279575Y-108935150D01*
X163287870Y-108928481D01*
X163446900Y-108776772D01*
X163453941Y-108768814D01*
X163585141Y-108592475D01*
X163590745Y-108583438D01*
X163690357Y-108387516D01*
X163694357Y-108377665D01*
X163759534Y-108167760D01*
X163761817Y-108157376D01*
X163763861Y-108141957D01*
X163761665Y-108127793D01*
X163748478Y-108124000D01*
X162577115Y-108124000D01*
X162561876Y-108128475D01*
X162560671Y-108129865D01*
X162559000Y-108137548D01*
X162559000Y-109203849D01*
X162051000Y-109203849D01*
X162051000Y-108142115D01*
X162046525Y-108126876D01*
X162045135Y-108125671D01*
X162037452Y-108124000D01*
X160863808Y-108124000D01*
X160850277Y-108127973D01*
X160848752Y-108138580D01*
X151495341Y-108138580D01*
X151476898Y-108126876D01*
X151406108Y-108081951D01*
X151245800Y-108024868D01*
X151076829Y-108004720D01*
X151069826Y-108005456D01*
X151069825Y-108005456D01*
X150914601Y-108021770D01*
X150914597Y-108021771D01*
X150907593Y-108022507D01*
X150900922Y-108024778D01*
X150753173Y-108075075D01*
X150753170Y-108075076D01*
X150746503Y-108077346D01*
X150740505Y-108081036D01*
X150740503Y-108081037D01*
X150607565Y-108162821D01*
X150607563Y-108162823D01*
X150601566Y-108166512D01*
X150479986Y-108285573D01*
X150476173Y-108291490D01*
X150476171Y-108291492D01*
X150450914Y-108330682D01*
X150397199Y-108377106D01*
X150330087Y-108387539D01*
X150321824Y-108386554D01*
X150321823Y-108386554D01*
X150314829Y-108385720D01*
X150307826Y-108386456D01*
X150307825Y-108386456D01*
X150152601Y-108402770D01*
X150152597Y-108402771D01*
X150145593Y-108403507D01*
X150138922Y-108405778D01*
X149991173Y-108456075D01*
X149991170Y-108456076D01*
X149984503Y-108458346D01*
X149978505Y-108462036D01*
X149978503Y-108462037D01*
X149845565Y-108543821D01*
X149845563Y-108543823D01*
X149839566Y-108547512D01*
X149717986Y-108666573D01*
X149714175Y-108672487D01*
X149714173Y-108672489D01*
X149636366Y-108793221D01*
X149625804Y-108809610D01*
X149594923Y-108894456D01*
X149582539Y-108928481D01*
X149567603Y-108969516D01*
X149546275Y-109138343D01*
X121158000Y-109138343D01*
X121158000Y-106852343D01*
X141418275Y-106852343D01*
X141434881Y-107021699D01*
X141488594Y-107183167D01*
X141492241Y-107189189D01*
X141492242Y-107189191D01*
X141563167Y-107306301D01*
X141576746Y-107328723D01*
X141694955Y-107451132D01*
X141837346Y-107544310D01*
X141843950Y-107546766D01*
X141843952Y-107546767D01*
X141912447Y-107572240D01*
X141996841Y-107603626D01*
X142165515Y-107626132D01*
X142172526Y-107625494D01*
X142172530Y-107625494D01*
X142327962Y-107611348D01*
X142334983Y-107610709D01*
X142358401Y-107603100D01*
X142429368Y-107601074D01*
X142490165Y-107637737D01*
X142521490Y-107701450D01*
X142516571Y-107756661D01*
X142518169Y-107757048D01*
X142516512Y-107763897D01*
X142514103Y-107770516D01*
X142492775Y-107939343D01*
X142509381Y-108108699D01*
X142511605Y-108115384D01*
X142511605Y-108115385D01*
X142516422Y-108129865D01*
X142563094Y-108270167D01*
X142566741Y-108276189D01*
X142566742Y-108276191D01*
X142643848Y-108403507D01*
X142651246Y-108415723D01*
X142769455Y-108538132D01*
X142792384Y-108553136D01*
X142873002Y-108605891D01*
X142911846Y-108631310D01*
X142918450Y-108633766D01*
X142918452Y-108633767D01*
X142954844Y-108647301D01*
X143071341Y-108690626D01*
X143240015Y-108713132D01*
X143247026Y-108712494D01*
X143247030Y-108712494D01*
X143402462Y-108698348D01*
X143409483Y-108697709D01*
X143416185Y-108695531D01*
X143416187Y-108695531D01*
X143564623Y-108647301D01*
X143564626Y-108647300D01*
X143571322Y-108645124D01*
X143717490Y-108557990D01*
X143722584Y-108553139D01*
X143722588Y-108553136D01*
X143808808Y-108471029D01*
X143840721Y-108440639D01*
X143846320Y-108432213D01*
X143930990Y-108304773D01*
X143934891Y-108298902D01*
X143995319Y-108139825D01*
X144019001Y-107971313D01*
X144019299Y-107950000D01*
X144000331Y-107780892D01*
X143944368Y-107620189D01*
X143938844Y-107611348D01*
X143894542Y-107540452D01*
X143854192Y-107475879D01*
X143833449Y-107454990D01*
X143796264Y-107417545D01*
X143734286Y-107355132D01*
X143721739Y-107347169D01*
X143648228Y-107300518D01*
X143590608Y-107263951D01*
X143430300Y-107206868D01*
X143261329Y-107186720D01*
X143254326Y-107187456D01*
X143254325Y-107187456D01*
X143099101Y-107203770D01*
X143099097Y-107203771D01*
X143092093Y-107204507D01*
X143085421Y-107206778D01*
X143085418Y-107206779D01*
X143081449Y-107208130D01*
X143078751Y-107208245D01*
X143078545Y-107208290D01*
X143078537Y-107208254D01*
X143010516Y-107211147D01*
X142949213Y-107175337D01*
X142917002Y-107112067D01*
X142918782Y-107058188D01*
X142920819Y-107052825D01*
X142944501Y-106884313D01*
X142944799Y-106863000D01*
X142925831Y-106693892D01*
X142920186Y-106677680D01*
X142892557Y-106598343D01*
X143704275Y-106598343D01*
X143720881Y-106767699D01*
X143774594Y-106929167D01*
X143778241Y-106935189D01*
X143778242Y-106935191D01*
X143855615Y-107062948D01*
X143862746Y-107074723D01*
X143980955Y-107197132D01*
X144002372Y-107211147D01*
X144090737Y-107268971D01*
X144123346Y-107290310D01*
X144129950Y-107292766D01*
X144129952Y-107292767D01*
X144166344Y-107306301D01*
X144282841Y-107349626D01*
X144451515Y-107372132D01*
X144458526Y-107371494D01*
X144458530Y-107371494D01*
X144613962Y-107357348D01*
X144620983Y-107356709D01*
X144627685Y-107354531D01*
X144627687Y-107354531D01*
X144776123Y-107306301D01*
X144776126Y-107306300D01*
X144782822Y-107304124D01*
X144928990Y-107216990D01*
X144934084Y-107212139D01*
X144934088Y-107212136D01*
X145039170Y-107112067D01*
X145052221Y-107099639D01*
X145076599Y-107062948D01*
X145142490Y-106963773D01*
X145146391Y-106957902D01*
X145206819Y-106798825D01*
X145230501Y-106630313D01*
X145230799Y-106609000D01*
X145211831Y-106439892D01*
X145209278Y-106432559D01*
X145158186Y-106285846D01*
X145155868Y-106279189D01*
X145152082Y-106273129D01*
X145092229Y-106177347D01*
X145065692Y-106134879D01*
X145049958Y-106119034D01*
X144950748Y-106019129D01*
X144945786Y-106014132D01*
X144929539Y-106003821D01*
X144878224Y-105971256D01*
X144802108Y-105922951D01*
X144641800Y-105865868D01*
X144472829Y-105845720D01*
X144465826Y-105846456D01*
X144465825Y-105846456D01*
X144310601Y-105862770D01*
X144310597Y-105862771D01*
X144303593Y-105863507D01*
X144296922Y-105865778D01*
X144149173Y-105916075D01*
X144149170Y-105916076D01*
X144142503Y-105918346D01*
X144136505Y-105922036D01*
X144136503Y-105922037D01*
X144003565Y-106003821D01*
X144003563Y-106003823D01*
X143997566Y-106007512D01*
X143992533Y-106012441D01*
X143883685Y-106119034D01*
X143875986Y-106126573D01*
X143872175Y-106132487D01*
X143872173Y-106132489D01*
X143789023Y-106261512D01*
X143783804Y-106269610D01*
X143725603Y-106429516D01*
X143704275Y-106598343D01*
X142892557Y-106598343D01*
X142869868Y-106533189D01*
X142863883Y-106523610D01*
X142809453Y-106436506D01*
X142779692Y-106388879D01*
X142659786Y-106268132D01*
X142643539Y-106257821D01*
X142604906Y-106233304D01*
X142516108Y-106176951D01*
X142355800Y-106119868D01*
X142186829Y-106099720D01*
X142179826Y-106100456D01*
X142179825Y-106100456D01*
X142024601Y-106116770D01*
X142024597Y-106116771D01*
X142017593Y-106117507D01*
X142010922Y-106119778D01*
X141863173Y-106170075D01*
X141863170Y-106170076D01*
X141856503Y-106172346D01*
X141850505Y-106176036D01*
X141850503Y-106176037D01*
X141717565Y-106257821D01*
X141717563Y-106257823D01*
X141711566Y-106261512D01*
X141589986Y-106380573D01*
X141586175Y-106386487D01*
X141586173Y-106386489D01*
X141505396Y-106511829D01*
X141497804Y-106523610D01*
X141439603Y-106683516D01*
X141418275Y-106852343D01*
X121158000Y-106852343D01*
X121158000Y-105074343D01*
X140402275Y-105074343D01*
X140418881Y-105243699D01*
X140421105Y-105250384D01*
X140421105Y-105250385D01*
X140441304Y-105311105D01*
X140472594Y-105405167D01*
X140476241Y-105411189D01*
X140476242Y-105411191D01*
X140548697Y-105530827D01*
X140560746Y-105550723D01*
X140678955Y-105673132D01*
X140684851Y-105676990D01*
X140806465Y-105756572D01*
X140821346Y-105766310D01*
X140827950Y-105768766D01*
X140827952Y-105768767D01*
X140864344Y-105782301D01*
X140980841Y-105825626D01*
X141149515Y-105848132D01*
X141156526Y-105847494D01*
X141156530Y-105847494D01*
X141311962Y-105833348D01*
X141318983Y-105832709D01*
X141325685Y-105830531D01*
X141325687Y-105830531D01*
X141474123Y-105782301D01*
X141474126Y-105782300D01*
X141480822Y-105780124D01*
X141626990Y-105692990D01*
X141632084Y-105688139D01*
X141632088Y-105688136D01*
X141731780Y-105593200D01*
X141750221Y-105575639D01*
X141844391Y-105433902D01*
X141904819Y-105274825D01*
X141928501Y-105106313D01*
X141928799Y-105085000D01*
X141909831Y-104915892D01*
X141876557Y-104820343D01*
X147387275Y-104820343D01*
X147403881Y-104989699D01*
X147457594Y-105151167D01*
X147461241Y-105157189D01*
X147461242Y-105157191D01*
X147536475Y-105281414D01*
X147545746Y-105296723D01*
X147663955Y-105419132D01*
X147806346Y-105512310D01*
X147812950Y-105514766D01*
X147812952Y-105514767D01*
X147849344Y-105528301D01*
X147965841Y-105571626D01*
X148134515Y-105594132D01*
X148141526Y-105593494D01*
X148141530Y-105593494D01*
X148296962Y-105579348D01*
X148303983Y-105578709D01*
X148310685Y-105576531D01*
X148310687Y-105576531D01*
X148459123Y-105528301D01*
X148459126Y-105528300D01*
X148465822Y-105526124D01*
X148611990Y-105438990D01*
X148617084Y-105434139D01*
X148617088Y-105434136D01*
X148684333Y-105370099D01*
X148735221Y-105321639D01*
X148745762Y-105305774D01*
X160818102Y-105305774D01*
X160818302Y-105311103D01*
X160818302Y-105311105D01*
X160818880Y-105326498D01*
X160826751Y-105536158D01*
X160827846Y-105541377D01*
X160833677Y-105569169D01*
X160874093Y-105761791D01*
X160876051Y-105766750D01*
X160876052Y-105766752D01*
X160937739Y-105922951D01*
X160958776Y-105976221D01*
X161078377Y-106173317D01*
X161081874Y-106177347D01*
X161170248Y-106279189D01*
X161229477Y-106347445D01*
X161233608Y-106350832D01*
X161403627Y-106490240D01*
X161403633Y-106490244D01*
X161407755Y-106493624D01*
X161412398Y-106496267D01*
X161439735Y-106511829D01*
X161489041Y-106562912D01*
X161502902Y-106632542D01*
X161476918Y-106698613D01*
X161447768Y-106725851D01*
X161330422Y-106804852D01*
X161322130Y-106811519D01*
X161163100Y-106963228D01*
X161156059Y-106971186D01*
X161024859Y-107147525D01*
X161019255Y-107156562D01*
X160919643Y-107352484D01*
X160915643Y-107362335D01*
X160850466Y-107572240D01*
X160848183Y-107582624D01*
X160846139Y-107598043D01*
X160848335Y-107612207D01*
X160861522Y-107616000D01*
X163746192Y-107616000D01*
X163759723Y-107612027D01*
X163761248Y-107601420D01*
X163736523Y-107483579D01*
X163733463Y-107473383D01*
X163652737Y-107268971D01*
X163648006Y-107259439D01*
X163533984Y-107071538D01*
X163527720Y-107062948D01*
X163383673Y-106896948D01*
X163376042Y-106889528D01*
X163206089Y-106750174D01*
X163197326Y-106744152D01*
X163170289Y-106728762D01*
X163120982Y-106677680D01*
X163107120Y-106608049D01*
X163133103Y-106541978D01*
X163162253Y-106514739D01*
X163215532Y-106478869D01*
X163284319Y-106432559D01*
X163294448Y-106422897D01*
X163438113Y-106285846D01*
X163451135Y-106273424D01*
X163588754Y-106088458D01*
X163693240Y-105882949D01*
X163697810Y-105868233D01*
X163760024Y-105667871D01*
X163761607Y-105662773D01*
X163762308Y-105657484D01*
X163791198Y-105439511D01*
X163791198Y-105439506D01*
X163791898Y-105434226D01*
X163783249Y-105203842D01*
X163735907Y-104978209D01*
X163711297Y-104915892D01*
X163653185Y-104768744D01*
X163653184Y-104768742D01*
X163651224Y-104763779D01*
X163646012Y-104755189D01*
X163534390Y-104571243D01*
X163531623Y-104566683D01*
X163480567Y-104507846D01*
X163384023Y-104396588D01*
X163384021Y-104396586D01*
X163380523Y-104392555D01*
X163344880Y-104363330D01*
X163304886Y-104304671D01*
X163302954Y-104233701D01*
X163339698Y-104172952D01*
X163358468Y-104158752D01*
X163498120Y-104072332D01*
X163504348Y-104068478D01*
X163629305Y-103943303D01*
X163722115Y-103792738D01*
X163777797Y-103624861D01*
X163788500Y-103520400D01*
X163788500Y-102219600D01*
X163777526Y-102113834D01*
X163775051Y-102106414D01*
X163723868Y-101953002D01*
X163721550Y-101946054D01*
X163628478Y-101795652D01*
X163503303Y-101670695D01*
X163497072Y-101666854D01*
X163358968Y-101581725D01*
X163358966Y-101581724D01*
X163352738Y-101577885D01*
X163192254Y-101524655D01*
X163191389Y-101524368D01*
X163191387Y-101524368D01*
X163184861Y-101522203D01*
X163178025Y-101521503D01*
X163178022Y-101521502D01*
X163134969Y-101517091D01*
X163080400Y-101511500D01*
X161529600Y-101511500D01*
X161526354Y-101511837D01*
X161526350Y-101511837D01*
X161430692Y-101521762D01*
X161430688Y-101521763D01*
X161423834Y-101522474D01*
X161417298Y-101524655D01*
X161417296Y-101524655D01*
X161297307Y-101564687D01*
X161256054Y-101578450D01*
X161105652Y-101671522D01*
X160980695Y-101796697D01*
X160976855Y-101802927D01*
X160976854Y-101802928D01*
X160913101Y-101906355D01*
X160887885Y-101947262D01*
X160885581Y-101954209D01*
X160839598Y-102092845D01*
X160832203Y-102115139D01*
X160821500Y-102219600D01*
X160821500Y-103520400D01*
X160832474Y-103626166D01*
X160834655Y-103632702D01*
X160834655Y-103632704D01*
X160842198Y-103655313D01*
X160888450Y-103793946D01*
X160981522Y-103944348D01*
X160986704Y-103949521D01*
X161048451Y-104011161D01*
X161106697Y-104069305D01*
X161252340Y-104159081D01*
X161299832Y-104211852D01*
X161311256Y-104281924D01*
X161282982Y-104347048D01*
X161273195Y-104357510D01*
X161158865Y-104466576D01*
X161021246Y-104651542D01*
X161018830Y-104656293D01*
X161018828Y-104656297D01*
X161012425Y-104668891D01*
X160916760Y-104857051D01*
X160915178Y-104862145D01*
X160915177Y-104862148D01*
X160875571Y-104989699D01*
X160848393Y-105077227D01*
X160847692Y-105082516D01*
X160819302Y-105296723D01*
X160818102Y-105305774D01*
X148745762Y-105305774D01*
X148761947Y-105281414D01*
X148825490Y-105185773D01*
X148829391Y-105179902D01*
X148889819Y-105020825D01*
X148913501Y-104852313D01*
X148913799Y-104831000D01*
X148894831Y-104661892D01*
X148838868Y-104501189D01*
X148835082Y-104495129D01*
X148777343Y-104402730D01*
X148748692Y-104356879D01*
X148738930Y-104347048D01*
X148674259Y-104281924D01*
X148628786Y-104236132D01*
X148612539Y-104225821D01*
X148512154Y-104162115D01*
X148485108Y-104144951D01*
X148324800Y-104087868D01*
X148155829Y-104067720D01*
X148148826Y-104068456D01*
X148148825Y-104068456D01*
X147993601Y-104084770D01*
X147993597Y-104084771D01*
X147986593Y-104085507D01*
X147979922Y-104087778D01*
X147832173Y-104138075D01*
X147832170Y-104138076D01*
X147825503Y-104140346D01*
X147819505Y-104144036D01*
X147819503Y-104144037D01*
X147686565Y-104225821D01*
X147686563Y-104225823D01*
X147680566Y-104229512D01*
X147675533Y-104234441D01*
X147566685Y-104341034D01*
X147558986Y-104348573D01*
X147555175Y-104354487D01*
X147555173Y-104354489D01*
X147472023Y-104483512D01*
X147466804Y-104491610D01*
X147408603Y-104651516D01*
X147387275Y-104820343D01*
X141876557Y-104820343D01*
X141853868Y-104755189D01*
X141847883Y-104745610D01*
X141793453Y-104658506D01*
X141763692Y-104610879D01*
X141643786Y-104490132D01*
X141627539Y-104479821D01*
X141588906Y-104455304D01*
X141500108Y-104398951D01*
X141339800Y-104341868D01*
X141170829Y-104321720D01*
X141163826Y-104322456D01*
X141163825Y-104322456D01*
X141008601Y-104338770D01*
X141008597Y-104338771D01*
X141001593Y-104339507D01*
X140994922Y-104341778D01*
X140847173Y-104392075D01*
X140847170Y-104392076D01*
X140840503Y-104394346D01*
X140834505Y-104398036D01*
X140834503Y-104398037D01*
X140701565Y-104479821D01*
X140701563Y-104479823D01*
X140695566Y-104483512D01*
X140573986Y-104602573D01*
X140570175Y-104608487D01*
X140570173Y-104608489D01*
X140485621Y-104739687D01*
X140481804Y-104745610D01*
X140423603Y-104905516D01*
X140402275Y-105074343D01*
X121158000Y-105074343D01*
X121158000Y-103623343D01*
X143619775Y-103623343D01*
X143636381Y-103792699D01*
X143690094Y-103954167D01*
X143693741Y-103960189D01*
X143693742Y-103960191D01*
X143772499Y-104090233D01*
X143778246Y-104099723D01*
X143896455Y-104222132D01*
X144038846Y-104315310D01*
X144045450Y-104317766D01*
X144045452Y-104317767D01*
X144081844Y-104331301D01*
X144198341Y-104374626D01*
X144367015Y-104397132D01*
X144374026Y-104396494D01*
X144374030Y-104396494D01*
X144529462Y-104382348D01*
X144536483Y-104381709D01*
X144543185Y-104379531D01*
X144543187Y-104379531D01*
X144691623Y-104331301D01*
X144691626Y-104331300D01*
X144698322Y-104329124D01*
X144844490Y-104241990D01*
X144849584Y-104237139D01*
X144849588Y-104237136D01*
X144928367Y-104162115D01*
X144967721Y-104124639D01*
X144990581Y-104090233D01*
X145057990Y-103988773D01*
X145061891Y-103982902D01*
X145122319Y-103823825D01*
X145145617Y-103658047D01*
X145174905Y-103593372D01*
X145218343Y-103560834D01*
X145220617Y-103559803D01*
X145227322Y-103557624D01*
X145233373Y-103554017D01*
X145233375Y-103554016D01*
X145367444Y-103474094D01*
X145373490Y-103470490D01*
X145378584Y-103465639D01*
X145378588Y-103465636D01*
X145445833Y-103401599D01*
X145496721Y-103353139D01*
X145590891Y-103211402D01*
X145651319Y-103052325D01*
X145675001Y-102883813D01*
X145675299Y-102862500D01*
X145656331Y-102693392D01*
X145600368Y-102532689D01*
X145581419Y-102502365D01*
X145562282Y-102433996D01*
X145583323Y-102365867D01*
X145654391Y-102258902D01*
X145714819Y-102099825D01*
X145738501Y-101931313D01*
X145738799Y-101910000D01*
X145719831Y-101740892D01*
X145663868Y-101580189D01*
X145657883Y-101570610D01*
X145620946Y-101511500D01*
X145573692Y-101435879D01*
X145453786Y-101315132D01*
X145437539Y-101304821D01*
X145398906Y-101280304D01*
X145310108Y-101223951D01*
X145149800Y-101166868D01*
X144980829Y-101146720D01*
X144973826Y-101147456D01*
X144973825Y-101147456D01*
X144818601Y-101163770D01*
X144818597Y-101163771D01*
X144811593Y-101164507D01*
X144804922Y-101166778D01*
X144657173Y-101217075D01*
X144657170Y-101217076D01*
X144650503Y-101219346D01*
X144644505Y-101223036D01*
X144644503Y-101223037D01*
X144511565Y-101304821D01*
X144511563Y-101304823D01*
X144505566Y-101308512D01*
X144383986Y-101427573D01*
X144380175Y-101433487D01*
X144380173Y-101433489D01*
X144322826Y-101522474D01*
X144291804Y-101570610D01*
X144233603Y-101730516D01*
X144212275Y-101899343D01*
X144228881Y-102068699D01*
X144282594Y-102230167D01*
X144286242Y-102236191D01*
X144286245Y-102236197D01*
X144306968Y-102270415D01*
X144325147Y-102339045D01*
X144305103Y-102403942D01*
X144241673Y-102502365D01*
X144228304Y-102523110D01*
X144170103Y-102683016D01*
X144169220Y-102690006D01*
X144150643Y-102837055D01*
X144122261Y-102902132D01*
X144070751Y-102937449D01*
X144071046Y-102938076D01*
X144067189Y-102939891D01*
X144066241Y-102940541D01*
X144064674Y-102941074D01*
X144064666Y-102941078D01*
X144058003Y-102943346D01*
X144052008Y-102947034D01*
X144052004Y-102947036D01*
X143919065Y-103028821D01*
X143919063Y-103028823D01*
X143913066Y-103032512D01*
X143791486Y-103151573D01*
X143699304Y-103294610D01*
X143641103Y-103454516D01*
X143619775Y-103623343D01*
X121158000Y-103623343D01*
X121158000Y-97230343D01*
X163339549Y-97230343D01*
X163356155Y-97399699D01*
X163409868Y-97561167D01*
X163413515Y-97567189D01*
X163413516Y-97567191D01*
X163427271Y-97589902D01*
X163498020Y-97706723D01*
X163616229Y-97829132D01*
X163758620Y-97922310D01*
X163765224Y-97924766D01*
X163765226Y-97924767D01*
X163801618Y-97938301D01*
X163918115Y-97981626D01*
X164086789Y-98004132D01*
X164093800Y-98003494D01*
X164093804Y-98003494D01*
X164249236Y-97989348D01*
X164256257Y-97988709D01*
X164262959Y-97986531D01*
X164262961Y-97986531D01*
X164411397Y-97938301D01*
X164411400Y-97938300D01*
X164418096Y-97936124D01*
X164564264Y-97848990D01*
X164569358Y-97844139D01*
X164569362Y-97844136D01*
X164636607Y-97780099D01*
X164687495Y-97731639D01*
X164781665Y-97589902D01*
X164842093Y-97430825D01*
X164865775Y-97262313D01*
X164866073Y-97241000D01*
X164847105Y-97071892D01*
X164791142Y-96911189D01*
X164785157Y-96901610D01*
X164758357Y-96858723D01*
X164700966Y-96766879D01*
X164581060Y-96646132D01*
X164564813Y-96635821D01*
X164481304Y-96582825D01*
X164437382Y-96554951D01*
X164277074Y-96497868D01*
X164108103Y-96477720D01*
X164101100Y-96478456D01*
X164101099Y-96478456D01*
X163945875Y-96494770D01*
X163945871Y-96494771D01*
X163938867Y-96495507D01*
X163932196Y-96497778D01*
X163784447Y-96548075D01*
X163784444Y-96548076D01*
X163777777Y-96550346D01*
X163771779Y-96554036D01*
X163771777Y-96554037D01*
X163638839Y-96635821D01*
X163638837Y-96635823D01*
X163632840Y-96639512D01*
X163511260Y-96758573D01*
X163507449Y-96764487D01*
X163507447Y-96764489D01*
X163427528Y-96888498D01*
X163419078Y-96901610D01*
X163360877Y-97061516D01*
X163339549Y-97230343D01*
X121158000Y-97230343D01*
X121158000Y-95706343D01*
X151147549Y-95706343D01*
X151164155Y-95875699D01*
X151217868Y-96037167D01*
X151221515Y-96043189D01*
X151221516Y-96043191D01*
X151235271Y-96065902D01*
X151306020Y-96182723D01*
X151424229Y-96305132D01*
X151430125Y-96308990D01*
X151552488Y-96389062D01*
X151566620Y-96398310D01*
X151573224Y-96400766D01*
X151573226Y-96400767D01*
X151620164Y-96418223D01*
X151726115Y-96457626D01*
X151894789Y-96480132D01*
X151901800Y-96479494D01*
X151901804Y-96479494D01*
X152057236Y-96465348D01*
X152064257Y-96464709D01*
X152070959Y-96462531D01*
X152070961Y-96462531D01*
X152219397Y-96414301D01*
X152219400Y-96414300D01*
X152226096Y-96412124D01*
X152276054Y-96382343D01*
X155065775Y-96382343D01*
X155082381Y-96551699D01*
X155136094Y-96713167D01*
X155139741Y-96719189D01*
X155139742Y-96719191D01*
X155172242Y-96772854D01*
X155224246Y-96858723D01*
X155342455Y-96981132D01*
X155348351Y-96984990D01*
X155475977Y-97068506D01*
X155484846Y-97074310D01*
X155491450Y-97076766D01*
X155491452Y-97076767D01*
X155527844Y-97090301D01*
X155644341Y-97133626D01*
X155813015Y-97156132D01*
X155820026Y-97155494D01*
X155820030Y-97155494D01*
X155975462Y-97141348D01*
X155982483Y-97140709D01*
X155989185Y-97138531D01*
X155989187Y-97138531D01*
X156137623Y-97090301D01*
X156137626Y-97090300D01*
X156144322Y-97088124D01*
X156290490Y-97000990D01*
X156295584Y-96996139D01*
X156295588Y-96996136D01*
X156377800Y-96917846D01*
X156413721Y-96883639D01*
X156507891Y-96741902D01*
X156568319Y-96582825D01*
X156592001Y-96414313D01*
X156592118Y-96405964D01*
X156592244Y-96396961D01*
X156592244Y-96396955D01*
X156592299Y-96393000D01*
X156573331Y-96223892D01*
X156517368Y-96063189D01*
X156511383Y-96053610D01*
X156489420Y-96018464D01*
X156427192Y-95918879D01*
X156307286Y-95798132D01*
X156291039Y-95787821D01*
X156252406Y-95763304D01*
X156163608Y-95706951D01*
X156003300Y-95649868D01*
X155834329Y-95629720D01*
X155827326Y-95630456D01*
X155827325Y-95630456D01*
X155672101Y-95646770D01*
X155672097Y-95646771D01*
X155665093Y-95647507D01*
X155658422Y-95649778D01*
X155510673Y-95700075D01*
X155510670Y-95700076D01*
X155504003Y-95702346D01*
X155498005Y-95706036D01*
X155498003Y-95706037D01*
X155365065Y-95787821D01*
X155365063Y-95787823D01*
X155359066Y-95791512D01*
X155237486Y-95910573D01*
X155233675Y-95916487D01*
X155233673Y-95916489D01*
X155149121Y-96047687D01*
X155145304Y-96053610D01*
X155087103Y-96213516D01*
X155065775Y-96382343D01*
X152276054Y-96382343D01*
X152372264Y-96324990D01*
X152377358Y-96320139D01*
X152377362Y-96320136D01*
X152471078Y-96230891D01*
X152495495Y-96207639D01*
X152589665Y-96065902D01*
X152650093Y-95906825D01*
X152673775Y-95738313D01*
X152674073Y-95717000D01*
X152655105Y-95547892D01*
X152599142Y-95387189D01*
X152593157Y-95377610D01*
X152571194Y-95342464D01*
X152508966Y-95242879D01*
X152389060Y-95122132D01*
X152372813Y-95111821D01*
X152334180Y-95087304D01*
X152245382Y-95030951D01*
X152085074Y-94973868D01*
X151916103Y-94953720D01*
X151909100Y-94954456D01*
X151909099Y-94954456D01*
X151753875Y-94970770D01*
X151753871Y-94970771D01*
X151746867Y-94971507D01*
X151740196Y-94973778D01*
X151592447Y-95024075D01*
X151592444Y-95024076D01*
X151585777Y-95026346D01*
X151579779Y-95030036D01*
X151579777Y-95030037D01*
X151446839Y-95111821D01*
X151446837Y-95111823D01*
X151440840Y-95115512D01*
X151319260Y-95234573D01*
X151227078Y-95377610D01*
X151168877Y-95537516D01*
X151147549Y-95706343D01*
X121158000Y-95706343D01*
X121158000Y-88775774D01*
X160328102Y-88775774D01*
X160336751Y-89006158D01*
X160384093Y-89231791D01*
X160468776Y-89446221D01*
X160588377Y-89643317D01*
X160591874Y-89647347D01*
X160678438Y-89747103D01*
X160739477Y-89817445D01*
X160743608Y-89820832D01*
X160913627Y-89960240D01*
X160913633Y-89960244D01*
X160917755Y-89963624D01*
X160922391Y-89966263D01*
X160922394Y-89966265D01*
X161031422Y-90028327D01*
X161118114Y-90077675D01*
X161334825Y-90156337D01*
X161340074Y-90157286D01*
X161340077Y-90157287D01*
X161557608Y-90196623D01*
X161557615Y-90196624D01*
X161561692Y-90197361D01*
X161579414Y-90198197D01*
X161584356Y-90198430D01*
X161584363Y-90198430D01*
X161585844Y-90198500D01*
X161997890Y-90198500D01*
X162064809Y-90192822D01*
X162164409Y-90184371D01*
X162164413Y-90184370D01*
X162169720Y-90183920D01*
X162174875Y-90182582D01*
X162174881Y-90182581D01*
X162387703Y-90127343D01*
X162387707Y-90127342D01*
X162392872Y-90126001D01*
X162397738Y-90123809D01*
X162397741Y-90123808D01*
X162598202Y-90033507D01*
X162603075Y-90031312D01*
X162794319Y-89902559D01*
X162961135Y-89743424D01*
X163098754Y-89558458D01*
X163203240Y-89352949D01*
X163239321Y-89236752D01*
X163270024Y-89137871D01*
X163271607Y-89132773D01*
X163272308Y-89127484D01*
X163301198Y-88909511D01*
X163301198Y-88909506D01*
X163301898Y-88904226D01*
X163293249Y-88673842D01*
X163245907Y-88448209D01*
X163161224Y-88233779D01*
X163041623Y-88036683D01*
X162954755Y-87936576D01*
X162894023Y-87866588D01*
X162894021Y-87866586D01*
X162890523Y-87862555D01*
X162848970Y-87828484D01*
X162716373Y-87719760D01*
X162716367Y-87719756D01*
X162712245Y-87716376D01*
X162680750Y-87698448D01*
X162631445Y-87647368D01*
X162617583Y-87577738D01*
X162643566Y-87511667D01*
X162672716Y-87484427D01*
X162708642Y-87460240D01*
X162794319Y-87402559D01*
X162961135Y-87243424D01*
X163098754Y-87058458D01*
X163203240Y-86852949D01*
X163239321Y-86736752D01*
X163270024Y-86637871D01*
X163271607Y-86632773D01*
X163272308Y-86627484D01*
X163301198Y-86409511D01*
X163301198Y-86409506D01*
X163301898Y-86404226D01*
X163293249Y-86173842D01*
X163245907Y-85948209D01*
X163161224Y-85733779D01*
X163041623Y-85536683D01*
X162954755Y-85436576D01*
X162894023Y-85366588D01*
X162894021Y-85366586D01*
X162890523Y-85362555D01*
X162838830Y-85320169D01*
X162716373Y-85219760D01*
X162716367Y-85219756D01*
X162712245Y-85216376D01*
X162680750Y-85198448D01*
X162631445Y-85147368D01*
X162617583Y-85077738D01*
X162643566Y-85011667D01*
X162672716Y-84984427D01*
X162743499Y-84936773D01*
X162794319Y-84902559D01*
X162801736Y-84895484D01*
X162938680Y-84764845D01*
X162961135Y-84743424D01*
X163098754Y-84558458D01*
X163203240Y-84352949D01*
X163237502Y-84242610D01*
X163270024Y-84137871D01*
X163271607Y-84132773D01*
X163272308Y-84127484D01*
X163301198Y-83909511D01*
X163301198Y-83909506D01*
X163301898Y-83904226D01*
X163301415Y-83891346D01*
X163293449Y-83679173D01*
X163293249Y-83673842D01*
X163245907Y-83448209D01*
X163236879Y-83425348D01*
X163163185Y-83238744D01*
X163163184Y-83238742D01*
X163161224Y-83233779D01*
X163041623Y-83036683D01*
X162954755Y-82936576D01*
X162894023Y-82866588D01*
X162894021Y-82866586D01*
X162890523Y-82862555D01*
X162854880Y-82833330D01*
X162814886Y-82774671D01*
X162812954Y-82703701D01*
X162849698Y-82642952D01*
X162868468Y-82628752D01*
X163008120Y-82542332D01*
X163014348Y-82538478D01*
X163139305Y-82413303D01*
X163175955Y-82353846D01*
X163228275Y-82268968D01*
X163228276Y-82268966D01*
X163232115Y-82262738D01*
X163258564Y-82182995D01*
X163285632Y-82101389D01*
X163285632Y-82101387D01*
X163287797Y-82094861D01*
X163289275Y-82080441D01*
X163298172Y-81993598D01*
X163298500Y-81990400D01*
X163298500Y-80689600D01*
X163298163Y-80686350D01*
X163288238Y-80590692D01*
X163288237Y-80590688D01*
X163287526Y-80583834D01*
X163284635Y-80575167D01*
X163233868Y-80423002D01*
X163231550Y-80416054D01*
X163138478Y-80265652D01*
X163013303Y-80140695D01*
X162985161Y-80123348D01*
X162868968Y-80051725D01*
X162868966Y-80051724D01*
X162862738Y-80047885D01*
X162702254Y-79994655D01*
X162701389Y-79994368D01*
X162701387Y-79994368D01*
X162694861Y-79992203D01*
X162688025Y-79991503D01*
X162688022Y-79991502D01*
X162640117Y-79986594D01*
X162590400Y-79981500D01*
X161039600Y-79981500D01*
X161036354Y-79981837D01*
X161036350Y-79981837D01*
X160940692Y-79991762D01*
X160940688Y-79991763D01*
X160933834Y-79992474D01*
X160927298Y-79994655D01*
X160927296Y-79994655D01*
X160795194Y-80038728D01*
X160766054Y-80048450D01*
X160615652Y-80141522D01*
X160490695Y-80266697D01*
X160486855Y-80272927D01*
X160486854Y-80272928D01*
X160413623Y-80391731D01*
X160397885Y-80417262D01*
X160378438Y-80475892D01*
X160345511Y-80575167D01*
X160342203Y-80585139D01*
X160331500Y-80689600D01*
X160331500Y-81990400D01*
X160331837Y-81993646D01*
X160331837Y-81993650D01*
X160341018Y-82082132D01*
X160342474Y-82096166D01*
X160398450Y-82263946D01*
X160491522Y-82414348D01*
X160616697Y-82539305D01*
X160762340Y-82629081D01*
X160809832Y-82681852D01*
X160821256Y-82751924D01*
X160792982Y-82817048D01*
X160783195Y-82827510D01*
X160668865Y-82936576D01*
X160531246Y-83121542D01*
X160528830Y-83126293D01*
X160528828Y-83126297D01*
X160479003Y-83224297D01*
X160426760Y-83327051D01*
X160425178Y-83332145D01*
X160425177Y-83332148D01*
X160363115Y-83532020D01*
X160358393Y-83547227D01*
X160357692Y-83552516D01*
X160342304Y-83668623D01*
X160328102Y-83775774D01*
X160328302Y-83781103D01*
X160328302Y-83781105D01*
X160330354Y-83835770D01*
X160336751Y-84006158D01*
X160384093Y-84231791D01*
X160386051Y-84236750D01*
X160386052Y-84236752D01*
X160455614Y-84412892D01*
X160468776Y-84446221D01*
X160588377Y-84643317D01*
X160591874Y-84647347D01*
X160705608Y-84778414D01*
X160739477Y-84817445D01*
X160743608Y-84820832D01*
X160913627Y-84960240D01*
X160913633Y-84960244D01*
X160917755Y-84963624D01*
X160949250Y-84981552D01*
X160998555Y-85032632D01*
X161012417Y-85102262D01*
X160986434Y-85168333D01*
X160957284Y-85195573D01*
X160835681Y-85277441D01*
X160668865Y-85436576D01*
X160531246Y-85621542D01*
X160426760Y-85827051D01*
X160425178Y-85832145D01*
X160425177Y-85832148D01*
X160363115Y-86032020D01*
X160358393Y-86047227D01*
X160357692Y-86052516D01*
X160342304Y-86168623D01*
X160328102Y-86275774D01*
X160336751Y-86506158D01*
X160384093Y-86731791D01*
X160468776Y-86946221D01*
X160588377Y-87143317D01*
X160591874Y-87147347D01*
X160678438Y-87247103D01*
X160739477Y-87317445D01*
X160743608Y-87320832D01*
X160913627Y-87460240D01*
X160913633Y-87460244D01*
X160917755Y-87463624D01*
X160949250Y-87481552D01*
X160998555Y-87532632D01*
X161012417Y-87602262D01*
X160986434Y-87668333D01*
X160957284Y-87695573D01*
X160835681Y-87777441D01*
X160668865Y-87936576D01*
X160531246Y-88121542D01*
X160426760Y-88327051D01*
X160425178Y-88332145D01*
X160425177Y-88332148D01*
X160363115Y-88532020D01*
X160358393Y-88547227D01*
X160357692Y-88552516D01*
X160342304Y-88668623D01*
X160328102Y-88775774D01*
X121158000Y-88775774D01*
X121158000Y-84571343D01*
X124331775Y-84571343D01*
X124348381Y-84740699D01*
X124402094Y-84902167D01*
X124405741Y-84908189D01*
X124405742Y-84908191D01*
X124481107Y-85032632D01*
X124490246Y-85047723D01*
X124608455Y-85170132D01*
X124750846Y-85263310D01*
X124757450Y-85265766D01*
X124757452Y-85265767D01*
X124830594Y-85292968D01*
X124910341Y-85322626D01*
X125079015Y-85345132D01*
X125086026Y-85344494D01*
X125086030Y-85344494D01*
X125241462Y-85330348D01*
X125248483Y-85329709D01*
X125255185Y-85327531D01*
X125255187Y-85327531D01*
X125403623Y-85279301D01*
X125403626Y-85279300D01*
X125410322Y-85277124D01*
X125556490Y-85189990D01*
X125561584Y-85185139D01*
X125561588Y-85185136D01*
X125628833Y-85121099D01*
X125679721Y-85072639D01*
X125773891Y-84930902D01*
X125834319Y-84771825D01*
X125858001Y-84603313D01*
X125858299Y-84582000D01*
X125839331Y-84412892D01*
X125783368Y-84252189D01*
X125777383Y-84242610D01*
X125711933Y-84137871D01*
X125693192Y-84107879D01*
X125573286Y-83987132D01*
X125557039Y-83976821D01*
X125518406Y-83952304D01*
X125429608Y-83895951D01*
X125269300Y-83838868D01*
X125100329Y-83818720D01*
X125093326Y-83819456D01*
X125093325Y-83819456D01*
X124938101Y-83835770D01*
X124938097Y-83835771D01*
X124931093Y-83836507D01*
X124924422Y-83838778D01*
X124776673Y-83889075D01*
X124776670Y-83889076D01*
X124770003Y-83891346D01*
X124764005Y-83895036D01*
X124764003Y-83895037D01*
X124631065Y-83976821D01*
X124631063Y-83976823D01*
X124625066Y-83980512D01*
X124503486Y-84099573D01*
X124411304Y-84242610D01*
X124353103Y-84402516D01*
X124331775Y-84571343D01*
X121158000Y-84571343D01*
X121158000Y-82666343D01*
X135634775Y-82666343D01*
X135651381Y-82835699D01*
X135653605Y-82842384D01*
X135653605Y-82842385D01*
X135667492Y-82884132D01*
X135705094Y-82997167D01*
X135708741Y-83003189D01*
X135708742Y-83003191D01*
X135729556Y-83037558D01*
X135793246Y-83142723D01*
X135911455Y-83265132D01*
X136053846Y-83358310D01*
X136060450Y-83360766D01*
X136060452Y-83360767D01*
X136096844Y-83374301D01*
X136213341Y-83417626D01*
X136382015Y-83440132D01*
X136389026Y-83439494D01*
X136389030Y-83439494D01*
X136544462Y-83425348D01*
X136551483Y-83424709D01*
X136558185Y-83422531D01*
X136558187Y-83422531D01*
X136706623Y-83374301D01*
X136706626Y-83374300D01*
X136713322Y-83372124D01*
X136859490Y-83284990D01*
X136864584Y-83280139D01*
X136864588Y-83280136D01*
X136931833Y-83216099D01*
X136982721Y-83167639D01*
X137076891Y-83025902D01*
X137137319Y-82866825D01*
X137161001Y-82698313D01*
X137161152Y-82687526D01*
X137161244Y-82680961D01*
X137161244Y-82680955D01*
X137161299Y-82677000D01*
X137142331Y-82507892D01*
X137134647Y-82485825D01*
X137109391Y-82413303D01*
X137086368Y-82347189D01*
X137080383Y-82337610D01*
X137034351Y-82263946D01*
X136996192Y-82202879D01*
X136876286Y-82082132D01*
X136860039Y-82071821D01*
X136821406Y-82047304D01*
X136732608Y-81990951D01*
X136572300Y-81933868D01*
X136403329Y-81913720D01*
X136396326Y-81914456D01*
X136396325Y-81914456D01*
X136241101Y-81930770D01*
X136241097Y-81930771D01*
X136234093Y-81931507D01*
X136227422Y-81933778D01*
X136079673Y-81984075D01*
X136079670Y-81984076D01*
X136073003Y-81986346D01*
X136067005Y-81990036D01*
X136067003Y-81990037D01*
X135934065Y-82071821D01*
X135934063Y-82071823D01*
X135928066Y-82075512D01*
X135806486Y-82194573D01*
X135802675Y-82200487D01*
X135802673Y-82200489D01*
X135724865Y-82321223D01*
X135714304Y-82337610D01*
X135656103Y-82497516D01*
X135634775Y-82666343D01*
X121158000Y-82666343D01*
X121158000Y-80634343D01*
X126871775Y-80634343D01*
X126888381Y-80803699D01*
X126942094Y-80965167D01*
X126945741Y-80971189D01*
X126945742Y-80971191D01*
X126959497Y-80993902D01*
X127030246Y-81110723D01*
X127148455Y-81233132D01*
X127290846Y-81326310D01*
X127297450Y-81328766D01*
X127297452Y-81328767D01*
X127333844Y-81342301D01*
X127450341Y-81385626D01*
X127619015Y-81408132D01*
X127626026Y-81407494D01*
X127626030Y-81407494D01*
X127781462Y-81393348D01*
X127788483Y-81392709D01*
X127795185Y-81390531D01*
X127795187Y-81390531D01*
X127943623Y-81342301D01*
X127943626Y-81342300D01*
X127950322Y-81340124D01*
X128096490Y-81252990D01*
X128101584Y-81248139D01*
X128101588Y-81248136D01*
X128174895Y-81178326D01*
X128219721Y-81135639D01*
X128313891Y-80993902D01*
X128374319Y-80834825D01*
X128385137Y-80757851D01*
X138051719Y-80757851D01*
X138068268Y-80954934D01*
X138081869Y-81002365D01*
X138111213Y-81104700D01*
X138122783Y-81145050D01*
X138213187Y-81320956D01*
X138336035Y-81475953D01*
X138486650Y-81604136D01*
X138659294Y-81700624D01*
X138847392Y-81761740D01*
X139032647Y-81783831D01*
X139041563Y-81784894D01*
X139106836Y-81812822D01*
X139146649Y-81871605D01*
X139148361Y-81942581D01*
X139143091Y-81956533D01*
X139143304Y-81956610D01*
X139085103Y-82116516D01*
X139063775Y-82285343D01*
X139080381Y-82454699D01*
X139082605Y-82461384D01*
X139082605Y-82461385D01*
X139098076Y-82507892D01*
X139134094Y-82616167D01*
X139137741Y-82622189D01*
X139137742Y-82622191D01*
X139216312Y-82751924D01*
X139222246Y-82761723D01*
X139340455Y-82884132D01*
X139482846Y-82977310D01*
X139489450Y-82979766D01*
X139489452Y-82979767D01*
X139562594Y-83006968D01*
X139642341Y-83036626D01*
X139811015Y-83059132D01*
X139818026Y-83058494D01*
X139818030Y-83058494D01*
X139973462Y-83044348D01*
X139980483Y-83043709D01*
X139987185Y-83041531D01*
X139987187Y-83041531D01*
X140135623Y-82993301D01*
X140135626Y-82993300D01*
X140142322Y-82991124D01*
X140288490Y-82903990D01*
X140293584Y-82899139D01*
X140293588Y-82899136D01*
X140379788Y-82817048D01*
X140411721Y-82786639D01*
X140505891Y-82644902D01*
X140566319Y-82485825D01*
X140590001Y-82317313D01*
X140590299Y-82296000D01*
X140571331Y-82126892D01*
X140553439Y-82075512D01*
X140523673Y-81990037D01*
X140515368Y-81966189D01*
X140509383Y-81956610D01*
X140482581Y-81913720D01*
X140425192Y-81821879D01*
X140305286Y-81701132D01*
X140161608Y-81609951D01*
X140001300Y-81552868D01*
X139994305Y-81552034D01*
X139994301Y-81552033D01*
X139984302Y-81550841D01*
X139982673Y-81550647D01*
X139917399Y-81522721D01*
X139877586Y-81463938D01*
X139875873Y-81392962D01*
X139893104Y-81356160D01*
X139893078Y-81356145D01*
X139893265Y-81355815D01*
X139990769Y-81184179D01*
X140053197Y-80996513D01*
X140077985Y-80800295D01*
X140078380Y-80772000D01*
X140059080Y-80575167D01*
X140001916Y-80385831D01*
X139909066Y-80211204D01*
X139835115Y-80120531D01*
X139787960Y-80062713D01*
X139787957Y-80062710D01*
X139784065Y-80057938D01*
X139776555Y-80051725D01*
X139636425Y-79935799D01*
X139636421Y-79935797D01*
X139631675Y-79931870D01*
X139457701Y-79837802D01*
X139268768Y-79779318D01*
X139262643Y-79778674D01*
X139262642Y-79778674D01*
X139078204Y-79759289D01*
X139078202Y-79759289D01*
X139072075Y-79758645D01*
X138989576Y-79766153D01*
X138881251Y-79776011D01*
X138881248Y-79776012D01*
X138875112Y-79776570D01*
X138869206Y-79778308D01*
X138869202Y-79778309D01*
X138764076Y-79809249D01*
X138685381Y-79832410D01*
X138679923Y-79835263D01*
X138679919Y-79835265D01*
X138659793Y-79845787D01*
X138510110Y-79924040D01*
X138355975Y-80047968D01*
X138352011Y-80052692D01*
X138343602Y-80062713D01*
X138228846Y-80199474D01*
X138225879Y-80204872D01*
X138225875Y-80204877D01*
X138161572Y-80321846D01*
X138133567Y-80372787D01*
X138131706Y-80378654D01*
X138131705Y-80378656D01*
X138102971Y-80469238D01*
X138073765Y-80561306D01*
X138051719Y-80757851D01*
X128385137Y-80757851D01*
X128398001Y-80666313D01*
X128398299Y-80645000D01*
X128379331Y-80475892D01*
X128323368Y-80315189D01*
X128317383Y-80305610D01*
X128258390Y-80211204D01*
X128233192Y-80170879D01*
X128204040Y-80141522D01*
X128175264Y-80112545D01*
X128113286Y-80050132D01*
X128103788Y-80044104D01*
X128025416Y-79994368D01*
X127969608Y-79958951D01*
X127809300Y-79901868D01*
X127640329Y-79881720D01*
X127633326Y-79882456D01*
X127633325Y-79882456D01*
X127478101Y-79898770D01*
X127478097Y-79898771D01*
X127471093Y-79899507D01*
X127464422Y-79901778D01*
X127316673Y-79952075D01*
X127316670Y-79952076D01*
X127310003Y-79954346D01*
X127304005Y-79958036D01*
X127304003Y-79958037D01*
X127171065Y-80039821D01*
X127171063Y-80039823D01*
X127165066Y-80043512D01*
X127156086Y-80052306D01*
X127069096Y-80137494D01*
X127043486Y-80162573D01*
X127039675Y-80168487D01*
X127039673Y-80168489D01*
X126980389Y-80260479D01*
X126951304Y-80305610D01*
X126924086Y-80380392D01*
X126908138Y-80424209D01*
X126893103Y-80465516D01*
X126871775Y-80634343D01*
X121158000Y-80634343D01*
X121158000Y-79364343D01*
X122553775Y-79364343D01*
X122570381Y-79533699D01*
X122624094Y-79695167D01*
X122627741Y-79701189D01*
X122627742Y-79701191D01*
X122706158Y-79830670D01*
X122712246Y-79840723D01*
X122830455Y-79963132D01*
X122836351Y-79966990D01*
X122960835Y-80048450D01*
X122972846Y-80056310D01*
X122979450Y-80058766D01*
X122979452Y-80058767D01*
X123015844Y-80072301D01*
X123132341Y-80115626D01*
X123301015Y-80138132D01*
X123308026Y-80137494D01*
X123308030Y-80137494D01*
X123463462Y-80123348D01*
X123470483Y-80122709D01*
X123477185Y-80120531D01*
X123477187Y-80120531D01*
X123625623Y-80072301D01*
X123625626Y-80072300D01*
X123632322Y-80070124D01*
X123778490Y-79982990D01*
X123783584Y-79978139D01*
X123783588Y-79978136D01*
X123884834Y-79881720D01*
X123901721Y-79865639D01*
X123921427Y-79835980D01*
X123959073Y-79779318D01*
X123995891Y-79723902D01*
X124056319Y-79564825D01*
X124080001Y-79396313D01*
X124080299Y-79375000D01*
X124061331Y-79205892D01*
X124005368Y-79045189D01*
X123999383Y-79035610D01*
X123977420Y-79000464D01*
X123915192Y-78900879D01*
X123795286Y-78780132D01*
X123779039Y-78769821D01*
X123740406Y-78745304D01*
X123651608Y-78688951D01*
X123491300Y-78631868D01*
X123322329Y-78611720D01*
X123315326Y-78612456D01*
X123315325Y-78612456D01*
X123160101Y-78628770D01*
X123160097Y-78628771D01*
X123153093Y-78629507D01*
X123146422Y-78631778D01*
X122998673Y-78682075D01*
X122998670Y-78682076D01*
X122992003Y-78684346D01*
X122986005Y-78688036D01*
X122986003Y-78688037D01*
X122853065Y-78769821D01*
X122853063Y-78769823D01*
X122847066Y-78773512D01*
X122725486Y-78892573D01*
X122633304Y-79035610D01*
X122575103Y-79195516D01*
X122553775Y-79364343D01*
X121158000Y-79364343D01*
X121158000Y-74427703D01*
X122985743Y-74427703D01*
X123023268Y-74712734D01*
X123099129Y-74990036D01*
X123211923Y-75254476D01*
X123359561Y-75501161D01*
X123539313Y-75725528D01*
X123747851Y-75923423D01*
X123981317Y-76091186D01*
X123985112Y-76093195D01*
X123985113Y-76093196D01*
X124006869Y-76104715D01*
X124235392Y-76225712D01*
X124505373Y-76324511D01*
X124786264Y-76385755D01*
X124814841Y-76388004D01*
X125009282Y-76403307D01*
X125009291Y-76403307D01*
X125011739Y-76403500D01*
X125167271Y-76403500D01*
X125169407Y-76403354D01*
X125169418Y-76403354D01*
X125377548Y-76389165D01*
X125377554Y-76389164D01*
X125381825Y-76388873D01*
X125386020Y-76388004D01*
X125386022Y-76388004D01*
X125522584Y-76359723D01*
X125663342Y-76330574D01*
X125934343Y-76234607D01*
X126189812Y-76102750D01*
X126193313Y-76100289D01*
X126193317Y-76100287D01*
X126307417Y-76020096D01*
X126425023Y-75937441D01*
X126635622Y-75741740D01*
X126817713Y-75519268D01*
X126967927Y-75274142D01*
X127083483Y-75010898D01*
X127162244Y-74734406D01*
X127202751Y-74449784D01*
X127202845Y-74431951D01*
X127202867Y-74427703D01*
X159180743Y-74427703D01*
X159218268Y-74712734D01*
X159294129Y-74990036D01*
X159406923Y-75254476D01*
X159554561Y-75501161D01*
X159734313Y-75725528D01*
X159942851Y-75923423D01*
X160176317Y-76091186D01*
X160180112Y-76093195D01*
X160180113Y-76093196D01*
X160201869Y-76104715D01*
X160430392Y-76225712D01*
X160700373Y-76324511D01*
X160981264Y-76385755D01*
X161009841Y-76388004D01*
X161204282Y-76403307D01*
X161204291Y-76403307D01*
X161206739Y-76403500D01*
X161362271Y-76403500D01*
X161364407Y-76403354D01*
X161364418Y-76403354D01*
X161572548Y-76389165D01*
X161572554Y-76389164D01*
X161576825Y-76388873D01*
X161581020Y-76388004D01*
X161581022Y-76388004D01*
X161717584Y-76359723D01*
X161858342Y-76330574D01*
X162129343Y-76234607D01*
X162384812Y-76102750D01*
X162388313Y-76100289D01*
X162388317Y-76100287D01*
X162502417Y-76020096D01*
X162620023Y-75937441D01*
X162830622Y-75741740D01*
X163012713Y-75519268D01*
X163162927Y-75274142D01*
X163278483Y-75010898D01*
X163357244Y-74734406D01*
X163397751Y-74449784D01*
X163397845Y-74431951D01*
X163399235Y-74166583D01*
X163399235Y-74166576D01*
X163399257Y-74162297D01*
X163361732Y-73877266D01*
X163285871Y-73599964D01*
X163215124Y-73434101D01*
X163174763Y-73339476D01*
X163174761Y-73339472D01*
X163173077Y-73335524D01*
X163025439Y-73088839D01*
X162845687Y-72864472D01*
X162637149Y-72666577D01*
X162403683Y-72498814D01*
X162398386Y-72496009D01*
X162358654Y-72474972D01*
X162149608Y-72364288D01*
X161918739Y-72279802D01*
X161883658Y-72266964D01*
X161883656Y-72266963D01*
X161879627Y-72265489D01*
X161598736Y-72204245D01*
X161560096Y-72201204D01*
X161375718Y-72186693D01*
X161375709Y-72186693D01*
X161373261Y-72186500D01*
X161217729Y-72186500D01*
X161215593Y-72186646D01*
X161215582Y-72186646D01*
X161007452Y-72200835D01*
X161007446Y-72200836D01*
X161003175Y-72201127D01*
X160998980Y-72201996D01*
X160998978Y-72201996D01*
X160875674Y-72227531D01*
X160721658Y-72259426D01*
X160450657Y-72355393D01*
X160195188Y-72487250D01*
X160191687Y-72489711D01*
X160191683Y-72489713D01*
X160127197Y-72535035D01*
X159959977Y-72652559D01*
X159749378Y-72848260D01*
X159567287Y-73070732D01*
X159417073Y-73315858D01*
X159301517Y-73579102D01*
X159300342Y-73583229D01*
X159300341Y-73583230D01*
X159296699Y-73596016D01*
X159222756Y-73855594D01*
X159182249Y-74140216D01*
X159182227Y-74144505D01*
X159182226Y-74144512D01*
X159180765Y-74423417D01*
X159180743Y-74427703D01*
X127202867Y-74427703D01*
X127204235Y-74166583D01*
X127204235Y-74166576D01*
X127204257Y-74162297D01*
X127166732Y-73877266D01*
X127090871Y-73599964D01*
X127020124Y-73434101D01*
X126979763Y-73339476D01*
X126979761Y-73339472D01*
X126978077Y-73335524D01*
X126896878Y-73199851D01*
X149842719Y-73199851D01*
X149859268Y-73396934D01*
X149871191Y-73438513D01*
X149911504Y-73579102D01*
X149913783Y-73587050D01*
X150004187Y-73762956D01*
X150127035Y-73917953D01*
X150131728Y-73921947D01*
X150131729Y-73921948D01*
X150143234Y-73931739D01*
X150277650Y-74046136D01*
X150450294Y-74142624D01*
X150638392Y-74203740D01*
X150834777Y-74227158D01*
X150840912Y-74226686D01*
X150840914Y-74226686D01*
X151025830Y-74212457D01*
X151025834Y-74212456D01*
X151031972Y-74211984D01*
X151222463Y-74158798D01*
X151227967Y-74156018D01*
X151227969Y-74156017D01*
X151393495Y-74072404D01*
X151393497Y-74072403D01*
X151398996Y-74069625D01*
X151554847Y-73947861D01*
X151684078Y-73798145D01*
X151781769Y-73626179D01*
X151844197Y-73438513D01*
X151868985Y-73242295D01*
X151869380Y-73214000D01*
X151850080Y-73017167D01*
X151792916Y-72827831D01*
X151700066Y-72653204D01*
X151607843Y-72540128D01*
X151578960Y-72504713D01*
X151578957Y-72504710D01*
X151575065Y-72499938D01*
X151568724Y-72494692D01*
X151427425Y-72377799D01*
X151427421Y-72377797D01*
X151422675Y-72373870D01*
X151248701Y-72279802D01*
X151059768Y-72221318D01*
X151053643Y-72220674D01*
X151053642Y-72220674D01*
X150869204Y-72201289D01*
X150869202Y-72201289D01*
X150863075Y-72200645D01*
X150780576Y-72208153D01*
X150672251Y-72218011D01*
X150672248Y-72218012D01*
X150666112Y-72218570D01*
X150660206Y-72220308D01*
X150660202Y-72220309D01*
X150555076Y-72251249D01*
X150476381Y-72274410D01*
X150470923Y-72277263D01*
X150470919Y-72277265D01*
X150380147Y-72324720D01*
X150301110Y-72366040D01*
X150146975Y-72489968D01*
X150019846Y-72641474D01*
X150016879Y-72646872D01*
X150016875Y-72646877D01*
X149938095Y-72790180D01*
X149924567Y-72814787D01*
X149922706Y-72820654D01*
X149922705Y-72820656D01*
X149866627Y-72997436D01*
X149864765Y-73003306D01*
X149842719Y-73199851D01*
X126896878Y-73199851D01*
X126830439Y-73088839D01*
X126650687Y-72864472D01*
X126442149Y-72666577D01*
X126208683Y-72498814D01*
X126203386Y-72496009D01*
X126163654Y-72474972D01*
X125954608Y-72364288D01*
X125723739Y-72279802D01*
X125688658Y-72266964D01*
X125688656Y-72266963D01*
X125684627Y-72265489D01*
X125403736Y-72204245D01*
X125365096Y-72201204D01*
X125180718Y-72186693D01*
X125180709Y-72186693D01*
X125178261Y-72186500D01*
X125022729Y-72186500D01*
X125020593Y-72186646D01*
X125020582Y-72186646D01*
X124812452Y-72200835D01*
X124812446Y-72200836D01*
X124808175Y-72201127D01*
X124803980Y-72201996D01*
X124803978Y-72201996D01*
X124680674Y-72227531D01*
X124526658Y-72259426D01*
X124255657Y-72355393D01*
X124000188Y-72487250D01*
X123996687Y-72489711D01*
X123996683Y-72489713D01*
X123932197Y-72535035D01*
X123764977Y-72652559D01*
X123554378Y-72848260D01*
X123372287Y-73070732D01*
X123222073Y-73315858D01*
X123106517Y-73579102D01*
X123105342Y-73583229D01*
X123105341Y-73583230D01*
X123101699Y-73596016D01*
X123027756Y-73855594D01*
X122987249Y-74140216D01*
X122987227Y-74144505D01*
X122987226Y-74144512D01*
X122985765Y-74423417D01*
X122985743Y-74427703D01*
X121158000Y-74427703D01*
X121158000Y-74344328D01*
X121159500Y-74324943D01*
X121161805Y-74310142D01*
X121161805Y-74310139D01*
X121163186Y-74301270D01*
X121160584Y-74281374D01*
X121159654Y-74259216D01*
X121174525Y-73937557D01*
X121175599Y-73925968D01*
X121224231Y-73577342D01*
X121226370Y-73565903D01*
X121306958Y-73223260D01*
X121310143Y-73212065D01*
X121310670Y-73210495D01*
X121422006Y-72878315D01*
X121426210Y-72867463D01*
X121568391Y-72545453D01*
X121573571Y-72535048D01*
X121744867Y-72227513D01*
X121750983Y-72217636D01*
X121772180Y-72186693D01*
X121949914Y-71927233D01*
X121956928Y-71917945D01*
X122181806Y-71647135D01*
X122189647Y-71638535D01*
X122438535Y-71389647D01*
X122447135Y-71381806D01*
X122717945Y-71156928D01*
X122727233Y-71149914D01*
X123017636Y-70950983D01*
X123027513Y-70944867D01*
X123335048Y-70773571D01*
X123345453Y-70768391D01*
X123667463Y-70626210D01*
X123678315Y-70622006D01*
X123845190Y-70566075D01*
X124012074Y-70510140D01*
X124023256Y-70506959D01*
X124172512Y-70471855D01*
X124365903Y-70426370D01*
X124377342Y-70424231D01*
X124725968Y-70375599D01*
X124737556Y-70374525D01*
X124762609Y-70373367D01*
X125051816Y-70359997D01*
X125077015Y-70361362D01*
X125079858Y-70361805D01*
X125079860Y-70361805D01*
X125088730Y-70363186D01*
X125097632Y-70362022D01*
X125097635Y-70362022D01*
X125120251Y-70359064D01*
X125136589Y-70358000D01*
X161272582Y-70358000D01*
X161291967Y-70359500D01*
G37*
%TD.AperFunction*%
%TD*%
M02*
