M48
; DRILL file {KiCad (6.0.1-0)} date Friday, October 07, 2022 at 11:17:43 PM
; FORMAT={-:-/ absolute / inch / decimal}
; #@! TF.CreationDate,2022-10-07T23:17:43-05:00
; #@! TF.GenerationSoftware,Kicad,Pcbnew,(6.0.1-0)
; #@! TF.FileFunction,Plated,1,4,PTH
FMAT,2
INCH
; #@! TA.AperFunction,Plated,PTH,ViaDrill
T1C0.0079
; #@! TA.AperFunction,Plated,PTH,ViaDrill
T2C0.0157
; #@! TA.AperFunction,Plated,PTH,ViaDrill
T3C0.0197
; #@! TA.AperFunction,Plated,PTH,ComponentDrill
T4C0.0374
; #@! TA.AperFunction,Plated,PTH,ComponentDrill
T5C0.0394
%
G90
G05
T1
X4.855Y-3.125
X4.925Y-3.33
X4.94Y-3.075
X4.98Y-3.075
X5.015Y-3.28
X5.02Y-3.075
X5.025Y-3.175
X5.12Y-2.82
X5.12Y-2.86
X5.12Y-2.9
X5.12Y-2.935
X5.12Y-2.97
X5.12Y-3.005
X5.16Y-2.82
X5.16Y-2.86
X5.16Y-2.9
X5.16Y-2.935
X5.16Y-2.97
X5.16Y-3.005
X5.2Y-2.82
X5.2Y-2.86
X5.2Y-2.9
X5.2Y-2.935
X5.2Y-2.97
X5.335Y-2.785
X5.37Y-3.255
X5.375Y-2.785
X5.415Y-2.785
X5.505Y-3.24
X5.5577Y-4.1372
X5.5977Y-4.2072
X5.6094Y-3.8451
X5.64Y-4.25
X5.64Y-4.325
X5.6844Y-4.0801
X5.6877Y-4.1972
X5.7052Y-4.0497
X5.7077Y-4.0122
X5.7127Y-4.0922
X5.8177Y-4.4022
X5.8327Y-4.1272
X5.8777Y-4.4322
X5.9177Y-4.2972
X5.9477Y-4.2822
X5.9807Y-3.7684
X5.9977Y-4.3172
X5.9977Y-4.4022
X5.9977Y-4.4822
X6.135Y-3.795
X6.1677Y-4.4822
X6.1827Y-4.3172
X6.4607Y-3.8284
T2
X5.325Y-4.4
T3
X5.475Y-3.18
X5.9392Y-2.8824
T4
X6.3707Y-3.2024
X6.3707Y-3.3008
X6.3707Y-3.3992
X6.3707Y-3.4976
X6.39Y-4.05
X6.39Y-4.1484
X6.39Y-4.2469
T5
X4.9Y-4.465
X4.9Y-4.5634
T0
M30
