%TF.GenerationSoftware,KiCad,Pcbnew,(6.0.1-0)*%
%TF.CreationDate,2022-10-07T23:17:41-05:00*%
%TF.ProjectId,tackle_sensor_hardware,7461636b-6c65-45f7-9365-6e736f725f68,rev?*%
%TF.SameCoordinates,Original*%
%TF.FileFunction,Paste,Top*%
%TF.FilePolarity,Positive*%
%FSLAX46Y46*%
G04 Gerber Fmt 4.6, Leading zero omitted, Abs format (unit mm)*
G04 Created by KiCad (PCBNEW (6.0.1-0)) date 2022-10-07 23:17:41*
%MOMM*%
%LPD*%
G01*
G04 APERTURE LIST*
G04 Aperture macros list*
%AMRoundRect*
0 Rectangle with rounded corners*
0 $1 Rounding radius*
0 $2 $3 $4 $5 $6 $7 $8 $9 X,Y pos of 4 corners*
0 Add a 4 corners polygon primitive as box body*
4,1,4,$2,$3,$4,$5,$6,$7,$8,$9,$2,$3,0*
0 Add four circle primitives for the rounded corners*
1,1,$1+$1,$2,$3*
1,1,$1+$1,$4,$5*
1,1,$1+$1,$6,$7*
1,1,$1+$1,$8,$9*
0 Add four rect primitives between the rounded corners*
20,1,$1+$1,$2,$3,$4,$5,0*
20,1,$1+$1,$4,$5,$6,$7,0*
20,1,$1+$1,$6,$7,$8,$9,0*
20,1,$1+$1,$8,$9,$2,$3,0*%
G04 Aperture macros list end*
%ADD10RoundRect,0.200000X-0.200000X-0.275000X0.200000X-0.275000X0.200000X0.275000X-0.200000X0.275000X0*%
%ADD11RoundRect,0.100000X-0.637500X-0.100000X0.637500X-0.100000X0.637500X0.100000X-0.637500X0.100000X0*%
%ADD12RoundRect,0.135000X-0.135000X-0.185000X0.135000X-0.185000X0.135000X0.185000X-0.135000X0.185000X0*%
%ADD13RoundRect,0.135000X0.135000X0.185000X-0.135000X0.185000X-0.135000X-0.185000X0.135000X-0.185000X0*%
%ADD14R,0.700000X1.200000*%
%ADD15RoundRect,0.250000X-0.250000X-0.475000X0.250000X-0.475000X0.250000X0.475000X-0.250000X0.475000X0*%
%ADD16RoundRect,0.250000X-0.312500X-1.075000X0.312500X-1.075000X0.312500X1.075000X-0.312500X1.075000X0*%
%ADD17R,0.450000X1.450000*%
%ADD18RoundRect,0.140000X0.170000X-0.140000X0.170000X0.140000X-0.170000X0.140000X-0.170000X-0.140000X0*%
%ADD19RoundRect,0.225000X-0.225000X-0.250000X0.225000X-0.250000X0.225000X0.250000X-0.225000X0.250000X0*%
%ADD20R,3.050000X2.750000*%
%ADD21R,2.200000X1.200000*%
%ADD22RoundRect,0.200000X-0.275000X0.200000X-0.275000X-0.200000X0.275000X-0.200000X0.275000X0.200000X0*%
%ADD23RoundRect,0.135000X0.185000X-0.135000X0.185000X0.135000X-0.185000X0.135000X-0.185000X-0.135000X0*%
%ADD24RoundRect,0.250000X0.250000X0.475000X-0.250000X0.475000X-0.250000X-0.475000X0.250000X-0.475000X0*%
%ADD25R,1.550000X1.300000*%
%ADD26R,0.350000X0.375000*%
%ADD27R,0.375000X0.350000*%
%ADD28RoundRect,0.225000X0.225000X0.250000X-0.225000X0.250000X-0.225000X-0.250000X0.225000X-0.250000X0*%
%ADD29RoundRect,0.150000X-0.825000X-0.150000X0.825000X-0.150000X0.825000X0.150000X-0.825000X0.150000X0*%
%ADD30RoundRect,0.135000X-0.185000X0.135000X-0.185000X-0.135000X0.185000X-0.135000X0.185000X0.135000X0*%
%ADD31R,1.955800X2.362200*%
%ADD32R,2.750000X3.050000*%
%ADD33R,1.200000X2.200000*%
%ADD34RoundRect,0.140000X-0.140000X-0.170000X0.140000X-0.170000X0.140000X0.170000X-0.140000X0.170000X0*%
%ADD35RoundRect,0.218750X0.218750X0.256250X-0.218750X0.256250X-0.218750X-0.256250X0.218750X-0.256250X0*%
%ADD36RoundRect,0.250000X0.625000X-0.312500X0.625000X0.312500X-0.625000X0.312500X-0.625000X-0.312500X0*%
%ADD37R,0.760000X2.400000*%
%ADD38RoundRect,0.250000X0.550000X-1.500000X0.550000X1.500000X-0.550000X1.500000X-0.550000X-1.500000X0*%
%ADD39R,1.500000X2.000000*%
%ADD40R,3.800000X2.000000*%
%ADD41RoundRect,0.250000X1.500000X0.550000X-1.500000X0.550000X-1.500000X-0.550000X1.500000X-0.550000X0*%
%ADD42R,1.100000X1.100000*%
%ADD43R,0.900000X1.200000*%
%ADD44RoundRect,0.250000X0.475000X-0.250000X0.475000X0.250000X-0.475000X0.250000X-0.475000X-0.250000X0*%
%ADD45R,1.000000X0.800000*%
G04 APERTURE END LIST*
D10*
%TO.C,R14*%
X157290000Y-89057000D03*
X158940000Y-89057000D03*
%TD*%
D11*
%TO.C,U2*%
X146685000Y-100890000D03*
X146685000Y-101540000D03*
X146685000Y-102190000D03*
X146685000Y-102840000D03*
X146685000Y-103490000D03*
X146685000Y-104140000D03*
X146685000Y-104790000D03*
X146685000Y-105440000D03*
X146685000Y-106090000D03*
X146685000Y-106740000D03*
X152410000Y-106740000D03*
X152410000Y-106090000D03*
X152410000Y-105440000D03*
X152410000Y-104790000D03*
X152410000Y-104140000D03*
X152410000Y-103490000D03*
X152410000Y-102840000D03*
X152410000Y-102190000D03*
X152410000Y-101540000D03*
X152410000Y-100890000D03*
%TD*%
D12*
%TO.C,R16*%
X154731000Y-77395000D03*
X155751000Y-77395000D03*
%TD*%
D13*
%TO.C,R7*%
X138815000Y-83439000D03*
X137795000Y-83439000D03*
%TD*%
D12*
%TO.C,R1*%
X132840000Y-111760000D03*
X133860000Y-111760000D03*
%TD*%
D14*
%TO.C,SW2*%
X147360000Y-117273000D03*
X149860000Y-117273000D03*
X152360000Y-117273000D03*
X147360000Y-123773000D03*
X149860000Y-123773000D03*
X152360000Y-123773000D03*
%TD*%
D15*
%TO.C,C11*%
X151704000Y-90043000D03*
X153604000Y-90043000D03*
%TD*%
D16*
%TO.C,R17*%
X155128500Y-74295000D03*
X158053500Y-74295000D03*
%TD*%
D17*
%TO.C,U3*%
X124165000Y-81071000D03*
X123515000Y-81071000D03*
X122865000Y-81071000D03*
X122215000Y-81071000D03*
X122215000Y-85471000D03*
X122865000Y-85471000D03*
X123515000Y-85471000D03*
X124165000Y-85471000D03*
%TD*%
D18*
%TO.C,C7*%
X126492000Y-79883000D03*
X126492000Y-78923000D03*
%TD*%
D10*
%TO.C,R12*%
X157290000Y-91567000D03*
X158940000Y-91567000D03*
%TD*%
D19*
%TO.C,C3*%
X153585500Y-113848000D03*
X155135500Y-113848000D03*
%TD*%
D15*
%TO.C,C2*%
X153616500Y-109657000D03*
X155516500Y-109657000D03*
%TD*%
D12*
%TO.C,R3*%
X125603000Y-81026000D03*
X126623000Y-81026000D03*
%TD*%
D20*
%TO.C,Q9*%
X156385000Y-97665000D03*
X153035000Y-94615000D03*
X156385000Y-94615000D03*
X153035000Y-97665000D03*
D21*
X161010000Y-98420000D03*
X161010000Y-93860000D03*
%TD*%
D22*
%TO.C,R11*%
X146919000Y-75246000D03*
X146919000Y-76896000D03*
%TD*%
D23*
%TO.C,R4*%
X127635000Y-79887000D03*
X127635000Y-78867000D03*
%TD*%
D24*
%TO.C,C15*%
X143632000Y-100330000D03*
X141732000Y-100330000D03*
%TD*%
D25*
%TO.C,SW1*%
X132926000Y-104430000D03*
X140886000Y-104430000D03*
X132926000Y-108930000D03*
X140886000Y-108930000D03*
%TD*%
D26*
%TO.C,U1*%
X150297000Y-110295500D03*
X149797000Y-110295500D03*
X149297000Y-110295500D03*
X148797000Y-110295500D03*
D27*
X148784500Y-110808000D03*
X148784500Y-111308000D03*
D26*
X148797000Y-111820500D03*
X149297000Y-111820500D03*
X149797000Y-111820500D03*
X150297000Y-111820500D03*
D27*
X150309500Y-111308000D03*
X150309500Y-110808000D03*
%TD*%
D16*
%TO.C,R18*%
X152781000Y-80264000D03*
X155706000Y-80264000D03*
%TD*%
D28*
%TO.C,C9*%
X131699000Y-87122000D03*
X130149000Y-87122000D03*
%TD*%
D29*
%TO.C,U5*%
X144591000Y-80010000D03*
X144591000Y-81280000D03*
X144591000Y-82550000D03*
X144591000Y-83820000D03*
X144591000Y-85090000D03*
X144591000Y-86360000D03*
X144591000Y-87630000D03*
X144591000Y-88900000D03*
X149541000Y-88900000D03*
X149541000Y-87630000D03*
X149541000Y-86360000D03*
X149541000Y-85090000D03*
X149541000Y-83820000D03*
X149541000Y-82550000D03*
X149541000Y-81280000D03*
X149541000Y-80010000D03*
%TD*%
D12*
%TO.C,R21*%
X154555000Y-104394000D03*
X155575000Y-104394000D03*
%TD*%
%TO.C,R9*%
X147066000Y-113919000D03*
X148086000Y-113919000D03*
%TD*%
D30*
%TO.C,R2*%
X146626500Y-110796000D03*
X146626500Y-111816000D03*
%TD*%
D31*
%TO.C,T1*%
X129770000Y-90690700D03*
X126770000Y-90690700D03*
X126770000Y-101333300D03*
X129770000Y-101333300D03*
%TD*%
D12*
%TO.C,R8*%
X137795000Y-82296000D03*
X138815000Y-82296000D03*
%TD*%
%TO.C,R5*%
X125599000Y-82169000D03*
X126619000Y-82169000D03*
%TD*%
D32*
%TO.C,Q1*%
X134495000Y-124635000D03*
X131445000Y-121285000D03*
X131445000Y-124635000D03*
X134495000Y-121285000D03*
D33*
X135250000Y-116660000D03*
X130690000Y-116660000D03*
%TD*%
D18*
%TO.C,C6*%
X125476000Y-79883000D03*
X125476000Y-78923000D03*
%TD*%
D28*
%TO.C,C16*%
X143383000Y-102362000D03*
X141833000Y-102362000D03*
%TD*%
D22*
%TO.C,R13*%
X143744000Y-75246000D03*
X143744000Y-76896000D03*
%TD*%
D34*
%TO.C,C8*%
X125631000Y-83312000D03*
X126591000Y-83312000D03*
%TD*%
D35*
%TO.C,D3*%
X142503500Y-100967000D03*
X140928500Y-100967000D03*
%TD*%
D36*
%TO.C,R6*%
X129413000Y-80772000D03*
X129413000Y-77847000D03*
%TD*%
D24*
%TO.C,C5*%
X124079000Y-87884000D03*
X122179000Y-87884000D03*
%TD*%
D37*
%TO.C,J4*%
X143510000Y-113112000D03*
X143510000Y-117012000D03*
X142240000Y-113112000D03*
X142240000Y-117012000D03*
X140970000Y-113112000D03*
X140970000Y-117012000D03*
X139700000Y-113112000D03*
X139700000Y-117012000D03*
X138430000Y-113112000D03*
X138430000Y-117012000D03*
%TD*%
D38*
%TO.C,C10*%
X136525000Y-78740000D03*
X136525000Y-73140000D03*
%TD*%
D39*
%TO.C,U4*%
X141365000Y-91465000D03*
X139065000Y-91465000D03*
D40*
X139065000Y-97765000D03*
D39*
X136765000Y-91465000D03*
%TD*%
D24*
%TO.C,C12*%
X133350000Y-80645000D03*
X131450000Y-80645000D03*
%TD*%
D38*
%TO.C,C13*%
X146685000Y-97315000D03*
X146685000Y-91915000D03*
%TD*%
D41*
%TO.C,C4*%
X129065000Y-106680000D03*
X123665000Y-106680000D03*
%TD*%
D42*
%TO.C,D1*%
X136337500Y-87249000D03*
X133537500Y-87249000D03*
%TD*%
D12*
%TO.C,R10*%
X153924000Y-80391000D03*
X154944000Y-80391000D03*
%TD*%
D43*
%TO.C,D4*%
X130685000Y-113875000D03*
X133985000Y-113875000D03*
%TD*%
D16*
%TO.C,R15*%
X156079000Y-98806000D03*
X159004000Y-98806000D03*
%TD*%
%TO.C,F1*%
X150237000Y-76581000D03*
X153162000Y-76581000D03*
%TD*%
D44*
%TO.C,C1*%
X154450774Y-89174000D03*
X154450774Y-87274000D03*
%TD*%
D45*
%TO.C,D2*%
X146645000Y-73152000D03*
X146645000Y-71752000D03*
X144145000Y-71752000D03*
X144145000Y-73152000D03*
%TD*%
M02*
