%TF.GenerationSoftware,KiCad,Pcbnew,(6.0.1-0)*%
%TF.CreationDate,2022-10-07T23:17:41-05:00*%
%TF.ProjectId,tackle_sensor_hardware,7461636b-6c65-45f7-9365-6e736f725f68,rev?*%
%TF.SameCoordinates,Original*%
%TF.FileFunction,Legend,Top*%
%TF.FilePolarity,Positive*%
%FSLAX46Y46*%
G04 Gerber Fmt 4.6, Leading zero omitted, Abs format (unit mm)*
G04 Created by KiCad (PCBNEW (6.0.1-0)) date 2022-10-07 23:17:41*
%MOMM*%
%LPD*%
G01*
G04 APERTURE LIST*
G04 Aperture macros list*
%AMRoundRect*
0 Rectangle with rounded corners*
0 $1 Rounding radius*
0 $2 $3 $4 $5 $6 $7 $8 $9 X,Y pos of 4 corners*
0 Add a 4 corners polygon primitive as box body*
4,1,4,$2,$3,$4,$5,$6,$7,$8,$9,$2,$3,0*
0 Add four circle primitives for the rounded corners*
1,1,$1+$1,$2,$3*
1,1,$1+$1,$4,$5*
1,1,$1+$1,$6,$7*
1,1,$1+$1,$8,$9*
0 Add four rect primitives between the rounded corners*
20,1,$1+$1,$2,$3,$4,$5,0*
20,1,$1+$1,$4,$5,$6,$7,0*
20,1,$1+$1,$6,$7,$8,$9,0*
20,1,$1+$1,$8,$9,$2,$3,0*%
G04 Aperture macros list end*
%ADD10C,0.155000*%
%ADD11C,0.150000*%
%ADD12C,0.120000*%
%ADD13RoundRect,0.200000X-0.200000X-0.275000X0.200000X-0.275000X0.200000X0.275000X-0.200000X0.275000X0*%
%ADD14RoundRect,0.250000X-0.725000X0.600000X-0.725000X-0.600000X0.725000X-0.600000X0.725000X0.600000X0*%
%ADD15O,1.950000X1.700000*%
%ADD16RoundRect,0.100000X-0.637500X-0.100000X0.637500X-0.100000X0.637500X0.100000X-0.637500X0.100000X0*%
%ADD17C,3.200000*%
%ADD18RoundRect,0.135000X-0.135000X-0.185000X0.135000X-0.185000X0.135000X0.185000X-0.135000X0.185000X0*%
%ADD19RoundRect,0.250000X0.750000X-0.600000X0.750000X0.600000X-0.750000X0.600000X-0.750000X-0.600000X0*%
%ADD20O,2.000000X1.700000*%
%ADD21C,1.500000*%
%ADD22RoundRect,0.135000X0.135000X0.185000X-0.135000X0.185000X-0.135000X-0.185000X0.135000X-0.185000X0*%
%ADD23R,0.700000X1.200000*%
%ADD24RoundRect,0.250000X-0.250000X-0.475000X0.250000X-0.475000X0.250000X0.475000X-0.250000X0.475000X0*%
%ADD25RoundRect,0.250000X-0.312500X-1.075000X0.312500X-1.075000X0.312500X1.075000X-0.312500X1.075000X0*%
%ADD26R,0.450000X1.450000*%
%ADD27RoundRect,0.140000X0.170000X-0.140000X0.170000X0.140000X-0.170000X0.140000X-0.170000X-0.140000X0*%
%ADD28RoundRect,0.225000X-0.225000X-0.250000X0.225000X-0.250000X0.225000X0.250000X-0.225000X0.250000X0*%
%ADD29R,2.200000X1.200000*%
%ADD30R,6.400000X5.800000*%
%ADD31RoundRect,0.200000X-0.275000X0.200000X-0.275000X-0.200000X0.275000X-0.200000X0.275000X0.200000X0*%
%ADD32RoundRect,0.135000X0.185000X-0.135000X0.185000X0.135000X-0.185000X0.135000X-0.185000X-0.135000X0*%
%ADD33RoundRect,0.250000X0.250000X0.475000X-0.250000X0.475000X-0.250000X-0.475000X0.250000X-0.475000X0*%
%ADD34R,1.550000X1.300000*%
%ADD35R,0.350000X0.375000*%
%ADD36R,0.375000X0.350000*%
%ADD37RoundRect,0.225000X0.225000X0.250000X-0.225000X0.250000X-0.225000X-0.250000X0.225000X-0.250000X0*%
%ADD38RoundRect,0.150000X-0.825000X-0.150000X0.825000X-0.150000X0.825000X0.150000X-0.825000X0.150000X0*%
%ADD39RoundRect,0.135000X-0.185000X0.135000X-0.185000X-0.135000X0.185000X-0.135000X0.185000X0.135000X0*%
%ADD40R,1.955800X2.362200*%
%ADD41R,1.200000X2.200000*%
%ADD42R,5.800000X6.400000*%
%ADD43RoundRect,0.140000X-0.140000X-0.170000X0.140000X-0.170000X0.140000X0.170000X-0.140000X0.170000X0*%
%ADD44RoundRect,0.218750X0.218750X0.256250X-0.218750X0.256250X-0.218750X-0.256250X0.218750X-0.256250X0*%
%ADD45RoundRect,0.250000X0.625000X-0.312500X0.625000X0.312500X-0.625000X0.312500X-0.625000X-0.312500X0*%
%ADD46R,0.760000X2.400000*%
%ADD47RoundRect,0.250000X0.550000X-1.500000X0.550000X1.500000X-0.550000X1.500000X-0.550000X-1.500000X0*%
%ADD48R,1.500000X2.000000*%
%ADD49R,3.800000X2.000000*%
%ADD50RoundRect,0.250000X1.500000X0.550000X-1.500000X0.550000X-1.500000X-0.550000X1.500000X-0.550000X0*%
%ADD51R,1.100000X1.100000*%
%ADD52R,0.900000X1.200000*%
%ADD53C,1.000000*%
%ADD54RoundRect,0.250000X0.475000X-0.250000X0.475000X0.250000X-0.475000X0.250000X-0.475000X-0.250000X0*%
%ADD55R,1.000000X0.800000*%
G04 APERTURE END LIST*
D10*
X129794000Y-76581000D02*
X127635000Y-77216000D01*
X127762000Y-83464400D02*
X127762000Y-83108800D01*
X126593600Y-87223600D02*
X126136400Y-84023200D01*
X132080000Y-76517500D02*
X132080000Y-78168500D01*
X124333000Y-78994000D02*
X124968000Y-77851000D01*
X139573000Y-81661000D02*
X138430000Y-81661000D01*
X122428000Y-78486000D02*
X122809000Y-79629000D01*
X129794000Y-74803000D02*
X129794000Y-76581000D01*
X128320800Y-87223600D02*
X126593600Y-87223600D01*
X124968000Y-77851000D02*
X126111000Y-77851000D01*
X126238000Y-77851000D02*
X126492000Y-78359000D01*
X122936000Y-78994000D02*
X124333000Y-78994000D01*
X132080000Y-78232000D02*
X130683000Y-79121000D01*
X127635000Y-77216000D02*
X127635000Y-78232000D01*
X127762000Y-83108800D02*
X127203200Y-82600800D01*
X141478000Y-81661000D02*
X139573000Y-81661000D01*
X126111000Y-77851000D02*
X126238000Y-77851000D01*
X120904000Y-78486000D02*
X122428000Y-78486000D01*
X124206000Y-79629000D02*
X124714000Y-79629000D01*
X122809000Y-79629000D02*
X124206000Y-79629000D01*
D11*
X153955952Y-123753571D02*
X153622619Y-123753571D01*
X153622619Y-124277380D02*
X153622619Y-123277380D01*
X154098809Y-123277380D01*
X154432142Y-123991666D02*
X154908333Y-123991666D01*
X154336904Y-124277380D02*
X154670238Y-123277380D01*
X155003571Y-124277380D01*
X155813095Y-124277380D02*
X155336904Y-124277380D01*
X155336904Y-123277380D01*
X156098809Y-124229761D02*
X156241666Y-124277380D01*
X156479761Y-124277380D01*
X156575000Y-124229761D01*
X156622619Y-124182142D01*
X156670238Y-124086904D01*
X156670238Y-123991666D01*
X156622619Y-123896428D01*
X156575000Y-123848809D01*
X156479761Y-123801190D01*
X156289285Y-123753571D01*
X156194047Y-123705952D01*
X156146428Y-123658333D01*
X156098809Y-123563095D01*
X156098809Y-123467857D01*
X156146428Y-123372619D01*
X156194047Y-123325000D01*
X156289285Y-123277380D01*
X156527380Y-123277380D01*
X156670238Y-123325000D01*
X157098809Y-123753571D02*
X157432142Y-123753571D01*
X157575000Y-124277380D02*
X157098809Y-124277380D01*
X157098809Y-123277380D01*
X157575000Y-123277380D01*
X157526666Y-107402380D02*
X158145714Y-107402380D01*
X157812380Y-107783333D01*
X157955238Y-107783333D01*
X158050476Y-107830952D01*
X158098095Y-107878571D01*
X158145714Y-107973809D01*
X158145714Y-108211904D01*
X158098095Y-108307142D01*
X158050476Y-108354761D01*
X157955238Y-108402380D01*
X157669523Y-108402380D01*
X157574285Y-108354761D01*
X157526666Y-108307142D01*
X157194285Y-83367619D02*
X157241904Y-83320000D01*
X157337142Y-83272380D01*
X157575238Y-83272380D01*
X157670476Y-83320000D01*
X157718095Y-83367619D01*
X157765714Y-83462857D01*
X157765714Y-83558095D01*
X157718095Y-83700952D01*
X157146666Y-84272380D01*
X157765714Y-84272380D01*
X142764095Y-123277380D02*
X143335523Y-123277380D01*
X143049809Y-124277380D02*
X143049809Y-123277380D01*
X144240285Y-124277380D02*
X143906952Y-123801190D01*
X143668857Y-124277380D02*
X143668857Y-123277380D01*
X144049809Y-123277380D01*
X144145047Y-123325000D01*
X144192666Y-123372619D01*
X144240285Y-123467857D01*
X144240285Y-123610714D01*
X144192666Y-123705952D01*
X144145047Y-123753571D01*
X144049809Y-123801190D01*
X143668857Y-123801190D01*
X144668857Y-123277380D02*
X144668857Y-124086904D01*
X144716476Y-124182142D01*
X144764095Y-124229761D01*
X144859333Y-124277380D01*
X145049809Y-124277380D01*
X145145047Y-124229761D01*
X145192666Y-124182142D01*
X145240285Y-124086904D01*
X145240285Y-123277380D01*
X145716476Y-123753571D02*
X146049809Y-123753571D01*
X146192666Y-124277380D02*
X145716476Y-124277380D01*
X145716476Y-123277380D01*
X146192666Y-123277380D01*
X157704404Y-114666380D02*
X157132976Y-114666380D01*
X157418690Y-114666380D02*
X157418690Y-113666380D01*
X157323452Y-113809238D01*
X157228214Y-113904476D01*
X157132976Y-113952095D01*
X158132976Y-114571142D02*
X158180595Y-114618761D01*
X158132976Y-114666380D01*
X158085357Y-114618761D01*
X158132976Y-114571142D01*
X158132976Y-114666380D01*
X159371071Y-113666380D02*
X159371071Y-114475904D01*
X159418690Y-114571142D01*
X159466309Y-114618761D01*
X159561547Y-114666380D01*
X159752023Y-114666380D01*
X159847261Y-114618761D01*
X159894880Y-114571142D01*
X159942500Y-114475904D01*
X159942500Y-113666380D01*
X160371071Y-114380666D02*
X160847261Y-114380666D01*
X160275833Y-114666380D02*
X160609166Y-113666380D01*
X160942500Y-114666380D01*
X161847261Y-114666380D02*
X161513928Y-114190190D01*
X161275833Y-114666380D02*
X161275833Y-113666380D01*
X161656785Y-113666380D01*
X161752023Y-113714000D01*
X161799642Y-113761619D01*
X161847261Y-113856857D01*
X161847261Y-113999714D01*
X161799642Y-114094952D01*
X161752023Y-114142571D01*
X161656785Y-114190190D01*
X161275833Y-114190190D01*
X162132976Y-113666380D02*
X162704404Y-113666380D01*
X162418690Y-114666380D02*
X162418690Y-113666380D01*
X163656785Y-113666380D02*
X164228214Y-113666380D01*
X163942500Y-114666380D02*
X163942500Y-113666380D01*
X164466309Y-113666380D02*
X165132976Y-114666380D01*
X165132976Y-113666380D02*
X164466309Y-114666380D01*
X157132976Y-115371619D02*
X157180595Y-115324000D01*
X157275833Y-115276380D01*
X157513928Y-115276380D01*
X157609166Y-115324000D01*
X157656785Y-115371619D01*
X157704404Y-115466857D01*
X157704404Y-115562095D01*
X157656785Y-115704952D01*
X157085357Y-116276380D01*
X157704404Y-116276380D01*
X158132976Y-116181142D02*
X158180595Y-116228761D01*
X158132976Y-116276380D01*
X158085357Y-116228761D01*
X158132976Y-116181142D01*
X158132976Y-116276380D01*
X159323452Y-116228761D02*
X159466309Y-116276380D01*
X159704404Y-116276380D01*
X159799642Y-116228761D01*
X159847261Y-116181142D01*
X159894880Y-116085904D01*
X159894880Y-115990666D01*
X159847261Y-115895428D01*
X159799642Y-115847809D01*
X159704404Y-115800190D01*
X159513928Y-115752571D01*
X159418690Y-115704952D01*
X159371071Y-115657333D01*
X159323452Y-115562095D01*
X159323452Y-115466857D01*
X159371071Y-115371619D01*
X159418690Y-115324000D01*
X159513928Y-115276380D01*
X159752023Y-115276380D01*
X159894880Y-115324000D01*
X160180595Y-115276380D02*
X160752023Y-115276380D01*
X160466309Y-116276380D02*
X160466309Y-115276380D01*
X161037738Y-115990666D02*
X161513928Y-115990666D01*
X160942500Y-116276380D02*
X161275833Y-115276380D01*
X161609166Y-116276380D01*
X161799642Y-115276380D02*
X162371071Y-115276380D01*
X162085357Y-116276380D02*
X162085357Y-115276380D01*
X162704404Y-115276380D02*
X162704404Y-116085904D01*
X162752023Y-116181142D01*
X162799642Y-116228761D01*
X162894880Y-116276380D01*
X163085357Y-116276380D01*
X163180595Y-116228761D01*
X163228214Y-116181142D01*
X163275833Y-116085904D01*
X163275833Y-115276380D01*
X163704404Y-116228761D02*
X163847261Y-116276380D01*
X164085357Y-116276380D01*
X164180595Y-116228761D01*
X164228214Y-116181142D01*
X164275833Y-116085904D01*
X164275833Y-115990666D01*
X164228214Y-115895428D01*
X164180595Y-115847809D01*
X164085357Y-115800190D01*
X163894880Y-115752571D01*
X163799642Y-115704952D01*
X163752023Y-115657333D01*
X163704404Y-115562095D01*
X163704404Y-115466857D01*
X163752023Y-115371619D01*
X163799642Y-115324000D01*
X163894880Y-115276380D01*
X164132976Y-115276380D01*
X164275833Y-115324000D01*
X157085357Y-116886380D02*
X157704404Y-116886380D01*
X157371071Y-117267333D01*
X157513928Y-117267333D01*
X157609166Y-117314952D01*
X157656785Y-117362571D01*
X157704404Y-117457809D01*
X157704404Y-117695904D01*
X157656785Y-117791142D01*
X157609166Y-117838761D01*
X157513928Y-117886380D01*
X157228214Y-117886380D01*
X157132976Y-117838761D01*
X157085357Y-117791142D01*
X158132976Y-117791142D02*
X158180595Y-117838761D01*
X158132976Y-117886380D01*
X158085357Y-117838761D01*
X158132976Y-117791142D01*
X158132976Y-117886380D01*
X159894880Y-116934000D02*
X159799642Y-116886380D01*
X159656785Y-116886380D01*
X159513928Y-116934000D01*
X159418690Y-117029238D01*
X159371071Y-117124476D01*
X159323452Y-117314952D01*
X159323452Y-117457809D01*
X159371071Y-117648285D01*
X159418690Y-117743523D01*
X159513928Y-117838761D01*
X159656785Y-117886380D01*
X159752023Y-117886380D01*
X159894880Y-117838761D01*
X159942500Y-117791142D01*
X159942500Y-117457809D01*
X159752023Y-117457809D01*
X160371071Y-117886380D02*
X160371071Y-116886380D01*
X160942500Y-117886380D01*
X160942500Y-116886380D01*
X161418690Y-117886380D02*
X161418690Y-116886380D01*
X161656785Y-116886380D01*
X161799642Y-116934000D01*
X161894880Y-117029238D01*
X161942500Y-117124476D01*
X161990119Y-117314952D01*
X161990119Y-117457809D01*
X161942500Y-117648285D01*
X161894880Y-117743523D01*
X161799642Y-117838761D01*
X161656785Y-117886380D01*
X161418690Y-117886380D01*
X143764857Y-125785571D02*
X144098190Y-125785571D01*
X144241047Y-126309380D02*
X143764857Y-126309380D01*
X143764857Y-125309380D01*
X144241047Y-125309380D01*
X145145809Y-126309380D02*
X144669619Y-126309380D01*
X144669619Y-125309380D01*
X145479142Y-126309380D02*
X145479142Y-125309380D01*
X146479142Y-125357000D02*
X146383904Y-125309380D01*
X146241047Y-125309380D01*
X146098190Y-125357000D01*
X146002952Y-125452238D01*
X145955333Y-125547476D01*
X145907714Y-125737952D01*
X145907714Y-125880809D01*
X145955333Y-126071285D01*
X146002952Y-126166523D01*
X146098190Y-126261761D01*
X146241047Y-126309380D01*
X146336285Y-126309380D01*
X146479142Y-126261761D01*
X146526761Y-126214142D01*
X146526761Y-125880809D01*
X146336285Y-125880809D01*
X146955333Y-126309380D02*
X146955333Y-125309380D01*
X147764857Y-125785571D02*
X147907714Y-125833190D01*
X147955333Y-125880809D01*
X148002952Y-125976047D01*
X148002952Y-126118904D01*
X147955333Y-126214142D01*
X147907714Y-126261761D01*
X147812476Y-126309380D01*
X147431523Y-126309380D01*
X147431523Y-125309380D01*
X147764857Y-125309380D01*
X147860095Y-125357000D01*
X147907714Y-125404619D01*
X147955333Y-125499857D01*
X147955333Y-125595095D01*
X147907714Y-125690333D01*
X147860095Y-125737952D01*
X147764857Y-125785571D01*
X147431523Y-125785571D01*
X148907714Y-126309380D02*
X148431523Y-126309380D01*
X148431523Y-125309380D01*
X149241047Y-125785571D02*
X149574380Y-125785571D01*
X149717238Y-126309380D02*
X149241047Y-126309380D01*
X149241047Y-125309380D01*
X149717238Y-125309380D01*
X151479142Y-126309380D02*
X151145809Y-125833190D01*
X150907714Y-126309380D02*
X150907714Y-125309380D01*
X151288666Y-125309380D01*
X151383904Y-125357000D01*
X151431523Y-125404619D01*
X151479142Y-125499857D01*
X151479142Y-125642714D01*
X151431523Y-125737952D01*
X151383904Y-125785571D01*
X151288666Y-125833190D01*
X150907714Y-125833190D01*
X151907714Y-125785571D02*
X152241047Y-125785571D01*
X152383904Y-126309380D02*
X151907714Y-126309380D01*
X151907714Y-125309380D01*
X152383904Y-125309380D01*
X153383904Y-126214142D02*
X153336285Y-126261761D01*
X153193428Y-126309380D01*
X153098190Y-126309380D01*
X152955333Y-126261761D01*
X152860095Y-126166523D01*
X152812476Y-126071285D01*
X152764857Y-125880809D01*
X152764857Y-125737952D01*
X152812476Y-125547476D01*
X152860095Y-125452238D01*
X152955333Y-125357000D01*
X153098190Y-125309380D01*
X153193428Y-125309380D01*
X153336285Y-125357000D01*
X153383904Y-125404619D01*
X153812476Y-125785571D02*
X154145809Y-125785571D01*
X154288666Y-126309380D02*
X153812476Y-126309380D01*
X153812476Y-125309380D01*
X154288666Y-125309380D01*
X154717238Y-126309380D02*
X154717238Y-125309380D01*
X155050571Y-125309380D02*
X155383904Y-126309380D01*
X155717238Y-125309380D01*
X156050571Y-125785571D02*
X156383904Y-125785571D01*
X156526761Y-126309380D02*
X156050571Y-126309380D01*
X156050571Y-125309380D01*
X156526761Y-125309380D01*
X157526761Y-126309380D02*
X157193428Y-125833190D01*
X156955333Y-126309380D02*
X156955333Y-125309380D01*
X157336285Y-125309380D01*
X157431523Y-125357000D01*
X157479142Y-125404619D01*
X157526761Y-125499857D01*
X157526761Y-125642714D01*
X157479142Y-125737952D01*
X157431523Y-125785571D01*
X157336285Y-125833190D01*
X156955333Y-125833190D01*
X157146666Y-85812380D02*
X157765714Y-85812380D01*
X157432380Y-86193333D01*
X157575238Y-86193333D01*
X157670476Y-86240952D01*
X157718095Y-86288571D01*
X157765714Y-86383809D01*
X157765714Y-86621904D01*
X157718095Y-86717142D01*
X157670476Y-86764761D01*
X157575238Y-86812380D01*
X157289523Y-86812380D01*
X157194285Y-86764761D01*
X157146666Y-86717142D01*
X157670476Y-88685714D02*
X157670476Y-89352380D01*
X157432380Y-88304761D02*
X157194285Y-89019047D01*
X157813333Y-89019047D01*
X157765714Y-81732380D02*
X157194285Y-81732380D01*
X157480000Y-81732380D02*
X157480000Y-80732380D01*
X157384761Y-80875238D01*
X157289523Y-80970476D01*
X157194285Y-81018095D01*
X128524047Y-112931428D02*
X129285952Y-112931428D01*
X128524047Y-114541428D02*
X129285952Y-114541428D01*
X128905000Y-114922380D02*
X128905000Y-114160476D01*
X158339404Y-94557380D02*
X157767976Y-94557380D01*
X158053690Y-94557380D02*
X158053690Y-93557380D01*
X157958452Y-93700238D01*
X157863214Y-93795476D01*
X157767976Y-93843095D01*
X158767976Y-94462142D02*
X158815595Y-94509761D01*
X158767976Y-94557380D01*
X158720357Y-94509761D01*
X158767976Y-94462142D01*
X158767976Y-94557380D01*
X160006071Y-94176428D02*
X160767976Y-94176428D01*
X160387023Y-94557380D02*
X160387023Y-93795476D01*
X161767976Y-94557380D02*
X161196547Y-94557380D01*
X161482261Y-94557380D02*
X161482261Y-93557380D01*
X161387023Y-93700238D01*
X161291785Y-93795476D01*
X161196547Y-93843095D01*
X162148928Y-93652619D02*
X162196547Y-93605000D01*
X162291785Y-93557380D01*
X162529880Y-93557380D01*
X162625119Y-93605000D01*
X162672738Y-93652619D01*
X162720357Y-93747857D01*
X162720357Y-93843095D01*
X162672738Y-93985952D01*
X162101309Y-94557380D01*
X162720357Y-94557380D01*
X163006071Y-93557380D02*
X163339404Y-94557380D01*
X163672738Y-93557380D01*
X157767976Y-95262619D02*
X157815595Y-95215000D01*
X157910833Y-95167380D01*
X158148928Y-95167380D01*
X158244166Y-95215000D01*
X158291785Y-95262619D01*
X158339404Y-95357857D01*
X158339404Y-95453095D01*
X158291785Y-95595952D01*
X157720357Y-96167380D01*
X158339404Y-96167380D01*
X158767976Y-96072142D02*
X158815595Y-96119761D01*
X158767976Y-96167380D01*
X158720357Y-96119761D01*
X158767976Y-96072142D01*
X158767976Y-96167380D01*
X160577500Y-96167380D02*
X160244166Y-95691190D01*
X160006071Y-96167380D02*
X160006071Y-95167380D01*
X160387023Y-95167380D01*
X160482261Y-95215000D01*
X160529880Y-95262619D01*
X160577500Y-95357857D01*
X160577500Y-95500714D01*
X160529880Y-95595952D01*
X160482261Y-95643571D01*
X160387023Y-95691190D01*
X160006071Y-95691190D01*
X161006071Y-95643571D02*
X161339404Y-95643571D01*
X161482261Y-96167380D02*
X161006071Y-96167380D01*
X161006071Y-95167380D01*
X161482261Y-95167380D01*
X161910833Y-96167380D02*
X161910833Y-95167380D01*
X162148928Y-95167380D01*
X162291785Y-95215000D01*
X162387023Y-95310238D01*
X162434642Y-95405476D01*
X162482261Y-95595952D01*
X162482261Y-95738809D01*
X162434642Y-95929285D01*
X162387023Y-96024523D01*
X162291785Y-96119761D01*
X162148928Y-96167380D01*
X161910833Y-96167380D01*
X157720357Y-96777380D02*
X158339404Y-96777380D01*
X158006071Y-97158333D01*
X158148928Y-97158333D01*
X158244166Y-97205952D01*
X158291785Y-97253571D01*
X158339404Y-97348809D01*
X158339404Y-97586904D01*
X158291785Y-97682142D01*
X158244166Y-97729761D01*
X158148928Y-97777380D01*
X157863214Y-97777380D01*
X157767976Y-97729761D01*
X157720357Y-97682142D01*
X158767976Y-97682142D02*
X158815595Y-97729761D01*
X158767976Y-97777380D01*
X158720357Y-97729761D01*
X158767976Y-97682142D01*
X158767976Y-97777380D01*
X160529880Y-96825000D02*
X160434642Y-96777380D01*
X160291785Y-96777380D01*
X160148928Y-96825000D01*
X160053690Y-96920238D01*
X160006071Y-97015476D01*
X159958452Y-97205952D01*
X159958452Y-97348809D01*
X160006071Y-97539285D01*
X160053690Y-97634523D01*
X160148928Y-97729761D01*
X160291785Y-97777380D01*
X160387023Y-97777380D01*
X160529880Y-97729761D01*
X160577500Y-97682142D01*
X160577500Y-97348809D01*
X160387023Y-97348809D01*
X161577500Y-97777380D02*
X161244166Y-97301190D01*
X161006071Y-97777380D02*
X161006071Y-96777380D01*
X161387023Y-96777380D01*
X161482261Y-96825000D01*
X161529880Y-96872619D01*
X161577500Y-96967857D01*
X161577500Y-97110714D01*
X161529880Y-97205952D01*
X161482261Y-97253571D01*
X161387023Y-97301190D01*
X161006071Y-97301190D01*
X162006071Y-97253571D02*
X162339404Y-97253571D01*
X162482261Y-97777380D02*
X162006071Y-97777380D01*
X162006071Y-96777380D01*
X162482261Y-96777380D01*
X162910833Y-97253571D02*
X163244166Y-97253571D01*
X163387023Y-97777380D02*
X162910833Y-97777380D01*
X162910833Y-96777380D01*
X163387023Y-96777380D01*
X163815595Y-97777380D02*
X163815595Y-96777380D01*
X164387023Y-97777380D01*
X164387023Y-96777380D01*
X158244166Y-98720714D02*
X158244166Y-99387380D01*
X158006071Y-98339761D02*
X157767976Y-99054047D01*
X158387023Y-99054047D01*
X158767976Y-99292142D02*
X158815595Y-99339761D01*
X158767976Y-99387380D01*
X158720357Y-99339761D01*
X158767976Y-99292142D01*
X158767976Y-99387380D01*
X160339404Y-98863571D02*
X160482261Y-98911190D01*
X160529880Y-98958809D01*
X160577500Y-99054047D01*
X160577500Y-99196904D01*
X160529880Y-99292142D01*
X160482261Y-99339761D01*
X160387023Y-99387380D01*
X160006071Y-99387380D01*
X160006071Y-98387380D01*
X160339404Y-98387380D01*
X160434642Y-98435000D01*
X160482261Y-98482619D01*
X160529880Y-98577857D01*
X160529880Y-98673095D01*
X160482261Y-98768333D01*
X160434642Y-98815952D01*
X160339404Y-98863571D01*
X160006071Y-98863571D01*
X161482261Y-99387380D02*
X161006071Y-99387380D01*
X161006071Y-98387380D01*
X161815595Y-98387380D02*
X161815595Y-99196904D01*
X161863214Y-99292142D01*
X161910833Y-99339761D01*
X162006071Y-99387380D01*
X162196547Y-99387380D01*
X162291785Y-99339761D01*
X162339404Y-99292142D01*
X162387023Y-99196904D01*
X162387023Y-98387380D01*
X162863214Y-98863571D02*
X163196547Y-98863571D01*
X163339404Y-99387380D02*
X162863214Y-99387380D01*
X162863214Y-98387380D01*
X163339404Y-98387380D01*
X157574285Y-104957619D02*
X157621904Y-104910000D01*
X157717142Y-104862380D01*
X157955238Y-104862380D01*
X158050476Y-104910000D01*
X158098095Y-104957619D01*
X158145714Y-105052857D01*
X158145714Y-105148095D01*
X158098095Y-105290952D01*
X157526666Y-105862380D01*
X158145714Y-105862380D01*
X158145714Y-103322380D02*
X157574285Y-103322380D01*
X157860000Y-103322380D02*
X157860000Y-102322380D01*
X157764761Y-102465238D01*
X157669523Y-102560476D01*
X157574285Y-102608095D01*
%TO.C,R14*%
X157472142Y-88079380D02*
X157138809Y-87603190D01*
X156900714Y-88079380D02*
X156900714Y-87079380D01*
X157281666Y-87079380D01*
X157376904Y-87127000D01*
X157424523Y-87174619D01*
X157472142Y-87269857D01*
X157472142Y-87412714D01*
X157424523Y-87507952D01*
X157376904Y-87555571D01*
X157281666Y-87603190D01*
X156900714Y-87603190D01*
X158424523Y-88079380D02*
X157853095Y-88079380D01*
X158138809Y-88079380D02*
X158138809Y-87079380D01*
X158043571Y-87222238D01*
X157948333Y-87317476D01*
X157853095Y-87365095D01*
X159281666Y-87412714D02*
X159281666Y-88079380D01*
X159043571Y-87031761D02*
X158805476Y-87746047D01*
X159424523Y-87746047D01*
%TO.C,J3*%
X163750666Y-111212380D02*
X163750666Y-111926666D01*
X163703047Y-112069523D01*
X163607809Y-112164761D01*
X163464952Y-112212380D01*
X163369714Y-112212380D01*
X164131619Y-111212380D02*
X164750666Y-111212380D01*
X164417333Y-111593333D01*
X164560190Y-111593333D01*
X164655428Y-111640952D01*
X164703047Y-111688571D01*
X164750666Y-111783809D01*
X164750666Y-112021904D01*
X164703047Y-112117142D01*
X164655428Y-112164761D01*
X164560190Y-112212380D01*
X164274476Y-112212380D01*
X164179238Y-112164761D01*
X164131619Y-112117142D01*
%TO.C,U2*%
X148785595Y-98822380D02*
X148785595Y-99631904D01*
X148833214Y-99727142D01*
X148880833Y-99774761D01*
X148976071Y-99822380D01*
X149166547Y-99822380D01*
X149261785Y-99774761D01*
X149309404Y-99727142D01*
X149357023Y-99631904D01*
X149357023Y-98822380D01*
X149785595Y-98917619D02*
X149833214Y-98870000D01*
X149928452Y-98822380D01*
X150166547Y-98822380D01*
X150261785Y-98870000D01*
X150309404Y-98917619D01*
X150357023Y-99012857D01*
X150357023Y-99108095D01*
X150309404Y-99250952D01*
X149737976Y-99822380D01*
X150357023Y-99822380D01*
%TO.C,R16*%
X154598142Y-76677380D02*
X154264809Y-76201190D01*
X154026714Y-76677380D02*
X154026714Y-75677380D01*
X154407666Y-75677380D01*
X154502904Y-75725000D01*
X154550523Y-75772619D01*
X154598142Y-75867857D01*
X154598142Y-76010714D01*
X154550523Y-76105952D01*
X154502904Y-76153571D01*
X154407666Y-76201190D01*
X154026714Y-76201190D01*
X155550523Y-76677380D02*
X154979095Y-76677380D01*
X155264809Y-76677380D02*
X155264809Y-75677380D01*
X155169571Y-75820238D01*
X155074333Y-75915476D01*
X154979095Y-75963095D01*
X156407666Y-75677380D02*
X156217190Y-75677380D01*
X156121952Y-75725000D01*
X156074333Y-75772619D01*
X155979095Y-75915476D01*
X155931476Y-76105952D01*
X155931476Y-76486904D01*
X155979095Y-76582142D01*
X156026714Y-76629761D01*
X156121952Y-76677380D01*
X156312428Y-76677380D01*
X156407666Y-76629761D01*
X156455285Y-76582142D01*
X156502904Y-76486904D01*
X156502904Y-76248809D01*
X156455285Y-76153571D01*
X156407666Y-76105952D01*
X156312428Y-76058333D01*
X156121952Y-76058333D01*
X156026714Y-76105952D01*
X155979095Y-76153571D01*
X155931476Y-76248809D01*
%TO.C,J1*%
X127976380Y-120074333D02*
X128690666Y-120074333D01*
X128833523Y-120121952D01*
X128928761Y-120217190D01*
X128976380Y-120360047D01*
X128976380Y-120455285D01*
X128976380Y-119074333D02*
X128976380Y-119645761D01*
X128976380Y-119360047D02*
X127976380Y-119360047D01*
X128119238Y-119455285D01*
X128214476Y-119550523D01*
X128262095Y-119645761D01*
%TO.C,TP1*%
X152964095Y-117567380D02*
X153535523Y-117567380D01*
X153249809Y-118567380D02*
X153249809Y-117567380D01*
X153868857Y-118567380D02*
X153868857Y-117567380D01*
X154249809Y-117567380D01*
X154345047Y-117615000D01*
X154392666Y-117662619D01*
X154440285Y-117757857D01*
X154440285Y-117900714D01*
X154392666Y-117995952D01*
X154345047Y-118043571D01*
X154249809Y-118091190D01*
X153868857Y-118091190D01*
X155392666Y-118567380D02*
X154821238Y-118567380D01*
X155106952Y-118567380D02*
X155106952Y-117567380D01*
X155011714Y-117710238D01*
X154916476Y-117805476D01*
X154821238Y-117853095D01*
%TO.C,R7*%
X138009333Y-85161380D02*
X137676000Y-84685190D01*
X137437904Y-85161380D02*
X137437904Y-84161380D01*
X137818857Y-84161380D01*
X137914095Y-84209000D01*
X137961714Y-84256619D01*
X138009333Y-84351857D01*
X138009333Y-84494714D01*
X137961714Y-84589952D01*
X137914095Y-84637571D01*
X137818857Y-84685190D01*
X137437904Y-84685190D01*
X138342666Y-84161380D02*
X139009333Y-84161380D01*
X138580761Y-85161380D01*
%TO.C,R1*%
X130643333Y-112212380D02*
X130310000Y-111736190D01*
X130071904Y-112212380D02*
X130071904Y-111212380D01*
X130452857Y-111212380D01*
X130548095Y-111260000D01*
X130595714Y-111307619D01*
X130643333Y-111402857D01*
X130643333Y-111545714D01*
X130595714Y-111640952D01*
X130548095Y-111688571D01*
X130452857Y-111736190D01*
X130071904Y-111736190D01*
X131595714Y-112212380D02*
X131024285Y-112212380D01*
X131310000Y-112212380D02*
X131310000Y-111212380D01*
X131214761Y-111355238D01*
X131119523Y-111450476D01*
X131024285Y-111498095D01*
%TO.C,SW2*%
X148526666Y-122451761D02*
X148669523Y-122499380D01*
X148907619Y-122499380D01*
X149002857Y-122451761D01*
X149050476Y-122404142D01*
X149098095Y-122308904D01*
X149098095Y-122213666D01*
X149050476Y-122118428D01*
X149002857Y-122070809D01*
X148907619Y-122023190D01*
X148717142Y-121975571D01*
X148621904Y-121927952D01*
X148574285Y-121880333D01*
X148526666Y-121785095D01*
X148526666Y-121689857D01*
X148574285Y-121594619D01*
X148621904Y-121547000D01*
X148717142Y-121499380D01*
X148955238Y-121499380D01*
X149098095Y-121547000D01*
X149431428Y-121499380D02*
X149669523Y-122499380D01*
X149860000Y-121785095D01*
X150050476Y-122499380D01*
X150288571Y-121499380D01*
X150621904Y-121594619D02*
X150669523Y-121547000D01*
X150764761Y-121499380D01*
X151002857Y-121499380D01*
X151098095Y-121547000D01*
X151145714Y-121594619D01*
X151193333Y-121689857D01*
X151193333Y-121785095D01*
X151145714Y-121927952D01*
X150574285Y-122499380D01*
X151193333Y-122499380D01*
%TO.C,C11*%
X155313142Y-90527142D02*
X155265523Y-90574761D01*
X155122666Y-90622380D01*
X155027428Y-90622380D01*
X154884571Y-90574761D01*
X154789333Y-90479523D01*
X154741714Y-90384285D01*
X154694095Y-90193809D01*
X154694095Y-90050952D01*
X154741714Y-89860476D01*
X154789333Y-89765238D01*
X154884571Y-89670000D01*
X155027428Y-89622380D01*
X155122666Y-89622380D01*
X155265523Y-89670000D01*
X155313142Y-89717619D01*
X156265523Y-90622380D02*
X155694095Y-90622380D01*
X155979809Y-90622380D02*
X155979809Y-89622380D01*
X155884571Y-89765238D01*
X155789333Y-89860476D01*
X155694095Y-89908095D01*
X157217904Y-90622380D02*
X156646476Y-90622380D01*
X156932190Y-90622380D02*
X156932190Y-89622380D01*
X156836952Y-89765238D01*
X156741714Y-89860476D01*
X156646476Y-89908095D01*
%TO.C,R17*%
X154805142Y-72080380D02*
X154471809Y-71604190D01*
X154233714Y-72080380D02*
X154233714Y-71080380D01*
X154614666Y-71080380D01*
X154709904Y-71128000D01*
X154757523Y-71175619D01*
X154805142Y-71270857D01*
X154805142Y-71413714D01*
X154757523Y-71508952D01*
X154709904Y-71556571D01*
X154614666Y-71604190D01*
X154233714Y-71604190D01*
X155757523Y-72080380D02*
X155186095Y-72080380D01*
X155471809Y-72080380D02*
X155471809Y-71080380D01*
X155376571Y-71223238D01*
X155281333Y-71318476D01*
X155186095Y-71366095D01*
X156090857Y-71080380D02*
X156757523Y-71080380D01*
X156328952Y-72080380D01*
%TO.C,U3*%
X125131580Y-86664704D02*
X125941104Y-86664704D01*
X126036342Y-86617085D01*
X126083961Y-86569466D01*
X126131580Y-86474228D01*
X126131580Y-86283752D01*
X126083961Y-86188514D01*
X126036342Y-86140895D01*
X125941104Y-86093276D01*
X125131580Y-86093276D01*
X125131580Y-85712323D02*
X125131580Y-85093276D01*
X125512533Y-85426609D01*
X125512533Y-85283752D01*
X125560152Y-85188514D01*
X125607771Y-85140895D01*
X125703009Y-85093276D01*
X125941104Y-85093276D01*
X126036342Y-85140895D01*
X126083961Y-85188514D01*
X126131580Y-85283752D01*
X126131580Y-85569466D01*
X126083961Y-85664704D01*
X126036342Y-85712323D01*
%TO.C,C7*%
X123531333Y-78716142D02*
X123483714Y-78763761D01*
X123340857Y-78811380D01*
X123245619Y-78811380D01*
X123102761Y-78763761D01*
X123007523Y-78668523D01*
X122959904Y-78573285D01*
X122912285Y-78382809D01*
X122912285Y-78239952D01*
X122959904Y-78049476D01*
X123007523Y-77954238D01*
X123102761Y-77859000D01*
X123245619Y-77811380D01*
X123340857Y-77811380D01*
X123483714Y-77859000D01*
X123531333Y-77906619D01*
X123864666Y-77811380D02*
X124531333Y-77811380D01*
X124102761Y-78811380D01*
%TO.C,J2*%
X163369666Y-92035380D02*
X163369666Y-92749666D01*
X163322047Y-92892523D01*
X163226809Y-92987761D01*
X163083952Y-93035380D01*
X162988714Y-93035380D01*
X163798238Y-92130619D02*
X163845857Y-92083000D01*
X163941095Y-92035380D01*
X164179190Y-92035380D01*
X164274428Y-92083000D01*
X164322047Y-92130619D01*
X164369666Y-92225857D01*
X164369666Y-92321095D01*
X164322047Y-92463952D01*
X163750619Y-93035380D01*
X164369666Y-93035380D01*
%TO.C,R12*%
X157472142Y-90589380D02*
X157138809Y-90113190D01*
X156900714Y-90589380D02*
X156900714Y-89589380D01*
X157281666Y-89589380D01*
X157376904Y-89637000D01*
X157424523Y-89684619D01*
X157472142Y-89779857D01*
X157472142Y-89922714D01*
X157424523Y-90017952D01*
X157376904Y-90065571D01*
X157281666Y-90113190D01*
X156900714Y-90113190D01*
X158424523Y-90589380D02*
X157853095Y-90589380D01*
X158138809Y-90589380D02*
X158138809Y-89589380D01*
X158043571Y-89732238D01*
X157948333Y-89827476D01*
X157853095Y-89875095D01*
X158805476Y-89684619D02*
X158853095Y-89637000D01*
X158948333Y-89589380D01*
X159186428Y-89589380D01*
X159281666Y-89637000D01*
X159329285Y-89684619D01*
X159376904Y-89779857D01*
X159376904Y-89875095D01*
X159329285Y-90017952D01*
X158757857Y-90589380D01*
X159376904Y-90589380D01*
%TO.C,C3*%
X154138333Y-112752142D02*
X154090714Y-112799761D01*
X153947857Y-112847380D01*
X153852619Y-112847380D01*
X153709761Y-112799761D01*
X153614523Y-112704523D01*
X153566904Y-112609285D01*
X153519285Y-112418809D01*
X153519285Y-112275952D01*
X153566904Y-112085476D01*
X153614523Y-111990238D01*
X153709761Y-111895000D01*
X153852619Y-111847380D01*
X153947857Y-111847380D01*
X154090714Y-111895000D01*
X154138333Y-111942619D01*
X154471666Y-111847380D02*
X155090714Y-111847380D01*
X154757380Y-112228333D01*
X154900238Y-112228333D01*
X154995476Y-112275952D01*
X155043095Y-112323571D01*
X155090714Y-112418809D01*
X155090714Y-112656904D01*
X155043095Y-112752142D01*
X154995476Y-112799761D01*
X154900238Y-112847380D01*
X154614523Y-112847380D01*
X154519285Y-112799761D01*
X154471666Y-112752142D01*
%TO.C,C2*%
X154399833Y-108307142D02*
X154352214Y-108354761D01*
X154209357Y-108402380D01*
X154114119Y-108402380D01*
X153971261Y-108354761D01*
X153876023Y-108259523D01*
X153828404Y-108164285D01*
X153780785Y-107973809D01*
X153780785Y-107830952D01*
X153828404Y-107640476D01*
X153876023Y-107545238D01*
X153971261Y-107450000D01*
X154114119Y-107402380D01*
X154209357Y-107402380D01*
X154352214Y-107450000D01*
X154399833Y-107497619D01*
X154780785Y-107497619D02*
X154828404Y-107450000D01*
X154923642Y-107402380D01*
X155161738Y-107402380D01*
X155256976Y-107450000D01*
X155304595Y-107497619D01*
X155352214Y-107592857D01*
X155352214Y-107688095D01*
X155304595Y-107830952D01*
X154733166Y-108402380D01*
X155352214Y-108402380D01*
%TO.C,R3*%
X128163580Y-81853066D02*
X127687390Y-82186400D01*
X128163580Y-82424495D02*
X127163580Y-82424495D01*
X127163580Y-82043542D01*
X127211200Y-81948304D01*
X127258819Y-81900685D01*
X127354057Y-81853066D01*
X127496914Y-81853066D01*
X127592152Y-81900685D01*
X127639771Y-81948304D01*
X127687390Y-82043542D01*
X127687390Y-82424495D01*
X127163580Y-81519733D02*
X127163580Y-80900685D01*
X127544533Y-81234019D01*
X127544533Y-81091161D01*
X127592152Y-80995923D01*
X127639771Y-80948304D01*
X127735009Y-80900685D01*
X127973104Y-80900685D01*
X128068342Y-80948304D01*
X128115961Y-80995923D01*
X128163580Y-81091161D01*
X128163580Y-81376876D01*
X128115961Y-81472114D01*
X128068342Y-81519733D01*
%TO.C,Q9*%
X156714761Y-101187619D02*
X156619523Y-101140000D01*
X156524285Y-101044761D01*
X156381428Y-100901904D01*
X156286190Y-100854285D01*
X156190952Y-100854285D01*
X156238571Y-101092380D02*
X156143333Y-101044761D01*
X156048095Y-100949523D01*
X156000476Y-100759047D01*
X156000476Y-100425714D01*
X156048095Y-100235238D01*
X156143333Y-100140000D01*
X156238571Y-100092380D01*
X156429047Y-100092380D01*
X156524285Y-100140000D01*
X156619523Y-100235238D01*
X156667142Y-100425714D01*
X156667142Y-100759047D01*
X156619523Y-100949523D01*
X156524285Y-101044761D01*
X156429047Y-101092380D01*
X156238571Y-101092380D01*
X157143333Y-101092380D02*
X157333809Y-101092380D01*
X157429047Y-101044761D01*
X157476666Y-100997142D01*
X157571904Y-100854285D01*
X157619523Y-100663809D01*
X157619523Y-100282857D01*
X157571904Y-100187619D01*
X157524285Y-100140000D01*
X157429047Y-100092380D01*
X157238571Y-100092380D01*
X157143333Y-100140000D01*
X157095714Y-100187619D01*
X157048095Y-100282857D01*
X157048095Y-100520952D01*
X157095714Y-100616190D01*
X157143333Y-100663809D01*
X157238571Y-100711428D01*
X157429047Y-100711428D01*
X157524285Y-100663809D01*
X157571904Y-100616190D01*
X157619523Y-100520952D01*
%TO.C,R11*%
X148801380Y-76713857D02*
X148325190Y-77047190D01*
X148801380Y-77285285D02*
X147801380Y-77285285D01*
X147801380Y-76904333D01*
X147849000Y-76809095D01*
X147896619Y-76761476D01*
X147991857Y-76713857D01*
X148134714Y-76713857D01*
X148229952Y-76761476D01*
X148277571Y-76809095D01*
X148325190Y-76904333D01*
X148325190Y-77285285D01*
X148801380Y-75761476D02*
X148801380Y-76332904D01*
X148801380Y-76047190D02*
X147801380Y-76047190D01*
X147944238Y-76142428D01*
X148039476Y-76237666D01*
X148087095Y-76332904D01*
X148801380Y-74809095D02*
X148801380Y-75380523D01*
X148801380Y-75094809D02*
X147801380Y-75094809D01*
X147944238Y-75190047D01*
X148039476Y-75285285D01*
X148087095Y-75380523D01*
%TO.C,R4*%
X129611380Y-75731666D02*
X129135190Y-76065000D01*
X129611380Y-76303095D02*
X128611380Y-76303095D01*
X128611380Y-75922142D01*
X128659000Y-75826904D01*
X128706619Y-75779285D01*
X128801857Y-75731666D01*
X128944714Y-75731666D01*
X129039952Y-75779285D01*
X129087571Y-75826904D01*
X129135190Y-75922142D01*
X129135190Y-76303095D01*
X128944714Y-74874523D02*
X129611380Y-74874523D01*
X128563761Y-75112619D02*
X129278047Y-75350714D01*
X129278047Y-74731666D01*
%TO.C,TP11*%
X140025380Y-105372095D02*
X140025380Y-104800666D01*
X141025380Y-105086380D02*
X140025380Y-105086380D01*
X141025380Y-104467333D02*
X140025380Y-104467333D01*
X140025380Y-104086380D01*
X140073000Y-103991142D01*
X140120619Y-103943523D01*
X140215857Y-103895904D01*
X140358714Y-103895904D01*
X140453952Y-103943523D01*
X140501571Y-103991142D01*
X140549190Y-104086380D01*
X140549190Y-104467333D01*
X141025380Y-102943523D02*
X141025380Y-103514952D01*
X141025380Y-103229238D02*
X140025380Y-103229238D01*
X140168238Y-103324476D01*
X140263476Y-103419714D01*
X140311095Y-103514952D01*
X141025380Y-101991142D02*
X141025380Y-102562571D01*
X141025380Y-102276857D02*
X140025380Y-102276857D01*
X140168238Y-102372095D01*
X140263476Y-102467333D01*
X140311095Y-102562571D01*
%TO.C,C15*%
X141724142Y-99036142D02*
X141676523Y-99083761D01*
X141533666Y-99131380D01*
X141438428Y-99131380D01*
X141295571Y-99083761D01*
X141200333Y-98988523D01*
X141152714Y-98893285D01*
X141105095Y-98702809D01*
X141105095Y-98559952D01*
X141152714Y-98369476D01*
X141200333Y-98274238D01*
X141295571Y-98179000D01*
X141438428Y-98131380D01*
X141533666Y-98131380D01*
X141676523Y-98179000D01*
X141724142Y-98226619D01*
X142676523Y-99131380D02*
X142105095Y-99131380D01*
X142390809Y-99131380D02*
X142390809Y-98131380D01*
X142295571Y-98274238D01*
X142200333Y-98369476D01*
X142105095Y-98417095D01*
X143581285Y-98131380D02*
X143105095Y-98131380D01*
X143057476Y-98607571D01*
X143105095Y-98559952D01*
X143200333Y-98512333D01*
X143438428Y-98512333D01*
X143533666Y-98559952D01*
X143581285Y-98607571D01*
X143628904Y-98702809D01*
X143628904Y-98940904D01*
X143581285Y-99036142D01*
X143533666Y-99083761D01*
X143438428Y-99131380D01*
X143200333Y-99131380D01*
X143105095Y-99083761D01*
X143057476Y-99036142D01*
%TO.C,SW1*%
X141501761Y-108013333D02*
X141549380Y-107870476D01*
X141549380Y-107632380D01*
X141501761Y-107537142D01*
X141454142Y-107489523D01*
X141358904Y-107441904D01*
X141263666Y-107441904D01*
X141168428Y-107489523D01*
X141120809Y-107537142D01*
X141073190Y-107632380D01*
X141025571Y-107822857D01*
X140977952Y-107918095D01*
X140930333Y-107965714D01*
X140835095Y-108013333D01*
X140739857Y-108013333D01*
X140644619Y-107965714D01*
X140597000Y-107918095D01*
X140549380Y-107822857D01*
X140549380Y-107584761D01*
X140597000Y-107441904D01*
X140549380Y-107108571D02*
X141549380Y-106870476D01*
X140835095Y-106680000D01*
X141549380Y-106489523D01*
X140549380Y-106251428D01*
X141549380Y-105346666D02*
X141549380Y-105918095D01*
X141549380Y-105632380D02*
X140549380Y-105632380D01*
X140692238Y-105727619D01*
X140787476Y-105822857D01*
X140835095Y-105918095D01*
%TO.C,U1*%
X150904880Y-111819904D02*
X151714404Y-111819904D01*
X151809642Y-111772285D01*
X151857261Y-111724666D01*
X151904880Y-111629428D01*
X151904880Y-111438952D01*
X151857261Y-111343714D01*
X151809642Y-111296095D01*
X151714404Y-111248476D01*
X150904880Y-111248476D01*
X151904880Y-110248476D02*
X151904880Y-110819904D01*
X151904880Y-110534190D02*
X150904880Y-110534190D01*
X151047738Y-110629428D01*
X151142976Y-110724666D01*
X151190595Y-110819904D01*
%TO.C,R18*%
X151836380Y-80906857D02*
X151360190Y-81240190D01*
X151836380Y-81478285D02*
X150836380Y-81478285D01*
X150836380Y-81097333D01*
X150884000Y-81002095D01*
X150931619Y-80954476D01*
X151026857Y-80906857D01*
X151169714Y-80906857D01*
X151264952Y-80954476D01*
X151312571Y-81002095D01*
X151360190Y-81097333D01*
X151360190Y-81478285D01*
X151836380Y-79954476D02*
X151836380Y-80525904D01*
X151836380Y-80240190D02*
X150836380Y-80240190D01*
X150979238Y-80335428D01*
X151074476Y-80430666D01*
X151122095Y-80525904D01*
X151264952Y-79383047D02*
X151217333Y-79478285D01*
X151169714Y-79525904D01*
X151074476Y-79573523D01*
X151026857Y-79573523D01*
X150931619Y-79525904D01*
X150884000Y-79478285D01*
X150836380Y-79383047D01*
X150836380Y-79192571D01*
X150884000Y-79097333D01*
X150931619Y-79049714D01*
X151026857Y-79002095D01*
X151074476Y-79002095D01*
X151169714Y-79049714D01*
X151217333Y-79097333D01*
X151264952Y-79192571D01*
X151264952Y-79383047D01*
X151312571Y-79478285D01*
X151360190Y-79525904D01*
X151455428Y-79573523D01*
X151645904Y-79573523D01*
X151741142Y-79525904D01*
X151788761Y-79478285D01*
X151836380Y-79383047D01*
X151836380Y-79192571D01*
X151788761Y-79097333D01*
X151741142Y-79049714D01*
X151645904Y-79002095D01*
X151455428Y-79002095D01*
X151360190Y-79049714D01*
X151312571Y-79097333D01*
X151264952Y-79192571D01*
%TO.C,C9*%
X130948133Y-88901542D02*
X130900514Y-88949161D01*
X130757657Y-88996780D01*
X130662419Y-88996780D01*
X130519561Y-88949161D01*
X130424323Y-88853923D01*
X130376704Y-88758685D01*
X130329085Y-88568209D01*
X130329085Y-88425352D01*
X130376704Y-88234876D01*
X130424323Y-88139638D01*
X130519561Y-88044400D01*
X130662419Y-87996780D01*
X130757657Y-87996780D01*
X130900514Y-88044400D01*
X130948133Y-88092019D01*
X131424323Y-88996780D02*
X131614800Y-88996780D01*
X131710038Y-88949161D01*
X131757657Y-88901542D01*
X131852895Y-88758685D01*
X131900514Y-88568209D01*
X131900514Y-88187257D01*
X131852895Y-88092019D01*
X131805276Y-88044400D01*
X131710038Y-87996780D01*
X131519561Y-87996780D01*
X131424323Y-88044400D01*
X131376704Y-88092019D01*
X131329085Y-88187257D01*
X131329085Y-88425352D01*
X131376704Y-88520590D01*
X131424323Y-88568209D01*
X131519561Y-88615828D01*
X131710038Y-88615828D01*
X131805276Y-88568209D01*
X131852895Y-88520590D01*
X131900514Y-88425352D01*
%TO.C,U5*%
X145988095Y-77935380D02*
X145988095Y-78744904D01*
X146035714Y-78840142D01*
X146083333Y-78887761D01*
X146178571Y-78935380D01*
X146369047Y-78935380D01*
X146464285Y-78887761D01*
X146511904Y-78840142D01*
X146559523Y-78744904D01*
X146559523Y-77935380D01*
X147511904Y-77935380D02*
X147035714Y-77935380D01*
X146988095Y-78411571D01*
X147035714Y-78363952D01*
X147130952Y-78316333D01*
X147369047Y-78316333D01*
X147464285Y-78363952D01*
X147511904Y-78411571D01*
X147559523Y-78506809D01*
X147559523Y-78744904D01*
X147511904Y-78840142D01*
X147464285Y-78887761D01*
X147369047Y-78935380D01*
X147130952Y-78935380D01*
X147035714Y-78887761D01*
X146988095Y-78840142D01*
%TO.C,R21*%
X154805142Y-106243380D02*
X154471809Y-105767190D01*
X154233714Y-106243380D02*
X154233714Y-105243380D01*
X154614666Y-105243380D01*
X154709904Y-105291000D01*
X154757523Y-105338619D01*
X154805142Y-105433857D01*
X154805142Y-105576714D01*
X154757523Y-105671952D01*
X154709904Y-105719571D01*
X154614666Y-105767190D01*
X154233714Y-105767190D01*
X155186095Y-105338619D02*
X155233714Y-105291000D01*
X155328952Y-105243380D01*
X155567047Y-105243380D01*
X155662285Y-105291000D01*
X155709904Y-105338619D01*
X155757523Y-105433857D01*
X155757523Y-105529095D01*
X155709904Y-105671952D01*
X155138476Y-106243380D01*
X155757523Y-106243380D01*
X156709904Y-106243380D02*
X156138476Y-106243380D01*
X156424190Y-106243380D02*
X156424190Y-105243380D01*
X156328952Y-105386238D01*
X156233714Y-105481476D01*
X156138476Y-105529095D01*
%TO.C,R9*%
X145250333Y-114371380D02*
X144917000Y-113895190D01*
X144678904Y-114371380D02*
X144678904Y-113371380D01*
X145059857Y-113371380D01*
X145155095Y-113419000D01*
X145202714Y-113466619D01*
X145250333Y-113561857D01*
X145250333Y-113704714D01*
X145202714Y-113799952D01*
X145155095Y-113847571D01*
X145059857Y-113895190D01*
X144678904Y-113895190D01*
X145726523Y-114371380D02*
X145917000Y-114371380D01*
X146012238Y-114323761D01*
X146059857Y-114276142D01*
X146155095Y-114133285D01*
X146202714Y-113942809D01*
X146202714Y-113561857D01*
X146155095Y-113466619D01*
X146107476Y-113419000D01*
X146012238Y-113371380D01*
X145821761Y-113371380D01*
X145726523Y-113419000D01*
X145678904Y-113466619D01*
X145631285Y-113561857D01*
X145631285Y-113799952D01*
X145678904Y-113895190D01*
X145726523Y-113942809D01*
X145821761Y-113990428D01*
X146012238Y-113990428D01*
X146107476Y-113942809D01*
X146155095Y-113895190D01*
X146202714Y-113799952D01*
%TO.C,R2*%
X147205880Y-109442666D02*
X146729690Y-109776000D01*
X147205880Y-110014095D02*
X146205880Y-110014095D01*
X146205880Y-109633142D01*
X146253500Y-109537904D01*
X146301119Y-109490285D01*
X146396357Y-109442666D01*
X146539214Y-109442666D01*
X146634452Y-109490285D01*
X146682071Y-109537904D01*
X146729690Y-109633142D01*
X146729690Y-110014095D01*
X146301119Y-109061714D02*
X146253500Y-109014095D01*
X146205880Y-108918857D01*
X146205880Y-108680761D01*
X146253500Y-108585523D01*
X146301119Y-108537904D01*
X146396357Y-108490285D01*
X146491595Y-108490285D01*
X146634452Y-108537904D01*
X147205880Y-109109333D01*
X147205880Y-108490285D01*
%TO.C,T1*%
X127722380Y-96773904D02*
X127722380Y-96202476D01*
X128722380Y-96488190D02*
X127722380Y-96488190D01*
X128722380Y-95345333D02*
X128722380Y-95916761D01*
X128722380Y-95631047D02*
X127722380Y-95631047D01*
X127865238Y-95726285D01*
X127960476Y-95821523D01*
X128008095Y-95916761D01*
%TO.C,R8*%
X140549333Y-81478380D02*
X140216000Y-81002190D01*
X139977904Y-81478380D02*
X139977904Y-80478380D01*
X140358857Y-80478380D01*
X140454095Y-80526000D01*
X140501714Y-80573619D01*
X140549333Y-80668857D01*
X140549333Y-80811714D01*
X140501714Y-80906952D01*
X140454095Y-80954571D01*
X140358857Y-81002190D01*
X139977904Y-81002190D01*
X141120761Y-80906952D02*
X141025523Y-80859333D01*
X140977904Y-80811714D01*
X140930285Y-80716476D01*
X140930285Y-80668857D01*
X140977904Y-80573619D01*
X141025523Y-80526000D01*
X141120761Y-80478380D01*
X141311238Y-80478380D01*
X141406476Y-80526000D01*
X141454095Y-80573619D01*
X141501714Y-80668857D01*
X141501714Y-80716476D01*
X141454095Y-80811714D01*
X141406476Y-80859333D01*
X141311238Y-80906952D01*
X141120761Y-80906952D01*
X141025523Y-80954571D01*
X140977904Y-81002190D01*
X140930285Y-81097428D01*
X140930285Y-81287904D01*
X140977904Y-81383142D01*
X141025523Y-81430761D01*
X141120761Y-81478380D01*
X141311238Y-81478380D01*
X141406476Y-81430761D01*
X141454095Y-81383142D01*
X141501714Y-81287904D01*
X141501714Y-81097428D01*
X141454095Y-81002190D01*
X141406476Y-80954571D01*
X141311238Y-80906952D01*
%TO.C,R5*%
X128265180Y-84647066D02*
X127788990Y-84980400D01*
X128265180Y-85218495D02*
X127265180Y-85218495D01*
X127265180Y-84837542D01*
X127312800Y-84742304D01*
X127360419Y-84694685D01*
X127455657Y-84647066D01*
X127598514Y-84647066D01*
X127693752Y-84694685D01*
X127741371Y-84742304D01*
X127788990Y-84837542D01*
X127788990Y-85218495D01*
X127265180Y-83742304D02*
X127265180Y-84218495D01*
X127741371Y-84266114D01*
X127693752Y-84218495D01*
X127646133Y-84123257D01*
X127646133Y-83885161D01*
X127693752Y-83789923D01*
X127741371Y-83742304D01*
X127836609Y-83694685D01*
X128074704Y-83694685D01*
X128169942Y-83742304D01*
X128217561Y-83789923D01*
X128265180Y-83885161D01*
X128265180Y-84123257D01*
X128217561Y-84218495D01*
X128169942Y-84266114D01*
%TO.C,Q1*%
X133129761Y-117562619D02*
X133034523Y-117515000D01*
X132939285Y-117419761D01*
X132796428Y-117276904D01*
X132701190Y-117229285D01*
X132605952Y-117229285D01*
X132653571Y-117467380D02*
X132558333Y-117419761D01*
X132463095Y-117324523D01*
X132415476Y-117134047D01*
X132415476Y-116800714D01*
X132463095Y-116610238D01*
X132558333Y-116515000D01*
X132653571Y-116467380D01*
X132844047Y-116467380D01*
X132939285Y-116515000D01*
X133034523Y-116610238D01*
X133082142Y-116800714D01*
X133082142Y-117134047D01*
X133034523Y-117324523D01*
X132939285Y-117419761D01*
X132844047Y-117467380D01*
X132653571Y-117467380D01*
X134034523Y-117467380D02*
X133463095Y-117467380D01*
X133748809Y-117467380D02*
X133748809Y-116467380D01*
X133653571Y-116610238D01*
X133558333Y-116705476D01*
X133463095Y-116753095D01*
%TO.C,C6*%
X121499333Y-78081142D02*
X121451714Y-78128761D01*
X121308857Y-78176380D01*
X121213619Y-78176380D01*
X121070761Y-78128761D01*
X120975523Y-78033523D01*
X120927904Y-77938285D01*
X120880285Y-77747809D01*
X120880285Y-77604952D01*
X120927904Y-77414476D01*
X120975523Y-77319238D01*
X121070761Y-77224000D01*
X121213619Y-77176380D01*
X121308857Y-77176380D01*
X121451714Y-77224000D01*
X121499333Y-77271619D01*
X122356476Y-77176380D02*
X122166000Y-77176380D01*
X122070761Y-77224000D01*
X122023142Y-77271619D01*
X121927904Y-77414476D01*
X121880285Y-77604952D01*
X121880285Y-77985904D01*
X121927904Y-78081142D01*
X121975523Y-78128761D01*
X122070761Y-78176380D01*
X122261238Y-78176380D01*
X122356476Y-78128761D01*
X122404095Y-78081142D01*
X122451714Y-77985904D01*
X122451714Y-77747809D01*
X122404095Y-77652571D01*
X122356476Y-77604952D01*
X122261238Y-77557333D01*
X122070761Y-77557333D01*
X121975523Y-77604952D01*
X121927904Y-77652571D01*
X121880285Y-77747809D01*
%TO.C,C16*%
X141965142Y-104149142D02*
X141917523Y-104196761D01*
X141774666Y-104244380D01*
X141679428Y-104244380D01*
X141536571Y-104196761D01*
X141441333Y-104101523D01*
X141393714Y-104006285D01*
X141346095Y-103815809D01*
X141346095Y-103672952D01*
X141393714Y-103482476D01*
X141441333Y-103387238D01*
X141536571Y-103292000D01*
X141679428Y-103244380D01*
X141774666Y-103244380D01*
X141917523Y-103292000D01*
X141965142Y-103339619D01*
X142917523Y-104244380D02*
X142346095Y-104244380D01*
X142631809Y-104244380D02*
X142631809Y-103244380D01*
X142536571Y-103387238D01*
X142441333Y-103482476D01*
X142346095Y-103530095D01*
X143774666Y-103244380D02*
X143584190Y-103244380D01*
X143488952Y-103292000D01*
X143441333Y-103339619D01*
X143346095Y-103482476D01*
X143298476Y-103672952D01*
X143298476Y-104053904D01*
X143346095Y-104149142D01*
X143393714Y-104196761D01*
X143488952Y-104244380D01*
X143679428Y-104244380D01*
X143774666Y-104196761D01*
X143822285Y-104149142D01*
X143869904Y-104053904D01*
X143869904Y-103815809D01*
X143822285Y-103720571D01*
X143774666Y-103672952D01*
X143679428Y-103625333D01*
X143488952Y-103625333D01*
X143393714Y-103672952D01*
X143346095Y-103720571D01*
X143298476Y-103815809D01*
%TO.C,R13*%
X145626380Y-76713857D02*
X145150190Y-77047190D01*
X145626380Y-77285285D02*
X144626380Y-77285285D01*
X144626380Y-76904333D01*
X144674000Y-76809095D01*
X144721619Y-76761476D01*
X144816857Y-76713857D01*
X144959714Y-76713857D01*
X145054952Y-76761476D01*
X145102571Y-76809095D01*
X145150190Y-76904333D01*
X145150190Y-77285285D01*
X145626380Y-75761476D02*
X145626380Y-76332904D01*
X145626380Y-76047190D02*
X144626380Y-76047190D01*
X144769238Y-76142428D01*
X144864476Y-76237666D01*
X144912095Y-76332904D01*
X144626380Y-75428142D02*
X144626380Y-74809095D01*
X145007333Y-75142428D01*
X145007333Y-74999571D01*
X145054952Y-74904333D01*
X145102571Y-74856714D01*
X145197809Y-74809095D01*
X145435904Y-74809095D01*
X145531142Y-74856714D01*
X145578761Y-74904333D01*
X145626380Y-74999571D01*
X145626380Y-75285285D01*
X145578761Y-75380523D01*
X145531142Y-75428142D01*
%TO.C,C8*%
X127341333Y-86869542D02*
X127293714Y-86917161D01*
X127150857Y-86964780D01*
X127055619Y-86964780D01*
X126912761Y-86917161D01*
X126817523Y-86821923D01*
X126769904Y-86726685D01*
X126722285Y-86536209D01*
X126722285Y-86393352D01*
X126769904Y-86202876D01*
X126817523Y-86107638D01*
X126912761Y-86012400D01*
X127055619Y-85964780D01*
X127150857Y-85964780D01*
X127293714Y-86012400D01*
X127341333Y-86060019D01*
X127912761Y-86393352D02*
X127817523Y-86345733D01*
X127769904Y-86298114D01*
X127722285Y-86202876D01*
X127722285Y-86155257D01*
X127769904Y-86060019D01*
X127817523Y-86012400D01*
X127912761Y-85964780D01*
X128103238Y-85964780D01*
X128198476Y-86012400D01*
X128246095Y-86060019D01*
X128293714Y-86155257D01*
X128293714Y-86202876D01*
X128246095Y-86298114D01*
X128198476Y-86345733D01*
X128103238Y-86393352D01*
X127912761Y-86393352D01*
X127817523Y-86440971D01*
X127769904Y-86488590D01*
X127722285Y-86583828D01*
X127722285Y-86774304D01*
X127769904Y-86869542D01*
X127817523Y-86917161D01*
X127912761Y-86964780D01*
X128103238Y-86964780D01*
X128198476Y-86917161D01*
X128246095Y-86869542D01*
X128293714Y-86774304D01*
X128293714Y-86583828D01*
X128246095Y-86488590D01*
X128198476Y-86440971D01*
X128103238Y-86393352D01*
%TO.C,D3*%
X143517904Y-101419380D02*
X143517904Y-100419380D01*
X143756000Y-100419380D01*
X143898857Y-100467000D01*
X143994095Y-100562238D01*
X144041714Y-100657476D01*
X144089333Y-100847952D01*
X144089333Y-100990809D01*
X144041714Y-101181285D01*
X143994095Y-101276523D01*
X143898857Y-101371761D01*
X143756000Y-101419380D01*
X143517904Y-101419380D01*
X144422666Y-100419380D02*
X145041714Y-100419380D01*
X144708380Y-100800333D01*
X144851238Y-100800333D01*
X144946476Y-100847952D01*
X144994095Y-100895571D01*
X145041714Y-100990809D01*
X145041714Y-101228904D01*
X144994095Y-101324142D01*
X144946476Y-101371761D01*
X144851238Y-101419380D01*
X144565523Y-101419380D01*
X144470285Y-101371761D01*
X144422666Y-101324142D01*
%TO.C,R6*%
X131770380Y-77509666D02*
X131294190Y-77843000D01*
X131770380Y-78081095D02*
X130770380Y-78081095D01*
X130770380Y-77700142D01*
X130818000Y-77604904D01*
X130865619Y-77557285D01*
X130960857Y-77509666D01*
X131103714Y-77509666D01*
X131198952Y-77557285D01*
X131246571Y-77604904D01*
X131294190Y-77700142D01*
X131294190Y-78081095D01*
X130770380Y-76652523D02*
X130770380Y-76843000D01*
X130818000Y-76938238D01*
X130865619Y-76985857D01*
X131008476Y-77081095D01*
X131198952Y-77128714D01*
X131579904Y-77128714D01*
X131675142Y-77081095D01*
X131722761Y-77033476D01*
X131770380Y-76938238D01*
X131770380Y-76747761D01*
X131722761Y-76652523D01*
X131675142Y-76604904D01*
X131579904Y-76557285D01*
X131341809Y-76557285D01*
X131246571Y-76604904D01*
X131198952Y-76652523D01*
X131151333Y-76747761D01*
X131151333Y-76938238D01*
X131198952Y-77033476D01*
X131246571Y-77081095D01*
X131341809Y-77128714D01*
%TO.C,C5*%
X125690333Y-88342742D02*
X125642714Y-88390361D01*
X125499857Y-88437980D01*
X125404619Y-88437980D01*
X125261761Y-88390361D01*
X125166523Y-88295123D01*
X125118904Y-88199885D01*
X125071285Y-88009409D01*
X125071285Y-87866552D01*
X125118904Y-87676076D01*
X125166523Y-87580838D01*
X125261761Y-87485600D01*
X125404619Y-87437980D01*
X125499857Y-87437980D01*
X125642714Y-87485600D01*
X125690333Y-87533219D01*
X126595095Y-87437980D02*
X126118904Y-87437980D01*
X126071285Y-87914171D01*
X126118904Y-87866552D01*
X126214142Y-87818933D01*
X126452238Y-87818933D01*
X126547476Y-87866552D01*
X126595095Y-87914171D01*
X126642714Y-88009409D01*
X126642714Y-88247504D01*
X126595095Y-88342742D01*
X126547476Y-88390361D01*
X126452238Y-88437980D01*
X126214142Y-88437980D01*
X126118904Y-88390361D01*
X126071285Y-88342742D01*
%TO.C,J4*%
X140509666Y-119004380D02*
X140509666Y-119718666D01*
X140462047Y-119861523D01*
X140366809Y-119956761D01*
X140223952Y-120004380D01*
X140128714Y-120004380D01*
X141414428Y-119337714D02*
X141414428Y-120004380D01*
X141176333Y-118956761D02*
X140938238Y-119671047D01*
X141557285Y-119671047D01*
%TO.C,C10*%
X138422142Y-71592142D02*
X138374523Y-71639761D01*
X138231666Y-71687380D01*
X138136428Y-71687380D01*
X137993571Y-71639761D01*
X137898333Y-71544523D01*
X137850714Y-71449285D01*
X137803095Y-71258809D01*
X137803095Y-71115952D01*
X137850714Y-70925476D01*
X137898333Y-70830238D01*
X137993571Y-70735000D01*
X138136428Y-70687380D01*
X138231666Y-70687380D01*
X138374523Y-70735000D01*
X138422142Y-70782619D01*
X139374523Y-71687380D02*
X138803095Y-71687380D01*
X139088809Y-71687380D02*
X139088809Y-70687380D01*
X138993571Y-70830238D01*
X138898333Y-70925476D01*
X138803095Y-70973095D01*
X139993571Y-70687380D02*
X140088809Y-70687380D01*
X140184047Y-70735000D01*
X140231666Y-70782619D01*
X140279285Y-70877857D01*
X140326904Y-71068333D01*
X140326904Y-71306428D01*
X140279285Y-71496904D01*
X140231666Y-71592142D01*
X140184047Y-71639761D01*
X140088809Y-71687380D01*
X139993571Y-71687380D01*
X139898333Y-71639761D01*
X139850714Y-71592142D01*
X139803095Y-71496904D01*
X139755476Y-71306428D01*
X139755476Y-71068333D01*
X139803095Y-70877857D01*
X139850714Y-70782619D01*
X139898333Y-70735000D01*
X139993571Y-70687380D01*
%TO.C,U4*%
X135596380Y-98678904D02*
X136405904Y-98678904D01*
X136501142Y-98631285D01*
X136548761Y-98583666D01*
X136596380Y-98488428D01*
X136596380Y-98297952D01*
X136548761Y-98202714D01*
X136501142Y-98155095D01*
X136405904Y-98107476D01*
X135596380Y-98107476D01*
X135929714Y-97202714D02*
X136596380Y-97202714D01*
X135548761Y-97440809D02*
X136263047Y-97678904D01*
X136263047Y-97059857D01*
%TO.C,C12*%
X134866142Y-81891142D02*
X134818523Y-81938761D01*
X134675666Y-81986380D01*
X134580428Y-81986380D01*
X134437571Y-81938761D01*
X134342333Y-81843523D01*
X134294714Y-81748285D01*
X134247095Y-81557809D01*
X134247095Y-81414952D01*
X134294714Y-81224476D01*
X134342333Y-81129238D01*
X134437571Y-81034000D01*
X134580428Y-80986380D01*
X134675666Y-80986380D01*
X134818523Y-81034000D01*
X134866142Y-81081619D01*
X135818523Y-81986380D02*
X135247095Y-81986380D01*
X135532809Y-81986380D02*
X135532809Y-80986380D01*
X135437571Y-81129238D01*
X135342333Y-81224476D01*
X135247095Y-81272095D01*
X136199476Y-81081619D02*
X136247095Y-81034000D01*
X136342333Y-80986380D01*
X136580428Y-80986380D01*
X136675666Y-81034000D01*
X136723285Y-81081619D01*
X136770904Y-81176857D01*
X136770904Y-81272095D01*
X136723285Y-81414952D01*
X136151857Y-81986380D01*
X136770904Y-81986380D01*
%TO.C,C13*%
X143502142Y-90781142D02*
X143454523Y-90828761D01*
X143311666Y-90876380D01*
X143216428Y-90876380D01*
X143073571Y-90828761D01*
X142978333Y-90733523D01*
X142930714Y-90638285D01*
X142883095Y-90447809D01*
X142883095Y-90304952D01*
X142930714Y-90114476D01*
X142978333Y-90019238D01*
X143073571Y-89924000D01*
X143216428Y-89876380D01*
X143311666Y-89876380D01*
X143454523Y-89924000D01*
X143502142Y-89971619D01*
X144454523Y-90876380D02*
X143883095Y-90876380D01*
X144168809Y-90876380D02*
X144168809Y-89876380D01*
X144073571Y-90019238D01*
X143978333Y-90114476D01*
X143883095Y-90162095D01*
X144787857Y-89876380D02*
X145406904Y-89876380D01*
X145073571Y-90257333D01*
X145216428Y-90257333D01*
X145311666Y-90304952D01*
X145359285Y-90352571D01*
X145406904Y-90447809D01*
X145406904Y-90685904D01*
X145359285Y-90781142D01*
X145311666Y-90828761D01*
X145216428Y-90876380D01*
X144930714Y-90876380D01*
X144835476Y-90828761D01*
X144787857Y-90781142D01*
%TO.C,TP2*%
X150376095Y-86320380D02*
X150947523Y-86320380D01*
X150661809Y-87320380D02*
X150661809Y-86320380D01*
X151280857Y-87320380D02*
X151280857Y-86320380D01*
X151661809Y-86320380D01*
X151757047Y-86368000D01*
X151804666Y-86415619D01*
X151852285Y-86510857D01*
X151852285Y-86653714D01*
X151804666Y-86748952D01*
X151757047Y-86796571D01*
X151661809Y-86844190D01*
X151280857Y-86844190D01*
X152233238Y-86415619D02*
X152280857Y-86368000D01*
X152376095Y-86320380D01*
X152614190Y-86320380D01*
X152709428Y-86368000D01*
X152757047Y-86415619D01*
X152804666Y-86510857D01*
X152804666Y-86606095D01*
X152757047Y-86748952D01*
X152185619Y-87320380D01*
X152804666Y-87320380D01*
%TO.C,TP10*%
X141438380Y-87590095D02*
X141438380Y-87018666D01*
X142438380Y-87304380D02*
X141438380Y-87304380D01*
X142438380Y-86685333D02*
X141438380Y-86685333D01*
X141438380Y-86304380D01*
X141486000Y-86209142D01*
X141533619Y-86161523D01*
X141628857Y-86113904D01*
X141771714Y-86113904D01*
X141866952Y-86161523D01*
X141914571Y-86209142D01*
X141962190Y-86304380D01*
X141962190Y-86685333D01*
X142438380Y-85161523D02*
X142438380Y-85732952D01*
X142438380Y-85447238D02*
X141438380Y-85447238D01*
X141581238Y-85542476D01*
X141676476Y-85637714D01*
X141724095Y-85732952D01*
X141438380Y-84542476D02*
X141438380Y-84447238D01*
X141486000Y-84352000D01*
X141533619Y-84304380D01*
X141628857Y-84256761D01*
X141819333Y-84209142D01*
X142057428Y-84209142D01*
X142247904Y-84256761D01*
X142343142Y-84304380D01*
X142390761Y-84352000D01*
X142438380Y-84447238D01*
X142438380Y-84542476D01*
X142390761Y-84637714D01*
X142343142Y-84685333D01*
X142247904Y-84732952D01*
X142057428Y-84780571D01*
X141819333Y-84780571D01*
X141628857Y-84732952D01*
X141533619Y-84685333D01*
X141486000Y-84637714D01*
X141438380Y-84542476D01*
%TO.C,C4*%
X131118333Y-105132142D02*
X131070714Y-105179761D01*
X130927857Y-105227380D01*
X130832619Y-105227380D01*
X130689761Y-105179761D01*
X130594523Y-105084523D01*
X130546904Y-104989285D01*
X130499285Y-104798809D01*
X130499285Y-104655952D01*
X130546904Y-104465476D01*
X130594523Y-104370238D01*
X130689761Y-104275000D01*
X130832619Y-104227380D01*
X130927857Y-104227380D01*
X131070714Y-104275000D01*
X131118333Y-104322619D01*
X131975476Y-104560714D02*
X131975476Y-105227380D01*
X131737380Y-104179761D02*
X131499285Y-104894047D01*
X132118333Y-104894047D01*
%TO.C,D1*%
X134326404Y-89606380D02*
X134326404Y-88606380D01*
X134564500Y-88606380D01*
X134707357Y-88654000D01*
X134802595Y-88749238D01*
X134850214Y-88844476D01*
X134897833Y-89034952D01*
X134897833Y-89177809D01*
X134850214Y-89368285D01*
X134802595Y-89463523D01*
X134707357Y-89558761D01*
X134564500Y-89606380D01*
X134326404Y-89606380D01*
X135850214Y-89606380D02*
X135278785Y-89606380D01*
X135564500Y-89606380D02*
X135564500Y-88606380D01*
X135469261Y-88749238D01*
X135374023Y-88844476D01*
X135278785Y-88892095D01*
%TO.C,R10*%
X153281142Y-82113380D02*
X152947809Y-81637190D01*
X152709714Y-82113380D02*
X152709714Y-81113380D01*
X153090666Y-81113380D01*
X153185904Y-81161000D01*
X153233523Y-81208619D01*
X153281142Y-81303857D01*
X153281142Y-81446714D01*
X153233523Y-81541952D01*
X153185904Y-81589571D01*
X153090666Y-81637190D01*
X152709714Y-81637190D01*
X154233523Y-82113380D02*
X153662095Y-82113380D01*
X153947809Y-82113380D02*
X153947809Y-81113380D01*
X153852571Y-81256238D01*
X153757333Y-81351476D01*
X153662095Y-81399095D01*
X154852571Y-81113380D02*
X154947809Y-81113380D01*
X155043047Y-81161000D01*
X155090666Y-81208619D01*
X155138285Y-81303857D01*
X155185904Y-81494333D01*
X155185904Y-81732428D01*
X155138285Y-81922904D01*
X155090666Y-82018142D01*
X155043047Y-82065761D01*
X154947809Y-82113380D01*
X154852571Y-82113380D01*
X154757333Y-82065761D01*
X154709714Y-82018142D01*
X154662095Y-81922904D01*
X154614476Y-81732428D01*
X154614476Y-81494333D01*
X154662095Y-81303857D01*
X154709714Y-81208619D01*
X154757333Y-81161000D01*
X154852571Y-81113380D01*
%TO.C,TP3*%
X152329095Y-114135380D02*
X152900523Y-114135380D01*
X152614809Y-115135380D02*
X152614809Y-114135380D01*
X153233857Y-115135380D02*
X153233857Y-114135380D01*
X153614809Y-114135380D01*
X153710047Y-114183000D01*
X153757666Y-114230619D01*
X153805285Y-114325857D01*
X153805285Y-114468714D01*
X153757666Y-114563952D01*
X153710047Y-114611571D01*
X153614809Y-114659190D01*
X153233857Y-114659190D01*
X154138619Y-114135380D02*
X154757666Y-114135380D01*
X154424333Y-114516333D01*
X154567190Y-114516333D01*
X154662428Y-114563952D01*
X154710047Y-114611571D01*
X154757666Y-114706809D01*
X154757666Y-114944904D01*
X154710047Y-115040142D01*
X154662428Y-115087761D01*
X154567190Y-115135380D01*
X154281476Y-115135380D01*
X154186238Y-115087761D01*
X154138619Y-115040142D01*
%TO.C,D4*%
X135151904Y-114117380D02*
X135151904Y-113117380D01*
X135390000Y-113117380D01*
X135532857Y-113165000D01*
X135628095Y-113260238D01*
X135675714Y-113355476D01*
X135723333Y-113545952D01*
X135723333Y-113688809D01*
X135675714Y-113879285D01*
X135628095Y-113974523D01*
X135532857Y-114069761D01*
X135390000Y-114117380D01*
X135151904Y-114117380D01*
X136580476Y-113450714D02*
X136580476Y-114117380D01*
X136342380Y-113069761D02*
X136104285Y-113784047D01*
X136723333Y-113784047D01*
%TO.C,R15*%
X156898642Y-96978380D02*
X156565309Y-96502190D01*
X156327214Y-96978380D02*
X156327214Y-95978380D01*
X156708166Y-95978380D01*
X156803404Y-96026000D01*
X156851023Y-96073619D01*
X156898642Y-96168857D01*
X156898642Y-96311714D01*
X156851023Y-96406952D01*
X156803404Y-96454571D01*
X156708166Y-96502190D01*
X156327214Y-96502190D01*
X157851023Y-96978380D02*
X157279595Y-96978380D01*
X157565309Y-96978380D02*
X157565309Y-95978380D01*
X157470071Y-96121238D01*
X157374833Y-96216476D01*
X157279595Y-96264095D01*
X158755785Y-95978380D02*
X158279595Y-95978380D01*
X158231976Y-96454571D01*
X158279595Y-96406952D01*
X158374833Y-96359333D01*
X158612928Y-96359333D01*
X158708166Y-96406952D01*
X158755785Y-96454571D01*
X158803404Y-96549809D01*
X158803404Y-96787904D01*
X158755785Y-96883142D01*
X158708166Y-96930761D01*
X158612928Y-96978380D01*
X158374833Y-96978380D01*
X158279595Y-96930761D01*
X158231976Y-96883142D01*
%TO.C,F1*%
X151366166Y-74229571D02*
X151032833Y-74229571D01*
X151032833Y-74753380D02*
X151032833Y-73753380D01*
X151509023Y-73753380D01*
X152413785Y-74753380D02*
X151842357Y-74753380D01*
X152128071Y-74753380D02*
X152128071Y-73753380D01*
X152032833Y-73896238D01*
X151937595Y-73991476D01*
X151842357Y-74039095D01*
%TO.C,TP15*%
X145835904Y-94778380D02*
X146407333Y-94778380D01*
X146121619Y-95778380D02*
X146121619Y-94778380D01*
X146740666Y-95778380D02*
X146740666Y-94778380D01*
X147121619Y-94778380D01*
X147216857Y-94826000D01*
X147264476Y-94873619D01*
X147312095Y-94968857D01*
X147312095Y-95111714D01*
X147264476Y-95206952D01*
X147216857Y-95254571D01*
X147121619Y-95302190D01*
X146740666Y-95302190D01*
X148264476Y-95778380D02*
X147693047Y-95778380D01*
X147978761Y-95778380D02*
X147978761Y-94778380D01*
X147883523Y-94921238D01*
X147788285Y-95016476D01*
X147693047Y-95064095D01*
X149169238Y-94778380D02*
X148693047Y-94778380D01*
X148645428Y-95254571D01*
X148693047Y-95206952D01*
X148788285Y-95159333D01*
X149026380Y-95159333D01*
X149121619Y-95206952D01*
X149169238Y-95254571D01*
X149216857Y-95349809D01*
X149216857Y-95587904D01*
X149169238Y-95683142D01*
X149121619Y-95730761D01*
X149026380Y-95778380D01*
X148788285Y-95778380D01*
X148693047Y-95730761D01*
X148645428Y-95683142D01*
%TO.C,C1*%
X154807916Y-91245666D02*
X154855535Y-91293285D01*
X154903154Y-91436142D01*
X154903154Y-91531380D01*
X154855535Y-91674238D01*
X154760297Y-91769476D01*
X154665059Y-91817095D01*
X154474583Y-91864714D01*
X154331726Y-91864714D01*
X154141250Y-91817095D01*
X154046012Y-91769476D01*
X153950774Y-91674238D01*
X153903154Y-91531380D01*
X153903154Y-91436142D01*
X153950774Y-91293285D01*
X153998393Y-91245666D01*
X154903154Y-90293285D02*
X154903154Y-90864714D01*
X154903154Y-90579000D02*
X153903154Y-90579000D01*
X154046012Y-90674238D01*
X154141250Y-90769476D01*
X154188869Y-90864714D01*
%TO.C,D2*%
X148232904Y-72842380D02*
X148232904Y-71842380D01*
X148471000Y-71842380D01*
X148613857Y-71890000D01*
X148709095Y-71985238D01*
X148756714Y-72080476D01*
X148804333Y-72270952D01*
X148804333Y-72413809D01*
X148756714Y-72604285D01*
X148709095Y-72699523D01*
X148613857Y-72794761D01*
X148471000Y-72842380D01*
X148232904Y-72842380D01*
X149185285Y-71937619D02*
X149232904Y-71890000D01*
X149328142Y-71842380D01*
X149566238Y-71842380D01*
X149661476Y-71890000D01*
X149709095Y-71937619D01*
X149756714Y-72032857D01*
X149756714Y-72128095D01*
X149709095Y-72270952D01*
X149137666Y-72842380D01*
X149756714Y-72842380D01*
%TO.C,TP12*%
X152312904Y-73366380D02*
X152884333Y-73366380D01*
X152598619Y-74366380D02*
X152598619Y-73366380D01*
X153217666Y-74366380D02*
X153217666Y-73366380D01*
X153598619Y-73366380D01*
X153693857Y-73414000D01*
X153741476Y-73461619D01*
X153789095Y-73556857D01*
X153789095Y-73699714D01*
X153741476Y-73794952D01*
X153693857Y-73842571D01*
X153598619Y-73890190D01*
X153217666Y-73890190D01*
X154741476Y-74366380D02*
X154170047Y-74366380D01*
X154455761Y-74366380D02*
X154455761Y-73366380D01*
X154360523Y-73509238D01*
X154265285Y-73604476D01*
X154170047Y-73652095D01*
X155122428Y-73461619D02*
X155170047Y-73414000D01*
X155265285Y-73366380D01*
X155503380Y-73366380D01*
X155598619Y-73414000D01*
X155646238Y-73461619D01*
X155693857Y-73556857D01*
X155693857Y-73652095D01*
X155646238Y-73794952D01*
X155074809Y-74366380D01*
X155693857Y-74366380D01*
D12*
%TO.C,R14*%
X157877742Y-89579500D02*
X158352258Y-89579500D01*
X157877742Y-88534500D02*
X158352258Y-88534500D01*
%TO.C,J3*%
X158795000Y-110430000D02*
X164765000Y-110430000D01*
X164005000Y-110420000D02*
X164755000Y-110420000D01*
X158795000Y-100310000D02*
X158795000Y-110430000D01*
X162505000Y-110420000D02*
X162505000Y-109670000D01*
X164755000Y-110420000D02*
X164755000Y-108620000D01*
X164765000Y-110430000D02*
X164765000Y-100310000D01*
X164765000Y-100310000D02*
X158795000Y-100310000D01*
X164755000Y-107120000D02*
X164755000Y-103620000D01*
X165055000Y-101270000D02*
X165055000Y-100020000D01*
X159555000Y-101070000D02*
X159555000Y-105370000D01*
X164005000Y-108620000D02*
X164005000Y-110420000D01*
X164005000Y-102120000D02*
X164755000Y-102120000D01*
X165055000Y-100020000D02*
X163805000Y-100020000D01*
X164005000Y-100320000D02*
X164005000Y-102120000D01*
X164755000Y-103620000D02*
X164005000Y-103620000D01*
X164755000Y-100320000D02*
X164005000Y-100320000D01*
X162505000Y-100320000D02*
X162505000Y-101070000D01*
X164005000Y-107120000D02*
X164755000Y-107120000D01*
X159555000Y-109670000D02*
X159555000Y-105370000D01*
X162505000Y-101070000D02*
X159555000Y-101070000D01*
X164005000Y-103620000D02*
X164005000Y-107120000D01*
X162505000Y-109670000D02*
X159555000Y-109670000D01*
X164755000Y-102120000D02*
X164755000Y-100320000D01*
X164755000Y-108620000D02*
X164005000Y-108620000D01*
%TO.C,U2*%
X149547500Y-107200000D02*
X147347500Y-107200000D01*
X149547500Y-100430000D02*
X151747500Y-100430000D01*
X149547500Y-107200000D02*
X151747500Y-107200000D01*
X149547500Y-100430000D02*
X145947500Y-100430000D01*
%TO.C,R16*%
X155087359Y-77775000D02*
X155394641Y-77775000D01*
X155087359Y-77015000D02*
X155394641Y-77015000D01*
%TO.C,J1*%
X122760000Y-118461000D02*
X122760000Y-116661000D01*
X124260000Y-111611000D02*
X127210000Y-111611000D01*
X124260000Y-110861000D02*
X124260000Y-111611000D01*
X122760000Y-112661000D02*
X122760000Y-110861000D01*
X121710000Y-118761000D02*
X122960000Y-118761000D01*
X127210000Y-117711000D02*
X127210000Y-114661000D01*
X127970000Y-118471000D02*
X127970000Y-110851000D01*
X122760000Y-110861000D02*
X122010000Y-110861000D01*
X122010000Y-118461000D02*
X122760000Y-118461000D01*
X122760000Y-114161000D02*
X122010000Y-114161000D01*
X121710000Y-117511000D02*
X121710000Y-118761000D01*
X122010000Y-110861000D02*
X122010000Y-112661000D01*
X122010000Y-115161000D02*
X122760000Y-115161000D01*
X122010000Y-112661000D02*
X122760000Y-112661000D01*
X122760000Y-116661000D02*
X122010000Y-116661000D01*
X122000000Y-110851000D02*
X122000000Y-118471000D01*
X127970000Y-110851000D02*
X122000000Y-110851000D01*
X124260000Y-117711000D02*
X127210000Y-117711000D01*
X124260000Y-118461000D02*
X124260000Y-117711000D01*
X122000000Y-118471000D02*
X127970000Y-118471000D01*
X127210000Y-111611000D02*
X127210000Y-114661000D01*
X122010000Y-116661000D02*
X122010000Y-118461000D01*
X122010000Y-114161000D02*
X122010000Y-115161000D01*
X122760000Y-115161000D02*
X122760000Y-114161000D01*
%TO.C,TP1*%
X155176000Y-119763000D02*
G75*
G03*
X155176000Y-119763000I-950000J0D01*
G01*
%TO.C,R7*%
X138458641Y-83059000D02*
X138151359Y-83059000D01*
X138458641Y-83819000D02*
X138151359Y-83819000D01*
%TO.C,R1*%
X133196359Y-112140000D02*
X133503641Y-112140000D01*
X133196359Y-111380000D02*
X133503641Y-111380000D01*
%TO.C,SW2*%
X145034000Y-122673000D02*
X145010000Y-118373000D01*
X154710000Y-122673000D02*
X145034000Y-122673000D01*
X145010000Y-118373000D02*
X154710000Y-118373000D01*
X154710000Y-118373000D02*
X154710000Y-122673000D01*
X147574000Y-120015000D02*
X148844000Y-120015000D01*
X148844000Y-120015000D02*
X148844000Y-121031000D01*
X148844000Y-121031000D02*
X147574000Y-121031000D01*
X147574000Y-121031000D02*
X147574000Y-120015000D01*
G36*
X147574000Y-120015000D02*
G01*
X148844000Y-120015000D01*
X148844000Y-121031000D01*
X147574000Y-121031000D01*
X147574000Y-120015000D01*
G37*
X147320000Y-119761000D02*
X152400000Y-119761000D01*
X152400000Y-119761000D02*
X152400000Y-121285000D01*
X152400000Y-121285000D02*
X147320000Y-121285000D01*
X147320000Y-121285000D02*
X147320000Y-119761000D01*
%TO.C,C11*%
X152392748Y-89308000D02*
X152915252Y-89308000D01*
X152392748Y-90778000D02*
X152915252Y-90778000D01*
%TO.C,R17*%
X155867263Y-72940000D02*
X157314737Y-72940000D01*
X155867263Y-75650000D02*
X157314737Y-75650000D01*
%TO.C,U3*%
X121570000Y-84271000D02*
X121570000Y-82271000D01*
X124810000Y-83271000D02*
X124810000Y-80271000D01*
%TO.C,C7*%
X126132000Y-79510836D02*
X126132000Y-79295164D01*
X126852000Y-79510836D02*
X126852000Y-79295164D01*
%TO.C,J2*%
X162015000Y-78790000D02*
X162015000Y-79540000D01*
X164565000Y-78490000D02*
X163315000Y-78490000D01*
X164265000Y-91390000D02*
X164265000Y-89590000D01*
X164265000Y-82090000D02*
X163515000Y-82090000D01*
X162015000Y-91390000D02*
X162015000Y-90640000D01*
X163515000Y-78790000D02*
X163515000Y-80590000D01*
X164265000Y-80590000D02*
X164265000Y-78790000D01*
X164275000Y-91400000D02*
X164275000Y-78780000D01*
X158305000Y-78780000D02*
X158305000Y-91400000D01*
X159065000Y-90640000D02*
X159065000Y-85090000D01*
X164275000Y-78780000D02*
X158305000Y-78780000D01*
X162015000Y-90640000D02*
X159065000Y-90640000D01*
X164565000Y-79740000D02*
X164565000Y-78490000D01*
X162015000Y-79540000D02*
X159065000Y-79540000D01*
X163515000Y-91390000D02*
X164265000Y-91390000D01*
X159065000Y-79540000D02*
X159065000Y-85090000D01*
X163515000Y-82090000D02*
X163515000Y-88090000D01*
X163515000Y-89590000D02*
X163515000Y-91390000D01*
X163515000Y-88090000D02*
X164265000Y-88090000D01*
X164265000Y-89590000D02*
X163515000Y-89590000D01*
X164265000Y-88090000D02*
X164265000Y-82090000D01*
X158305000Y-91400000D02*
X164275000Y-91400000D01*
X163515000Y-80590000D02*
X164265000Y-80590000D01*
X164265000Y-78790000D02*
X163515000Y-78790000D01*
%TO.C,R12*%
X157877742Y-91044500D02*
X158352258Y-91044500D01*
X157877742Y-92089500D02*
X158352258Y-92089500D01*
%TO.C,C3*%
X154219920Y-113338000D02*
X154501080Y-113338000D01*
X154219920Y-114358000D02*
X154501080Y-114358000D01*
%TO.C,C2*%
X154305248Y-110392000D02*
X154827752Y-110392000D01*
X154305248Y-108922000D02*
X154827752Y-108922000D01*
%TO.C,R3*%
X125959359Y-81406000D02*
X126266641Y-81406000D01*
X125959359Y-80646000D02*
X126266641Y-80646000D01*
%TO.C,Q9*%
X159280000Y-99320000D02*
X162110000Y-99320000D01*
X157780000Y-92690000D02*
X159280000Y-92690000D01*
X159280000Y-92960000D02*
X160380000Y-92960000D01*
X159280000Y-99590000D02*
X159280000Y-99320000D01*
X157780000Y-99590000D02*
X159280000Y-99590000D01*
X159280000Y-92690000D02*
X159280000Y-92960000D01*
%TO.C,R11*%
X147441500Y-75833742D02*
X147441500Y-76308258D01*
X146396500Y-75833742D02*
X146396500Y-76308258D01*
%TO.C,R4*%
X128015000Y-79530641D02*
X128015000Y-79223359D01*
X127255000Y-79530641D02*
X127255000Y-79223359D01*
%TO.C,TP11*%
X143428000Y-103634000D02*
G75*
G03*
X143428000Y-103634000I-950000J0D01*
G01*
%TO.C,C15*%
X142943252Y-101065000D02*
X142420748Y-101065000D01*
X142943252Y-99595000D02*
X142420748Y-99595000D01*
%TO.C,SW1*%
X133676000Y-103480000D02*
X133676000Y-103450000D01*
X140136000Y-103450000D02*
X140136000Y-103480000D01*
X133676000Y-103450000D02*
X140136000Y-103450000D01*
X133676000Y-109910000D02*
X133676000Y-109880000D01*
X133676000Y-105380000D02*
X133676000Y-107980000D01*
X140136000Y-105380000D02*
X140136000Y-107980000D01*
X140136000Y-109910000D02*
X140136000Y-109880000D01*
X133676000Y-109910000D02*
X140136000Y-109910000D01*
%TO.C,U1*%
X150647000Y-110458000D02*
X150647000Y-109958000D01*
X148947000Y-112158000D02*
X148447000Y-112158000D01*
X148447000Y-112158000D02*
X148447000Y-111658000D01*
X150647000Y-112158000D02*
X150147000Y-112158000D01*
X148947000Y-109958000D02*
X148947000Y-109958000D01*
X148447000Y-111658000D02*
X148447000Y-111658000D01*
X150647000Y-109958000D02*
X150647000Y-109958000D01*
X148447000Y-109958000D02*
X148947000Y-109958000D01*
X150647000Y-111658000D02*
X150647000Y-112158000D01*
X150147000Y-112158000D02*
X150147000Y-112158000D01*
X148447000Y-110458000D02*
X148447000Y-109958000D01*
%TO.C,R18*%
X153519763Y-81619000D02*
X154967237Y-81619000D01*
X153519763Y-78909000D02*
X154967237Y-78909000D01*
%TO.C,C9*%
X131064580Y-87632000D02*
X130783420Y-87632000D01*
X131064580Y-86612000D02*
X130783420Y-86612000D01*
%TO.C,U5*%
X147066000Y-79395000D02*
X143616000Y-79395000D01*
X147066000Y-89515000D02*
X149016000Y-89515000D01*
X147066000Y-79395000D02*
X149016000Y-79395000D01*
X147066000Y-89515000D02*
X145116000Y-89515000D01*
%TO.C,R21*%
X154911359Y-104774000D02*
X155218641Y-104774000D01*
X154911359Y-104014000D02*
X155218641Y-104014000D01*
%TO.C,R9*%
X147422359Y-114299000D02*
X147729641Y-114299000D01*
X147422359Y-113539000D02*
X147729641Y-113539000D01*
%TO.C,R2*%
X147006500Y-111152359D02*
X147006500Y-111459641D01*
X146246500Y-111152359D02*
X146246500Y-111459641D01*
%TO.C,T1*%
X125459360Y-89687400D02*
X121894600Y-89687400D01*
X121894600Y-89687400D02*
X121894600Y-102336600D01*
X128080640Y-102336600D02*
X128459360Y-102336600D01*
X134645400Y-89687400D02*
X131080640Y-89687400D01*
X131080640Y-102336600D02*
X134645400Y-102336600D01*
X134645400Y-102336600D02*
X134645400Y-89687400D01*
X128459360Y-89687400D02*
X128080640Y-89687400D01*
X121894600Y-102336600D02*
X125459360Y-102336600D01*
X129870200Y-88646000D02*
G75*
G03*
X129870200Y-88646000I-76200J0D01*
G01*
%TO.C,R8*%
X138151359Y-81916000D02*
X138458641Y-81916000D01*
X138151359Y-82676000D02*
X138458641Y-82676000D01*
%TO.C,R5*%
X125955359Y-81789000D02*
X126262641Y-81789000D01*
X125955359Y-82549000D02*
X126262641Y-82549000D01*
%TO.C,Q1*%
X129520000Y-119890000D02*
X129520000Y-118390000D01*
X129790000Y-118390000D02*
X129790000Y-117290000D01*
X136420000Y-119890000D02*
X136420000Y-118390000D01*
X136150000Y-118390000D02*
X136150000Y-115560000D01*
X136420000Y-118390000D02*
X136150000Y-118390000D01*
X129520000Y-118390000D02*
X129790000Y-118390000D01*
%TO.C,C6*%
X125836000Y-79510836D02*
X125836000Y-79295164D01*
X125116000Y-79510836D02*
X125116000Y-79295164D01*
%TO.C,C16*%
X142748580Y-102872000D02*
X142467420Y-102872000D01*
X142748580Y-101852000D02*
X142467420Y-101852000D01*
%TO.C,R13*%
X144266500Y-75833742D02*
X144266500Y-76308258D01*
X143221500Y-75833742D02*
X143221500Y-76308258D01*
%TO.C,C8*%
X126003164Y-83672000D02*
X126218836Y-83672000D01*
X126003164Y-82952000D02*
X126218836Y-82952000D01*
%TO.C,D3*%
X143201000Y-100232000D02*
X140916000Y-100232000D01*
X140916000Y-101702000D02*
X143201000Y-101702000D01*
X143201000Y-101702000D02*
X143201000Y-100232000D01*
%TO.C,R6*%
X130323000Y-80036564D02*
X130323000Y-78582436D01*
X128503000Y-80036564D02*
X128503000Y-78582436D01*
%TO.C,C5*%
X123390252Y-87149000D02*
X122867748Y-87149000D01*
X123390252Y-88619000D02*
X122867748Y-88619000D01*
%TO.C,J4*%
X144390000Y-118712000D02*
X137550000Y-118712000D01*
X137550000Y-111412000D02*
X143590000Y-111412000D01*
X137550000Y-118712000D02*
X137550000Y-111412000D01*
X143590000Y-111412000D02*
X144390000Y-112212000D01*
X144390000Y-112212000D02*
X144390000Y-118712000D01*
%TO.C,C10*%
X134179437Y-79350000D02*
X133115000Y-78285563D01*
X134283750Y-79983750D02*
X135071250Y-79983750D01*
X133115000Y-78285563D02*
X133115000Y-72530000D01*
X133115000Y-72530000D02*
X135465000Y-72530000D01*
X138870563Y-79350000D02*
X139935000Y-78285563D01*
X134677500Y-80377500D02*
X134677500Y-79590000D01*
X138870563Y-79350000D02*
X137585000Y-79350000D01*
X134179437Y-79350000D02*
X135465000Y-79350000D01*
X139935000Y-78285563D02*
X139935000Y-72530000D01*
X139935000Y-72530000D02*
X137585000Y-72530000D01*
%TO.C,U4*%
X142475000Y-96525000D02*
X141215000Y-96525000D01*
X142475000Y-90515000D02*
X142475000Y-96525000D01*
X135655000Y-92765000D02*
X135655000Y-96525000D01*
X135655000Y-96525000D02*
X136915000Y-96525000D01*
%TO.C,C12*%
X132661252Y-79910000D02*
X132138748Y-79910000D01*
X132661252Y-81380000D02*
X132138748Y-81380000D01*
%TO.C,C13*%
X149030563Y-98025000D02*
X150095000Y-96960563D01*
X144339437Y-98025000D02*
X143275000Y-96960563D01*
X144443750Y-98658750D02*
X145231250Y-98658750D01*
X150095000Y-91205000D02*
X147745000Y-91205000D01*
X143275000Y-96960563D02*
X143275000Y-91205000D01*
X144339437Y-98025000D02*
X145625000Y-98025000D01*
X144837500Y-99052500D02*
X144837500Y-98265000D01*
X143275000Y-91205000D02*
X145625000Y-91205000D01*
X150095000Y-96960563D02*
X150095000Y-91205000D01*
X149030563Y-98025000D02*
X147745000Y-98025000D01*
%TO.C,TP2*%
X152588000Y-88646000D02*
G75*
G03*
X152588000Y-88646000I-950000J0D01*
G01*
%TO.C,TP10*%
X141031000Y-85852000D02*
G75*
G03*
X141031000Y-85852000I-950000J0D01*
G01*
%TO.C,C4*%
X122955000Y-103270000D02*
X122955000Y-105620000D01*
X130802500Y-108527500D02*
X130015000Y-108527500D01*
X129775000Y-104334437D02*
X128710563Y-103270000D01*
X128710563Y-110090000D02*
X122955000Y-110090000D01*
X129775000Y-109025563D02*
X128710563Y-110090000D01*
X129775000Y-109025563D02*
X129775000Y-107740000D01*
X128710563Y-103270000D02*
X122955000Y-103270000D01*
X129775000Y-104334437D02*
X129775000Y-105620000D01*
X130408750Y-108921250D02*
X130408750Y-108133750D01*
X122955000Y-110090000D02*
X122955000Y-107740000D01*
%TO.C,D1*%
X137137500Y-88249000D02*
X133287500Y-88249000D01*
X137137500Y-88249000D02*
X137137500Y-86249000D01*
X137137500Y-86249000D02*
X133287500Y-86249000D01*
%TO.C,R10*%
X154280359Y-80011000D02*
X154587641Y-80011000D01*
X154280359Y-80771000D02*
X154587641Y-80771000D01*
%TO.C,TP3*%
X154541000Y-116588000D02*
G75*
G03*
X154541000Y-116588000I-950000J0D01*
G01*
%TO.C,D4*%
X130085000Y-112875000D02*
X130085000Y-114875000D01*
X130085000Y-112875000D02*
X133985000Y-112875000D01*
X130085000Y-114875000D02*
X133985000Y-114875000D01*
%TO.C,R15*%
X156817763Y-100161000D02*
X158265237Y-100161000D01*
X156817763Y-97451000D02*
X158265237Y-97451000D01*
%TO.C,F1*%
X150975763Y-77936000D02*
X152423237Y-77936000D01*
X150975763Y-75226000D02*
X152423237Y-75226000D01*
%TO.C,TP15*%
X148274000Y-96774000D02*
G75*
G03*
X148274000Y-96774000I-700000J0D01*
G01*
%TO.C,C1*%
X153715774Y-88485252D02*
X153715774Y-87962748D01*
X155185774Y-88485252D02*
X155185774Y-87962748D01*
%TO.C,D2*%
X147345000Y-70952000D02*
X143445000Y-70952000D01*
X147345000Y-73152000D02*
X147345000Y-73952000D01*
X147345000Y-73952000D02*
X143445000Y-73952000D01*
%TO.C,TP12*%
X157926000Y-73914000D02*
G75*
G03*
X157926000Y-73914000I-700000J0D01*
G01*
%TD*%
%LPC*%
D13*
%TO.C,R14*%
X157290000Y-89057000D03*
X158940000Y-89057000D03*
%TD*%
D14*
%TO.C,J3*%
X162305000Y-102870000D03*
D15*
X162305000Y-105370000D03*
X162305000Y-107870000D03*
%TD*%
D16*
%TO.C,U2*%
X146685000Y-100890000D03*
X146685000Y-101540000D03*
X146685000Y-102190000D03*
X146685000Y-102840000D03*
X146685000Y-103490000D03*
X146685000Y-104140000D03*
X146685000Y-104790000D03*
X146685000Y-105440000D03*
X146685000Y-106090000D03*
X146685000Y-106740000D03*
X152410000Y-106740000D03*
X152410000Y-106090000D03*
X152410000Y-105440000D03*
X152410000Y-104790000D03*
X152410000Y-104140000D03*
X152410000Y-103490000D03*
X152410000Y-102840000D03*
X152410000Y-102190000D03*
X152410000Y-101540000D03*
X152410000Y-100890000D03*
%TD*%
D17*
%TO.C,H3*%
X125095000Y-122555000D03*
%TD*%
D18*
%TO.C,R16*%
X154731000Y-77395000D03*
X155751000Y-77395000D03*
%TD*%
D19*
%TO.C,J1*%
X124460000Y-115911000D03*
D20*
X124460000Y-113411000D03*
%TD*%
D21*
%TO.C,TP1*%
X154226000Y-119763000D03*
%TD*%
D17*
%TO.C,H4*%
X161290000Y-122555000D03*
%TD*%
D22*
%TO.C,R7*%
X138815000Y-83439000D03*
X137795000Y-83439000D03*
%TD*%
D18*
%TO.C,R1*%
X132840000Y-111760000D03*
X133860000Y-111760000D03*
%TD*%
D23*
%TO.C,SW2*%
X147360000Y-117273000D03*
X149860000Y-117273000D03*
X152360000Y-117273000D03*
X147360000Y-123773000D03*
X149860000Y-123773000D03*
X152360000Y-123773000D03*
%TD*%
D24*
%TO.C,C11*%
X151704000Y-90043000D03*
X153604000Y-90043000D03*
%TD*%
D25*
%TO.C,R17*%
X155128500Y-74295000D03*
X158053500Y-74295000D03*
%TD*%
D26*
%TO.C,U3*%
X124165000Y-81071000D03*
X123515000Y-81071000D03*
X122865000Y-81071000D03*
X122215000Y-81071000D03*
X122215000Y-85471000D03*
X122865000Y-85471000D03*
X123515000Y-85471000D03*
X124165000Y-85471000D03*
%TD*%
D27*
%TO.C,C7*%
X126492000Y-79883000D03*
X126492000Y-78923000D03*
%TD*%
D14*
%TO.C,J2*%
X161815000Y-81340000D03*
D15*
X161815000Y-83840000D03*
X161815000Y-86340000D03*
X161815000Y-88840000D03*
%TD*%
D13*
%TO.C,R12*%
X157290000Y-91567000D03*
X158940000Y-91567000D03*
%TD*%
D28*
%TO.C,C3*%
X153585500Y-113848000D03*
X155135500Y-113848000D03*
%TD*%
D24*
%TO.C,C2*%
X153616500Y-109657000D03*
X155516500Y-109657000D03*
%TD*%
D18*
%TO.C,R3*%
X125603000Y-81026000D03*
X126623000Y-81026000D03*
%TD*%
D29*
%TO.C,Q9*%
X161010000Y-98420000D03*
D30*
X154710000Y-96140000D03*
D29*
X161010000Y-93860000D03*
%TD*%
D31*
%TO.C,R11*%
X146919000Y-75246000D03*
X146919000Y-76896000D03*
%TD*%
D32*
%TO.C,R4*%
X127635000Y-79887000D03*
X127635000Y-78867000D03*
%TD*%
D21*
%TO.C,TP11*%
X142478000Y-103634000D03*
%TD*%
D33*
%TO.C,C15*%
X143632000Y-100330000D03*
X141732000Y-100330000D03*
%TD*%
D34*
%TO.C,SW1*%
X132926000Y-104430000D03*
X140886000Y-104430000D03*
X132926000Y-108930000D03*
X140886000Y-108930000D03*
%TD*%
D35*
%TO.C,U1*%
X150297000Y-110295500D03*
X149797000Y-110295500D03*
X149297000Y-110295500D03*
X148797000Y-110295500D03*
D36*
X148784500Y-110808000D03*
X148784500Y-111308000D03*
D35*
X148797000Y-111820500D03*
X149297000Y-111820500D03*
X149797000Y-111820500D03*
X150297000Y-111820500D03*
D36*
X150309500Y-111308000D03*
X150309500Y-110808000D03*
%TD*%
D25*
%TO.C,R18*%
X152781000Y-80264000D03*
X155706000Y-80264000D03*
%TD*%
D37*
%TO.C,C9*%
X131699000Y-87122000D03*
X130149000Y-87122000D03*
%TD*%
D38*
%TO.C,U5*%
X144591000Y-80010000D03*
X144591000Y-81280000D03*
X144591000Y-82550000D03*
X144591000Y-83820000D03*
X144591000Y-85090000D03*
X144591000Y-86360000D03*
X144591000Y-87630000D03*
X144591000Y-88900000D03*
X149541000Y-88900000D03*
X149541000Y-87630000D03*
X149541000Y-86360000D03*
X149541000Y-85090000D03*
X149541000Y-83820000D03*
X149541000Y-82550000D03*
X149541000Y-81280000D03*
X149541000Y-80010000D03*
%TD*%
D18*
%TO.C,R21*%
X154555000Y-104394000D03*
X155575000Y-104394000D03*
%TD*%
%TO.C,R9*%
X147066000Y-113919000D03*
X148086000Y-113919000D03*
%TD*%
D39*
%TO.C,R2*%
X146626500Y-110796000D03*
X146626500Y-111816000D03*
%TD*%
D40*
%TO.C,T1*%
X129770000Y-90690700D03*
X126770000Y-90690700D03*
X126770000Y-101333300D03*
X129770000Y-101333300D03*
%TD*%
D18*
%TO.C,R8*%
X137795000Y-82296000D03*
X138815000Y-82296000D03*
%TD*%
%TO.C,R5*%
X125599000Y-82169000D03*
X126619000Y-82169000D03*
%TD*%
D41*
%TO.C,Q1*%
X135250000Y-116660000D03*
D42*
X132970000Y-122960000D03*
D41*
X130690000Y-116660000D03*
%TD*%
D27*
%TO.C,C6*%
X125476000Y-79883000D03*
X125476000Y-78923000D03*
%TD*%
D37*
%TO.C,C16*%
X143383000Y-102362000D03*
X141833000Y-102362000D03*
%TD*%
D31*
%TO.C,R13*%
X143744000Y-75246000D03*
X143744000Y-76896000D03*
%TD*%
D43*
%TO.C,C8*%
X125631000Y-83312000D03*
X126591000Y-83312000D03*
%TD*%
D44*
%TO.C,D3*%
X142503500Y-100967000D03*
X140928500Y-100967000D03*
%TD*%
D45*
%TO.C,R6*%
X129413000Y-80772000D03*
X129413000Y-77847000D03*
%TD*%
D33*
%TO.C,C5*%
X124079000Y-87884000D03*
X122179000Y-87884000D03*
%TD*%
D46*
%TO.C,J4*%
X143510000Y-113112000D03*
X143510000Y-117012000D03*
X142240000Y-113112000D03*
X142240000Y-117012000D03*
X140970000Y-113112000D03*
X140970000Y-117012000D03*
X139700000Y-113112000D03*
X139700000Y-117012000D03*
X138430000Y-113112000D03*
X138430000Y-117012000D03*
%TD*%
D47*
%TO.C,C10*%
X136525000Y-78740000D03*
X136525000Y-73140000D03*
%TD*%
D48*
%TO.C,U4*%
X141365000Y-91465000D03*
X139065000Y-91465000D03*
D49*
X139065000Y-97765000D03*
D48*
X136765000Y-91465000D03*
%TD*%
D33*
%TO.C,C12*%
X133350000Y-80645000D03*
X131450000Y-80645000D03*
%TD*%
D47*
%TO.C,C13*%
X146685000Y-97315000D03*
X146685000Y-91915000D03*
%TD*%
D21*
%TO.C,TP2*%
X151638000Y-88646000D03*
%TD*%
%TO.C,TP10*%
X140081000Y-85852000D03*
%TD*%
D50*
%TO.C,C4*%
X129065000Y-106680000D03*
X123665000Y-106680000D03*
%TD*%
D17*
%TO.C,H2*%
X161290000Y-74295000D03*
%TD*%
D51*
%TO.C,D1*%
X136337500Y-87249000D03*
X133537500Y-87249000D03*
%TD*%
D18*
%TO.C,R10*%
X153924000Y-80391000D03*
X154944000Y-80391000D03*
%TD*%
D21*
%TO.C,TP3*%
X153591000Y-116588000D03*
%TD*%
D52*
%TO.C,D4*%
X130685000Y-113875000D03*
X133985000Y-113875000D03*
%TD*%
D25*
%TO.C,R15*%
X156079000Y-98806000D03*
X159004000Y-98806000D03*
%TD*%
D17*
%TO.C,H1*%
X125095000Y-74295000D03*
%TD*%
D25*
%TO.C,F1*%
X150237000Y-76581000D03*
X153162000Y-76581000D03*
%TD*%
D53*
%TO.C,TP15*%
X147574000Y-96774000D03*
%TD*%
D54*
%TO.C,C1*%
X154450774Y-89174000D03*
X154450774Y-87274000D03*
%TD*%
D55*
%TO.C,D2*%
X146645000Y-73152000D03*
X146645000Y-71752000D03*
X144145000Y-71752000D03*
X144145000Y-73152000D03*
%TD*%
D53*
%TO.C,TP12*%
X157226000Y-73914000D03*
%TD*%
M02*
