%TF.GenerationSoftware,KiCad,Pcbnew,(6.0.1-0)*%
%TF.CreationDate,2022-10-24T18:59:44-05:00*%
%TF.ProjectId,tackle_sensor_hardware,7461636b-6c65-45f7-9365-6e736f725f68,rev?*%
%TF.SameCoordinates,Original*%
%TF.FileFunction,Copper,L2,Inr*%
%TF.FilePolarity,Positive*%
%FSLAX46Y46*%
G04 Gerber Fmt 4.6, Leading zero omitted, Abs format (unit mm)*
G04 Created by KiCad (PCBNEW (6.0.1-0)) date 2022-10-24 18:59:44*
%MOMM*%
%LPD*%
G01*
G04 APERTURE LIST*
G04 Aperture macros list*
%AMRoundRect*
0 Rectangle with rounded corners*
0 $1 Rounding radius*
0 $2 $3 $4 $5 $6 $7 $8 $9 X,Y pos of 4 corners*
0 Add a 4 corners polygon primitive as box body*
4,1,4,$2,$3,$4,$5,$6,$7,$8,$9,$2,$3,0*
0 Add four circle primitives for the rounded corners*
1,1,$1+$1,$2,$3*
1,1,$1+$1,$4,$5*
1,1,$1+$1,$6,$7*
1,1,$1+$1,$8,$9*
0 Add four rect primitives between the rounded corners*
20,1,$1+$1,$2,$3,$4,$5,0*
20,1,$1+$1,$4,$5,$6,$7,0*
20,1,$1+$1,$6,$7,$8,$9,0*
20,1,$1+$1,$8,$9,$2,$3,0*%
G04 Aperture macros list end*
%TA.AperFunction,ComponentPad*%
%ADD10RoundRect,0.250000X-0.725000X0.600000X-0.725000X-0.600000X0.725000X-0.600000X0.725000X0.600000X0*%
%TD*%
%TA.AperFunction,ComponentPad*%
%ADD11O,1.950000X1.700000*%
%TD*%
%TA.AperFunction,ComponentPad*%
%ADD12RoundRect,0.250000X0.750000X-0.600000X0.750000X0.600000X-0.750000X0.600000X-0.750000X-0.600000X0*%
%TD*%
%TA.AperFunction,ComponentPad*%
%ADD13O,2.000000X1.700000*%
%TD*%
%TA.AperFunction,ViaPad*%
%ADD14C,0.500000*%
%TD*%
G04 APERTURE END LIST*
D10*
%TO.N,Net-(J3-Pad1)*%
%TO.C,J3*%
X163796200Y-106923200D03*
D11*
%TO.N,Net-(J3-Pad2)*%
X163796200Y-109423200D03*
%TO.N,GND*%
X163796200Y-111923200D03*
%TD*%
D12*
%TO.N,GND*%
%TO.C,J2*%
X124206000Y-117602000D03*
D13*
%TO.N,Net-(J2-Pad2)*%
X124206000Y-115102000D03*
%TD*%
D10*
%TO.N,Net-(F1-Pad2)*%
%TO.C,J4*%
X163796200Y-81701000D03*
D11*
%TO.N,Net-(J4-Pad2)*%
X163796200Y-84201000D03*
%TO.N,Net-(J4-Pad3)*%
X163796200Y-86701000D03*
%TO.N,Net-(J4-Pad4)*%
X163796200Y-89201000D03*
%TD*%
D14*
%TO.N,GND*%
X127914400Y-83464400D03*
X131064000Y-75438000D03*
X143002000Y-88239600D03*
X130048000Y-74549000D03*
X131064000Y-73660000D03*
X139852400Y-109728000D03*
X137058400Y-94488000D03*
X132080000Y-73660000D03*
X150571200Y-115519200D03*
X150317200Y-119532400D03*
X143510000Y-109778800D03*
X130048000Y-75438000D03*
X137907200Y-102956800D03*
X157988000Y-103022400D03*
X130048000Y-71628000D03*
X131064000Y-71628000D03*
X131064000Y-74549000D03*
X142392400Y-109829600D03*
X153618800Y-93471600D03*
X132080000Y-72644000D03*
X135128000Y-113284000D03*
X132080000Y-71628000D03*
X154076400Y-105867200D03*
X138049000Y-115824000D03*
X131064000Y-76327000D03*
X150164800Y-117754400D03*
X130048000Y-72644000D03*
X130048000Y-76327000D03*
X123571000Y-109220000D03*
X131064000Y-72644000D03*
X153111200Y-123799600D03*
X142951200Y-86969600D03*
X158343600Y-105003600D03*
X130048000Y-73660000D03*
%TO.N,+3V3*%
X154279600Y-116433600D03*
X152704400Y-99771600D03*
X144932400Y-109880400D03*
X155422000Y-103910800D03*
X153162000Y-121970800D03*
%TO.N,+12V*%
X138582400Y-75793600D03*
X150368000Y-72745600D03*
X141249400Y-89636600D03*
%TO.N,R_PWM*%
X146202400Y-83159600D03*
X145796000Y-108559600D03*
%TO.N,G_PWM*%
X145440400Y-105664000D03*
X146100800Y-84429600D03*
%TO.N,B_PWM*%
X145643600Y-104902000D03*
X146151600Y-85801200D03*
%TO.N,/RST*%
X145694400Y-106883200D03*
X154127200Y-105003600D03*
%TO.N,UART_TX*%
X155752800Y-106883200D03*
X154330400Y-103276400D03*
%TO.N,/ACC_INT2*%
X149936200Y-105384600D03*
X151993600Y-109524800D03*
%TO.N,Net-(Q2-Pad1)*%
X137363200Y-86106000D03*
X123088400Y-83769200D03*
%TO.N,Net-(R5-Pad2)*%
X154432000Y-107035600D03*
X153619200Y-109778800D03*
%TO.N,Net-(R8-Pad2)*%
X122478800Y-83058000D03*
X137769600Y-90779600D03*
%TD*%
%TA.AperFunction,Conductor*%
%TO.N,GND*%
G36*
X163196959Y-70359500D02*
G01*
X163211760Y-70361805D01*
X163211763Y-70361805D01*
X163220632Y-70363186D01*
X163240528Y-70360584D01*
X163262686Y-70359654D01*
X163584345Y-70374525D01*
X163595934Y-70375599D01*
X163944560Y-70424231D01*
X163955999Y-70426370D01*
X164149390Y-70471855D01*
X164298646Y-70506959D01*
X164309828Y-70510140D01*
X164476712Y-70566074D01*
X164643587Y-70622006D01*
X164654439Y-70626210D01*
X164976449Y-70768391D01*
X164986854Y-70773571D01*
X165294389Y-70944867D01*
X165304266Y-70950983D01*
X165594669Y-71149914D01*
X165603957Y-71156928D01*
X165874767Y-71381806D01*
X165883367Y-71389647D01*
X166132255Y-71638535D01*
X166140096Y-71647135D01*
X166364974Y-71917945D01*
X166371988Y-71927233D01*
X166549723Y-72186693D01*
X166570919Y-72217636D01*
X166577035Y-72227513D01*
X166748331Y-72535048D01*
X166753511Y-72545453D01*
X166895692Y-72867463D01*
X166899896Y-72878315D01*
X167009492Y-73205300D01*
X167011759Y-73212065D01*
X167014943Y-73223256D01*
X167040481Y-73331837D01*
X167095532Y-73565903D01*
X167097671Y-73577342D01*
X167146303Y-73925968D01*
X167147377Y-73937557D01*
X167161905Y-74251816D01*
X167160540Y-74277015D01*
X167158716Y-74288730D01*
X167159880Y-74297632D01*
X167159880Y-74297635D01*
X167162838Y-74320251D01*
X167163902Y-74336589D01*
X167163902Y-125045672D01*
X167162402Y-125065056D01*
X167158716Y-125088730D01*
X167160356Y-125101270D01*
X167161318Y-125108626D01*
X167162248Y-125130784D01*
X167147377Y-125452443D01*
X167146303Y-125464032D01*
X167097671Y-125812658D01*
X167095532Y-125824097D01*
X167014944Y-126166740D01*
X167011762Y-126177926D01*
X166965613Y-126315614D01*
X166899896Y-126511685D01*
X166895692Y-126522537D01*
X166753511Y-126844547D01*
X166748331Y-126854952D01*
X166577035Y-127162487D01*
X166570920Y-127172363D01*
X166549690Y-127203354D01*
X166371988Y-127462767D01*
X166364974Y-127472055D01*
X166140096Y-127742865D01*
X166132255Y-127751465D01*
X165883367Y-128000353D01*
X165874767Y-128008194D01*
X165603957Y-128233072D01*
X165594669Y-128240086D01*
X165304266Y-128439017D01*
X165294389Y-128445133D01*
X164986854Y-128616429D01*
X164976449Y-128621609D01*
X164654439Y-128763790D01*
X164643587Y-128767994D01*
X164476712Y-128823926D01*
X164309828Y-128879860D01*
X164298646Y-128883041D01*
X164149390Y-128918145D01*
X163955999Y-128963630D01*
X163944560Y-128965769D01*
X163595934Y-129014401D01*
X163584346Y-129015475D01*
X163559293Y-129016633D01*
X163270086Y-129030003D01*
X163244887Y-129028638D01*
X163242044Y-129028195D01*
X163242042Y-129028195D01*
X163233172Y-129026814D01*
X163224270Y-129027978D01*
X163224267Y-129027978D01*
X163201651Y-129030936D01*
X163185313Y-129032000D01*
X125144328Y-129032000D01*
X125124943Y-129030500D01*
X125110142Y-129028195D01*
X125110139Y-129028195D01*
X125101270Y-129026814D01*
X125082105Y-129029320D01*
X125081374Y-129029416D01*
X125059216Y-129030346D01*
X124737557Y-129015475D01*
X124725968Y-129014401D01*
X124377342Y-128965769D01*
X124365903Y-128963630D01*
X124172512Y-128918145D01*
X124023256Y-128883041D01*
X124012074Y-128879860D01*
X123845190Y-128823925D01*
X123678315Y-128767994D01*
X123667463Y-128763790D01*
X123345453Y-128621609D01*
X123335048Y-128616429D01*
X123027513Y-128445133D01*
X123017636Y-128439017D01*
X122727233Y-128240086D01*
X122717945Y-128233072D01*
X122447135Y-128008194D01*
X122438535Y-128000353D01*
X122189647Y-127751465D01*
X122181806Y-127742865D01*
X121956928Y-127472055D01*
X121949914Y-127462767D01*
X121772212Y-127203354D01*
X121750982Y-127172363D01*
X121744867Y-127162487D01*
X121573571Y-126854952D01*
X121568391Y-126844547D01*
X121426210Y-126522537D01*
X121422006Y-126511685D01*
X121356289Y-126315614D01*
X121310140Y-126177926D01*
X121306958Y-126166740D01*
X121226370Y-125824097D01*
X121224231Y-125812658D01*
X121175599Y-125464032D01*
X121174525Y-125452443D01*
X121164135Y-125227703D01*
X122985743Y-125227703D01*
X123023268Y-125512734D01*
X123099129Y-125790036D01*
X123211923Y-126054476D01*
X123359561Y-126301161D01*
X123539313Y-126525528D01*
X123747851Y-126723423D01*
X123981317Y-126891186D01*
X123985112Y-126893195D01*
X123985113Y-126893196D01*
X124006869Y-126904715D01*
X124235392Y-127025712D01*
X124505373Y-127124511D01*
X124786264Y-127185755D01*
X124814841Y-127188004D01*
X125009282Y-127203307D01*
X125009291Y-127203307D01*
X125011739Y-127203500D01*
X125167271Y-127203500D01*
X125169407Y-127203354D01*
X125169418Y-127203354D01*
X125377548Y-127189165D01*
X125377554Y-127189164D01*
X125381825Y-127188873D01*
X125386020Y-127188004D01*
X125386022Y-127188004D01*
X125522583Y-127159724D01*
X125663342Y-127130574D01*
X125934343Y-127034607D01*
X126189812Y-126902750D01*
X126193313Y-126900289D01*
X126193317Y-126900287D01*
X126349328Y-126790640D01*
X126425023Y-126737441D01*
X126635622Y-126541740D01*
X126817713Y-126319268D01*
X126967927Y-126074142D01*
X127083483Y-125810898D01*
X127162244Y-125534406D01*
X127202751Y-125249784D01*
X127202845Y-125231951D01*
X127202867Y-125227703D01*
X161085743Y-125227703D01*
X161123268Y-125512734D01*
X161199129Y-125790036D01*
X161311923Y-126054476D01*
X161459561Y-126301161D01*
X161639313Y-126525528D01*
X161847851Y-126723423D01*
X162081317Y-126891186D01*
X162085112Y-126893195D01*
X162085113Y-126893196D01*
X162106869Y-126904715D01*
X162335392Y-127025712D01*
X162605373Y-127124511D01*
X162886264Y-127185755D01*
X162914841Y-127188004D01*
X163109282Y-127203307D01*
X163109291Y-127203307D01*
X163111739Y-127203500D01*
X163267271Y-127203500D01*
X163269407Y-127203354D01*
X163269418Y-127203354D01*
X163477548Y-127189165D01*
X163477554Y-127189164D01*
X163481825Y-127188873D01*
X163486020Y-127188004D01*
X163486022Y-127188004D01*
X163622583Y-127159724D01*
X163763342Y-127130574D01*
X164034343Y-127034607D01*
X164289812Y-126902750D01*
X164293313Y-126900289D01*
X164293317Y-126900287D01*
X164449328Y-126790640D01*
X164525023Y-126737441D01*
X164735622Y-126541740D01*
X164917713Y-126319268D01*
X165067927Y-126074142D01*
X165183483Y-125810898D01*
X165262244Y-125534406D01*
X165302751Y-125249784D01*
X165302845Y-125231951D01*
X165304235Y-124966583D01*
X165304235Y-124966576D01*
X165304257Y-124962297D01*
X165266732Y-124677266D01*
X165190871Y-124399964D01*
X165078077Y-124135524D01*
X164930439Y-123888839D01*
X164750687Y-123664472D01*
X164542149Y-123466577D01*
X164308683Y-123298814D01*
X164286843Y-123287250D01*
X164263654Y-123274972D01*
X164054608Y-123164288D01*
X163784627Y-123065489D01*
X163503736Y-123004245D01*
X163472685Y-123001801D01*
X163280718Y-122986693D01*
X163280709Y-122986693D01*
X163278261Y-122986500D01*
X163122729Y-122986500D01*
X163120593Y-122986646D01*
X163120582Y-122986646D01*
X162912452Y-123000835D01*
X162912446Y-123000836D01*
X162908175Y-123001127D01*
X162903980Y-123001996D01*
X162903978Y-123001996D01*
X162767416Y-123030277D01*
X162626658Y-123059426D01*
X162355657Y-123155393D01*
X162100188Y-123287250D01*
X162096687Y-123289711D01*
X162096683Y-123289713D01*
X162086594Y-123296804D01*
X161864977Y-123452559D01*
X161654378Y-123648260D01*
X161472287Y-123870732D01*
X161322073Y-124115858D01*
X161206517Y-124379102D01*
X161127756Y-124655594D01*
X161087249Y-124940216D01*
X161087227Y-124944505D01*
X161087226Y-124944512D01*
X161085765Y-125223417D01*
X161085743Y-125227703D01*
X127202867Y-125227703D01*
X127204235Y-124966583D01*
X127204235Y-124966576D01*
X127204257Y-124962297D01*
X127166732Y-124677266D01*
X127090871Y-124399964D01*
X126978077Y-124135524D01*
X126830439Y-123888839D01*
X126650687Y-123664472D01*
X126442149Y-123466577D01*
X126208683Y-123298814D01*
X126186843Y-123287250D01*
X126163654Y-123274972D01*
X125954608Y-123164288D01*
X125684627Y-123065489D01*
X125403736Y-123004245D01*
X125372685Y-123001801D01*
X125180718Y-122986693D01*
X125180709Y-122986693D01*
X125178261Y-122986500D01*
X125022729Y-122986500D01*
X125020593Y-122986646D01*
X125020582Y-122986646D01*
X124812452Y-123000835D01*
X124812446Y-123000836D01*
X124808175Y-123001127D01*
X124803980Y-123001996D01*
X124803978Y-123001996D01*
X124667416Y-123030277D01*
X124526658Y-123059426D01*
X124255657Y-123155393D01*
X124000188Y-123287250D01*
X123996687Y-123289711D01*
X123996683Y-123289713D01*
X123986594Y-123296804D01*
X123764977Y-123452559D01*
X123554378Y-123648260D01*
X123372287Y-123870732D01*
X123222073Y-124115858D01*
X123106517Y-124379102D01*
X123027756Y-124655594D01*
X122987249Y-124940216D01*
X122987227Y-124944505D01*
X122987226Y-124944512D01*
X122985765Y-125223417D01*
X122985743Y-125227703D01*
X121164135Y-125227703D01*
X121159997Y-125138184D01*
X121161362Y-125112985D01*
X121161805Y-125110142D01*
X121161805Y-125110140D01*
X121163186Y-125101270D01*
X121161547Y-125088730D01*
X121159064Y-125069749D01*
X121158000Y-125053411D01*
X121158000Y-121960143D01*
X152398775Y-121960143D01*
X152415381Y-122129499D01*
X152469094Y-122290967D01*
X152472741Y-122296989D01*
X152472742Y-122296991D01*
X152486497Y-122319702D01*
X152557246Y-122436523D01*
X152675455Y-122558932D01*
X152817846Y-122652110D01*
X152824450Y-122654566D01*
X152824452Y-122654567D01*
X152860844Y-122668101D01*
X152977341Y-122711426D01*
X153146015Y-122733932D01*
X153153026Y-122733294D01*
X153153030Y-122733294D01*
X153308462Y-122719148D01*
X153315483Y-122718509D01*
X153322185Y-122716331D01*
X153322187Y-122716331D01*
X153470623Y-122668101D01*
X153470626Y-122668100D01*
X153477322Y-122665924D01*
X153623490Y-122578790D01*
X153628584Y-122573939D01*
X153628588Y-122573936D01*
X153695833Y-122509899D01*
X153746721Y-122461439D01*
X153840891Y-122319702D01*
X153901319Y-122160625D01*
X153925001Y-121992113D01*
X153925299Y-121970800D01*
X153906331Y-121801692D01*
X153850368Y-121640989D01*
X153844383Y-121631410D01*
X153822420Y-121596264D01*
X153760192Y-121496679D01*
X153640286Y-121375932D01*
X153624039Y-121365621D01*
X153585406Y-121341104D01*
X153496608Y-121284751D01*
X153336300Y-121227668D01*
X153167329Y-121207520D01*
X153160326Y-121208256D01*
X153160325Y-121208256D01*
X153005101Y-121224570D01*
X153005097Y-121224571D01*
X152998093Y-121225307D01*
X152991422Y-121227578D01*
X152843673Y-121277875D01*
X152843670Y-121277876D01*
X152837003Y-121280146D01*
X152831005Y-121283836D01*
X152831003Y-121283837D01*
X152698065Y-121365621D01*
X152698063Y-121365623D01*
X152692066Y-121369312D01*
X152570486Y-121488373D01*
X152478304Y-121631410D01*
X152420103Y-121791316D01*
X152398775Y-121960143D01*
X121158000Y-121960143D01*
X121158000Y-118249095D01*
X122698001Y-118249095D01*
X122698338Y-118255614D01*
X122708257Y-118351206D01*
X122711149Y-118364600D01*
X122762588Y-118518784D01*
X122768761Y-118531962D01*
X122854063Y-118669807D01*
X122863099Y-118681208D01*
X122977829Y-118795739D01*
X122989240Y-118804751D01*
X123127243Y-118889816D01*
X123140424Y-118895963D01*
X123294710Y-118947138D01*
X123308086Y-118950005D01*
X123402438Y-118959672D01*
X123408854Y-118960000D01*
X123933885Y-118960000D01*
X123949124Y-118955525D01*
X123950329Y-118954135D01*
X123952000Y-118946452D01*
X123952000Y-118941884D01*
X124460000Y-118941884D01*
X124464475Y-118957123D01*
X124465865Y-118958328D01*
X124473548Y-118959999D01*
X125003095Y-118959999D01*
X125009614Y-118959662D01*
X125105206Y-118949743D01*
X125118600Y-118946851D01*
X125272784Y-118895412D01*
X125285962Y-118889239D01*
X125423807Y-118803937D01*
X125435208Y-118794901D01*
X125549739Y-118680171D01*
X125558751Y-118668760D01*
X125643816Y-118530757D01*
X125649963Y-118517576D01*
X125701138Y-118363290D01*
X125704005Y-118349914D01*
X125713672Y-118255562D01*
X125714000Y-118249146D01*
X125714000Y-117874115D01*
X125709525Y-117858876D01*
X125708135Y-117857671D01*
X125700452Y-117856000D01*
X124478115Y-117856000D01*
X124462876Y-117860475D01*
X124461671Y-117861865D01*
X124460000Y-117869548D01*
X124460000Y-118941884D01*
X123952000Y-118941884D01*
X123952000Y-117874115D01*
X123947525Y-117858876D01*
X123946135Y-117857671D01*
X123938452Y-117856000D01*
X122716116Y-117856000D01*
X122700877Y-117860475D01*
X122699672Y-117861865D01*
X122698001Y-117869548D01*
X122698001Y-118249095D01*
X121158000Y-118249095D01*
X121158000Y-115037774D01*
X122694102Y-115037774D01*
X122702751Y-115268158D01*
X122750093Y-115493791D01*
X122752051Y-115498750D01*
X122752052Y-115498752D01*
X122827436Y-115689634D01*
X122834776Y-115708221D01*
X122837543Y-115712780D01*
X122837544Y-115712783D01*
X122857207Y-115745186D01*
X122954377Y-115905317D01*
X122957874Y-115909347D01*
X123044438Y-116009103D01*
X123105477Y-116079445D01*
X123109608Y-116082832D01*
X123141529Y-116109006D01*
X123181524Y-116167666D01*
X123183455Y-116238636D01*
X123146710Y-116299384D01*
X123127941Y-116313584D01*
X122988193Y-116400063D01*
X122976792Y-116409099D01*
X122862261Y-116523829D01*
X122853249Y-116535240D01*
X122768184Y-116673243D01*
X122762037Y-116686424D01*
X122710862Y-116840710D01*
X122707995Y-116854086D01*
X122698328Y-116948438D01*
X122698000Y-116954855D01*
X122698000Y-117329885D01*
X122702475Y-117345124D01*
X122703865Y-117346329D01*
X122711548Y-117348000D01*
X125695884Y-117348000D01*
X125711123Y-117343525D01*
X125712328Y-117342135D01*
X125713999Y-117334452D01*
X125713999Y-116954905D01*
X125713662Y-116948386D01*
X125703743Y-116852794D01*
X125700851Y-116839400D01*
X125649412Y-116685216D01*
X125643239Y-116672038D01*
X125557937Y-116534193D01*
X125548901Y-116522792D01*
X125448879Y-116422943D01*
X153516375Y-116422943D01*
X153532981Y-116592299D01*
X153586694Y-116753767D01*
X153590341Y-116759789D01*
X153590342Y-116759791D01*
X153639349Y-116840710D01*
X153674846Y-116899323D01*
X153793055Y-117021732D01*
X153935446Y-117114910D01*
X153942050Y-117117366D01*
X153942052Y-117117367D01*
X153978444Y-117130901D01*
X154094941Y-117174226D01*
X154263615Y-117196732D01*
X154270626Y-117196094D01*
X154270630Y-117196094D01*
X154426062Y-117181948D01*
X154433083Y-117181309D01*
X154439785Y-117179131D01*
X154439787Y-117179131D01*
X154588223Y-117130901D01*
X154588226Y-117130900D01*
X154594922Y-117128724D01*
X154741090Y-117041590D01*
X154746184Y-117036739D01*
X154746188Y-117036736D01*
X154838964Y-116948386D01*
X154864321Y-116924239D01*
X154958491Y-116782502D01*
X155018919Y-116623425D01*
X155042601Y-116454913D01*
X155042899Y-116433600D01*
X155023931Y-116264492D01*
X154967968Y-116103789D01*
X154961983Y-116094210D01*
X154906502Y-116005424D01*
X154877792Y-115959479D01*
X154757886Y-115838732D01*
X154741639Y-115828421D01*
X154703006Y-115803904D01*
X154614208Y-115747551D01*
X154453900Y-115690468D01*
X154284929Y-115670320D01*
X154277926Y-115671056D01*
X154277925Y-115671056D01*
X154122701Y-115687370D01*
X154122697Y-115687371D01*
X154115693Y-115688107D01*
X154109022Y-115690378D01*
X153961273Y-115740675D01*
X153961270Y-115740676D01*
X153954603Y-115742946D01*
X153948605Y-115746636D01*
X153948603Y-115746637D01*
X153815665Y-115828421D01*
X153815663Y-115828423D01*
X153809666Y-115832112D01*
X153688086Y-115951173D01*
X153684275Y-115957087D01*
X153684273Y-115957089D01*
X153605419Y-116079445D01*
X153595904Y-116094210D01*
X153537703Y-116254116D01*
X153516375Y-116422943D01*
X125448879Y-116422943D01*
X125434171Y-116408261D01*
X125422757Y-116399247D01*
X125283287Y-116313277D01*
X125235793Y-116260505D01*
X125224369Y-116190434D01*
X125252643Y-116125310D01*
X125262430Y-116114847D01*
X125267044Y-116110446D01*
X125377135Y-116005424D01*
X125514754Y-115820458D01*
X125549901Y-115751330D01*
X125581268Y-115689634D01*
X125619240Y-115614949D01*
X125655321Y-115498752D01*
X125686024Y-115399871D01*
X125687607Y-115394773D01*
X125688308Y-115389484D01*
X125717198Y-115171511D01*
X125717198Y-115171506D01*
X125717898Y-115166226D01*
X125709249Y-114935842D01*
X125661907Y-114710209D01*
X125577224Y-114495779D01*
X125457623Y-114298683D01*
X125370755Y-114198576D01*
X125310023Y-114128588D01*
X125310021Y-114128586D01*
X125306523Y-114124555D01*
X125264970Y-114090484D01*
X125132373Y-113981760D01*
X125132367Y-113981756D01*
X125128245Y-113978376D01*
X125123609Y-113975737D01*
X125123606Y-113975735D01*
X124932529Y-113866968D01*
X124927886Y-113864325D01*
X124711175Y-113785663D01*
X124705926Y-113784714D01*
X124705923Y-113784713D01*
X124488392Y-113745377D01*
X124488385Y-113745376D01*
X124484308Y-113744639D01*
X124466586Y-113743803D01*
X124461644Y-113743570D01*
X124461637Y-113743570D01*
X124460156Y-113743500D01*
X123998110Y-113743500D01*
X123931191Y-113749178D01*
X123831591Y-113757629D01*
X123831587Y-113757630D01*
X123826280Y-113758080D01*
X123821125Y-113759418D01*
X123821119Y-113759419D01*
X123608297Y-113814657D01*
X123608293Y-113814658D01*
X123603128Y-113815999D01*
X123598262Y-113818191D01*
X123598259Y-113818192D01*
X123489980Y-113866968D01*
X123392925Y-113910688D01*
X123201681Y-114039441D01*
X123034865Y-114198576D01*
X122897246Y-114383542D01*
X122792760Y-114589051D01*
X122791178Y-114594145D01*
X122791177Y-114594148D01*
X122729115Y-114794020D01*
X122724393Y-114809227D01*
X122723692Y-114814516D01*
X122708304Y-114930623D01*
X122694102Y-115037774D01*
X121158000Y-115037774D01*
X121158000Y-112191780D01*
X162339952Y-112191780D01*
X162364677Y-112309621D01*
X162367737Y-112319817D01*
X162448463Y-112524229D01*
X162453194Y-112533761D01*
X162567216Y-112721662D01*
X162573480Y-112730252D01*
X162717527Y-112896252D01*
X162725158Y-112903672D01*
X162895111Y-113043026D01*
X162903878Y-113049050D01*
X163094882Y-113157776D01*
X163104546Y-113162241D01*
X163311141Y-113237231D01*
X163321408Y-113240002D01*
X163524374Y-113276704D01*
X163537614Y-113275285D01*
X163542200Y-113260650D01*
X163542200Y-113257049D01*
X164050200Y-113257049D01*
X164054510Y-113271727D01*
X164066393Y-113273790D01*
X164145525Y-113267076D01*
X164155997Y-113265286D01*
X164368735Y-113210070D01*
X164378775Y-113206535D01*
X164579170Y-113116263D01*
X164588456Y-113111094D01*
X164770775Y-112988350D01*
X164779070Y-112981681D01*
X164938100Y-112829972D01*
X164945141Y-112822014D01*
X165076341Y-112645675D01*
X165081945Y-112636638D01*
X165181557Y-112440716D01*
X165185557Y-112430865D01*
X165250734Y-112220960D01*
X165253017Y-112210576D01*
X165255061Y-112195157D01*
X165252865Y-112180993D01*
X165239678Y-112177200D01*
X164068315Y-112177200D01*
X164053076Y-112181675D01*
X164051871Y-112183065D01*
X164050200Y-112190748D01*
X164050200Y-113257049D01*
X163542200Y-113257049D01*
X163542200Y-112195315D01*
X163537725Y-112180076D01*
X163536335Y-112178871D01*
X163528652Y-112177200D01*
X162355008Y-112177200D01*
X162341477Y-112181173D01*
X162339952Y-112191780D01*
X121158000Y-112191780D01*
X121158000Y-109869743D01*
X144169175Y-109869743D01*
X144185781Y-110039099D01*
X144239494Y-110200567D01*
X144243141Y-110206589D01*
X144243142Y-110206591D01*
X144291840Y-110287000D01*
X144327646Y-110346123D01*
X144445855Y-110468532D01*
X144468784Y-110483536D01*
X144569537Y-110549467D01*
X144588246Y-110561710D01*
X144594850Y-110564166D01*
X144594852Y-110564167D01*
X144631244Y-110577701D01*
X144747741Y-110621026D01*
X144916415Y-110643532D01*
X144923426Y-110642894D01*
X144923430Y-110642894D01*
X145078862Y-110628748D01*
X145085883Y-110628109D01*
X145092585Y-110625931D01*
X145092587Y-110625931D01*
X145241023Y-110577701D01*
X145241026Y-110577700D01*
X145247722Y-110575524D01*
X145393890Y-110488390D01*
X145398984Y-110483539D01*
X145398988Y-110483536D01*
X145482475Y-110404032D01*
X145517121Y-110371039D01*
X145611291Y-110229302D01*
X145671719Y-110070225D01*
X145695401Y-109901713D01*
X145695518Y-109893364D01*
X145695644Y-109884361D01*
X145695644Y-109884355D01*
X145695699Y-109880400D01*
X145676731Y-109711292D01*
X145667053Y-109683499D01*
X145623086Y-109557246D01*
X145620768Y-109550589D01*
X145597993Y-109514143D01*
X151230375Y-109514143D01*
X151246981Y-109683499D01*
X151300694Y-109844967D01*
X151304341Y-109850989D01*
X151304342Y-109850991D01*
X151379575Y-109975214D01*
X151388846Y-109990523D01*
X151507055Y-110112932D01*
X151529626Y-110127702D01*
X151630763Y-110193884D01*
X151649446Y-110206110D01*
X151656050Y-110208566D01*
X151656052Y-110208567D01*
X151704318Y-110226517D01*
X151808941Y-110265426D01*
X151977615Y-110287932D01*
X151984626Y-110287294D01*
X151984630Y-110287294D01*
X152140062Y-110273148D01*
X152147083Y-110272509D01*
X152153785Y-110270331D01*
X152153787Y-110270331D01*
X152302223Y-110222101D01*
X152302226Y-110222100D01*
X152308922Y-110219924D01*
X152455090Y-110132790D01*
X152460184Y-110127939D01*
X152460188Y-110127936D01*
X152553475Y-110039099D01*
X152578321Y-110015439D01*
X152648720Y-109909480D01*
X152703076Y-109863811D01*
X152773496Y-109854778D01*
X152837620Y-109885251D01*
X152873225Y-109939436D01*
X152891904Y-109995587D01*
X152926294Y-110098967D01*
X152929941Y-110104989D01*
X152929942Y-110104991D01*
X153005982Y-110230547D01*
X153014446Y-110244523D01*
X153132655Y-110366932D01*
X153275046Y-110460110D01*
X153281650Y-110462566D01*
X153281652Y-110462567D01*
X153318044Y-110476101D01*
X153434541Y-110519426D01*
X153603215Y-110541932D01*
X153610226Y-110541294D01*
X153610230Y-110541294D01*
X153765662Y-110527148D01*
X153772683Y-110526509D01*
X153779385Y-110524331D01*
X153779387Y-110524331D01*
X153927823Y-110476101D01*
X153927826Y-110476100D01*
X153934522Y-110473924D01*
X154080690Y-110386790D01*
X154085784Y-110381939D01*
X154085788Y-110381936D01*
X154185480Y-110287000D01*
X154203921Y-110269439D01*
X154298091Y-110127702D01*
X154358519Y-109968625D01*
X154382201Y-109800113D01*
X154382499Y-109778800D01*
X154363531Y-109609692D01*
X154358268Y-109594577D01*
X154330257Y-109514143D01*
X154307568Y-109448989D01*
X154301733Y-109439650D01*
X154272612Y-109393048D01*
X154251320Y-109358974D01*
X162309302Y-109358974D01*
X162309502Y-109364303D01*
X162309502Y-109364305D01*
X162310581Y-109393048D01*
X162317951Y-109589358D01*
X162365293Y-109814991D01*
X162367251Y-109819950D01*
X162367252Y-109819952D01*
X162442136Y-110009568D01*
X162449976Y-110029421D01*
X162452743Y-110033980D01*
X162452744Y-110033983D01*
X162495833Y-110104991D01*
X162569577Y-110226517D01*
X162573074Y-110230547D01*
X162711782Y-110390394D01*
X162720677Y-110400645D01*
X162724808Y-110404032D01*
X162894827Y-110543440D01*
X162894833Y-110543444D01*
X162898955Y-110546824D01*
X162903598Y-110549467D01*
X162930935Y-110565029D01*
X162980241Y-110616112D01*
X162994102Y-110685742D01*
X162968118Y-110751813D01*
X162938968Y-110779051D01*
X162821622Y-110858052D01*
X162813330Y-110864719D01*
X162654300Y-111016428D01*
X162647259Y-111024386D01*
X162516059Y-111200725D01*
X162510455Y-111209762D01*
X162410843Y-111405684D01*
X162406843Y-111415535D01*
X162341666Y-111625440D01*
X162339383Y-111635824D01*
X162337339Y-111651243D01*
X162339535Y-111665407D01*
X162352722Y-111669200D01*
X165237392Y-111669200D01*
X165250923Y-111665227D01*
X165252448Y-111654620D01*
X165227723Y-111536779D01*
X165224663Y-111526583D01*
X165143937Y-111322171D01*
X165139206Y-111312639D01*
X165025184Y-111124738D01*
X165018920Y-111116148D01*
X164874873Y-110950148D01*
X164867242Y-110942728D01*
X164697289Y-110803374D01*
X164688526Y-110797352D01*
X164661489Y-110781962D01*
X164612182Y-110730880D01*
X164598320Y-110661249D01*
X164624303Y-110595178D01*
X164653453Y-110567939D01*
X164724127Y-110520358D01*
X164775519Y-110485759D01*
X164787926Y-110473924D01*
X164884353Y-110381936D01*
X164942335Y-110326624D01*
X165079954Y-110141658D01*
X165082631Y-110136394D01*
X165139542Y-110024456D01*
X165184440Y-109936149D01*
X165196359Y-109897766D01*
X165251224Y-109721071D01*
X165252807Y-109715973D01*
X165267775Y-109603038D01*
X165282398Y-109492711D01*
X165282398Y-109492706D01*
X165283098Y-109487426D01*
X165274449Y-109257042D01*
X165261104Y-109193437D01*
X165247883Y-109130427D01*
X165227107Y-109031409D01*
X165224704Y-109025323D01*
X165144385Y-108821944D01*
X165144384Y-108821942D01*
X165142424Y-108816979D01*
X165105430Y-108756014D01*
X165025590Y-108624443D01*
X165022823Y-108619883D01*
X164985582Y-108576966D01*
X164875223Y-108449788D01*
X164875221Y-108449786D01*
X164871723Y-108445755D01*
X164836080Y-108416530D01*
X164796086Y-108357871D01*
X164794154Y-108286901D01*
X164830898Y-108226152D01*
X164849668Y-108211952D01*
X164989320Y-108125532D01*
X164995548Y-108121678D01*
X165039976Y-108077173D01*
X165115334Y-108001683D01*
X165120505Y-107996503D01*
X165140089Y-107964732D01*
X165209475Y-107852168D01*
X165209476Y-107852166D01*
X165213315Y-107845938D01*
X165239764Y-107766195D01*
X165266832Y-107684589D01*
X165266832Y-107684587D01*
X165268997Y-107678061D01*
X165272344Y-107645400D01*
X165274554Y-107623826D01*
X165279700Y-107573600D01*
X165279700Y-106272800D01*
X165271756Y-106196237D01*
X165269438Y-106173892D01*
X165269437Y-106173888D01*
X165268726Y-106167034D01*
X165262287Y-106147732D01*
X165215068Y-106006202D01*
X165212750Y-105999254D01*
X165119678Y-105848852D01*
X164994503Y-105723895D01*
X164988272Y-105720054D01*
X164850168Y-105634925D01*
X164850166Y-105634924D01*
X164843938Y-105631085D01*
X164764195Y-105604636D01*
X164682589Y-105577568D01*
X164682587Y-105577568D01*
X164676061Y-105575403D01*
X164669225Y-105574703D01*
X164669222Y-105574702D01*
X164626169Y-105570291D01*
X164571600Y-105564700D01*
X163020800Y-105564700D01*
X163017554Y-105565037D01*
X163017550Y-105565037D01*
X162921892Y-105574962D01*
X162921888Y-105574963D01*
X162915034Y-105575674D01*
X162908498Y-105577855D01*
X162908496Y-105577855D01*
X162821930Y-105606736D01*
X162747254Y-105631650D01*
X162596852Y-105724722D01*
X162591679Y-105729904D01*
X162570311Y-105751309D01*
X162471895Y-105849897D01*
X162379085Y-106000462D01*
X162376781Y-106007409D01*
X162330450Y-106147094D01*
X162323403Y-106168339D01*
X162322703Y-106175175D01*
X162322702Y-106175178D01*
X162320451Y-106197151D01*
X162312700Y-106272800D01*
X162312700Y-107573600D01*
X162313037Y-107576846D01*
X162313037Y-107576850D01*
X162322087Y-107664066D01*
X162323674Y-107679366D01*
X162325855Y-107685902D01*
X162325855Y-107685904D01*
X162335551Y-107714966D01*
X162379650Y-107847146D01*
X162472722Y-107997548D01*
X162597897Y-108122505D01*
X162743540Y-108212281D01*
X162791032Y-108265052D01*
X162802456Y-108335124D01*
X162774182Y-108400248D01*
X162764395Y-108410710D01*
X162650065Y-108519776D01*
X162512446Y-108704742D01*
X162510030Y-108709493D01*
X162510028Y-108709497D01*
X162474910Y-108778570D01*
X162407960Y-108910251D01*
X162406378Y-108915345D01*
X162406377Y-108915348D01*
X162368464Y-109037448D01*
X162339593Y-109130427D01*
X162338892Y-109135716D01*
X162310186Y-109352306D01*
X162309302Y-109358974D01*
X154251320Y-109358974D01*
X154217392Y-109304679D01*
X154191805Y-109278912D01*
X154154067Y-109240910D01*
X154097486Y-109183932D01*
X154081239Y-109173621D01*
X154023955Y-109137268D01*
X153953808Y-109092751D01*
X153793500Y-109035668D01*
X153624529Y-109015520D01*
X153617526Y-109016256D01*
X153617525Y-109016256D01*
X153462301Y-109032570D01*
X153462297Y-109032571D01*
X153455293Y-109033307D01*
X153448622Y-109035578D01*
X153300873Y-109085875D01*
X153300870Y-109085876D01*
X153294203Y-109088146D01*
X153288205Y-109091836D01*
X153288203Y-109091837D01*
X153155265Y-109173621D01*
X153155263Y-109173623D01*
X153149266Y-109177312D01*
X153136569Y-109189746D01*
X153049286Y-109275221D01*
X153027686Y-109296373D01*
X153023875Y-109302287D01*
X153023873Y-109302289D01*
X152965268Y-109393226D01*
X152911553Y-109439650D01*
X152841267Y-109449665D01*
X152776723Y-109420089D01*
X152738457Y-109360377D01*
X152737931Y-109355692D01*
X152726129Y-109321800D01*
X152684286Y-109201646D01*
X152681968Y-109194989D01*
X152678182Y-109188929D01*
X152644424Y-109134907D01*
X152591792Y-109050679D01*
X152576058Y-109034834D01*
X152533864Y-108992345D01*
X152471886Y-108929932D01*
X152455639Y-108919621D01*
X152382308Y-108873084D01*
X152328208Y-108838751D01*
X152167900Y-108781668D01*
X151998929Y-108761520D01*
X151991926Y-108762256D01*
X151991925Y-108762256D01*
X151836701Y-108778570D01*
X151836697Y-108778571D01*
X151829693Y-108779307D01*
X151823022Y-108781578D01*
X151675273Y-108831875D01*
X151675270Y-108831876D01*
X151668603Y-108834146D01*
X151662605Y-108837836D01*
X151662603Y-108837837D01*
X151529665Y-108919621D01*
X151529663Y-108919623D01*
X151523666Y-108923312D01*
X151518633Y-108928241D01*
X151407953Y-109036628D01*
X151402086Y-109042373D01*
X151398275Y-109048287D01*
X151398273Y-109048289D01*
X151315123Y-109177312D01*
X151309904Y-109185410D01*
X151251703Y-109345316D01*
X151230375Y-109514143D01*
X145597993Y-109514143D01*
X145592843Y-109505901D01*
X145573708Y-109437534D01*
X145594573Y-109369672D01*
X145648814Y-109323864D01*
X145716362Y-109314239D01*
X145729140Y-109315944D01*
X145780015Y-109322732D01*
X145787026Y-109322094D01*
X145787030Y-109322094D01*
X145942462Y-109307948D01*
X145949483Y-109307309D01*
X145956185Y-109305131D01*
X145956187Y-109305131D01*
X146104623Y-109256901D01*
X146104626Y-109256900D01*
X146111322Y-109254724D01*
X146257490Y-109167590D01*
X146262584Y-109162739D01*
X146262588Y-109162736D01*
X146338562Y-109090386D01*
X146380721Y-109050239D01*
X146389220Y-109037448D01*
X146465051Y-108923312D01*
X146474891Y-108908502D01*
X146535319Y-108749425D01*
X146559001Y-108580913D01*
X146559299Y-108559600D01*
X146540331Y-108390492D01*
X146484368Y-108229789D01*
X146478383Y-108220210D01*
X146456420Y-108185064D01*
X146394192Y-108085479D01*
X146274286Y-107964732D01*
X146258039Y-107954421D01*
X146219406Y-107929904D01*
X146130608Y-107873551D01*
X145988089Y-107822802D01*
X145930626Y-107781109D01*
X145904826Y-107714966D01*
X145918881Y-107645375D01*
X145968329Y-107594429D01*
X145991417Y-107584272D01*
X145995152Y-107583058D01*
X146009722Y-107578324D01*
X146155890Y-107491190D01*
X146160984Y-107486339D01*
X146160988Y-107486336D01*
X146228233Y-107422299D01*
X146279121Y-107373839D01*
X146373291Y-107232102D01*
X146433719Y-107073025D01*
X146440476Y-107024943D01*
X153668775Y-107024943D01*
X153685381Y-107194299D01*
X153687605Y-107200984D01*
X153687605Y-107200985D01*
X153690401Y-107209391D01*
X153739094Y-107355767D01*
X153742741Y-107361789D01*
X153742742Y-107361791D01*
X153818170Y-107486336D01*
X153827246Y-107501323D01*
X153945455Y-107623732D01*
X154087846Y-107716910D01*
X154094450Y-107719366D01*
X154094452Y-107719367D01*
X154130844Y-107732901D01*
X154247341Y-107776226D01*
X154416015Y-107798732D01*
X154423026Y-107798094D01*
X154423030Y-107798094D01*
X154578462Y-107783948D01*
X154585483Y-107783309D01*
X154592185Y-107781131D01*
X154592187Y-107781131D01*
X154740623Y-107732901D01*
X154740626Y-107732900D01*
X154747322Y-107730724D01*
X154893490Y-107643590D01*
X154898584Y-107638739D01*
X154898588Y-107638736D01*
X154980584Y-107560652D01*
X155016721Y-107526239D01*
X155053316Y-107471159D01*
X155107673Y-107425490D01*
X155178093Y-107416458D01*
X155242217Y-107446932D01*
X155248898Y-107453359D01*
X155260092Y-107464950D01*
X155266255Y-107471332D01*
X155408646Y-107564510D01*
X155415250Y-107566966D01*
X155415252Y-107566967D01*
X155451644Y-107580501D01*
X155568141Y-107623826D01*
X155736815Y-107646332D01*
X155743826Y-107645694D01*
X155743830Y-107645694D01*
X155899262Y-107631548D01*
X155906283Y-107630909D01*
X155912985Y-107628731D01*
X155912987Y-107628731D01*
X156061423Y-107580501D01*
X156061426Y-107580500D01*
X156068122Y-107578324D01*
X156214290Y-107491190D01*
X156219384Y-107486339D01*
X156219388Y-107486336D01*
X156286633Y-107422299D01*
X156337521Y-107373839D01*
X156431691Y-107232102D01*
X156492119Y-107073025D01*
X156515801Y-106904513D01*
X156516099Y-106883200D01*
X156497131Y-106714092D01*
X156441168Y-106553389D01*
X156435183Y-106543810D01*
X156409682Y-106503001D01*
X156350992Y-106409079D01*
X156231086Y-106288332D01*
X156214839Y-106278021D01*
X156166058Y-106247064D01*
X156087408Y-106197151D01*
X155927100Y-106140068D01*
X155758129Y-106119920D01*
X155751126Y-106120656D01*
X155751125Y-106120656D01*
X155595901Y-106136970D01*
X155595897Y-106136971D01*
X155588893Y-106137707D01*
X155582222Y-106139978D01*
X155434473Y-106190275D01*
X155434470Y-106190276D01*
X155427803Y-106192546D01*
X155421805Y-106196236D01*
X155421803Y-106196237D01*
X155288865Y-106278021D01*
X155288863Y-106278023D01*
X155282866Y-106281712D01*
X155161286Y-106400773D01*
X155157474Y-106406688D01*
X155157470Y-106406693D01*
X155131777Y-106446561D01*
X155078063Y-106492986D01*
X155007776Y-106503001D01*
X154943233Y-106473426D01*
X154936459Y-106467089D01*
X154915248Y-106445729D01*
X154910286Y-106440732D01*
X154894039Y-106430421D01*
X154839560Y-106395848D01*
X154766608Y-106349551D01*
X154606300Y-106292468D01*
X154437329Y-106272320D01*
X154430326Y-106273056D01*
X154430325Y-106273056D01*
X154275101Y-106289370D01*
X154275097Y-106289371D01*
X154268093Y-106290107D01*
X154261422Y-106292378D01*
X154113673Y-106342675D01*
X154113670Y-106342676D01*
X154107003Y-106344946D01*
X154101005Y-106348636D01*
X154101003Y-106348637D01*
X153968065Y-106430421D01*
X153968063Y-106430423D01*
X153962066Y-106434112D01*
X153957033Y-106439041D01*
X153856101Y-106537882D01*
X153840486Y-106553173D01*
X153836675Y-106559087D01*
X153836673Y-106559089D01*
X153835133Y-106561479D01*
X153748304Y-106696210D01*
X153690103Y-106856116D01*
X153668775Y-107024943D01*
X146440476Y-107024943D01*
X146457401Y-106904513D01*
X146457699Y-106883200D01*
X146438731Y-106714092D01*
X146382768Y-106553389D01*
X146376783Y-106543810D01*
X146351282Y-106503001D01*
X146292592Y-106409079D01*
X146172686Y-106288332D01*
X146115040Y-106251749D01*
X146068244Y-106198363D01*
X146057739Y-106128148D01*
X146077609Y-106075639D01*
X146115390Y-106018773D01*
X146119291Y-106012902D01*
X146179719Y-105853825D01*
X146203401Y-105685313D01*
X146203699Y-105664000D01*
X146185547Y-105502168D01*
X146197831Y-105432242D01*
X146219154Y-105403285D01*
X146218690Y-105402895D01*
X146223219Y-105397498D01*
X146228321Y-105392639D01*
X146240743Y-105373943D01*
X149172975Y-105373943D01*
X149189581Y-105543299D01*
X149191805Y-105549984D01*
X149191805Y-105549985D01*
X149205692Y-105591732D01*
X149243294Y-105704767D01*
X149246941Y-105710789D01*
X149246942Y-105710791D01*
X149267756Y-105745158D01*
X149331446Y-105850323D01*
X149449655Y-105972732D01*
X149592046Y-106065910D01*
X149598650Y-106068366D01*
X149598652Y-106068367D01*
X149635044Y-106081901D01*
X149751541Y-106125226D01*
X149920215Y-106147732D01*
X149927226Y-106147094D01*
X149927230Y-106147094D01*
X150082662Y-106132948D01*
X150089683Y-106132309D01*
X150096385Y-106130131D01*
X150096387Y-106130131D01*
X150244823Y-106081901D01*
X150244826Y-106081900D01*
X150251522Y-106079724D01*
X150397690Y-105992590D01*
X150402784Y-105987739D01*
X150402788Y-105987736D01*
X150470033Y-105923699D01*
X150520921Y-105875239D01*
X150533619Y-105856128D01*
X150604707Y-105749131D01*
X150615091Y-105733502D01*
X150675519Y-105574425D01*
X150699201Y-105405913D01*
X150699499Y-105384600D01*
X150680531Y-105215492D01*
X150672847Y-105193425D01*
X150626886Y-105061446D01*
X150624568Y-105054789D01*
X150618583Y-105045210D01*
X150585922Y-104992943D01*
X153363975Y-104992943D01*
X153380581Y-105162299D01*
X153382805Y-105168984D01*
X153382805Y-105168985D01*
X153398276Y-105215492D01*
X153434294Y-105323767D01*
X153437941Y-105329789D01*
X153437942Y-105329791D01*
X153482216Y-105402895D01*
X153522446Y-105469323D01*
X153640655Y-105591732D01*
X153646551Y-105595590D01*
X153734807Y-105653343D01*
X153783046Y-105684910D01*
X153789650Y-105687366D01*
X153789652Y-105687367D01*
X153862794Y-105714568D01*
X153942541Y-105744226D01*
X154111215Y-105766732D01*
X154118226Y-105766094D01*
X154118230Y-105766094D01*
X154273662Y-105751948D01*
X154280683Y-105751309D01*
X154287385Y-105749131D01*
X154287387Y-105749131D01*
X154435823Y-105700901D01*
X154435826Y-105700900D01*
X154442522Y-105698724D01*
X154588690Y-105611590D01*
X154593784Y-105606739D01*
X154593788Y-105606736D01*
X154667763Y-105536290D01*
X154711921Y-105494239D01*
X154741795Y-105449276D01*
X154787187Y-105380955D01*
X154806091Y-105352502D01*
X154866519Y-105193425D01*
X154890201Y-105024913D01*
X154890499Y-105003600D01*
X154871531Y-104834492D01*
X154853639Y-104783112D01*
X154823043Y-104695254D01*
X154819529Y-104624345D01*
X154854910Y-104562792D01*
X154917953Y-104530140D01*
X154988641Y-104536754D01*
X155011027Y-104548385D01*
X155047404Y-104572189D01*
X155077846Y-104592110D01*
X155084450Y-104594566D01*
X155084452Y-104594567D01*
X155120844Y-104608101D01*
X155237341Y-104651426D01*
X155406015Y-104673932D01*
X155413026Y-104673294D01*
X155413030Y-104673294D01*
X155568462Y-104659148D01*
X155575483Y-104658509D01*
X155582185Y-104656331D01*
X155582187Y-104656331D01*
X155730623Y-104608101D01*
X155730626Y-104608100D01*
X155737322Y-104605924D01*
X155883490Y-104518790D01*
X155888584Y-104513939D01*
X155888588Y-104513936D01*
X155981466Y-104425489D01*
X156006721Y-104401439D01*
X156100891Y-104259702D01*
X156161319Y-104100625D01*
X156185001Y-103932113D01*
X156185299Y-103910800D01*
X156166331Y-103741692D01*
X156110368Y-103580989D01*
X156020192Y-103436679D01*
X155900286Y-103315932D01*
X155756608Y-103224751D01*
X155596300Y-103167668D01*
X155427329Y-103147520D01*
X155420326Y-103148256D01*
X155420325Y-103148256D01*
X155265101Y-103164570D01*
X155265097Y-103164571D01*
X155258093Y-103165307D01*
X155233754Y-103173593D01*
X155230671Y-103174642D01*
X155159739Y-103177658D01*
X155098436Y-103141847D01*
X155071077Y-103096800D01*
X155068813Y-103090297D01*
X155018768Y-102946589D01*
X155012783Y-102937010D01*
X154990820Y-102901864D01*
X154928592Y-102802279D01*
X154808686Y-102681532D01*
X154792439Y-102671221D01*
X154753806Y-102646704D01*
X154665008Y-102590351D01*
X154504700Y-102533268D01*
X154335729Y-102513120D01*
X154328726Y-102513856D01*
X154328725Y-102513856D01*
X154173501Y-102530170D01*
X154173497Y-102530171D01*
X154166493Y-102530907D01*
X154159822Y-102533178D01*
X154012073Y-102583475D01*
X154012070Y-102583476D01*
X154005403Y-102585746D01*
X153999405Y-102589436D01*
X153999403Y-102589437D01*
X153866465Y-102671221D01*
X153866463Y-102671223D01*
X153860466Y-102674912D01*
X153738886Y-102793973D01*
X153646704Y-102937010D01*
X153588503Y-103096916D01*
X153567175Y-103265743D01*
X153583781Y-103435099D01*
X153637494Y-103596567D01*
X153725646Y-103742123D01*
X153843855Y-103864532D01*
X153849751Y-103868390D01*
X153947130Y-103932113D01*
X153986246Y-103957710D01*
X153992850Y-103960166D01*
X153992852Y-103960167D01*
X154107440Y-104002782D01*
X154164316Y-104045274D01*
X154189190Y-104111771D01*
X154174165Y-104181159D01*
X154124010Y-104231409D01*
X154076691Y-104246189D01*
X154041244Y-104249914D01*
X153970301Y-104257370D01*
X153970297Y-104257371D01*
X153963293Y-104258107D01*
X153956622Y-104260378D01*
X153808873Y-104310675D01*
X153808870Y-104310676D01*
X153802203Y-104312946D01*
X153796205Y-104316636D01*
X153796203Y-104316637D01*
X153663265Y-104398421D01*
X153663263Y-104398423D01*
X153657266Y-104402112D01*
X153586710Y-104471207D01*
X153558398Y-104498932D01*
X153535686Y-104521173D01*
X153531875Y-104527087D01*
X153531873Y-104527089D01*
X153460157Y-104638370D01*
X153443504Y-104664210D01*
X153385303Y-104824116D01*
X153363975Y-104992943D01*
X150585922Y-104992943D01*
X150581551Y-104985949D01*
X150534392Y-104910479D01*
X150522353Y-104898355D01*
X150452327Y-104827838D01*
X150414486Y-104789732D01*
X150398239Y-104779421D01*
X150335949Y-104739891D01*
X150270808Y-104698551D01*
X150110500Y-104641468D01*
X149941529Y-104621320D01*
X149934526Y-104622056D01*
X149934525Y-104622056D01*
X149779301Y-104638370D01*
X149779297Y-104638371D01*
X149772293Y-104639107D01*
X149765622Y-104641378D01*
X149617873Y-104691675D01*
X149617870Y-104691676D01*
X149611203Y-104693946D01*
X149605205Y-104697636D01*
X149605203Y-104697637D01*
X149472265Y-104779421D01*
X149472263Y-104779423D01*
X149466266Y-104783112D01*
X149344686Y-104902173D01*
X149340875Y-104908087D01*
X149340873Y-104908089D01*
X149263065Y-105028823D01*
X149252504Y-105045210D01*
X149194303Y-105205116D01*
X149172975Y-105373943D01*
X146240743Y-105373943D01*
X146245390Y-105366949D01*
X146318590Y-105256773D01*
X146322491Y-105250902D01*
X146382919Y-105091825D01*
X146406601Y-104923313D01*
X146406718Y-104914964D01*
X146406844Y-104905961D01*
X146406844Y-104905955D01*
X146406899Y-104902000D01*
X146387931Y-104732892D01*
X146374369Y-104693946D01*
X146334286Y-104578846D01*
X146331968Y-104572189D01*
X146325983Y-104562610D01*
X146286191Y-104498932D01*
X146241792Y-104427879D01*
X146216205Y-104402112D01*
X146129884Y-104315186D01*
X146121886Y-104307132D01*
X146105639Y-104296821D01*
X146048355Y-104260468D01*
X145978208Y-104215951D01*
X145817900Y-104158868D01*
X145648929Y-104138720D01*
X145641926Y-104139456D01*
X145641925Y-104139456D01*
X145486701Y-104155770D01*
X145486697Y-104155771D01*
X145479693Y-104156507D01*
X145473022Y-104158778D01*
X145325273Y-104209075D01*
X145325270Y-104209076D01*
X145318603Y-104211346D01*
X145312605Y-104215036D01*
X145312603Y-104215037D01*
X145179665Y-104296821D01*
X145179663Y-104296823D01*
X145173666Y-104300512D01*
X145168633Y-104305441D01*
X145073686Y-104398421D01*
X145052086Y-104419573D01*
X145048275Y-104425487D01*
X145048273Y-104425489D01*
X144980830Y-104530140D01*
X144959904Y-104562610D01*
X144938232Y-104622154D01*
X144910426Y-104698551D01*
X144901703Y-104722516D01*
X144880375Y-104891343D01*
X144895462Y-105045210D01*
X144896981Y-105060699D01*
X144895654Y-105060829D01*
X144890818Y-105124155D01*
X144861137Y-105169575D01*
X144853917Y-105176646D01*
X144848886Y-105181573D01*
X144845075Y-105187487D01*
X144845073Y-105187489D01*
X144827026Y-105215492D01*
X144756704Y-105324610D01*
X144698503Y-105484516D01*
X144677175Y-105653343D01*
X144693781Y-105822699D01*
X144696005Y-105829384D01*
X144696005Y-105829385D01*
X144702970Y-105850323D01*
X144747494Y-105984167D01*
X144751141Y-105990189D01*
X144751142Y-105990191D01*
X144831435Y-106122769D01*
X144835646Y-106129723D01*
X144953855Y-106252132D01*
X144959751Y-106255990D01*
X144959752Y-106255991D01*
X145021358Y-106296305D01*
X145067407Y-106350342D01*
X145076930Y-106420697D01*
X145058276Y-106469992D01*
X145014524Y-106537882D01*
X145010704Y-106543810D01*
X144952503Y-106703716D01*
X144931175Y-106872543D01*
X144947781Y-107041899D01*
X145001494Y-107203367D01*
X145005141Y-107209389D01*
X145005142Y-107209391D01*
X145018897Y-107232102D01*
X145089646Y-107348923D01*
X145207855Y-107471332D01*
X145350246Y-107564510D01*
X145356850Y-107566966D01*
X145356852Y-107566967D01*
X145503685Y-107621574D01*
X145560562Y-107664066D01*
X145585435Y-107730563D01*
X145570410Y-107799951D01*
X145520255Y-107850201D01*
X145500369Y-107858949D01*
X145477675Y-107866674D01*
X145477670Y-107866676D01*
X145471003Y-107868946D01*
X145465005Y-107872636D01*
X145465003Y-107872637D01*
X145332065Y-107954421D01*
X145332063Y-107954423D01*
X145326066Y-107958112D01*
X145204486Y-108077173D01*
X145200675Y-108083087D01*
X145200673Y-108083089D01*
X145116121Y-108214287D01*
X145112304Y-108220210D01*
X145083417Y-108299576D01*
X145062200Y-108357871D01*
X145054103Y-108380116D01*
X145032775Y-108548943D01*
X145049381Y-108718299D01*
X145051605Y-108724984D01*
X145051605Y-108724985D01*
X145070431Y-108781578D01*
X145103094Y-108879767D01*
X145106741Y-108885789D01*
X145106742Y-108885791D01*
X145137074Y-108935875D01*
X145155253Y-109004505D01*
X145133442Y-109072068D01*
X145078567Y-109117114D01*
X145014380Y-109126260D01*
X144937729Y-109117120D01*
X144930726Y-109117856D01*
X144930725Y-109117856D01*
X144775501Y-109134170D01*
X144775497Y-109134171D01*
X144768493Y-109134907D01*
X144761822Y-109137178D01*
X144614073Y-109187475D01*
X144614070Y-109187476D01*
X144607403Y-109189746D01*
X144601405Y-109193436D01*
X144601403Y-109193437D01*
X144468465Y-109275221D01*
X144468463Y-109275223D01*
X144462466Y-109278912D01*
X144340886Y-109397973D01*
X144337075Y-109403887D01*
X144337073Y-109403889D01*
X144283237Y-109487426D01*
X144248704Y-109541010D01*
X144190503Y-109700916D01*
X144169175Y-109869743D01*
X121158000Y-109869743D01*
X121158000Y-99760943D01*
X151941175Y-99760943D01*
X151957781Y-99930299D01*
X152011494Y-100091767D01*
X152015141Y-100097789D01*
X152015142Y-100097791D01*
X152028897Y-100120502D01*
X152099646Y-100237323D01*
X152217855Y-100359732D01*
X152360246Y-100452910D01*
X152366850Y-100455366D01*
X152366852Y-100455367D01*
X152403244Y-100468901D01*
X152519741Y-100512226D01*
X152688415Y-100534732D01*
X152695426Y-100534094D01*
X152695430Y-100534094D01*
X152850862Y-100519948D01*
X152857883Y-100519309D01*
X152864585Y-100517131D01*
X152864587Y-100517131D01*
X153013023Y-100468901D01*
X153013026Y-100468900D01*
X153019722Y-100466724D01*
X153165890Y-100379590D01*
X153170984Y-100374739D01*
X153170988Y-100374736D01*
X153238233Y-100310699D01*
X153289121Y-100262239D01*
X153383291Y-100120502D01*
X153443719Y-99961425D01*
X153467401Y-99792913D01*
X153467699Y-99771600D01*
X153448731Y-99602492D01*
X153392768Y-99441789D01*
X153386783Y-99432210D01*
X153364820Y-99397064D01*
X153302592Y-99297479D01*
X153182686Y-99176732D01*
X153166439Y-99166421D01*
X153127806Y-99141904D01*
X153039008Y-99085551D01*
X152878700Y-99028468D01*
X152709729Y-99008320D01*
X152702726Y-99009056D01*
X152702725Y-99009056D01*
X152547501Y-99025370D01*
X152547497Y-99025371D01*
X152540493Y-99026107D01*
X152533822Y-99028378D01*
X152386073Y-99078675D01*
X152386070Y-99078676D01*
X152379403Y-99080946D01*
X152373405Y-99084636D01*
X152373403Y-99084637D01*
X152240465Y-99166421D01*
X152240463Y-99166423D01*
X152234466Y-99170112D01*
X152112886Y-99289173D01*
X152020704Y-99432210D01*
X151962503Y-99592116D01*
X151941175Y-99760943D01*
X121158000Y-99760943D01*
X121158000Y-90768943D01*
X137006375Y-90768943D01*
X137022981Y-90938299D01*
X137076694Y-91099767D01*
X137080341Y-91105789D01*
X137080342Y-91105791D01*
X137094097Y-91128502D01*
X137164846Y-91245323D01*
X137283055Y-91367732D01*
X137425446Y-91460910D01*
X137432050Y-91463366D01*
X137432052Y-91463367D01*
X137468444Y-91476901D01*
X137584941Y-91520226D01*
X137753615Y-91542732D01*
X137760626Y-91542094D01*
X137760630Y-91542094D01*
X137916062Y-91527948D01*
X137923083Y-91527309D01*
X137929785Y-91525131D01*
X137929787Y-91525131D01*
X138078223Y-91476901D01*
X138078226Y-91476900D01*
X138084922Y-91474724D01*
X138231090Y-91387590D01*
X138236184Y-91382739D01*
X138236188Y-91382736D01*
X138303433Y-91318699D01*
X138354321Y-91270239D01*
X138448491Y-91128502D01*
X138508919Y-90969425D01*
X138532601Y-90800913D01*
X138532899Y-90779600D01*
X138513931Y-90610492D01*
X138457968Y-90449789D01*
X138451983Y-90440210D01*
X138430020Y-90405064D01*
X138367792Y-90305479D01*
X138247886Y-90184732D01*
X138237980Y-90178445D01*
X138164948Y-90132098D01*
X138104208Y-90093551D01*
X137943900Y-90036468D01*
X137774929Y-90016320D01*
X137767926Y-90017056D01*
X137767925Y-90017056D01*
X137612701Y-90033370D01*
X137612697Y-90033371D01*
X137605693Y-90034107D01*
X137599022Y-90036378D01*
X137451273Y-90086675D01*
X137451270Y-90086676D01*
X137444603Y-90088946D01*
X137438605Y-90092636D01*
X137438603Y-90092637D01*
X137305665Y-90174421D01*
X137305663Y-90174423D01*
X137299666Y-90178112D01*
X137178086Y-90297173D01*
X137174275Y-90303087D01*
X137174273Y-90303089D01*
X137089721Y-90434287D01*
X137085904Y-90440210D01*
X137027703Y-90600116D01*
X137006375Y-90768943D01*
X121158000Y-90768943D01*
X121158000Y-89625943D01*
X140486175Y-89625943D01*
X140502781Y-89795299D01*
X140556494Y-89956767D01*
X140560141Y-89962789D01*
X140560142Y-89962791D01*
X140636545Y-90088946D01*
X140644646Y-90102323D01*
X140762855Y-90224732D01*
X140768751Y-90228590D01*
X140873557Y-90297173D01*
X140905246Y-90317910D01*
X140911850Y-90320366D01*
X140911852Y-90320367D01*
X140948244Y-90333901D01*
X141064741Y-90377226D01*
X141233415Y-90399732D01*
X141240426Y-90399094D01*
X141240430Y-90399094D01*
X141395862Y-90384948D01*
X141402883Y-90384309D01*
X141409585Y-90382131D01*
X141409587Y-90382131D01*
X141558023Y-90333901D01*
X141558026Y-90333900D01*
X141564722Y-90331724D01*
X141710890Y-90244590D01*
X141715984Y-90239739D01*
X141715988Y-90239736D01*
X141784584Y-90174412D01*
X141834121Y-90127239D01*
X141849280Y-90104424D01*
X141895998Y-90034107D01*
X141928291Y-89985502D01*
X141988719Y-89826425D01*
X142012401Y-89657913D01*
X142012699Y-89636600D01*
X141993731Y-89467492D01*
X141937768Y-89306789D01*
X141931783Y-89297210D01*
X141908465Y-89259895D01*
X141847592Y-89162479D01*
X141822066Y-89136774D01*
X162309302Y-89136774D01*
X162317951Y-89367158D01*
X162365293Y-89592791D01*
X162367251Y-89597750D01*
X162367252Y-89597752D01*
X162381155Y-89632955D01*
X162449976Y-89807221D01*
X162452743Y-89811780D01*
X162452744Y-89811783D01*
X162515198Y-89914703D01*
X162569577Y-90004317D01*
X162573074Y-90008347D01*
X162659638Y-90108103D01*
X162720677Y-90178445D01*
X162724808Y-90181832D01*
X162894827Y-90321240D01*
X162894833Y-90321244D01*
X162898955Y-90324624D01*
X162903591Y-90327263D01*
X162903594Y-90327265D01*
X163029780Y-90399094D01*
X163099314Y-90438675D01*
X163316025Y-90517337D01*
X163321274Y-90518286D01*
X163321277Y-90518287D01*
X163538808Y-90557623D01*
X163538815Y-90557624D01*
X163542892Y-90558361D01*
X163560614Y-90559197D01*
X163565556Y-90559430D01*
X163565563Y-90559430D01*
X163567044Y-90559500D01*
X163979090Y-90559500D01*
X164046009Y-90553822D01*
X164145609Y-90545371D01*
X164145613Y-90545370D01*
X164150920Y-90544920D01*
X164156075Y-90543582D01*
X164156081Y-90543581D01*
X164368903Y-90488343D01*
X164368907Y-90488342D01*
X164374072Y-90487001D01*
X164378938Y-90484809D01*
X164378941Y-90484808D01*
X164579402Y-90394507D01*
X164584275Y-90392312D01*
X164775519Y-90263559D01*
X164942335Y-90104424D01*
X164948380Y-90096300D01*
X165052195Y-89956767D01*
X165079954Y-89919458D01*
X165184440Y-89713949D01*
X165203066Y-89653966D01*
X165251224Y-89498871D01*
X165252807Y-89493773D01*
X165258543Y-89450497D01*
X165282398Y-89270511D01*
X165282398Y-89270506D01*
X165283098Y-89265226D01*
X165274449Y-89034842D01*
X165227107Y-88809209D01*
X165142424Y-88594779D01*
X165022823Y-88397683D01*
X164935955Y-88297576D01*
X164875223Y-88227588D01*
X164875221Y-88227586D01*
X164871723Y-88223555D01*
X164830170Y-88189484D01*
X164697573Y-88080760D01*
X164697567Y-88080756D01*
X164693445Y-88077376D01*
X164661950Y-88059448D01*
X164612645Y-88008368D01*
X164598783Y-87938738D01*
X164624766Y-87872667D01*
X164653916Y-87845427D01*
X164689842Y-87821240D01*
X164775519Y-87763559D01*
X164942335Y-87604424D01*
X165079954Y-87419458D01*
X165184440Y-87213949D01*
X165220521Y-87097752D01*
X165251224Y-86998871D01*
X165252807Y-86993773D01*
X165253508Y-86988484D01*
X165282398Y-86770511D01*
X165282398Y-86770506D01*
X165283098Y-86765226D01*
X165274449Y-86534842D01*
X165227107Y-86309209D01*
X165222166Y-86296698D01*
X165144385Y-86099744D01*
X165144384Y-86099742D01*
X165142424Y-86094779D01*
X165079465Y-85991025D01*
X165025590Y-85902243D01*
X165022823Y-85897683D01*
X164935937Y-85797555D01*
X164875223Y-85727588D01*
X164875221Y-85727586D01*
X164871723Y-85723555D01*
X164830170Y-85689484D01*
X164697573Y-85580760D01*
X164697567Y-85580756D01*
X164693445Y-85577376D01*
X164661950Y-85559448D01*
X164612645Y-85508368D01*
X164598783Y-85438738D01*
X164624766Y-85372667D01*
X164653916Y-85345427D01*
X164684816Y-85324624D01*
X164775519Y-85263559D01*
X164814142Y-85226715D01*
X164938478Y-85108103D01*
X164942335Y-85104424D01*
X165079954Y-84919458D01*
X165089651Y-84900387D01*
X165148635Y-84784373D01*
X165184440Y-84713949D01*
X165220521Y-84597752D01*
X165251224Y-84498871D01*
X165252807Y-84493773D01*
X165261312Y-84429600D01*
X165282398Y-84270511D01*
X165282398Y-84270506D01*
X165283098Y-84265226D01*
X165282671Y-84253838D01*
X165274649Y-84040173D01*
X165274449Y-84034842D01*
X165256749Y-83950481D01*
X165228202Y-83814428D01*
X165227107Y-83809209D01*
X165225148Y-83804248D01*
X165144385Y-83599744D01*
X165144384Y-83599742D01*
X165142424Y-83594779D01*
X165022823Y-83397683D01*
X164959739Y-83324985D01*
X164875223Y-83227588D01*
X164875221Y-83227586D01*
X164871723Y-83223555D01*
X164836080Y-83194330D01*
X164796086Y-83135671D01*
X164794154Y-83064701D01*
X164830898Y-83003952D01*
X164849668Y-82989752D01*
X164989320Y-82903332D01*
X164995548Y-82899478D01*
X165016474Y-82878516D01*
X165115334Y-82779483D01*
X165120505Y-82774303D01*
X165175257Y-82685479D01*
X165209475Y-82629968D01*
X165209476Y-82629966D01*
X165213315Y-82623738D01*
X165266396Y-82463704D01*
X165266832Y-82462389D01*
X165266832Y-82462387D01*
X165268997Y-82455861D01*
X165279700Y-82351400D01*
X165279700Y-81050600D01*
X165268726Y-80944834D01*
X165212750Y-80777054D01*
X165119678Y-80626652D01*
X164994503Y-80501695D01*
X164988272Y-80497854D01*
X164850168Y-80412725D01*
X164850166Y-80412724D01*
X164843938Y-80408885D01*
X164683454Y-80355655D01*
X164682589Y-80355368D01*
X164682587Y-80355368D01*
X164676061Y-80353203D01*
X164669225Y-80352503D01*
X164669222Y-80352502D01*
X164626169Y-80348091D01*
X164571600Y-80342500D01*
X163020800Y-80342500D01*
X163017554Y-80342837D01*
X163017550Y-80342837D01*
X162921892Y-80352762D01*
X162921888Y-80352763D01*
X162915034Y-80353474D01*
X162908498Y-80355655D01*
X162908496Y-80355655D01*
X162776394Y-80399728D01*
X162747254Y-80409450D01*
X162596852Y-80502522D01*
X162471895Y-80627697D01*
X162379085Y-80778262D01*
X162323403Y-80946139D01*
X162312700Y-81050600D01*
X162312700Y-82351400D01*
X162313037Y-82354646D01*
X162313037Y-82354650D01*
X162319697Y-82418833D01*
X162323674Y-82457166D01*
X162325855Y-82463702D01*
X162325855Y-82463704D01*
X162358997Y-82563041D01*
X162379650Y-82624946D01*
X162472722Y-82775348D01*
X162597897Y-82900305D01*
X162743540Y-82990081D01*
X162791032Y-83042852D01*
X162802456Y-83112924D01*
X162774182Y-83178048D01*
X162764395Y-83188510D01*
X162650065Y-83297576D01*
X162512446Y-83482542D01*
X162510030Y-83487293D01*
X162510028Y-83487297D01*
X162488934Y-83528787D01*
X162407960Y-83688051D01*
X162406378Y-83693145D01*
X162406377Y-83693148D01*
X162362700Y-83833812D01*
X162339593Y-83908227D01*
X162338892Y-83913516D01*
X162310999Y-84123973D01*
X162309302Y-84136774D01*
X162317951Y-84367158D01*
X162365293Y-84592791D01*
X162367251Y-84597750D01*
X162367252Y-84597752D01*
X162436033Y-84771914D01*
X162449976Y-84807221D01*
X162452743Y-84811780D01*
X162452744Y-84811783D01*
X162515198Y-84914703D01*
X162569577Y-85004317D01*
X162573074Y-85008347D01*
X162692635Y-85146129D01*
X162720677Y-85178445D01*
X162724808Y-85181832D01*
X162894827Y-85321240D01*
X162894833Y-85321244D01*
X162898955Y-85324624D01*
X162930450Y-85342552D01*
X162979755Y-85393632D01*
X162993617Y-85463262D01*
X162967634Y-85529333D01*
X162938484Y-85556573D01*
X162816881Y-85638441D01*
X162650065Y-85797576D01*
X162512446Y-85982542D01*
X162407960Y-86188051D01*
X162406378Y-86193145D01*
X162406377Y-86193148D01*
X162347034Y-86384264D01*
X162339593Y-86408227D01*
X162338892Y-86413516D01*
X162315400Y-86590768D01*
X162309302Y-86636774D01*
X162317951Y-86867158D01*
X162365293Y-87092791D01*
X162449976Y-87307221D01*
X162569577Y-87504317D01*
X162573074Y-87508347D01*
X162659638Y-87608103D01*
X162720677Y-87678445D01*
X162724808Y-87681832D01*
X162894827Y-87821240D01*
X162894833Y-87821244D01*
X162898955Y-87824624D01*
X162930450Y-87842552D01*
X162979755Y-87893632D01*
X162993617Y-87963262D01*
X162967634Y-88029333D01*
X162938484Y-88056573D01*
X162816881Y-88138441D01*
X162650065Y-88297576D01*
X162512446Y-88482542D01*
X162407960Y-88688051D01*
X162406378Y-88693145D01*
X162406377Y-88693148D01*
X162350432Y-88873320D01*
X162339593Y-88908227D01*
X162338892Y-88913516D01*
X162321899Y-89041732D01*
X162309302Y-89136774D01*
X141822066Y-89136774D01*
X141727686Y-89041732D01*
X141716830Y-89034842D01*
X141672806Y-89006904D01*
X141584008Y-88950551D01*
X141423700Y-88893468D01*
X141254729Y-88873320D01*
X141247726Y-88874056D01*
X141247725Y-88874056D01*
X141092501Y-88890370D01*
X141092497Y-88890371D01*
X141085493Y-88891107D01*
X141078822Y-88893378D01*
X140931073Y-88943675D01*
X140931070Y-88943676D01*
X140924403Y-88945946D01*
X140918405Y-88949636D01*
X140918403Y-88949637D01*
X140785465Y-89031421D01*
X140785463Y-89031423D01*
X140779466Y-89035112D01*
X140657886Y-89154173D01*
X140654075Y-89160087D01*
X140654073Y-89160089D01*
X140569521Y-89291287D01*
X140565704Y-89297210D01*
X140507503Y-89457116D01*
X140486175Y-89625943D01*
X121158000Y-89625943D01*
X121158000Y-86095343D01*
X136599975Y-86095343D01*
X136616581Y-86264699D01*
X136670294Y-86426167D01*
X136673941Y-86432189D01*
X136673942Y-86432191D01*
X136740340Y-86541826D01*
X136758446Y-86571723D01*
X136876655Y-86694132D01*
X137019046Y-86787310D01*
X137025650Y-86789766D01*
X137025652Y-86789767D01*
X137062044Y-86803301D01*
X137178541Y-86846626D01*
X137347215Y-86869132D01*
X137354226Y-86868494D01*
X137354230Y-86868494D01*
X137509662Y-86854348D01*
X137516683Y-86853709D01*
X137523385Y-86851531D01*
X137523387Y-86851531D01*
X137671823Y-86803301D01*
X137671826Y-86803300D01*
X137678522Y-86801124D01*
X137824690Y-86713990D01*
X137829784Y-86709139D01*
X137829788Y-86709136D01*
X137911325Y-86631489D01*
X137947921Y-86596639D01*
X138042091Y-86454902D01*
X138102519Y-86295825D01*
X138126201Y-86127313D01*
X138126499Y-86106000D01*
X138107531Y-85936892D01*
X138051568Y-85776189D01*
X138045583Y-85766610D01*
X138016562Y-85720168D01*
X137961392Y-85631879D01*
X137841486Y-85511132D01*
X137825239Y-85500821D01*
X137774202Y-85468432D01*
X137697808Y-85419951D01*
X137537500Y-85362868D01*
X137368529Y-85342720D01*
X137361526Y-85343456D01*
X137361525Y-85343456D01*
X137206301Y-85359770D01*
X137206297Y-85359771D01*
X137199293Y-85360507D01*
X137192622Y-85362778D01*
X137044873Y-85413075D01*
X137044870Y-85413076D01*
X137038203Y-85415346D01*
X137032205Y-85419036D01*
X137032203Y-85419037D01*
X136899265Y-85500821D01*
X136899263Y-85500823D01*
X136893266Y-85504512D01*
X136771686Y-85623573D01*
X136767875Y-85629487D01*
X136767873Y-85629489D01*
X136762482Y-85637854D01*
X136679504Y-85766610D01*
X136621303Y-85926516D01*
X136599975Y-86095343D01*
X121158000Y-86095343D01*
X121158000Y-83047343D01*
X121715575Y-83047343D01*
X121732181Y-83216699D01*
X121785894Y-83378167D01*
X121789541Y-83384189D01*
X121789542Y-83384191D01*
X121864828Y-83508502D01*
X121874046Y-83523723D01*
X121992255Y-83646132D01*
X122134646Y-83739310D01*
X122141250Y-83741766D01*
X122141252Y-83741767D01*
X122256633Y-83784677D01*
X122313510Y-83827169D01*
X122338112Y-83890479D01*
X122341781Y-83927899D01*
X122344005Y-83934584D01*
X122344005Y-83934585D01*
X122350956Y-83955479D01*
X122395494Y-84089367D01*
X122399141Y-84095389D01*
X122399142Y-84095391D01*
X122424205Y-84136774D01*
X122483646Y-84234923D01*
X122601855Y-84357332D01*
X122607751Y-84361190D01*
X122696007Y-84418943D01*
X122744246Y-84450510D01*
X122750850Y-84452966D01*
X122750852Y-84452967D01*
X122787244Y-84466501D01*
X122903741Y-84509826D01*
X123072415Y-84532332D01*
X123079426Y-84531694D01*
X123079430Y-84531694D01*
X123234862Y-84517548D01*
X123241883Y-84516909D01*
X123248585Y-84514731D01*
X123248587Y-84514731D01*
X123397023Y-84466501D01*
X123397026Y-84466500D01*
X123403722Y-84464324D01*
X123479849Y-84418943D01*
X145337575Y-84418943D01*
X145354181Y-84588299D01*
X145356405Y-84594984D01*
X145356405Y-84594985D01*
X145362213Y-84612445D01*
X145407894Y-84749767D01*
X145411541Y-84755789D01*
X145411542Y-84755791D01*
X145439683Y-84802256D01*
X145496046Y-84895323D01*
X145614255Y-85017732D01*
X145620151Y-85021590D01*
X145634929Y-85031261D01*
X145680977Y-85085300D01*
X145690499Y-85155655D01*
X145660473Y-85219989D01*
X145654096Y-85226711D01*
X145560086Y-85318773D01*
X145556275Y-85324687D01*
X145556273Y-85324689D01*
X145482773Y-85438738D01*
X145467904Y-85461810D01*
X145409703Y-85621716D01*
X145388375Y-85790543D01*
X145404981Y-85959899D01*
X145458694Y-86121367D01*
X145462341Y-86127389D01*
X145462342Y-86127391D01*
X145496200Y-86183296D01*
X145546846Y-86266923D01*
X145665055Y-86389332D01*
X145670951Y-86393190D01*
X145765257Y-86454902D01*
X145807446Y-86482510D01*
X145814050Y-86484966D01*
X145814052Y-86484967D01*
X145850444Y-86498501D01*
X145966941Y-86541826D01*
X146135615Y-86564332D01*
X146142626Y-86563694D01*
X146142630Y-86563694D01*
X146298062Y-86549548D01*
X146305083Y-86548909D01*
X146311785Y-86546731D01*
X146311787Y-86546731D01*
X146460223Y-86498501D01*
X146460226Y-86498500D01*
X146466922Y-86496324D01*
X146613090Y-86409190D01*
X146618184Y-86404339D01*
X146618188Y-86404336D01*
X146712600Y-86314428D01*
X146736321Y-86291839D01*
X146830491Y-86150102D01*
X146890919Y-85991025D01*
X146914601Y-85822513D01*
X146914899Y-85801200D01*
X146895931Y-85632092D01*
X146892965Y-85623573D01*
X146853219Y-85509441D01*
X146839968Y-85471389D01*
X146833983Y-85461810D01*
X146791379Y-85393632D01*
X146749792Y-85327079D01*
X146629886Y-85206332D01*
X146619152Y-85199520D01*
X146572355Y-85146129D01*
X146561853Y-85075914D01*
X146590979Y-85011166D01*
X146599778Y-85001891D01*
X146626346Y-84976591D01*
X146685521Y-84920239D01*
X146779691Y-84778502D01*
X146840119Y-84619425D01*
X146863801Y-84450913D01*
X146864099Y-84429600D01*
X146845131Y-84260492D01*
X146837991Y-84239987D01*
X146803904Y-84142105D01*
X146789168Y-84099789D01*
X146783183Y-84090210D01*
X146705325Y-83965614D01*
X146698992Y-83955479D01*
X146676698Y-83933028D01*
X146642891Y-83870599D01*
X146648203Y-83799801D01*
X146679212Y-83752999D01*
X146747414Y-83688051D01*
X146787121Y-83650239D01*
X146881291Y-83508502D01*
X146941719Y-83349425D01*
X146965401Y-83180913D01*
X146965699Y-83159600D01*
X146946731Y-82990492D01*
X146890768Y-82829789D01*
X146884783Y-82820210D01*
X146827280Y-82728189D01*
X146800592Y-82685479D01*
X146680686Y-82564732D01*
X146664439Y-82554421D01*
X146625806Y-82529904D01*
X146537008Y-82473551D01*
X146376700Y-82416468D01*
X146207729Y-82396320D01*
X146200726Y-82397056D01*
X146200725Y-82397056D01*
X146045501Y-82413370D01*
X146045497Y-82413371D01*
X146038493Y-82414107D01*
X146031822Y-82416378D01*
X145884073Y-82466675D01*
X145884070Y-82466676D01*
X145877403Y-82468946D01*
X145871405Y-82472636D01*
X145871403Y-82472637D01*
X145738465Y-82554421D01*
X145738463Y-82554423D01*
X145732466Y-82558112D01*
X145610886Y-82677173D01*
X145607075Y-82683087D01*
X145607073Y-82683089D01*
X145548289Y-82774303D01*
X145518704Y-82820210D01*
X145460503Y-82980116D01*
X145439175Y-83148943D01*
X145455781Y-83318299D01*
X145509494Y-83479767D01*
X145513141Y-83485789D01*
X145513142Y-83485791D01*
X145582366Y-83600092D01*
X145597646Y-83625323D01*
X145627524Y-83656262D01*
X145660456Y-83719157D01*
X145654157Y-83789874D01*
X145625045Y-83833812D01*
X145509286Y-83947173D01*
X145505475Y-83953087D01*
X145505473Y-83953089D01*
X145449351Y-84040173D01*
X145417104Y-84090210D01*
X145358903Y-84250116D01*
X145337575Y-84418943D01*
X123479849Y-84418943D01*
X123549890Y-84377190D01*
X123554984Y-84372339D01*
X123554988Y-84372336D01*
X123661914Y-84270511D01*
X123673121Y-84259839D01*
X123767291Y-84118102D01*
X123827719Y-83959025D01*
X123851401Y-83790513D01*
X123851699Y-83769200D01*
X123832731Y-83600092D01*
X123776768Y-83439389D01*
X123686592Y-83295079D01*
X123566686Y-83174332D01*
X123526680Y-83148943D01*
X123505766Y-83135671D01*
X123423008Y-83083151D01*
X123311683Y-83043510D01*
X123254219Y-83001816D01*
X123228735Y-82938855D01*
X123223916Y-82895891D01*
X123223131Y-82888892D01*
X123167168Y-82728189D01*
X123161183Y-82718610D01*
X123132212Y-82672248D01*
X123076992Y-82583879D01*
X123051405Y-82558112D01*
X122965084Y-82471186D01*
X122957086Y-82463132D01*
X122947686Y-82457166D01*
X122883555Y-82416468D01*
X122813408Y-82371951D01*
X122653100Y-82314868D01*
X122484129Y-82294720D01*
X122477126Y-82295456D01*
X122477125Y-82295456D01*
X122321901Y-82311770D01*
X122321897Y-82311771D01*
X122314893Y-82312507D01*
X122308222Y-82314778D01*
X122160473Y-82365075D01*
X122160470Y-82365076D01*
X122153803Y-82367346D01*
X122147805Y-82371036D01*
X122147803Y-82371037D01*
X122014865Y-82452821D01*
X122014863Y-82452823D01*
X122008866Y-82456512D01*
X122003833Y-82461441D01*
X121893254Y-82569729D01*
X121887286Y-82575573D01*
X121883475Y-82581487D01*
X121883473Y-82581489D01*
X121812605Y-82691454D01*
X121795104Y-82718610D01*
X121736903Y-82878516D01*
X121715575Y-83047343D01*
X121158000Y-83047343D01*
X121158000Y-74427703D01*
X122985743Y-74427703D01*
X123023268Y-74712734D01*
X123099129Y-74990036D01*
X123100813Y-74993984D01*
X123187425Y-75197041D01*
X123211923Y-75254476D01*
X123286473Y-75379040D01*
X123335425Y-75460832D01*
X123359561Y-75501161D01*
X123539313Y-75725528D01*
X123747851Y-75923423D01*
X123981317Y-76091186D01*
X123985112Y-76093195D01*
X123985113Y-76093196D01*
X124006869Y-76104715D01*
X124235392Y-76225712D01*
X124370382Y-76275111D01*
X124395325Y-76284239D01*
X124505373Y-76324511D01*
X124786264Y-76385755D01*
X124814841Y-76388004D01*
X125009282Y-76403307D01*
X125009291Y-76403307D01*
X125011739Y-76403500D01*
X125167271Y-76403500D01*
X125169407Y-76403354D01*
X125169418Y-76403354D01*
X125377548Y-76389165D01*
X125377554Y-76389164D01*
X125381825Y-76388873D01*
X125386020Y-76388004D01*
X125386022Y-76388004D01*
X125522584Y-76359723D01*
X125663342Y-76330574D01*
X125934343Y-76234607D01*
X126189812Y-76102750D01*
X126193313Y-76100289D01*
X126193317Y-76100287D01*
X126413855Y-75945290D01*
X126425023Y-75937441D01*
X126584052Y-75789662D01*
X126591283Y-75782943D01*
X137819175Y-75782943D01*
X137835781Y-75952299D01*
X137889494Y-76113767D01*
X137893141Y-76119789D01*
X137893142Y-76119791D01*
X137961487Y-76232641D01*
X137977646Y-76259323D01*
X138095855Y-76381732D01*
X138238246Y-76474910D01*
X138244850Y-76477366D01*
X138244852Y-76477367D01*
X138281244Y-76490901D01*
X138397741Y-76534226D01*
X138566415Y-76556732D01*
X138573426Y-76556094D01*
X138573430Y-76556094D01*
X138728862Y-76541948D01*
X138735883Y-76541309D01*
X138742585Y-76539131D01*
X138742587Y-76539131D01*
X138891023Y-76490901D01*
X138891026Y-76490900D01*
X138897722Y-76488724D01*
X139043890Y-76401590D01*
X139048984Y-76396739D01*
X139048988Y-76396736D01*
X139126380Y-76323036D01*
X139167121Y-76284239D01*
X139200097Y-76234607D01*
X139257390Y-76148373D01*
X139261291Y-76142502D01*
X139321719Y-75983425D01*
X139345401Y-75814913D01*
X139345699Y-75793600D01*
X139326731Y-75624492D01*
X139270768Y-75463789D01*
X139264783Y-75454210D01*
X139242820Y-75419064D01*
X139180592Y-75319479D01*
X139060686Y-75198732D01*
X139044439Y-75188421D01*
X139005806Y-75163904D01*
X138917008Y-75107551D01*
X138756700Y-75050468D01*
X138587729Y-75030320D01*
X138580726Y-75031056D01*
X138580725Y-75031056D01*
X138425501Y-75047370D01*
X138425497Y-75047371D01*
X138418493Y-75048107D01*
X138411822Y-75050378D01*
X138264073Y-75100675D01*
X138264070Y-75100676D01*
X138257403Y-75102946D01*
X138251405Y-75106636D01*
X138251403Y-75106637D01*
X138118465Y-75188421D01*
X138118463Y-75188423D01*
X138112466Y-75192112D01*
X137990886Y-75311173D01*
X137898704Y-75454210D01*
X137840503Y-75614116D01*
X137819175Y-75782943D01*
X126591283Y-75782943D01*
X126632479Y-75744661D01*
X126632481Y-75744658D01*
X126635622Y-75741740D01*
X126817713Y-75519268D01*
X126967927Y-75274142D01*
X127039397Y-75111330D01*
X127081757Y-75014830D01*
X127083483Y-75010898D01*
X127162244Y-74734406D01*
X127202751Y-74449784D01*
X127202845Y-74431951D01*
X127202867Y-74427703D01*
X161085743Y-74427703D01*
X161123268Y-74712734D01*
X161199129Y-74990036D01*
X161200813Y-74993984D01*
X161287425Y-75197041D01*
X161311923Y-75254476D01*
X161386473Y-75379040D01*
X161435425Y-75460832D01*
X161459561Y-75501161D01*
X161639313Y-75725528D01*
X161847851Y-75923423D01*
X162081317Y-76091186D01*
X162085112Y-76093195D01*
X162085113Y-76093196D01*
X162106869Y-76104715D01*
X162335392Y-76225712D01*
X162470382Y-76275111D01*
X162495325Y-76284239D01*
X162605373Y-76324511D01*
X162886264Y-76385755D01*
X162914841Y-76388004D01*
X163109282Y-76403307D01*
X163109291Y-76403307D01*
X163111739Y-76403500D01*
X163267271Y-76403500D01*
X163269407Y-76403354D01*
X163269418Y-76403354D01*
X163477548Y-76389165D01*
X163477554Y-76389164D01*
X163481825Y-76388873D01*
X163486020Y-76388004D01*
X163486022Y-76388004D01*
X163622584Y-76359723D01*
X163763342Y-76330574D01*
X164034343Y-76234607D01*
X164289812Y-76102750D01*
X164293313Y-76100289D01*
X164293317Y-76100287D01*
X164513855Y-75945290D01*
X164525023Y-75937441D01*
X164684052Y-75789662D01*
X164732479Y-75744661D01*
X164732481Y-75744658D01*
X164735622Y-75741740D01*
X164917713Y-75519268D01*
X165067927Y-75274142D01*
X165139397Y-75111330D01*
X165181757Y-75014830D01*
X165183483Y-75010898D01*
X165262244Y-74734406D01*
X165302751Y-74449784D01*
X165302845Y-74431951D01*
X165304235Y-74166583D01*
X165304235Y-74166576D01*
X165304257Y-74162297D01*
X165266732Y-73877266D01*
X165190871Y-73599964D01*
X165151685Y-73508094D01*
X165079763Y-73339476D01*
X165079761Y-73339472D01*
X165078077Y-73335524D01*
X164937342Y-73100373D01*
X164932643Y-73092521D01*
X164932640Y-73092517D01*
X164930439Y-73088839D01*
X164750687Y-72864472D01*
X164542149Y-72666577D01*
X164308683Y-72498814D01*
X164286843Y-72487250D01*
X164151876Y-72415789D01*
X164054608Y-72364288D01*
X163817323Y-72277454D01*
X163788658Y-72266964D01*
X163788656Y-72266963D01*
X163784627Y-72265489D01*
X163503736Y-72204245D01*
X163472685Y-72201801D01*
X163280718Y-72186693D01*
X163280709Y-72186693D01*
X163278261Y-72186500D01*
X163122729Y-72186500D01*
X163120593Y-72186646D01*
X163120582Y-72186646D01*
X162912452Y-72200835D01*
X162912446Y-72200836D01*
X162908175Y-72201127D01*
X162903980Y-72201996D01*
X162903978Y-72201996D01*
X162805277Y-72222436D01*
X162626658Y-72259426D01*
X162355657Y-72355393D01*
X162100188Y-72487250D01*
X162096687Y-72489711D01*
X162096683Y-72489713D01*
X162086594Y-72496804D01*
X161864977Y-72652559D01*
X161654378Y-72848260D01*
X161472287Y-73070732D01*
X161322073Y-73315858D01*
X161320347Y-73319791D01*
X161320346Y-73319792D01*
X161305510Y-73353590D01*
X161206517Y-73579102D01*
X161127756Y-73855594D01*
X161087249Y-74140216D01*
X161087227Y-74144505D01*
X161087226Y-74144512D01*
X161085765Y-74423417D01*
X161085743Y-74427703D01*
X127202867Y-74427703D01*
X127204235Y-74166583D01*
X127204235Y-74166576D01*
X127204257Y-74162297D01*
X127166732Y-73877266D01*
X127090871Y-73599964D01*
X127051685Y-73508094D01*
X126979763Y-73339476D01*
X126979761Y-73339472D01*
X126978077Y-73335524D01*
X126837342Y-73100373D01*
X126832643Y-73092521D01*
X126832640Y-73092517D01*
X126830439Y-73088839D01*
X126650687Y-72864472D01*
X126514192Y-72734943D01*
X149604775Y-72734943D01*
X149621381Y-72904299D01*
X149675094Y-73065767D01*
X149678741Y-73071789D01*
X149678742Y-73071791D01*
X149692497Y-73094502D01*
X149763246Y-73211323D01*
X149881455Y-73333732D01*
X150023846Y-73426910D01*
X150030450Y-73429366D01*
X150030452Y-73429367D01*
X150066844Y-73442901D01*
X150183341Y-73486226D01*
X150352015Y-73508732D01*
X150359026Y-73508094D01*
X150359030Y-73508094D01*
X150514462Y-73493948D01*
X150521483Y-73493309D01*
X150528185Y-73491131D01*
X150528187Y-73491131D01*
X150676623Y-73442901D01*
X150676626Y-73442900D01*
X150683322Y-73440724D01*
X150829490Y-73353590D01*
X150834584Y-73348739D01*
X150834588Y-73348736D01*
X150901833Y-73284699D01*
X150952721Y-73236239D01*
X150961345Y-73223260D01*
X151042990Y-73100373D01*
X151046891Y-73094502D01*
X151107319Y-72935425D01*
X151131001Y-72766913D01*
X151131299Y-72745600D01*
X151112331Y-72576492D01*
X151056368Y-72415789D01*
X151050383Y-72406210D01*
X151024186Y-72364288D01*
X150966192Y-72271479D01*
X150846286Y-72150732D01*
X150830039Y-72140421D01*
X150791406Y-72115904D01*
X150702608Y-72059551D01*
X150542300Y-72002468D01*
X150373329Y-71982320D01*
X150366326Y-71983056D01*
X150366325Y-71983056D01*
X150211101Y-71999370D01*
X150211097Y-71999371D01*
X150204093Y-72000107D01*
X150197422Y-72002378D01*
X150049673Y-72052675D01*
X150049670Y-72052676D01*
X150043003Y-72054946D01*
X150037005Y-72058636D01*
X150037003Y-72058637D01*
X149904065Y-72140421D01*
X149904063Y-72140423D01*
X149898066Y-72144112D01*
X149776486Y-72263173D01*
X149772675Y-72269087D01*
X149772673Y-72269089D01*
X149712272Y-72362813D01*
X149684304Y-72406210D01*
X149650599Y-72498814D01*
X149637416Y-72535035D01*
X149626103Y-72566116D01*
X149604775Y-72734943D01*
X126514192Y-72734943D01*
X126442149Y-72666577D01*
X126208683Y-72498814D01*
X126186843Y-72487250D01*
X126051876Y-72415789D01*
X125954608Y-72364288D01*
X125717323Y-72277454D01*
X125688658Y-72266964D01*
X125688656Y-72266963D01*
X125684627Y-72265489D01*
X125403736Y-72204245D01*
X125372685Y-72201801D01*
X125180718Y-72186693D01*
X125180709Y-72186693D01*
X125178261Y-72186500D01*
X125022729Y-72186500D01*
X125020593Y-72186646D01*
X125020582Y-72186646D01*
X124812452Y-72200835D01*
X124812446Y-72200836D01*
X124808175Y-72201127D01*
X124803980Y-72201996D01*
X124803978Y-72201996D01*
X124705277Y-72222436D01*
X124526658Y-72259426D01*
X124255657Y-72355393D01*
X124000188Y-72487250D01*
X123996687Y-72489711D01*
X123996683Y-72489713D01*
X123986594Y-72496804D01*
X123764977Y-72652559D01*
X123554378Y-72848260D01*
X123372287Y-73070732D01*
X123222073Y-73315858D01*
X123220347Y-73319791D01*
X123220346Y-73319792D01*
X123205510Y-73353590D01*
X123106517Y-73579102D01*
X123027756Y-73855594D01*
X122987249Y-74140216D01*
X122987227Y-74144505D01*
X122987226Y-74144512D01*
X122985765Y-74423417D01*
X122985743Y-74427703D01*
X121158000Y-74427703D01*
X121158000Y-74344328D01*
X121159500Y-74324943D01*
X121161805Y-74310142D01*
X121161805Y-74310139D01*
X121163186Y-74301270D01*
X121160584Y-74281374D01*
X121159654Y-74259216D01*
X121174525Y-73937557D01*
X121175599Y-73925968D01*
X121224231Y-73577342D01*
X121226370Y-73565903D01*
X121281421Y-73331837D01*
X121306959Y-73223256D01*
X121310143Y-73212065D01*
X121312411Y-73205300D01*
X121422006Y-72878315D01*
X121426210Y-72867463D01*
X121568391Y-72545453D01*
X121573571Y-72535048D01*
X121744867Y-72227513D01*
X121750983Y-72217636D01*
X121772180Y-72186693D01*
X121949914Y-71927233D01*
X121956928Y-71917945D01*
X122181806Y-71647135D01*
X122189647Y-71638535D01*
X122438535Y-71389647D01*
X122447135Y-71381806D01*
X122717945Y-71156928D01*
X122727233Y-71149914D01*
X123017636Y-70950983D01*
X123027513Y-70944867D01*
X123335048Y-70773571D01*
X123345453Y-70768391D01*
X123667463Y-70626210D01*
X123678315Y-70622006D01*
X123845190Y-70566075D01*
X124012074Y-70510140D01*
X124023256Y-70506959D01*
X124172512Y-70471855D01*
X124365903Y-70426370D01*
X124377342Y-70424231D01*
X124725968Y-70375599D01*
X124737556Y-70374525D01*
X124762609Y-70373367D01*
X125051816Y-70359997D01*
X125077015Y-70361362D01*
X125079858Y-70361805D01*
X125079860Y-70361805D01*
X125088730Y-70363186D01*
X125097632Y-70362022D01*
X125097635Y-70362022D01*
X125120251Y-70359064D01*
X125136589Y-70358000D01*
X163177574Y-70358000D01*
X163196959Y-70359500D01*
G37*
%TD.AperFunction*%
%TD*%
M02*
