M48
; DRILL file {KiCad (6.0.1-0)} date Monday, October 24, 2022 at 06:59:55 PM
; FORMAT={-:-/ absolute / inch / decimal}
; #@! TF.CreationDate,2022-10-24T18:59:55-05:00
; #@! TF.GenerationSoftware,Kicad,Pcbnew,(6.0.1-0)
; #@! TF.FileFunction,Plated,1,4,PTH
FMAT,2
INCH
; #@! TA.AperFunction,Plated,PTH,ViaDrill
T1C0.0079
; #@! TA.AperFunction,Plated,PTH,ComponentDrill
T2C0.0374
; #@! TA.AperFunction,Plated,PTH,ComponentDrill
T3C0.0394
%
G90
G05
T1
X4.822Y-3.27
X4.846Y-3.298
X4.865Y-4.3
X5.036Y-3.286
X5.12Y-2.82
X5.12Y-2.86
X5.12Y-2.9
X5.12Y-2.935
X5.12Y-2.97
X5.12Y-3.005
X5.16Y-2.82
X5.16Y-2.86
X5.16Y-2.9
X5.16Y-2.935
X5.16Y-2.97
X5.16Y-3.005
X5.2Y-2.82
X5.2Y-2.86
X5.2Y-2.9
X5.32Y-4.46
X5.396Y-3.72
X5.408Y-3.39
X5.424Y-3.574
X5.4294Y-4.0534
X5.435Y-4.56
X5.456Y-2.984
X5.506Y-4.32
X5.561Y-3.529
X5.606Y-4.324
X5.628Y-3.424
X5.63Y-3.474
X5.65Y-4.322
X5.706Y-4.326
X5.726Y-4.16
X5.734Y-4.13
X5.736Y-4.208
X5.74Y-4.274
X5.752Y-3.324
X5.754Y-3.378
X5.756Y-3.274
X5.903Y-4.149
X5.912Y-4.636
X5.918Y-4.706
X5.92Y-2.864
X5.928Y-4.548
X5.984Y-4.312
X6.012Y-3.928
X6.028Y-4.874
X6.03Y-4.802
X6.048Y-3.68
X6.048Y-4.322
X6.066Y-4.168
X6.068Y-4.134
X6.074Y-4.584
X6.076Y-4.066
X6.08Y-4.214
X6.119Y-4.091
X6.132Y-4.208
X6.22Y-4.056
X6.234Y-4.134
T2
X6.4487Y-3.2166
X6.4487Y-3.315
X6.4487Y-3.4134
X6.4487Y-3.5119
X6.4487Y-4.2096
X6.4487Y-4.308
X6.4487Y-4.4064
T3
X4.89Y-4.5316
X4.89Y-4.63
T0
M30
