%TF.GenerationSoftware,KiCad,Pcbnew,(6.0.1-0)*%
%TF.CreationDate,2022-12-01T23:09:06-06:00*%
%TF.ProjectId,tackle_sensor_hardware,7461636b-6c65-45f7-9365-6e736f725f68,rev?*%
%TF.SameCoordinates,Original*%
%TF.FileFunction,Paste,Top*%
%TF.FilePolarity,Positive*%
%FSLAX46Y46*%
G04 Gerber Fmt 4.6, Leading zero omitted, Abs format (unit mm)*
G04 Created by KiCad (PCBNEW (6.0.1-0)) date 2022-12-01 23:09:06*
%MOMM*%
%LPD*%
G01*
G04 APERTURE LIST*
G04 Aperture macros list*
%AMRoundRect*
0 Rectangle with rounded corners*
0 $1 Rounding radius*
0 $2 $3 $4 $5 $6 $7 $8 $9 X,Y pos of 4 corners*
0 Add a 4 corners polygon primitive as box body*
4,1,4,$2,$3,$4,$5,$6,$7,$8,$9,$2,$3,0*
0 Add four circle primitives for the rounded corners*
1,1,$1+$1,$2,$3*
1,1,$1+$1,$4,$5*
1,1,$1+$1,$6,$7*
1,1,$1+$1,$8,$9*
0 Add four rect primitives between the rounded corners*
20,1,$1+$1,$2,$3,$4,$5,0*
20,1,$1+$1,$4,$5,$6,$7,0*
20,1,$1+$1,$6,$7,$8,$9,0*
20,1,$1+$1,$8,$9,$2,$3,0*%
G04 Aperture macros list end*
%ADD10RoundRect,0.200000X-0.275000X0.200000X-0.275000X-0.200000X0.275000X-0.200000X0.275000X0.200000X0*%
%ADD11R,0.450000X1.450000*%
%ADD12RoundRect,0.135000X-0.135000X-0.185000X0.135000X-0.185000X0.135000X0.185000X-0.135000X0.185000X0*%
%ADD13R,0.760000X2.400000*%
%ADD14RoundRect,0.250000X0.312500X0.625000X-0.312500X0.625000X-0.312500X-0.625000X0.312500X-0.625000X0*%
%ADD15R,0.700000X1.200000*%
%ADD16RoundRect,0.225000X0.225000X0.250000X-0.225000X0.250000X-0.225000X-0.250000X0.225000X-0.250000X0*%
%ADD17RoundRect,0.250000X0.312500X1.075000X-0.312500X1.075000X-0.312500X-1.075000X0.312500X-1.075000X0*%
%ADD18R,0.350000X0.375000*%
%ADD19R,0.375000X0.350000*%
%ADD20RoundRect,0.225000X-0.225000X-0.250000X0.225000X-0.250000X0.225000X0.250000X-0.225000X0.250000X0*%
%ADD21RoundRect,0.200000X0.200000X0.275000X-0.200000X0.275000X-0.200000X-0.275000X0.200000X-0.275000X0*%
%ADD22RoundRect,0.250000X0.250000X0.475000X-0.250000X0.475000X-0.250000X-0.475000X0.250000X-0.475000X0*%
%ADD23RoundRect,0.250000X1.500000X0.550000X-1.500000X0.550000X-1.500000X-0.550000X1.500000X-0.550000X0*%
%ADD24RoundRect,0.135000X-0.185000X0.135000X-0.185000X-0.135000X0.185000X-0.135000X0.185000X0.135000X0*%
%ADD25C,0.254000*%
%ADD26RoundRect,0.250000X0.550000X-1.500000X0.550000X1.500000X-0.550000X1.500000X-0.550000X-1.500000X0*%
%ADD27R,1.550000X1.300000*%
%ADD28RoundRect,0.100000X0.637500X0.100000X-0.637500X0.100000X-0.637500X-0.100000X0.637500X-0.100000X0*%
%ADD29RoundRect,0.150000X-0.825000X-0.150000X0.825000X-0.150000X0.825000X0.150000X-0.825000X0.150000X0*%
%ADD30RoundRect,0.135000X0.135000X0.185000X-0.135000X0.185000X-0.135000X-0.185000X0.135000X-0.185000X0*%
%ADD31R,1.955800X2.362200*%
%ADD32R,2.750000X3.050000*%
%ADD33R,1.200000X2.200000*%
%ADD34RoundRect,0.140000X0.170000X-0.140000X0.170000X0.140000X-0.170000X0.140000X-0.170000X-0.140000X0*%
%ADD35RoundRect,0.140000X-0.140000X-0.170000X0.140000X-0.170000X0.140000X0.170000X-0.140000X0.170000X0*%
%ADD36RoundRect,0.218750X0.218750X0.256250X-0.218750X0.256250X-0.218750X-0.256250X0.218750X-0.256250X0*%
%ADD37R,1.500000X2.000000*%
%ADD38R,3.800000X2.000000*%
%ADD39RoundRect,0.250000X-0.250000X-0.475000X0.250000X-0.475000X0.250000X0.475000X-0.250000X0.475000X0*%
%ADD40R,3.050000X2.750000*%
%ADD41R,2.200000X1.200000*%
%ADD42R,0.900000X1.200000*%
%ADD43R,1.000000X0.800000*%
%ADD44RoundRect,0.250000X-0.312500X-1.075000X0.312500X-1.075000X0.312500X1.075000X-0.312500X1.075000X0*%
%ADD45RoundRect,0.250000X0.475000X-0.250000X0.475000X0.250000X-0.475000X0.250000X-0.475000X-0.250000X0*%
%ADD46R,1.100000X1.100000*%
G04 APERTURE END LIST*
D10*
%TO.C,R14*%
X143764000Y-74574400D03*
X143764000Y-76224400D03*
%TD*%
D11*
%TO.C,U2*%
X124165000Y-80858000D03*
X123515000Y-80858000D03*
X122865000Y-80858000D03*
X122215000Y-80858000D03*
X122215000Y-85258000D03*
X122865000Y-85258000D03*
X123515000Y-85258000D03*
X124165000Y-85258000D03*
%TD*%
D12*
%TO.C,R16*%
X156514800Y-108407200D03*
X157534800Y-108407200D03*
%TD*%
D13*
%TO.C,J1*%
X144932400Y-112045200D03*
X144932400Y-115945200D03*
X143662400Y-112045200D03*
X143662400Y-115945200D03*
X142392400Y-112045200D03*
X142392400Y-115945200D03*
X141122400Y-112045200D03*
X141122400Y-115945200D03*
X139852400Y-112045200D03*
X139852400Y-115945200D03*
%TD*%
D14*
%TO.C,R7*%
X133938200Y-77978000D03*
X131013200Y-77978000D03*
%TD*%
D12*
%TO.C,R1*%
X136017000Y-115824000D03*
X137037000Y-115824000D03*
%TD*%
D15*
%TO.C,SW2*%
X144439000Y-119559000D03*
X146939000Y-119559000D03*
X149439000Y-119559000D03*
X144439000Y-126059000D03*
X146939000Y-126059000D03*
X149439000Y-126059000D03*
%TD*%
D16*
%TO.C,C11*%
X153238800Y-115519200D03*
X151688800Y-115519200D03*
%TD*%
D17*
%TO.C,R19*%
X155934600Y-86258400D03*
X153009600Y-86258400D03*
%TD*%
%TO.C,R17*%
X155833000Y-81534000D03*
X152908000Y-81534000D03*
%TD*%
D18*
%TO.C,U3*%
X153454800Y-112521500D03*
X152954800Y-112521500D03*
X152454800Y-112521500D03*
X151954800Y-112521500D03*
D19*
X151942300Y-113034000D03*
X151942300Y-113534000D03*
D18*
X151954800Y-114046500D03*
X152454800Y-114046500D03*
X152954800Y-114046500D03*
X153454800Y-114046500D03*
D19*
X153467300Y-113534000D03*
X153467300Y-113034000D03*
%TD*%
D20*
%TO.C,C7*%
X155422000Y-103022400D03*
X156972000Y-103022400D03*
%TD*%
D21*
%TO.C,R12*%
X156006800Y-123748800D03*
X154356800Y-123748800D03*
%TD*%
D22*
%TO.C,C3*%
X124206000Y-87757000D03*
X122306000Y-87757000D03*
%TD*%
D23*
%TO.C,C2*%
X128938000Y-107569000D03*
X123538000Y-107569000D03*
%TD*%
D24*
%TO.C,R3*%
X146964400Y-112264000D03*
X146964400Y-113284000D03*
%TD*%
D10*
%TO.C,R11*%
X149453600Y-74574400D03*
X149453600Y-76224400D03*
%TD*%
D12*
%TO.C,R4*%
X125776800Y-84785200D03*
X126796800Y-84785200D03*
%TD*%
D25*
%TO.C,TP11*%
X152654000Y-111455200D03*
%TD*%
D26*
%TO.C,C15*%
X155905200Y-98864400D03*
X155905200Y-93464400D03*
%TD*%
D27*
%TO.C,SW1*%
X144238800Y-107456800D03*
X136278800Y-107456800D03*
X144238800Y-102956800D03*
X136278800Y-102956800D03*
%TD*%
D28*
%TO.C,U1*%
X152773300Y-108385800D03*
X152773300Y-107735800D03*
X152773300Y-107085800D03*
X152773300Y-106435800D03*
X152773300Y-105785800D03*
X152773300Y-105135800D03*
X152773300Y-104485800D03*
X152773300Y-103835800D03*
X152773300Y-103185800D03*
X152773300Y-102535800D03*
X147048300Y-102535800D03*
X147048300Y-103185800D03*
X147048300Y-103835800D03*
X147048300Y-104485800D03*
X147048300Y-105135800D03*
X147048300Y-105785800D03*
X147048300Y-106435800D03*
X147048300Y-107085800D03*
X147048300Y-107735800D03*
X147048300Y-108385800D03*
%TD*%
D12*
%TO.C,R18*%
X156464000Y-106883200D03*
X157484000Y-106883200D03*
%TD*%
D22*
%TO.C,C9*%
X153233200Y-117500400D03*
X151333200Y-117500400D03*
%TD*%
D29*
%TO.C,U5*%
X144591000Y-79375000D03*
X144591000Y-80645000D03*
X144591000Y-81915000D03*
X144591000Y-83185000D03*
X144591000Y-84455000D03*
X144591000Y-85725000D03*
X144591000Y-86995000D03*
X144591000Y-88265000D03*
X149541000Y-88265000D03*
X149541000Y-86995000D03*
X149541000Y-85725000D03*
X149541000Y-84455000D03*
X149541000Y-83185000D03*
X149541000Y-81915000D03*
X149541000Y-80645000D03*
X149541000Y-79375000D03*
%TD*%
D25*
%TO.C,TP13*%
X152400000Y-110642400D03*
%TD*%
%TO.C,TP8*%
X151028400Y-110490000D03*
%TD*%
D30*
%TO.C,R9*%
X136855200Y-90779600D03*
X135835200Y-90779600D03*
%TD*%
D12*
%TO.C,R2*%
X125827600Y-80970000D03*
X126847600Y-80970000D03*
%TD*%
D31*
%TO.C,T1*%
X129770000Y-90690700D03*
X126770000Y-90690700D03*
X126770000Y-101333300D03*
X129770000Y-101333300D03*
%TD*%
D30*
%TO.C,R8*%
X139801600Y-90779600D03*
X138781600Y-90779600D03*
%TD*%
%TO.C,R5*%
X153519600Y-119583200D03*
X152499600Y-119583200D03*
%TD*%
D32*
%TO.C,Q1*%
X134622000Y-126746000D03*
X131572000Y-123396000D03*
X131572000Y-126746000D03*
X134622000Y-123396000D03*
D33*
X135377000Y-118771000D03*
X130817000Y-118771000D03*
%TD*%
D34*
%TO.C,C6*%
X127000000Y-79801600D03*
X127000000Y-78841600D03*
%TD*%
D10*
%TO.C,R13*%
X146608800Y-74574400D03*
X146608800Y-76224400D03*
%TD*%
D35*
%TO.C,C8*%
X125831600Y-83459200D03*
X126791600Y-83459200D03*
%TD*%
D36*
%TO.C,D3*%
X155943800Y-122021600D03*
X154368800Y-122021600D03*
%TD*%
D12*
%TO.C,R6*%
X125829600Y-82189200D03*
X126849600Y-82189200D03*
%TD*%
D34*
%TO.C,C5*%
X125831600Y-79801600D03*
X125831600Y-78841600D03*
%TD*%
D16*
%TO.C,C10*%
X128320800Y-87884000D03*
X126770800Y-87884000D03*
%TD*%
D37*
%TO.C,U4*%
X150585200Y-93471600D03*
X148285200Y-93471600D03*
D38*
X148285200Y-99771600D03*
D37*
X145985200Y-93471600D03*
%TD*%
D39*
%TO.C,C14*%
X152430400Y-90322400D03*
X154330400Y-90322400D03*
%TD*%
D23*
%TO.C,C12*%
X142652400Y-96012000D03*
X137052400Y-96012000D03*
%TD*%
D39*
%TO.C,C13*%
X147960000Y-90779600D03*
X149860000Y-90779600D03*
%TD*%
D25*
%TO.C,TP2*%
X138176000Y-109931200D03*
%TD*%
%TO.C,TP10*%
X151688800Y-111556800D03*
%TD*%
D40*
%TO.C,Q2*%
X131267200Y-82141600D03*
X134617200Y-82141600D03*
X131267200Y-85191600D03*
X134617200Y-85191600D03*
D41*
X139242200Y-85946600D03*
X139242200Y-81386600D03*
%TD*%
D25*
%TO.C,TP14*%
X153822400Y-111252000D03*
%TD*%
D39*
%TO.C,C4*%
X155427600Y-105003600D03*
X157327600Y-105003600D03*
%TD*%
D42*
%TO.C,D1*%
X130811000Y-115824000D03*
X134111000Y-115824000D03*
%TD*%
D24*
%TO.C,R10*%
X149402800Y-113127600D03*
X149402800Y-114147600D03*
%TD*%
D43*
%TO.C,D4*%
X138500800Y-72706000D03*
X138500800Y-74106000D03*
X141000800Y-74106000D03*
X141000800Y-72706000D03*
%TD*%
D17*
%TO.C,R15*%
X155803600Y-77012800D03*
X152878600Y-77012800D03*
%TD*%
D44*
%TO.C,F1*%
X152878600Y-73609200D03*
X155803600Y-73609200D03*
%TD*%
D25*
%TO.C,TP9*%
X150317200Y-110896400D03*
%TD*%
D45*
%TO.C,C1*%
X133858000Y-105816400D03*
X133858000Y-103916400D03*
%TD*%
D46*
%TO.C,D2*%
X138988800Y-88646000D03*
X136188800Y-88646000D03*
%TD*%
M02*
