%TF.GenerationSoftware,KiCad,Pcbnew,(6.0.1-0)*%
%TF.CreationDate,2022-12-01T23:09:06-06:00*%
%TF.ProjectId,tackle_sensor_hardware,7461636b-6c65-45f7-9365-6e736f725f68,rev?*%
%TF.SameCoordinates,Original*%
%TF.FileFunction,Legend,Bot*%
%TF.FilePolarity,Positive*%
%FSLAX46Y46*%
G04 Gerber Fmt 4.6, Leading zero omitted, Abs format (unit mm)*
G04 Created by KiCad (PCBNEW (6.0.1-0)) date 2022-12-01 23:09:06*
%MOMM*%
%LPD*%
G01*
G04 APERTURE LIST*
G04 Aperture macros list*
%AMRoundRect*
0 Rectangle with rounded corners*
0 $1 Rounding radius*
0 $2 $3 $4 $5 $6 $7 $8 $9 X,Y pos of 4 corners*
0 Add a 4 corners polygon primitive as box body*
4,1,4,$2,$3,$4,$5,$6,$7,$8,$9,$2,$3,0*
0 Add four circle primitives for the rounded corners*
1,1,$1+$1,$2,$3*
1,1,$1+$1,$4,$5*
1,1,$1+$1,$6,$7*
1,1,$1+$1,$8,$9*
0 Add four rect primitives between the rounded corners*
20,1,$1+$1,$2,$3,$4,$5,0*
20,1,$1+$1,$4,$5,$6,$7,0*
20,1,$1+$1,$6,$7,$8,$9,0*
20,1,$1+$1,$8,$9,$2,$3,0*%
G04 Aperture macros list end*
%ADD10C,0.150000*%
%ADD11C,0.300000*%
%ADD12RoundRect,0.250000X-0.725000X0.600000X-0.725000X-0.600000X0.725000X-0.600000X0.725000X0.600000X0*%
%ADD13O,1.950000X1.700000*%
%ADD14C,3.200000*%
%ADD15RoundRect,0.250000X0.750000X-0.600000X0.750000X0.600000X-0.750000X0.600000X-0.750000X-0.600000X0*%
%ADD16O,2.000000X1.700000*%
G04 APERTURE END LIST*
D10*
X140040666Y-123724780D02*
X139469238Y-123724780D01*
X139754952Y-124724780D02*
X139754952Y-123724780D01*
X138707333Y-124724780D02*
X138707333Y-124200971D01*
X138754952Y-124105733D01*
X138850190Y-124058114D01*
X139040666Y-124058114D01*
X139135904Y-124105733D01*
X138707333Y-124677161D02*
X138802571Y-124724780D01*
X139040666Y-124724780D01*
X139135904Y-124677161D01*
X139183523Y-124581923D01*
X139183523Y-124486685D01*
X139135904Y-124391447D01*
X139040666Y-124343828D01*
X138802571Y-124343828D01*
X138707333Y-124296209D01*
X137802571Y-124677161D02*
X137897809Y-124724780D01*
X138088285Y-124724780D01*
X138183523Y-124677161D01*
X138231142Y-124629542D01*
X138278761Y-124534304D01*
X138278761Y-124248590D01*
X138231142Y-124153352D01*
X138183523Y-124105733D01*
X138088285Y-124058114D01*
X137897809Y-124058114D01*
X137802571Y-124105733D01*
X137374000Y-124724780D02*
X137374000Y-123724780D01*
X137278761Y-124343828D02*
X136993047Y-124724780D01*
X136993047Y-124058114D02*
X137374000Y-124439066D01*
X136421619Y-124724780D02*
X136516857Y-124677161D01*
X136564476Y-124581923D01*
X136564476Y-123724780D01*
X135659714Y-124677161D02*
X135754952Y-124724780D01*
X135945428Y-124724780D01*
X136040666Y-124677161D01*
X136088285Y-124581923D01*
X136088285Y-124200971D01*
X136040666Y-124105733D01*
X135945428Y-124058114D01*
X135754952Y-124058114D01*
X135659714Y-124105733D01*
X135612095Y-124200971D01*
X135612095Y-124296209D01*
X136088285Y-124391447D01*
X134469238Y-124677161D02*
X134326380Y-124724780D01*
X134088285Y-124724780D01*
X133993047Y-124677161D01*
X133945428Y-124629542D01*
X133897809Y-124534304D01*
X133897809Y-124439066D01*
X133945428Y-124343828D01*
X133993047Y-124296209D01*
X134088285Y-124248590D01*
X134278761Y-124200971D01*
X134374000Y-124153352D01*
X134421619Y-124105733D01*
X134469238Y-124010495D01*
X134469238Y-123915257D01*
X134421619Y-123820019D01*
X134374000Y-123772400D01*
X134278761Y-123724780D01*
X134040666Y-123724780D01*
X133897809Y-123772400D01*
X133088285Y-124677161D02*
X133183523Y-124724780D01*
X133374000Y-124724780D01*
X133469238Y-124677161D01*
X133516857Y-124581923D01*
X133516857Y-124200971D01*
X133469238Y-124105733D01*
X133374000Y-124058114D01*
X133183523Y-124058114D01*
X133088285Y-124105733D01*
X133040666Y-124200971D01*
X133040666Y-124296209D01*
X133516857Y-124391447D01*
X132612095Y-124058114D02*
X132612095Y-124724780D01*
X132612095Y-124153352D02*
X132564476Y-124105733D01*
X132469238Y-124058114D01*
X132326380Y-124058114D01*
X132231142Y-124105733D01*
X132183523Y-124200971D01*
X132183523Y-124724780D01*
X131754952Y-124677161D02*
X131659714Y-124724780D01*
X131469238Y-124724780D01*
X131374000Y-124677161D01*
X131326380Y-124581923D01*
X131326380Y-124534304D01*
X131374000Y-124439066D01*
X131469238Y-124391447D01*
X131612095Y-124391447D01*
X131707333Y-124343828D01*
X131754952Y-124248590D01*
X131754952Y-124200971D01*
X131707333Y-124105733D01*
X131612095Y-124058114D01*
X131469238Y-124058114D01*
X131374000Y-124105733D01*
X130754952Y-124724780D02*
X130850190Y-124677161D01*
X130897809Y-124629542D01*
X130945428Y-124534304D01*
X130945428Y-124248590D01*
X130897809Y-124153352D01*
X130850190Y-124105733D01*
X130754952Y-124058114D01*
X130612095Y-124058114D01*
X130516857Y-124105733D01*
X130469238Y-124153352D01*
X130421619Y-124248590D01*
X130421619Y-124534304D01*
X130469238Y-124629542D01*
X130516857Y-124677161D01*
X130612095Y-124724780D01*
X130754952Y-124724780D01*
X129993047Y-124724780D02*
X129993047Y-124058114D01*
X129993047Y-124248590D02*
X129945428Y-124153352D01*
X129897809Y-124105733D01*
X129802571Y-124058114D01*
X129707333Y-124058114D01*
X136397809Y-125334780D02*
X136064476Y-126334780D01*
X135731142Y-125334780D01*
X135207333Y-125334780D02*
X135112095Y-125334780D01*
X135016857Y-125382400D01*
X134969238Y-125430019D01*
X134921619Y-125525257D01*
X134874000Y-125715733D01*
X134874000Y-125953828D01*
X134921619Y-126144304D01*
X134969238Y-126239542D01*
X135016857Y-126287161D01*
X135112095Y-126334780D01*
X135207333Y-126334780D01*
X135302571Y-126287161D01*
X135350190Y-126239542D01*
X135397809Y-126144304D01*
X135445428Y-125953828D01*
X135445428Y-125715733D01*
X135397809Y-125525257D01*
X135350190Y-125430019D01*
X135302571Y-125382400D01*
X135207333Y-125334780D01*
X134445428Y-126239542D02*
X134397809Y-126287161D01*
X134445428Y-126334780D01*
X134493047Y-126287161D01*
X134445428Y-126239542D01*
X134445428Y-126334780D01*
X133445428Y-126334780D02*
X134016857Y-126334780D01*
X133731142Y-126334780D02*
X133731142Y-125334780D01*
X133826380Y-125477638D01*
X133921619Y-125572876D01*
X134016857Y-125620495D01*
X138493047Y-127944780D02*
X139064476Y-127944780D01*
X138778761Y-127944780D02*
X138778761Y-126944780D01*
X138874000Y-127087638D01*
X138969238Y-127182876D01*
X139064476Y-127230495D01*
X138112095Y-127040019D02*
X138064476Y-126992400D01*
X137969238Y-126944780D01*
X137731142Y-126944780D01*
X137635904Y-126992400D01*
X137588285Y-127040019D01*
X137540666Y-127135257D01*
X137540666Y-127230495D01*
X137588285Y-127373352D01*
X138159714Y-127944780D01*
X137540666Y-127944780D01*
X136397809Y-126897161D02*
X137254952Y-128182876D01*
X135540666Y-127944780D02*
X136112095Y-127944780D01*
X135826380Y-127944780D02*
X135826380Y-126944780D01*
X135921619Y-127087638D01*
X136016857Y-127182876D01*
X136112095Y-127230495D01*
X134397809Y-126897161D02*
X135254952Y-128182876D01*
X134112095Y-127040019D02*
X134064476Y-126992400D01*
X133969238Y-126944780D01*
X133731142Y-126944780D01*
X133635904Y-126992400D01*
X133588285Y-127040019D01*
X133540666Y-127135257D01*
X133540666Y-127230495D01*
X133588285Y-127373352D01*
X134159714Y-127944780D01*
X133540666Y-127944780D01*
X132921619Y-126944780D02*
X132826380Y-126944780D01*
X132731142Y-126992400D01*
X132683523Y-127040019D01*
X132635904Y-127135257D01*
X132588285Y-127325733D01*
X132588285Y-127563828D01*
X132635904Y-127754304D01*
X132683523Y-127849542D01*
X132731142Y-127897161D01*
X132826380Y-127944780D01*
X132921619Y-127944780D01*
X133016857Y-127897161D01*
X133064476Y-127849542D01*
X133112095Y-127754304D01*
X133159714Y-127563828D01*
X133159714Y-127325733D01*
X133112095Y-127135257D01*
X133064476Y-127040019D01*
X133016857Y-126992400D01*
X132921619Y-126944780D01*
X132207333Y-127040019D02*
X132159714Y-126992400D01*
X132064476Y-126944780D01*
X131826380Y-126944780D01*
X131731142Y-126992400D01*
X131683523Y-127040019D01*
X131635904Y-127135257D01*
X131635904Y-127230495D01*
X131683523Y-127373352D01*
X132254952Y-127944780D01*
X131635904Y-127944780D01*
X131254952Y-127040019D02*
X131207333Y-126992400D01*
X131112095Y-126944780D01*
X130873999Y-126944780D01*
X130778761Y-126992400D01*
X130731142Y-127040019D01*
X130683523Y-127135257D01*
X130683523Y-127230495D01*
X130731142Y-127373352D01*
X131302571Y-127944780D01*
X130683523Y-127944780D01*
D11*
%TO.C,G\u002A\u002A\u002A*%
X144016717Y-94498472D02*
X143944145Y-94353329D01*
X143944145Y-94135615D01*
X144016717Y-93917901D01*
X144161859Y-93772758D01*
X144307002Y-93700186D01*
X144597288Y-93627615D01*
X144815002Y-93627615D01*
X145105288Y-93700186D01*
X145250431Y-93772758D01*
X145395574Y-93917901D01*
X145468145Y-94135615D01*
X145468145Y-94280758D01*
X145395574Y-94498472D01*
X145323002Y-94571044D01*
X144815002Y-94571044D01*
X144815002Y-94280758D01*
X143944145Y-95441901D02*
X144307002Y-95441901D01*
X144161859Y-95079044D02*
X144307002Y-95441901D01*
X144161859Y-95804758D01*
X144597288Y-95224186D02*
X144307002Y-95441901D01*
X144597288Y-95659615D01*
X143944145Y-96603044D02*
X144307002Y-96603044D01*
X144161859Y-96240186D02*
X144307002Y-96603044D01*
X144161859Y-96965901D01*
X144597288Y-96385329D02*
X144307002Y-96603044D01*
X144597288Y-96820758D01*
X143944145Y-97764186D02*
X144307002Y-97764186D01*
X144161859Y-97401329D02*
X144307002Y-97764186D01*
X144161859Y-98127044D01*
X144597288Y-97546472D02*
X144307002Y-97764186D01*
X144597288Y-97981901D01*
X144016717Y-94447672D02*
X143944145Y-94302529D01*
X143944145Y-94084815D01*
X144016717Y-93867101D01*
X144161859Y-93721958D01*
X144307002Y-93649386D01*
X144597288Y-93576815D01*
X144815002Y-93576815D01*
X145105288Y-93649386D01*
X145250431Y-93721958D01*
X145395574Y-93867101D01*
X145468145Y-94084815D01*
X145468145Y-94229958D01*
X145395574Y-94447672D01*
X145323002Y-94520244D01*
X144815002Y-94520244D01*
X144815002Y-94229958D01*
X143944145Y-95391101D02*
X144307002Y-95391101D01*
X144161859Y-95028244D02*
X144307002Y-95391101D01*
X144161859Y-95753958D01*
X144597288Y-95173386D02*
X144307002Y-95391101D01*
X144597288Y-95608815D01*
X143944145Y-96552244D02*
X144307002Y-96552244D01*
X144161859Y-96189386D02*
X144307002Y-96552244D01*
X144161859Y-96915101D01*
X144597288Y-96334529D02*
X144307002Y-96552244D01*
X144597288Y-96769958D01*
X143944145Y-97713386D02*
X144307002Y-97713386D01*
X144161859Y-97350529D02*
X144307002Y-97713386D01*
X144161859Y-98076244D01*
X144597288Y-97495672D02*
X144307002Y-97713386D01*
X144597288Y-97931101D01*
G36*
X145190978Y-108002966D02*
G01*
X145324891Y-108066399D01*
X145395446Y-108195313D01*
X145417850Y-108400034D01*
X145410425Y-108549029D01*
X145363317Y-108668376D01*
X145252753Y-108779812D01*
X145159491Y-108880254D01*
X145110515Y-109028418D01*
X145164871Y-109162850D01*
X145320384Y-109267858D01*
X145382181Y-109295321D01*
X145573888Y-109408737D01*
X145705237Y-109532130D01*
X145753967Y-109646080D01*
X145753665Y-109657635D01*
X145707030Y-109754211D01*
X145587288Y-109778140D01*
X145403514Y-109727317D01*
X145391360Y-109722410D01*
X145197776Y-109669660D01*
X144998205Y-109647951D01*
X144930596Y-109650741D01*
X144862258Y-109665784D01*
X144787081Y-109702473D01*
X144693560Y-109770194D01*
X144570192Y-109878334D01*
X144405474Y-110036278D01*
X144187901Y-110253411D01*
X143905972Y-110539121D01*
X143754302Y-110692502D01*
X143467241Y-110976788D01*
X143242037Y-111189484D01*
X143071327Y-111337119D01*
X142947750Y-111426222D01*
X142863946Y-111463321D01*
X142857630Y-111464632D01*
X142751310Y-111506524D01*
X142720060Y-111560149D01*
X142700535Y-111607404D01*
X142615594Y-111715978D01*
X142478209Y-111864877D01*
X142303774Y-112036484D01*
X142195135Y-112139046D01*
X141953033Y-112368298D01*
X141712396Y-112596923D01*
X141512128Y-112787990D01*
X141158036Y-113126959D01*
X141412214Y-113127926D01*
X141489329Y-113130364D01*
X141675321Y-113169247D01*
X141834537Y-113270378D01*
X141968908Y-113361418D01*
X142084321Y-113382346D01*
X142146715Y-113313622D01*
X142147924Y-113158168D01*
X142117683Y-112971811D01*
X142412913Y-112914378D01*
X142507870Y-112895903D01*
X142766389Y-112845593D01*
X143007299Y-112798696D01*
X143306456Y-112740448D01*
X143489631Y-112934670D01*
X143545280Y-112990578D01*
X143694020Y-113097348D01*
X143843152Y-113128893D01*
X143906841Y-113127682D01*
X143980216Y-113107110D01*
X144008706Y-113037470D01*
X144013496Y-112888920D01*
X144014700Y-112785778D01*
X144033970Y-112686438D01*
X144099098Y-112639733D01*
X144238101Y-112611000D01*
X144365736Y-112577279D01*
X144521648Y-112487555D01*
X144693034Y-112325760D01*
X144802991Y-112212748D01*
X144919622Y-112121929D01*
X145043148Y-112077252D01*
X145216287Y-112056755D01*
X145359721Y-112051413D01*
X145533818Y-112074492D01*
X145683339Y-112144445D01*
X145696553Y-112152926D01*
X145888307Y-112333097D01*
X145992514Y-112554809D01*
X145998569Y-112796142D01*
X145984207Y-112915678D01*
X145975549Y-113124796D01*
X145979626Y-113346452D01*
X145988480Y-113579646D01*
X145994210Y-113865102D01*
X145995308Y-114135103D01*
X145992362Y-114570221D01*
X147083336Y-114214788D01*
X147098518Y-114209842D01*
X147467044Y-114090395D01*
X147838402Y-113971032D01*
X148186046Y-113860218D01*
X148483431Y-113766414D01*
X148704012Y-113698085D01*
X148862256Y-113648204D01*
X149054106Y-113582174D01*
X149185460Y-113529848D01*
X149234312Y-113499468D01*
X149225837Y-113489867D01*
X149191434Y-113489549D01*
X149121281Y-113502115D01*
X149005611Y-113530217D01*
X148834652Y-113576505D01*
X148598635Y-113643631D01*
X148287792Y-113734245D01*
X147892351Y-113851000D01*
X147402544Y-113996545D01*
X147261295Y-114038134D01*
X146929793Y-114131989D01*
X146637590Y-114209536D01*
X146400829Y-114266781D01*
X146235657Y-114299730D01*
X146158217Y-114304389D01*
X146118748Y-114277415D01*
X146085476Y-114172960D01*
X146110254Y-114022494D01*
X146182334Y-113848888D01*
X146290966Y-113675011D01*
X146425398Y-113523734D01*
X146574883Y-113417927D01*
X146655678Y-113388725D01*
X146832715Y-113342011D01*
X147075452Y-113287552D01*
X147364764Y-113228711D01*
X147681525Y-113168848D01*
X148006611Y-113111323D01*
X148320896Y-113059497D01*
X148605255Y-113016731D01*
X148840563Y-112986386D01*
X149007694Y-112971822D01*
X149087525Y-112976400D01*
X149098084Y-112981361D01*
X149211451Y-112986917D01*
X149367278Y-112913562D01*
X149448751Y-112867341D01*
X149572270Y-112830916D01*
X149694970Y-112856089D01*
X149755085Y-112879020D01*
X149843376Y-112903901D01*
X149882200Y-112874541D01*
X149909527Y-112776930D01*
X149951575Y-112681657D01*
X150037800Y-112592132D01*
X150057591Y-112584232D01*
X150174570Y-112550259D01*
X150374342Y-112499312D01*
X150640037Y-112435485D01*
X150954785Y-112362869D01*
X151301719Y-112285556D01*
X151441985Y-112254388D01*
X151778187Y-112175977D01*
X152075344Y-112101555D01*
X152316588Y-112035640D01*
X152485051Y-111982752D01*
X152563863Y-111947409D01*
X152663516Y-111891620D01*
X152813013Y-111857579D01*
X152937161Y-111831880D01*
X153050584Y-111768640D01*
X153063959Y-111756167D01*
X153177308Y-111672353D01*
X153323447Y-111584478D01*
X153515121Y-111481391D01*
X154091178Y-111826813D01*
X154094281Y-111828675D01*
X154321216Y-111971087D01*
X154515007Y-112104242D01*
X154655182Y-112213303D01*
X154721266Y-112283433D01*
X154735224Y-112314331D01*
X154772603Y-112461944D01*
X154769083Y-112647948D01*
X154724844Y-112903621D01*
X154721461Y-112919211D01*
X154675518Y-113081272D01*
X154616683Y-113167647D01*
X154524962Y-113208867D01*
X154428130Y-113219634D01*
X154341749Y-113173111D01*
X154333764Y-113159473D01*
X154247646Y-113043179D01*
X154133450Y-112955671D01*
X153964762Y-112881430D01*
X153715170Y-112804936D01*
X153547678Y-112759416D01*
X153387667Y-112722289D01*
X153283857Y-112713347D01*
X153208367Y-112731113D01*
X153133317Y-112774109D01*
X152999936Y-112831558D01*
X152841065Y-112850342D01*
X152707476Y-112861529D01*
X152552682Y-112921151D01*
X152546671Y-112924832D01*
X152445481Y-112978490D01*
X152264984Y-113067546D01*
X152022831Y-113183535D01*
X151736670Y-113317991D01*
X151424149Y-113462450D01*
X151362022Y-113491001D01*
X151066624Y-113628623D01*
X150811041Y-113750721D01*
X150610107Y-113849992D01*
X150478661Y-113919138D01*
X150431537Y-113950858D01*
X150440450Y-113972946D01*
X150499124Y-114062931D01*
X150594527Y-114189336D01*
X150632775Y-114241066D01*
X150742747Y-114428055D01*
X150814372Y-114605442D01*
X150833801Y-114689995D01*
X150838901Y-114789804D01*
X150814893Y-114903175D01*
X150755134Y-115057956D01*
X150652982Y-115281991D01*
X150590973Y-115412433D01*
X150501854Y-115584938D01*
X150434273Y-115683811D01*
X150374989Y-115726388D01*
X150310760Y-115730002D01*
X150252348Y-115716177D01*
X150204389Y-115661124D01*
X150203757Y-115536009D01*
X150203087Y-115442244D01*
X150168218Y-115341940D01*
X150082833Y-115221444D01*
X149931972Y-115054237D01*
X149920043Y-115041665D01*
X149758230Y-114878102D01*
X149606860Y-114736038D01*
X149497280Y-114644985D01*
X149397044Y-114583444D01*
X149302557Y-114572477D01*
X149170777Y-114618232D01*
X148988760Y-114696377D01*
X148593406Y-114869653D01*
X148197732Y-115048693D01*
X147769601Y-115248167D01*
X147276879Y-115482742D01*
X147168233Y-115534850D01*
X146825092Y-115699085D01*
X146564026Y-115823198D01*
X146372556Y-115912885D01*
X146238208Y-115973840D01*
X146148502Y-116011757D01*
X146090962Y-116032330D01*
X146053111Y-116041255D01*
X146034563Y-116045823D01*
X145930370Y-116083358D01*
X145785967Y-116143811D01*
X145774529Y-116148770D01*
X145515241Y-116208850D01*
X145271999Y-116169749D01*
X145064926Y-116034518D01*
X145061036Y-116030616D01*
X145001282Y-115962428D01*
X144964152Y-115887080D01*
X144944987Y-115779183D01*
X144939128Y-115613354D01*
X144941917Y-115364204D01*
X144943681Y-115216783D01*
X144942391Y-115005692D01*
X144936552Y-114851505D01*
X144926836Y-114780135D01*
X144918137Y-114759403D01*
X144891591Y-114668979D01*
X144852225Y-114507776D01*
X144797985Y-114266806D01*
X144726820Y-113937084D01*
X144636677Y-113509621D01*
X144505772Y-112884139D01*
X144534866Y-113346452D01*
X144535218Y-113352024D01*
X144584799Y-113905197D01*
X144659121Y-114422193D01*
X144753045Y-114867194D01*
X144784211Y-114990188D01*
X144827134Y-115192474D01*
X144827270Y-115317182D01*
X144775105Y-115383054D01*
X144661123Y-115408833D01*
X144475809Y-115413262D01*
X144122275Y-115413262D01*
X144122275Y-115765758D01*
X144118946Y-115954928D01*
X144103123Y-116066058D01*
X144066282Y-116120959D01*
X143999899Y-116146126D01*
X143970747Y-116152683D01*
X143832100Y-116183314D01*
X143631990Y-116227106D01*
X143403164Y-116276884D01*
X142928807Y-116379772D01*
X142750488Y-116143548D01*
X142632052Y-115994945D01*
X142531717Y-115901864D01*
X142440510Y-115870730D01*
X142332661Y-115885638D01*
X142292573Y-115899736D01*
X142245280Y-115947645D01*
X142223742Y-116047975D01*
X142218635Y-116228791D01*
X142214870Y-116343837D01*
X142191264Y-116509315D01*
X142150648Y-116595978D01*
X142145295Y-116599600D01*
X142049257Y-116630824D01*
X141881494Y-116661871D01*
X141674738Y-116686515D01*
X141445089Y-116711440D01*
X141170504Y-116749281D01*
X140940477Y-116788895D01*
X140844829Y-116809280D01*
X140698713Y-116852343D01*
X140624423Y-116903323D01*
X140596904Y-116975852D01*
X140560723Y-117060272D01*
X140437653Y-117189850D01*
X140254745Y-117317481D01*
X140039042Y-117427743D01*
X139817589Y-117505211D01*
X139617430Y-117534461D01*
X139549415Y-117530233D01*
X139322131Y-117453445D01*
X139132826Y-117297618D01*
X139003275Y-117085582D01*
X138955252Y-116840169D01*
X138948054Y-116763999D01*
X138892575Y-116671583D01*
X138758692Y-116590640D01*
X138562132Y-116496907D01*
X138637580Y-115691765D01*
X138429286Y-115656839D01*
X138395097Y-115651017D01*
X138252324Y-115624775D01*
X138166601Y-115605957D01*
X138154567Y-115605387D01*
X138070575Y-115644580D01*
X137959008Y-115732788D01*
X137936958Y-115752959D01*
X137849350Y-115818607D01*
X137750223Y-115855096D01*
X137607204Y-115870331D01*
X137387916Y-115872216D01*
X137338334Y-115871581D01*
X137083446Y-115855544D01*
X136877699Y-115811410D01*
X136670884Y-115729161D01*
X136446733Y-115611771D01*
X136291488Y-115488935D01*
X136194920Y-115340780D01*
X136132972Y-115141001D01*
X136116809Y-115054266D01*
X136108197Y-114716267D01*
X136174871Y-114381357D01*
X136307963Y-114080933D01*
X136498606Y-113846390D01*
X136508837Y-113837442D01*
X136619319Y-113762458D01*
X136730125Y-113752059D01*
X136888442Y-113800717D01*
X136977044Y-113779415D01*
X137079745Y-113657599D01*
X137120481Y-113598769D01*
X137293700Y-113442402D01*
X137528281Y-113355501D01*
X137840263Y-113331183D01*
X138076464Y-113348999D01*
X138412842Y-113436050D01*
X138682617Y-113586489D01*
X138877546Y-113790529D01*
X138989386Y-114038380D01*
X139009896Y-114320252D01*
X138930832Y-114626357D01*
X138916441Y-114661974D01*
X138880175Y-114771049D01*
X138879218Y-114814975D01*
X138909375Y-114792013D01*
X138960814Y-114690693D01*
X139010947Y-114539717D01*
X139048958Y-114373519D01*
X139064031Y-114226535D01*
X139060304Y-114168239D01*
X139015278Y-113968850D01*
X138934413Y-113771552D01*
X138909351Y-113722770D01*
X138842809Y-113542609D01*
X138860189Y-113426735D01*
X138967217Y-113364798D01*
X139169617Y-113346452D01*
X139256262Y-113345512D01*
X139377198Y-113331355D01*
X139437564Y-113287241D01*
X139470090Y-113196880D01*
X139504575Y-113103914D01*
X139595440Y-112959435D01*
X139705350Y-112847511D01*
X139805071Y-112802555D01*
X139841341Y-112794173D01*
X139917967Y-112726113D01*
X139927029Y-112714164D01*
X140003781Y-112634962D01*
X140145251Y-112499557D01*
X140338811Y-112319725D01*
X140571835Y-112107241D01*
X140831697Y-111873883D01*
X140926225Y-111789444D01*
X141175177Y-111565332D01*
X141391173Y-111368406D01*
X141562076Y-111209880D01*
X141675751Y-111100972D01*
X141720063Y-111052895D01*
X141771454Y-111022372D01*
X141886445Y-111007694D01*
X141906983Y-111006684D01*
X141994608Y-110978881D01*
X142101974Y-110903497D01*
X142244775Y-110767780D01*
X142438705Y-110558979D01*
X142508984Y-110481172D01*
X142785551Y-110179590D01*
X143052521Y-109895242D01*
X143299394Y-109638759D01*
X143515670Y-109420770D01*
X143690848Y-109251903D01*
X143814430Y-109142788D01*
X143875916Y-109104054D01*
X143887779Y-109101027D01*
X143947741Y-109034837D01*
X144007696Y-108909250D01*
X144055604Y-108819059D01*
X144164366Y-108668294D01*
X144308982Y-108494452D01*
X144469163Y-108319506D01*
X144624621Y-108165426D01*
X144755064Y-108054182D01*
X144840205Y-108007746D01*
X144978505Y-107994688D01*
X145190978Y-108002966D01*
G37*
G36*
X149512771Y-99052171D02*
G01*
X149680228Y-99067296D01*
X149825006Y-99094380D01*
X149885604Y-99110096D01*
X150254349Y-99265965D01*
X150557690Y-99507124D01*
X150790917Y-99828831D01*
X150949318Y-100226343D01*
X150960262Y-100277975D01*
X150974392Y-100392430D01*
X150986438Y-100559469D01*
X150996548Y-100786118D01*
X151004872Y-101079398D01*
X151011558Y-101446335D01*
X151016756Y-101893952D01*
X151020614Y-102429273D01*
X151023281Y-103059323D01*
X151024907Y-103791124D01*
X151025600Y-104310001D01*
X151026063Y-104916721D01*
X151025791Y-105428517D01*
X151024566Y-105853324D01*
X151022169Y-106199080D01*
X151018382Y-106473722D01*
X151012986Y-106685186D01*
X151005762Y-106841408D01*
X150996493Y-106950326D01*
X150984960Y-107019876D01*
X150970943Y-107057995D01*
X150954226Y-107072618D01*
X150934588Y-107071684D01*
X150930852Y-107070644D01*
X150835032Y-107047712D01*
X150658644Y-107008265D01*
X150425530Y-106957561D01*
X150159535Y-106900855D01*
X150156112Y-106900132D01*
X149877106Y-106840475D01*
X149618592Y-106783890D01*
X149409238Y-106736732D01*
X149277716Y-106705357D01*
X149075769Y-106653408D01*
X149060157Y-104077110D01*
X149059057Y-103897482D01*
X149055293Y-103329220D01*
X149051400Y-102857520D01*
X149046956Y-102472861D01*
X149041539Y-102165720D01*
X149034727Y-101926574D01*
X149026098Y-101745902D01*
X149015230Y-101614182D01*
X149001702Y-101521891D01*
X148985091Y-101459507D01*
X148964976Y-101417509D01*
X148940934Y-101386373D01*
X148847660Y-101315890D01*
X148658064Y-101271934D01*
X148620448Y-101274850D01*
X148475862Y-101294160D01*
X148243022Y-101329840D01*
X147934020Y-101379884D01*
X147560943Y-101442285D01*
X147135882Y-101515036D01*
X146670925Y-101596130D01*
X146178164Y-101683561D01*
X146031875Y-101709727D01*
X145501057Y-101804538D01*
X144972834Y-101898696D01*
X144464620Y-101989108D01*
X143993826Y-102072684D01*
X143577864Y-102146330D01*
X143234149Y-102206955D01*
X142980091Y-102251466D01*
X142798612Y-102283076D01*
X142271220Y-102375309D01*
X141837997Y-102452415D01*
X141488976Y-102517052D01*
X141214193Y-102571877D01*
X141003684Y-102619546D01*
X140847482Y-102662716D01*
X140735623Y-102704045D01*
X140658141Y-102746188D01*
X140605073Y-102791803D01*
X140566452Y-102843546D01*
X140532313Y-102904075D01*
X140514566Y-102994711D01*
X140500208Y-103193807D01*
X140489249Y-103501092D01*
X140481695Y-103916294D01*
X140477554Y-104439146D01*
X140476832Y-105069377D01*
X140479808Y-107125451D01*
X139812712Y-107830148D01*
X139662271Y-107989415D01*
X139410939Y-108256816D01*
X139170053Y-108514562D01*
X138961128Y-108739606D01*
X138805680Y-108908900D01*
X138465744Y-109282955D01*
X138465744Y-103083654D01*
X139050434Y-102324012D01*
X139163335Y-102177283D01*
X139398684Y-101871183D01*
X139633956Y-101564919D01*
X139847046Y-101287270D01*
X140015851Y-101067015D01*
X140157781Y-100886897D01*
X140301749Y-100715620D01*
X140414028Y-100594506D01*
X140478164Y-100542235D01*
X140537304Y-100528684D01*
X140692351Y-100498037D01*
X140926037Y-100453951D01*
X141223139Y-100399254D01*
X141568430Y-100336776D01*
X141946687Y-100269346D01*
X142137967Y-100235406D01*
X142543311Y-100163127D01*
X143025454Y-100076809D01*
X143565224Y-99979899D01*
X144143449Y-99875846D01*
X144740957Y-99768098D01*
X145338577Y-99660101D01*
X145917136Y-99555305D01*
X146298636Y-99486457D01*
X146964935Y-99368479D01*
X147538020Y-99270778D01*
X148026708Y-99192315D01*
X148439814Y-99132050D01*
X148786157Y-99088943D01*
X149074553Y-99061954D01*
X149313819Y-99050044D01*
X149512771Y-99052171D01*
G37*
G36*
X149885578Y-73570596D02*
G01*
X150258097Y-73728985D01*
X150560959Y-73967378D01*
X150790621Y-74283571D01*
X150943537Y-74675360D01*
X150957472Y-74739201D01*
X150972243Y-74842747D01*
X150984774Y-74982259D01*
X150995249Y-75165825D01*
X151003847Y-75401538D01*
X151010751Y-75697486D01*
X151016141Y-76061761D01*
X151020198Y-76502452D01*
X151023105Y-77027651D01*
X151025042Y-77645446D01*
X151026191Y-78363929D01*
X151026750Y-78992299D01*
X151026892Y-79592597D01*
X151026324Y-80099034D01*
X151024833Y-80519454D01*
X151022204Y-80861700D01*
X151018224Y-81133616D01*
X151012679Y-81343046D01*
X151005356Y-81497834D01*
X150996041Y-81605824D01*
X150984521Y-81674859D01*
X150970581Y-81712784D01*
X150954008Y-81727442D01*
X150934588Y-81726677D01*
X150910999Y-81720650D01*
X150788120Y-81692038D01*
X150589399Y-81647421D01*
X150336416Y-81591615D01*
X150050755Y-81529438D01*
X149929947Y-81503229D01*
X149655185Y-81442991D01*
X149422038Y-81391017D01*
X149252089Y-81352149D01*
X149166922Y-81331226D01*
X149164159Y-81330366D01*
X149142557Y-81316916D01*
X149124596Y-81286178D01*
X149109943Y-81229003D01*
X149098264Y-81136242D01*
X149089224Y-80998746D01*
X149082491Y-80807366D01*
X149077731Y-80552953D01*
X149074609Y-80226357D01*
X149072793Y-79818429D01*
X149071948Y-79320020D01*
X149071740Y-78721982D01*
X149071732Y-78602873D01*
X149071200Y-77983240D01*
X149069220Y-77462069D01*
X149064947Y-77030578D01*
X149057533Y-76679986D01*
X149046132Y-76401512D01*
X149029896Y-76186374D01*
X149007979Y-76025790D01*
X148979532Y-75910979D01*
X148943711Y-75833161D01*
X148899666Y-75783552D01*
X148846552Y-75753373D01*
X148783521Y-75733841D01*
X148756747Y-75730940D01*
X148694115Y-75732981D01*
X148595239Y-75742499D01*
X148454672Y-75760408D01*
X148266970Y-75787624D01*
X148026685Y-75825062D01*
X147728372Y-75873636D01*
X147366585Y-75934262D01*
X146935879Y-76007855D01*
X146430808Y-76095330D01*
X145845925Y-76197602D01*
X145175785Y-76315586D01*
X144414942Y-76450197D01*
X143557950Y-76602350D01*
X142599363Y-76772960D01*
X142429370Y-76803420D01*
X142021358Y-76877988D01*
X141648214Y-76948189D01*
X141324400Y-77011175D01*
X141064377Y-77064102D01*
X140882609Y-77104122D01*
X140793556Y-77128388D01*
X140746078Y-77147835D01*
X140687166Y-77176453D01*
X140638039Y-77214122D01*
X140597672Y-77269909D01*
X140565042Y-77352878D01*
X140539121Y-77472094D01*
X140518886Y-77636624D01*
X140503312Y-77855531D01*
X140491373Y-78137882D01*
X140482045Y-78492741D01*
X140474301Y-78929174D01*
X140467119Y-79456245D01*
X140459471Y-80083021D01*
X140427317Y-82741178D01*
X140004025Y-83182830D01*
X139863529Y-83330679D01*
X139615753Y-83595273D01*
X139358025Y-83874137D01*
X139127779Y-84126936D01*
X139063535Y-84199350D01*
X138944748Y-84337973D01*
X138842476Y-84458227D01*
X138755529Y-84554085D01*
X138682717Y-84619520D01*
X138622850Y-84648505D01*
X138574738Y-84635014D01*
X138537191Y-84573020D01*
X138509018Y-84456495D01*
X138489029Y-84279414D01*
X138476034Y-84035750D01*
X138468844Y-83719474D01*
X138466268Y-83324562D01*
X138467115Y-82844986D01*
X138470196Y-82274718D01*
X138474321Y-81607733D01*
X138478299Y-80838004D01*
X138494943Y-76932533D01*
X138621810Y-76591121D01*
X138693917Y-76416425D01*
X138953520Y-75973765D01*
X139295906Y-75599706D01*
X139716695Y-75298429D01*
X140211505Y-75074113D01*
X140228457Y-75068690D01*
X140367085Y-75033817D01*
X140600202Y-74983122D01*
X140917361Y-74918472D01*
X141308115Y-74841735D01*
X141762017Y-74754779D01*
X142268622Y-74659473D01*
X142817481Y-74557685D01*
X143398148Y-74451283D01*
X144000176Y-74342135D01*
X144613119Y-74232110D01*
X145226529Y-74123074D01*
X145829960Y-74016897D01*
X146412965Y-73915447D01*
X146965098Y-73820591D01*
X147475911Y-73734198D01*
X147934958Y-73658136D01*
X148331791Y-73594273D01*
X148655965Y-73544477D01*
X148897032Y-73510617D01*
X149044545Y-73494560D01*
X149446949Y-73494416D01*
X149885578Y-73570596D01*
G37*
G36*
X146069986Y-83201784D02*
G01*
X146797199Y-83065597D01*
X147490222Y-82935988D01*
X148141781Y-82814308D01*
X148744605Y-82701907D01*
X149291423Y-82600138D01*
X149774962Y-82510351D01*
X150187952Y-82433898D01*
X150523120Y-82372129D01*
X150773195Y-82326396D01*
X150930905Y-82298049D01*
X150988978Y-82288441D01*
X150991492Y-82290591D01*
X151003643Y-82362085D01*
X151014157Y-82522856D01*
X151022424Y-82756592D01*
X151027832Y-83046983D01*
X151029770Y-83377715D01*
X151029692Y-83445019D01*
X151027026Y-83768977D01*
X151021010Y-84049283D01*
X151012257Y-84269657D01*
X151001376Y-84413817D01*
X150988978Y-84465483D01*
X150975794Y-84467099D01*
X150874215Y-84483379D01*
X150684930Y-84515234D01*
X150421633Y-84560267D01*
X150098022Y-84616079D01*
X149727792Y-84680274D01*
X149324640Y-84750453D01*
X148902262Y-84824218D01*
X148474353Y-84899173D01*
X148054611Y-84972920D01*
X147656731Y-85043061D01*
X147294409Y-85107198D01*
X146981343Y-85162933D01*
X146731226Y-85207870D01*
X146557757Y-85239610D01*
X146474631Y-85255757D01*
X146352254Y-85283428D01*
X146352254Y-87995913D01*
X146556216Y-88034701D01*
X146570261Y-88037351D01*
X146691648Y-88059924D01*
X146904090Y-88099184D01*
X147194709Y-88152758D01*
X147550625Y-88218277D01*
X147958961Y-88293369D01*
X148406838Y-88375663D01*
X148881376Y-88462787D01*
X151002575Y-88852086D01*
X151017276Y-89976571D01*
X151018381Y-90075023D01*
X151019279Y-90401724D01*
X151015853Y-90683679D01*
X151008574Y-90904888D01*
X150997908Y-91049347D01*
X150984327Y-91101056D01*
X150983466Y-91101027D01*
X150913988Y-91090581D01*
X150752606Y-91063066D01*
X150513612Y-91021019D01*
X150211303Y-90966975D01*
X149859970Y-90903471D01*
X149473908Y-90833043D01*
X148937311Y-90734937D01*
X148267947Y-90613321D01*
X147701686Y-90511468D01*
X147236335Y-90428993D01*
X146869701Y-90365513D01*
X146599591Y-90320645D01*
X146423812Y-90294005D01*
X146340171Y-90285210D01*
X146321145Y-90288147D01*
X146260862Y-90357969D01*
X146219555Y-90527080D01*
X146158529Y-90768322D01*
X146018487Y-91090359D01*
X145828910Y-91396314D01*
X145612712Y-91644014D01*
X145559516Y-91691008D01*
X145207346Y-91932173D01*
X144767935Y-92136336D01*
X144256313Y-92296272D01*
X144242545Y-92299670D01*
X144054122Y-92341957D01*
X143799544Y-92393694D01*
X143494545Y-92452193D01*
X143154857Y-92514768D01*
X142796212Y-92578730D01*
X142434344Y-92641391D01*
X142084984Y-92700063D01*
X141763866Y-92752060D01*
X141486720Y-92794692D01*
X141269281Y-92825273D01*
X141127281Y-92841114D01*
X141076451Y-92839528D01*
X141077445Y-92835281D01*
X141117764Y-92764831D01*
X141207460Y-92629266D01*
X141333324Y-92447439D01*
X141482146Y-92238202D01*
X141640715Y-92020409D01*
X141795820Y-91812911D01*
X141827946Y-91770207D01*
X141964072Y-91583652D01*
X142093054Y-91400199D01*
X142163805Y-91300487D01*
X142308227Y-91107756D01*
X142454770Y-90922112D01*
X142510567Y-90853101D01*
X142620077Y-90709725D01*
X142657869Y-90643802D01*
X142625737Y-90653743D01*
X142525474Y-90737961D01*
X142358876Y-90894868D01*
X142127736Y-91122876D01*
X141833848Y-91420396D01*
X141479007Y-91785841D01*
X140343509Y-92963122D01*
X140013182Y-92936607D01*
X139717711Y-92889888D01*
X139316997Y-92738247D01*
X138962705Y-92488257D01*
X138880398Y-92408404D01*
X138773954Y-92271424D01*
X138687945Y-92098385D01*
X138602232Y-91853839D01*
X138465744Y-91421779D01*
X138465744Y-88853597D01*
X140422674Y-88853597D01*
X140424937Y-89242867D01*
X140429877Y-89605912D01*
X140437526Y-89926574D01*
X140447919Y-90188697D01*
X140461089Y-90376125D01*
X140477072Y-90472702D01*
X140488331Y-90501319D01*
X140526827Y-90577711D01*
X140579290Y-90634267D01*
X140657350Y-90671014D01*
X140772634Y-90687978D01*
X140936772Y-90685189D01*
X141161392Y-90662672D01*
X141458122Y-90620456D01*
X141838591Y-90558568D01*
X142314428Y-90477036D01*
X142341941Y-90472263D01*
X142743605Y-90400904D01*
X143118586Y-90331312D01*
X143450758Y-90266704D01*
X143723998Y-90210296D01*
X143922181Y-90165304D01*
X144029183Y-90134947D01*
X144198952Y-90034435D01*
X144314729Y-89900441D01*
X144326718Y-89872552D01*
X144345520Y-89799526D01*
X144360630Y-89689269D01*
X144372415Y-89531560D01*
X144381239Y-89316181D01*
X144387467Y-89032909D01*
X144391464Y-88671525D01*
X144393595Y-88221809D01*
X144394224Y-87673539D01*
X144394224Y-87650988D01*
X144393955Y-87125228D01*
X144392866Y-86697911D01*
X144390493Y-86359088D01*
X144386375Y-86098810D01*
X144380046Y-85907128D01*
X144371045Y-85774093D01*
X144358907Y-85689755D01*
X144343169Y-85644166D01*
X144323369Y-85627375D01*
X144299042Y-85629435D01*
X144286535Y-85632683D01*
X144180751Y-85655530D01*
X143986559Y-85694933D01*
X143718118Y-85748103D01*
X143389590Y-85812251D01*
X143015134Y-85884588D01*
X142608910Y-85962325D01*
X142486823Y-85985648D01*
X142086608Y-86063070D01*
X141721158Y-86135197D01*
X141404904Y-86199085D01*
X141152278Y-86251791D01*
X140977711Y-86290369D01*
X140895634Y-86311876D01*
X140764976Y-86392235D01*
X140609520Y-86547370D01*
X140484961Y-86732705D01*
X140478883Y-86751514D01*
X140463371Y-86871988D01*
X140450297Y-87079330D01*
X140439693Y-87357384D01*
X140431595Y-87689994D01*
X140426037Y-88061004D01*
X140423051Y-88454257D01*
X140422674Y-88853597D01*
X138465744Y-88853597D01*
X138465744Y-86812115D01*
X139422182Y-85540579D01*
X140378619Y-84269043D01*
X144323369Y-83529295D01*
X145663402Y-83278002D01*
X146069986Y-83201784D01*
G37*
G36*
X142671052Y-117018377D02*
G01*
X142804820Y-117075232D01*
X142887430Y-117154971D01*
X142924598Y-117260442D01*
X142876418Y-117340941D01*
X142853104Y-117379142D01*
X142855642Y-117480415D01*
X142860452Y-117553485D01*
X142818659Y-117668342D01*
X142788450Y-117719576D01*
X142785932Y-117800268D01*
X142793931Y-117822271D01*
X142761207Y-117888813D01*
X142734471Y-117926851D01*
X142736215Y-118026734D01*
X142735662Y-118088075D01*
X142659179Y-118154718D01*
X142507691Y-118184148D01*
X142299468Y-118170356D01*
X142291862Y-118169192D01*
X142105122Y-118165604D01*
X141915356Y-118195220D01*
X141896978Y-118200012D01*
X141725918Y-118224784D01*
X141583388Y-118216741D01*
X141553308Y-118208178D01*
X141475443Y-118151824D01*
X141467347Y-118035669D01*
X141477928Y-117972626D01*
X141514669Y-117914312D01*
X141602184Y-117885876D01*
X141769469Y-117871570D01*
X142054564Y-117855146D01*
X141979252Y-117674899D01*
X141951081Y-117600736D01*
X141932731Y-117471852D01*
X141974083Y-117337790D01*
X142030684Y-117204202D01*
X142075333Y-117085745D01*
X142081172Y-117073233D01*
X142167008Y-117018184D01*
X142317219Y-116990356D01*
X142496876Y-116990253D01*
X142671052Y-117018377D01*
G37*
G36*
X151029770Y-93758440D02*
G01*
X150744224Y-93816220D01*
X150696627Y-93825472D01*
X150531257Y-93856245D01*
X150278293Y-93902404D01*
X149950522Y-93961648D01*
X149560732Y-94031677D01*
X149121709Y-94110190D01*
X148646241Y-94194887D01*
X148147115Y-94283468D01*
X147846758Y-94336777D01*
X147375871Y-94420789D01*
X146944021Y-94498369D01*
X146562558Y-94567446D01*
X146242832Y-94625952D01*
X145996191Y-94671816D01*
X145833986Y-94702970D01*
X145767565Y-94717344D01*
X145765993Y-94718052D01*
X145748336Y-94751625D01*
X145733864Y-94836758D01*
X145722321Y-94981623D01*
X145713451Y-95194395D01*
X145706997Y-95483245D01*
X145702704Y-95856347D01*
X145700316Y-96321874D01*
X145699577Y-96887998D01*
X145699577Y-99034243D01*
X145414031Y-99091439D01*
X145339349Y-99106198D01*
X145098833Y-99151921D01*
X144827599Y-99201499D01*
X144548588Y-99250962D01*
X144284743Y-99296341D01*
X144059006Y-99333669D01*
X143894317Y-99358976D01*
X143813620Y-99368294D01*
X143801696Y-99361761D01*
X143785170Y-99319639D01*
X143771813Y-99230782D01*
X143761326Y-99086328D01*
X143753413Y-98877414D01*
X143747776Y-98595176D01*
X143744117Y-98230754D01*
X143742140Y-97775282D01*
X143741547Y-97219900D01*
X143741546Y-97200435D01*
X143740404Y-96607686D01*
X143737018Y-96118901D01*
X143731259Y-95729425D01*
X143722997Y-95434602D01*
X143712104Y-95229779D01*
X143698450Y-95110298D01*
X143681906Y-95071506D01*
X143679256Y-95071555D01*
X143588928Y-95081952D01*
X143412632Y-95108146D01*
X143170030Y-95146780D01*
X142880784Y-95194500D01*
X142564555Y-95247949D01*
X142241005Y-95303771D01*
X141929794Y-95358613D01*
X141650585Y-95409116D01*
X141423038Y-95451927D01*
X141266815Y-95483689D01*
X141013668Y-95548052D01*
X140808303Y-95628458D01*
X140662088Y-95730828D01*
X140548789Y-95869249D01*
X140526142Y-95909197D01*
X140502574Y-95974939D01*
X140485254Y-96068369D01*
X140473477Y-96203000D01*
X140466540Y-96392343D01*
X140463736Y-96649911D01*
X140464362Y-96989215D01*
X140467713Y-97423769D01*
X140480696Y-98834736D01*
X139722151Y-99616958D01*
X139472021Y-99877876D01*
X139230058Y-100135739D01*
X139014280Y-100370976D01*
X138841436Y-100565329D01*
X138728273Y-100700536D01*
X138492939Y-101001891D01*
X138478642Y-99093242D01*
X138464344Y-97184592D01*
X139852185Y-95291850D01*
X141240027Y-93399108D01*
X141987682Y-93259037D01*
X142189378Y-93221426D01*
X142486472Y-93166280D01*
X142862391Y-93096669D01*
X143302941Y-93015214D01*
X143793931Y-92924539D01*
X144321170Y-92827266D01*
X144870467Y-92726016D01*
X145427629Y-92623412D01*
X145696452Y-92573929D01*
X146588865Y-92409621D01*
X147380744Y-92263752D01*
X148077136Y-92135387D01*
X148683085Y-92023593D01*
X149203637Y-91927435D01*
X149643838Y-91845979D01*
X150008732Y-91778290D01*
X150303365Y-91723434D01*
X150532783Y-91680476D01*
X150702031Y-91648483D01*
X150816154Y-91626520D01*
X150880198Y-91613652D01*
X151029770Y-91581920D01*
X151029770Y-93758440D01*
G37*
%TD*%
%LPC*%
%TO.C,G\u002A\u002A\u002A*%
G36*
X142854005Y-90403879D02*
G01*
X142831647Y-90461977D01*
X142801434Y-90501684D01*
X142711532Y-90620848D01*
X142573187Y-90804680D01*
X142395907Y-91040538D01*
X142189198Y-91315778D01*
X141962567Y-91617758D01*
X141797421Y-91837286D01*
X141573411Y-92133138D01*
X141370955Y-92398351D01*
X141200920Y-92618782D01*
X141074170Y-92780286D01*
X141001569Y-92868722D01*
X140957376Y-92922902D01*
X140848943Y-93063564D01*
X140691609Y-93272083D01*
X140493943Y-93536962D01*
X140264516Y-93846707D01*
X140011897Y-94189819D01*
X139744657Y-94554803D01*
X139535582Y-94840993D01*
X139284556Y-95184216D01*
X139057473Y-95494274D01*
X138862365Y-95760222D01*
X138707262Y-95971115D01*
X138600195Y-96116010D01*
X138549196Y-96183960D01*
X138532893Y-96199230D01*
X138516475Y-96194367D01*
X138503071Y-96156492D01*
X138492433Y-96077185D01*
X138484312Y-95948029D01*
X138478461Y-95760606D01*
X138474630Y-95506496D01*
X138472570Y-95177283D01*
X138472034Y-94764548D01*
X138472773Y-94259872D01*
X138474539Y-93654838D01*
X138474949Y-93541124D01*
X138477530Y-93042155D01*
X138481125Y-92592221D01*
X138485579Y-92199858D01*
X138490737Y-91873600D01*
X138496446Y-91621982D01*
X138502551Y-91453539D01*
X138508898Y-91376805D01*
X138515331Y-91400316D01*
X138574901Y-91755191D01*
X138708128Y-92098398D01*
X138742670Y-92162797D01*
X138865332Y-92352988D01*
X138999255Y-92518058D01*
X139123662Y-92634364D01*
X139217776Y-92678266D01*
X139221958Y-92683374D01*
X139233102Y-92764131D01*
X139240198Y-92927921D01*
X139242665Y-93155126D01*
X139239922Y-93426125D01*
X139225449Y-94174075D01*
X139675040Y-93707851D01*
X139769332Y-93609478D01*
X139959447Y-93409543D01*
X140202665Y-93152521D01*
X140486517Y-92851635D01*
X140798532Y-92520106D01*
X141126243Y-92171158D01*
X141457179Y-91818015D01*
X141748688Y-91507800D01*
X142035825Y-91204780D01*
X142292213Y-90936821D01*
X142509198Y-90712854D01*
X142678123Y-90541808D01*
X142790335Y-90432612D01*
X142837179Y-90394197D01*
X142854005Y-90403879D01*
G37*
G36*
X140408531Y-82835012D02*
G01*
X140421234Y-82928795D01*
X140423774Y-83110798D01*
X140424738Y-83176757D01*
X140426064Y-83250730D01*
X140422048Y-83316939D01*
X140406810Y-83384946D01*
X140374473Y-83464315D01*
X140319156Y-83564608D01*
X140234981Y-83695389D01*
X140116069Y-83866219D01*
X139956541Y-84086661D01*
X139750518Y-84366280D01*
X139492121Y-84714636D01*
X139175471Y-85141294D01*
X138492939Y-86061831D01*
X138477547Y-85452570D01*
X138462154Y-84843308D01*
X138713895Y-84532032D01*
X138726680Y-84516302D01*
X138875986Y-84339844D01*
X139064862Y-84126125D01*
X139279320Y-83889961D01*
X139505373Y-83646163D01*
X139729033Y-83409546D01*
X139936311Y-83194923D01*
X140113221Y-83017107D01*
X140245775Y-82890911D01*
X140319984Y-82831148D01*
X140322164Y-82829985D01*
X140378048Y-82808919D01*
X140408531Y-82835012D01*
G37*
G36*
X140422816Y-99238235D02*
G01*
X140394662Y-99667437D01*
X139741875Y-100537673D01*
X139535092Y-100813725D01*
X139309626Y-101115498D01*
X139099292Y-101397765D01*
X138920839Y-101638049D01*
X138791014Y-101813870D01*
X138492939Y-102219832D01*
X138462199Y-100934776D01*
X138867508Y-100491470D01*
X138906087Y-100449373D01*
X139110650Y-100228150D01*
X139356510Y-99964644D01*
X139616110Y-99688308D01*
X139861893Y-99428599D01*
X140450969Y-98809034D01*
X140422816Y-99238235D01*
G37*
G36*
X142080844Y-116694714D02*
G01*
X142220165Y-116813797D01*
X142338369Y-116963369D01*
X142196917Y-116980579D01*
X142104147Y-117009591D01*
X142053736Y-117089358D01*
X142036346Y-117166314D01*
X141972152Y-117286505D01*
X141924863Y-117371951D01*
X141892297Y-117509339D01*
X141884192Y-117567489D01*
X141818398Y-117703670D01*
X141713677Y-117814824D01*
X141603074Y-117860799D01*
X141546516Y-117876694D01*
X141462669Y-117955981D01*
X141433945Y-117997850D01*
X141385590Y-118017169D01*
X141299706Y-117990854D01*
X141147580Y-117915189D01*
X140907621Y-117738252D01*
X140723513Y-117474683D01*
X140617915Y-117139753D01*
X140615405Y-117125359D01*
X140602523Y-116994984D01*
X140636026Y-116925829D01*
X140733979Y-116876995D01*
X140826120Y-116847997D01*
X141028850Y-116799506D01*
X141277602Y-116750291D01*
X141535291Y-116706952D01*
X141764832Y-116676088D01*
X141929142Y-116664299D01*
X142080844Y-116694714D01*
G37*
G36*
X140432565Y-107536232D02*
G01*
X140427453Y-107632487D01*
X140408788Y-107808808D01*
X140368423Y-107945321D01*
X140290864Y-108083550D01*
X140160617Y-108265015D01*
X140142917Y-108288757D01*
X140021006Y-108452443D01*
X139851442Y-108680276D01*
X139648544Y-108953012D01*
X139426626Y-109251408D01*
X139200006Y-109556219D01*
X138492939Y-110507405D01*
X138477577Y-109882814D01*
X138462214Y-109258224D01*
X138922531Y-108732423D01*
X139114963Y-108517611D01*
X139383528Y-108227806D01*
X139663037Y-107934676D01*
X139916908Y-107677046D01*
X140450969Y-107147469D01*
X140432565Y-107536232D01*
G37*
%TD*%
D12*
%TO.C,J3*%
X163796200Y-106923200D03*
D13*
X163796200Y-109423200D03*
X163796200Y-111923200D03*
%TD*%
D14*
%TO.C,H3*%
X125095000Y-125095000D03*
%TD*%
%TO.C,H4*%
X163195000Y-125095000D03*
%TD*%
D15*
%TO.C,J2*%
X124206000Y-117602000D03*
D16*
X124206000Y-115102000D03*
%TD*%
D12*
%TO.C,J4*%
X163796200Y-81701000D03*
D13*
X163796200Y-84201000D03*
X163796200Y-86701000D03*
X163796200Y-89201000D03*
%TD*%
D14*
%TO.C,H2*%
X163195000Y-74295000D03*
%TD*%
%TO.C,H1*%
X125095000Y-74295000D03*
%TD*%
M02*
