%TF.GenerationSoftware,KiCad,Pcbnew,(6.0.1-0)*%
%TF.CreationDate,2022-04-18T21:10:33-05:00*%
%TF.ProjectId,tackle_sensor_hardware,7461636b-6c65-45f7-9365-6e736f725f68,rev?*%
%TF.SameCoordinates,Original*%
%TF.FileFunction,Legend,Top*%
%TF.FilePolarity,Positive*%
%FSLAX46Y46*%
G04 Gerber Fmt 4.6, Leading zero omitted, Abs format (unit mm)*
G04 Created by KiCad (PCBNEW (6.0.1-0)) date 2022-04-18 21:10:33*
%MOMM*%
%LPD*%
G01*
G04 APERTURE LIST*
G04 Aperture macros list*
%AMRoundRect*
0 Rectangle with rounded corners*
0 $1 Rounding radius*
0 $2 $3 $4 $5 $6 $7 $8 $9 X,Y pos of 4 corners*
0 Add a 4 corners polygon primitive as box body*
4,1,4,$2,$3,$4,$5,$6,$7,$8,$9,$2,$3,0*
0 Add four circle primitives for the rounded corners*
1,1,$1+$1,$2,$3*
1,1,$1+$1,$4,$5*
1,1,$1+$1,$6,$7*
1,1,$1+$1,$8,$9*
0 Add four rect primitives between the rounded corners*
20,1,$1+$1,$2,$3,$4,$5,0*
20,1,$1+$1,$4,$5,$6,$7,0*
20,1,$1+$1,$6,$7,$8,$9,0*
20,1,$1+$1,$8,$9,$2,$3,0*%
G04 Aperture macros list end*
%ADD10C,0.155000*%
%ADD11C,0.150000*%
%ADD12C,0.120000*%
%ADD13RoundRect,0.250000X-0.725000X0.600000X-0.725000X-0.600000X0.725000X-0.600000X0.725000X0.600000X0*%
%ADD14O,1.950000X1.700000*%
%ADD15RoundRect,0.100000X-0.637500X-0.100000X0.637500X-0.100000X0.637500X0.100000X-0.637500X0.100000X0*%
%ADD16C,3.200000*%
%ADD17RoundRect,0.250000X0.750000X-0.600000X0.750000X0.600000X-0.750000X0.600000X-0.750000X-0.600000X0*%
%ADD18O,2.000000X1.700000*%
%ADD19RoundRect,0.200000X-0.200000X-0.275000X0.200000X-0.275000X0.200000X0.275000X-0.200000X0.275000X0*%
%ADD20RoundRect,0.135000X-0.135000X-0.185000X0.135000X-0.185000X0.135000X0.185000X-0.135000X0.185000X0*%
%ADD21RoundRect,0.150000X0.150000X-0.587500X0.150000X0.587500X-0.150000X0.587500X-0.150000X-0.587500X0*%
%ADD22C,1.500000*%
%ADD23RoundRect,0.135000X0.135000X0.185000X-0.135000X0.185000X-0.135000X-0.185000X0.135000X-0.185000X0*%
%ADD24R,2.440000X1.120000*%
%ADD25R,0.450000X1.450000*%
%ADD26RoundRect,0.140000X0.170000X-0.140000X0.170000X0.140000X-0.170000X0.140000X-0.170000X-0.140000X0*%
%ADD27RoundRect,0.225000X-0.225000X-0.250000X0.225000X-0.250000X0.225000X0.250000X-0.225000X0.250000X0*%
%ADD28RoundRect,0.250000X-0.250000X-0.475000X0.250000X-0.475000X0.250000X0.475000X-0.250000X0.475000X0*%
%ADD29R,0.500000X0.630000*%
%ADD30R,1.230000X0.950000*%
%ADD31RoundRect,0.200000X-0.275000X0.200000X-0.275000X-0.200000X0.275000X-0.200000X0.275000X0.200000X0*%
%ADD32RoundRect,0.135000X0.185000X-0.135000X0.185000X0.135000X-0.185000X0.135000X-0.185000X-0.135000X0*%
%ADD33RoundRect,0.250000X0.250000X0.475000X-0.250000X0.475000X-0.250000X-0.475000X0.250000X-0.475000X0*%
%ADD34R,1.550000X1.300000*%
%ADD35R,0.350000X0.375000*%
%ADD36R,0.375000X0.350000*%
%ADD37RoundRect,0.250000X-0.312500X-1.075000X0.312500X-1.075000X0.312500X1.075000X-0.312500X1.075000X0*%
%ADD38RoundRect,0.225000X0.225000X0.250000X-0.225000X0.250000X-0.225000X-0.250000X0.225000X-0.250000X0*%
%ADD39RoundRect,0.135000X-0.185000X0.135000X-0.185000X-0.135000X0.185000X-0.135000X0.185000X0.135000X0*%
%ADD40R,1.955800X2.362200*%
%ADD41R,1.200000X2.200000*%
%ADD42R,5.800000X6.400000*%
%ADD43RoundRect,0.140000X-0.140000X-0.170000X0.140000X-0.170000X0.140000X0.170000X-0.140000X0.170000X0*%
%ADD44RoundRect,0.218750X0.218750X0.256250X-0.218750X0.256250X-0.218750X-0.256250X0.218750X-0.256250X0*%
%ADD45RoundRect,0.250000X0.625000X-0.312500X0.625000X0.312500X-0.625000X0.312500X-0.625000X-0.312500X0*%
%ADD46R,1.000000X1.000000*%
%ADD47O,1.000000X1.000000*%
%ADD48RoundRect,0.250000X0.550000X-1.500000X0.550000X1.500000X-0.550000X1.500000X-0.550000X-1.500000X0*%
%ADD49R,2.000000X1.500000*%
%ADD50R,2.000000X3.800000*%
%ADD51RoundRect,0.250000X-1.500000X-0.550000X1.500000X-0.550000X1.500000X0.550000X-1.500000X0.550000X0*%
%ADD52R,2.670000X2.540000*%
%ADD53R,0.762000X1.270000*%
%ADD54R,0.900000X1.200000*%
%ADD55RoundRect,0.250000X-1.075000X0.312500X-1.075000X-0.312500X1.075000X-0.312500X1.075000X0.312500X0*%
%ADD56RoundRect,0.250000X0.475000X-0.250000X0.475000X0.250000X-0.475000X0.250000X-0.475000X-0.250000X0*%
%ADD57R,1.000000X0.800000*%
G04 APERTURE END LIST*
D10*
X164084000Y-83312000D02*
X164338000Y-83058000D01*
X129794000Y-76581000D02*
X127635000Y-77216000D01*
X127762000Y-83464400D02*
X127762000Y-83108800D01*
X126593600Y-87223600D02*
X126136400Y-84023200D01*
X132080000Y-76517500D02*
X132080000Y-78168500D01*
X124333000Y-78994000D02*
X124968000Y-77851000D01*
X139573000Y-81661000D02*
X138430000Y-81661000D01*
X164084000Y-85852000D02*
X164084000Y-83312000D01*
X122428000Y-78486000D02*
X122809000Y-79629000D01*
X164084000Y-87122000D02*
X164338000Y-86868000D01*
X129794000Y-74803000D02*
X129794000Y-76581000D01*
X128320800Y-87223600D02*
X126593600Y-87223600D01*
X124968000Y-77851000D02*
X126111000Y-77851000D01*
X126238000Y-77851000D02*
X126492000Y-78359000D01*
X164084000Y-88392000D02*
X164084000Y-87376000D01*
X122936000Y-78994000D02*
X124333000Y-78994000D01*
X132080000Y-78232000D02*
X130683000Y-79121000D01*
X127635000Y-77216000D02*
X127635000Y-78232000D01*
X127762000Y-83108800D02*
X127203200Y-82600800D01*
X164084000Y-90424000D02*
X164084000Y-88392000D01*
X164084000Y-87376000D02*
X164084000Y-87122000D01*
X141478000Y-81661000D02*
X139573000Y-81661000D01*
X126111000Y-77851000D02*
X126238000Y-77851000D01*
X120904000Y-78486000D02*
X122428000Y-78486000D01*
X124206000Y-79629000D02*
X124714000Y-79629000D01*
X122809000Y-79629000D02*
X124206000Y-79629000D01*
D11*
X153320952Y-122991571D02*
X152987619Y-122991571D01*
X152987619Y-123515380D02*
X152987619Y-122515380D01*
X153463809Y-122515380D01*
X153797142Y-123229666D02*
X154273333Y-123229666D01*
X153701904Y-123515380D02*
X154035238Y-122515380D01*
X154368571Y-123515380D01*
X155178095Y-123515380D02*
X154701904Y-123515380D01*
X154701904Y-122515380D01*
X155463809Y-123467761D02*
X155606666Y-123515380D01*
X155844761Y-123515380D01*
X155940000Y-123467761D01*
X155987619Y-123420142D01*
X156035238Y-123324904D01*
X156035238Y-123229666D01*
X155987619Y-123134428D01*
X155940000Y-123086809D01*
X155844761Y-123039190D01*
X155654285Y-122991571D01*
X155559047Y-122943952D01*
X155511428Y-122896333D01*
X155463809Y-122801095D01*
X155463809Y-122705857D01*
X155511428Y-122610619D01*
X155559047Y-122563000D01*
X155654285Y-122515380D01*
X155892380Y-122515380D01*
X156035238Y-122563000D01*
X156463809Y-122991571D02*
X156797142Y-122991571D01*
X156940000Y-123515380D02*
X156463809Y-123515380D01*
X156463809Y-122515380D01*
X156940000Y-122515380D01*
X169211666Y-108037380D02*
X169830714Y-108037380D01*
X169497380Y-108418333D01*
X169640238Y-108418333D01*
X169735476Y-108465952D01*
X169783095Y-108513571D01*
X169830714Y-108608809D01*
X169830714Y-108846904D01*
X169783095Y-108942142D01*
X169735476Y-108989761D01*
X169640238Y-109037380D01*
X169354523Y-109037380D01*
X169259285Y-108989761D01*
X169211666Y-108942142D01*
X169259285Y-83367619D02*
X169306904Y-83320000D01*
X169402142Y-83272380D01*
X169640238Y-83272380D01*
X169735476Y-83320000D01*
X169783095Y-83367619D01*
X169830714Y-83462857D01*
X169830714Y-83558095D01*
X169783095Y-83700952D01*
X169211666Y-84272380D01*
X169830714Y-84272380D01*
X136668095Y-122515380D02*
X137239523Y-122515380D01*
X136953809Y-123515380D02*
X136953809Y-122515380D01*
X138144285Y-123515380D02*
X137810952Y-123039190D01*
X137572857Y-123515380D02*
X137572857Y-122515380D01*
X137953809Y-122515380D01*
X138049047Y-122563000D01*
X138096666Y-122610619D01*
X138144285Y-122705857D01*
X138144285Y-122848714D01*
X138096666Y-122943952D01*
X138049047Y-122991571D01*
X137953809Y-123039190D01*
X137572857Y-123039190D01*
X138572857Y-122515380D02*
X138572857Y-123324904D01*
X138620476Y-123420142D01*
X138668095Y-123467761D01*
X138763333Y-123515380D01*
X138953809Y-123515380D01*
X139049047Y-123467761D01*
X139096666Y-123420142D01*
X139144285Y-123324904D01*
X139144285Y-122515380D01*
X139620476Y-122991571D02*
X139953809Y-122991571D01*
X140096666Y-123515380D02*
X139620476Y-123515380D01*
X139620476Y-122515380D01*
X140096666Y-122515380D01*
X169769404Y-115047380D02*
X169197976Y-115047380D01*
X169483690Y-115047380D02*
X169483690Y-114047380D01*
X169388452Y-114190238D01*
X169293214Y-114285476D01*
X169197976Y-114333095D01*
X170197976Y-114952142D02*
X170245595Y-114999761D01*
X170197976Y-115047380D01*
X170150357Y-114999761D01*
X170197976Y-114952142D01*
X170197976Y-115047380D01*
X171436071Y-114047380D02*
X171436071Y-114856904D01*
X171483690Y-114952142D01*
X171531309Y-114999761D01*
X171626547Y-115047380D01*
X171817023Y-115047380D01*
X171912261Y-114999761D01*
X171959880Y-114952142D01*
X172007500Y-114856904D01*
X172007500Y-114047380D01*
X172436071Y-114761666D02*
X172912261Y-114761666D01*
X172340833Y-115047380D02*
X172674166Y-114047380D01*
X173007500Y-115047380D01*
X173912261Y-115047380D02*
X173578928Y-114571190D01*
X173340833Y-115047380D02*
X173340833Y-114047380D01*
X173721785Y-114047380D01*
X173817023Y-114095000D01*
X173864642Y-114142619D01*
X173912261Y-114237857D01*
X173912261Y-114380714D01*
X173864642Y-114475952D01*
X173817023Y-114523571D01*
X173721785Y-114571190D01*
X173340833Y-114571190D01*
X174197976Y-114047380D02*
X174769404Y-114047380D01*
X174483690Y-115047380D02*
X174483690Y-114047380D01*
X175721785Y-114047380D02*
X176293214Y-114047380D01*
X176007500Y-115047380D02*
X176007500Y-114047380D01*
X176531309Y-114047380D02*
X177197976Y-115047380D01*
X177197976Y-114047380D02*
X176531309Y-115047380D01*
X169197976Y-115752619D02*
X169245595Y-115705000D01*
X169340833Y-115657380D01*
X169578928Y-115657380D01*
X169674166Y-115705000D01*
X169721785Y-115752619D01*
X169769404Y-115847857D01*
X169769404Y-115943095D01*
X169721785Y-116085952D01*
X169150357Y-116657380D01*
X169769404Y-116657380D01*
X170197976Y-116562142D02*
X170245595Y-116609761D01*
X170197976Y-116657380D01*
X170150357Y-116609761D01*
X170197976Y-116562142D01*
X170197976Y-116657380D01*
X171388452Y-116609761D02*
X171531309Y-116657380D01*
X171769404Y-116657380D01*
X171864642Y-116609761D01*
X171912261Y-116562142D01*
X171959880Y-116466904D01*
X171959880Y-116371666D01*
X171912261Y-116276428D01*
X171864642Y-116228809D01*
X171769404Y-116181190D01*
X171578928Y-116133571D01*
X171483690Y-116085952D01*
X171436071Y-116038333D01*
X171388452Y-115943095D01*
X171388452Y-115847857D01*
X171436071Y-115752619D01*
X171483690Y-115705000D01*
X171578928Y-115657380D01*
X171817023Y-115657380D01*
X171959880Y-115705000D01*
X172245595Y-115657380D02*
X172817023Y-115657380D01*
X172531309Y-116657380D02*
X172531309Y-115657380D01*
X173102738Y-116371666D02*
X173578928Y-116371666D01*
X173007500Y-116657380D02*
X173340833Y-115657380D01*
X173674166Y-116657380D01*
X173864642Y-115657380D02*
X174436071Y-115657380D01*
X174150357Y-116657380D02*
X174150357Y-115657380D01*
X174769404Y-115657380D02*
X174769404Y-116466904D01*
X174817023Y-116562142D01*
X174864642Y-116609761D01*
X174959880Y-116657380D01*
X175150357Y-116657380D01*
X175245595Y-116609761D01*
X175293214Y-116562142D01*
X175340833Y-116466904D01*
X175340833Y-115657380D01*
X175769404Y-116609761D02*
X175912261Y-116657380D01*
X176150357Y-116657380D01*
X176245595Y-116609761D01*
X176293214Y-116562142D01*
X176340833Y-116466904D01*
X176340833Y-116371666D01*
X176293214Y-116276428D01*
X176245595Y-116228809D01*
X176150357Y-116181190D01*
X175959880Y-116133571D01*
X175864642Y-116085952D01*
X175817023Y-116038333D01*
X175769404Y-115943095D01*
X175769404Y-115847857D01*
X175817023Y-115752619D01*
X175864642Y-115705000D01*
X175959880Y-115657380D01*
X176197976Y-115657380D01*
X176340833Y-115705000D01*
X169150357Y-117267380D02*
X169769404Y-117267380D01*
X169436071Y-117648333D01*
X169578928Y-117648333D01*
X169674166Y-117695952D01*
X169721785Y-117743571D01*
X169769404Y-117838809D01*
X169769404Y-118076904D01*
X169721785Y-118172142D01*
X169674166Y-118219761D01*
X169578928Y-118267380D01*
X169293214Y-118267380D01*
X169197976Y-118219761D01*
X169150357Y-118172142D01*
X170197976Y-118172142D02*
X170245595Y-118219761D01*
X170197976Y-118267380D01*
X170150357Y-118219761D01*
X170197976Y-118172142D01*
X170197976Y-118267380D01*
X171959880Y-117315000D02*
X171864642Y-117267380D01*
X171721785Y-117267380D01*
X171578928Y-117315000D01*
X171483690Y-117410238D01*
X171436071Y-117505476D01*
X171388452Y-117695952D01*
X171388452Y-117838809D01*
X171436071Y-118029285D01*
X171483690Y-118124523D01*
X171578928Y-118219761D01*
X171721785Y-118267380D01*
X171817023Y-118267380D01*
X171959880Y-118219761D01*
X172007500Y-118172142D01*
X172007500Y-117838809D01*
X171817023Y-117838809D01*
X172436071Y-118267380D02*
X172436071Y-117267380D01*
X173007500Y-118267380D01*
X173007500Y-117267380D01*
X173483690Y-118267380D02*
X173483690Y-117267380D01*
X173721785Y-117267380D01*
X173864642Y-117315000D01*
X173959880Y-117410238D01*
X174007500Y-117505476D01*
X174055119Y-117695952D01*
X174055119Y-117838809D01*
X174007500Y-118029285D01*
X173959880Y-118124523D01*
X173864642Y-118219761D01*
X173721785Y-118267380D01*
X173483690Y-118267380D01*
X139065952Y-120340380D02*
X139065952Y-119340380D01*
X139542142Y-120340380D02*
X139542142Y-119340380D01*
X140113571Y-120340380D01*
X140113571Y-119340380D01*
X140589761Y-119816571D02*
X140923095Y-119816571D01*
X141065952Y-120340380D02*
X140589761Y-120340380D01*
X140589761Y-119340380D01*
X141065952Y-119340380D01*
X141970714Y-120340380D02*
X141494523Y-120340380D01*
X141494523Y-119340380D01*
X142304047Y-120340380D02*
X142304047Y-119340380D01*
X143304047Y-119388000D02*
X143208809Y-119340380D01*
X143065952Y-119340380D01*
X142923095Y-119388000D01*
X142827857Y-119483238D01*
X142780238Y-119578476D01*
X142732619Y-119768952D01*
X142732619Y-119911809D01*
X142780238Y-120102285D01*
X142827857Y-120197523D01*
X142923095Y-120292761D01*
X143065952Y-120340380D01*
X143161190Y-120340380D01*
X143304047Y-120292761D01*
X143351666Y-120245142D01*
X143351666Y-119911809D01*
X143161190Y-119911809D01*
X143780238Y-120340380D02*
X143780238Y-119340380D01*
X144589761Y-119816571D02*
X144732619Y-119864190D01*
X144780238Y-119911809D01*
X144827857Y-120007047D01*
X144827857Y-120149904D01*
X144780238Y-120245142D01*
X144732619Y-120292761D01*
X144637380Y-120340380D01*
X144256428Y-120340380D01*
X144256428Y-119340380D01*
X144589761Y-119340380D01*
X144685000Y-119388000D01*
X144732619Y-119435619D01*
X144780238Y-119530857D01*
X144780238Y-119626095D01*
X144732619Y-119721333D01*
X144685000Y-119768952D01*
X144589761Y-119816571D01*
X144256428Y-119816571D01*
X145732619Y-120340380D02*
X145256428Y-120340380D01*
X145256428Y-119340380D01*
X146065952Y-119816571D02*
X146399285Y-119816571D01*
X146542142Y-120340380D02*
X146065952Y-120340380D01*
X146065952Y-119340380D01*
X146542142Y-119340380D01*
X148304047Y-120340380D02*
X147970714Y-119864190D01*
X147732619Y-120340380D02*
X147732619Y-119340380D01*
X148113571Y-119340380D01*
X148208809Y-119388000D01*
X148256428Y-119435619D01*
X148304047Y-119530857D01*
X148304047Y-119673714D01*
X148256428Y-119768952D01*
X148208809Y-119816571D01*
X148113571Y-119864190D01*
X147732619Y-119864190D01*
X148732619Y-119816571D02*
X149065952Y-119816571D01*
X149208809Y-120340380D02*
X148732619Y-120340380D01*
X148732619Y-119340380D01*
X149208809Y-119340380D01*
X150208809Y-120245142D02*
X150161190Y-120292761D01*
X150018333Y-120340380D01*
X149923095Y-120340380D01*
X149780238Y-120292761D01*
X149685000Y-120197523D01*
X149637380Y-120102285D01*
X149589761Y-119911809D01*
X149589761Y-119768952D01*
X149637380Y-119578476D01*
X149685000Y-119483238D01*
X149780238Y-119388000D01*
X149923095Y-119340380D01*
X150018333Y-119340380D01*
X150161190Y-119388000D01*
X150208809Y-119435619D01*
X150637380Y-119816571D02*
X150970714Y-119816571D01*
X151113571Y-120340380D02*
X150637380Y-120340380D01*
X150637380Y-119340380D01*
X151113571Y-119340380D01*
X151542142Y-120340380D02*
X151542142Y-119340380D01*
X151875476Y-119340380D02*
X152208809Y-120340380D01*
X152542142Y-119340380D01*
X152875476Y-119816571D02*
X153208809Y-119816571D01*
X153351666Y-120340380D02*
X152875476Y-120340380D01*
X152875476Y-119340380D01*
X153351666Y-119340380D01*
X154351666Y-120340380D02*
X154018333Y-119864190D01*
X153780238Y-120340380D02*
X153780238Y-119340380D01*
X154161190Y-119340380D01*
X154256428Y-119388000D01*
X154304047Y-119435619D01*
X154351666Y-119530857D01*
X154351666Y-119673714D01*
X154304047Y-119768952D01*
X154256428Y-119816571D01*
X154161190Y-119864190D01*
X153780238Y-119864190D01*
X169211666Y-85812380D02*
X169830714Y-85812380D01*
X169497380Y-86193333D01*
X169640238Y-86193333D01*
X169735476Y-86240952D01*
X169783095Y-86288571D01*
X169830714Y-86383809D01*
X169830714Y-86621904D01*
X169783095Y-86717142D01*
X169735476Y-86764761D01*
X169640238Y-86812380D01*
X169354523Y-86812380D01*
X169259285Y-86764761D01*
X169211666Y-86717142D01*
X169735476Y-88685714D02*
X169735476Y-89352380D01*
X169497380Y-88304761D02*
X169259285Y-89019047D01*
X169878333Y-89019047D01*
X169830714Y-81732380D02*
X169259285Y-81732380D01*
X169545000Y-81732380D02*
X169545000Y-80732380D01*
X169449761Y-80875238D01*
X169354523Y-80970476D01*
X169259285Y-81018095D01*
X128524047Y-112931428D02*
X129285952Y-112931428D01*
X128524047Y-114541428D02*
X129285952Y-114541428D01*
X128905000Y-114922380D02*
X128905000Y-114160476D01*
X170404404Y-94557380D02*
X169832976Y-94557380D01*
X170118690Y-94557380D02*
X170118690Y-93557380D01*
X170023452Y-93700238D01*
X169928214Y-93795476D01*
X169832976Y-93843095D01*
X170832976Y-94462142D02*
X170880595Y-94509761D01*
X170832976Y-94557380D01*
X170785357Y-94509761D01*
X170832976Y-94462142D01*
X170832976Y-94557380D01*
X172071071Y-94176428D02*
X172832976Y-94176428D01*
X172452023Y-94557380D02*
X172452023Y-93795476D01*
X173832976Y-94557380D02*
X173261547Y-94557380D01*
X173547261Y-94557380D02*
X173547261Y-93557380D01*
X173452023Y-93700238D01*
X173356785Y-93795476D01*
X173261547Y-93843095D01*
X174213928Y-93652619D02*
X174261547Y-93605000D01*
X174356785Y-93557380D01*
X174594880Y-93557380D01*
X174690119Y-93605000D01*
X174737738Y-93652619D01*
X174785357Y-93747857D01*
X174785357Y-93843095D01*
X174737738Y-93985952D01*
X174166309Y-94557380D01*
X174785357Y-94557380D01*
X175071071Y-93557380D02*
X175404404Y-94557380D01*
X175737738Y-93557380D01*
X169832976Y-95262619D02*
X169880595Y-95215000D01*
X169975833Y-95167380D01*
X170213928Y-95167380D01*
X170309166Y-95215000D01*
X170356785Y-95262619D01*
X170404404Y-95357857D01*
X170404404Y-95453095D01*
X170356785Y-95595952D01*
X169785357Y-96167380D01*
X170404404Y-96167380D01*
X170832976Y-96072142D02*
X170880595Y-96119761D01*
X170832976Y-96167380D01*
X170785357Y-96119761D01*
X170832976Y-96072142D01*
X170832976Y-96167380D01*
X172642500Y-96167380D02*
X172309166Y-95691190D01*
X172071071Y-96167380D02*
X172071071Y-95167380D01*
X172452023Y-95167380D01*
X172547261Y-95215000D01*
X172594880Y-95262619D01*
X172642500Y-95357857D01*
X172642500Y-95500714D01*
X172594880Y-95595952D01*
X172547261Y-95643571D01*
X172452023Y-95691190D01*
X172071071Y-95691190D01*
X173071071Y-95643571D02*
X173404404Y-95643571D01*
X173547261Y-96167380D02*
X173071071Y-96167380D01*
X173071071Y-95167380D01*
X173547261Y-95167380D01*
X173975833Y-96167380D02*
X173975833Y-95167380D01*
X174213928Y-95167380D01*
X174356785Y-95215000D01*
X174452023Y-95310238D01*
X174499642Y-95405476D01*
X174547261Y-95595952D01*
X174547261Y-95738809D01*
X174499642Y-95929285D01*
X174452023Y-96024523D01*
X174356785Y-96119761D01*
X174213928Y-96167380D01*
X173975833Y-96167380D01*
X169785357Y-96777380D02*
X170404404Y-96777380D01*
X170071071Y-97158333D01*
X170213928Y-97158333D01*
X170309166Y-97205952D01*
X170356785Y-97253571D01*
X170404404Y-97348809D01*
X170404404Y-97586904D01*
X170356785Y-97682142D01*
X170309166Y-97729761D01*
X170213928Y-97777380D01*
X169928214Y-97777380D01*
X169832976Y-97729761D01*
X169785357Y-97682142D01*
X170832976Y-97682142D02*
X170880595Y-97729761D01*
X170832976Y-97777380D01*
X170785357Y-97729761D01*
X170832976Y-97682142D01*
X170832976Y-97777380D01*
X172594880Y-96825000D02*
X172499642Y-96777380D01*
X172356785Y-96777380D01*
X172213928Y-96825000D01*
X172118690Y-96920238D01*
X172071071Y-97015476D01*
X172023452Y-97205952D01*
X172023452Y-97348809D01*
X172071071Y-97539285D01*
X172118690Y-97634523D01*
X172213928Y-97729761D01*
X172356785Y-97777380D01*
X172452023Y-97777380D01*
X172594880Y-97729761D01*
X172642500Y-97682142D01*
X172642500Y-97348809D01*
X172452023Y-97348809D01*
X173642500Y-97777380D02*
X173309166Y-97301190D01*
X173071071Y-97777380D02*
X173071071Y-96777380D01*
X173452023Y-96777380D01*
X173547261Y-96825000D01*
X173594880Y-96872619D01*
X173642500Y-96967857D01*
X173642500Y-97110714D01*
X173594880Y-97205952D01*
X173547261Y-97253571D01*
X173452023Y-97301190D01*
X173071071Y-97301190D01*
X174071071Y-97253571D02*
X174404404Y-97253571D01*
X174547261Y-97777380D02*
X174071071Y-97777380D01*
X174071071Y-96777380D01*
X174547261Y-96777380D01*
X174975833Y-97253571D02*
X175309166Y-97253571D01*
X175452023Y-97777380D02*
X174975833Y-97777380D01*
X174975833Y-96777380D01*
X175452023Y-96777380D01*
X175880595Y-97777380D02*
X175880595Y-96777380D01*
X176452023Y-97777380D01*
X176452023Y-96777380D01*
X170309166Y-98720714D02*
X170309166Y-99387380D01*
X170071071Y-98339761D02*
X169832976Y-99054047D01*
X170452023Y-99054047D01*
X170832976Y-99292142D02*
X170880595Y-99339761D01*
X170832976Y-99387380D01*
X170785357Y-99339761D01*
X170832976Y-99292142D01*
X170832976Y-99387380D01*
X172404404Y-98863571D02*
X172547261Y-98911190D01*
X172594880Y-98958809D01*
X172642500Y-99054047D01*
X172642500Y-99196904D01*
X172594880Y-99292142D01*
X172547261Y-99339761D01*
X172452023Y-99387380D01*
X172071071Y-99387380D01*
X172071071Y-98387380D01*
X172404404Y-98387380D01*
X172499642Y-98435000D01*
X172547261Y-98482619D01*
X172594880Y-98577857D01*
X172594880Y-98673095D01*
X172547261Y-98768333D01*
X172499642Y-98815952D01*
X172404404Y-98863571D01*
X172071071Y-98863571D01*
X173547261Y-99387380D02*
X173071071Y-99387380D01*
X173071071Y-98387380D01*
X173880595Y-98387380D02*
X173880595Y-99196904D01*
X173928214Y-99292142D01*
X173975833Y-99339761D01*
X174071071Y-99387380D01*
X174261547Y-99387380D01*
X174356785Y-99339761D01*
X174404404Y-99292142D01*
X174452023Y-99196904D01*
X174452023Y-98387380D01*
X174928214Y-98863571D02*
X175261547Y-98863571D01*
X175404404Y-99387380D02*
X174928214Y-99387380D01*
X174928214Y-98387380D01*
X175404404Y-98387380D01*
X169259285Y-105592619D02*
X169306904Y-105545000D01*
X169402142Y-105497380D01*
X169640238Y-105497380D01*
X169735476Y-105545000D01*
X169783095Y-105592619D01*
X169830714Y-105687857D01*
X169830714Y-105783095D01*
X169783095Y-105925952D01*
X169211666Y-106497380D01*
X169830714Y-106497380D01*
X169830714Y-103957380D02*
X169259285Y-103957380D01*
X169545000Y-103957380D02*
X169545000Y-102957380D01*
X169449761Y-103100238D01*
X169354523Y-103195476D01*
X169259285Y-103243095D01*
%TO.C,J3*%
X170481666Y-111847380D02*
X170481666Y-112561666D01*
X170434047Y-112704523D01*
X170338809Y-112799761D01*
X170195952Y-112847380D01*
X170100714Y-112847380D01*
X170862619Y-111847380D02*
X171481666Y-111847380D01*
X171148333Y-112228333D01*
X171291190Y-112228333D01*
X171386428Y-112275952D01*
X171434047Y-112323571D01*
X171481666Y-112418809D01*
X171481666Y-112656904D01*
X171434047Y-112752142D01*
X171386428Y-112799761D01*
X171291190Y-112847380D01*
X171005476Y-112847380D01*
X170910238Y-112799761D01*
X170862619Y-112752142D01*
%TO.C,U2*%
X151511095Y-104608380D02*
X151511095Y-105417904D01*
X151558714Y-105513142D01*
X151606333Y-105560761D01*
X151701571Y-105608380D01*
X151892047Y-105608380D01*
X151987285Y-105560761D01*
X152034904Y-105513142D01*
X152082523Y-105417904D01*
X152082523Y-104608380D01*
X152511095Y-104703619D02*
X152558714Y-104656000D01*
X152653952Y-104608380D01*
X152892047Y-104608380D01*
X152987285Y-104656000D01*
X153034904Y-104703619D01*
X153082523Y-104798857D01*
X153082523Y-104894095D01*
X153034904Y-105036952D01*
X152463476Y-105608380D01*
X153082523Y-105608380D01*
%TO.C,J1*%
X121372380Y-119098333D02*
X122086666Y-119098333D01*
X122229523Y-119145952D01*
X122324761Y-119241190D01*
X122372380Y-119384047D01*
X122372380Y-119479285D01*
X122372380Y-118098333D02*
X122372380Y-118669761D01*
X122372380Y-118384047D02*
X121372380Y-118384047D01*
X121515238Y-118479285D01*
X121610476Y-118574523D01*
X121658095Y-118669761D01*
%TO.C,R19*%
X139819142Y-96464380D02*
X139485809Y-95988190D01*
X139247714Y-96464380D02*
X139247714Y-95464380D01*
X139628666Y-95464380D01*
X139723904Y-95512000D01*
X139771523Y-95559619D01*
X139819142Y-95654857D01*
X139819142Y-95797714D01*
X139771523Y-95892952D01*
X139723904Y-95940571D01*
X139628666Y-95988190D01*
X139247714Y-95988190D01*
X140771523Y-96464380D02*
X140200095Y-96464380D01*
X140485809Y-96464380D02*
X140485809Y-95464380D01*
X140390571Y-95607238D01*
X140295333Y-95702476D01*
X140200095Y-95750095D01*
X141247714Y-96464380D02*
X141438190Y-96464380D01*
X141533428Y-96416761D01*
X141581047Y-96369142D01*
X141676285Y-96226285D01*
X141723904Y-96035809D01*
X141723904Y-95654857D01*
X141676285Y-95559619D01*
X141628666Y-95512000D01*
X141533428Y-95464380D01*
X141342952Y-95464380D01*
X141247714Y-95512000D01*
X141200095Y-95559619D01*
X141152476Y-95654857D01*
X141152476Y-95892952D01*
X141200095Y-95988190D01*
X141247714Y-96035809D01*
X141342952Y-96083428D01*
X141533428Y-96083428D01*
X141628666Y-96035809D01*
X141676285Y-95988190D01*
X141723904Y-95892952D01*
%TO.C,R22*%
X164457142Y-103957380D02*
X164123809Y-103481190D01*
X163885714Y-103957380D02*
X163885714Y-102957380D01*
X164266666Y-102957380D01*
X164361904Y-103005000D01*
X164409523Y-103052619D01*
X164457142Y-103147857D01*
X164457142Y-103290714D01*
X164409523Y-103385952D01*
X164361904Y-103433571D01*
X164266666Y-103481190D01*
X163885714Y-103481190D01*
X164838095Y-103052619D02*
X164885714Y-103005000D01*
X164980952Y-102957380D01*
X165219047Y-102957380D01*
X165314285Y-103005000D01*
X165361904Y-103052619D01*
X165409523Y-103147857D01*
X165409523Y-103243095D01*
X165361904Y-103385952D01*
X164790476Y-103957380D01*
X165409523Y-103957380D01*
X165790476Y-103052619D02*
X165838095Y-103005000D01*
X165933333Y-102957380D01*
X166171428Y-102957380D01*
X166266666Y-103005000D01*
X166314285Y-103052619D01*
X166361904Y-103147857D01*
X166361904Y-103243095D01*
X166314285Y-103385952D01*
X165742857Y-103957380D01*
X166361904Y-103957380D01*
%TO.C,Q7*%
X145258761Y-82033119D02*
X145163523Y-81985500D01*
X145068285Y-81890261D01*
X144925428Y-81747404D01*
X144830190Y-81699785D01*
X144734952Y-81699785D01*
X144782571Y-81937880D02*
X144687333Y-81890261D01*
X144592095Y-81795023D01*
X144544476Y-81604547D01*
X144544476Y-81271214D01*
X144592095Y-81080738D01*
X144687333Y-80985500D01*
X144782571Y-80937880D01*
X144973047Y-80937880D01*
X145068285Y-80985500D01*
X145163523Y-81080738D01*
X145211142Y-81271214D01*
X145211142Y-81604547D01*
X145163523Y-81795023D01*
X145068285Y-81890261D01*
X144973047Y-81937880D01*
X144782571Y-81937880D01*
X145544476Y-80937880D02*
X146211142Y-80937880D01*
X145782571Y-81937880D01*
%TO.C,TP1*%
X122563095Y-105119380D02*
X123134523Y-105119380D01*
X122848809Y-106119380D02*
X122848809Y-105119380D01*
X123467857Y-106119380D02*
X123467857Y-105119380D01*
X123848809Y-105119380D01*
X123944047Y-105167000D01*
X123991666Y-105214619D01*
X124039285Y-105309857D01*
X124039285Y-105452714D01*
X123991666Y-105547952D01*
X123944047Y-105595571D01*
X123848809Y-105643190D01*
X123467857Y-105643190D01*
X124991666Y-106119380D02*
X124420238Y-106119380D01*
X124705952Y-106119380D02*
X124705952Y-105119380D01*
X124610714Y-105262238D01*
X124515476Y-105357476D01*
X124420238Y-105405095D01*
%TO.C,R7*%
X138009333Y-85161380D02*
X137676000Y-84685190D01*
X137437904Y-85161380D02*
X137437904Y-84161380D01*
X137818857Y-84161380D01*
X137914095Y-84209000D01*
X137961714Y-84256619D01*
X138009333Y-84351857D01*
X138009333Y-84494714D01*
X137961714Y-84589952D01*
X137914095Y-84637571D01*
X137818857Y-84685190D01*
X137437904Y-84685190D01*
X138342666Y-84161380D02*
X139009333Y-84161380D01*
X138580761Y-85161380D01*
%TO.C,Q3*%
X158146761Y-87161619D02*
X158051523Y-87114000D01*
X157956285Y-87018761D01*
X157813428Y-86875904D01*
X157718190Y-86828285D01*
X157622952Y-86828285D01*
X157670571Y-87066380D02*
X157575333Y-87018761D01*
X157480095Y-86923523D01*
X157432476Y-86733047D01*
X157432476Y-86399714D01*
X157480095Y-86209238D01*
X157575333Y-86114000D01*
X157670571Y-86066380D01*
X157861047Y-86066380D01*
X157956285Y-86114000D01*
X158051523Y-86209238D01*
X158099142Y-86399714D01*
X158099142Y-86733047D01*
X158051523Y-86923523D01*
X157956285Y-87018761D01*
X157861047Y-87066380D01*
X157670571Y-87066380D01*
X158432476Y-86066380D02*
X159051523Y-86066380D01*
X158718190Y-86447333D01*
X158861047Y-86447333D01*
X158956285Y-86494952D01*
X159003904Y-86542571D01*
X159051523Y-86637809D01*
X159051523Y-86875904D01*
X159003904Y-86971142D01*
X158956285Y-87018761D01*
X158861047Y-87066380D01*
X158575333Y-87066380D01*
X158480095Y-87018761D01*
X158432476Y-86971142D01*
%TO.C,R1*%
X130643333Y-112212380D02*
X130310000Y-111736190D01*
X130071904Y-112212380D02*
X130071904Y-111212380D01*
X130452857Y-111212380D01*
X130548095Y-111260000D01*
X130595714Y-111307619D01*
X130643333Y-111402857D01*
X130643333Y-111545714D01*
X130595714Y-111640952D01*
X130548095Y-111688571D01*
X130452857Y-111736190D01*
X130071904Y-111736190D01*
X131595714Y-112212380D02*
X131024285Y-112212380D01*
X131310000Y-112212380D02*
X131310000Y-111212380D01*
X131214761Y-111355238D01*
X131119523Y-111450476D01*
X131024285Y-111498095D01*
%TO.C,SW2*%
X145351666Y-124864761D02*
X145494523Y-124912380D01*
X145732619Y-124912380D01*
X145827857Y-124864761D01*
X145875476Y-124817142D01*
X145923095Y-124721904D01*
X145923095Y-124626666D01*
X145875476Y-124531428D01*
X145827857Y-124483809D01*
X145732619Y-124436190D01*
X145542142Y-124388571D01*
X145446904Y-124340952D01*
X145399285Y-124293333D01*
X145351666Y-124198095D01*
X145351666Y-124102857D01*
X145399285Y-124007619D01*
X145446904Y-123960000D01*
X145542142Y-123912380D01*
X145780238Y-123912380D01*
X145923095Y-123960000D01*
X146256428Y-123912380D02*
X146494523Y-124912380D01*
X146685000Y-124198095D01*
X146875476Y-124912380D01*
X147113571Y-123912380D01*
X147446904Y-124007619D02*
X147494523Y-123960000D01*
X147589761Y-123912380D01*
X147827857Y-123912380D01*
X147923095Y-123960000D01*
X147970714Y-124007619D01*
X148018333Y-124102857D01*
X148018333Y-124198095D01*
X147970714Y-124340952D01*
X147399285Y-124912380D01*
X148018333Y-124912380D01*
%TO.C,Q2*%
X158146761Y-81906119D02*
X158051523Y-81858500D01*
X157956285Y-81763261D01*
X157813428Y-81620404D01*
X157718190Y-81572785D01*
X157622952Y-81572785D01*
X157670571Y-81810880D02*
X157575333Y-81763261D01*
X157480095Y-81668023D01*
X157432476Y-81477547D01*
X157432476Y-81144214D01*
X157480095Y-80953738D01*
X157575333Y-80858500D01*
X157670571Y-80810880D01*
X157861047Y-80810880D01*
X157956285Y-80858500D01*
X158051523Y-80953738D01*
X158099142Y-81144214D01*
X158099142Y-81477547D01*
X158051523Y-81668023D01*
X157956285Y-81763261D01*
X157861047Y-81810880D01*
X157670571Y-81810880D01*
X158480095Y-80906119D02*
X158527714Y-80858500D01*
X158622952Y-80810880D01*
X158861047Y-80810880D01*
X158956285Y-80858500D01*
X159003904Y-80906119D01*
X159051523Y-81001357D01*
X159051523Y-81096595D01*
X159003904Y-81239452D01*
X158432476Y-81810880D01*
X159051523Y-81810880D01*
%TO.C,U3*%
X125131580Y-86664704D02*
X125941104Y-86664704D01*
X126036342Y-86617085D01*
X126083961Y-86569466D01*
X126131580Y-86474228D01*
X126131580Y-86283752D01*
X126083961Y-86188514D01*
X126036342Y-86140895D01*
X125941104Y-86093276D01*
X125131580Y-86093276D01*
X125131580Y-85712323D02*
X125131580Y-85093276D01*
X125512533Y-85426609D01*
X125512533Y-85283752D01*
X125560152Y-85188514D01*
X125607771Y-85140895D01*
X125703009Y-85093276D01*
X125941104Y-85093276D01*
X126036342Y-85140895D01*
X126083961Y-85188514D01*
X126131580Y-85283752D01*
X126131580Y-85569466D01*
X126083961Y-85664704D01*
X126036342Y-85712323D01*
%TO.C,R12*%
X147947142Y-88590380D02*
X147613809Y-88114190D01*
X147375714Y-88590380D02*
X147375714Y-87590380D01*
X147756666Y-87590380D01*
X147851904Y-87638000D01*
X147899523Y-87685619D01*
X147947142Y-87780857D01*
X147947142Y-87923714D01*
X147899523Y-88018952D01*
X147851904Y-88066571D01*
X147756666Y-88114190D01*
X147375714Y-88114190D01*
X148899523Y-88590380D02*
X148328095Y-88590380D01*
X148613809Y-88590380D02*
X148613809Y-87590380D01*
X148518571Y-87733238D01*
X148423333Y-87828476D01*
X148328095Y-87876095D01*
X149280476Y-87685619D02*
X149328095Y-87638000D01*
X149423333Y-87590380D01*
X149661428Y-87590380D01*
X149756666Y-87638000D01*
X149804285Y-87685619D01*
X149851904Y-87780857D01*
X149851904Y-87876095D01*
X149804285Y-88018952D01*
X149232857Y-88590380D01*
X149851904Y-88590380D01*
%TO.C,C7*%
X123531333Y-78716142D02*
X123483714Y-78763761D01*
X123340857Y-78811380D01*
X123245619Y-78811380D01*
X123102761Y-78763761D01*
X123007523Y-78668523D01*
X122959904Y-78573285D01*
X122912285Y-78382809D01*
X122912285Y-78239952D01*
X122959904Y-78049476D01*
X123007523Y-77954238D01*
X123102761Y-77859000D01*
X123245619Y-77811380D01*
X123340857Y-77811380D01*
X123483714Y-77859000D01*
X123531333Y-77906619D01*
X123864666Y-77811380D02*
X124531333Y-77811380D01*
X124102761Y-78811380D01*
%TO.C,J2*%
X170481666Y-92162380D02*
X170481666Y-92876666D01*
X170434047Y-93019523D01*
X170338809Y-93114761D01*
X170195952Y-93162380D01*
X170100714Y-93162380D01*
X170910238Y-92257619D02*
X170957857Y-92210000D01*
X171053095Y-92162380D01*
X171291190Y-92162380D01*
X171386428Y-92210000D01*
X171434047Y-92257619D01*
X171481666Y-92352857D01*
X171481666Y-92448095D01*
X171434047Y-92590952D01*
X170862619Y-93162380D01*
X171481666Y-93162380D01*
%TO.C,C3*%
X160361333Y-119991142D02*
X160313714Y-120038761D01*
X160170857Y-120086380D01*
X160075619Y-120086380D01*
X159932761Y-120038761D01*
X159837523Y-119943523D01*
X159789904Y-119848285D01*
X159742285Y-119657809D01*
X159742285Y-119514952D01*
X159789904Y-119324476D01*
X159837523Y-119229238D01*
X159932761Y-119134000D01*
X160075619Y-119086380D01*
X160170857Y-119086380D01*
X160313714Y-119134000D01*
X160361333Y-119181619D01*
X160694666Y-119086380D02*
X161313714Y-119086380D01*
X160980380Y-119467333D01*
X161123238Y-119467333D01*
X161218476Y-119514952D01*
X161266095Y-119562571D01*
X161313714Y-119657809D01*
X161313714Y-119895904D01*
X161266095Y-119991142D01*
X161218476Y-120038761D01*
X161123238Y-120086380D01*
X160837523Y-120086380D01*
X160742285Y-120038761D01*
X160694666Y-119991142D01*
%TO.C,C2*%
X160869333Y-115800142D02*
X160821714Y-115847761D01*
X160678857Y-115895380D01*
X160583619Y-115895380D01*
X160440761Y-115847761D01*
X160345523Y-115752523D01*
X160297904Y-115657285D01*
X160250285Y-115466809D01*
X160250285Y-115323952D01*
X160297904Y-115133476D01*
X160345523Y-115038238D01*
X160440761Y-114943000D01*
X160583619Y-114895380D01*
X160678857Y-114895380D01*
X160821714Y-114943000D01*
X160869333Y-114990619D01*
X161250285Y-114990619D02*
X161297904Y-114943000D01*
X161393142Y-114895380D01*
X161631238Y-114895380D01*
X161726476Y-114943000D01*
X161774095Y-114990619D01*
X161821714Y-115085857D01*
X161821714Y-115181095D01*
X161774095Y-115323952D01*
X161202666Y-115895380D01*
X161821714Y-115895380D01*
%TO.C,R3*%
X128163580Y-81853066D02*
X127687390Y-82186400D01*
X128163580Y-82424495D02*
X127163580Y-82424495D01*
X127163580Y-82043542D01*
X127211200Y-81948304D01*
X127258819Y-81900685D01*
X127354057Y-81853066D01*
X127496914Y-81853066D01*
X127592152Y-81900685D01*
X127639771Y-81948304D01*
X127687390Y-82043542D01*
X127687390Y-82424495D01*
X127163580Y-81519733D02*
X127163580Y-80900685D01*
X127544533Y-81234019D01*
X127544533Y-81091161D01*
X127592152Y-80995923D01*
X127639771Y-80948304D01*
X127735009Y-80900685D01*
X127973104Y-80900685D01*
X128068342Y-80948304D01*
X128115961Y-80995923D01*
X128163580Y-81091161D01*
X128163580Y-81376876D01*
X128115961Y-81472114D01*
X128068342Y-81519733D01*
%TO.C,R16*%
X158107142Y-84526380D02*
X157773809Y-84050190D01*
X157535714Y-84526380D02*
X157535714Y-83526380D01*
X157916666Y-83526380D01*
X158011904Y-83574000D01*
X158059523Y-83621619D01*
X158107142Y-83716857D01*
X158107142Y-83859714D01*
X158059523Y-83954952D01*
X158011904Y-84002571D01*
X157916666Y-84050190D01*
X157535714Y-84050190D01*
X159059523Y-84526380D02*
X158488095Y-84526380D01*
X158773809Y-84526380D02*
X158773809Y-83526380D01*
X158678571Y-83669238D01*
X158583333Y-83764476D01*
X158488095Y-83812095D01*
X159916666Y-83526380D02*
X159726190Y-83526380D01*
X159630952Y-83574000D01*
X159583333Y-83621619D01*
X159488095Y-83764476D01*
X159440476Y-83954952D01*
X159440476Y-84335904D01*
X159488095Y-84431142D01*
X159535714Y-84478761D01*
X159630952Y-84526380D01*
X159821428Y-84526380D01*
X159916666Y-84478761D01*
X159964285Y-84431142D01*
X160011904Y-84335904D01*
X160011904Y-84097809D01*
X159964285Y-84002571D01*
X159916666Y-83954952D01*
X159821428Y-83907333D01*
X159630952Y-83907333D01*
X159535714Y-83954952D01*
X159488095Y-84002571D01*
X159440476Y-84097809D01*
%TO.C,Q9*%
X133516619Y-83886238D02*
X133469000Y-83981476D01*
X133373761Y-84076714D01*
X133230904Y-84219571D01*
X133183285Y-84314809D01*
X133183285Y-84410047D01*
X133421380Y-84362428D02*
X133373761Y-84457666D01*
X133278523Y-84552904D01*
X133088047Y-84600523D01*
X132754714Y-84600523D01*
X132564238Y-84552904D01*
X132469000Y-84457666D01*
X132421380Y-84362428D01*
X132421380Y-84171952D01*
X132469000Y-84076714D01*
X132564238Y-83981476D01*
X132754714Y-83933857D01*
X133088047Y-83933857D01*
X133278523Y-83981476D01*
X133373761Y-84076714D01*
X133421380Y-84171952D01*
X133421380Y-84362428D01*
X133421380Y-83457666D02*
X133421380Y-83267190D01*
X133373761Y-83171952D01*
X133326142Y-83124333D01*
X133183285Y-83029095D01*
X132992809Y-82981476D01*
X132611857Y-82981476D01*
X132516619Y-83029095D01*
X132469000Y-83076714D01*
X132421380Y-83171952D01*
X132421380Y-83362428D01*
X132469000Y-83457666D01*
X132516619Y-83505285D01*
X132611857Y-83552904D01*
X132849952Y-83552904D01*
X132945190Y-83505285D01*
X132992809Y-83457666D01*
X133040428Y-83362428D01*
X133040428Y-83171952D01*
X132992809Y-83076714D01*
X132945190Y-83029095D01*
X132849952Y-82981476D01*
%TO.C,Q5*%
X155479761Y-81954619D02*
X155384523Y-81907000D01*
X155289285Y-81811761D01*
X155146428Y-81668904D01*
X155051190Y-81621285D01*
X154955952Y-81621285D01*
X155003571Y-81859380D02*
X154908333Y-81811761D01*
X154813095Y-81716523D01*
X154765476Y-81526047D01*
X154765476Y-81192714D01*
X154813095Y-81002238D01*
X154908333Y-80907000D01*
X155003571Y-80859380D01*
X155194047Y-80859380D01*
X155289285Y-80907000D01*
X155384523Y-81002238D01*
X155432142Y-81192714D01*
X155432142Y-81526047D01*
X155384523Y-81716523D01*
X155289285Y-81811761D01*
X155194047Y-81859380D01*
X155003571Y-81859380D01*
X156336904Y-80859380D02*
X155860714Y-80859380D01*
X155813095Y-81335571D01*
X155860714Y-81287952D01*
X155955952Y-81240333D01*
X156194047Y-81240333D01*
X156289285Y-81287952D01*
X156336904Y-81335571D01*
X156384523Y-81430809D01*
X156384523Y-81668904D01*
X156336904Y-81764142D01*
X156289285Y-81811761D01*
X156194047Y-81859380D01*
X155955952Y-81859380D01*
X155860714Y-81811761D01*
X155813095Y-81764142D01*
%TO.C,R17*%
X158107142Y-89860380D02*
X157773809Y-89384190D01*
X157535714Y-89860380D02*
X157535714Y-88860380D01*
X157916666Y-88860380D01*
X158011904Y-88908000D01*
X158059523Y-88955619D01*
X158107142Y-89050857D01*
X158107142Y-89193714D01*
X158059523Y-89288952D01*
X158011904Y-89336571D01*
X157916666Y-89384190D01*
X157535714Y-89384190D01*
X159059523Y-89860380D02*
X158488095Y-89860380D01*
X158773809Y-89860380D02*
X158773809Y-88860380D01*
X158678571Y-89003238D01*
X158583333Y-89098476D01*
X158488095Y-89146095D01*
X159392857Y-88860380D02*
X160059523Y-88860380D01*
X159630952Y-89860380D01*
%TO.C,R11*%
X164950380Y-77667857D02*
X164474190Y-78001190D01*
X164950380Y-78239285D02*
X163950380Y-78239285D01*
X163950380Y-77858333D01*
X163998000Y-77763095D01*
X164045619Y-77715476D01*
X164140857Y-77667857D01*
X164283714Y-77667857D01*
X164378952Y-77715476D01*
X164426571Y-77763095D01*
X164474190Y-77858333D01*
X164474190Y-78239285D01*
X164950380Y-76715476D02*
X164950380Y-77286904D01*
X164950380Y-77001190D02*
X163950380Y-77001190D01*
X164093238Y-77096428D01*
X164188476Y-77191666D01*
X164236095Y-77286904D01*
X164950380Y-75763095D02*
X164950380Y-76334523D01*
X164950380Y-76048809D02*
X163950380Y-76048809D01*
X164093238Y-76144047D01*
X164188476Y-76239285D01*
X164236095Y-76334523D01*
%TO.C,R4*%
X129611380Y-75731666D02*
X129135190Y-76065000D01*
X129611380Y-76303095D02*
X128611380Y-76303095D01*
X128611380Y-75922142D01*
X128659000Y-75826904D01*
X128706619Y-75779285D01*
X128801857Y-75731666D01*
X128944714Y-75731666D01*
X129039952Y-75779285D01*
X129087571Y-75826904D01*
X129135190Y-75922142D01*
X129135190Y-76303095D01*
X128944714Y-74874523D02*
X129611380Y-74874523D01*
X128563761Y-75112619D02*
X129278047Y-75350714D01*
X129278047Y-74731666D01*
%TO.C,TP11*%
X135850380Y-102322095D02*
X135850380Y-101750666D01*
X136850380Y-102036380D02*
X135850380Y-102036380D01*
X136850380Y-101417333D02*
X135850380Y-101417333D01*
X135850380Y-101036380D01*
X135898000Y-100941142D01*
X135945619Y-100893523D01*
X136040857Y-100845904D01*
X136183714Y-100845904D01*
X136278952Y-100893523D01*
X136326571Y-100941142D01*
X136374190Y-101036380D01*
X136374190Y-101417333D01*
X136850380Y-99893523D02*
X136850380Y-100464952D01*
X136850380Y-100179238D02*
X135850380Y-100179238D01*
X135993238Y-100274476D01*
X136088476Y-100369714D01*
X136136095Y-100464952D01*
X136850380Y-98941142D02*
X136850380Y-99512571D01*
X136850380Y-99226857D02*
X135850380Y-99226857D01*
X135993238Y-99322095D01*
X136088476Y-99417333D01*
X136136095Y-99512571D01*
%TO.C,C15*%
X144391142Y-106656142D02*
X144343523Y-106703761D01*
X144200666Y-106751380D01*
X144105428Y-106751380D01*
X143962571Y-106703761D01*
X143867333Y-106608523D01*
X143819714Y-106513285D01*
X143772095Y-106322809D01*
X143772095Y-106179952D01*
X143819714Y-105989476D01*
X143867333Y-105894238D01*
X143962571Y-105799000D01*
X144105428Y-105751380D01*
X144200666Y-105751380D01*
X144343523Y-105799000D01*
X144391142Y-105846619D01*
X145343523Y-106751380D02*
X144772095Y-106751380D01*
X145057809Y-106751380D02*
X145057809Y-105751380D01*
X144962571Y-105894238D01*
X144867333Y-105989476D01*
X144772095Y-106037095D01*
X146248285Y-105751380D02*
X145772095Y-105751380D01*
X145724476Y-106227571D01*
X145772095Y-106179952D01*
X145867333Y-106132333D01*
X146105428Y-106132333D01*
X146200666Y-106179952D01*
X146248285Y-106227571D01*
X146295904Y-106322809D01*
X146295904Y-106560904D01*
X146248285Y-106656142D01*
X146200666Y-106703761D01*
X146105428Y-106751380D01*
X145867333Y-106751380D01*
X145772095Y-106703761D01*
X145724476Y-106656142D01*
%TO.C,SW1*%
X145522761Y-100611333D02*
X145570380Y-100468476D01*
X145570380Y-100230380D01*
X145522761Y-100135142D01*
X145475142Y-100087523D01*
X145379904Y-100039904D01*
X145284666Y-100039904D01*
X145189428Y-100087523D01*
X145141809Y-100135142D01*
X145094190Y-100230380D01*
X145046571Y-100420857D01*
X144998952Y-100516095D01*
X144951333Y-100563714D01*
X144856095Y-100611333D01*
X144760857Y-100611333D01*
X144665619Y-100563714D01*
X144618000Y-100516095D01*
X144570380Y-100420857D01*
X144570380Y-100182761D01*
X144618000Y-100039904D01*
X144570380Y-99706571D02*
X145570380Y-99468476D01*
X144856095Y-99278000D01*
X145570380Y-99087523D01*
X144570380Y-98849428D01*
X145570380Y-97944666D02*
X145570380Y-98516095D01*
X145570380Y-98230380D02*
X144570380Y-98230380D01*
X144713238Y-98325619D01*
X144808476Y-98420857D01*
X144856095Y-98516095D01*
%TO.C,U1*%
X153630380Y-117605904D02*
X154439904Y-117605904D01*
X154535142Y-117558285D01*
X154582761Y-117510666D01*
X154630380Y-117415428D01*
X154630380Y-117224952D01*
X154582761Y-117129714D01*
X154535142Y-117082095D01*
X154439904Y-117034476D01*
X153630380Y-117034476D01*
X154630380Y-116034476D02*
X154630380Y-116605904D01*
X154630380Y-116320190D02*
X153630380Y-116320190D01*
X153773238Y-116415428D01*
X153868476Y-116510666D01*
X153916095Y-116605904D01*
%TO.C,R18*%
X163962880Y-85478857D02*
X163486690Y-85812190D01*
X163962880Y-86050285D02*
X162962880Y-86050285D01*
X162962880Y-85669333D01*
X163010500Y-85574095D01*
X163058119Y-85526476D01*
X163153357Y-85478857D01*
X163296214Y-85478857D01*
X163391452Y-85526476D01*
X163439071Y-85574095D01*
X163486690Y-85669333D01*
X163486690Y-86050285D01*
X163962880Y-84526476D02*
X163962880Y-85097904D01*
X163962880Y-84812190D02*
X162962880Y-84812190D01*
X163105738Y-84907428D01*
X163200976Y-85002666D01*
X163248595Y-85097904D01*
X163391452Y-83955047D02*
X163343833Y-84050285D01*
X163296214Y-84097904D01*
X163200976Y-84145523D01*
X163153357Y-84145523D01*
X163058119Y-84097904D01*
X163010500Y-84050285D01*
X162962880Y-83955047D01*
X162962880Y-83764571D01*
X163010500Y-83669333D01*
X163058119Y-83621714D01*
X163153357Y-83574095D01*
X163200976Y-83574095D01*
X163296214Y-83621714D01*
X163343833Y-83669333D01*
X163391452Y-83764571D01*
X163391452Y-83955047D01*
X163439071Y-84050285D01*
X163486690Y-84097904D01*
X163581928Y-84145523D01*
X163772404Y-84145523D01*
X163867642Y-84097904D01*
X163915261Y-84050285D01*
X163962880Y-83955047D01*
X163962880Y-83764571D01*
X163915261Y-83669333D01*
X163867642Y-83621714D01*
X163772404Y-83574095D01*
X163581928Y-83574095D01*
X163486690Y-83621714D01*
X163439071Y-83669333D01*
X163391452Y-83764571D01*
%TO.C,C9*%
X130948133Y-88901542D02*
X130900514Y-88949161D01*
X130757657Y-88996780D01*
X130662419Y-88996780D01*
X130519561Y-88949161D01*
X130424323Y-88853923D01*
X130376704Y-88758685D01*
X130329085Y-88568209D01*
X130329085Y-88425352D01*
X130376704Y-88234876D01*
X130424323Y-88139638D01*
X130519561Y-88044400D01*
X130662419Y-87996780D01*
X130757657Y-87996780D01*
X130900514Y-88044400D01*
X130948133Y-88092019D01*
X131424323Y-88996780D02*
X131614800Y-88996780D01*
X131710038Y-88949161D01*
X131757657Y-88901542D01*
X131852895Y-88758685D01*
X131900514Y-88568209D01*
X131900514Y-88187257D01*
X131852895Y-88092019D01*
X131805276Y-88044400D01*
X131710038Y-87996780D01*
X131519561Y-87996780D01*
X131424323Y-88044400D01*
X131376704Y-88092019D01*
X131329085Y-88187257D01*
X131329085Y-88425352D01*
X131376704Y-88520590D01*
X131424323Y-88568209D01*
X131519561Y-88615828D01*
X131710038Y-88615828D01*
X131805276Y-88568209D01*
X131852895Y-88520590D01*
X131900514Y-88425352D01*
%TO.C,R23*%
X165981142Y-93162380D02*
X165647809Y-92686190D01*
X165409714Y-93162380D02*
X165409714Y-92162380D01*
X165790666Y-92162380D01*
X165885904Y-92210000D01*
X165933523Y-92257619D01*
X165981142Y-92352857D01*
X165981142Y-92495714D01*
X165933523Y-92590952D01*
X165885904Y-92638571D01*
X165790666Y-92686190D01*
X165409714Y-92686190D01*
X166362095Y-92257619D02*
X166409714Y-92210000D01*
X166504952Y-92162380D01*
X166743047Y-92162380D01*
X166838285Y-92210000D01*
X166885904Y-92257619D01*
X166933523Y-92352857D01*
X166933523Y-92448095D01*
X166885904Y-92590952D01*
X166314476Y-93162380D01*
X166933523Y-93162380D01*
X167266857Y-92162380D02*
X167885904Y-92162380D01*
X167552571Y-92543333D01*
X167695428Y-92543333D01*
X167790666Y-92590952D01*
X167838285Y-92638571D01*
X167885904Y-92733809D01*
X167885904Y-92971904D01*
X167838285Y-93067142D01*
X167790666Y-93114761D01*
X167695428Y-93162380D01*
X167409714Y-93162380D01*
X167314476Y-93114761D01*
X167266857Y-93067142D01*
%TO.C,R21*%
X164457142Y-105608380D02*
X164123809Y-105132190D01*
X163885714Y-105608380D02*
X163885714Y-104608380D01*
X164266666Y-104608380D01*
X164361904Y-104656000D01*
X164409523Y-104703619D01*
X164457142Y-104798857D01*
X164457142Y-104941714D01*
X164409523Y-105036952D01*
X164361904Y-105084571D01*
X164266666Y-105132190D01*
X163885714Y-105132190D01*
X164838095Y-104703619D02*
X164885714Y-104656000D01*
X164980952Y-104608380D01*
X165219047Y-104608380D01*
X165314285Y-104656000D01*
X165361904Y-104703619D01*
X165409523Y-104798857D01*
X165409523Y-104894095D01*
X165361904Y-105036952D01*
X164790476Y-105608380D01*
X165409523Y-105608380D01*
X166361904Y-105608380D02*
X165790476Y-105608380D01*
X166076190Y-105608380D02*
X166076190Y-104608380D01*
X165980952Y-104751238D01*
X165885714Y-104846476D01*
X165790476Y-104894095D01*
%TO.C,C11*%
X160901142Y-117959142D02*
X160853523Y-118006761D01*
X160710666Y-118054380D01*
X160615428Y-118054380D01*
X160472571Y-118006761D01*
X160377333Y-117911523D01*
X160329714Y-117816285D01*
X160282095Y-117625809D01*
X160282095Y-117482952D01*
X160329714Y-117292476D01*
X160377333Y-117197238D01*
X160472571Y-117102000D01*
X160615428Y-117054380D01*
X160710666Y-117054380D01*
X160853523Y-117102000D01*
X160901142Y-117149619D01*
X161853523Y-118054380D02*
X161282095Y-118054380D01*
X161567809Y-118054380D02*
X161567809Y-117054380D01*
X161472571Y-117197238D01*
X161377333Y-117292476D01*
X161282095Y-117340095D01*
X162805904Y-118054380D02*
X162234476Y-118054380D01*
X162520190Y-118054380D02*
X162520190Y-117054380D01*
X162424952Y-117197238D01*
X162329714Y-117292476D01*
X162234476Y-117340095D01*
%TO.C,R9*%
X139535333Y-118562380D02*
X139202000Y-118086190D01*
X138963904Y-118562380D02*
X138963904Y-117562380D01*
X139344857Y-117562380D01*
X139440095Y-117610000D01*
X139487714Y-117657619D01*
X139535333Y-117752857D01*
X139535333Y-117895714D01*
X139487714Y-117990952D01*
X139440095Y-118038571D01*
X139344857Y-118086190D01*
X138963904Y-118086190D01*
X140011523Y-118562380D02*
X140202000Y-118562380D01*
X140297238Y-118514761D01*
X140344857Y-118467142D01*
X140440095Y-118324285D01*
X140487714Y-118133809D01*
X140487714Y-117752857D01*
X140440095Y-117657619D01*
X140392476Y-117610000D01*
X140297238Y-117562380D01*
X140106761Y-117562380D01*
X140011523Y-117610000D01*
X139963904Y-117657619D01*
X139916285Y-117752857D01*
X139916285Y-117990952D01*
X139963904Y-118086190D01*
X140011523Y-118133809D01*
X140106761Y-118181428D01*
X140297238Y-118181428D01*
X140392476Y-118133809D01*
X140440095Y-118086190D01*
X140487714Y-117990952D01*
%TO.C,R2*%
X148534380Y-117258666D02*
X148058190Y-117592000D01*
X148534380Y-117830095D02*
X147534380Y-117830095D01*
X147534380Y-117449142D01*
X147582000Y-117353904D01*
X147629619Y-117306285D01*
X147724857Y-117258666D01*
X147867714Y-117258666D01*
X147962952Y-117306285D01*
X148010571Y-117353904D01*
X148058190Y-117449142D01*
X148058190Y-117830095D01*
X147629619Y-116877714D02*
X147582000Y-116830095D01*
X147534380Y-116734857D01*
X147534380Y-116496761D01*
X147582000Y-116401523D01*
X147629619Y-116353904D01*
X147724857Y-116306285D01*
X147820095Y-116306285D01*
X147962952Y-116353904D01*
X148534380Y-116925333D01*
X148534380Y-116306285D01*
%TO.C,T1*%
X127722380Y-96773904D02*
X127722380Y-96202476D01*
X128722380Y-96488190D02*
X127722380Y-96488190D01*
X128722380Y-95345333D02*
X128722380Y-95916761D01*
X128722380Y-95631047D02*
X127722380Y-95631047D01*
X127865238Y-95726285D01*
X127960476Y-95821523D01*
X128008095Y-95916761D01*
%TO.C,R24*%
X157853142Y-95448380D02*
X157519809Y-94972190D01*
X157281714Y-95448380D02*
X157281714Y-94448380D01*
X157662666Y-94448380D01*
X157757904Y-94496000D01*
X157805523Y-94543619D01*
X157853142Y-94638857D01*
X157853142Y-94781714D01*
X157805523Y-94876952D01*
X157757904Y-94924571D01*
X157662666Y-94972190D01*
X157281714Y-94972190D01*
X158234095Y-94543619D02*
X158281714Y-94496000D01*
X158376952Y-94448380D01*
X158615047Y-94448380D01*
X158710285Y-94496000D01*
X158757904Y-94543619D01*
X158805523Y-94638857D01*
X158805523Y-94734095D01*
X158757904Y-94876952D01*
X158186476Y-95448380D01*
X158805523Y-95448380D01*
X159662666Y-94781714D02*
X159662666Y-95448380D01*
X159424571Y-94400761D02*
X159186476Y-95115047D01*
X159805523Y-95115047D01*
%TO.C,R8*%
X140549333Y-81478380D02*
X140216000Y-81002190D01*
X139977904Y-81478380D02*
X139977904Y-80478380D01*
X140358857Y-80478380D01*
X140454095Y-80526000D01*
X140501714Y-80573619D01*
X140549333Y-80668857D01*
X140549333Y-80811714D01*
X140501714Y-80906952D01*
X140454095Y-80954571D01*
X140358857Y-81002190D01*
X139977904Y-81002190D01*
X141120761Y-80906952D02*
X141025523Y-80859333D01*
X140977904Y-80811714D01*
X140930285Y-80716476D01*
X140930285Y-80668857D01*
X140977904Y-80573619D01*
X141025523Y-80526000D01*
X141120761Y-80478380D01*
X141311238Y-80478380D01*
X141406476Y-80526000D01*
X141454095Y-80573619D01*
X141501714Y-80668857D01*
X141501714Y-80716476D01*
X141454095Y-80811714D01*
X141406476Y-80859333D01*
X141311238Y-80906952D01*
X141120761Y-80906952D01*
X141025523Y-80954571D01*
X140977904Y-81002190D01*
X140930285Y-81097428D01*
X140930285Y-81287904D01*
X140977904Y-81383142D01*
X141025523Y-81430761D01*
X141120761Y-81478380D01*
X141311238Y-81478380D01*
X141406476Y-81430761D01*
X141454095Y-81383142D01*
X141501714Y-81287904D01*
X141501714Y-81097428D01*
X141454095Y-81002190D01*
X141406476Y-80954571D01*
X141311238Y-80906952D01*
%TO.C,R14*%
X144645142Y-88590380D02*
X144311809Y-88114190D01*
X144073714Y-88590380D02*
X144073714Y-87590380D01*
X144454666Y-87590380D01*
X144549904Y-87638000D01*
X144597523Y-87685619D01*
X144645142Y-87780857D01*
X144645142Y-87923714D01*
X144597523Y-88018952D01*
X144549904Y-88066571D01*
X144454666Y-88114190D01*
X144073714Y-88114190D01*
X145597523Y-88590380D02*
X145026095Y-88590380D01*
X145311809Y-88590380D02*
X145311809Y-87590380D01*
X145216571Y-87733238D01*
X145121333Y-87828476D01*
X145026095Y-87876095D01*
X146454666Y-87923714D02*
X146454666Y-88590380D01*
X146216571Y-87542761D02*
X145978476Y-88257047D01*
X146597523Y-88257047D01*
%TO.C,R5*%
X128265180Y-84647066D02*
X127788990Y-84980400D01*
X128265180Y-85218495D02*
X127265180Y-85218495D01*
X127265180Y-84837542D01*
X127312800Y-84742304D01*
X127360419Y-84694685D01*
X127455657Y-84647066D01*
X127598514Y-84647066D01*
X127693752Y-84694685D01*
X127741371Y-84742304D01*
X127788990Y-84837542D01*
X127788990Y-85218495D01*
X127265180Y-83742304D02*
X127265180Y-84218495D01*
X127741371Y-84266114D01*
X127693752Y-84218495D01*
X127646133Y-84123257D01*
X127646133Y-83885161D01*
X127693752Y-83789923D01*
X127741371Y-83742304D01*
X127836609Y-83694685D01*
X128074704Y-83694685D01*
X128169942Y-83742304D01*
X128217561Y-83789923D01*
X128265180Y-83885161D01*
X128265180Y-84123257D01*
X128217561Y-84218495D01*
X128169942Y-84266114D01*
%TO.C,Q1*%
X133129761Y-117562619D02*
X133034523Y-117515000D01*
X132939285Y-117419761D01*
X132796428Y-117276904D01*
X132701190Y-117229285D01*
X132605952Y-117229285D01*
X132653571Y-117467380D02*
X132558333Y-117419761D01*
X132463095Y-117324523D01*
X132415476Y-117134047D01*
X132415476Y-116800714D01*
X132463095Y-116610238D01*
X132558333Y-116515000D01*
X132653571Y-116467380D01*
X132844047Y-116467380D01*
X132939285Y-116515000D01*
X133034523Y-116610238D01*
X133082142Y-116800714D01*
X133082142Y-117134047D01*
X133034523Y-117324523D01*
X132939285Y-117419761D01*
X132844047Y-117467380D01*
X132653571Y-117467380D01*
X134034523Y-117467380D02*
X133463095Y-117467380D01*
X133748809Y-117467380D02*
X133748809Y-116467380D01*
X133653571Y-116610238D01*
X133558333Y-116705476D01*
X133463095Y-116753095D01*
%TO.C,C6*%
X121499333Y-78081142D02*
X121451714Y-78128761D01*
X121308857Y-78176380D01*
X121213619Y-78176380D01*
X121070761Y-78128761D01*
X120975523Y-78033523D01*
X120927904Y-77938285D01*
X120880285Y-77747809D01*
X120880285Y-77604952D01*
X120927904Y-77414476D01*
X120975523Y-77319238D01*
X121070761Y-77224000D01*
X121213619Y-77176380D01*
X121308857Y-77176380D01*
X121451714Y-77224000D01*
X121499333Y-77271619D01*
X122356476Y-77176380D02*
X122166000Y-77176380D01*
X122070761Y-77224000D01*
X122023142Y-77271619D01*
X121927904Y-77414476D01*
X121880285Y-77604952D01*
X121880285Y-77985904D01*
X121927904Y-78081142D01*
X121975523Y-78128761D01*
X122070761Y-78176380D01*
X122261238Y-78176380D01*
X122356476Y-78128761D01*
X122404095Y-78081142D01*
X122451714Y-77985904D01*
X122451714Y-77747809D01*
X122404095Y-77652571D01*
X122356476Y-77604952D01*
X122261238Y-77557333D01*
X122070761Y-77557333D01*
X121975523Y-77604952D01*
X121927904Y-77652571D01*
X121880285Y-77747809D01*
%TO.C,C16*%
X144645142Y-111642142D02*
X144597523Y-111689761D01*
X144454666Y-111737380D01*
X144359428Y-111737380D01*
X144216571Y-111689761D01*
X144121333Y-111594523D01*
X144073714Y-111499285D01*
X144026095Y-111308809D01*
X144026095Y-111165952D01*
X144073714Y-110975476D01*
X144121333Y-110880238D01*
X144216571Y-110785000D01*
X144359428Y-110737380D01*
X144454666Y-110737380D01*
X144597523Y-110785000D01*
X144645142Y-110832619D01*
X145597523Y-111737380D02*
X145026095Y-111737380D01*
X145311809Y-111737380D02*
X145311809Y-110737380D01*
X145216571Y-110880238D01*
X145121333Y-110975476D01*
X145026095Y-111023095D01*
X146454666Y-110737380D02*
X146264190Y-110737380D01*
X146168952Y-110785000D01*
X146121333Y-110832619D01*
X146026095Y-110975476D01*
X145978476Y-111165952D01*
X145978476Y-111546904D01*
X146026095Y-111642142D01*
X146073714Y-111689761D01*
X146168952Y-111737380D01*
X146359428Y-111737380D01*
X146454666Y-111689761D01*
X146502285Y-111642142D01*
X146549904Y-111546904D01*
X146549904Y-111308809D01*
X146502285Y-111213571D01*
X146454666Y-111165952D01*
X146359428Y-111118333D01*
X146168952Y-111118333D01*
X146073714Y-111165952D01*
X146026095Y-111213571D01*
X145978476Y-111308809D01*
%TO.C,R13*%
X161775380Y-77667857D02*
X161299190Y-78001190D01*
X161775380Y-78239285D02*
X160775380Y-78239285D01*
X160775380Y-77858333D01*
X160823000Y-77763095D01*
X160870619Y-77715476D01*
X160965857Y-77667857D01*
X161108714Y-77667857D01*
X161203952Y-77715476D01*
X161251571Y-77763095D01*
X161299190Y-77858333D01*
X161299190Y-78239285D01*
X161775380Y-76715476D02*
X161775380Y-77286904D01*
X161775380Y-77001190D02*
X160775380Y-77001190D01*
X160918238Y-77096428D01*
X161013476Y-77191666D01*
X161061095Y-77286904D01*
X160775380Y-76382142D02*
X160775380Y-75763095D01*
X161156333Y-76096428D01*
X161156333Y-75953571D01*
X161203952Y-75858333D01*
X161251571Y-75810714D01*
X161346809Y-75763095D01*
X161584904Y-75763095D01*
X161680142Y-75810714D01*
X161727761Y-75858333D01*
X161775380Y-75953571D01*
X161775380Y-76239285D01*
X161727761Y-76334523D01*
X161680142Y-76382142D01*
%TO.C,C8*%
X127341333Y-86869542D02*
X127293714Y-86917161D01*
X127150857Y-86964780D01*
X127055619Y-86964780D01*
X126912761Y-86917161D01*
X126817523Y-86821923D01*
X126769904Y-86726685D01*
X126722285Y-86536209D01*
X126722285Y-86393352D01*
X126769904Y-86202876D01*
X126817523Y-86107638D01*
X126912761Y-86012400D01*
X127055619Y-85964780D01*
X127150857Y-85964780D01*
X127293714Y-86012400D01*
X127341333Y-86060019D01*
X127912761Y-86393352D02*
X127817523Y-86345733D01*
X127769904Y-86298114D01*
X127722285Y-86202876D01*
X127722285Y-86155257D01*
X127769904Y-86060019D01*
X127817523Y-86012400D01*
X127912761Y-85964780D01*
X128103238Y-85964780D01*
X128198476Y-86012400D01*
X128246095Y-86060019D01*
X128293714Y-86155257D01*
X128293714Y-86202876D01*
X128246095Y-86298114D01*
X128198476Y-86345733D01*
X128103238Y-86393352D01*
X127912761Y-86393352D01*
X127817523Y-86440971D01*
X127769904Y-86488590D01*
X127722285Y-86583828D01*
X127722285Y-86774304D01*
X127769904Y-86869542D01*
X127817523Y-86917161D01*
X127912761Y-86964780D01*
X128103238Y-86964780D01*
X128198476Y-86917161D01*
X128246095Y-86869542D01*
X128293714Y-86774304D01*
X128293714Y-86583828D01*
X128246095Y-86488590D01*
X128198476Y-86440971D01*
X128103238Y-86393352D01*
%TO.C,R20*%
X163962880Y-90050857D02*
X163486690Y-90384190D01*
X163962880Y-90622285D02*
X162962880Y-90622285D01*
X162962880Y-90241333D01*
X163010500Y-90146095D01*
X163058119Y-90098476D01*
X163153357Y-90050857D01*
X163296214Y-90050857D01*
X163391452Y-90098476D01*
X163439071Y-90146095D01*
X163486690Y-90241333D01*
X163486690Y-90622285D01*
X163058119Y-89669904D02*
X163010500Y-89622285D01*
X162962880Y-89527047D01*
X162962880Y-89288952D01*
X163010500Y-89193714D01*
X163058119Y-89146095D01*
X163153357Y-89098476D01*
X163248595Y-89098476D01*
X163391452Y-89146095D01*
X163962880Y-89717523D01*
X163962880Y-89098476D01*
X162962880Y-88479428D02*
X162962880Y-88384190D01*
X163010500Y-88288952D01*
X163058119Y-88241333D01*
X163153357Y-88193714D01*
X163343833Y-88146095D01*
X163581928Y-88146095D01*
X163772404Y-88193714D01*
X163867642Y-88241333D01*
X163915261Y-88288952D01*
X163962880Y-88384190D01*
X163962880Y-88479428D01*
X163915261Y-88574666D01*
X163867642Y-88622285D01*
X163772404Y-88669904D01*
X163581928Y-88717523D01*
X163343833Y-88717523D01*
X163153357Y-88669904D01*
X163058119Y-88622285D01*
X163010500Y-88574666D01*
X162962880Y-88479428D01*
%TO.C,D3*%
X139342904Y-98369380D02*
X139342904Y-97369380D01*
X139581000Y-97369380D01*
X139723857Y-97417000D01*
X139819095Y-97512238D01*
X139866714Y-97607476D01*
X139914333Y-97797952D01*
X139914333Y-97940809D01*
X139866714Y-98131285D01*
X139819095Y-98226523D01*
X139723857Y-98321761D01*
X139581000Y-98369380D01*
X139342904Y-98369380D01*
X140247666Y-97369380D02*
X140866714Y-97369380D01*
X140533380Y-97750333D01*
X140676238Y-97750333D01*
X140771476Y-97797952D01*
X140819095Y-97845571D01*
X140866714Y-97940809D01*
X140866714Y-98178904D01*
X140819095Y-98274142D01*
X140771476Y-98321761D01*
X140676238Y-98369380D01*
X140390523Y-98369380D01*
X140295285Y-98321761D01*
X140247666Y-98274142D01*
%TO.C,R6*%
X131770380Y-77509666D02*
X131294190Y-77843000D01*
X131770380Y-78081095D02*
X130770380Y-78081095D01*
X130770380Y-77700142D01*
X130818000Y-77604904D01*
X130865619Y-77557285D01*
X130960857Y-77509666D01*
X131103714Y-77509666D01*
X131198952Y-77557285D01*
X131246571Y-77604904D01*
X131294190Y-77700142D01*
X131294190Y-78081095D01*
X130770380Y-76652523D02*
X130770380Y-76843000D01*
X130818000Y-76938238D01*
X130865619Y-76985857D01*
X131008476Y-77081095D01*
X131198952Y-77128714D01*
X131579904Y-77128714D01*
X131675142Y-77081095D01*
X131722761Y-77033476D01*
X131770380Y-76938238D01*
X131770380Y-76747761D01*
X131722761Y-76652523D01*
X131675142Y-76604904D01*
X131579904Y-76557285D01*
X131341809Y-76557285D01*
X131246571Y-76604904D01*
X131198952Y-76652523D01*
X131151333Y-76747761D01*
X131151333Y-76938238D01*
X131198952Y-77033476D01*
X131246571Y-77081095D01*
X131341809Y-77128714D01*
%TO.C,C5*%
X125690333Y-88342742D02*
X125642714Y-88390361D01*
X125499857Y-88437980D01*
X125404619Y-88437980D01*
X125261761Y-88390361D01*
X125166523Y-88295123D01*
X125118904Y-88199885D01*
X125071285Y-88009409D01*
X125071285Y-87866552D01*
X125118904Y-87676076D01*
X125166523Y-87580838D01*
X125261761Y-87485600D01*
X125404619Y-87437980D01*
X125499857Y-87437980D01*
X125642714Y-87485600D01*
X125690333Y-87533219D01*
X126595095Y-87437980D02*
X126118904Y-87437980D01*
X126071285Y-87914171D01*
X126118904Y-87866552D01*
X126214142Y-87818933D01*
X126452238Y-87818933D01*
X126547476Y-87866552D01*
X126595095Y-87914171D01*
X126642714Y-88009409D01*
X126642714Y-88247504D01*
X126595095Y-88342742D01*
X126547476Y-88390361D01*
X126452238Y-88437980D01*
X126214142Y-88437980D01*
X126118904Y-88390361D01*
X126071285Y-88342742D01*
%TO.C,J4*%
X142791380Y-92154333D02*
X143505666Y-92154333D01*
X143648523Y-92201952D01*
X143743761Y-92297190D01*
X143791380Y-92440047D01*
X143791380Y-92535285D01*
X143124714Y-91249571D02*
X143791380Y-91249571D01*
X142743761Y-91487666D02*
X143458047Y-91725761D01*
X143458047Y-91106714D01*
%TO.C,C10*%
X138422142Y-71592142D02*
X138374523Y-71639761D01*
X138231666Y-71687380D01*
X138136428Y-71687380D01*
X137993571Y-71639761D01*
X137898333Y-71544523D01*
X137850714Y-71449285D01*
X137803095Y-71258809D01*
X137803095Y-71115952D01*
X137850714Y-70925476D01*
X137898333Y-70830238D01*
X137993571Y-70735000D01*
X138136428Y-70687380D01*
X138231666Y-70687380D01*
X138374523Y-70735000D01*
X138422142Y-70782619D01*
X139374523Y-71687380D02*
X138803095Y-71687380D01*
X139088809Y-71687380D02*
X139088809Y-70687380D01*
X138993571Y-70830238D01*
X138898333Y-70925476D01*
X138803095Y-70973095D01*
X139993571Y-70687380D02*
X140088809Y-70687380D01*
X140184047Y-70735000D01*
X140231666Y-70782619D01*
X140279285Y-70877857D01*
X140326904Y-71068333D01*
X140326904Y-71306428D01*
X140279285Y-71496904D01*
X140231666Y-71592142D01*
X140184047Y-71639761D01*
X140088809Y-71687380D01*
X139993571Y-71687380D01*
X139898333Y-71639761D01*
X139850714Y-71592142D01*
X139803095Y-71496904D01*
X139755476Y-71306428D01*
X139755476Y-71068333D01*
X139803095Y-70877857D01*
X139850714Y-70782619D01*
X139898333Y-70735000D01*
X139993571Y-70687380D01*
%TO.C,U4*%
X147574095Y-77557380D02*
X147574095Y-78366904D01*
X147621714Y-78462142D01*
X147669333Y-78509761D01*
X147764571Y-78557380D01*
X147955047Y-78557380D01*
X148050285Y-78509761D01*
X148097904Y-78462142D01*
X148145523Y-78366904D01*
X148145523Y-77557380D01*
X149050285Y-77890714D02*
X149050285Y-78557380D01*
X148812190Y-77509761D02*
X148574095Y-78224047D01*
X149193142Y-78224047D01*
%TO.C,Q6*%
X149195761Y-82033119D02*
X149100523Y-81985500D01*
X149005285Y-81890261D01*
X148862428Y-81747404D01*
X148767190Y-81699785D01*
X148671952Y-81699785D01*
X148719571Y-81937880D02*
X148624333Y-81890261D01*
X148529095Y-81795023D01*
X148481476Y-81604547D01*
X148481476Y-81271214D01*
X148529095Y-81080738D01*
X148624333Y-80985500D01*
X148719571Y-80937880D01*
X148910047Y-80937880D01*
X149005285Y-80985500D01*
X149100523Y-81080738D01*
X149148142Y-81271214D01*
X149148142Y-81604547D01*
X149100523Y-81795023D01*
X149005285Y-81890261D01*
X148910047Y-81937880D01*
X148719571Y-81937880D01*
X150005285Y-80937880D02*
X149814809Y-80937880D01*
X149719571Y-80985500D01*
X149671952Y-81033119D01*
X149576714Y-81175976D01*
X149529095Y-81366452D01*
X149529095Y-81747404D01*
X149576714Y-81842642D01*
X149624333Y-81890261D01*
X149719571Y-81937880D01*
X149910047Y-81937880D01*
X150005285Y-81890261D01*
X150052904Y-81842642D01*
X150100523Y-81747404D01*
X150100523Y-81509309D01*
X150052904Y-81414071D01*
X150005285Y-81366452D01*
X149910047Y-81318833D01*
X149719571Y-81318833D01*
X149624333Y-81366452D01*
X149576714Y-81414071D01*
X149529095Y-81509309D01*
%TO.C,C12*%
X134866142Y-81891142D02*
X134818523Y-81938761D01*
X134675666Y-81986380D01*
X134580428Y-81986380D01*
X134437571Y-81938761D01*
X134342333Y-81843523D01*
X134294714Y-81748285D01*
X134247095Y-81557809D01*
X134247095Y-81414952D01*
X134294714Y-81224476D01*
X134342333Y-81129238D01*
X134437571Y-81034000D01*
X134580428Y-80986380D01*
X134675666Y-80986380D01*
X134818523Y-81034000D01*
X134866142Y-81081619D01*
X135818523Y-81986380D02*
X135247095Y-81986380D01*
X135532809Y-81986380D02*
X135532809Y-80986380D01*
X135437571Y-81129238D01*
X135342333Y-81224476D01*
X135247095Y-81272095D01*
X136199476Y-81081619D02*
X136247095Y-81034000D01*
X136342333Y-80986380D01*
X136580428Y-80986380D01*
X136675666Y-81034000D01*
X136723285Y-81081619D01*
X136770904Y-81176857D01*
X136770904Y-81272095D01*
X136723285Y-81414952D01*
X136151857Y-81986380D01*
X136770904Y-81986380D01*
%TO.C,C13*%
X155313142Y-71096142D02*
X155265523Y-71143761D01*
X155122666Y-71191380D01*
X155027428Y-71191380D01*
X154884571Y-71143761D01*
X154789333Y-71048523D01*
X154741714Y-70953285D01*
X154694095Y-70762809D01*
X154694095Y-70619952D01*
X154741714Y-70429476D01*
X154789333Y-70334238D01*
X154884571Y-70239000D01*
X155027428Y-70191380D01*
X155122666Y-70191380D01*
X155265523Y-70239000D01*
X155313142Y-70286619D01*
X156265523Y-71191380D02*
X155694095Y-71191380D01*
X155979809Y-71191380D02*
X155979809Y-70191380D01*
X155884571Y-70334238D01*
X155789333Y-70429476D01*
X155694095Y-70477095D01*
X156598857Y-70191380D02*
X157217904Y-70191380D01*
X156884571Y-70572333D01*
X157027428Y-70572333D01*
X157122666Y-70619952D01*
X157170285Y-70667571D01*
X157217904Y-70762809D01*
X157217904Y-71000904D01*
X157170285Y-71096142D01*
X157122666Y-71143761D01*
X157027428Y-71191380D01*
X156741714Y-71191380D01*
X156646476Y-71143761D01*
X156598857Y-71096142D01*
%TO.C,TP2*%
X152535095Y-89622380D02*
X153106523Y-89622380D01*
X152820809Y-90622380D02*
X152820809Y-89622380D01*
X153439857Y-90622380D02*
X153439857Y-89622380D01*
X153820809Y-89622380D01*
X153916047Y-89670000D01*
X153963666Y-89717619D01*
X154011285Y-89812857D01*
X154011285Y-89955714D01*
X153963666Y-90050952D01*
X153916047Y-90098571D01*
X153820809Y-90146190D01*
X153439857Y-90146190D01*
X154392238Y-89717619D02*
X154439857Y-89670000D01*
X154535095Y-89622380D01*
X154773190Y-89622380D01*
X154868428Y-89670000D01*
X154916047Y-89717619D01*
X154963666Y-89812857D01*
X154963666Y-89908095D01*
X154916047Y-90050952D01*
X154344619Y-90622380D01*
X154963666Y-90622380D01*
%TO.C,TP10*%
X141438380Y-87590095D02*
X141438380Y-87018666D01*
X142438380Y-87304380D02*
X141438380Y-87304380D01*
X142438380Y-86685333D02*
X141438380Y-86685333D01*
X141438380Y-86304380D01*
X141486000Y-86209142D01*
X141533619Y-86161523D01*
X141628857Y-86113904D01*
X141771714Y-86113904D01*
X141866952Y-86161523D01*
X141914571Y-86209142D01*
X141962190Y-86304380D01*
X141962190Y-86685333D01*
X142438380Y-85161523D02*
X142438380Y-85732952D01*
X142438380Y-85447238D02*
X141438380Y-85447238D01*
X141581238Y-85542476D01*
X141676476Y-85637714D01*
X141724095Y-85732952D01*
X141438380Y-84542476D02*
X141438380Y-84447238D01*
X141486000Y-84352000D01*
X141533619Y-84304380D01*
X141628857Y-84256761D01*
X141819333Y-84209142D01*
X142057428Y-84209142D01*
X142247904Y-84256761D01*
X142343142Y-84304380D01*
X142390761Y-84352000D01*
X142438380Y-84447238D01*
X142438380Y-84542476D01*
X142390761Y-84637714D01*
X142343142Y-84685333D01*
X142247904Y-84732952D01*
X142057428Y-84780571D01*
X141819333Y-84780571D01*
X141628857Y-84732952D01*
X141533619Y-84685333D01*
X141486000Y-84637714D01*
X141438380Y-84542476D01*
%TO.C,C4*%
X130328333Y-109577142D02*
X130280714Y-109624761D01*
X130137857Y-109672380D01*
X130042619Y-109672380D01*
X129899761Y-109624761D01*
X129804523Y-109529523D01*
X129756904Y-109434285D01*
X129709285Y-109243809D01*
X129709285Y-109100952D01*
X129756904Y-108910476D01*
X129804523Y-108815238D01*
X129899761Y-108720000D01*
X130042619Y-108672380D01*
X130137857Y-108672380D01*
X130280714Y-108720000D01*
X130328333Y-108767619D01*
X131185476Y-109005714D02*
X131185476Y-109672380D01*
X130947380Y-108624761D02*
X130709285Y-109339047D01*
X131328333Y-109339047D01*
%TO.C,D1*%
X137437904Y-87701380D02*
X137437904Y-86701380D01*
X137676000Y-86701380D01*
X137818857Y-86749000D01*
X137914095Y-86844238D01*
X137961714Y-86939476D01*
X138009333Y-87129952D01*
X138009333Y-87272809D01*
X137961714Y-87463285D01*
X137914095Y-87558523D01*
X137818857Y-87653761D01*
X137676000Y-87701380D01*
X137437904Y-87701380D01*
X138961714Y-87701380D02*
X138390285Y-87701380D01*
X138676000Y-87701380D02*
X138676000Y-86701380D01*
X138580761Y-86844238D01*
X138485523Y-86939476D01*
X138390285Y-86987095D01*
%TO.C,R10*%
X151757142Y-88590380D02*
X151423809Y-88114190D01*
X151185714Y-88590380D02*
X151185714Y-87590380D01*
X151566666Y-87590380D01*
X151661904Y-87638000D01*
X151709523Y-87685619D01*
X151757142Y-87780857D01*
X151757142Y-87923714D01*
X151709523Y-88018952D01*
X151661904Y-88066571D01*
X151566666Y-88114190D01*
X151185714Y-88114190D01*
X152709523Y-88590380D02*
X152138095Y-88590380D01*
X152423809Y-88590380D02*
X152423809Y-87590380D01*
X152328571Y-87733238D01*
X152233333Y-87828476D01*
X152138095Y-87876095D01*
X153328571Y-87590380D02*
X153423809Y-87590380D01*
X153519047Y-87638000D01*
X153566666Y-87685619D01*
X153614285Y-87780857D01*
X153661904Y-87971333D01*
X153661904Y-88209428D01*
X153614285Y-88399904D01*
X153566666Y-88495142D01*
X153519047Y-88542761D01*
X153423809Y-88590380D01*
X153328571Y-88590380D01*
X153233333Y-88542761D01*
X153185714Y-88495142D01*
X153138095Y-88399904D01*
X153090476Y-88209428D01*
X153090476Y-87971333D01*
X153138095Y-87780857D01*
X153185714Y-87685619D01*
X153233333Y-87638000D01*
X153328571Y-87590380D01*
%TO.C,TP3*%
X127008095Y-104862380D02*
X127579523Y-104862380D01*
X127293809Y-105862380D02*
X127293809Y-104862380D01*
X127912857Y-105862380D02*
X127912857Y-104862380D01*
X128293809Y-104862380D01*
X128389047Y-104910000D01*
X128436666Y-104957619D01*
X128484285Y-105052857D01*
X128484285Y-105195714D01*
X128436666Y-105290952D01*
X128389047Y-105338571D01*
X128293809Y-105386190D01*
X127912857Y-105386190D01*
X128817619Y-104862380D02*
X129436666Y-104862380D01*
X129103333Y-105243333D01*
X129246190Y-105243333D01*
X129341428Y-105290952D01*
X129389047Y-105338571D01*
X129436666Y-105433809D01*
X129436666Y-105671904D01*
X129389047Y-105767142D01*
X129341428Y-105814761D01*
X129246190Y-105862380D01*
X128960476Y-105862380D01*
X128865238Y-105814761D01*
X128817619Y-105767142D01*
%TO.C,D4*%
X135151904Y-114117380D02*
X135151904Y-113117380D01*
X135390000Y-113117380D01*
X135532857Y-113165000D01*
X135628095Y-113260238D01*
X135675714Y-113355476D01*
X135723333Y-113545952D01*
X135723333Y-113688809D01*
X135675714Y-113879285D01*
X135628095Y-113974523D01*
X135532857Y-114069761D01*
X135390000Y-114117380D01*
X135151904Y-114117380D01*
X136580476Y-113450714D02*
X136580476Y-114117380D01*
X136342380Y-113069761D02*
X136104285Y-113784047D01*
X136723333Y-113784047D01*
%TO.C,R15*%
X158440380Y-74493857D02*
X157964190Y-74827190D01*
X158440380Y-75065285D02*
X157440380Y-75065285D01*
X157440380Y-74684333D01*
X157488000Y-74589095D01*
X157535619Y-74541476D01*
X157630857Y-74493857D01*
X157773714Y-74493857D01*
X157868952Y-74541476D01*
X157916571Y-74589095D01*
X157964190Y-74684333D01*
X157964190Y-75065285D01*
X158440380Y-73541476D02*
X158440380Y-74112904D01*
X158440380Y-73827190D02*
X157440380Y-73827190D01*
X157583238Y-73922428D01*
X157678476Y-74017666D01*
X157726095Y-74112904D01*
X157440380Y-72636714D02*
X157440380Y-73112904D01*
X157916571Y-73160523D01*
X157868952Y-73112904D01*
X157821333Y-73017666D01*
X157821333Y-72779571D01*
X157868952Y-72684333D01*
X157916571Y-72636714D01*
X158011809Y-72589095D01*
X158249904Y-72589095D01*
X158345142Y-72636714D01*
X158392761Y-72684333D01*
X158440380Y-72779571D01*
X158440380Y-73017666D01*
X158392761Y-73112904D01*
X158345142Y-73160523D01*
%TO.C,F1*%
X169467571Y-77803333D02*
X169467571Y-78136666D01*
X169991380Y-78136666D02*
X168991380Y-78136666D01*
X168991380Y-77660476D01*
X169991380Y-76755714D02*
X169991380Y-77327142D01*
X169991380Y-77041428D02*
X168991380Y-77041428D01*
X169134238Y-77136666D01*
X169229476Y-77231904D01*
X169277095Y-77327142D01*
%TO.C,Q4*%
X158146761Y-92828119D02*
X158051523Y-92780500D01*
X157956285Y-92685261D01*
X157813428Y-92542404D01*
X157718190Y-92494785D01*
X157622952Y-92494785D01*
X157670571Y-92732880D02*
X157575333Y-92685261D01*
X157480095Y-92590023D01*
X157432476Y-92399547D01*
X157432476Y-92066214D01*
X157480095Y-91875738D01*
X157575333Y-91780500D01*
X157670571Y-91732880D01*
X157861047Y-91732880D01*
X157956285Y-91780500D01*
X158051523Y-91875738D01*
X158099142Y-92066214D01*
X158099142Y-92399547D01*
X158051523Y-92590023D01*
X157956285Y-92685261D01*
X157861047Y-92732880D01*
X157670571Y-92732880D01*
X158956285Y-92066214D02*
X158956285Y-92732880D01*
X158718190Y-91685261D02*
X158480095Y-92399547D01*
X159099142Y-92399547D01*
%TO.C,TP15*%
X141263904Y-103719380D02*
X141835333Y-103719380D01*
X141549619Y-104719380D02*
X141549619Y-103719380D01*
X142168666Y-104719380D02*
X142168666Y-103719380D01*
X142549619Y-103719380D01*
X142644857Y-103767000D01*
X142692476Y-103814619D01*
X142740095Y-103909857D01*
X142740095Y-104052714D01*
X142692476Y-104147952D01*
X142644857Y-104195571D01*
X142549619Y-104243190D01*
X142168666Y-104243190D01*
X143692476Y-104719380D02*
X143121047Y-104719380D01*
X143406761Y-104719380D02*
X143406761Y-103719380D01*
X143311523Y-103862238D01*
X143216285Y-103957476D01*
X143121047Y-104005095D01*
X144597238Y-103719380D02*
X144121047Y-103719380D01*
X144073428Y-104195571D01*
X144121047Y-104147952D01*
X144216285Y-104100333D01*
X144454380Y-104100333D01*
X144549619Y-104147952D01*
X144597238Y-104195571D01*
X144644857Y-104290809D01*
X144644857Y-104528904D01*
X144597238Y-104624142D01*
X144549619Y-104671761D01*
X144454380Y-104719380D01*
X144216285Y-104719380D01*
X144121047Y-104671761D01*
X144073428Y-104624142D01*
%TO.C,C1*%
X156186142Y-102208666D02*
X156233761Y-102256285D01*
X156281380Y-102399142D01*
X156281380Y-102494380D01*
X156233761Y-102637238D01*
X156138523Y-102732476D01*
X156043285Y-102780095D01*
X155852809Y-102827714D01*
X155709952Y-102827714D01*
X155519476Y-102780095D01*
X155424238Y-102732476D01*
X155329000Y-102637238D01*
X155281380Y-102494380D01*
X155281380Y-102399142D01*
X155329000Y-102256285D01*
X155376619Y-102208666D01*
X156281380Y-101256285D02*
X156281380Y-101827714D01*
X156281380Y-101542000D02*
X155281380Y-101542000D01*
X155424238Y-101637238D01*
X155519476Y-101732476D01*
X155567095Y-101827714D01*
%TO.C,D2*%
X160825904Y-71383380D02*
X160825904Y-70383380D01*
X161064000Y-70383380D01*
X161206857Y-70431000D01*
X161302095Y-70526238D01*
X161349714Y-70621476D01*
X161397333Y-70811952D01*
X161397333Y-70954809D01*
X161349714Y-71145285D01*
X161302095Y-71240523D01*
X161206857Y-71335761D01*
X161064000Y-71383380D01*
X160825904Y-71383380D01*
X161778285Y-70478619D02*
X161825904Y-70431000D01*
X161921142Y-70383380D01*
X162159238Y-70383380D01*
X162254476Y-70431000D01*
X162302095Y-70478619D01*
X162349714Y-70573857D01*
X162349714Y-70669095D01*
X162302095Y-70811952D01*
X161730666Y-71383380D01*
X162349714Y-71383380D01*
%TO.C,TP12*%
X158662904Y-100925380D02*
X159234333Y-100925380D01*
X158948619Y-101925380D02*
X158948619Y-100925380D01*
X159567666Y-101925380D02*
X159567666Y-100925380D01*
X159948619Y-100925380D01*
X160043857Y-100973000D01*
X160091476Y-101020619D01*
X160139095Y-101115857D01*
X160139095Y-101258714D01*
X160091476Y-101353952D01*
X160043857Y-101401571D01*
X159948619Y-101449190D01*
X159567666Y-101449190D01*
X161091476Y-101925380D02*
X160520047Y-101925380D01*
X160805761Y-101925380D02*
X160805761Y-100925380D01*
X160710523Y-101068238D01*
X160615285Y-101163476D01*
X160520047Y-101211095D01*
X161472428Y-101020619D02*
X161520047Y-100973000D01*
X161615285Y-100925380D01*
X161853380Y-100925380D01*
X161948619Y-100973000D01*
X161996238Y-101020619D01*
X162043857Y-101115857D01*
X162043857Y-101211095D01*
X161996238Y-101353952D01*
X161424809Y-101925380D01*
X162043857Y-101925380D01*
D12*
%TO.C,J3*%
X170480000Y-111065000D02*
X176450000Y-111065000D01*
X175690000Y-111055000D02*
X176440000Y-111055000D01*
X170480000Y-100945000D02*
X170480000Y-111065000D01*
X174190000Y-111055000D02*
X174190000Y-110305000D01*
X176440000Y-111055000D02*
X176440000Y-109255000D01*
X176450000Y-111065000D02*
X176450000Y-100945000D01*
X176450000Y-100945000D02*
X170480000Y-100945000D01*
X176440000Y-107755000D02*
X176440000Y-104255000D01*
X176740000Y-101905000D02*
X176740000Y-100655000D01*
X171240000Y-101705000D02*
X171240000Y-106005000D01*
X175690000Y-109255000D02*
X175690000Y-111055000D01*
X175690000Y-102755000D02*
X176440000Y-102755000D01*
X176740000Y-100655000D02*
X175490000Y-100655000D01*
X175690000Y-100955000D02*
X175690000Y-102755000D01*
X176440000Y-104255000D02*
X175690000Y-104255000D01*
X176440000Y-100955000D02*
X175690000Y-100955000D01*
X174190000Y-100955000D02*
X174190000Y-101705000D01*
X175690000Y-107755000D02*
X176440000Y-107755000D01*
X171240000Y-110305000D02*
X171240000Y-106005000D01*
X174190000Y-101705000D02*
X171240000Y-101705000D01*
X175690000Y-104255000D02*
X175690000Y-107755000D01*
X174190000Y-110305000D02*
X171240000Y-110305000D01*
X176440000Y-102755000D02*
X176440000Y-100955000D01*
X176440000Y-109255000D02*
X175690000Y-109255000D01*
%TO.C,U2*%
X152273000Y-112986000D02*
X150073000Y-112986000D01*
X152273000Y-106216000D02*
X154473000Y-106216000D01*
X152273000Y-112986000D02*
X154473000Y-112986000D01*
X152273000Y-106216000D02*
X148673000Y-106216000D01*
%TO.C,J1*%
X122235000Y-117485000D02*
X122235000Y-115685000D01*
X123735000Y-110635000D02*
X126685000Y-110635000D01*
X122235000Y-111685000D02*
X122235000Y-109885000D01*
X121185000Y-117785000D02*
X122435000Y-117785000D01*
X126685000Y-116735000D02*
X126685000Y-113685000D01*
X127445000Y-117495000D02*
X127445000Y-109875000D01*
X122235000Y-109885000D02*
X121485000Y-109885000D01*
X121485000Y-117485000D02*
X122235000Y-117485000D01*
X122235000Y-113185000D02*
X121485000Y-113185000D01*
X121185000Y-116535000D02*
X121185000Y-117785000D01*
X121485000Y-109885000D02*
X121485000Y-111685000D01*
X121485000Y-114185000D02*
X122235000Y-114185000D01*
X121485000Y-111685000D02*
X122235000Y-111685000D01*
X122235000Y-115685000D02*
X121485000Y-115685000D01*
X121475000Y-109875000D02*
X121475000Y-117495000D01*
X127445000Y-109875000D02*
X121475000Y-109875000D01*
X123735000Y-116735000D02*
X126685000Y-116735000D01*
X123735000Y-117485000D02*
X123735000Y-116735000D01*
X122235000Y-114185000D02*
X122235000Y-113185000D01*
X121475000Y-117495000D02*
X127445000Y-117495000D01*
X126685000Y-110635000D02*
X126685000Y-113685000D01*
X121485000Y-115685000D02*
X121485000Y-117485000D01*
X121485000Y-113185000D02*
X121485000Y-114185000D01*
X123735000Y-109885000D02*
X123735000Y-110635000D01*
%TO.C,R19*%
X137303742Y-95489500D02*
X137778258Y-95489500D01*
X137303742Y-96534500D02*
X137778258Y-96534500D01*
%TO.C,R22*%
X167486359Y-103125000D02*
X167793641Y-103125000D01*
X167486359Y-103885000D02*
X167793641Y-103885000D01*
%TO.C,Q7*%
X144429000Y-84025500D02*
X144429000Y-85700500D01*
X147549000Y-84025500D02*
X147549000Y-84675500D01*
X147549000Y-84025500D02*
X147549000Y-83375500D01*
X144429000Y-84025500D02*
X144429000Y-83375500D01*
%TO.C,TP1*%
X124775000Y-107315000D02*
G75*
G03*
X124775000Y-107315000I-950000J0D01*
G01*
%TO.C,R7*%
X138458641Y-83059000D02*
X138151359Y-83059000D01*
X138458641Y-83819000D02*
X138151359Y-83819000D01*
%TO.C,Q3*%
X159542000Y-86614000D02*
X159542000Y-88289000D01*
X162662000Y-86614000D02*
X162662000Y-87264000D01*
X162662000Y-86614000D02*
X162662000Y-85964000D01*
X159542000Y-86614000D02*
X159542000Y-85964000D01*
%TO.C,R1*%
X133196359Y-112140000D02*
X133503641Y-112140000D01*
X133196359Y-111380000D02*
X133503641Y-111380000D01*
%TO.C,SW2*%
X143035000Y-120713000D02*
X144418000Y-120713000D01*
X148495000Y-123698000D02*
X148495000Y-122428000D01*
X143035000Y-120713000D02*
X143035000Y-122096000D01*
X144875000Y-122908000D02*
X146081667Y-122908000D01*
X144875000Y-123028000D02*
X146081667Y-123028000D01*
X144875000Y-123148000D02*
X146081667Y-123148000D01*
X148495000Y-122428000D02*
X144875000Y-122428000D01*
X144875000Y-122668000D02*
X146081667Y-122668000D01*
X144875000Y-123388000D02*
X146081667Y-123388000D01*
X144875000Y-123628000D02*
X146081667Y-123628000D01*
X144875000Y-123508000D02*
X146081667Y-123508000D01*
X144875000Y-122548000D02*
X146081667Y-122548000D01*
X143275000Y-125173000D02*
X150095000Y-125173000D01*
X143275000Y-120953000D02*
X150095000Y-120953000D01*
X144875000Y-123268000D02*
X146081667Y-123268000D01*
X143275000Y-120953000D02*
X143275000Y-122263000D01*
X144875000Y-123698000D02*
X148495000Y-123698000D01*
X146081667Y-122428000D02*
X146081667Y-123698000D01*
X144875000Y-122428000D02*
X144875000Y-123698000D01*
X150095000Y-120953000D02*
X150095000Y-122263000D01*
X143275000Y-123863000D02*
X143275000Y-125173000D01*
X150095000Y-123863000D02*
X150095000Y-125173000D01*
X144875000Y-122788000D02*
X146081667Y-122788000D01*
%TO.C,Q2*%
X162662000Y-81358500D02*
X162662000Y-80708500D01*
X159542000Y-81358500D02*
X159542000Y-80708500D01*
X162662000Y-81358500D02*
X162662000Y-82008500D01*
X159542000Y-81358500D02*
X159542000Y-83033500D01*
%TO.C,U3*%
X121570000Y-84271000D02*
X121570000Y-82271000D01*
X124810000Y-83271000D02*
X124810000Y-80271000D01*
%TO.C,R12*%
X148946359Y-86488000D02*
X149253641Y-86488000D01*
X148946359Y-87248000D02*
X149253641Y-87248000D01*
%TO.C,C7*%
X126132000Y-79510836D02*
X126132000Y-79295164D01*
X126852000Y-79510836D02*
X126852000Y-79295164D01*
%TO.C,J2*%
X174080000Y-78790000D02*
X174080000Y-79540000D01*
X176630000Y-78490000D02*
X175380000Y-78490000D01*
X176330000Y-91390000D02*
X176330000Y-89590000D01*
X176330000Y-82090000D02*
X175580000Y-82090000D01*
X174080000Y-91390000D02*
X174080000Y-90640000D01*
X175580000Y-78790000D02*
X175580000Y-80590000D01*
X176330000Y-80590000D02*
X176330000Y-78790000D01*
X176340000Y-91400000D02*
X176340000Y-78780000D01*
X170370000Y-78780000D02*
X170370000Y-91400000D01*
X171130000Y-90640000D02*
X171130000Y-85090000D01*
X176340000Y-78780000D02*
X170370000Y-78780000D01*
X174080000Y-90640000D02*
X171130000Y-90640000D01*
X176630000Y-79740000D02*
X176630000Y-78490000D01*
X174080000Y-79540000D02*
X171130000Y-79540000D01*
X175580000Y-91390000D02*
X176330000Y-91390000D01*
X171130000Y-79540000D02*
X171130000Y-85090000D01*
X175580000Y-82090000D02*
X175580000Y-88090000D01*
X175580000Y-89590000D02*
X175580000Y-91390000D01*
X175580000Y-88090000D02*
X176330000Y-88090000D01*
X176330000Y-89590000D02*
X175580000Y-89590000D01*
X176330000Y-88090000D02*
X176330000Y-82090000D01*
X170370000Y-91400000D02*
X176340000Y-91400000D01*
X175580000Y-80590000D02*
X176330000Y-80590000D01*
X176330000Y-78790000D02*
X175580000Y-78790000D01*
%TO.C,C3*%
X156945420Y-119124000D02*
X157226580Y-119124000D01*
X156945420Y-120144000D02*
X157226580Y-120144000D01*
%TO.C,C2*%
X157030748Y-116178000D02*
X157553252Y-116178000D01*
X157030748Y-114708000D02*
X157553252Y-114708000D01*
%TO.C,R3*%
X125959359Y-81406000D02*
X126266641Y-81406000D01*
X125959359Y-80646000D02*
X126266641Y-80646000D01*
%TO.C,R16*%
X161388359Y-83694000D02*
X161695641Y-83694000D01*
X161388359Y-84454000D02*
X161695641Y-84454000D01*
%TO.C,Q9*%
X132102000Y-82047000D02*
X132102000Y-85177000D01*
X128502000Y-82717000D02*
X128502000Y-85177000D01*
%TO.C,Q5*%
X155296000Y-84025500D02*
X155296000Y-84675500D01*
X155296000Y-84025500D02*
X155296000Y-83375500D01*
X152176000Y-84025500D02*
X152176000Y-85700500D01*
X152176000Y-84025500D02*
X152176000Y-83375500D01*
%TO.C,R17*%
X161388359Y-89788000D02*
X161695641Y-89788000D01*
X161388359Y-89028000D02*
X161695641Y-89028000D01*
%TO.C,R11*%
X163590500Y-76787742D02*
X163590500Y-77262258D01*
X162545500Y-76787742D02*
X162545500Y-77262258D01*
%TO.C,R4*%
X127255000Y-79530641D02*
X127255000Y-79223359D01*
X128015000Y-79530641D02*
X128015000Y-79223359D01*
%TO.C,TP11*%
X139253000Y-100584000D02*
G75*
G03*
X139253000Y-100584000I-950000J0D01*
G01*
%TO.C,C15*%
X145610252Y-108685000D02*
X145087748Y-108685000D01*
X145610252Y-107215000D02*
X145087748Y-107215000D01*
%TO.C,SW1*%
X152539000Y-102478000D02*
X152539000Y-102508000D01*
X146079000Y-102508000D02*
X146079000Y-102478000D01*
X152539000Y-102508000D02*
X146079000Y-102508000D01*
X152539000Y-96048000D02*
X152539000Y-96078000D01*
X152539000Y-100578000D02*
X152539000Y-97978000D01*
X146079000Y-100578000D02*
X146079000Y-97978000D01*
X146079000Y-96048000D02*
X146079000Y-96078000D01*
X152539000Y-96048000D02*
X146079000Y-96048000D01*
%TO.C,U1*%
X153372500Y-116244000D02*
X153372500Y-115744000D01*
X151672500Y-117944000D02*
X151172500Y-117944000D01*
X151172500Y-117944000D02*
X151172500Y-117444000D01*
X153372500Y-117944000D02*
X152872500Y-117944000D01*
X151672500Y-115744000D02*
X151672500Y-115744000D01*
X151172500Y-117444000D02*
X151172500Y-117444000D01*
X153372500Y-115744000D02*
X153372500Y-115744000D01*
X151172500Y-115744000D02*
X151672500Y-115744000D01*
X153372500Y-117444000D02*
X153372500Y-117944000D01*
X152872500Y-117944000D02*
X152872500Y-117944000D01*
X151172500Y-116244000D02*
X151172500Y-115744000D01*
%TO.C,R18*%
X165961763Y-84413000D02*
X167409237Y-84413000D01*
X165961763Y-81703000D02*
X167409237Y-81703000D01*
%TO.C,C9*%
X131064580Y-87632000D02*
X130783420Y-87632000D01*
X131064580Y-86612000D02*
X130783420Y-86612000D01*
%TO.C,R23*%
X165961763Y-91525000D02*
X167409237Y-91525000D01*
X165961763Y-88815000D02*
X167409237Y-88815000D01*
%TO.C,R21*%
X167486359Y-105409000D02*
X167793641Y-105409000D01*
X167486359Y-104649000D02*
X167793641Y-104649000D01*
%TO.C,C11*%
X157030748Y-118337000D02*
X157553252Y-118337000D01*
X157030748Y-116867000D02*
X157553252Y-116867000D01*
%TO.C,R9*%
X141707359Y-118490000D02*
X142014641Y-118490000D01*
X141707359Y-117730000D02*
X142014641Y-117730000D01*
%TO.C,R2*%
X149732000Y-116938359D02*
X149732000Y-117245641D01*
X148972000Y-116938359D02*
X148972000Y-117245641D01*
%TO.C,T1*%
X125459360Y-89687400D02*
X121894600Y-89687400D01*
X121894600Y-89687400D02*
X121894600Y-102336600D01*
X128080640Y-102336600D02*
X128459360Y-102336600D01*
X134645400Y-89687400D02*
X131080640Y-89687400D01*
X131080640Y-102336600D02*
X134645400Y-102336600D01*
X134645400Y-102336600D02*
X134645400Y-89687400D01*
X128459360Y-89687400D02*
X128080640Y-89687400D01*
X121894600Y-102336600D02*
X125459360Y-102336600D01*
X129870200Y-88646000D02*
G75*
G03*
X129870200Y-88646000I-76200J0D01*
G01*
%TO.C,R24*%
X160880359Y-94616000D02*
X161187641Y-94616000D01*
X160880359Y-95376000D02*
X161187641Y-95376000D01*
%TO.C,R8*%
X138151359Y-81916000D02*
X138458641Y-81916000D01*
X138151359Y-82676000D02*
X138458641Y-82676000D01*
%TO.C,R14*%
X145009359Y-86488000D02*
X145316641Y-86488000D01*
X145009359Y-87248000D02*
X145316641Y-87248000D01*
%TO.C,R5*%
X125955359Y-81789000D02*
X126262641Y-81789000D01*
X125955359Y-82549000D02*
X126262641Y-82549000D01*
%TO.C,Q1*%
X129520000Y-119890000D02*
X129520000Y-118390000D01*
X129790000Y-118390000D02*
X129790000Y-117290000D01*
X136420000Y-119890000D02*
X136420000Y-118390000D01*
X136150000Y-118390000D02*
X136150000Y-115560000D01*
X136420000Y-118390000D02*
X136150000Y-118390000D01*
X129520000Y-118390000D02*
X129790000Y-118390000D01*
%TO.C,C6*%
X125836000Y-79510836D02*
X125836000Y-79295164D01*
X125116000Y-79510836D02*
X125116000Y-79295164D01*
%TO.C,C16*%
X145428580Y-110365000D02*
X145147420Y-110365000D01*
X145428580Y-109345000D02*
X145147420Y-109345000D01*
%TO.C,R13*%
X160415500Y-76787742D02*
X160415500Y-77262258D01*
X159370500Y-76787742D02*
X159370500Y-77262258D01*
%TO.C,C8*%
X126003164Y-83672000D02*
X126218836Y-83672000D01*
X126003164Y-82952000D02*
X126218836Y-82952000D01*
%TO.C,R20*%
X165961763Y-87969000D02*
X167409237Y-87969000D01*
X165961763Y-85259000D02*
X167409237Y-85259000D01*
%TO.C,D3*%
X139026000Y-97182000D02*
X136741000Y-97182000D01*
X136741000Y-98652000D02*
X139026000Y-98652000D01*
X139026000Y-98652000D02*
X139026000Y-97182000D01*
%TO.C,R6*%
X130323000Y-80036564D02*
X130323000Y-78582436D01*
X128503000Y-80036564D02*
X128503000Y-78582436D01*
%TO.C,C5*%
X123390252Y-87149000D02*
X122867748Y-87149000D01*
X123390252Y-88619000D02*
X122867748Y-88619000D01*
%TO.C,J4*%
X145034000Y-93586000D02*
X144274000Y-93586000D01*
X145740529Y-91696000D02*
X145597471Y-91696000D01*
X150809000Y-90878470D02*
X150809000Y-90056000D01*
X144339000Y-90878470D02*
X144339000Y-90056000D01*
X145794000Y-93586000D02*
X150809000Y-93586000D01*
X145794000Y-93586000D02*
X145794000Y-93019471D01*
X150809000Y-93586000D02*
X150809000Y-92763530D01*
X144274000Y-93586000D02*
X144274000Y-92456000D01*
X144470529Y-91696000D02*
X144339000Y-91696000D01*
X150809000Y-92148470D02*
X150809000Y-91493530D01*
X144339000Y-90056000D02*
X150809000Y-90056000D01*
X144339000Y-91696000D02*
X144339000Y-91493530D01*
X145794000Y-91892529D02*
X145794000Y-91749471D01*
%TO.C,C10*%
X134179437Y-79350000D02*
X133115000Y-78285563D01*
X134283750Y-79983750D02*
X135071250Y-79983750D01*
X133115000Y-78285563D02*
X133115000Y-72530000D01*
X133115000Y-72530000D02*
X135465000Y-72530000D01*
X138870563Y-79350000D02*
X139935000Y-78285563D01*
X134677500Y-80377500D02*
X134677500Y-79590000D01*
X138870563Y-79350000D02*
X137585000Y-79350000D01*
X134179437Y-79350000D02*
X135465000Y-79350000D01*
X139935000Y-78285563D02*
X139935000Y-72530000D01*
X139935000Y-72530000D02*
X137585000Y-72530000D01*
%TO.C,U4*%
X146944000Y-71774000D02*
X146944000Y-73034000D01*
X140934000Y-71774000D02*
X146944000Y-71774000D01*
X143184000Y-78594000D02*
X146944000Y-78594000D01*
X146944000Y-78594000D02*
X146944000Y-77334000D01*
%TO.C,Q6*%
X151486000Y-84025500D02*
X151486000Y-83375500D01*
X148366000Y-84025500D02*
X148366000Y-85700500D01*
X148366000Y-84025500D02*
X148366000Y-83375500D01*
X151486000Y-84025500D02*
X151486000Y-84675500D01*
%TO.C,C12*%
X132661252Y-79910000D02*
X132138748Y-79910000D01*
X132661252Y-81380000D02*
X132138748Y-81380000D01*
%TO.C,C13*%
X155761563Y-78594000D02*
X156826000Y-77529563D01*
X151070437Y-78594000D02*
X150006000Y-77529563D01*
X151174750Y-79227750D02*
X151962250Y-79227750D01*
X156826000Y-71774000D02*
X154476000Y-71774000D01*
X150006000Y-77529563D02*
X150006000Y-71774000D01*
X151070437Y-78594000D02*
X152356000Y-78594000D01*
X151568500Y-79621500D02*
X151568500Y-78834000D01*
X150006000Y-71774000D02*
X152356000Y-71774000D01*
X156826000Y-77529563D02*
X156826000Y-71774000D01*
X155761563Y-78594000D02*
X154476000Y-78594000D01*
%TO.C,TP2*%
X154747000Y-91948000D02*
G75*
G03*
X154747000Y-91948000I-950000J0D01*
G01*
%TO.C,TP10*%
X141031000Y-85852000D02*
G75*
G03*
X141031000Y-85852000I-950000J0D01*
G01*
%TO.C,C4*%
X138825000Y-110725000D02*
X138825000Y-108375000D01*
X130977500Y-105467500D02*
X131765000Y-105467500D01*
X132005000Y-109660563D02*
X133069437Y-110725000D01*
X133069437Y-103905000D02*
X138825000Y-103905000D01*
X132005000Y-104969437D02*
X133069437Y-103905000D01*
X132005000Y-104969437D02*
X132005000Y-106255000D01*
X133069437Y-110725000D02*
X138825000Y-110725000D01*
X132005000Y-109660563D02*
X132005000Y-108375000D01*
X131371250Y-105073750D02*
X131371250Y-105861250D01*
X138825000Y-103905000D02*
X138825000Y-106255000D01*
%TO.C,D1*%
X133837500Y-87634000D02*
X134137500Y-87634000D01*
X133837500Y-86864000D02*
X134137500Y-86864000D01*
%TO.C,R10*%
X152756359Y-86488000D02*
X153063641Y-86488000D01*
X152756359Y-87248000D02*
X153063641Y-87248000D01*
%TO.C,TP3*%
X129220000Y-107315000D02*
G75*
G03*
X129220000Y-107315000I-950000J0D01*
G01*
%TO.C,D4*%
X130085000Y-112875000D02*
X130085000Y-114875000D01*
X130085000Y-112875000D02*
X133985000Y-112875000D01*
X130085000Y-114875000D02*
X133985000Y-114875000D01*
%TO.C,R15*%
X158510500Y-76788742D02*
X158510500Y-77263258D01*
X157465500Y-76788742D02*
X157465500Y-77263258D01*
%TO.C,F1*%
X165904000Y-76746263D02*
X165904000Y-78193737D01*
X168614000Y-76746263D02*
X168614000Y-78193737D01*
%TO.C,Q4*%
X162662000Y-92280500D02*
X162662000Y-92930500D01*
X159542000Y-92280500D02*
X159542000Y-91630500D01*
X162662000Y-92280500D02*
X162662000Y-91630500D01*
X159542000Y-92280500D02*
X159542000Y-93955500D01*
%TO.C,TP15*%
X147381000Y-104140000D02*
G75*
G03*
X147381000Y-104140000I-950000J0D01*
G01*
%TO.C,C1*%
X155094000Y-99448252D02*
X155094000Y-98925748D01*
X156564000Y-99448252D02*
X156564000Y-98925748D01*
%TO.C,D2*%
X163494000Y-71906000D02*
X159594000Y-71906000D01*
X163494000Y-74106000D02*
X163494000Y-74906000D01*
X163494000Y-74906000D02*
X159594000Y-74906000D01*
%TO.C,TP12*%
X161351000Y-103378000D02*
G75*
G03*
X161351000Y-103378000I-950000J0D01*
G01*
%TD*%
%LPC*%
D13*
%TO.C,J3*%
X173990000Y-103505000D03*
D14*
X173990000Y-106005000D03*
X173990000Y-108505000D03*
%TD*%
D15*
%TO.C,U2*%
X149410500Y-106676000D03*
X149410500Y-107326000D03*
X149410500Y-107976000D03*
X149410500Y-108626000D03*
X149410500Y-109276000D03*
X149410500Y-109926000D03*
X149410500Y-110576000D03*
X149410500Y-111226000D03*
X149410500Y-111876000D03*
X149410500Y-112526000D03*
X155135500Y-112526000D03*
X155135500Y-111876000D03*
X155135500Y-111226000D03*
X155135500Y-110576000D03*
X155135500Y-109926000D03*
X155135500Y-109276000D03*
X155135500Y-108626000D03*
X155135500Y-107976000D03*
X155135500Y-107326000D03*
X155135500Y-106676000D03*
%TD*%
D16*
%TO.C,H3*%
X125095000Y-122555000D03*
%TD*%
D17*
%TO.C,J1*%
X123935000Y-114935000D03*
D18*
X123935000Y-112435000D03*
%TD*%
D19*
%TO.C,R19*%
X136716000Y-96012000D03*
X138366000Y-96012000D03*
%TD*%
D20*
%TO.C,R22*%
X167130000Y-103505000D03*
X168150000Y-103505000D03*
%TD*%
D21*
%TO.C,Q7*%
X145039000Y-84963000D03*
X146939000Y-84963000D03*
X145989000Y-83088000D03*
%TD*%
D22*
%TO.C,TP1*%
X123825000Y-107315000D03*
%TD*%
D16*
%TO.C,H4*%
X173355000Y-122555000D03*
%TD*%
D23*
%TO.C,R7*%
X138815000Y-83439000D03*
X137795000Y-83439000D03*
%TD*%
D21*
%TO.C,Q3*%
X160152000Y-87551500D03*
X162052000Y-87551500D03*
X161102000Y-85676500D03*
%TD*%
D20*
%TO.C,R1*%
X132840000Y-111760000D03*
X133860000Y-111760000D03*
%TD*%
D24*
%TO.C,SW2*%
X142380000Y-123063000D03*
X150990000Y-123063000D03*
%TD*%
D21*
%TO.C,Q2*%
X160152000Y-82296000D03*
X162052000Y-82296000D03*
X161102000Y-80421000D03*
%TD*%
D25*
%TO.C,U3*%
X124165000Y-81071000D03*
X123515000Y-81071000D03*
X122865000Y-81071000D03*
X122215000Y-81071000D03*
X122215000Y-85471000D03*
X122865000Y-85471000D03*
X123515000Y-85471000D03*
X124165000Y-85471000D03*
%TD*%
D20*
%TO.C,R12*%
X148590000Y-86868000D03*
X149610000Y-86868000D03*
%TD*%
D26*
%TO.C,C7*%
X126492000Y-79883000D03*
X126492000Y-78923000D03*
%TD*%
D13*
%TO.C,J2*%
X173880000Y-81340000D03*
D14*
X173880000Y-83840000D03*
X173880000Y-86340000D03*
X173880000Y-88840000D03*
%TD*%
D27*
%TO.C,C3*%
X156311000Y-119634000D03*
X157861000Y-119634000D03*
%TD*%
D28*
%TO.C,C2*%
X156342000Y-115443000D03*
X158242000Y-115443000D03*
%TD*%
D20*
%TO.C,R3*%
X125603000Y-81026000D03*
X126623000Y-81026000D03*
%TD*%
%TO.C,R16*%
X161032000Y-84074000D03*
X162052000Y-84074000D03*
%TD*%
D29*
%TO.C,Q9*%
X131272000Y-82507000D03*
X130632000Y-82507000D03*
X129972000Y-82507000D03*
X129332000Y-82507000D03*
X129972000Y-85387000D03*
D30*
X129692000Y-84807000D03*
D29*
X130632000Y-85387000D03*
X131272000Y-85387000D03*
D30*
X130912000Y-83857000D03*
X130912000Y-84807000D03*
X129692000Y-83857000D03*
D29*
X129332000Y-85387000D03*
%TD*%
D21*
%TO.C,Q5*%
X152786000Y-84963000D03*
X154686000Y-84963000D03*
X153736000Y-83088000D03*
%TD*%
D20*
%TO.C,R17*%
X161032000Y-89408000D03*
X162052000Y-89408000D03*
%TD*%
D31*
%TO.C,R11*%
X163068000Y-76200000D03*
X163068000Y-77850000D03*
%TD*%
D32*
%TO.C,R4*%
X127635000Y-78867000D03*
X127635000Y-79887000D03*
%TD*%
D22*
%TO.C,TP11*%
X138303000Y-100584000D03*
%TD*%
D33*
%TO.C,C15*%
X146299000Y-107950000D03*
X144399000Y-107950000D03*
%TD*%
D34*
%TO.C,SW1*%
X153289000Y-101528000D03*
X145329000Y-101528000D03*
X153289000Y-97028000D03*
X145329000Y-97028000D03*
%TD*%
D35*
%TO.C,U1*%
X153022500Y-116081500D03*
X152522500Y-116081500D03*
X152022500Y-116081500D03*
X151522500Y-116081500D03*
D36*
X151510000Y-116594000D03*
X151510000Y-117094000D03*
D35*
X151522500Y-117606500D03*
X152022500Y-117606500D03*
X152522500Y-117606500D03*
X153022500Y-117606500D03*
D36*
X153035000Y-117094000D03*
X153035000Y-116594000D03*
%TD*%
D37*
%TO.C,R18*%
X165223000Y-83058000D03*
X168148000Y-83058000D03*
%TD*%
D38*
%TO.C,C9*%
X131699000Y-87122000D03*
X130149000Y-87122000D03*
%TD*%
D37*
%TO.C,R23*%
X165223000Y-90170000D03*
X168148000Y-90170000D03*
%TD*%
D20*
%TO.C,R21*%
X167130000Y-105029000D03*
X168150000Y-105029000D03*
%TD*%
D28*
%TO.C,C11*%
X156342000Y-117602000D03*
X158242000Y-117602000D03*
%TD*%
D20*
%TO.C,R9*%
X141351000Y-118110000D03*
X142371000Y-118110000D03*
%TD*%
D39*
%TO.C,R2*%
X149352000Y-116582000D03*
X149352000Y-117602000D03*
%TD*%
D40*
%TO.C,T1*%
X129770000Y-90690700D03*
X126770000Y-90690700D03*
X126770000Y-101333300D03*
X129770000Y-101333300D03*
%TD*%
D20*
%TO.C,R24*%
X160524000Y-94996000D03*
X161544000Y-94996000D03*
%TD*%
%TO.C,R8*%
X137795000Y-82296000D03*
X138815000Y-82296000D03*
%TD*%
%TO.C,R14*%
X144653000Y-86868000D03*
X145673000Y-86868000D03*
%TD*%
%TO.C,R5*%
X125599000Y-82169000D03*
X126619000Y-82169000D03*
%TD*%
D41*
%TO.C,Q1*%
X135250000Y-116660000D03*
D42*
X132970000Y-122960000D03*
D41*
X130690000Y-116660000D03*
%TD*%
D26*
%TO.C,C6*%
X125476000Y-79883000D03*
X125476000Y-78923000D03*
%TD*%
D38*
%TO.C,C16*%
X146063000Y-109855000D03*
X144513000Y-109855000D03*
%TD*%
D31*
%TO.C,R13*%
X159893000Y-76200000D03*
X159893000Y-77850000D03*
%TD*%
D43*
%TO.C,C8*%
X125631000Y-83312000D03*
X126591000Y-83312000D03*
%TD*%
D37*
%TO.C,R20*%
X165223000Y-86614000D03*
X168148000Y-86614000D03*
%TD*%
D44*
%TO.C,D3*%
X138328500Y-97917000D03*
X136753500Y-97917000D03*
%TD*%
D45*
%TO.C,R6*%
X129413000Y-80772000D03*
X129413000Y-77847000D03*
%TD*%
D33*
%TO.C,C5*%
X124079000Y-87884000D03*
X122179000Y-87884000D03*
%TD*%
D46*
%TO.C,J4*%
X145034000Y-92456000D03*
D47*
X145034000Y-91186000D03*
X146304000Y-92456000D03*
X146304000Y-91186000D03*
X147574000Y-92456000D03*
X147574000Y-91186000D03*
X148844000Y-92456000D03*
X148844000Y-91186000D03*
X150114000Y-92456000D03*
X150114000Y-91186000D03*
%TD*%
D48*
%TO.C,C10*%
X136525000Y-78740000D03*
X136525000Y-73140000D03*
%TD*%
D49*
%TO.C,U4*%
X141884000Y-72884000D03*
X141884000Y-75184000D03*
D50*
X148184000Y-75184000D03*
D49*
X141884000Y-77484000D03*
%TD*%
D21*
%TO.C,Q6*%
X148976000Y-84963000D03*
X150876000Y-84963000D03*
X149926000Y-83088000D03*
%TD*%
D33*
%TO.C,C12*%
X133350000Y-80645000D03*
X131450000Y-80645000D03*
%TD*%
D48*
%TO.C,C13*%
X153416000Y-77884000D03*
X153416000Y-72484000D03*
%TD*%
D22*
%TO.C,TP2*%
X153797000Y-91948000D03*
%TD*%
%TO.C,TP10*%
X140081000Y-85852000D03*
%TD*%
D51*
%TO.C,C4*%
X132715000Y-107315000D03*
X138115000Y-107315000D03*
%TD*%
D16*
%TO.C,H2*%
X173355000Y-74295000D03*
%TD*%
D52*
%TO.C,D1*%
X135636000Y-87249000D03*
D53*
X133285000Y-87249000D03*
%TD*%
D20*
%TO.C,R10*%
X152400000Y-86868000D03*
X153420000Y-86868000D03*
%TD*%
D22*
%TO.C,TP3*%
X128270000Y-107315000D03*
%TD*%
D54*
%TO.C,D4*%
X130685000Y-113875000D03*
X133985000Y-113875000D03*
%TD*%
D31*
%TO.C,R15*%
X157988000Y-76201000D03*
X157988000Y-77851000D03*
%TD*%
D16*
%TO.C,H1*%
X125095000Y-74295000D03*
%TD*%
D55*
%TO.C,F1*%
X167259000Y-76007500D03*
X167259000Y-78932500D03*
%TD*%
D21*
%TO.C,Q4*%
X160152000Y-93218000D03*
X162052000Y-93218000D03*
X161102000Y-91343000D03*
%TD*%
D22*
%TO.C,TP15*%
X146431000Y-104140000D03*
%TD*%
D56*
%TO.C,C1*%
X155829000Y-100137000D03*
X155829000Y-98237000D03*
%TD*%
D57*
%TO.C,D2*%
X162794000Y-74106000D03*
X162794000Y-72706000D03*
X160294000Y-72706000D03*
X160294000Y-74106000D03*
%TD*%
D22*
%TO.C,TP12*%
X160401000Y-103378000D03*
%TD*%
M02*
