%TF.GenerationSoftware,KiCad,Pcbnew,(6.0.1-0)*%
%TF.CreationDate,2022-04-18T21:10:33-05:00*%
%TF.ProjectId,tackle_sensor_hardware,7461636b-6c65-45f7-9365-6e736f725f68,rev?*%
%TF.SameCoordinates,Original*%
%TF.FileFunction,Copper,L2,Inr*%
%TF.FilePolarity,Positive*%
%FSLAX46Y46*%
G04 Gerber Fmt 4.6, Leading zero omitted, Abs format (unit mm)*
G04 Created by KiCad (PCBNEW (6.0.1-0)) date 2022-04-18 21:10:33*
%MOMM*%
%LPD*%
G01*
G04 APERTURE LIST*
G04 Aperture macros list*
%AMRoundRect*
0 Rectangle with rounded corners*
0 $1 Rounding radius*
0 $2 $3 $4 $5 $6 $7 $8 $9 X,Y pos of 4 corners*
0 Add a 4 corners polygon primitive as box body*
4,1,4,$2,$3,$4,$5,$6,$7,$8,$9,$2,$3,0*
0 Add four circle primitives for the rounded corners*
1,1,$1+$1,$2,$3*
1,1,$1+$1,$4,$5*
1,1,$1+$1,$6,$7*
1,1,$1+$1,$8,$9*
0 Add four rect primitives between the rounded corners*
20,1,$1+$1,$2,$3,$4,$5,0*
20,1,$1+$1,$4,$5,$6,$7,0*
20,1,$1+$1,$6,$7,$8,$9,0*
20,1,$1+$1,$8,$9,$2,$3,0*%
G04 Aperture macros list end*
%TA.AperFunction,ComponentPad*%
%ADD10RoundRect,0.250000X-0.725000X0.600000X-0.725000X-0.600000X0.725000X-0.600000X0.725000X0.600000X0*%
%TD*%
%TA.AperFunction,ComponentPad*%
%ADD11O,1.950000X1.700000*%
%TD*%
%TA.AperFunction,ComponentPad*%
%ADD12RoundRect,0.250000X0.750000X-0.600000X0.750000X0.600000X-0.750000X0.600000X-0.750000X-0.600000X0*%
%TD*%
%TA.AperFunction,ComponentPad*%
%ADD13O,2.000000X1.700000*%
%TD*%
%TA.AperFunction,ComponentPad*%
%ADD14R,1.000000X1.000000*%
%TD*%
%TA.AperFunction,ComponentPad*%
%ADD15O,1.000000X1.000000*%
%TD*%
%TA.AperFunction,ViaPad*%
%ADD16C,0.500000*%
%TD*%
%TA.AperFunction,ViaPad*%
%ADD17C,0.800000*%
%TD*%
%TA.AperFunction,ViaPad*%
%ADD18C,1.000000*%
%TD*%
G04 APERTURE END LIST*
D10*
%TO.N,Net-(J3-Pad1)*%
%TO.C,J3*%
X173990000Y-103505000D03*
D11*
%TO.N,Net-(J3-Pad2)*%
X173990000Y-106005000D03*
%TO.N,GND*%
X173990000Y-108505000D03*
%TD*%
D12*
%TO.N,Net-(J1-Pad1)*%
%TO.C,J1*%
X123935000Y-114935000D03*
D13*
%TO.N,GND*%
X123935000Y-112435000D03*
%TD*%
D10*
%TO.N,Net-(F1-Pad2)*%
%TO.C,J2*%
X173880000Y-81340000D03*
D11*
%TO.N,Net-(J2-Pad2)*%
X173880000Y-83840000D03*
%TO.N,Net-(J2-Pad3)*%
X173880000Y-86340000D03*
%TO.N,Net-(J2-Pad4)*%
X173880000Y-88840000D03*
%TD*%
D14*
%TO.N,+3V3*%
%TO.C,J4*%
X145034000Y-92456000D03*
D15*
%TO.N,/SWDIO*%
X145034000Y-91186000D03*
%TO.N,GND*%
X146304000Y-92456000D03*
%TO.N,/SWCLK*%
X146304000Y-91186000D03*
%TO.N,GND*%
X147574000Y-92456000D03*
%TO.N,unconnected-(J4-Pad6)*%
X147574000Y-91186000D03*
%TO.N,unconnected-(J4-Pad7)*%
X148844000Y-92456000D03*
%TO.N,unconnected-(J4-Pad8)*%
X148844000Y-91186000D03*
%TO.N,GND*%
X150114000Y-92456000D03*
%TO.N,/RST*%
X150114000Y-91186000D03*
%TD*%
D16*
%TO.N,GND*%
X126492000Y-78105000D03*
X127508000Y-78105000D03*
X125476000Y-78105000D03*
X130048000Y-76327000D03*
X131064000Y-76327000D03*
X131064000Y-75438000D03*
X132080000Y-75438000D03*
X130048000Y-75438000D03*
X131064000Y-74549000D03*
X130048000Y-74549000D03*
X132080000Y-74549000D03*
X136525000Y-70739000D03*
X137541000Y-70739000D03*
X135509000Y-70739000D03*
D17*
X135255000Y-111760000D03*
X163322000Y-93218000D03*
D16*
X143383000Y-97028000D03*
X131064000Y-73660000D03*
X132080000Y-73660000D03*
X151003000Y-124587000D03*
X159893000Y-117602000D03*
X150495000Y-117602000D03*
X152019000Y-118364000D03*
X155829000Y-96393000D03*
X139827000Y-82296000D03*
D17*
X163576000Y-87630000D03*
D16*
X159766000Y-115443000D03*
D18*
X140970000Y-107315000D03*
D16*
X130048000Y-71628000D03*
X131064000Y-71628000D03*
X150876000Y-86741000D03*
X154686000Y-86741000D03*
X147828000Y-109728000D03*
X132080000Y-72644000D03*
X159385000Y-119634000D03*
X143256000Y-109855000D03*
X132080000Y-71628000D03*
X130048000Y-72644000D03*
X143256000Y-107950000D03*
X138303000Y-94615000D03*
D17*
X163425892Y-82700108D03*
D16*
X131064000Y-72644000D03*
X146939000Y-86741000D03*
X127381000Y-83312000D03*
D18*
X126365000Y-103505000D03*
X121920000Y-107950000D03*
D16*
X130048000Y-73660000D03*
%TO.N,+3V3*%
X147637500Y-108648500D03*
X146558000Y-75184000D03*
X145288000Y-75184000D03*
X144018000Y-75184000D03*
X141351000Y-116967000D03*
X155067000Y-119634000D03*
X140208000Y-100584000D03*
X155067000Y-117602000D03*
X155067000Y-115443000D03*
%TO.N,Net-(R7-Pad2)*%
X123317000Y-79375000D03*
X136398000Y-82677000D03*
%TO.N,Net-(R4-Pad1)*%
X125095000Y-84582000D03*
X127635000Y-80645000D03*
D18*
%TO.N,+12V*%
X139065000Y-80772000D03*
X167005000Y-74168000D03*
D16*
%TO.N,R_PWM*%
X153543000Y-85979000D03*
X156464000Y-93599000D03*
%TO.N,G_PWM*%
X159131000Y-90678000D03*
X159639000Y-96520000D03*
%TO.N,TACKLE_STATUS*%
X163322000Y-104902000D03*
X151638000Y-103886000D03*
%TO.N,UART_TX*%
X151892000Y-107315000D03*
X163195000Y-103378000D03*
%TO.N,/SPI1_SCK*%
X153035000Y-114935000D03*
X147193000Y-112395000D03*
%TO.N,/SPI1_NSS*%
X156464000Y-112776000D03*
%TO.N,/SPI1_MISO*%
X156591000Y-111252000D03*
%TO.N,/SPI1_MOSI*%
X158242000Y-108585000D03*
%TO.N,/ACC_INT2*%
X157607000Y-112395000D03*
%TO.N,/ACC_INT1*%
X150876000Y-110617000D03*
X153797000Y-114554000D03*
X144907000Y-112649000D03*
%TO.N,UART_RX*%
X153289000Y-107188000D03*
%TO.N,Net-(R9-Pad2)*%
X147701000Y-107696000D03*
X143891000Y-110871000D03*
%TD*%
%TA.AperFunction,Conductor*%
%TO.N,GND*%
G36*
X177234121Y-70378002D02*
G01*
X177280614Y-70431658D01*
X177292000Y-70484000D01*
X177292000Y-126366000D01*
X177271998Y-126434121D01*
X177218342Y-126480614D01*
X177166000Y-126492000D01*
X121284000Y-126492000D01*
X121215879Y-126471998D01*
X121169386Y-126418342D01*
X121158000Y-126366000D01*
X121158000Y-122687703D01*
X122985743Y-122687703D01*
X123023268Y-122972734D01*
X123099129Y-123250036D01*
X123211923Y-123514476D01*
X123359561Y-123761161D01*
X123539313Y-123985528D01*
X123747851Y-124183423D01*
X123981317Y-124351186D01*
X123985112Y-124353195D01*
X123985113Y-124353196D01*
X124006869Y-124364715D01*
X124235392Y-124485712D01*
X124505373Y-124584511D01*
X124786264Y-124645755D01*
X124814841Y-124648004D01*
X125009282Y-124663307D01*
X125009291Y-124663307D01*
X125011739Y-124663500D01*
X125167271Y-124663500D01*
X125169407Y-124663354D01*
X125169418Y-124663354D01*
X125377548Y-124649165D01*
X125377554Y-124649164D01*
X125381825Y-124648873D01*
X125386020Y-124648004D01*
X125386022Y-124648004D01*
X125522584Y-124619723D01*
X125663342Y-124590574D01*
X125934343Y-124494607D01*
X126189812Y-124362750D01*
X126193313Y-124360289D01*
X126193317Y-124360287D01*
X126307417Y-124280096D01*
X126425023Y-124197441D01*
X126635622Y-124001740D01*
X126817713Y-123779268D01*
X126967927Y-123534142D01*
X127083483Y-123270898D01*
X127162244Y-122994406D01*
X127202751Y-122709784D01*
X127202845Y-122691951D01*
X127202867Y-122687703D01*
X171245743Y-122687703D01*
X171283268Y-122972734D01*
X171359129Y-123250036D01*
X171471923Y-123514476D01*
X171619561Y-123761161D01*
X171799313Y-123985528D01*
X172007851Y-124183423D01*
X172241317Y-124351186D01*
X172245112Y-124353195D01*
X172245113Y-124353196D01*
X172266869Y-124364715D01*
X172495392Y-124485712D01*
X172765373Y-124584511D01*
X173046264Y-124645755D01*
X173074841Y-124648004D01*
X173269282Y-124663307D01*
X173269291Y-124663307D01*
X173271739Y-124663500D01*
X173427271Y-124663500D01*
X173429407Y-124663354D01*
X173429418Y-124663354D01*
X173637548Y-124649165D01*
X173637554Y-124649164D01*
X173641825Y-124648873D01*
X173646020Y-124648004D01*
X173646022Y-124648004D01*
X173782584Y-124619723D01*
X173923342Y-124590574D01*
X174194343Y-124494607D01*
X174449812Y-124362750D01*
X174453313Y-124360289D01*
X174453317Y-124360287D01*
X174567417Y-124280096D01*
X174685023Y-124197441D01*
X174895622Y-124001740D01*
X175077713Y-123779268D01*
X175227927Y-123534142D01*
X175343483Y-123270898D01*
X175422244Y-122994406D01*
X175462751Y-122709784D01*
X175462845Y-122691951D01*
X175464235Y-122426583D01*
X175464235Y-122426576D01*
X175464257Y-122422297D01*
X175426732Y-122137266D01*
X175350871Y-121859964D01*
X175238077Y-121595524D01*
X175090439Y-121348839D01*
X174910687Y-121124472D01*
X174702149Y-120926577D01*
X174468683Y-120758814D01*
X174446843Y-120747250D01*
X174423654Y-120734972D01*
X174214608Y-120624288D01*
X173944627Y-120525489D01*
X173663736Y-120464245D01*
X173632685Y-120461801D01*
X173440718Y-120446693D01*
X173440709Y-120446693D01*
X173438261Y-120446500D01*
X173282729Y-120446500D01*
X173280593Y-120446646D01*
X173280582Y-120446646D01*
X173072452Y-120460835D01*
X173072446Y-120460836D01*
X173068175Y-120461127D01*
X173063980Y-120461996D01*
X173063978Y-120461996D01*
X172927416Y-120490277D01*
X172786658Y-120519426D01*
X172515657Y-120615393D01*
X172260188Y-120747250D01*
X172256687Y-120749711D01*
X172256683Y-120749713D01*
X172246594Y-120756804D01*
X172024977Y-120912559D01*
X171814378Y-121108260D01*
X171632287Y-121330732D01*
X171482073Y-121575858D01*
X171366517Y-121839102D01*
X171287756Y-122115594D01*
X171247249Y-122400216D01*
X171247227Y-122404505D01*
X171247226Y-122404512D01*
X171245765Y-122683417D01*
X171245743Y-122687703D01*
X127202867Y-122687703D01*
X127204235Y-122426583D01*
X127204235Y-122426576D01*
X127204257Y-122422297D01*
X127166732Y-122137266D01*
X127090871Y-121859964D01*
X126978077Y-121595524D01*
X126830439Y-121348839D01*
X126650687Y-121124472D01*
X126442149Y-120926577D01*
X126208683Y-120758814D01*
X126186843Y-120747250D01*
X126163654Y-120734972D01*
X125954608Y-120624288D01*
X125684627Y-120525489D01*
X125403736Y-120464245D01*
X125372685Y-120461801D01*
X125180718Y-120446693D01*
X125180709Y-120446693D01*
X125178261Y-120446500D01*
X125022729Y-120446500D01*
X125020593Y-120446646D01*
X125020582Y-120446646D01*
X124812452Y-120460835D01*
X124812446Y-120460836D01*
X124808175Y-120461127D01*
X124803980Y-120461996D01*
X124803978Y-120461996D01*
X124667416Y-120490277D01*
X124526658Y-120519426D01*
X124255657Y-120615393D01*
X124000188Y-120747250D01*
X123996687Y-120749711D01*
X123996683Y-120749713D01*
X123986594Y-120756804D01*
X123764977Y-120912559D01*
X123554378Y-121108260D01*
X123372287Y-121330732D01*
X123222073Y-121575858D01*
X123106517Y-121839102D01*
X123027756Y-122115594D01*
X122987249Y-122400216D01*
X122987227Y-122404505D01*
X122987226Y-122404512D01*
X122985765Y-122683417D01*
X122985743Y-122687703D01*
X121158000Y-122687703D01*
X121158000Y-119623343D01*
X154303775Y-119623343D01*
X154320381Y-119792699D01*
X154374094Y-119954167D01*
X154377741Y-119960189D01*
X154377742Y-119960191D01*
X154391497Y-119982902D01*
X154462246Y-120099723D01*
X154580455Y-120222132D01*
X154722846Y-120315310D01*
X154729450Y-120317766D01*
X154729452Y-120317767D01*
X154765844Y-120331301D01*
X154882341Y-120374626D01*
X155051015Y-120397132D01*
X155058026Y-120396494D01*
X155058030Y-120396494D01*
X155213462Y-120382348D01*
X155220483Y-120381709D01*
X155227185Y-120379531D01*
X155227187Y-120379531D01*
X155375623Y-120331301D01*
X155375626Y-120331300D01*
X155382322Y-120329124D01*
X155528490Y-120241990D01*
X155533584Y-120237139D01*
X155533588Y-120237136D01*
X155600833Y-120173099D01*
X155651721Y-120124639D01*
X155745891Y-119982902D01*
X155806319Y-119823825D01*
X155830001Y-119655313D01*
X155830299Y-119634000D01*
X155811331Y-119464892D01*
X155755368Y-119304189D01*
X155749383Y-119294610D01*
X155727420Y-119259464D01*
X155665192Y-119159879D01*
X155545286Y-119039132D01*
X155529039Y-119028821D01*
X155490406Y-119004304D01*
X155401608Y-118947951D01*
X155241300Y-118890868D01*
X155072329Y-118870720D01*
X155065326Y-118871456D01*
X155065325Y-118871456D01*
X154910101Y-118887770D01*
X154910097Y-118887771D01*
X154903093Y-118888507D01*
X154896422Y-118890778D01*
X154748673Y-118941075D01*
X154748670Y-118941076D01*
X154742003Y-118943346D01*
X154736005Y-118947036D01*
X154736003Y-118947037D01*
X154603065Y-119028821D01*
X154603063Y-119028823D01*
X154597066Y-119032512D01*
X154475486Y-119151573D01*
X154383304Y-119294610D01*
X154325103Y-119454516D01*
X154303775Y-119623343D01*
X121158000Y-119623343D01*
X121158000Y-116956343D01*
X140587775Y-116956343D01*
X140604381Y-117125699D01*
X140658094Y-117287167D01*
X140661741Y-117293189D01*
X140661742Y-117293191D01*
X140742319Y-117426238D01*
X140746246Y-117432723D01*
X140864455Y-117555132D01*
X140870351Y-117558990D01*
X140974622Y-117627223D01*
X141006846Y-117648310D01*
X141013450Y-117650766D01*
X141013452Y-117650767D01*
X141049844Y-117664301D01*
X141166341Y-117707626D01*
X141335015Y-117730132D01*
X141342026Y-117729494D01*
X141342030Y-117729494D01*
X141497462Y-117715348D01*
X141504483Y-117714709D01*
X141511185Y-117712531D01*
X141511187Y-117712531D01*
X141659623Y-117664301D01*
X141659626Y-117664300D01*
X141666322Y-117662124D01*
X141785058Y-117591343D01*
X154303775Y-117591343D01*
X154320381Y-117760699D01*
X154374094Y-117922167D01*
X154377741Y-117928189D01*
X154377742Y-117928191D01*
X154391497Y-117950902D01*
X154462246Y-118067723D01*
X154580455Y-118190132D01*
X154722846Y-118283310D01*
X154729450Y-118285766D01*
X154729452Y-118285767D01*
X154765844Y-118299301D01*
X154882341Y-118342626D01*
X155051015Y-118365132D01*
X155058026Y-118364494D01*
X155058030Y-118364494D01*
X155213462Y-118350348D01*
X155220483Y-118349709D01*
X155227185Y-118347531D01*
X155227187Y-118347531D01*
X155375623Y-118299301D01*
X155375626Y-118299300D01*
X155382322Y-118297124D01*
X155528490Y-118209990D01*
X155533584Y-118205139D01*
X155533588Y-118205136D01*
X155600833Y-118141099D01*
X155651721Y-118092639D01*
X155745891Y-117950902D01*
X155806319Y-117791825D01*
X155830001Y-117623313D01*
X155830299Y-117602000D01*
X155811331Y-117432892D01*
X155755368Y-117272189D01*
X155749383Y-117262610D01*
X155687397Y-117163414D01*
X155665192Y-117127879D01*
X155545286Y-117007132D01*
X155529039Y-116996821D01*
X155482048Y-116967000D01*
X155401608Y-116915951D01*
X155241300Y-116858868D01*
X155072329Y-116838720D01*
X155065326Y-116839456D01*
X155065325Y-116839456D01*
X154910101Y-116855770D01*
X154910097Y-116855771D01*
X154903093Y-116856507D01*
X154896422Y-116858778D01*
X154748673Y-116909075D01*
X154748670Y-116909076D01*
X154742003Y-116911346D01*
X154736005Y-116915036D01*
X154736003Y-116915037D01*
X154603065Y-116996821D01*
X154603063Y-116996823D01*
X154597066Y-117000512D01*
X154475486Y-117119573D01*
X154383304Y-117262610D01*
X154325103Y-117422516D01*
X154303775Y-117591343D01*
X141785058Y-117591343D01*
X141812490Y-117574990D01*
X141817584Y-117570139D01*
X141817588Y-117570136D01*
X141884833Y-117506099D01*
X141935721Y-117457639D01*
X141963455Y-117415897D01*
X142025990Y-117321773D01*
X142029891Y-117315902D01*
X142090319Y-117156825D01*
X142114001Y-116988313D01*
X142114299Y-116967000D01*
X142095331Y-116797892D01*
X142039368Y-116637189D01*
X142033383Y-116627610D01*
X142011420Y-116592464D01*
X141949192Y-116492879D01*
X141829286Y-116372132D01*
X141813039Y-116361821D01*
X141774406Y-116337304D01*
X141685608Y-116280951D01*
X141525300Y-116223868D01*
X141356329Y-116203720D01*
X141349326Y-116204456D01*
X141349325Y-116204456D01*
X141194101Y-116220770D01*
X141194097Y-116220771D01*
X141187093Y-116221507D01*
X141180422Y-116223778D01*
X141032673Y-116274075D01*
X141032670Y-116274076D01*
X141026003Y-116276346D01*
X141020005Y-116280036D01*
X141020003Y-116280037D01*
X140887065Y-116361821D01*
X140887063Y-116361823D01*
X140881066Y-116365512D01*
X140759486Y-116484573D01*
X140667304Y-116627610D01*
X140609103Y-116787516D01*
X140587775Y-116956343D01*
X121158000Y-116956343D01*
X121158000Y-115585400D01*
X122426500Y-115585400D01*
X122426837Y-115588646D01*
X122426837Y-115588650D01*
X122436663Y-115683348D01*
X122437474Y-115691166D01*
X122439655Y-115697702D01*
X122439655Y-115697704D01*
X122463505Y-115769191D01*
X122493450Y-115858946D01*
X122586522Y-116009348D01*
X122711697Y-116134305D01*
X122717927Y-116138145D01*
X122717928Y-116138146D01*
X122855090Y-116222694D01*
X122862262Y-116227115D01*
X122942005Y-116253564D01*
X123023611Y-116280632D01*
X123023613Y-116280632D01*
X123030139Y-116282797D01*
X123036975Y-116283497D01*
X123036978Y-116283498D01*
X123080031Y-116287909D01*
X123134600Y-116293500D01*
X124735400Y-116293500D01*
X124738646Y-116293163D01*
X124738650Y-116293163D01*
X124834308Y-116283238D01*
X124834312Y-116283237D01*
X124841166Y-116282526D01*
X124847702Y-116280345D01*
X124847704Y-116280345D01*
X124979806Y-116236272D01*
X125008946Y-116226550D01*
X125159348Y-116133478D01*
X125284305Y-116008303D01*
X125377115Y-115857738D01*
X125432797Y-115689861D01*
X125443500Y-115585400D01*
X125443500Y-114924343D01*
X152271775Y-114924343D01*
X152288381Y-115093699D01*
X152342094Y-115255167D01*
X152345741Y-115261189D01*
X152345742Y-115261191D01*
X152409872Y-115367081D01*
X152430246Y-115400723D01*
X152548455Y-115523132D01*
X152554351Y-115526990D01*
X152648498Y-115588598D01*
X152690846Y-115616310D01*
X152697450Y-115618766D01*
X152697452Y-115618767D01*
X152733844Y-115632301D01*
X152850341Y-115675626D01*
X153019015Y-115698132D01*
X153026026Y-115697494D01*
X153026030Y-115697494D01*
X153181462Y-115683348D01*
X153188483Y-115682709D01*
X153195185Y-115680531D01*
X153195187Y-115680531D01*
X153343623Y-115632301D01*
X153343626Y-115632300D01*
X153350322Y-115630124D01*
X153496490Y-115542990D01*
X153501584Y-115538139D01*
X153501588Y-115538136D01*
X153583254Y-115460366D01*
X153619721Y-115425639D01*
X153655507Y-115371777D01*
X153709863Y-115326108D01*
X153766945Y-115318050D01*
X153766987Y-115316053D01*
X153774035Y-115316201D01*
X153781015Y-115317132D01*
X153788026Y-115316494D01*
X153788030Y-115316494D01*
X153943462Y-115302348D01*
X153950483Y-115301709D01*
X153957185Y-115299531D01*
X153957187Y-115299531D01*
X154105623Y-115251301D01*
X154105626Y-115251300D01*
X154112322Y-115249124D01*
X154122496Y-115243059D01*
X154191251Y-115225359D01*
X154258660Y-115247641D01*
X154303323Y-115302829D01*
X154312020Y-115367079D01*
X154303775Y-115432343D01*
X154320381Y-115601699D01*
X154374094Y-115763167D01*
X154377741Y-115769189D01*
X154377742Y-115769191D01*
X154391497Y-115791902D01*
X154462246Y-115908723D01*
X154580455Y-116031132D01*
X154722846Y-116124310D01*
X154729450Y-116126766D01*
X154729452Y-116126767D01*
X154765844Y-116140301D01*
X154882341Y-116183626D01*
X155051015Y-116206132D01*
X155058026Y-116205494D01*
X155058030Y-116205494D01*
X155213462Y-116191348D01*
X155220483Y-116190709D01*
X155227185Y-116188531D01*
X155227187Y-116188531D01*
X155375623Y-116140301D01*
X155375626Y-116140300D01*
X155382322Y-116138124D01*
X155528490Y-116050990D01*
X155533584Y-116046139D01*
X155533588Y-116046136D01*
X155600833Y-115982099D01*
X155651721Y-115933639D01*
X155745891Y-115791902D01*
X155806319Y-115632825D01*
X155830001Y-115464313D01*
X155830299Y-115443000D01*
X155811331Y-115273892D01*
X155802190Y-115247641D01*
X155757686Y-115119846D01*
X155755368Y-115113189D01*
X155749383Y-115103610D01*
X155712533Y-115044639D01*
X155665192Y-114968879D01*
X155545286Y-114848132D01*
X155401608Y-114756951D01*
X155241300Y-114699868D01*
X155072329Y-114679720D01*
X155065326Y-114680456D01*
X155065325Y-114680456D01*
X154910101Y-114696770D01*
X154910097Y-114696771D01*
X154903093Y-114697507D01*
X154896422Y-114699778D01*
X154748673Y-114750075D01*
X154748670Y-114750076D01*
X154742003Y-114752346D01*
X154736004Y-114756037D01*
X154731192Y-114758301D01*
X154661038Y-114769206D01*
X154596125Y-114740452D01*
X154557062Y-114681168D01*
X154552771Y-114626756D01*
X154559452Y-114579221D01*
X154559452Y-114579218D01*
X154560001Y-114575313D01*
X154560299Y-114554000D01*
X154541331Y-114384892D01*
X154523439Y-114333512D01*
X154492387Y-114244346D01*
X154485368Y-114224189D01*
X154463236Y-114188770D01*
X154418189Y-114116682D01*
X154395192Y-114079879D01*
X154275286Y-113959132D01*
X154259039Y-113948821D01*
X154220406Y-113924304D01*
X154131608Y-113867951D01*
X153971300Y-113810868D01*
X153802329Y-113790720D01*
X153795326Y-113791456D01*
X153795325Y-113791456D01*
X153640101Y-113807770D01*
X153640097Y-113807771D01*
X153633093Y-113808507D01*
X153626422Y-113810778D01*
X153478673Y-113861075D01*
X153478670Y-113861076D01*
X153472003Y-113863346D01*
X153466005Y-113867036D01*
X153466003Y-113867037D01*
X153333065Y-113948821D01*
X153333063Y-113948823D01*
X153327066Y-113952512D01*
X153205486Y-114071573D01*
X153201673Y-114077490D01*
X153201671Y-114077492D01*
X153176414Y-114116682D01*
X153122699Y-114163106D01*
X153055587Y-114173539D01*
X153047324Y-114172554D01*
X153047323Y-114172554D01*
X153040329Y-114171720D01*
X153033326Y-114172456D01*
X153033325Y-114172456D01*
X152878101Y-114188770D01*
X152878097Y-114188771D01*
X152871093Y-114189507D01*
X152864422Y-114191778D01*
X152716673Y-114242075D01*
X152716670Y-114242076D01*
X152710003Y-114244346D01*
X152704005Y-114248036D01*
X152704003Y-114248037D01*
X152571065Y-114329821D01*
X152571063Y-114329823D01*
X152565066Y-114333512D01*
X152443486Y-114452573D01*
X152439675Y-114458487D01*
X152439673Y-114458489D01*
X152361866Y-114579221D01*
X152351304Y-114595610D01*
X152293103Y-114755516D01*
X152271775Y-114924343D01*
X125443500Y-114924343D01*
X125443500Y-114284600D01*
X125443163Y-114281350D01*
X125433238Y-114185692D01*
X125433237Y-114185688D01*
X125432526Y-114178834D01*
X125411791Y-114116682D01*
X125378868Y-114018002D01*
X125376550Y-114011054D01*
X125283478Y-113860652D01*
X125158303Y-113735695D01*
X125012220Y-113645647D01*
X124964727Y-113592876D01*
X124953303Y-113522804D01*
X124981577Y-113457680D01*
X124991364Y-113447218D01*
X125101906Y-113341766D01*
X125108941Y-113333814D01*
X125240141Y-113157475D01*
X125245745Y-113148438D01*
X125345357Y-112952516D01*
X125349357Y-112942665D01*
X125414534Y-112732760D01*
X125416817Y-112722376D01*
X125418861Y-112706957D01*
X125416665Y-112692793D01*
X125403478Y-112689000D01*
X122468808Y-112689000D01*
X122455277Y-112692973D01*
X122453752Y-112703580D01*
X122478477Y-112821421D01*
X122481537Y-112831617D01*
X122562263Y-113036029D01*
X122566994Y-113045561D01*
X122681016Y-113233462D01*
X122687280Y-113242052D01*
X122831327Y-113408052D01*
X122838956Y-113415470D01*
X122870569Y-113441391D01*
X122910564Y-113500051D01*
X122912496Y-113571021D01*
X122875752Y-113631770D01*
X122856983Y-113645969D01*
X122710652Y-113736522D01*
X122585695Y-113861697D01*
X122581855Y-113867927D01*
X122581854Y-113867928D01*
X122529716Y-113952512D01*
X122492885Y-114012262D01*
X122490581Y-114019209D01*
X122442853Y-114163106D01*
X122437203Y-114180139D01*
X122436503Y-114186975D01*
X122436502Y-114186978D01*
X122436243Y-114189507D01*
X122426500Y-114284600D01*
X122426500Y-115585400D01*
X121158000Y-115585400D01*
X121158000Y-112638343D01*
X144143775Y-112638343D01*
X144160381Y-112807699D01*
X144214094Y-112969167D01*
X144217741Y-112975189D01*
X144217742Y-112975191D01*
X144288667Y-113092301D01*
X144302246Y-113114723D01*
X144420455Y-113237132D01*
X144562846Y-113330310D01*
X144569450Y-113332766D01*
X144569452Y-113332767D01*
X144605844Y-113346301D01*
X144722341Y-113389626D01*
X144891015Y-113412132D01*
X144898026Y-113411494D01*
X144898030Y-113411494D01*
X145053462Y-113397348D01*
X145060483Y-113396709D01*
X145067185Y-113394531D01*
X145067187Y-113394531D01*
X145215623Y-113346301D01*
X145215626Y-113346300D01*
X145222322Y-113344124D01*
X145368490Y-113256990D01*
X145373584Y-113252139D01*
X145373588Y-113252136D01*
X145482481Y-113148438D01*
X145491721Y-113139639D01*
X145501513Y-113124902D01*
X145581990Y-113003773D01*
X145585891Y-112997902D01*
X145646319Y-112838825D01*
X145670001Y-112670313D01*
X145670299Y-112649000D01*
X145651331Y-112479892D01*
X145618057Y-112384343D01*
X146429775Y-112384343D01*
X146446381Y-112553699D01*
X146448605Y-112560384D01*
X146448605Y-112560385D01*
X146472212Y-112631349D01*
X146500094Y-112715167D01*
X146503741Y-112721189D01*
X146503742Y-112721191D01*
X146578975Y-112845414D01*
X146588246Y-112860723D01*
X146706455Y-112983132D01*
X146729026Y-112997902D01*
X146801857Y-113045561D01*
X146848846Y-113076310D01*
X146855450Y-113078766D01*
X146855452Y-113078767D01*
X146928594Y-113105968D01*
X147008341Y-113135626D01*
X147177015Y-113158132D01*
X147184026Y-113157494D01*
X147184030Y-113157494D01*
X147339462Y-113143348D01*
X147346483Y-113142709D01*
X147353185Y-113140531D01*
X147353187Y-113140531D01*
X147501623Y-113092301D01*
X147501626Y-113092300D01*
X147508322Y-113090124D01*
X147654490Y-113002990D01*
X147659584Y-112998139D01*
X147659588Y-112998136D01*
X147733563Y-112927690D01*
X147777721Y-112885639D01*
X147804447Y-112845414D01*
X147852987Y-112772355D01*
X147857646Y-112765343D01*
X155700775Y-112765343D01*
X155717381Y-112934699D01*
X155719605Y-112941384D01*
X155719605Y-112941385D01*
X155733492Y-112983132D01*
X155771094Y-113096167D01*
X155774741Y-113102189D01*
X155774742Y-113102191D01*
X155808224Y-113157475D01*
X155859246Y-113241723D01*
X155977455Y-113364132D01*
X156044572Y-113408052D01*
X156104424Y-113447218D01*
X156119846Y-113457310D01*
X156126450Y-113459766D01*
X156126452Y-113459767D01*
X156162844Y-113473301D01*
X156279341Y-113516626D01*
X156448015Y-113539132D01*
X156455026Y-113538494D01*
X156455030Y-113538494D01*
X156610462Y-113524348D01*
X156617483Y-113523709D01*
X156624185Y-113521531D01*
X156624187Y-113521531D01*
X156772623Y-113473301D01*
X156772626Y-113473300D01*
X156779322Y-113471124D01*
X156925490Y-113383990D01*
X156930584Y-113379139D01*
X156930588Y-113379136D01*
X156997833Y-113315099D01*
X157048721Y-113266639D01*
X157137282Y-113133344D01*
X157191639Y-113087675D01*
X157262058Y-113078643D01*
X157286143Y-113084974D01*
X157422341Y-113135626D01*
X157591015Y-113158132D01*
X157598026Y-113157494D01*
X157598030Y-113157494D01*
X157753462Y-113143348D01*
X157760483Y-113142709D01*
X157767185Y-113140531D01*
X157767187Y-113140531D01*
X157915623Y-113092301D01*
X157915626Y-113092300D01*
X157922322Y-113090124D01*
X158068490Y-113002990D01*
X158073584Y-112998139D01*
X158073588Y-112998136D01*
X158147563Y-112927690D01*
X158191721Y-112885639D01*
X158218447Y-112845414D01*
X158266987Y-112772355D01*
X158285891Y-112743902D01*
X158346319Y-112584825D01*
X158370001Y-112416313D01*
X158370299Y-112395000D01*
X158351331Y-112225892D01*
X158333656Y-112175135D01*
X158297686Y-112071846D01*
X158295368Y-112065189D01*
X158291582Y-112059129D01*
X158267420Y-112020464D01*
X158205192Y-111920879D01*
X158189458Y-111905034D01*
X158144727Y-111859990D01*
X158085286Y-111800132D01*
X158069039Y-111789821D01*
X158030406Y-111765304D01*
X157941608Y-111708951D01*
X157781300Y-111651868D01*
X157612329Y-111631720D01*
X157605326Y-111632456D01*
X157605325Y-111632456D01*
X157447145Y-111649081D01*
X157377307Y-111636309D01*
X157325460Y-111587807D01*
X157308066Y-111518974D01*
X157316187Y-111479027D01*
X157325494Y-111454528D01*
X157330319Y-111441825D01*
X157354001Y-111273313D01*
X157354299Y-111252000D01*
X157335331Y-111082892D01*
X157327647Y-111060825D01*
X157296635Y-110971773D01*
X157279368Y-110922189D01*
X157273383Y-110912610D01*
X157211397Y-110813414D01*
X157189192Y-110777879D01*
X157069286Y-110657132D01*
X157053039Y-110646821D01*
X157006048Y-110617000D01*
X156925608Y-110565951D01*
X156765300Y-110508868D01*
X156596329Y-110488720D01*
X156589326Y-110489456D01*
X156589325Y-110489456D01*
X156434101Y-110505770D01*
X156434097Y-110505771D01*
X156427093Y-110506507D01*
X156420422Y-110508778D01*
X156272673Y-110559075D01*
X156272670Y-110559076D01*
X156266003Y-110561346D01*
X156260005Y-110565036D01*
X156260003Y-110565037D01*
X156127065Y-110646821D01*
X156127063Y-110646823D01*
X156121066Y-110650512D01*
X155999486Y-110769573D01*
X155995675Y-110775487D01*
X155995673Y-110775489D01*
X155917865Y-110896223D01*
X155907304Y-110912610D01*
X155849103Y-111072516D01*
X155827775Y-111241343D01*
X155844381Y-111410699D01*
X155846605Y-111417384D01*
X155846605Y-111417385D01*
X155858961Y-111454528D01*
X155898094Y-111572167D01*
X155901741Y-111578189D01*
X155901742Y-111578191D01*
X155978145Y-111704346D01*
X155986246Y-111717723D01*
X156104455Y-111840132D01*
X156149009Y-111869287D01*
X156195056Y-111923322D01*
X156204581Y-111993677D01*
X156174556Y-112058012D01*
X156138738Y-112084915D01*
X156139003Y-112085346D01*
X156133008Y-112089034D01*
X156133004Y-112089036D01*
X156000065Y-112170821D01*
X156000063Y-112170823D01*
X155994066Y-112174512D01*
X155872486Y-112293573D01*
X155868675Y-112299487D01*
X155868673Y-112299489D01*
X155790865Y-112420223D01*
X155780304Y-112436610D01*
X155722103Y-112596516D01*
X155700775Y-112765343D01*
X147857646Y-112765343D01*
X147871891Y-112743902D01*
X147932319Y-112584825D01*
X147956001Y-112416313D01*
X147956299Y-112395000D01*
X147937331Y-112225892D01*
X147919656Y-112175135D01*
X147883686Y-112071846D01*
X147881368Y-112065189D01*
X147877582Y-112059129D01*
X147853420Y-112020464D01*
X147791192Y-111920879D01*
X147775458Y-111905034D01*
X147730727Y-111859990D01*
X147671286Y-111800132D01*
X147655039Y-111789821D01*
X147616406Y-111765304D01*
X147527608Y-111708951D01*
X147367300Y-111651868D01*
X147198329Y-111631720D01*
X147191326Y-111632456D01*
X147191325Y-111632456D01*
X147036101Y-111648770D01*
X147036097Y-111648771D01*
X147029093Y-111649507D01*
X147022422Y-111651778D01*
X146874673Y-111702075D01*
X146874670Y-111702076D01*
X146868003Y-111704346D01*
X146862005Y-111708036D01*
X146862003Y-111708037D01*
X146729065Y-111789821D01*
X146729063Y-111789823D01*
X146723066Y-111793512D01*
X146718033Y-111798441D01*
X146609185Y-111905034D01*
X146601486Y-111912573D01*
X146597675Y-111918487D01*
X146597673Y-111918489D01*
X146514523Y-112047512D01*
X146509304Y-112055610D01*
X146451103Y-112215516D01*
X146429775Y-112384343D01*
X145618057Y-112384343D01*
X145595368Y-112319189D01*
X145589383Y-112309610D01*
X145526449Y-112208897D01*
X145505192Y-112174879D01*
X145493439Y-112163043D01*
X145447264Y-112116545D01*
X145385286Y-112054132D01*
X145369039Y-112043821D01*
X145288368Y-111992626D01*
X145241608Y-111962951D01*
X145081300Y-111905868D01*
X144912329Y-111885720D01*
X144905326Y-111886456D01*
X144905325Y-111886456D01*
X144750101Y-111902770D01*
X144750097Y-111902771D01*
X144743093Y-111903507D01*
X144736422Y-111905778D01*
X144588673Y-111956075D01*
X144588670Y-111956076D01*
X144582003Y-111958346D01*
X144576005Y-111962036D01*
X144576003Y-111962037D01*
X144443065Y-112043821D01*
X144443063Y-112043823D01*
X144437066Y-112047512D01*
X144315486Y-112166573D01*
X144311675Y-112172487D01*
X144311673Y-112172489D01*
X144227121Y-112303687D01*
X144223304Y-112309610D01*
X144165103Y-112469516D01*
X144143775Y-112638343D01*
X121158000Y-112638343D01*
X121158000Y-112163043D01*
X122451139Y-112163043D01*
X122453335Y-112177207D01*
X122466522Y-112181000D01*
X123662885Y-112181000D01*
X123678124Y-112176525D01*
X123679329Y-112175135D01*
X123681000Y-112167452D01*
X123681000Y-112162885D01*
X124189000Y-112162885D01*
X124193475Y-112178124D01*
X124194865Y-112179329D01*
X124202548Y-112181000D01*
X125401192Y-112181000D01*
X125414723Y-112177027D01*
X125416248Y-112166420D01*
X125391523Y-112048579D01*
X125388463Y-112038383D01*
X125307737Y-111833971D01*
X125303006Y-111824439D01*
X125188984Y-111636538D01*
X125182720Y-111627948D01*
X125038673Y-111461948D01*
X125031042Y-111454528D01*
X124861089Y-111315174D01*
X124852322Y-111309150D01*
X124661318Y-111200424D01*
X124651654Y-111195959D01*
X124445059Y-111120969D01*
X124434792Y-111118198D01*
X124217345Y-111078877D01*
X124209116Y-111077944D01*
X124204624Y-111077732D01*
X124191876Y-111081475D01*
X124190671Y-111082865D01*
X124189000Y-111090548D01*
X124189000Y-112162885D01*
X123681000Y-112162885D01*
X123681000Y-111099030D01*
X123676690Y-111084352D01*
X123664807Y-111082289D01*
X123560675Y-111091124D01*
X123550203Y-111092914D01*
X123337465Y-111148130D01*
X123327425Y-111151665D01*
X123127030Y-111241937D01*
X123117744Y-111247106D01*
X122935425Y-111369850D01*
X122927130Y-111376519D01*
X122768100Y-111528228D01*
X122761059Y-111536186D01*
X122629859Y-111712525D01*
X122624255Y-111721562D01*
X122524643Y-111917484D01*
X122520643Y-111927335D01*
X122455466Y-112137240D01*
X122453183Y-112147624D01*
X122451139Y-112163043D01*
X121158000Y-112163043D01*
X121158000Y-110860343D01*
X143127775Y-110860343D01*
X143144381Y-111029699D01*
X143146605Y-111036384D01*
X143146605Y-111036385D01*
X143161875Y-111082289D01*
X143198094Y-111191167D01*
X143201741Y-111197189D01*
X143201742Y-111197191D01*
X143272667Y-111314301D01*
X143286246Y-111336723D01*
X143404455Y-111459132D01*
X143546846Y-111552310D01*
X143553450Y-111554766D01*
X143553452Y-111554767D01*
X143626593Y-111581968D01*
X143706341Y-111611626D01*
X143875015Y-111634132D01*
X143882026Y-111633494D01*
X143882030Y-111633494D01*
X144037462Y-111619348D01*
X144044483Y-111618709D01*
X144051185Y-111616531D01*
X144051187Y-111616531D01*
X144199623Y-111568301D01*
X144199626Y-111568300D01*
X144206322Y-111566124D01*
X144352490Y-111478990D01*
X144357584Y-111474139D01*
X144357588Y-111474136D01*
X144460095Y-111376519D01*
X144475721Y-111361639D01*
X144569891Y-111219902D01*
X144630319Y-111060825D01*
X144654001Y-110892313D01*
X144654299Y-110871000D01*
X144635331Y-110701892D01*
X144617439Y-110650512D01*
X144602057Y-110606343D01*
X150112775Y-110606343D01*
X150129381Y-110775699D01*
X150183094Y-110937167D01*
X150186741Y-110943189D01*
X150186742Y-110943191D01*
X150267319Y-111076238D01*
X150271246Y-111082723D01*
X150389455Y-111205132D01*
X150412026Y-111219902D01*
X150499622Y-111277223D01*
X150531846Y-111298310D01*
X150538450Y-111300766D01*
X150538452Y-111300767D01*
X150611593Y-111327968D01*
X150691341Y-111357626D01*
X150860015Y-111380132D01*
X150867026Y-111379494D01*
X150867030Y-111379494D01*
X151022462Y-111365348D01*
X151029483Y-111364709D01*
X151036185Y-111362531D01*
X151036187Y-111362531D01*
X151184623Y-111314301D01*
X151184626Y-111314300D01*
X151191322Y-111312124D01*
X151337490Y-111224990D01*
X151342584Y-111220139D01*
X151342588Y-111220136D01*
X151446723Y-111120969D01*
X151460721Y-111107639D01*
X151470505Y-111092914D01*
X151550990Y-110971773D01*
X151554891Y-110965902D01*
X151615319Y-110806825D01*
X151639001Y-110638313D01*
X151639299Y-110617000D01*
X151620331Y-110447892D01*
X151564368Y-110287189D01*
X151560582Y-110281129D01*
X151502843Y-110188730D01*
X151474192Y-110142879D01*
X151458458Y-110127034D01*
X151359248Y-110027129D01*
X151354286Y-110022132D01*
X151338039Y-110011821D01*
X151299406Y-109987304D01*
X151210608Y-109930951D01*
X151050300Y-109873868D01*
X150881329Y-109853720D01*
X150874326Y-109854456D01*
X150874325Y-109854456D01*
X150719101Y-109870770D01*
X150719097Y-109870771D01*
X150712093Y-109871507D01*
X150705422Y-109873778D01*
X150557673Y-109924075D01*
X150557670Y-109924076D01*
X150551003Y-109926346D01*
X150545005Y-109930036D01*
X150545003Y-109930037D01*
X150412065Y-110011821D01*
X150412063Y-110011823D01*
X150406066Y-110015512D01*
X150401033Y-110020441D01*
X150292185Y-110127034D01*
X150284486Y-110134573D01*
X150280675Y-110140487D01*
X150280673Y-110140489D01*
X150197523Y-110269512D01*
X150192304Y-110277610D01*
X150134103Y-110437516D01*
X150112775Y-110606343D01*
X144602057Y-110606343D01*
X144579368Y-110541189D01*
X144573383Y-110531610D01*
X144510449Y-110430897D01*
X144489192Y-110396879D01*
X144369286Y-110276132D01*
X144353039Y-110265821D01*
X144314406Y-110241304D01*
X144225608Y-110184951D01*
X144065300Y-110127868D01*
X143896329Y-110107720D01*
X143889326Y-110108456D01*
X143889325Y-110108456D01*
X143734101Y-110124770D01*
X143734097Y-110124771D01*
X143727093Y-110125507D01*
X143720422Y-110127778D01*
X143572673Y-110178075D01*
X143572670Y-110178076D01*
X143566003Y-110180346D01*
X143560005Y-110184036D01*
X143560003Y-110184037D01*
X143427065Y-110265821D01*
X143427063Y-110265823D01*
X143421066Y-110269512D01*
X143299486Y-110388573D01*
X143295675Y-110394487D01*
X143295673Y-110394489D01*
X143223957Y-110505770D01*
X143207304Y-110531610D01*
X143149103Y-110691516D01*
X143127775Y-110860343D01*
X121158000Y-110860343D01*
X121158000Y-108637843D01*
X146874275Y-108637843D01*
X146890881Y-108807199D01*
X146944594Y-108968667D01*
X146948241Y-108974689D01*
X146948242Y-108974691D01*
X147027784Y-109106029D01*
X147032746Y-109114223D01*
X147150955Y-109236632D01*
X147293346Y-109329810D01*
X147299950Y-109332266D01*
X147299952Y-109332267D01*
X147342612Y-109348132D01*
X147452841Y-109389126D01*
X147621515Y-109411632D01*
X147628526Y-109410994D01*
X147628530Y-109410994D01*
X147783962Y-109396848D01*
X147790983Y-109396209D01*
X147797685Y-109394031D01*
X147797687Y-109394031D01*
X147946123Y-109345801D01*
X147946126Y-109345800D01*
X147952822Y-109343624D01*
X148098990Y-109256490D01*
X148104084Y-109251639D01*
X148104088Y-109251636D01*
X148186525Y-109173132D01*
X148222221Y-109139139D01*
X148316391Y-108997402D01*
X148376819Y-108838325D01*
X148400501Y-108669813D01*
X148400799Y-108648500D01*
X148392481Y-108574343D01*
X157478775Y-108574343D01*
X157495381Y-108743699D01*
X157497605Y-108750384D01*
X157497605Y-108750385D01*
X157502422Y-108764865D01*
X157549094Y-108905167D01*
X157552741Y-108911189D01*
X157552742Y-108911191D01*
X157604954Y-108997402D01*
X157637246Y-109050723D01*
X157755455Y-109173132D01*
X157761351Y-109176990D01*
X157875422Y-109251636D01*
X157897846Y-109266310D01*
X157904450Y-109268766D01*
X157904452Y-109268767D01*
X157940844Y-109282301D01*
X158057341Y-109325626D01*
X158226015Y-109348132D01*
X158233026Y-109347494D01*
X158233030Y-109347494D01*
X158388462Y-109333348D01*
X158395483Y-109332709D01*
X158402185Y-109330531D01*
X158402187Y-109330531D01*
X158550623Y-109282301D01*
X158550626Y-109282300D01*
X158557322Y-109280124D01*
X158703490Y-109192990D01*
X158708584Y-109188139D01*
X158708588Y-109188136D01*
X158794808Y-109106029D01*
X158826721Y-109075639D01*
X158920891Y-108933902D01*
X158981319Y-108774825D01*
X158981494Y-108773580D01*
X172533752Y-108773580D01*
X172558477Y-108891421D01*
X172561537Y-108901617D01*
X172642263Y-109106029D01*
X172646994Y-109115561D01*
X172761016Y-109303462D01*
X172767280Y-109312052D01*
X172911327Y-109478052D01*
X172918958Y-109485472D01*
X173088911Y-109624826D01*
X173097678Y-109630850D01*
X173288682Y-109739576D01*
X173298346Y-109744041D01*
X173504941Y-109819031D01*
X173515208Y-109821802D01*
X173718174Y-109858504D01*
X173731414Y-109857085D01*
X173736000Y-109842450D01*
X173736000Y-109838849D01*
X174244000Y-109838849D01*
X174248310Y-109853527D01*
X174260193Y-109855590D01*
X174339325Y-109848876D01*
X174349797Y-109847086D01*
X174562535Y-109791870D01*
X174572575Y-109788335D01*
X174772970Y-109698063D01*
X174782256Y-109692894D01*
X174964575Y-109570150D01*
X174972870Y-109563481D01*
X175131900Y-109411772D01*
X175138941Y-109403814D01*
X175270141Y-109227475D01*
X175275745Y-109218438D01*
X175375357Y-109022516D01*
X175379357Y-109012665D01*
X175444534Y-108802760D01*
X175446817Y-108792376D01*
X175448861Y-108776957D01*
X175446665Y-108762793D01*
X175433478Y-108759000D01*
X174262115Y-108759000D01*
X174246876Y-108763475D01*
X174245671Y-108764865D01*
X174244000Y-108772548D01*
X174244000Y-109838849D01*
X173736000Y-109838849D01*
X173736000Y-108777115D01*
X173731525Y-108761876D01*
X173730135Y-108760671D01*
X173722452Y-108759000D01*
X172548808Y-108759000D01*
X172535277Y-108762973D01*
X172533752Y-108773580D01*
X158981494Y-108773580D01*
X159005001Y-108606313D01*
X159005299Y-108585000D01*
X158986331Y-108415892D01*
X158930368Y-108255189D01*
X158924383Y-108245610D01*
X158865803Y-108151865D01*
X158840192Y-108110879D01*
X158720286Y-107990132D01*
X158704039Y-107979821D01*
X158631097Y-107933531D01*
X158576608Y-107898951D01*
X158416300Y-107841868D01*
X158247329Y-107821720D01*
X158240326Y-107822456D01*
X158240325Y-107822456D01*
X158085101Y-107838770D01*
X158085097Y-107838771D01*
X158078093Y-107839507D01*
X158071422Y-107841778D01*
X157923673Y-107892075D01*
X157923670Y-107892076D01*
X157917003Y-107894346D01*
X157911005Y-107898036D01*
X157911003Y-107898037D01*
X157778065Y-107979821D01*
X157778063Y-107979823D01*
X157772066Y-107983512D01*
X157767033Y-107988441D01*
X157676096Y-108077494D01*
X157650486Y-108102573D01*
X157646675Y-108108487D01*
X157646673Y-108108489D01*
X157562121Y-108239687D01*
X157558304Y-108245610D01*
X157500103Y-108405516D01*
X157478775Y-108574343D01*
X148392481Y-108574343D01*
X148381831Y-108479392D01*
X148325868Y-108318689D01*
X148306919Y-108288365D01*
X148287782Y-108219996D01*
X148308823Y-108151867D01*
X148379891Y-108044902D01*
X148440319Y-107885825D01*
X148464001Y-107717313D01*
X148464152Y-107706538D01*
X148464244Y-107699961D01*
X148464244Y-107699955D01*
X148464299Y-107696000D01*
X148445331Y-107526892D01*
X148429136Y-107480385D01*
X148395979Y-107385174D01*
X148389368Y-107366189D01*
X148383383Y-107356610D01*
X148350722Y-107304343D01*
X151128775Y-107304343D01*
X151145381Y-107473699D01*
X151147605Y-107480384D01*
X151147605Y-107480385D01*
X151162289Y-107524528D01*
X151199094Y-107635167D01*
X151202741Y-107641189D01*
X151202742Y-107641191D01*
X151238335Y-107699961D01*
X151287246Y-107780723D01*
X151405455Y-107903132D01*
X151476651Y-107949721D01*
X151528289Y-107983512D01*
X151547846Y-107996310D01*
X151554450Y-107998766D01*
X151554452Y-107998767D01*
X151617454Y-108022197D01*
X151707341Y-108055626D01*
X151876015Y-108078132D01*
X151883026Y-108077494D01*
X151883030Y-108077494D01*
X152038462Y-108063348D01*
X152045483Y-108062709D01*
X152052185Y-108060531D01*
X152052187Y-108060531D01*
X152200623Y-108012301D01*
X152200626Y-108012300D01*
X152207322Y-108010124D01*
X152353490Y-107922990D01*
X152358584Y-107918139D01*
X152358588Y-107918136D01*
X152459834Y-107821720D01*
X152476721Y-107805639D01*
X152534377Y-107718860D01*
X152588734Y-107673191D01*
X152659154Y-107664159D01*
X152723278Y-107694633D01*
X152729957Y-107701059D01*
X152802455Y-107776132D01*
X152944846Y-107869310D01*
X152951450Y-107871766D01*
X152951452Y-107871767D01*
X153022090Y-107898037D01*
X153104341Y-107928626D01*
X153273015Y-107951132D01*
X153280026Y-107950494D01*
X153280030Y-107950494D01*
X153435462Y-107936348D01*
X153442483Y-107935709D01*
X153449185Y-107933531D01*
X153449187Y-107933531D01*
X153597623Y-107885301D01*
X153597626Y-107885300D01*
X153604322Y-107883124D01*
X153750490Y-107795990D01*
X153755584Y-107791139D01*
X153755588Y-107791136D01*
X153850174Y-107701062D01*
X153873721Y-107678639D01*
X153883513Y-107663902D01*
X153963990Y-107542773D01*
X153967891Y-107536902D01*
X154028319Y-107377825D01*
X154052001Y-107209313D01*
X154052118Y-107200964D01*
X154052244Y-107191961D01*
X154052244Y-107191955D01*
X154052299Y-107188000D01*
X154033331Y-107018892D01*
X154030218Y-107009951D01*
X153979686Y-106864846D01*
X153977368Y-106858189D01*
X153971383Y-106848610D01*
X153895853Y-106727740D01*
X153887192Y-106713879D01*
X153767286Y-106593132D01*
X153751039Y-106582821D01*
X153656309Y-106522704D01*
X153623608Y-106501951D01*
X153463300Y-106444868D01*
X153294329Y-106424720D01*
X153287326Y-106425456D01*
X153287325Y-106425456D01*
X153132101Y-106441770D01*
X153132097Y-106441771D01*
X153125093Y-106442507D01*
X153118422Y-106444778D01*
X152970673Y-106495075D01*
X152970670Y-106495076D01*
X152964003Y-106497346D01*
X152958005Y-106501036D01*
X152958003Y-106501037D01*
X152825065Y-106582821D01*
X152825063Y-106582823D01*
X152819066Y-106586512D01*
X152697486Y-106705573D01*
X152693675Y-106711487D01*
X152693673Y-106711489D01*
X152647914Y-106782493D01*
X152594199Y-106828917D01*
X152523913Y-106838932D01*
X152459369Y-106809356D01*
X152452606Y-106803029D01*
X152370286Y-106720132D01*
X152354039Y-106709821D01*
X152315406Y-106685304D01*
X152226608Y-106628951D01*
X152066300Y-106571868D01*
X151897329Y-106551720D01*
X151890326Y-106552456D01*
X151890325Y-106552456D01*
X151735101Y-106568770D01*
X151735097Y-106568771D01*
X151728093Y-106569507D01*
X151721422Y-106571778D01*
X151573673Y-106622075D01*
X151573670Y-106622076D01*
X151567003Y-106624346D01*
X151561005Y-106628036D01*
X151561003Y-106628037D01*
X151428065Y-106709821D01*
X151428063Y-106709823D01*
X151422066Y-106713512D01*
X151300486Y-106832573D01*
X151296675Y-106838487D01*
X151296673Y-106838489D01*
X151224957Y-106949770D01*
X151208304Y-106975610D01*
X151150103Y-107135516D01*
X151128775Y-107304343D01*
X148350722Y-107304343D01*
X148342385Y-107291001D01*
X148299192Y-107221879D01*
X148179286Y-107101132D01*
X148163039Y-107090821D01*
X148060725Y-107025891D01*
X148035608Y-107009951D01*
X147875300Y-106952868D01*
X147706329Y-106932720D01*
X147699326Y-106933456D01*
X147699325Y-106933456D01*
X147544101Y-106949770D01*
X147544097Y-106949771D01*
X147537093Y-106950507D01*
X147530422Y-106952778D01*
X147382673Y-107003075D01*
X147382670Y-107003076D01*
X147376003Y-107005346D01*
X147370005Y-107009036D01*
X147370003Y-107009037D01*
X147237065Y-107090821D01*
X147237063Y-107090823D01*
X147231066Y-107094512D01*
X147182057Y-107142506D01*
X147117867Y-107205366D01*
X147109486Y-107213573D01*
X147105675Y-107219487D01*
X147105673Y-107219489D01*
X147055495Y-107297349D01*
X147017304Y-107356610D01*
X146959103Y-107516516D01*
X146937775Y-107685343D01*
X146954381Y-107854699D01*
X146956605Y-107861384D01*
X146956605Y-107861385D01*
X146971776Y-107906990D01*
X147008094Y-108016167D01*
X147011742Y-108022191D01*
X147011745Y-108022197D01*
X147032468Y-108056415D01*
X147050647Y-108125045D01*
X147030603Y-108189942D01*
X146990460Y-108252232D01*
X146953804Y-108309110D01*
X146895603Y-108469016D01*
X146874275Y-108637843D01*
X121158000Y-108637843D01*
X121158000Y-105940774D01*
X172503102Y-105940774D01*
X172511751Y-106171158D01*
X172559093Y-106396791D01*
X172561051Y-106401750D01*
X172561052Y-106401752D01*
X172638606Y-106598129D01*
X172643776Y-106611221D01*
X172646543Y-106615780D01*
X172646544Y-106615783D01*
X172707574Y-106716357D01*
X172763377Y-106808317D01*
X172766874Y-106812347D01*
X172890864Y-106955233D01*
X172914477Y-106982445D01*
X172918608Y-106985832D01*
X173088627Y-107125240D01*
X173088633Y-107125244D01*
X173092755Y-107128624D01*
X173097398Y-107131267D01*
X173124735Y-107146829D01*
X173174041Y-107197912D01*
X173187902Y-107267542D01*
X173161918Y-107333613D01*
X173132768Y-107360851D01*
X173015422Y-107439852D01*
X173007130Y-107446519D01*
X172848100Y-107598228D01*
X172841059Y-107606186D01*
X172709859Y-107782525D01*
X172704255Y-107791562D01*
X172604643Y-107987484D01*
X172600643Y-107997335D01*
X172535466Y-108207240D01*
X172533183Y-108217624D01*
X172531139Y-108233043D01*
X172533335Y-108247207D01*
X172546522Y-108251000D01*
X175431192Y-108251000D01*
X175444723Y-108247027D01*
X175446248Y-108236420D01*
X175421523Y-108118579D01*
X175418463Y-108108383D01*
X175337737Y-107903971D01*
X175333006Y-107894439D01*
X175218984Y-107706538D01*
X175212720Y-107697948D01*
X175068673Y-107531948D01*
X175061042Y-107524528D01*
X174891089Y-107385174D01*
X174882326Y-107379152D01*
X174855289Y-107363762D01*
X174805982Y-107312680D01*
X174792120Y-107243049D01*
X174818103Y-107176978D01*
X174847253Y-107149739D01*
X174929284Y-107094512D01*
X174969319Y-107067559D01*
X175136135Y-106908424D01*
X175273754Y-106723458D01*
X175277365Y-106716357D01*
X175351250Y-106571034D01*
X175378240Y-106517949D01*
X175383492Y-106501037D01*
X175445024Y-106302871D01*
X175446607Y-106297773D01*
X175447308Y-106292484D01*
X175476198Y-106074511D01*
X175476198Y-106074506D01*
X175476898Y-106069226D01*
X175468249Y-105838842D01*
X175420907Y-105613209D01*
X175418948Y-105608248D01*
X175338185Y-105403744D01*
X175338184Y-105403742D01*
X175336224Y-105398779D01*
X175250053Y-105256773D01*
X175219390Y-105206243D01*
X175216623Y-105201683D01*
X175127011Y-105098414D01*
X175069023Y-105031588D01*
X175069021Y-105031586D01*
X175065523Y-105027555D01*
X175029880Y-104998330D01*
X174989886Y-104939671D01*
X174987954Y-104868701D01*
X175024698Y-104807952D01*
X175043468Y-104793752D01*
X175183120Y-104707332D01*
X175189348Y-104703478D01*
X175314305Y-104578303D01*
X175319567Y-104569767D01*
X175403275Y-104433968D01*
X175403276Y-104433966D01*
X175407115Y-104427738D01*
X175462797Y-104259861D01*
X175473500Y-104155400D01*
X175473500Y-102854600D01*
X175473163Y-102851350D01*
X175463238Y-102755692D01*
X175463237Y-102755688D01*
X175462526Y-102748834D01*
X175406550Y-102581054D01*
X175313478Y-102430652D01*
X175188303Y-102305695D01*
X175182072Y-102301854D01*
X175043968Y-102216725D01*
X175043966Y-102216724D01*
X175037738Y-102212885D01*
X174877254Y-102159655D01*
X174876389Y-102159368D01*
X174876387Y-102159368D01*
X174869861Y-102157203D01*
X174863025Y-102156503D01*
X174863022Y-102156502D01*
X174819969Y-102152091D01*
X174765400Y-102146500D01*
X173214600Y-102146500D01*
X173211354Y-102146837D01*
X173211350Y-102146837D01*
X173115692Y-102156762D01*
X173115688Y-102156763D01*
X173108834Y-102157474D01*
X173102298Y-102159655D01*
X173102296Y-102159655D01*
X172970194Y-102203728D01*
X172941054Y-102213450D01*
X172790652Y-102306522D01*
X172665695Y-102431697D01*
X172572885Y-102582262D01*
X172554652Y-102637233D01*
X172535250Y-102695730D01*
X172517203Y-102750139D01*
X172516503Y-102756975D01*
X172516502Y-102756978D01*
X172512091Y-102800031D01*
X172506500Y-102854600D01*
X172506500Y-104155400D01*
X172506837Y-104158646D01*
X172506837Y-104158650D01*
X172512783Y-104215951D01*
X172517474Y-104261166D01*
X172519655Y-104267702D01*
X172519655Y-104267704D01*
X172545677Y-104345700D01*
X172573450Y-104428946D01*
X172666522Y-104579348D01*
X172791697Y-104704305D01*
X172797927Y-104708145D01*
X172797928Y-104708146D01*
X172827279Y-104726238D01*
X172937340Y-104794081D01*
X172984832Y-104846852D01*
X172996256Y-104916924D01*
X172967982Y-104982048D01*
X172958195Y-104992510D01*
X172843865Y-105101576D01*
X172706246Y-105286542D01*
X172703830Y-105291293D01*
X172703828Y-105291297D01*
X172662397Y-105372787D01*
X172601760Y-105492051D01*
X172600178Y-105497145D01*
X172600177Y-105497148D01*
X172538115Y-105697020D01*
X172533393Y-105712227D01*
X172532692Y-105717516D01*
X172517304Y-105833623D01*
X172503102Y-105940774D01*
X121158000Y-105940774D01*
X121158000Y-103875343D01*
X150874775Y-103875343D01*
X150891381Y-104044699D01*
X150893605Y-104051384D01*
X150893605Y-104051385D01*
X150898810Y-104067032D01*
X150945094Y-104206167D01*
X150948741Y-104212189D01*
X150948742Y-104212191D01*
X151006241Y-104307132D01*
X151033246Y-104351723D01*
X151151455Y-104474132D01*
X151157351Y-104477990D01*
X151286664Y-104562610D01*
X151293846Y-104567310D01*
X151300450Y-104569766D01*
X151300452Y-104569767D01*
X151373594Y-104596968D01*
X151453341Y-104626626D01*
X151622015Y-104649132D01*
X151629026Y-104648494D01*
X151629030Y-104648494D01*
X151784462Y-104634348D01*
X151791483Y-104633709D01*
X151798185Y-104631531D01*
X151798187Y-104631531D01*
X151946623Y-104583301D01*
X151946626Y-104583300D01*
X151953322Y-104581124D01*
X152099490Y-104493990D01*
X152104584Y-104489139D01*
X152104588Y-104489136D01*
X152177636Y-104419573D01*
X152222721Y-104376639D01*
X152316891Y-104234902D01*
X152377319Y-104075825D01*
X152401001Y-103907313D01*
X152401299Y-103886000D01*
X152382331Y-103716892D01*
X152326368Y-103556189D01*
X152320383Y-103546610D01*
X152298420Y-103511464D01*
X152236192Y-103411879D01*
X152191966Y-103367343D01*
X162431775Y-103367343D01*
X162448381Y-103536699D01*
X162502094Y-103698167D01*
X162505741Y-103704189D01*
X162505742Y-103704191D01*
X162519497Y-103726902D01*
X162590246Y-103843723D01*
X162708455Y-103966132D01*
X162850846Y-104059310D01*
X162857451Y-104061766D01*
X162863736Y-104064941D01*
X162862680Y-104067032D01*
X162910704Y-104102914D01*
X162935576Y-104169411D01*
X162920548Y-104238799D01*
X162875926Y-104285833D01*
X162858068Y-104296819D01*
X162858065Y-104296822D01*
X162852066Y-104300512D01*
X162730486Y-104419573D01*
X162726675Y-104425487D01*
X162726673Y-104425489D01*
X162692838Y-104477990D01*
X162638304Y-104562610D01*
X162630773Y-104583301D01*
X162585630Y-104707332D01*
X162580103Y-104722516D01*
X162558775Y-104891343D01*
X162575381Y-105060699D01*
X162629094Y-105222167D01*
X162632741Y-105228189D01*
X162632742Y-105228191D01*
X162670961Y-105291297D01*
X162717246Y-105367723D01*
X162835455Y-105490132D01*
X162977846Y-105583310D01*
X162984450Y-105585766D01*
X162984452Y-105585767D01*
X163020844Y-105599301D01*
X163137341Y-105642626D01*
X163306015Y-105665132D01*
X163313026Y-105664494D01*
X163313030Y-105664494D01*
X163468462Y-105650348D01*
X163475483Y-105649709D01*
X163482185Y-105647531D01*
X163482187Y-105647531D01*
X163630623Y-105599301D01*
X163630626Y-105599300D01*
X163637322Y-105597124D01*
X163783490Y-105509990D01*
X163788584Y-105505139D01*
X163788588Y-105505136D01*
X163855833Y-105441099D01*
X163906721Y-105392639D01*
X164000891Y-105250902D01*
X164061319Y-105091825D01*
X164085001Y-104923313D01*
X164085299Y-104902000D01*
X164066331Y-104732892D01*
X164057714Y-104708146D01*
X164041183Y-104660678D01*
X164010368Y-104572189D01*
X164004909Y-104563452D01*
X163949094Y-104474132D01*
X163920192Y-104427879D01*
X163913154Y-104420791D01*
X163805248Y-104312129D01*
X163800286Y-104307132D01*
X163789855Y-104300512D01*
X163662557Y-104219726D01*
X163662555Y-104219725D01*
X163656608Y-104215951D01*
X163652292Y-104214414D01*
X163600555Y-104167228D01*
X163582291Y-104098621D01*
X163604018Y-104031031D01*
X163643734Y-103993594D01*
X163650444Y-103989594D01*
X163656490Y-103985990D01*
X163661584Y-103981139D01*
X163661588Y-103981136D01*
X163743254Y-103903366D01*
X163779721Y-103868639D01*
X163873891Y-103726902D01*
X163934319Y-103567825D01*
X163958001Y-103399313D01*
X163958299Y-103378000D01*
X163939331Y-103208892D01*
X163936218Y-103199951D01*
X163885686Y-103054846D01*
X163883368Y-103048189D01*
X163877383Y-103038610D01*
X163855420Y-103003464D01*
X163793192Y-102903879D01*
X163747500Y-102857866D01*
X163678248Y-102788129D01*
X163673286Y-102783132D01*
X163657039Y-102772821D01*
X163608939Y-102742296D01*
X163529608Y-102691951D01*
X163369300Y-102634868D01*
X163200329Y-102614720D01*
X163193326Y-102615456D01*
X163193325Y-102615456D01*
X163038101Y-102631770D01*
X163038097Y-102631771D01*
X163031093Y-102632507D01*
X163024422Y-102634778D01*
X162876673Y-102685075D01*
X162876670Y-102685076D01*
X162870003Y-102687346D01*
X162864005Y-102691036D01*
X162864003Y-102691037D01*
X162731065Y-102772821D01*
X162731063Y-102772823D01*
X162725066Y-102776512D01*
X162603486Y-102895573D01*
X162511304Y-103038610D01*
X162453103Y-103198516D01*
X162431775Y-103367343D01*
X152191966Y-103367343D01*
X152116286Y-103291132D01*
X152100039Y-103280821D01*
X151997725Y-103215891D01*
X151972608Y-103199951D01*
X151812300Y-103142868D01*
X151643329Y-103122720D01*
X151636326Y-103123456D01*
X151636325Y-103123456D01*
X151481101Y-103139770D01*
X151481097Y-103139771D01*
X151474093Y-103140507D01*
X151467422Y-103142778D01*
X151319673Y-103193075D01*
X151319670Y-103193076D01*
X151313003Y-103195346D01*
X151307005Y-103199036D01*
X151307003Y-103199037D01*
X151174065Y-103280821D01*
X151174063Y-103280823D01*
X151168066Y-103284512D01*
X151163033Y-103289441D01*
X151054867Y-103395366D01*
X151046486Y-103403573D01*
X150954304Y-103546610D01*
X150896103Y-103706516D01*
X150874775Y-103875343D01*
X121158000Y-103875343D01*
X121158000Y-100573343D01*
X139444775Y-100573343D01*
X139461381Y-100742699D01*
X139515094Y-100904167D01*
X139518741Y-100910189D01*
X139518742Y-100910191D01*
X139532497Y-100932902D01*
X139603246Y-101049723D01*
X139721455Y-101172132D01*
X139863846Y-101265310D01*
X139870450Y-101267766D01*
X139870452Y-101267767D01*
X139906844Y-101281301D01*
X140023341Y-101324626D01*
X140192015Y-101347132D01*
X140199026Y-101346494D01*
X140199030Y-101346494D01*
X140354462Y-101332348D01*
X140361483Y-101331709D01*
X140368185Y-101329531D01*
X140368187Y-101329531D01*
X140516623Y-101281301D01*
X140516626Y-101281300D01*
X140523322Y-101279124D01*
X140669490Y-101191990D01*
X140674584Y-101187139D01*
X140674588Y-101187136D01*
X140741833Y-101123099D01*
X140792721Y-101074639D01*
X140886891Y-100932902D01*
X140947319Y-100773825D01*
X140971001Y-100605313D01*
X140971299Y-100584000D01*
X140952331Y-100414892D01*
X140896368Y-100254189D01*
X140890383Y-100244610D01*
X140868420Y-100209464D01*
X140806192Y-100109879D01*
X140686286Y-99989132D01*
X140670039Y-99978821D01*
X140631406Y-99954304D01*
X140542608Y-99897951D01*
X140382300Y-99840868D01*
X140213329Y-99820720D01*
X140206326Y-99821456D01*
X140206325Y-99821456D01*
X140051101Y-99837770D01*
X140051097Y-99837771D01*
X140044093Y-99838507D01*
X140037422Y-99840778D01*
X139889673Y-99891075D01*
X139889670Y-99891076D01*
X139883003Y-99893346D01*
X139877005Y-99897036D01*
X139877003Y-99897037D01*
X139744065Y-99978821D01*
X139744063Y-99978823D01*
X139738066Y-99982512D01*
X139616486Y-100101573D01*
X139524304Y-100244610D01*
X139466103Y-100404516D01*
X139444775Y-100573343D01*
X121158000Y-100573343D01*
X121158000Y-96509343D01*
X158875775Y-96509343D01*
X158892381Y-96678699D01*
X158946094Y-96840167D01*
X158949741Y-96846189D01*
X158949742Y-96846191D01*
X158963497Y-96868902D01*
X159034246Y-96985723D01*
X159152455Y-97108132D01*
X159294846Y-97201310D01*
X159301450Y-97203766D01*
X159301452Y-97203767D01*
X159337844Y-97217301D01*
X159454341Y-97260626D01*
X159623015Y-97283132D01*
X159630026Y-97282494D01*
X159630030Y-97282494D01*
X159785462Y-97268348D01*
X159792483Y-97267709D01*
X159799185Y-97265531D01*
X159799187Y-97265531D01*
X159947623Y-97217301D01*
X159947626Y-97217300D01*
X159954322Y-97215124D01*
X160100490Y-97127990D01*
X160105584Y-97123139D01*
X160105588Y-97123136D01*
X160172833Y-97059099D01*
X160223721Y-97010639D01*
X160317891Y-96868902D01*
X160378319Y-96709825D01*
X160402001Y-96541313D01*
X160402299Y-96520000D01*
X160383331Y-96350892D01*
X160327368Y-96190189D01*
X160321383Y-96180610D01*
X160299420Y-96145464D01*
X160237192Y-96045879D01*
X160117286Y-95925132D01*
X160101039Y-95914821D01*
X160062406Y-95890304D01*
X159973608Y-95833951D01*
X159813300Y-95776868D01*
X159644329Y-95756720D01*
X159637326Y-95757456D01*
X159637325Y-95757456D01*
X159482101Y-95773770D01*
X159482097Y-95773771D01*
X159475093Y-95774507D01*
X159468422Y-95776778D01*
X159320673Y-95827075D01*
X159320670Y-95827076D01*
X159314003Y-95829346D01*
X159308005Y-95833036D01*
X159308003Y-95833037D01*
X159175065Y-95914821D01*
X159175063Y-95914823D01*
X159169066Y-95918512D01*
X159047486Y-96037573D01*
X158955304Y-96180610D01*
X158897103Y-96340516D01*
X158875775Y-96509343D01*
X121158000Y-96509343D01*
X121158000Y-93588343D01*
X155700775Y-93588343D01*
X155717381Y-93757699D01*
X155771094Y-93919167D01*
X155774741Y-93925189D01*
X155774742Y-93925191D01*
X155788497Y-93947902D01*
X155859246Y-94064723D01*
X155977455Y-94187132D01*
X156119846Y-94280310D01*
X156126450Y-94282766D01*
X156126452Y-94282767D01*
X156162844Y-94296301D01*
X156279341Y-94339626D01*
X156448015Y-94362132D01*
X156455026Y-94361494D01*
X156455030Y-94361494D01*
X156610462Y-94347348D01*
X156617483Y-94346709D01*
X156624185Y-94344531D01*
X156624187Y-94344531D01*
X156772623Y-94296301D01*
X156772626Y-94296300D01*
X156779322Y-94294124D01*
X156925490Y-94206990D01*
X156930584Y-94202139D01*
X156930588Y-94202136D01*
X156997833Y-94138099D01*
X157048721Y-94089639D01*
X157142891Y-93947902D01*
X157203319Y-93788825D01*
X157227001Y-93620313D01*
X157227299Y-93599000D01*
X157208331Y-93429892D01*
X157205521Y-93421821D01*
X157167966Y-93313980D01*
X157152368Y-93269189D01*
X157146383Y-93259610D01*
X157105570Y-93194297D01*
X157062192Y-93124879D01*
X156942286Y-93004132D01*
X156926039Y-92993821D01*
X156887406Y-92969304D01*
X156798608Y-92912951D01*
X156638300Y-92855868D01*
X156469329Y-92835720D01*
X156462326Y-92836456D01*
X156462325Y-92836456D01*
X156307101Y-92852770D01*
X156307097Y-92852771D01*
X156300093Y-92853507D01*
X156293422Y-92855778D01*
X156145673Y-92906075D01*
X156145670Y-92906076D01*
X156139003Y-92908346D01*
X156133005Y-92912036D01*
X156133003Y-92912037D01*
X156000065Y-92993821D01*
X156000063Y-92993823D01*
X155994066Y-92997512D01*
X155872486Y-93116573D01*
X155868675Y-93122487D01*
X155868673Y-93122489D01*
X155822396Y-93194297D01*
X155780304Y-93259610D01*
X155762754Y-93307829D01*
X155726799Y-93406615D01*
X155722103Y-93419516D01*
X155700775Y-93588343D01*
X121158000Y-93588343D01*
X121158000Y-91171851D01*
X144020719Y-91171851D01*
X144021235Y-91177995D01*
X144029896Y-91281136D01*
X144037268Y-91368934D01*
X144091783Y-91559050D01*
X144098150Y-91571438D01*
X144111496Y-91641165D01*
X144091300Y-91693266D01*
X144093079Y-91694240D01*
X144088771Y-91702108D01*
X144083385Y-91709295D01*
X144032255Y-91845684D01*
X144025500Y-91907866D01*
X144025500Y-93004134D01*
X144032255Y-93066316D01*
X144083385Y-93202705D01*
X144170739Y-93319261D01*
X144287295Y-93406615D01*
X144423684Y-93457745D01*
X144485866Y-93464500D01*
X145582134Y-93464500D01*
X145644316Y-93457745D01*
X145780705Y-93406615D01*
X145787892Y-93401229D01*
X145795760Y-93396921D01*
X145796891Y-93398987D01*
X145851418Y-93378618D01*
X145899408Y-93384459D01*
X146032769Y-93427790D01*
X146046867Y-93428193D01*
X146050000Y-93421821D01*
X146050000Y-93413564D01*
X146558000Y-93413564D01*
X146561973Y-93427095D01*
X146570188Y-93428276D01*
X146664337Y-93401989D01*
X146675787Y-93397548D01*
X146841224Y-93313980D01*
X146851589Y-93307402D01*
X146860503Y-93300438D01*
X146926497Y-93274261D01*
X146999545Y-93289740D01*
X147163116Y-93381156D01*
X147174356Y-93386067D01*
X147302768Y-93427790D01*
X147316867Y-93428193D01*
X147320000Y-93421821D01*
X147320000Y-92728115D01*
X147315525Y-92712876D01*
X147314135Y-92711671D01*
X147306452Y-92710000D01*
X146576115Y-92710000D01*
X146560876Y-92714475D01*
X146559671Y-92715865D01*
X146558000Y-92723548D01*
X146558000Y-93413564D01*
X146050000Y-93413564D01*
X146050000Y-92328000D01*
X146070002Y-92259879D01*
X146123658Y-92213386D01*
X146176000Y-92202000D01*
X147702000Y-92202000D01*
X147770121Y-92222002D01*
X147816614Y-92275658D01*
X147828000Y-92328000D01*
X147828000Y-93413564D01*
X147831973Y-93427095D01*
X147840188Y-93428276D01*
X147934337Y-93401989D01*
X147945787Y-93397548D01*
X148111226Y-93313979D01*
X148121588Y-93307403D01*
X148130074Y-93300773D01*
X148196068Y-93274595D01*
X148269117Y-93290074D01*
X148438294Y-93384624D01*
X148626392Y-93445740D01*
X148822777Y-93469158D01*
X148828912Y-93468686D01*
X148828914Y-93468686D01*
X149013830Y-93454457D01*
X149013834Y-93454456D01*
X149019972Y-93453984D01*
X149210463Y-93400798D01*
X149215967Y-93398018D01*
X149215969Y-93398017D01*
X149381493Y-93314405D01*
X149381495Y-93314404D01*
X149386996Y-93311625D01*
X149392402Y-93307402D01*
X149400973Y-93300705D01*
X149466967Y-93274525D01*
X149540020Y-93290004D01*
X149703121Y-93381159D01*
X149714356Y-93386067D01*
X149842768Y-93427790D01*
X149856867Y-93428193D01*
X149860000Y-93421821D01*
X149860000Y-93413564D01*
X150368000Y-93413564D01*
X150371973Y-93427095D01*
X150380188Y-93428276D01*
X150474337Y-93401989D01*
X150485787Y-93397548D01*
X150651226Y-93313979D01*
X150661585Y-93307404D01*
X150807639Y-93193295D01*
X150816527Y-93184831D01*
X150937643Y-93044517D01*
X150944711Y-93034497D01*
X151036262Y-92873337D01*
X151041256Y-92862121D01*
X151086142Y-92727190D01*
X151086643Y-92713097D01*
X151080454Y-92710000D01*
X150386115Y-92710000D01*
X150370876Y-92714475D01*
X150369671Y-92715865D01*
X150368000Y-92723548D01*
X150368000Y-93413564D01*
X149860000Y-93413564D01*
X149860000Y-92328000D01*
X149880002Y-92259879D01*
X149933658Y-92213386D01*
X149986000Y-92202000D01*
X151072183Y-92202000D01*
X151085714Y-92198027D01*
X151086806Y-92190433D01*
X151052231Y-92075919D01*
X151047560Y-92064586D01*
X150960537Y-91900918D01*
X150953435Y-91890228D01*
X150932398Y-91822420D01*
X150948827Y-91758264D01*
X151036723Y-91603542D01*
X151036725Y-91603537D01*
X151039769Y-91598179D01*
X151102197Y-91410513D01*
X151126985Y-91214295D01*
X151127380Y-91186000D01*
X151108080Y-90989167D01*
X151050916Y-90799831D01*
X150980472Y-90667343D01*
X158367775Y-90667343D01*
X158384381Y-90836699D01*
X158438094Y-90998167D01*
X158441741Y-91004189D01*
X158441742Y-91004191D01*
X158455497Y-91026902D01*
X158526246Y-91143723D01*
X158644455Y-91266132D01*
X158786846Y-91359310D01*
X158793450Y-91361766D01*
X158793452Y-91361767D01*
X158828653Y-91374858D01*
X158946341Y-91418626D01*
X159115015Y-91441132D01*
X159122026Y-91440494D01*
X159122030Y-91440494D01*
X159277462Y-91426348D01*
X159284483Y-91425709D01*
X159291185Y-91423531D01*
X159291187Y-91423531D01*
X159439623Y-91375301D01*
X159439626Y-91375300D01*
X159446322Y-91373124D01*
X159592490Y-91285990D01*
X159597584Y-91281139D01*
X159597588Y-91281136D01*
X159671478Y-91210771D01*
X159715721Y-91168639D01*
X159809891Y-91026902D01*
X159870319Y-90867825D01*
X159894001Y-90699313D01*
X159894299Y-90678000D01*
X159875331Y-90508892D01*
X159819368Y-90348189D01*
X159813383Y-90338610D01*
X159757999Y-90249980D01*
X159729192Y-90203879D01*
X159723851Y-90198500D01*
X159614248Y-90088129D01*
X159609286Y-90083132D01*
X159600688Y-90077675D01*
X159554406Y-90048304D01*
X159465608Y-89991951D01*
X159305300Y-89934868D01*
X159136329Y-89914720D01*
X159129326Y-89915456D01*
X159129325Y-89915456D01*
X158974101Y-89931770D01*
X158974097Y-89931771D01*
X158967093Y-89932507D01*
X158960422Y-89934778D01*
X158812673Y-89985075D01*
X158812670Y-89985076D01*
X158806003Y-89987346D01*
X158800005Y-89991036D01*
X158800003Y-89991037D01*
X158667065Y-90072821D01*
X158667063Y-90072823D01*
X158661066Y-90076512D01*
X158656033Y-90081441D01*
X158545166Y-90190011D01*
X158539486Y-90195573D01*
X158535675Y-90201487D01*
X158535673Y-90201489D01*
X158501360Y-90254732D01*
X158447304Y-90338610D01*
X158389103Y-90498516D01*
X158367775Y-90667343D01*
X150980472Y-90667343D01*
X150958066Y-90625204D01*
X150863204Y-90508892D01*
X150836960Y-90476713D01*
X150836957Y-90476710D01*
X150833065Y-90471938D01*
X150826724Y-90466692D01*
X150685425Y-90349799D01*
X150685421Y-90349797D01*
X150680675Y-90345870D01*
X150506701Y-90251802D01*
X150317768Y-90193318D01*
X150311643Y-90192674D01*
X150311642Y-90192674D01*
X150127204Y-90173289D01*
X150127202Y-90173289D01*
X150121075Y-90172645D01*
X150038576Y-90180153D01*
X149930251Y-90190011D01*
X149930248Y-90190012D01*
X149924112Y-90190570D01*
X149918206Y-90192308D01*
X149918202Y-90192309D01*
X149813076Y-90223249D01*
X149734381Y-90246410D01*
X149728923Y-90249263D01*
X149728919Y-90249265D01*
X149633135Y-90299340D01*
X149559110Y-90338040D01*
X149554310Y-90341900D01*
X149549153Y-90345274D01*
X149547769Y-90343158D01*
X149492365Y-90366027D01*
X149422512Y-90353334D01*
X149412898Y-90347709D01*
X149410675Y-90345870D01*
X149236701Y-90251802D01*
X149047768Y-90193318D01*
X149041643Y-90192674D01*
X149041642Y-90192674D01*
X148857204Y-90173289D01*
X148857202Y-90173289D01*
X148851075Y-90172645D01*
X148768576Y-90180153D01*
X148660251Y-90190011D01*
X148660248Y-90190012D01*
X148654112Y-90190570D01*
X148648206Y-90192308D01*
X148648202Y-90192309D01*
X148543076Y-90223249D01*
X148464381Y-90246410D01*
X148458923Y-90249263D01*
X148458919Y-90249265D01*
X148363135Y-90299340D01*
X148289110Y-90338040D01*
X148284310Y-90341900D01*
X148279153Y-90345274D01*
X148277769Y-90343158D01*
X148222365Y-90366027D01*
X148152512Y-90353334D01*
X148142898Y-90347709D01*
X148140675Y-90345870D01*
X147966701Y-90251802D01*
X147777768Y-90193318D01*
X147771643Y-90192674D01*
X147771642Y-90192674D01*
X147587204Y-90173289D01*
X147587202Y-90173289D01*
X147581075Y-90172645D01*
X147498576Y-90180153D01*
X147390251Y-90190011D01*
X147390248Y-90190012D01*
X147384112Y-90190570D01*
X147378206Y-90192308D01*
X147378202Y-90192309D01*
X147273076Y-90223249D01*
X147194381Y-90246410D01*
X147188923Y-90249263D01*
X147188919Y-90249265D01*
X147093135Y-90299340D01*
X147019110Y-90338040D01*
X147014310Y-90341900D01*
X147009153Y-90345274D01*
X147007769Y-90343158D01*
X146952365Y-90366027D01*
X146882512Y-90353334D01*
X146872898Y-90347709D01*
X146870675Y-90345870D01*
X146696701Y-90251802D01*
X146507768Y-90193318D01*
X146501643Y-90192674D01*
X146501642Y-90192674D01*
X146317204Y-90173289D01*
X146317202Y-90173289D01*
X146311075Y-90172645D01*
X146228576Y-90180153D01*
X146120251Y-90190011D01*
X146120248Y-90190012D01*
X146114112Y-90190570D01*
X146108206Y-90192308D01*
X146108202Y-90192309D01*
X146003076Y-90223249D01*
X145924381Y-90246410D01*
X145918923Y-90249263D01*
X145918919Y-90249265D01*
X145823135Y-90299340D01*
X145749110Y-90338040D01*
X145744310Y-90341900D01*
X145739153Y-90345274D01*
X145737769Y-90343158D01*
X145682365Y-90366027D01*
X145612512Y-90353334D01*
X145602898Y-90347709D01*
X145600675Y-90345870D01*
X145426701Y-90251802D01*
X145237768Y-90193318D01*
X145231643Y-90192674D01*
X145231642Y-90192674D01*
X145047204Y-90173289D01*
X145047202Y-90173289D01*
X145041075Y-90172645D01*
X144958576Y-90180153D01*
X144850251Y-90190011D01*
X144850248Y-90190012D01*
X144844112Y-90190570D01*
X144838206Y-90192308D01*
X144838202Y-90192309D01*
X144733076Y-90223249D01*
X144654381Y-90246410D01*
X144648923Y-90249263D01*
X144648919Y-90249265D01*
X144558147Y-90296720D01*
X144479110Y-90338040D01*
X144324975Y-90461968D01*
X144197846Y-90613474D01*
X144194879Y-90618872D01*
X144194875Y-90618877D01*
X144150656Y-90699313D01*
X144102567Y-90786787D01*
X144100706Y-90792654D01*
X144100705Y-90792656D01*
X144088957Y-90829690D01*
X144042765Y-90975306D01*
X144020719Y-91171851D01*
X121158000Y-91171851D01*
X121158000Y-88775774D01*
X172393102Y-88775774D01*
X172401751Y-89006158D01*
X172449093Y-89231791D01*
X172533776Y-89446221D01*
X172653377Y-89643317D01*
X172656874Y-89647347D01*
X172743438Y-89747103D01*
X172804477Y-89817445D01*
X172808608Y-89820832D01*
X172978627Y-89960240D01*
X172978633Y-89960244D01*
X172982755Y-89963624D01*
X172987391Y-89966263D01*
X172987394Y-89966265D01*
X173032518Y-89991951D01*
X173183114Y-90077675D01*
X173399825Y-90156337D01*
X173405074Y-90157286D01*
X173405077Y-90157287D01*
X173622608Y-90196623D01*
X173622615Y-90196624D01*
X173626692Y-90197361D01*
X173644414Y-90198197D01*
X173649356Y-90198430D01*
X173649363Y-90198430D01*
X173650844Y-90198500D01*
X174062890Y-90198500D01*
X174135853Y-90192309D01*
X174229409Y-90184371D01*
X174229413Y-90184370D01*
X174234720Y-90183920D01*
X174239875Y-90182582D01*
X174239881Y-90182581D01*
X174452703Y-90127343D01*
X174452707Y-90127342D01*
X174457872Y-90126001D01*
X174462738Y-90123809D01*
X174462741Y-90123808D01*
X174663202Y-90033507D01*
X174668075Y-90031312D01*
X174859319Y-89902559D01*
X175026135Y-89743424D01*
X175163754Y-89558458D01*
X175268240Y-89352949D01*
X175304321Y-89236752D01*
X175335024Y-89137871D01*
X175336607Y-89132773D01*
X175337308Y-89127484D01*
X175366198Y-88909511D01*
X175366198Y-88909506D01*
X175366898Y-88904226D01*
X175358249Y-88673842D01*
X175310907Y-88448209D01*
X175226224Y-88233779D01*
X175106623Y-88036683D01*
X175019755Y-87936576D01*
X174959023Y-87866588D01*
X174959021Y-87866586D01*
X174955523Y-87862555D01*
X174913970Y-87828484D01*
X174781373Y-87719760D01*
X174781367Y-87719756D01*
X174777245Y-87716376D01*
X174745750Y-87698448D01*
X174696445Y-87647368D01*
X174682583Y-87577738D01*
X174708566Y-87511667D01*
X174737716Y-87484427D01*
X174773642Y-87460240D01*
X174859319Y-87402559D01*
X175026135Y-87243424D01*
X175163754Y-87058458D01*
X175268240Y-86852949D01*
X175304321Y-86736752D01*
X175335024Y-86637871D01*
X175336607Y-86632773D01*
X175345979Y-86562064D01*
X175366198Y-86409511D01*
X175366198Y-86409506D01*
X175366898Y-86404226D01*
X175358249Y-86173842D01*
X175310907Y-85948209D01*
X175256283Y-85809892D01*
X175228185Y-85738744D01*
X175228184Y-85738742D01*
X175226224Y-85733779D01*
X175174894Y-85649189D01*
X175109390Y-85541243D01*
X175106623Y-85536683D01*
X175074687Y-85499880D01*
X174959023Y-85366588D01*
X174959021Y-85366586D01*
X174955523Y-85362555D01*
X174862249Y-85286075D01*
X174781373Y-85219760D01*
X174781367Y-85219756D01*
X174777245Y-85216376D01*
X174745750Y-85198448D01*
X174696445Y-85147368D01*
X174682583Y-85077738D01*
X174708566Y-85011667D01*
X174737716Y-84984427D01*
X174808499Y-84936773D01*
X174859319Y-84902559D01*
X174866736Y-84895484D01*
X175003680Y-84764845D01*
X175026135Y-84743424D01*
X175163754Y-84558458D01*
X175268240Y-84352949D01*
X175302502Y-84242610D01*
X175335024Y-84137871D01*
X175336607Y-84132773D01*
X175337308Y-84127484D01*
X175366198Y-83909511D01*
X175366198Y-83909506D01*
X175366898Y-83904226D01*
X175366415Y-83891346D01*
X175358449Y-83679173D01*
X175358249Y-83673842D01*
X175310907Y-83448209D01*
X175301879Y-83425348D01*
X175228185Y-83238744D01*
X175228184Y-83238742D01*
X175226224Y-83233779D01*
X175106623Y-83036683D01*
X175019755Y-82936576D01*
X174959023Y-82866588D01*
X174959021Y-82866586D01*
X174955523Y-82862555D01*
X174919880Y-82833330D01*
X174879886Y-82774671D01*
X174877954Y-82703701D01*
X174914698Y-82642952D01*
X174933468Y-82628752D01*
X175073120Y-82542332D01*
X175079348Y-82538478D01*
X175204305Y-82413303D01*
X175240955Y-82353846D01*
X175293275Y-82268968D01*
X175293276Y-82268966D01*
X175297115Y-82262738D01*
X175352797Y-82094861D01*
X175354275Y-82080441D01*
X175363172Y-81993598D01*
X175363500Y-81990400D01*
X175363500Y-80689600D01*
X175363163Y-80686350D01*
X175353238Y-80590692D01*
X175353237Y-80590688D01*
X175352526Y-80583834D01*
X175349635Y-80575167D01*
X175298868Y-80423002D01*
X175296550Y-80416054D01*
X175203478Y-80265652D01*
X175078303Y-80140695D01*
X175050161Y-80123348D01*
X174933968Y-80051725D01*
X174933966Y-80051724D01*
X174927738Y-80047885D01*
X174767254Y-79994655D01*
X174766389Y-79994368D01*
X174766387Y-79994368D01*
X174759861Y-79992203D01*
X174753025Y-79991503D01*
X174753022Y-79991502D01*
X174705117Y-79986594D01*
X174655400Y-79981500D01*
X173104600Y-79981500D01*
X173101354Y-79981837D01*
X173101350Y-79981837D01*
X173005692Y-79991762D01*
X173005688Y-79991763D01*
X172998834Y-79992474D01*
X172992298Y-79994655D01*
X172992296Y-79994655D01*
X172860194Y-80038728D01*
X172831054Y-80048450D01*
X172680652Y-80141522D01*
X172555695Y-80266697D01*
X172551855Y-80272927D01*
X172551854Y-80272928D01*
X172478623Y-80391731D01*
X172462885Y-80417262D01*
X172443438Y-80475892D01*
X172410511Y-80575167D01*
X172407203Y-80585139D01*
X172396500Y-80689600D01*
X172396500Y-81990400D01*
X172396837Y-81993646D01*
X172396837Y-81993650D01*
X172406018Y-82082132D01*
X172407474Y-82096166D01*
X172463450Y-82263946D01*
X172556522Y-82414348D01*
X172681697Y-82539305D01*
X172827340Y-82629081D01*
X172874832Y-82681852D01*
X172886256Y-82751924D01*
X172857982Y-82817048D01*
X172848195Y-82827510D01*
X172733865Y-82936576D01*
X172596246Y-83121542D01*
X172593830Y-83126293D01*
X172593828Y-83126297D01*
X172544003Y-83224297D01*
X172491760Y-83327051D01*
X172490178Y-83332145D01*
X172490177Y-83332148D01*
X172428115Y-83532020D01*
X172423393Y-83547227D01*
X172422692Y-83552516D01*
X172407304Y-83668623D01*
X172393102Y-83775774D01*
X172393302Y-83781103D01*
X172393302Y-83781105D01*
X172395354Y-83835770D01*
X172401751Y-84006158D01*
X172449093Y-84231791D01*
X172451051Y-84236750D01*
X172451052Y-84236752D01*
X172520614Y-84412892D01*
X172533776Y-84446221D01*
X172653377Y-84643317D01*
X172656874Y-84647347D01*
X172770608Y-84778414D01*
X172804477Y-84817445D01*
X172808608Y-84820832D01*
X172978627Y-84960240D01*
X172978633Y-84960244D01*
X172982755Y-84963624D01*
X173014250Y-84981552D01*
X173063555Y-85032632D01*
X173077417Y-85102262D01*
X173051434Y-85168333D01*
X173022284Y-85195573D01*
X172900681Y-85277441D01*
X172896824Y-85281120D01*
X172896822Y-85281122D01*
X172885380Y-85292037D01*
X172733865Y-85436576D01*
X172596246Y-85621542D01*
X172593830Y-85626293D01*
X172593828Y-85626297D01*
X172578805Y-85655846D01*
X172491760Y-85827051D01*
X172490178Y-85832145D01*
X172490177Y-85832148D01*
X172450059Y-85961349D01*
X172423393Y-86047227D01*
X172422692Y-86052516D01*
X172407277Y-86168825D01*
X172393102Y-86275774D01*
X172401751Y-86506158D01*
X172449093Y-86731791D01*
X172533776Y-86946221D01*
X172653377Y-87143317D01*
X172656874Y-87147347D01*
X172743438Y-87247103D01*
X172804477Y-87317445D01*
X172808608Y-87320832D01*
X172978627Y-87460240D01*
X172978633Y-87460244D01*
X172982755Y-87463624D01*
X173014250Y-87481552D01*
X173063555Y-87532632D01*
X173077417Y-87602262D01*
X173051434Y-87668333D01*
X173022284Y-87695573D01*
X172900681Y-87777441D01*
X172733865Y-87936576D01*
X172596246Y-88121542D01*
X172491760Y-88327051D01*
X172490178Y-88332145D01*
X172490177Y-88332148D01*
X172428115Y-88532020D01*
X172423393Y-88547227D01*
X172422692Y-88552516D01*
X172407304Y-88668623D01*
X172393102Y-88775774D01*
X121158000Y-88775774D01*
X121158000Y-85968343D01*
X152779775Y-85968343D01*
X152796381Y-86137699D01*
X152850094Y-86299167D01*
X152853741Y-86305189D01*
X152853742Y-86305191D01*
X152916921Y-86409511D01*
X152938246Y-86444723D01*
X153056455Y-86567132D01*
X153062351Y-86570990D01*
X153164556Y-86637871D01*
X153198846Y-86660310D01*
X153205450Y-86662766D01*
X153205452Y-86662767D01*
X153241844Y-86676301D01*
X153358341Y-86719626D01*
X153527015Y-86742132D01*
X153534026Y-86741494D01*
X153534030Y-86741494D01*
X153689462Y-86727348D01*
X153696483Y-86726709D01*
X153703185Y-86724531D01*
X153703187Y-86724531D01*
X153851623Y-86676301D01*
X153851626Y-86676300D01*
X153858322Y-86674124D01*
X154004490Y-86586990D01*
X154009584Y-86582139D01*
X154009588Y-86582136D01*
X154094970Y-86500827D01*
X154127721Y-86469639D01*
X154221891Y-86327902D01*
X154282319Y-86168825D01*
X154306001Y-86000313D01*
X154306299Y-85979000D01*
X154287331Y-85809892D01*
X154231368Y-85649189D01*
X154225383Y-85639610D01*
X154163915Y-85541243D01*
X154141192Y-85504879D01*
X154021286Y-85384132D01*
X154005039Y-85373821D01*
X153932097Y-85327531D01*
X153877608Y-85292951D01*
X153717300Y-85235868D01*
X153548329Y-85215720D01*
X153541326Y-85216456D01*
X153541325Y-85216456D01*
X153386101Y-85232770D01*
X153386097Y-85232771D01*
X153379093Y-85233507D01*
X153372422Y-85235778D01*
X153224673Y-85286075D01*
X153224670Y-85286076D01*
X153218003Y-85288346D01*
X153212005Y-85292036D01*
X153212003Y-85292037D01*
X153079065Y-85373821D01*
X153079063Y-85373823D01*
X153073066Y-85377512D01*
X152951486Y-85496573D01*
X152947675Y-85502487D01*
X152947673Y-85502489D01*
X152922698Y-85541243D01*
X152859304Y-85639610D01*
X152801103Y-85799516D01*
X152779775Y-85968343D01*
X121158000Y-85968343D01*
X121158000Y-84571343D01*
X124331775Y-84571343D01*
X124348381Y-84740699D01*
X124402094Y-84902167D01*
X124405741Y-84908189D01*
X124405742Y-84908191D01*
X124481107Y-85032632D01*
X124490246Y-85047723D01*
X124608455Y-85170132D01*
X124750846Y-85263310D01*
X124757450Y-85265766D01*
X124757452Y-85265767D01*
X124828090Y-85292037D01*
X124910341Y-85322626D01*
X125079015Y-85345132D01*
X125086026Y-85344494D01*
X125086030Y-85344494D01*
X125241462Y-85330348D01*
X125248483Y-85329709D01*
X125255185Y-85327531D01*
X125255187Y-85327531D01*
X125403623Y-85279301D01*
X125403626Y-85279300D01*
X125410322Y-85277124D01*
X125556490Y-85189990D01*
X125561584Y-85185139D01*
X125561588Y-85185136D01*
X125628833Y-85121099D01*
X125679721Y-85072639D01*
X125773891Y-84930902D01*
X125834319Y-84771825D01*
X125858001Y-84603313D01*
X125858299Y-84582000D01*
X125839331Y-84412892D01*
X125783368Y-84252189D01*
X125777383Y-84242610D01*
X125711933Y-84137871D01*
X125693192Y-84107879D01*
X125573286Y-83987132D01*
X125557039Y-83976821D01*
X125518406Y-83952304D01*
X125429608Y-83895951D01*
X125269300Y-83838868D01*
X125100329Y-83818720D01*
X125093326Y-83819456D01*
X125093325Y-83819456D01*
X124938101Y-83835770D01*
X124938097Y-83835771D01*
X124931093Y-83836507D01*
X124924422Y-83838778D01*
X124776673Y-83889075D01*
X124776670Y-83889076D01*
X124770003Y-83891346D01*
X124764005Y-83895036D01*
X124764003Y-83895037D01*
X124631065Y-83976821D01*
X124631063Y-83976823D01*
X124625066Y-83980512D01*
X124503486Y-84099573D01*
X124411304Y-84242610D01*
X124353103Y-84402516D01*
X124331775Y-84571343D01*
X121158000Y-84571343D01*
X121158000Y-82666343D01*
X135634775Y-82666343D01*
X135651381Y-82835699D01*
X135705094Y-82997167D01*
X135708741Y-83003189D01*
X135708742Y-83003191D01*
X135729026Y-83036683D01*
X135793246Y-83142723D01*
X135911455Y-83265132D01*
X136053846Y-83358310D01*
X136060450Y-83360766D01*
X136060452Y-83360767D01*
X136096844Y-83374301D01*
X136213341Y-83417626D01*
X136382015Y-83440132D01*
X136389026Y-83439494D01*
X136389030Y-83439494D01*
X136544462Y-83425348D01*
X136551483Y-83424709D01*
X136558185Y-83422531D01*
X136558187Y-83422531D01*
X136706623Y-83374301D01*
X136706626Y-83374300D01*
X136713322Y-83372124D01*
X136859490Y-83284990D01*
X136864584Y-83280139D01*
X136864588Y-83280136D01*
X136931833Y-83216099D01*
X136982721Y-83167639D01*
X137076891Y-83025902D01*
X137137319Y-82866825D01*
X137161001Y-82698313D01*
X137161152Y-82687526D01*
X137161244Y-82680961D01*
X137161244Y-82680955D01*
X137161299Y-82677000D01*
X137142331Y-82507892D01*
X137086368Y-82347189D01*
X137080383Y-82337610D01*
X137034351Y-82263946D01*
X136996192Y-82202879D01*
X136876286Y-82082132D01*
X136860039Y-82071821D01*
X136821406Y-82047304D01*
X136732608Y-81990951D01*
X136572300Y-81933868D01*
X136403329Y-81913720D01*
X136396326Y-81914456D01*
X136396325Y-81914456D01*
X136241101Y-81930770D01*
X136241097Y-81930771D01*
X136234093Y-81931507D01*
X136227422Y-81933778D01*
X136079673Y-81984075D01*
X136079670Y-81984076D01*
X136073003Y-81986346D01*
X136067005Y-81990036D01*
X136067003Y-81990037D01*
X135934065Y-82071821D01*
X135934063Y-82071823D01*
X135928066Y-82075512D01*
X135806486Y-82194573D01*
X135802675Y-82200487D01*
X135802673Y-82200489D01*
X135718121Y-82331687D01*
X135714304Y-82337610D01*
X135656103Y-82497516D01*
X135634775Y-82666343D01*
X121158000Y-82666343D01*
X121158000Y-80634343D01*
X126871775Y-80634343D01*
X126888381Y-80803699D01*
X126942094Y-80965167D01*
X126945741Y-80971189D01*
X126945742Y-80971191D01*
X126959497Y-80993902D01*
X127030246Y-81110723D01*
X127148455Y-81233132D01*
X127290846Y-81326310D01*
X127297450Y-81328766D01*
X127297452Y-81328767D01*
X127333844Y-81342301D01*
X127450341Y-81385626D01*
X127619015Y-81408132D01*
X127626026Y-81407494D01*
X127626030Y-81407494D01*
X127781462Y-81393348D01*
X127788483Y-81392709D01*
X127795185Y-81390531D01*
X127795187Y-81390531D01*
X127943623Y-81342301D01*
X127943626Y-81342300D01*
X127950322Y-81340124D01*
X128096490Y-81252990D01*
X128101584Y-81248139D01*
X128101588Y-81248136D01*
X128174895Y-81178326D01*
X128219721Y-81135639D01*
X128313891Y-80993902D01*
X128374319Y-80834825D01*
X128385137Y-80757851D01*
X138051719Y-80757851D01*
X138068268Y-80954934D01*
X138081869Y-81002365D01*
X138111213Y-81104700D01*
X138122783Y-81145050D01*
X138213187Y-81320956D01*
X138336035Y-81475953D01*
X138486650Y-81604136D01*
X138659294Y-81700624D01*
X138847392Y-81761740D01*
X139043777Y-81785158D01*
X139049912Y-81784686D01*
X139049914Y-81784686D01*
X139234830Y-81770457D01*
X139234834Y-81770456D01*
X139240972Y-81769984D01*
X139431463Y-81716798D01*
X139436967Y-81714018D01*
X139436969Y-81714017D01*
X139602495Y-81630404D01*
X139602497Y-81630403D01*
X139607996Y-81627625D01*
X139763847Y-81505861D01*
X139893078Y-81356145D01*
X139990769Y-81184179D01*
X140053197Y-80996513D01*
X140077985Y-80800295D01*
X140078380Y-80772000D01*
X140059080Y-80575167D01*
X140001916Y-80385831D01*
X139909066Y-80211204D01*
X139835115Y-80120531D01*
X139787960Y-80062713D01*
X139787957Y-80062710D01*
X139784065Y-80057938D01*
X139776555Y-80051725D01*
X139636425Y-79935799D01*
X139636421Y-79935797D01*
X139631675Y-79931870D01*
X139457701Y-79837802D01*
X139268768Y-79779318D01*
X139262643Y-79778674D01*
X139262642Y-79778674D01*
X139078204Y-79759289D01*
X139078202Y-79759289D01*
X139072075Y-79758645D01*
X138989576Y-79766153D01*
X138881251Y-79776011D01*
X138881248Y-79776012D01*
X138875112Y-79776570D01*
X138869206Y-79778308D01*
X138869202Y-79778309D01*
X138764076Y-79809249D01*
X138685381Y-79832410D01*
X138679923Y-79835263D01*
X138679919Y-79835265D01*
X138659793Y-79845787D01*
X138510110Y-79924040D01*
X138355975Y-80047968D01*
X138352011Y-80052692D01*
X138343602Y-80062713D01*
X138228846Y-80199474D01*
X138225879Y-80204872D01*
X138225875Y-80204877D01*
X138161572Y-80321846D01*
X138133567Y-80372787D01*
X138131706Y-80378654D01*
X138131705Y-80378656D01*
X138102971Y-80469238D01*
X138073765Y-80561306D01*
X138051719Y-80757851D01*
X128385137Y-80757851D01*
X128398001Y-80666313D01*
X128398299Y-80645000D01*
X128379331Y-80475892D01*
X128323368Y-80315189D01*
X128317383Y-80305610D01*
X128258390Y-80211204D01*
X128233192Y-80170879D01*
X128204040Y-80141522D01*
X128175264Y-80112545D01*
X128113286Y-80050132D01*
X128103788Y-80044104D01*
X128025416Y-79994368D01*
X127969608Y-79958951D01*
X127809300Y-79901868D01*
X127640329Y-79881720D01*
X127633326Y-79882456D01*
X127633325Y-79882456D01*
X127478101Y-79898770D01*
X127478097Y-79898771D01*
X127471093Y-79899507D01*
X127464422Y-79901778D01*
X127316673Y-79952075D01*
X127316670Y-79952076D01*
X127310003Y-79954346D01*
X127304005Y-79958036D01*
X127304003Y-79958037D01*
X127171065Y-80039821D01*
X127171063Y-80039823D01*
X127165066Y-80043512D01*
X127156086Y-80052306D01*
X127069096Y-80137494D01*
X127043486Y-80162573D01*
X127039675Y-80168487D01*
X127039673Y-80168489D01*
X126980389Y-80260479D01*
X126951304Y-80305610D01*
X126924086Y-80380392D01*
X126908138Y-80424209D01*
X126893103Y-80465516D01*
X126871775Y-80634343D01*
X121158000Y-80634343D01*
X121158000Y-79364343D01*
X122553775Y-79364343D01*
X122570381Y-79533699D01*
X122624094Y-79695167D01*
X122627741Y-79701189D01*
X122627742Y-79701191D01*
X122706158Y-79830670D01*
X122712246Y-79840723D01*
X122830455Y-79963132D01*
X122836351Y-79966990D01*
X122960835Y-80048450D01*
X122972846Y-80056310D01*
X122979450Y-80058766D01*
X122979452Y-80058767D01*
X123015844Y-80072301D01*
X123132341Y-80115626D01*
X123301015Y-80138132D01*
X123308026Y-80137494D01*
X123308030Y-80137494D01*
X123463462Y-80123348D01*
X123470483Y-80122709D01*
X123477185Y-80120531D01*
X123477187Y-80120531D01*
X123625623Y-80072301D01*
X123625626Y-80072300D01*
X123632322Y-80070124D01*
X123778490Y-79982990D01*
X123783584Y-79978139D01*
X123783588Y-79978136D01*
X123884834Y-79881720D01*
X123901721Y-79865639D01*
X123921427Y-79835980D01*
X123959073Y-79779318D01*
X123995891Y-79723902D01*
X124056319Y-79564825D01*
X124080001Y-79396313D01*
X124080299Y-79375000D01*
X124061331Y-79205892D01*
X124005368Y-79045189D01*
X123999383Y-79035610D01*
X123977420Y-79000464D01*
X123915192Y-78900879D01*
X123795286Y-78780132D01*
X123779039Y-78769821D01*
X123740406Y-78745304D01*
X123651608Y-78688951D01*
X123491300Y-78631868D01*
X123322329Y-78611720D01*
X123315326Y-78612456D01*
X123315325Y-78612456D01*
X123160101Y-78628770D01*
X123160097Y-78628771D01*
X123153093Y-78629507D01*
X123146422Y-78631778D01*
X122998673Y-78682075D01*
X122998670Y-78682076D01*
X122992003Y-78684346D01*
X122986005Y-78688036D01*
X122986003Y-78688037D01*
X122853065Y-78769821D01*
X122853063Y-78769823D01*
X122847066Y-78773512D01*
X122725486Y-78892573D01*
X122633304Y-79035610D01*
X122575103Y-79195516D01*
X122553775Y-79364343D01*
X121158000Y-79364343D01*
X121158000Y-74427703D01*
X122985743Y-74427703D01*
X122986302Y-74431947D01*
X122986302Y-74431951D01*
X123002810Y-74557340D01*
X123023268Y-74712734D01*
X123024401Y-74716874D01*
X123024401Y-74716876D01*
X123028035Y-74730159D01*
X123099129Y-74990036D01*
X123100813Y-74993984D01*
X123189270Y-75201366D01*
X123211923Y-75254476D01*
X123359561Y-75501161D01*
X123539313Y-75725528D01*
X123613147Y-75795594D01*
X123703464Y-75881301D01*
X123747851Y-75923423D01*
X123981317Y-76091186D01*
X123985112Y-76093195D01*
X123985113Y-76093196D01*
X124006869Y-76104715D01*
X124235392Y-76225712D01*
X124505373Y-76324511D01*
X124786264Y-76385755D01*
X124814841Y-76388004D01*
X125009282Y-76403307D01*
X125009291Y-76403307D01*
X125011739Y-76403500D01*
X125167271Y-76403500D01*
X125169407Y-76403354D01*
X125169418Y-76403354D01*
X125377548Y-76389165D01*
X125377554Y-76389164D01*
X125381825Y-76388873D01*
X125386020Y-76388004D01*
X125386022Y-76388004D01*
X125522584Y-76359723D01*
X125663342Y-76330574D01*
X125934343Y-76234607D01*
X126189812Y-76102750D01*
X126193313Y-76100289D01*
X126193317Y-76100287D01*
X126411234Y-75947132D01*
X126425023Y-75937441D01*
X126506797Y-75861452D01*
X126632479Y-75744661D01*
X126632481Y-75744658D01*
X126635622Y-75741740D01*
X126817713Y-75519268D01*
X126967927Y-75274142D01*
X126996425Y-75209223D01*
X127012175Y-75173343D01*
X143254775Y-75173343D01*
X143271381Y-75342699D01*
X143325094Y-75504167D01*
X143328741Y-75510189D01*
X143328742Y-75510191D01*
X143382741Y-75599353D01*
X143413246Y-75649723D01*
X143531455Y-75772132D01*
X143673846Y-75865310D01*
X143680450Y-75867766D01*
X143680452Y-75867767D01*
X143716844Y-75881301D01*
X143833341Y-75924626D01*
X144002015Y-75947132D01*
X144009026Y-75946494D01*
X144009030Y-75946494D01*
X144164462Y-75932348D01*
X144171483Y-75931709D01*
X144178185Y-75929531D01*
X144178187Y-75929531D01*
X144326623Y-75881301D01*
X144326626Y-75881300D01*
X144333322Y-75879124D01*
X144479490Y-75791990D01*
X144484584Y-75787139D01*
X144484588Y-75787136D01*
X144566593Y-75709043D01*
X144629718Y-75676551D01*
X144700389Y-75683344D01*
X144744122Y-75712762D01*
X144801455Y-75772132D01*
X144943846Y-75865310D01*
X144950450Y-75867766D01*
X144950452Y-75867767D01*
X144986844Y-75881301D01*
X145103341Y-75924626D01*
X145272015Y-75947132D01*
X145279026Y-75946494D01*
X145279030Y-75946494D01*
X145434462Y-75932348D01*
X145441483Y-75931709D01*
X145448185Y-75929531D01*
X145448187Y-75929531D01*
X145596623Y-75881301D01*
X145596626Y-75881300D01*
X145603322Y-75879124D01*
X145749490Y-75791990D01*
X145754584Y-75787139D01*
X145754588Y-75787136D01*
X145836593Y-75709043D01*
X145899718Y-75676551D01*
X145970389Y-75683344D01*
X146014122Y-75712762D01*
X146071455Y-75772132D01*
X146213846Y-75865310D01*
X146220450Y-75867766D01*
X146220452Y-75867767D01*
X146256844Y-75881301D01*
X146373341Y-75924626D01*
X146542015Y-75947132D01*
X146549026Y-75946494D01*
X146549030Y-75946494D01*
X146704462Y-75932348D01*
X146711483Y-75931709D01*
X146718185Y-75929531D01*
X146718187Y-75929531D01*
X146866623Y-75881301D01*
X146866626Y-75881300D01*
X146873322Y-75879124D01*
X147019490Y-75791990D01*
X147024584Y-75787139D01*
X147024588Y-75787136D01*
X147106593Y-75709043D01*
X147142721Y-75674639D01*
X147236891Y-75532902D01*
X147297319Y-75373825D01*
X147321001Y-75205313D01*
X147321299Y-75184000D01*
X147302331Y-75014892D01*
X147297193Y-75000136D01*
X147248686Y-74860846D01*
X147246368Y-74854189D01*
X147240383Y-74844610D01*
X147179253Y-74746784D01*
X147156192Y-74709879D01*
X147132036Y-74685553D01*
X147041248Y-74594129D01*
X147036286Y-74589132D01*
X147022179Y-74580179D01*
X146960521Y-74541050D01*
X146892608Y-74497951D01*
X146732300Y-74440868D01*
X146563329Y-74420720D01*
X146556326Y-74421456D01*
X146556325Y-74421456D01*
X146401101Y-74437770D01*
X146401097Y-74437771D01*
X146394093Y-74438507D01*
X146387422Y-74440778D01*
X146239673Y-74491075D01*
X146239670Y-74491076D01*
X146233003Y-74493346D01*
X146227005Y-74497036D01*
X146227003Y-74497037D01*
X146094065Y-74578821D01*
X146094063Y-74578823D01*
X146088066Y-74582512D01*
X146010993Y-74657988D01*
X145948331Y-74691358D01*
X145877572Y-74685553D01*
X145833431Y-74656748D01*
X145771248Y-74594129D01*
X145766286Y-74589132D01*
X145752179Y-74580179D01*
X145690521Y-74541050D01*
X145622608Y-74497951D01*
X145462300Y-74440868D01*
X145293329Y-74420720D01*
X145286326Y-74421456D01*
X145286325Y-74421456D01*
X145131101Y-74437770D01*
X145131097Y-74437771D01*
X145124093Y-74438507D01*
X145117422Y-74440778D01*
X144969673Y-74491075D01*
X144969670Y-74491076D01*
X144963003Y-74493346D01*
X144957005Y-74497036D01*
X144957003Y-74497037D01*
X144824065Y-74578821D01*
X144824063Y-74578823D01*
X144818066Y-74582512D01*
X144740993Y-74657988D01*
X144678331Y-74691358D01*
X144607572Y-74685553D01*
X144563431Y-74656748D01*
X144501248Y-74594129D01*
X144496286Y-74589132D01*
X144482179Y-74580179D01*
X144420521Y-74541050D01*
X144352608Y-74497951D01*
X144192300Y-74440868D01*
X144023329Y-74420720D01*
X144016326Y-74421456D01*
X144016325Y-74421456D01*
X143861101Y-74437770D01*
X143861097Y-74437771D01*
X143854093Y-74438507D01*
X143847422Y-74440778D01*
X143699673Y-74491075D01*
X143699670Y-74491076D01*
X143693003Y-74493346D01*
X143687005Y-74497036D01*
X143687003Y-74497037D01*
X143554065Y-74578821D01*
X143554063Y-74578823D01*
X143548066Y-74582512D01*
X143426486Y-74701573D01*
X143422675Y-74707487D01*
X143422673Y-74707489D01*
X143338121Y-74838687D01*
X143334304Y-74844610D01*
X143297721Y-74945122D01*
X143279151Y-74996143D01*
X143276103Y-75004516D01*
X143254775Y-75173343D01*
X127012175Y-75173343D01*
X127081757Y-75014830D01*
X127083483Y-75010898D01*
X127087187Y-74997897D01*
X127161068Y-74738534D01*
X127162244Y-74734406D01*
X127202751Y-74449784D01*
X127202786Y-74443233D01*
X127204235Y-74166583D01*
X127204235Y-74166576D01*
X127204257Y-74162297D01*
X127203145Y-74153851D01*
X165991719Y-74153851D01*
X166008268Y-74350934D01*
X166009967Y-74356858D01*
X166050425Y-74497951D01*
X166062783Y-74541050D01*
X166065602Y-74546535D01*
X166148322Y-74707489D01*
X166153187Y-74716956D01*
X166276035Y-74871953D01*
X166280728Y-74875947D01*
X166280729Y-74875948D01*
X166414783Y-74990036D01*
X166426650Y-75000136D01*
X166599294Y-75096624D01*
X166787392Y-75157740D01*
X166983777Y-75181158D01*
X166989912Y-75180686D01*
X166989914Y-75180686D01*
X167174830Y-75166457D01*
X167174834Y-75166456D01*
X167180972Y-75165984D01*
X167371463Y-75112798D01*
X167376967Y-75110018D01*
X167376969Y-75110017D01*
X167542495Y-75026404D01*
X167542497Y-75026403D01*
X167547996Y-75023625D01*
X167703847Y-74901861D01*
X167833078Y-74752145D01*
X167930769Y-74580179D01*
X167981491Y-74427703D01*
X171245743Y-74427703D01*
X171246302Y-74431947D01*
X171246302Y-74431951D01*
X171262810Y-74557340D01*
X171283268Y-74712734D01*
X171284401Y-74716874D01*
X171284401Y-74716876D01*
X171288035Y-74730159D01*
X171359129Y-74990036D01*
X171360813Y-74993984D01*
X171449270Y-75201366D01*
X171471923Y-75254476D01*
X171619561Y-75501161D01*
X171799313Y-75725528D01*
X171873147Y-75795594D01*
X171963464Y-75881301D01*
X172007851Y-75923423D01*
X172241317Y-76091186D01*
X172245112Y-76093195D01*
X172245113Y-76093196D01*
X172266869Y-76104715D01*
X172495392Y-76225712D01*
X172765373Y-76324511D01*
X173046264Y-76385755D01*
X173074841Y-76388004D01*
X173269282Y-76403307D01*
X173269291Y-76403307D01*
X173271739Y-76403500D01*
X173427271Y-76403500D01*
X173429407Y-76403354D01*
X173429418Y-76403354D01*
X173637548Y-76389165D01*
X173637554Y-76389164D01*
X173641825Y-76388873D01*
X173646020Y-76388004D01*
X173646022Y-76388004D01*
X173782584Y-76359723D01*
X173923342Y-76330574D01*
X174194343Y-76234607D01*
X174449812Y-76102750D01*
X174453313Y-76100289D01*
X174453317Y-76100287D01*
X174671234Y-75947132D01*
X174685023Y-75937441D01*
X174766797Y-75861452D01*
X174892479Y-75744661D01*
X174892481Y-75744658D01*
X174895622Y-75741740D01*
X175077713Y-75519268D01*
X175227927Y-75274142D01*
X175256425Y-75209223D01*
X175341757Y-75014830D01*
X175343483Y-75010898D01*
X175347187Y-74997897D01*
X175421068Y-74738534D01*
X175422244Y-74734406D01*
X175462751Y-74449784D01*
X175462786Y-74443233D01*
X175464235Y-74166583D01*
X175464235Y-74166576D01*
X175464257Y-74162297D01*
X175426732Y-73877266D01*
X175350871Y-73599964D01*
X175284333Y-73443968D01*
X175239763Y-73339476D01*
X175239761Y-73339472D01*
X175238077Y-73335524D01*
X175140551Y-73172570D01*
X175092643Y-73092521D01*
X175092640Y-73092517D01*
X175090439Y-73088839D01*
X174910687Y-72864472D01*
X174702149Y-72666577D01*
X174468683Y-72498814D01*
X174446843Y-72487250D01*
X174423654Y-72474972D01*
X174214608Y-72364288D01*
X173944627Y-72265489D01*
X173663736Y-72204245D01*
X173632685Y-72201801D01*
X173440718Y-72186693D01*
X173440709Y-72186693D01*
X173438261Y-72186500D01*
X173282729Y-72186500D01*
X173280593Y-72186646D01*
X173280582Y-72186646D01*
X173072452Y-72200835D01*
X173072446Y-72200836D01*
X173068175Y-72201127D01*
X173063980Y-72201996D01*
X173063978Y-72201996D01*
X172927416Y-72230277D01*
X172786658Y-72259426D01*
X172515657Y-72355393D01*
X172260188Y-72487250D01*
X172256687Y-72489711D01*
X172256683Y-72489713D01*
X172246594Y-72496804D01*
X172024977Y-72652559D01*
X171814378Y-72848260D01*
X171632287Y-73070732D01*
X171482073Y-73315858D01*
X171366517Y-73579102D01*
X171287756Y-73855594D01*
X171247249Y-74140216D01*
X171247227Y-74144505D01*
X171247226Y-74144512D01*
X171245775Y-74421554D01*
X171245743Y-74427703D01*
X167981491Y-74427703D01*
X167993197Y-74392513D01*
X168017985Y-74196295D01*
X168018380Y-74168000D01*
X167999080Y-73971167D01*
X167941916Y-73781831D01*
X167849066Y-73607204D01*
X167778709Y-73520938D01*
X167727960Y-73458713D01*
X167727957Y-73458710D01*
X167724065Y-73453938D01*
X167717724Y-73448692D01*
X167576425Y-73331799D01*
X167576421Y-73331797D01*
X167571675Y-73327870D01*
X167397701Y-73233802D01*
X167208768Y-73175318D01*
X167202643Y-73174674D01*
X167202642Y-73174674D01*
X167018204Y-73155289D01*
X167018202Y-73155289D01*
X167012075Y-73154645D01*
X166929576Y-73162153D01*
X166821251Y-73172011D01*
X166821248Y-73172012D01*
X166815112Y-73172570D01*
X166809206Y-73174308D01*
X166809202Y-73174309D01*
X166704076Y-73205249D01*
X166625381Y-73228410D01*
X166619923Y-73231263D01*
X166619919Y-73231265D01*
X166529147Y-73278720D01*
X166450110Y-73320040D01*
X166295975Y-73443968D01*
X166168846Y-73595474D01*
X166165879Y-73600872D01*
X166165875Y-73600877D01*
X166164102Y-73604103D01*
X166073567Y-73768787D01*
X166071706Y-73774654D01*
X166071705Y-73774656D01*
X166046030Y-73855594D01*
X166013765Y-73957306D01*
X165991719Y-74153851D01*
X127203145Y-74153851D01*
X127166732Y-73877266D01*
X127090871Y-73599964D01*
X127024333Y-73443968D01*
X126979763Y-73339476D01*
X126979761Y-73339472D01*
X126978077Y-73335524D01*
X126880551Y-73172570D01*
X126832643Y-73092521D01*
X126832640Y-73092517D01*
X126830439Y-73088839D01*
X126650687Y-72864472D01*
X126442149Y-72666577D01*
X126208683Y-72498814D01*
X126186843Y-72487250D01*
X126163654Y-72474972D01*
X125954608Y-72364288D01*
X125684627Y-72265489D01*
X125403736Y-72204245D01*
X125372685Y-72201801D01*
X125180718Y-72186693D01*
X125180709Y-72186693D01*
X125178261Y-72186500D01*
X125022729Y-72186500D01*
X125020593Y-72186646D01*
X125020582Y-72186646D01*
X124812452Y-72200835D01*
X124812446Y-72200836D01*
X124808175Y-72201127D01*
X124803980Y-72201996D01*
X124803978Y-72201996D01*
X124667416Y-72230277D01*
X124526658Y-72259426D01*
X124255657Y-72355393D01*
X124000188Y-72487250D01*
X123996687Y-72489711D01*
X123996683Y-72489713D01*
X123986594Y-72496804D01*
X123764977Y-72652559D01*
X123554378Y-72848260D01*
X123372287Y-73070732D01*
X123222073Y-73315858D01*
X123106517Y-73579102D01*
X123027756Y-73855594D01*
X122987249Y-74140216D01*
X122987227Y-74144505D01*
X122987226Y-74144512D01*
X122985775Y-74421554D01*
X122985743Y-74427703D01*
X121158000Y-74427703D01*
X121158000Y-70484000D01*
X121178002Y-70415879D01*
X121231658Y-70369386D01*
X121284000Y-70358000D01*
X177166000Y-70358000D01*
X177234121Y-70378002D01*
G37*
%TD.AperFunction*%
%TD*%
M02*
