%TF.GenerationSoftware,KiCad,Pcbnew,(6.0.1-0)*%
%TF.CreationDate,2022-04-18T21:10:33-05:00*%
%TF.ProjectId,tackle_sensor_hardware,7461636b-6c65-45f7-9365-6e736f725f68,rev?*%
%TF.SameCoordinates,Original*%
%TF.FileFunction,Soldermask,Top*%
%TF.FilePolarity,Negative*%
%FSLAX46Y46*%
G04 Gerber Fmt 4.6, Leading zero omitted, Abs format (unit mm)*
G04 Created by KiCad (PCBNEW (6.0.1-0)) date 2022-04-18 21:10:33*
%MOMM*%
%LPD*%
G01*
G04 APERTURE LIST*
G04 Aperture macros list*
%AMRoundRect*
0 Rectangle with rounded corners*
0 $1 Rounding radius*
0 $2 $3 $4 $5 $6 $7 $8 $9 X,Y pos of 4 corners*
0 Add a 4 corners polygon primitive as box body*
4,1,4,$2,$3,$4,$5,$6,$7,$8,$9,$2,$3,0*
0 Add four circle primitives for the rounded corners*
1,1,$1+$1,$2,$3*
1,1,$1+$1,$4,$5*
1,1,$1+$1,$6,$7*
1,1,$1+$1,$8,$9*
0 Add four rect primitives between the rounded corners*
20,1,$1+$1,$2,$3,$4,$5,0*
20,1,$1+$1,$4,$5,$6,$7,0*
20,1,$1+$1,$6,$7,$8,$9,0*
20,1,$1+$1,$8,$9,$2,$3,0*%
G04 Aperture macros list end*
%ADD10RoundRect,0.250000X-0.725000X0.600000X-0.725000X-0.600000X0.725000X-0.600000X0.725000X0.600000X0*%
%ADD11O,1.950000X1.700000*%
%ADD12RoundRect,0.100000X-0.637500X-0.100000X0.637500X-0.100000X0.637500X0.100000X-0.637500X0.100000X0*%
%ADD13C,3.200000*%
%ADD14RoundRect,0.250000X0.750000X-0.600000X0.750000X0.600000X-0.750000X0.600000X-0.750000X-0.600000X0*%
%ADD15O,2.000000X1.700000*%
%ADD16RoundRect,0.200000X-0.200000X-0.275000X0.200000X-0.275000X0.200000X0.275000X-0.200000X0.275000X0*%
%ADD17RoundRect,0.135000X-0.135000X-0.185000X0.135000X-0.185000X0.135000X0.185000X-0.135000X0.185000X0*%
%ADD18RoundRect,0.150000X0.150000X-0.587500X0.150000X0.587500X-0.150000X0.587500X-0.150000X-0.587500X0*%
%ADD19C,1.500000*%
%ADD20RoundRect,0.135000X0.135000X0.185000X-0.135000X0.185000X-0.135000X-0.185000X0.135000X-0.185000X0*%
%ADD21R,2.440000X1.120000*%
%ADD22R,0.450000X1.450000*%
%ADD23RoundRect,0.140000X0.170000X-0.140000X0.170000X0.140000X-0.170000X0.140000X-0.170000X-0.140000X0*%
%ADD24RoundRect,0.225000X-0.225000X-0.250000X0.225000X-0.250000X0.225000X0.250000X-0.225000X0.250000X0*%
%ADD25RoundRect,0.250000X-0.250000X-0.475000X0.250000X-0.475000X0.250000X0.475000X-0.250000X0.475000X0*%
%ADD26R,0.500000X0.630000*%
%ADD27R,1.230000X0.950000*%
%ADD28RoundRect,0.200000X-0.275000X0.200000X-0.275000X-0.200000X0.275000X-0.200000X0.275000X0.200000X0*%
%ADD29RoundRect,0.135000X0.185000X-0.135000X0.185000X0.135000X-0.185000X0.135000X-0.185000X-0.135000X0*%
%ADD30RoundRect,0.250000X0.250000X0.475000X-0.250000X0.475000X-0.250000X-0.475000X0.250000X-0.475000X0*%
%ADD31R,1.550000X1.300000*%
%ADD32R,0.350000X0.375000*%
%ADD33R,0.375000X0.350000*%
%ADD34RoundRect,0.250000X-0.312500X-1.075000X0.312500X-1.075000X0.312500X1.075000X-0.312500X1.075000X0*%
%ADD35RoundRect,0.225000X0.225000X0.250000X-0.225000X0.250000X-0.225000X-0.250000X0.225000X-0.250000X0*%
%ADD36RoundRect,0.135000X-0.185000X0.135000X-0.185000X-0.135000X0.185000X-0.135000X0.185000X0.135000X0*%
%ADD37R,1.955800X2.362200*%
%ADD38R,1.200000X2.200000*%
%ADD39R,5.800000X6.400000*%
%ADD40RoundRect,0.140000X-0.140000X-0.170000X0.140000X-0.170000X0.140000X0.170000X-0.140000X0.170000X0*%
%ADD41RoundRect,0.218750X0.218750X0.256250X-0.218750X0.256250X-0.218750X-0.256250X0.218750X-0.256250X0*%
%ADD42RoundRect,0.250000X0.625000X-0.312500X0.625000X0.312500X-0.625000X0.312500X-0.625000X-0.312500X0*%
%ADD43R,1.000000X1.000000*%
%ADD44O,1.000000X1.000000*%
%ADD45RoundRect,0.250000X0.550000X-1.500000X0.550000X1.500000X-0.550000X1.500000X-0.550000X-1.500000X0*%
%ADD46R,2.000000X1.500000*%
%ADD47R,2.000000X3.800000*%
%ADD48RoundRect,0.250000X-1.500000X-0.550000X1.500000X-0.550000X1.500000X0.550000X-1.500000X0.550000X0*%
%ADD49R,2.670000X2.540000*%
%ADD50R,0.762000X1.270000*%
%ADD51R,0.900000X1.200000*%
%ADD52RoundRect,0.250000X-1.075000X0.312500X-1.075000X-0.312500X1.075000X-0.312500X1.075000X0.312500X0*%
%ADD53RoundRect,0.250000X0.475000X-0.250000X0.475000X0.250000X-0.475000X0.250000X-0.475000X-0.250000X0*%
%ADD54R,1.000000X0.800000*%
G04 APERTURE END LIST*
D10*
%TO.C,J3*%
X173990000Y-103505000D03*
D11*
X173990000Y-106005000D03*
X173990000Y-108505000D03*
%TD*%
D12*
%TO.C,U2*%
X149410500Y-106676000D03*
X149410500Y-107326000D03*
X149410500Y-107976000D03*
X149410500Y-108626000D03*
X149410500Y-109276000D03*
X149410500Y-109926000D03*
X149410500Y-110576000D03*
X149410500Y-111226000D03*
X149410500Y-111876000D03*
X149410500Y-112526000D03*
X155135500Y-112526000D03*
X155135500Y-111876000D03*
X155135500Y-111226000D03*
X155135500Y-110576000D03*
X155135500Y-109926000D03*
X155135500Y-109276000D03*
X155135500Y-108626000D03*
X155135500Y-107976000D03*
X155135500Y-107326000D03*
X155135500Y-106676000D03*
%TD*%
D13*
%TO.C,H3*%
X125095000Y-122555000D03*
%TD*%
D14*
%TO.C,J1*%
X123935000Y-114935000D03*
D15*
X123935000Y-112435000D03*
%TD*%
D16*
%TO.C,R19*%
X136716000Y-96012000D03*
X138366000Y-96012000D03*
%TD*%
D17*
%TO.C,R22*%
X167130000Y-103505000D03*
X168150000Y-103505000D03*
%TD*%
D18*
%TO.C,Q7*%
X145039000Y-84963000D03*
X146939000Y-84963000D03*
X145989000Y-83088000D03*
%TD*%
D19*
%TO.C,TP1*%
X123825000Y-107315000D03*
%TD*%
D13*
%TO.C,H4*%
X173355000Y-122555000D03*
%TD*%
D20*
%TO.C,R7*%
X138815000Y-83439000D03*
X137795000Y-83439000D03*
%TD*%
D18*
%TO.C,Q3*%
X160152000Y-87551500D03*
X162052000Y-87551500D03*
X161102000Y-85676500D03*
%TD*%
D17*
%TO.C,R1*%
X132840000Y-111760000D03*
X133860000Y-111760000D03*
%TD*%
D21*
%TO.C,SW2*%
X142380000Y-123063000D03*
X150990000Y-123063000D03*
%TD*%
D18*
%TO.C,Q2*%
X160152000Y-82296000D03*
X162052000Y-82296000D03*
X161102000Y-80421000D03*
%TD*%
D22*
%TO.C,U3*%
X124165000Y-81071000D03*
X123515000Y-81071000D03*
X122865000Y-81071000D03*
X122215000Y-81071000D03*
X122215000Y-85471000D03*
X122865000Y-85471000D03*
X123515000Y-85471000D03*
X124165000Y-85471000D03*
%TD*%
D17*
%TO.C,R12*%
X148590000Y-86868000D03*
X149610000Y-86868000D03*
%TD*%
D23*
%TO.C,C7*%
X126492000Y-79883000D03*
X126492000Y-78923000D03*
%TD*%
D10*
%TO.C,J2*%
X173880000Y-81340000D03*
D11*
X173880000Y-83840000D03*
X173880000Y-86340000D03*
X173880000Y-88840000D03*
%TD*%
D24*
%TO.C,C3*%
X156311000Y-119634000D03*
X157861000Y-119634000D03*
%TD*%
D25*
%TO.C,C2*%
X156342000Y-115443000D03*
X158242000Y-115443000D03*
%TD*%
D17*
%TO.C,R3*%
X125603000Y-81026000D03*
X126623000Y-81026000D03*
%TD*%
%TO.C,R16*%
X161032000Y-84074000D03*
X162052000Y-84074000D03*
%TD*%
D26*
%TO.C,Q9*%
X131272000Y-82507000D03*
X130632000Y-82507000D03*
X129972000Y-82507000D03*
X129332000Y-82507000D03*
X129972000Y-85387000D03*
D27*
X129692000Y-84807000D03*
D26*
X130632000Y-85387000D03*
X131272000Y-85387000D03*
D27*
X130912000Y-83857000D03*
X130912000Y-84807000D03*
X129692000Y-83857000D03*
D26*
X129332000Y-85387000D03*
%TD*%
D18*
%TO.C,Q5*%
X152786000Y-84963000D03*
X154686000Y-84963000D03*
X153736000Y-83088000D03*
%TD*%
D17*
%TO.C,R17*%
X161032000Y-89408000D03*
X162052000Y-89408000D03*
%TD*%
D28*
%TO.C,R11*%
X163068000Y-76200000D03*
X163068000Y-77850000D03*
%TD*%
D29*
%TO.C,R4*%
X127635000Y-78867000D03*
X127635000Y-79887000D03*
%TD*%
D19*
%TO.C,TP11*%
X138303000Y-100584000D03*
%TD*%
D30*
%TO.C,C15*%
X146299000Y-107950000D03*
X144399000Y-107950000D03*
%TD*%
D31*
%TO.C,SW1*%
X153289000Y-101528000D03*
X145329000Y-101528000D03*
X153289000Y-97028000D03*
X145329000Y-97028000D03*
%TD*%
D32*
%TO.C,U1*%
X153022500Y-116081500D03*
X152522500Y-116081500D03*
X152022500Y-116081500D03*
X151522500Y-116081500D03*
D33*
X151510000Y-116594000D03*
X151510000Y-117094000D03*
D32*
X151522500Y-117606500D03*
X152022500Y-117606500D03*
X152522500Y-117606500D03*
X153022500Y-117606500D03*
D33*
X153035000Y-117094000D03*
X153035000Y-116594000D03*
%TD*%
D34*
%TO.C,R18*%
X165223000Y-83058000D03*
X168148000Y-83058000D03*
%TD*%
D35*
%TO.C,C9*%
X131699000Y-87122000D03*
X130149000Y-87122000D03*
%TD*%
D34*
%TO.C,R23*%
X165223000Y-90170000D03*
X168148000Y-90170000D03*
%TD*%
D17*
%TO.C,R21*%
X167130000Y-105029000D03*
X168150000Y-105029000D03*
%TD*%
D25*
%TO.C,C11*%
X156342000Y-117602000D03*
X158242000Y-117602000D03*
%TD*%
D17*
%TO.C,R9*%
X141351000Y-118110000D03*
X142371000Y-118110000D03*
%TD*%
D36*
%TO.C,R2*%
X149352000Y-116582000D03*
X149352000Y-117602000D03*
%TD*%
D37*
%TO.C,T1*%
X129770000Y-90690700D03*
X126770000Y-90690700D03*
X126770000Y-101333300D03*
X129770000Y-101333300D03*
%TD*%
D17*
%TO.C,R24*%
X160524000Y-94996000D03*
X161544000Y-94996000D03*
%TD*%
%TO.C,R8*%
X137795000Y-82296000D03*
X138815000Y-82296000D03*
%TD*%
%TO.C,R14*%
X144653000Y-86868000D03*
X145673000Y-86868000D03*
%TD*%
%TO.C,R5*%
X125599000Y-82169000D03*
X126619000Y-82169000D03*
%TD*%
D38*
%TO.C,Q1*%
X135250000Y-116660000D03*
D39*
X132970000Y-122960000D03*
D38*
X130690000Y-116660000D03*
%TD*%
D23*
%TO.C,C6*%
X125476000Y-79883000D03*
X125476000Y-78923000D03*
%TD*%
D35*
%TO.C,C16*%
X146063000Y-109855000D03*
X144513000Y-109855000D03*
%TD*%
D28*
%TO.C,R13*%
X159893000Y-76200000D03*
X159893000Y-77850000D03*
%TD*%
D40*
%TO.C,C8*%
X125631000Y-83312000D03*
X126591000Y-83312000D03*
%TD*%
D34*
%TO.C,R20*%
X165223000Y-86614000D03*
X168148000Y-86614000D03*
%TD*%
D41*
%TO.C,D3*%
X138328500Y-97917000D03*
X136753500Y-97917000D03*
%TD*%
D42*
%TO.C,R6*%
X129413000Y-80772000D03*
X129413000Y-77847000D03*
%TD*%
D30*
%TO.C,C5*%
X124079000Y-87884000D03*
X122179000Y-87884000D03*
%TD*%
D43*
%TO.C,J4*%
X145034000Y-92456000D03*
D44*
X145034000Y-91186000D03*
X146304000Y-92456000D03*
X146304000Y-91186000D03*
X147574000Y-92456000D03*
X147574000Y-91186000D03*
X148844000Y-92456000D03*
X148844000Y-91186000D03*
X150114000Y-92456000D03*
X150114000Y-91186000D03*
%TD*%
D45*
%TO.C,C10*%
X136525000Y-78740000D03*
X136525000Y-73140000D03*
%TD*%
D46*
%TO.C,U4*%
X141884000Y-72884000D03*
X141884000Y-75184000D03*
D47*
X148184000Y-75184000D03*
D46*
X141884000Y-77484000D03*
%TD*%
D18*
%TO.C,Q6*%
X148976000Y-84963000D03*
X150876000Y-84963000D03*
X149926000Y-83088000D03*
%TD*%
D30*
%TO.C,C12*%
X133350000Y-80645000D03*
X131450000Y-80645000D03*
%TD*%
D45*
%TO.C,C13*%
X153416000Y-77884000D03*
X153416000Y-72484000D03*
%TD*%
D19*
%TO.C,TP2*%
X153797000Y-91948000D03*
%TD*%
%TO.C,TP10*%
X140081000Y-85852000D03*
%TD*%
D48*
%TO.C,C4*%
X132715000Y-107315000D03*
X138115000Y-107315000D03*
%TD*%
D13*
%TO.C,H2*%
X173355000Y-74295000D03*
%TD*%
D49*
%TO.C,D1*%
X135636000Y-87249000D03*
D50*
X133285000Y-87249000D03*
%TD*%
D17*
%TO.C,R10*%
X152400000Y-86868000D03*
X153420000Y-86868000D03*
%TD*%
D19*
%TO.C,TP3*%
X128270000Y-107315000D03*
%TD*%
D51*
%TO.C,D4*%
X130685000Y-113875000D03*
X133985000Y-113875000D03*
%TD*%
D28*
%TO.C,R15*%
X157988000Y-76201000D03*
X157988000Y-77851000D03*
%TD*%
D13*
%TO.C,H1*%
X125095000Y-74295000D03*
%TD*%
D52*
%TO.C,F1*%
X167259000Y-76007500D03*
X167259000Y-78932500D03*
%TD*%
D18*
%TO.C,Q4*%
X160152000Y-93218000D03*
X162052000Y-93218000D03*
X161102000Y-91343000D03*
%TD*%
D19*
%TO.C,TP15*%
X146431000Y-104140000D03*
%TD*%
D53*
%TO.C,C1*%
X155829000Y-100137000D03*
X155829000Y-98237000D03*
%TD*%
D54*
%TO.C,D2*%
X162794000Y-74106000D03*
X162794000Y-72706000D03*
X160294000Y-72706000D03*
X160294000Y-74106000D03*
%TD*%
D19*
%TO.C,TP12*%
X160401000Y-103378000D03*
%TD*%
M02*
