%TF.GenerationSoftware,KiCad,Pcbnew,(6.0.1-0)*%
%TF.CreationDate,2023-09-01T00:14:15-05:00*%
%TF.ProjectId,tackle_sensor_hardware,7461636b-6c65-45f7-9365-6e736f725f68,REV1*%
%TF.SameCoordinates,Original*%
%TF.FileFunction,Copper,L4,Bot*%
%TF.FilePolarity,Positive*%
%FSLAX46Y46*%
G04 Gerber Fmt 4.6, Leading zero omitted, Abs format (unit mm)*
G04 Created by KiCad (PCBNEW (6.0.1-0)) date 2023-09-01 00:14:15*
%MOMM*%
%LPD*%
G01*
G04 APERTURE LIST*
G04 Aperture macros list*
%AMRoundRect*
0 Rectangle with rounded corners*
0 $1 Rounding radius*
0 $2 $3 $4 $5 $6 $7 $8 $9 X,Y pos of 4 corners*
0 Add a 4 corners polygon primitive as box body*
4,1,4,$2,$3,$4,$5,$6,$7,$8,$9,$2,$3,0*
0 Add four circle primitives for the rounded corners*
1,1,$1+$1,$2,$3*
1,1,$1+$1,$4,$5*
1,1,$1+$1,$6,$7*
1,1,$1+$1,$8,$9*
0 Add four rect primitives between the rounded corners*
20,1,$1+$1,$2,$3,$4,$5,0*
20,1,$1+$1,$4,$5,$6,$7,0*
20,1,$1+$1,$6,$7,$8,$9,0*
20,1,$1+$1,$8,$9,$2,$3,0*%
G04 Aperture macros list end*
%TA.AperFunction,ComponentPad*%
%ADD10RoundRect,0.250000X-0.725000X0.600000X-0.725000X-0.600000X0.725000X-0.600000X0.725000X0.600000X0*%
%TD*%
%TA.AperFunction,ComponentPad*%
%ADD11O,1.950000X1.700000*%
%TD*%
%TA.AperFunction,ComponentPad*%
%ADD12C,1.580000*%
%TD*%
%TA.AperFunction,ComponentPad*%
%ADD13R,1.580000X1.580000*%
%TD*%
%TA.AperFunction,ComponentPad*%
%ADD14RoundRect,0.250000X0.750000X-0.600000X0.750000X0.600000X-0.750000X0.600000X-0.750000X-0.600000X0*%
%TD*%
%TA.AperFunction,ComponentPad*%
%ADD15O,2.000000X1.700000*%
%TD*%
%TA.AperFunction,ViaPad*%
%ADD16C,0.500000*%
%TD*%
%TA.AperFunction,Conductor*%
%ADD17C,0.228600*%
%TD*%
%TA.AperFunction,Conductor*%
%ADD18C,0.200000*%
%TD*%
%TA.AperFunction,Conductor*%
%ADD19C,0.254000*%
%TD*%
G04 APERTURE END LIST*
D10*
%TO.P,J4,1,Pin_1*%
%TO.N,Net-(F1-Pad2)*%
X199881900Y-84433200D03*
D11*
%TO.P,J4,2,Pin_2*%
%TO.N,Net-(J4-Pad2)*%
X199881900Y-86933200D03*
%TO.P,J4,3,Pin_3*%
%TO.N,Net-(J4-Pad3)*%
X199881900Y-89433200D03*
%TO.P,J4,4,Pin_4*%
%TO.N,Net-(J4-Pad4)*%
X199881900Y-91933200D03*
%TD*%
D10*
%TO.P,J5,1,Pin_1*%
%TO.N,Net-(J5-Pad1)*%
X200042000Y-102589000D03*
D11*
%TO.P,J5,2,Pin_2*%
%TO.N,Net-(J5-Pad2)*%
X200042000Y-105089000D03*
%TO.P,J5,3,Pin_3*%
%TO.N,Net-(J5-Pad3)*%
X200042000Y-107589000D03*
%TO.P,J5,4,Pin_4*%
%TO.N,Net-(J5-Pad4)*%
X200042000Y-110089000D03*
%TO.P,J5,5,Pin_5*%
%TO.N,Net-(J5-Pad5)*%
X200042000Y-112589000D03*
%TO.P,J5,6,Pin_6*%
%TO.N,GND*%
X200042000Y-115089000D03*
%TD*%
D12*
%TO.P,S1,2B*%
%TO.N,HOME_SELECT*%
X178435000Y-122174000D03*
%TO.P,S1,2A*%
%TO.N,Net-(R23-Pad1)*%
X178435000Y-129794000D03*
%TO.P,S1,1B*%
%TO.N,ELIGIBLE_SELECT*%
X175895000Y-122174000D03*
D13*
%TO.P,S1,1A*%
%TO.N,Net-(R21-Pad1)*%
X175895000Y-129794000D03*
%TD*%
D14*
%TO.P,J2,1,Pin_1*%
%TO.N,GND*%
X160291700Y-120334200D03*
D15*
%TO.P,J2,2,Pin_2*%
%TO.N,Net-(J2-Pad2)*%
X160291700Y-117834200D03*
%TD*%
D16*
%TO.N,HOME_SELECT*%
X190982600Y-112420400D03*
%TO.N,+12V*%
X177088800Y-76479400D03*
%TO.N,+3V3*%
X194462400Y-116230400D03*
%TO.N,GND*%
X195326000Y-108331000D03*
X195199000Y-106426000D03*
%TO.N,+3V3*%
X191643000Y-106299000D03*
X189037400Y-102503800D03*
X188326192Y-102503808D03*
%TO.N,GND*%
X164000100Y-86196600D03*
X167149700Y-78170200D03*
X179087700Y-90971800D03*
X166133700Y-77281200D03*
X167149700Y-76392200D03*
X175938100Y-112460200D03*
X173144100Y-97220200D03*
X168165700Y-76392200D03*
X186656900Y-118251400D03*
X179595700Y-112511000D03*
X166133700Y-78170200D03*
X173992900Y-105689000D03*
X166133700Y-74360200D03*
X167149700Y-74360200D03*
X167149700Y-77281200D03*
X178478100Y-112561800D03*
X189704500Y-96203800D03*
X168165700Y-75376200D03*
X171213700Y-116016200D03*
X168165700Y-74360200D03*
X190162100Y-108599400D03*
X174134700Y-118556200D03*
X167149700Y-79059200D03*
X186250500Y-120486600D03*
X166133700Y-75376200D03*
X166133700Y-79059200D03*
X159656700Y-111952200D03*
X167149700Y-75376200D03*
X195947800Y-121983000D03*
X179036900Y-89701800D03*
X166133700Y-76392200D03*
%TO.N,+3V3*%
X190365300Y-119165800D03*
X181018100Y-112612600D03*
X195998600Y-120154200D03*
%TO.N,+12V*%
X186453700Y-75477800D03*
X177335100Y-92368800D03*
%TO.N,R_PWM*%
X182288100Y-85891800D03*
X181881700Y-111291800D03*
%TO.N,G_PWM*%
X181526100Y-108396200D03*
X182186500Y-87161800D03*
%TO.N,B_PWM*%
X181729300Y-107634200D03*
X182237300Y-88533400D03*
%TO.N,/RST*%
X181780100Y-109615400D03*
X190212900Y-107735800D03*
%TO.N,/ACC_INT2*%
X186021900Y-108116800D03*
X188079300Y-112257000D03*
%TO.N,Net-(Q2-Pad1)*%
X173448900Y-88838200D03*
X159174100Y-86501400D03*
%TO.N,Net-(R8-Pad2)*%
X158564500Y-85790200D03*
X173855300Y-93511800D03*
%TO.N,ELIGIBLE_SELECT*%
X190517700Y-109767800D03*
X189704900Y-112511000D03*
%TD*%
D17*
%TO.N,HOME_SELECT*%
X181229000Y-122174000D02*
X178435000Y-122174000D01*
D18*
%TO.N,ELIGIBLE_SELECT*%
X176911511Y-121157489D02*
X181763531Y-121157489D01*
X181763531Y-121157489D02*
X189704900Y-113216120D01*
X175895000Y-122174000D02*
X176911511Y-121157489D01*
X189704900Y-113216120D02*
X189704900Y-112511000D01*
D17*
%TO.N,HOME_SELECT*%
X190982600Y-112420400D02*
X181229000Y-122174000D01*
%TO.N,R_PWM*%
X180662500Y-110072600D02*
X180662500Y-87161800D01*
X181881700Y-111291800D02*
X180662500Y-110072600D01*
X180662500Y-87161800D02*
X181932500Y-85891800D01*
X181932500Y-85891800D02*
X182288100Y-85891800D01*
%TO.N,G_PWM*%
X181526100Y-108396200D02*
X181119700Y-107989800D01*
X181119700Y-107278600D02*
X181119700Y-88228600D01*
X181119700Y-88228600D02*
X182186500Y-87161800D01*
X181119700Y-107989800D02*
X181119700Y-107278600D01*
%TO.N,B_PWM*%
X181729300Y-89041400D02*
X182237300Y-88533400D01*
X181729300Y-107634200D02*
X181729300Y-89041400D01*
D19*
%TO.N,/RST*%
X184269300Y-107126200D02*
X181780100Y-109615400D01*
X186402900Y-107126200D02*
X184269300Y-107126200D01*
X187012500Y-107735800D02*
X186402900Y-107126200D01*
X190212900Y-107735800D02*
X187012500Y-107735800D01*
D17*
%TO.N,/ACC_INT2*%
X186047300Y-110225000D02*
X186047300Y-108142200D01*
X186047300Y-108142200D02*
X186021900Y-108116800D01*
X188079300Y-112257000D02*
X186047300Y-110225000D01*
D19*
%TO.N,Net-(Q2-Pad1)*%
X163034900Y-90362200D02*
X171924900Y-90362200D01*
X159174100Y-86501400D02*
X163034900Y-90362200D01*
X171924900Y-90362200D02*
X173448900Y-88838200D01*
D17*
%TO.N,Net-(R8-Pad2)*%
X158564500Y-87009400D02*
X165066900Y-93511800D01*
X165066900Y-93511800D02*
X165473300Y-93511800D01*
D19*
X173855300Y-93511800D02*
X165473300Y-93511800D01*
X158564500Y-87009400D02*
X158564500Y-85790200D01*
%TO.N,ELIGIBLE_SELECT*%
X190517700Y-109767800D02*
X190517700Y-111698200D01*
X190517700Y-111698200D02*
X189704900Y-112511000D01*
%TD*%
%TA.AperFunction,Conductor*%
%TO.N,GND*%
G36*
X199282659Y-73091700D02*
G01*
X199297460Y-73094005D01*
X199297463Y-73094005D01*
X199306332Y-73095386D01*
X199326228Y-73092784D01*
X199348386Y-73091854D01*
X199670045Y-73106725D01*
X199681634Y-73107799D01*
X200030260Y-73156431D01*
X200041699Y-73158570D01*
X200235090Y-73204055D01*
X200384346Y-73239159D01*
X200395528Y-73242340D01*
X200562412Y-73298275D01*
X200729287Y-73354206D01*
X200740139Y-73358410D01*
X201062149Y-73500591D01*
X201072554Y-73505771D01*
X201380089Y-73677067D01*
X201389966Y-73683183D01*
X201680369Y-73882114D01*
X201689657Y-73889128D01*
X201960467Y-74114006D01*
X201969067Y-74121847D01*
X202217955Y-74370735D01*
X202225796Y-74379335D01*
X202450674Y-74650145D01*
X202457688Y-74659433D01*
X202635423Y-74918893D01*
X202656619Y-74949836D01*
X202662735Y-74959713D01*
X202834031Y-75267248D01*
X202839211Y-75277653D01*
X202981392Y-75599663D01*
X202985596Y-75610515D01*
X203027745Y-75736268D01*
X203095192Y-75937500D01*
X203097459Y-75944265D01*
X203100643Y-75955456D01*
X203126181Y-76064037D01*
X203181232Y-76298103D01*
X203183371Y-76309542D01*
X203232003Y-76658168D01*
X203233077Y-76669757D01*
X203247605Y-76984016D01*
X203246240Y-77009215D01*
X203244416Y-77020930D01*
X203245580Y-77029832D01*
X203245580Y-77029835D01*
X203248538Y-77052451D01*
X203249602Y-77068789D01*
X203249602Y-127777872D01*
X203248102Y-127797256D01*
X203244416Y-127820930D01*
X203246056Y-127833470D01*
X203247018Y-127840826D01*
X203247948Y-127862984D01*
X203233077Y-128184643D01*
X203232003Y-128196232D01*
X203183371Y-128544858D01*
X203181232Y-128556297D01*
X203100644Y-128898940D01*
X203097462Y-128910126D01*
X203051313Y-129047814D01*
X202985596Y-129243885D01*
X202981392Y-129254737D01*
X202839211Y-129576747D01*
X202834031Y-129587152D01*
X202662735Y-129894687D01*
X202656620Y-129904563D01*
X202635390Y-129935554D01*
X202457688Y-130194967D01*
X202450674Y-130204255D01*
X202225796Y-130475065D01*
X202217955Y-130483665D01*
X201969067Y-130732553D01*
X201960467Y-130740394D01*
X201689657Y-130965272D01*
X201680369Y-130972286D01*
X201389966Y-131171217D01*
X201380089Y-131177333D01*
X201072554Y-131348629D01*
X201062149Y-131353809D01*
X200740139Y-131495990D01*
X200729287Y-131500194D01*
X200562412Y-131556125D01*
X200395528Y-131612060D01*
X200384346Y-131615241D01*
X200235090Y-131650345D01*
X200041699Y-131695830D01*
X200030260Y-131697969D01*
X199681634Y-131746601D01*
X199670046Y-131747675D01*
X199644993Y-131748833D01*
X199355786Y-131762203D01*
X199330587Y-131760838D01*
X199327744Y-131760395D01*
X199327742Y-131760395D01*
X199318872Y-131759014D01*
X199309970Y-131760178D01*
X199309967Y-131760178D01*
X199287351Y-131763136D01*
X199271013Y-131764200D01*
X161230028Y-131764200D01*
X161210643Y-131762700D01*
X161195842Y-131760395D01*
X161195839Y-131760395D01*
X161186970Y-131759014D01*
X161167805Y-131761520D01*
X161167074Y-131761616D01*
X161144916Y-131762546D01*
X160823257Y-131747675D01*
X160811668Y-131746601D01*
X160463042Y-131697969D01*
X160451603Y-131695830D01*
X160258212Y-131650345D01*
X160108956Y-131615241D01*
X160097774Y-131612060D01*
X159930890Y-131556125D01*
X159764015Y-131500194D01*
X159753163Y-131495990D01*
X159431153Y-131353809D01*
X159420748Y-131348629D01*
X159113213Y-131177333D01*
X159103336Y-131171217D01*
X158812933Y-130972286D01*
X158803645Y-130965272D01*
X158532835Y-130740394D01*
X158524235Y-130732553D01*
X158423816Y-130632134D01*
X174596500Y-130632134D01*
X174603255Y-130694316D01*
X174654385Y-130830705D01*
X174741739Y-130947261D01*
X174858295Y-131034615D01*
X174994684Y-131085745D01*
X175056866Y-131092500D01*
X176733134Y-131092500D01*
X176795316Y-131085745D01*
X176931705Y-131034615D01*
X177048261Y-130947261D01*
X177135615Y-130830705D01*
X177186745Y-130694316D01*
X177189960Y-130664723D01*
X177217203Y-130599161D01*
X177275566Y-130558735D01*
X177346520Y-130556281D01*
X177407538Y-130592577D01*
X177418433Y-130606057D01*
X177436492Y-130631848D01*
X177597152Y-130792508D01*
X177601660Y-130795665D01*
X177601663Y-130795667D01*
X177778761Y-130919672D01*
X177783270Y-130922829D01*
X177788252Y-130925152D01*
X177788257Y-130925155D01*
X177978701Y-131013961D01*
X177989190Y-131018852D01*
X177994498Y-131020274D01*
X177994500Y-131020275D01*
X178027917Y-131029229D01*
X178208657Y-131077658D01*
X178435000Y-131097460D01*
X178661343Y-131077658D01*
X178842083Y-131029229D01*
X178875500Y-131020275D01*
X178875502Y-131020274D01*
X178880810Y-131018852D01*
X178891299Y-131013961D01*
X179081743Y-130925155D01*
X179081748Y-130925152D01*
X179086730Y-130922829D01*
X179091239Y-130919672D01*
X179268337Y-130795667D01*
X179268340Y-130795665D01*
X179272848Y-130792508D01*
X179433508Y-130631848D01*
X179484703Y-130558735D01*
X179560672Y-130450239D01*
X179560673Y-130450237D01*
X179563829Y-130445730D01*
X179566152Y-130440748D01*
X179566155Y-130440743D01*
X179657529Y-130244792D01*
X179657530Y-130244790D01*
X179659852Y-130239810D01*
X179718658Y-130020343D01*
X179738460Y-129794000D01*
X179718658Y-129567657D01*
X179659852Y-129348190D01*
X179657529Y-129343208D01*
X179566155Y-129147257D01*
X179566152Y-129147252D01*
X179563829Y-129142270D01*
X179500249Y-129051468D01*
X179436667Y-128960663D01*
X179436665Y-128960660D01*
X179433508Y-128956152D01*
X179272848Y-128795492D01*
X179268340Y-128792335D01*
X179268337Y-128792333D01*
X179091239Y-128668328D01*
X179091237Y-128668327D01*
X179086730Y-128665171D01*
X179081748Y-128662848D01*
X179081743Y-128662845D01*
X178885792Y-128571471D01*
X178885790Y-128571470D01*
X178880810Y-128569148D01*
X178875502Y-128567726D01*
X178875500Y-128567725D01*
X178768184Y-128538970D01*
X178661343Y-128510342D01*
X178435000Y-128490540D01*
X178208657Y-128510342D01*
X178101816Y-128538970D01*
X177994500Y-128567725D01*
X177994498Y-128567726D01*
X177989190Y-128569148D01*
X177984210Y-128571470D01*
X177984208Y-128571471D01*
X177788257Y-128662845D01*
X177788252Y-128662848D01*
X177783270Y-128665171D01*
X177778763Y-128668327D01*
X177778761Y-128668328D01*
X177601663Y-128792333D01*
X177601660Y-128792335D01*
X177597152Y-128795492D01*
X177436492Y-128956152D01*
X177418436Y-128981939D01*
X177362980Y-129026267D01*
X177292360Y-129033576D01*
X177229000Y-129001546D01*
X177193014Y-128940345D01*
X177189960Y-128923277D01*
X177187598Y-128901540D01*
X177186745Y-128893684D01*
X177135615Y-128757295D01*
X177048261Y-128640739D01*
X176931705Y-128553385D01*
X176795316Y-128502255D01*
X176733134Y-128495500D01*
X175056866Y-128495500D01*
X174994684Y-128502255D01*
X174858295Y-128553385D01*
X174741739Y-128640739D01*
X174654385Y-128757295D01*
X174603255Y-128893684D01*
X174596500Y-128955866D01*
X174596500Y-130632134D01*
X158423816Y-130632134D01*
X158275347Y-130483665D01*
X158267506Y-130475065D01*
X158042628Y-130204255D01*
X158035614Y-130194967D01*
X157857912Y-129935554D01*
X157836682Y-129904563D01*
X157830567Y-129894687D01*
X157659271Y-129587152D01*
X157654091Y-129576747D01*
X157511910Y-129254737D01*
X157507706Y-129243885D01*
X157441989Y-129047814D01*
X157395840Y-128910126D01*
X157392658Y-128898940D01*
X157312070Y-128556297D01*
X157309931Y-128544858D01*
X157261299Y-128196232D01*
X157260225Y-128184643D01*
X157249835Y-127959903D01*
X159071443Y-127959903D01*
X159108968Y-128244934D01*
X159184829Y-128522236D01*
X159186513Y-128526184D01*
X159282026Y-128750109D01*
X159297623Y-128786676D01*
X159445261Y-129033361D01*
X159625013Y-129257728D01*
X159642097Y-129273940D01*
X159785813Y-129410321D01*
X159833551Y-129455623D01*
X160067017Y-129623386D01*
X160070812Y-129625395D01*
X160070813Y-129625396D01*
X160092569Y-129636915D01*
X160321092Y-129757912D01*
X160591073Y-129856711D01*
X160871964Y-129917955D01*
X160900541Y-129920204D01*
X161094982Y-129935507D01*
X161094991Y-129935507D01*
X161097439Y-129935700D01*
X161252971Y-129935700D01*
X161255107Y-129935554D01*
X161255118Y-129935554D01*
X161463248Y-129921365D01*
X161463254Y-129921364D01*
X161467525Y-129921073D01*
X161471720Y-129920204D01*
X161471722Y-129920204D01*
X161608284Y-129891923D01*
X161749042Y-129862774D01*
X162020043Y-129766807D01*
X162275512Y-129634950D01*
X162279013Y-129632489D01*
X162279017Y-129632487D01*
X162435028Y-129522840D01*
X162510723Y-129469641D01*
X162589103Y-129396806D01*
X162718179Y-129276861D01*
X162718181Y-129276858D01*
X162721322Y-129273940D01*
X162903413Y-129051468D01*
X163053627Y-128806342D01*
X163169183Y-128543098D01*
X163180818Y-128502255D01*
X163246768Y-128270734D01*
X163247944Y-128266606D01*
X163288451Y-127981984D01*
X163288545Y-127964151D01*
X163288567Y-127959903D01*
X197171443Y-127959903D01*
X197208968Y-128244934D01*
X197284829Y-128522236D01*
X197286513Y-128526184D01*
X197382026Y-128750109D01*
X197397623Y-128786676D01*
X197545261Y-129033361D01*
X197725013Y-129257728D01*
X197742097Y-129273940D01*
X197885813Y-129410321D01*
X197933551Y-129455623D01*
X198167017Y-129623386D01*
X198170812Y-129625395D01*
X198170813Y-129625396D01*
X198192569Y-129636915D01*
X198421092Y-129757912D01*
X198691073Y-129856711D01*
X198971964Y-129917955D01*
X199000541Y-129920204D01*
X199194982Y-129935507D01*
X199194991Y-129935507D01*
X199197439Y-129935700D01*
X199352971Y-129935700D01*
X199355107Y-129935554D01*
X199355118Y-129935554D01*
X199563248Y-129921365D01*
X199563254Y-129921364D01*
X199567525Y-129921073D01*
X199571720Y-129920204D01*
X199571722Y-129920204D01*
X199708284Y-129891923D01*
X199849042Y-129862774D01*
X200120043Y-129766807D01*
X200375512Y-129634950D01*
X200379013Y-129632489D01*
X200379017Y-129632487D01*
X200535028Y-129522840D01*
X200610723Y-129469641D01*
X200689103Y-129396806D01*
X200818179Y-129276861D01*
X200818181Y-129276858D01*
X200821322Y-129273940D01*
X201003413Y-129051468D01*
X201153627Y-128806342D01*
X201269183Y-128543098D01*
X201280818Y-128502255D01*
X201346768Y-128270734D01*
X201347944Y-128266606D01*
X201388451Y-127981984D01*
X201388545Y-127964151D01*
X201389935Y-127698783D01*
X201389935Y-127698776D01*
X201389957Y-127694497D01*
X201352432Y-127409466D01*
X201276571Y-127132164D01*
X201163777Y-126867724D01*
X201016139Y-126621039D01*
X200836387Y-126396672D01*
X200627849Y-126198777D01*
X200394383Y-126031014D01*
X200372543Y-126019450D01*
X200349354Y-126007172D01*
X200140308Y-125896488D01*
X199870327Y-125797689D01*
X199589436Y-125736445D01*
X199558385Y-125734001D01*
X199366418Y-125718893D01*
X199366409Y-125718893D01*
X199363961Y-125718700D01*
X199208429Y-125718700D01*
X199206293Y-125718846D01*
X199206282Y-125718846D01*
X198998152Y-125733035D01*
X198998146Y-125733036D01*
X198993875Y-125733327D01*
X198989680Y-125734196D01*
X198989678Y-125734196D01*
X198853117Y-125762476D01*
X198712358Y-125791626D01*
X198441357Y-125887593D01*
X198185888Y-126019450D01*
X198182387Y-126021911D01*
X198182383Y-126021913D01*
X198172294Y-126029004D01*
X197950677Y-126184759D01*
X197740078Y-126380460D01*
X197557987Y-126602932D01*
X197407773Y-126848058D01*
X197292217Y-127111302D01*
X197213456Y-127387794D01*
X197172949Y-127672416D01*
X197172927Y-127676705D01*
X197172926Y-127676712D01*
X197171465Y-127955617D01*
X197171443Y-127959903D01*
X163288567Y-127959903D01*
X163289935Y-127698783D01*
X163289935Y-127698776D01*
X163289957Y-127694497D01*
X163252432Y-127409466D01*
X163176571Y-127132164D01*
X163063777Y-126867724D01*
X162916139Y-126621039D01*
X162736387Y-126396672D01*
X162527849Y-126198777D01*
X162294383Y-126031014D01*
X162272543Y-126019450D01*
X162249354Y-126007172D01*
X162040308Y-125896488D01*
X161770327Y-125797689D01*
X161489436Y-125736445D01*
X161458385Y-125734001D01*
X161266418Y-125718893D01*
X161266409Y-125718893D01*
X161263961Y-125718700D01*
X161108429Y-125718700D01*
X161106293Y-125718846D01*
X161106282Y-125718846D01*
X160898152Y-125733035D01*
X160898146Y-125733036D01*
X160893875Y-125733327D01*
X160889680Y-125734196D01*
X160889678Y-125734196D01*
X160753117Y-125762476D01*
X160612358Y-125791626D01*
X160341357Y-125887593D01*
X160085888Y-126019450D01*
X160082387Y-126021911D01*
X160082383Y-126021913D01*
X160072294Y-126029004D01*
X159850677Y-126184759D01*
X159640078Y-126380460D01*
X159457987Y-126602932D01*
X159307773Y-126848058D01*
X159192217Y-127111302D01*
X159113456Y-127387794D01*
X159072949Y-127672416D01*
X159072927Y-127676705D01*
X159072926Y-127676712D01*
X159071465Y-127955617D01*
X159071443Y-127959903D01*
X157249835Y-127959903D01*
X157245697Y-127870384D01*
X157247062Y-127845185D01*
X157247505Y-127842342D01*
X157247505Y-127842340D01*
X157248886Y-127833470D01*
X157247247Y-127820930D01*
X157244764Y-127801949D01*
X157243700Y-127785611D01*
X157243700Y-122174000D01*
X174591540Y-122174000D01*
X174611342Y-122400343D01*
X174670148Y-122619810D01*
X174672470Y-122624790D01*
X174672471Y-122624792D01*
X174763845Y-122820743D01*
X174763848Y-122820748D01*
X174766171Y-122825730D01*
X174896492Y-123011848D01*
X175057152Y-123172508D01*
X175061660Y-123175665D01*
X175061663Y-123175667D01*
X175238761Y-123299672D01*
X175243270Y-123302829D01*
X175248252Y-123305152D01*
X175248257Y-123305155D01*
X175444208Y-123396529D01*
X175449190Y-123398852D01*
X175454498Y-123400274D01*
X175454500Y-123400275D01*
X175523361Y-123418726D01*
X175668657Y-123457658D01*
X175895000Y-123477460D01*
X176121343Y-123457658D01*
X176266639Y-123418726D01*
X176335500Y-123400275D01*
X176335502Y-123400274D01*
X176340810Y-123398852D01*
X176345792Y-123396529D01*
X176541743Y-123305155D01*
X176541748Y-123305152D01*
X176546730Y-123302829D01*
X176551239Y-123299672D01*
X176728337Y-123175667D01*
X176728340Y-123175665D01*
X176732848Y-123172508D01*
X176893508Y-123011848D01*
X177023829Y-122825730D01*
X177026152Y-122820748D01*
X177026155Y-122820743D01*
X177050805Y-122767880D01*
X177097722Y-122714595D01*
X177166000Y-122695134D01*
X177233960Y-122715676D01*
X177279195Y-122767880D01*
X177303845Y-122820743D01*
X177303848Y-122820748D01*
X177306171Y-122825730D01*
X177436492Y-123011848D01*
X177597152Y-123172508D01*
X177601660Y-123175665D01*
X177601663Y-123175667D01*
X177778761Y-123299672D01*
X177783270Y-123302829D01*
X177788252Y-123305152D01*
X177788257Y-123305155D01*
X177984208Y-123396529D01*
X177989190Y-123398852D01*
X177994498Y-123400274D01*
X177994500Y-123400275D01*
X178063361Y-123418726D01*
X178208657Y-123457658D01*
X178435000Y-123477460D01*
X178661343Y-123457658D01*
X178806639Y-123418726D01*
X178875500Y-123400275D01*
X178875502Y-123400274D01*
X178880810Y-123398852D01*
X178885792Y-123396529D01*
X179081743Y-123305155D01*
X179081748Y-123305152D01*
X179086730Y-123302829D01*
X179091239Y-123299672D01*
X179268337Y-123175667D01*
X179268340Y-123175665D01*
X179272848Y-123172508D01*
X179433508Y-123011848D01*
X179546465Y-122850529D01*
X179601922Y-122806201D01*
X179649678Y-122796800D01*
X181151648Y-122796800D01*
X181162538Y-122797313D01*
X181169923Y-122798964D01*
X181177848Y-122798715D01*
X181177849Y-122798715D01*
X181236805Y-122796862D01*
X181240763Y-122796800D01*
X181268183Y-122796800D01*
X181272112Y-122796304D01*
X181272426Y-122796284D01*
X181283853Y-122795384D01*
X181327202Y-122794021D01*
X181346165Y-122788512D01*
X181365525Y-122784503D01*
X181377248Y-122783022D01*
X181377249Y-122783022D01*
X181385115Y-122782028D01*
X181392488Y-122779109D01*
X181425445Y-122766061D01*
X181436675Y-122762216D01*
X181470700Y-122752331D01*
X181470701Y-122752331D01*
X181478310Y-122750120D01*
X181485135Y-122746084D01*
X181495301Y-122740072D01*
X181513058Y-122731373D01*
X181518092Y-122729379D01*
X181524052Y-122727020D01*
X181524054Y-122727019D01*
X181531421Y-122724102D01*
X181566508Y-122698610D01*
X181576427Y-122692094D01*
X181606928Y-122674056D01*
X181606929Y-122674055D01*
X181613752Y-122670020D01*
X181627713Y-122656059D01*
X181642747Y-122643218D01*
X181652311Y-122636269D01*
X181658724Y-122631610D01*
X181686374Y-122598187D01*
X181694364Y-122589408D01*
X184140229Y-120143543D01*
X195235375Y-120143543D01*
X195251981Y-120312899D01*
X195305694Y-120474367D01*
X195309341Y-120480389D01*
X195309342Y-120480391D01*
X195385605Y-120606315D01*
X195393846Y-120619923D01*
X195512055Y-120742332D01*
X195654446Y-120835510D01*
X195661050Y-120837966D01*
X195661052Y-120837967D01*
X195697444Y-120851501D01*
X195813941Y-120894826D01*
X195982615Y-120917332D01*
X195989626Y-120916694D01*
X195989630Y-120916694D01*
X196145062Y-120902548D01*
X196152083Y-120901909D01*
X196158785Y-120899731D01*
X196158787Y-120899731D01*
X196307223Y-120851501D01*
X196307226Y-120851500D01*
X196313922Y-120849324D01*
X196460090Y-120762190D01*
X196465184Y-120757339D01*
X196465188Y-120757336D01*
X196532433Y-120693299D01*
X196583321Y-120644839D01*
X196597961Y-120622805D01*
X196647720Y-120547911D01*
X196677491Y-120503102D01*
X196737919Y-120344025D01*
X196761601Y-120175513D01*
X196761899Y-120154200D01*
X196742931Y-119985092D01*
X196686968Y-119824389D01*
X196680983Y-119814810D01*
X196601151Y-119687055D01*
X196596792Y-119680079D01*
X196476886Y-119559332D01*
X196460639Y-119549021D01*
X196415812Y-119520573D01*
X196333208Y-119468151D01*
X196172900Y-119411068D01*
X196003929Y-119390920D01*
X195996926Y-119391656D01*
X195996925Y-119391656D01*
X195841701Y-119407970D01*
X195841697Y-119407971D01*
X195834693Y-119408707D01*
X195828022Y-119410978D01*
X195680273Y-119461275D01*
X195680270Y-119461276D01*
X195673603Y-119463546D01*
X195667605Y-119467236D01*
X195667603Y-119467237D01*
X195534665Y-119549021D01*
X195534663Y-119549023D01*
X195528666Y-119552712D01*
X195508041Y-119572910D01*
X195417783Y-119661298D01*
X195407086Y-119671773D01*
X195403275Y-119677687D01*
X195403273Y-119677689D01*
X195351651Y-119757790D01*
X195314904Y-119814810D01*
X195256703Y-119974716D01*
X195235375Y-120143543D01*
X184140229Y-120143543D01*
X185128629Y-119155143D01*
X189602075Y-119155143D01*
X189618681Y-119324499D01*
X189672394Y-119485967D01*
X189676041Y-119491989D01*
X189676042Y-119491991D01*
X189725049Y-119572910D01*
X189760546Y-119631523D01*
X189878755Y-119753932D01*
X189884651Y-119757790D01*
X189996598Y-119831046D01*
X190021146Y-119847110D01*
X190027750Y-119849566D01*
X190027752Y-119849567D01*
X190064144Y-119863101D01*
X190180641Y-119906426D01*
X190349315Y-119928932D01*
X190356326Y-119928294D01*
X190356330Y-119928294D01*
X190511762Y-119914148D01*
X190518783Y-119913509D01*
X190525485Y-119911331D01*
X190525487Y-119911331D01*
X190673923Y-119863101D01*
X190673926Y-119863100D01*
X190680622Y-119860924D01*
X190826790Y-119773790D01*
X190831884Y-119768939D01*
X190831888Y-119768936D01*
X190930446Y-119675080D01*
X190950021Y-119656439D01*
X191044191Y-119514702D01*
X191104619Y-119355625D01*
X191128301Y-119187113D01*
X191128599Y-119165800D01*
X191109631Y-118996692D01*
X191053668Y-118835989D01*
X191047683Y-118826410D01*
X190992202Y-118737624D01*
X190963492Y-118691679D01*
X190843586Y-118570932D01*
X190827339Y-118560621D01*
X190788706Y-118536104D01*
X190699908Y-118479751D01*
X190539600Y-118422668D01*
X190370629Y-118402520D01*
X190363626Y-118403256D01*
X190363625Y-118403256D01*
X190208401Y-118419570D01*
X190208397Y-118419571D01*
X190201393Y-118420307D01*
X190194722Y-118422578D01*
X190046973Y-118472875D01*
X190046970Y-118472876D01*
X190040303Y-118475146D01*
X190034305Y-118478836D01*
X190034303Y-118478837D01*
X189901365Y-118560621D01*
X189901363Y-118560623D01*
X189895366Y-118564312D01*
X189773786Y-118683373D01*
X189769975Y-118689287D01*
X189769973Y-118689289D01*
X189691119Y-118811645D01*
X189681604Y-118826410D01*
X189623403Y-118986316D01*
X189602075Y-119155143D01*
X185128629Y-119155143D01*
X188064029Y-116219743D01*
X193699175Y-116219743D01*
X193715781Y-116389099D01*
X193718005Y-116395784D01*
X193718005Y-116395785D01*
X193721337Y-116405802D01*
X193769494Y-116550567D01*
X193773141Y-116556589D01*
X193773142Y-116556591D01*
X193825406Y-116642888D01*
X193857646Y-116696123D01*
X193975855Y-116818532D01*
X194118246Y-116911710D01*
X194124850Y-116914166D01*
X194124852Y-116914167D01*
X194181016Y-116935054D01*
X194277741Y-116971026D01*
X194446415Y-116993532D01*
X194453426Y-116992894D01*
X194453430Y-116992894D01*
X194608862Y-116978748D01*
X194615883Y-116978109D01*
X194622585Y-116975931D01*
X194622587Y-116975931D01*
X194771023Y-116927701D01*
X194771026Y-116927700D01*
X194777722Y-116925524D01*
X194923890Y-116838390D01*
X194928984Y-116833539D01*
X194928988Y-116833536D01*
X194997113Y-116768661D01*
X195047121Y-116721039D01*
X195051825Y-116713960D01*
X195129848Y-116596525D01*
X195141291Y-116579302D01*
X195201719Y-116420225D01*
X195225401Y-116251713D01*
X195225699Y-116230400D01*
X195206731Y-116061292D01*
X195150768Y-115900589D01*
X195144783Y-115891010D01*
X195122820Y-115855864D01*
X195060592Y-115756279D01*
X194940686Y-115635532D01*
X194924439Y-115625221D01*
X194885806Y-115600704D01*
X194797008Y-115544351D01*
X194636700Y-115487268D01*
X194467729Y-115467120D01*
X194460726Y-115467856D01*
X194460725Y-115467856D01*
X194305501Y-115484170D01*
X194305497Y-115484171D01*
X194298493Y-115484907D01*
X194291822Y-115487178D01*
X194144073Y-115537475D01*
X194144070Y-115537476D01*
X194137403Y-115539746D01*
X194131405Y-115543436D01*
X194131403Y-115543437D01*
X193998465Y-115625221D01*
X193998463Y-115625223D01*
X193992466Y-115628912D01*
X193870886Y-115747973D01*
X193778704Y-115891010D01*
X193720503Y-116050916D01*
X193699175Y-116219743D01*
X188064029Y-116219743D01*
X188926192Y-115357580D01*
X198585752Y-115357580D01*
X198610477Y-115475421D01*
X198613537Y-115485617D01*
X198694263Y-115690029D01*
X198698994Y-115699561D01*
X198813016Y-115887462D01*
X198819280Y-115896052D01*
X198963327Y-116062052D01*
X198970958Y-116069472D01*
X199140911Y-116208826D01*
X199149678Y-116214850D01*
X199340682Y-116323576D01*
X199350346Y-116328041D01*
X199556941Y-116403031D01*
X199567208Y-116405802D01*
X199770174Y-116442504D01*
X199783414Y-116441085D01*
X199788000Y-116426450D01*
X199788000Y-116422849D01*
X200296000Y-116422849D01*
X200300310Y-116437527D01*
X200312193Y-116439590D01*
X200391325Y-116432876D01*
X200401797Y-116431086D01*
X200614535Y-116375870D01*
X200624575Y-116372335D01*
X200824970Y-116282063D01*
X200834256Y-116276894D01*
X201016575Y-116154150D01*
X201024870Y-116147481D01*
X201183900Y-115995772D01*
X201190941Y-115987814D01*
X201322141Y-115811475D01*
X201327745Y-115802438D01*
X201427357Y-115606516D01*
X201431357Y-115596665D01*
X201496534Y-115386760D01*
X201498817Y-115376376D01*
X201500861Y-115360957D01*
X201498665Y-115346793D01*
X201485478Y-115343000D01*
X200314115Y-115343000D01*
X200298876Y-115347475D01*
X200297671Y-115348865D01*
X200296000Y-115356548D01*
X200296000Y-116422849D01*
X199788000Y-116422849D01*
X199788000Y-115361115D01*
X199783525Y-115345876D01*
X199782135Y-115344671D01*
X199774452Y-115343000D01*
X198600808Y-115343000D01*
X198587277Y-115346973D01*
X198585752Y-115357580D01*
X188926192Y-115357580D01*
X191084667Y-113199105D01*
X191136999Y-113170927D01*
X191136083Y-113168109D01*
X191291223Y-113117701D01*
X191291226Y-113117700D01*
X191297922Y-113115524D01*
X191444090Y-113028390D01*
X191449184Y-113023539D01*
X191449188Y-113023536D01*
X191538178Y-112938791D01*
X191567321Y-112911039D01*
X191586766Y-112881773D01*
X191639484Y-112802425D01*
X191661491Y-112769302D01*
X191721919Y-112610225D01*
X191733928Y-112524774D01*
X198555102Y-112524774D01*
X198563751Y-112755158D01*
X198564846Y-112760377D01*
X198572204Y-112795445D01*
X198611093Y-112980791D01*
X198613051Y-112985750D01*
X198613052Y-112985752D01*
X198665162Y-113117701D01*
X198695776Y-113195221D01*
X198815377Y-113392317D01*
X198818874Y-113396347D01*
X198905438Y-113496103D01*
X198966477Y-113566445D01*
X198970608Y-113569832D01*
X199140627Y-113709240D01*
X199140633Y-113709244D01*
X199144755Y-113712624D01*
X199149398Y-113715267D01*
X199176735Y-113730829D01*
X199226041Y-113781912D01*
X199239902Y-113851542D01*
X199213918Y-113917613D01*
X199184768Y-113944851D01*
X199067422Y-114023852D01*
X199059130Y-114030519D01*
X198900100Y-114182228D01*
X198893059Y-114190186D01*
X198761859Y-114366525D01*
X198756255Y-114375562D01*
X198656643Y-114571484D01*
X198652643Y-114581335D01*
X198587466Y-114791240D01*
X198585183Y-114801624D01*
X198583139Y-114817043D01*
X198585335Y-114831207D01*
X198598522Y-114835000D01*
X201483192Y-114835000D01*
X201496723Y-114831027D01*
X201498248Y-114820420D01*
X201473523Y-114702579D01*
X201470463Y-114692383D01*
X201389737Y-114487971D01*
X201385006Y-114478439D01*
X201270984Y-114290538D01*
X201264720Y-114281948D01*
X201120673Y-114115948D01*
X201113042Y-114108528D01*
X200943089Y-113969174D01*
X200934326Y-113963152D01*
X200907289Y-113947762D01*
X200857982Y-113896680D01*
X200844120Y-113827049D01*
X200870103Y-113760978D01*
X200899253Y-113733739D01*
X200952532Y-113697869D01*
X201021319Y-113651559D01*
X201188135Y-113492424D01*
X201325754Y-113307458D01*
X201332643Y-113293910D01*
X201395563Y-113170153D01*
X201430240Y-113101949D01*
X201439447Y-113072300D01*
X201497024Y-112886871D01*
X201498607Y-112881773D01*
X201512363Y-112777985D01*
X201528198Y-112658511D01*
X201528198Y-112658506D01*
X201528898Y-112653226D01*
X201520249Y-112422842D01*
X201472907Y-112197209D01*
X201470948Y-112192248D01*
X201390185Y-111987744D01*
X201390184Y-111987742D01*
X201388224Y-111982779D01*
X201353550Y-111925637D01*
X201271390Y-111790243D01*
X201268623Y-111785683D01*
X201181755Y-111685576D01*
X201121023Y-111615588D01*
X201121021Y-111615586D01*
X201117523Y-111611555D01*
X201065119Y-111568586D01*
X200943373Y-111468760D01*
X200943367Y-111468756D01*
X200939245Y-111465376D01*
X200907750Y-111447448D01*
X200858445Y-111396368D01*
X200844583Y-111326738D01*
X200870566Y-111260667D01*
X200899716Y-111233427D01*
X200935642Y-111209240D01*
X201021319Y-111151559D01*
X201051580Y-111122692D01*
X201184278Y-110996103D01*
X201188135Y-110992424D01*
X201325754Y-110807458D01*
X201430240Y-110601949D01*
X201446785Y-110548668D01*
X201497024Y-110386871D01*
X201498607Y-110381773D01*
X201512816Y-110274564D01*
X201528198Y-110158511D01*
X201528198Y-110158506D01*
X201528898Y-110153226D01*
X201527502Y-110116026D01*
X201520449Y-109928173D01*
X201520249Y-109922842D01*
X201472907Y-109697209D01*
X201434001Y-109598692D01*
X201390185Y-109487744D01*
X201390184Y-109487742D01*
X201388224Y-109482779D01*
X201365085Y-109444646D01*
X201271390Y-109290243D01*
X201268623Y-109285683D01*
X201181755Y-109185576D01*
X201121023Y-109115588D01*
X201121021Y-109115586D01*
X201117523Y-109111555D01*
X201072789Y-109074875D01*
X200943373Y-108968760D01*
X200943367Y-108968756D01*
X200939245Y-108965376D01*
X200907750Y-108947448D01*
X200858445Y-108896368D01*
X200844583Y-108826738D01*
X200870566Y-108760667D01*
X200899716Y-108733427D01*
X200935642Y-108709240D01*
X201021319Y-108651559D01*
X201188135Y-108492424D01*
X201196389Y-108481331D01*
X201307964Y-108331369D01*
X201325754Y-108307458D01*
X201338604Y-108282185D01*
X201418602Y-108124839D01*
X201430240Y-108101949D01*
X201433773Y-108090573D01*
X201497024Y-107886871D01*
X201498607Y-107881773D01*
X201514611Y-107761023D01*
X201528198Y-107658511D01*
X201528198Y-107658506D01*
X201528898Y-107653226D01*
X201528333Y-107638161D01*
X201520449Y-107428173D01*
X201520249Y-107422842D01*
X201472907Y-107197209D01*
X201459527Y-107163328D01*
X201390185Y-106987744D01*
X201390184Y-106987742D01*
X201388224Y-106982779D01*
X201382446Y-106973256D01*
X201271390Y-106790243D01*
X201268623Y-106785683D01*
X201250435Y-106764723D01*
X201121023Y-106615588D01*
X201121021Y-106615586D01*
X201117523Y-106611555D01*
X201068919Y-106571702D01*
X200943373Y-106468760D01*
X200943367Y-106468756D01*
X200939245Y-106465376D01*
X200907750Y-106447448D01*
X200858445Y-106396368D01*
X200844583Y-106326738D01*
X200870566Y-106260667D01*
X200899716Y-106233427D01*
X200935642Y-106209240D01*
X201021319Y-106151559D01*
X201188135Y-105992424D01*
X201207623Y-105966232D01*
X201322568Y-105811740D01*
X201325754Y-105807458D01*
X201430240Y-105601949D01*
X201443815Y-105558233D01*
X201497024Y-105386871D01*
X201498607Y-105381773D01*
X201499308Y-105376484D01*
X201528198Y-105158511D01*
X201528198Y-105158506D01*
X201528898Y-105153226D01*
X201520249Y-104922842D01*
X201472907Y-104697209D01*
X201388224Y-104482779D01*
X201268623Y-104285683D01*
X201181755Y-104185576D01*
X201121023Y-104115588D01*
X201121021Y-104115586D01*
X201117523Y-104111555D01*
X201081880Y-104082330D01*
X201041886Y-104023671D01*
X201039954Y-103952701D01*
X201076698Y-103891952D01*
X201095468Y-103877752D01*
X201235120Y-103791332D01*
X201241348Y-103787478D01*
X201366305Y-103662303D01*
X201459115Y-103511738D01*
X201514797Y-103343861D01*
X201525500Y-103239400D01*
X201525500Y-101938600D01*
X201514526Y-101832834D01*
X201491239Y-101763033D01*
X201460868Y-101672002D01*
X201458550Y-101665054D01*
X201365478Y-101514652D01*
X201240303Y-101389695D01*
X201234072Y-101385854D01*
X201095968Y-101300725D01*
X201095966Y-101300724D01*
X201089738Y-101296885D01*
X200929254Y-101243655D01*
X200928389Y-101243368D01*
X200928387Y-101243368D01*
X200921861Y-101241203D01*
X200915025Y-101240503D01*
X200915022Y-101240502D01*
X200871969Y-101236091D01*
X200817400Y-101230500D01*
X199266600Y-101230500D01*
X199263354Y-101230837D01*
X199263350Y-101230837D01*
X199167692Y-101240762D01*
X199167688Y-101240763D01*
X199160834Y-101241474D01*
X199154298Y-101243655D01*
X199154296Y-101243655D01*
X199022194Y-101287728D01*
X198993054Y-101297450D01*
X198842652Y-101390522D01*
X198717695Y-101515697D01*
X198624885Y-101666262D01*
X198622581Y-101673209D01*
X198574639Y-101817751D01*
X198569203Y-101834139D01*
X198558500Y-101938600D01*
X198558500Y-103239400D01*
X198558837Y-103242646D01*
X198558837Y-103242650D01*
X198561357Y-103266932D01*
X198569474Y-103345166D01*
X198625450Y-103512946D01*
X198718522Y-103663348D01*
X198843697Y-103788305D01*
X198989340Y-103878081D01*
X199036832Y-103930852D01*
X199048256Y-104000924D01*
X199019982Y-104066048D01*
X199010195Y-104076510D01*
X198895865Y-104185576D01*
X198758246Y-104370542D01*
X198653760Y-104576051D01*
X198652178Y-104581145D01*
X198652177Y-104581148D01*
X198590115Y-104781020D01*
X198585393Y-104796227D01*
X198584692Y-104801516D01*
X198569304Y-104917623D01*
X198555102Y-105024774D01*
X198563751Y-105255158D01*
X198611093Y-105480791D01*
X198613051Y-105485750D01*
X198613052Y-105485752D01*
X198641677Y-105558233D01*
X198695776Y-105695221D01*
X198698543Y-105699780D01*
X198698544Y-105699783D01*
X198760998Y-105802703D01*
X198815377Y-105892317D01*
X198818874Y-105896347D01*
X198905438Y-105996103D01*
X198966477Y-106066445D01*
X198970608Y-106069832D01*
X199140627Y-106209240D01*
X199140633Y-106209244D01*
X199144755Y-106212624D01*
X199176250Y-106230552D01*
X199225555Y-106281632D01*
X199239417Y-106351262D01*
X199213434Y-106417333D01*
X199184284Y-106444573D01*
X199062681Y-106526441D01*
X199058824Y-106530120D01*
X199058822Y-106530122D01*
X198992487Y-106593403D01*
X198895865Y-106685576D01*
X198758246Y-106870542D01*
X198755830Y-106875293D01*
X198755828Y-106875297D01*
X198706398Y-106972520D01*
X198653760Y-107076051D01*
X198652178Y-107081145D01*
X198652177Y-107081148D01*
X198594265Y-107267654D01*
X198585393Y-107296227D01*
X198584692Y-107301516D01*
X198569304Y-107417623D01*
X198555102Y-107524774D01*
X198563751Y-107755158D01*
X198611093Y-107980791D01*
X198613051Y-107985750D01*
X198613052Y-107985752D01*
X198667981Y-108124839D01*
X198695776Y-108195221D01*
X198698543Y-108199780D01*
X198698544Y-108199783D01*
X198714775Y-108226531D01*
X198815377Y-108392317D01*
X198818874Y-108396347D01*
X198907084Y-108498000D01*
X198966477Y-108566445D01*
X198970608Y-108569832D01*
X199140627Y-108709240D01*
X199140633Y-108709244D01*
X199144755Y-108712624D01*
X199176250Y-108730552D01*
X199225555Y-108781632D01*
X199239417Y-108851262D01*
X199213434Y-108917333D01*
X199184284Y-108944573D01*
X199062681Y-109026441D01*
X198895865Y-109185576D01*
X198758246Y-109370542D01*
X198755830Y-109375293D01*
X198755828Y-109375297D01*
X198723954Y-109437989D01*
X198653760Y-109576051D01*
X198652178Y-109581145D01*
X198652177Y-109581148D01*
X198602534Y-109741023D01*
X198585393Y-109796227D01*
X198584692Y-109801516D01*
X198562339Y-109970173D01*
X198555102Y-110024774D01*
X198555302Y-110030103D01*
X198555302Y-110030105D01*
X198557339Y-110084363D01*
X198563751Y-110255158D01*
X198611093Y-110480791D01*
X198613051Y-110485750D01*
X198613052Y-110485752D01*
X198681778Y-110659775D01*
X198695776Y-110695221D01*
X198698543Y-110699780D01*
X198698544Y-110699783D01*
X198760998Y-110802703D01*
X198815377Y-110892317D01*
X198818874Y-110896347D01*
X198905438Y-110996103D01*
X198966477Y-111066445D01*
X198970608Y-111069832D01*
X199140627Y-111209240D01*
X199140633Y-111209244D01*
X199144755Y-111212624D01*
X199176250Y-111230552D01*
X199225555Y-111281632D01*
X199239417Y-111351262D01*
X199213434Y-111417333D01*
X199184284Y-111444573D01*
X199062681Y-111526441D01*
X198895865Y-111685576D01*
X198758246Y-111870542D01*
X198755830Y-111875293D01*
X198755828Y-111875297D01*
X198706098Y-111973110D01*
X198653760Y-112076051D01*
X198652178Y-112081145D01*
X198652177Y-112081148D01*
X198594379Y-112267287D01*
X198585393Y-112296227D01*
X198584692Y-112301516D01*
X198566111Y-112441713D01*
X198555102Y-112524774D01*
X191733928Y-112524774D01*
X191745601Y-112441713D01*
X191745721Y-112433116D01*
X191745844Y-112424361D01*
X191745844Y-112424355D01*
X191745899Y-112420400D01*
X191726931Y-112251292D01*
X191670968Y-112090589D01*
X191580792Y-111946279D01*
X191561202Y-111926551D01*
X191510304Y-111875297D01*
X191460886Y-111825532D01*
X191452715Y-111820346D01*
X191391744Y-111781653D01*
X191317208Y-111734351D01*
X191271756Y-111718166D01*
X191236933Y-111705766D01*
X191179469Y-111664072D01*
X191153669Y-111597929D01*
X191153200Y-111587067D01*
X191153200Y-110220052D01*
X191174252Y-110150325D01*
X191196591Y-110116702D01*
X191257019Y-109957625D01*
X191280701Y-109789113D01*
X191280999Y-109767800D01*
X191262031Y-109598692D01*
X191206068Y-109437989D01*
X191200083Y-109428410D01*
X191161246Y-109366260D01*
X191115892Y-109293679D01*
X190995986Y-109172932D01*
X190979739Y-109162621D01*
X190905626Y-109115588D01*
X190852308Y-109081751D01*
X190692000Y-109024668D01*
X190523029Y-109004520D01*
X190516026Y-109005256D01*
X190516025Y-109005256D01*
X190360801Y-109021570D01*
X190360797Y-109021571D01*
X190353793Y-109022307D01*
X190347122Y-109024578D01*
X190199373Y-109074875D01*
X190199370Y-109074876D01*
X190192703Y-109077146D01*
X190186705Y-109080836D01*
X190186703Y-109080837D01*
X190053765Y-109162621D01*
X190053763Y-109162623D01*
X190047766Y-109166312D01*
X189926186Y-109285373D01*
X189834004Y-109428410D01*
X189775803Y-109588316D01*
X189754475Y-109757143D01*
X189771081Y-109926499D01*
X189824794Y-110087967D01*
X189828443Y-110093992D01*
X189863976Y-110152664D01*
X189882200Y-110217936D01*
X189882200Y-111382777D01*
X189862198Y-111450898D01*
X189845295Y-111471872D01*
X189577898Y-111739269D01*
X189529409Y-111769451D01*
X189504647Y-111777880D01*
X189386573Y-111818075D01*
X189386570Y-111818076D01*
X189379903Y-111820346D01*
X189373905Y-111824036D01*
X189373903Y-111824037D01*
X189240965Y-111905821D01*
X189240963Y-111905823D01*
X189234966Y-111909512D01*
X189222269Y-111921946D01*
X189134986Y-112007421D01*
X189113386Y-112028573D01*
X189109575Y-112034487D01*
X189109573Y-112034489D01*
X189050968Y-112125426D01*
X188997253Y-112171850D01*
X188926967Y-112181865D01*
X188862423Y-112152289D01*
X188824157Y-112092577D01*
X188823631Y-112087892D01*
X188821283Y-112081148D01*
X188789228Y-111989101D01*
X188767668Y-111927189D01*
X188677492Y-111782879D01*
X188557586Y-111662132D01*
X188413908Y-111570951D01*
X188253600Y-111513868D01*
X188246601Y-111513034D01*
X188241701Y-111511884D01*
X188181380Y-111478308D01*
X186707005Y-110003932D01*
X186672979Y-109941620D01*
X186670100Y-109914837D01*
X186670100Y-108549937D01*
X186691152Y-108480210D01*
X186696890Y-108471574D01*
X186696891Y-108471572D01*
X186700791Y-108465702D01*
X186713105Y-108433285D01*
X186755994Y-108376707D01*
X186822663Y-108352298D01*
X186850606Y-108353581D01*
X186877620Y-108357860D01*
X186889240Y-108360266D01*
X186924537Y-108369328D01*
X186932218Y-108371300D01*
X186952566Y-108371300D01*
X186972278Y-108372851D01*
X186992380Y-108376035D01*
X187036555Y-108371859D01*
X187048414Y-108371300D01*
X189761179Y-108371300D01*
X189830172Y-108391868D01*
X189868746Y-108417110D01*
X189875350Y-108419566D01*
X189875352Y-108419567D01*
X189948493Y-108446768D01*
X190028241Y-108476426D01*
X190196915Y-108498932D01*
X190203926Y-108498294D01*
X190203930Y-108498294D01*
X190359362Y-108484148D01*
X190366383Y-108483509D01*
X190373085Y-108481331D01*
X190373087Y-108481331D01*
X190521523Y-108433101D01*
X190521526Y-108433100D01*
X190528222Y-108430924D01*
X190674390Y-108343790D01*
X190679484Y-108338939D01*
X190679488Y-108338936D01*
X190753463Y-108268490D01*
X190797621Y-108226439D01*
X190827495Y-108181476D01*
X190877173Y-108106704D01*
X190891791Y-108084702D01*
X190952219Y-107925625D01*
X190975901Y-107757113D01*
X190976199Y-107735800D01*
X190957231Y-107566692D01*
X190901268Y-107405989D01*
X190811092Y-107261679D01*
X190691186Y-107140932D01*
X190547508Y-107049751D01*
X190387200Y-106992668D01*
X190218229Y-106972520D01*
X190211226Y-106973256D01*
X190211225Y-106973256D01*
X190056001Y-106989570D01*
X190055997Y-106989571D01*
X190048993Y-106990307D01*
X190042322Y-106992578D01*
X189894573Y-107042875D01*
X189894570Y-107042876D01*
X189887903Y-107045146D01*
X189837668Y-107076051D01*
X189828621Y-107081617D01*
X189762598Y-107100300D01*
X187327923Y-107100300D01*
X187259802Y-107080298D01*
X187238828Y-107063395D01*
X186908150Y-106732717D01*
X186900574Y-106724391D01*
X186896453Y-106717897D01*
X186846634Y-106671114D01*
X186843793Y-106668360D01*
X186823994Y-106648561D01*
X186820869Y-106646137D01*
X186820860Y-106646129D01*
X186820774Y-106646063D01*
X186811749Y-106638355D01*
X186787973Y-106616028D01*
X186779406Y-106607983D01*
X186761569Y-106598177D01*
X186745053Y-106587327D01*
X186728967Y-106574850D01*
X186688234Y-106557224D01*
X186677586Y-106552007D01*
X186648691Y-106536122D01*
X186638703Y-106530631D01*
X186631028Y-106528660D01*
X186631022Y-106528658D01*
X186618989Y-106525569D01*
X186600287Y-106519166D01*
X186581608Y-106511083D01*
X186541813Y-106504780D01*
X186537773Y-106504140D01*
X186526160Y-106501735D01*
X186483182Y-106490700D01*
X186462835Y-106490700D01*
X186443124Y-106489149D01*
X186430850Y-106487205D01*
X186423021Y-106485965D01*
X186415129Y-106486711D01*
X186378844Y-106490141D01*
X186366986Y-106490700D01*
X184348320Y-106490700D01*
X184337091Y-106490171D01*
X184329581Y-106488492D01*
X184321655Y-106488741D01*
X184321654Y-106488741D01*
X184261302Y-106490638D01*
X184257344Y-106490700D01*
X184229317Y-106490700D01*
X184225271Y-106491211D01*
X184213443Y-106492142D01*
X184169095Y-106493536D01*
X184161478Y-106495749D01*
X184149553Y-106499213D01*
X184130194Y-106503222D01*
X184128933Y-106503381D01*
X184110001Y-106505773D01*
X184102637Y-106508689D01*
X184102632Y-106508690D01*
X184080721Y-106517366D01*
X184068728Y-106522114D01*
X184057524Y-106525951D01*
X184014907Y-106538332D01*
X183997394Y-106548689D01*
X183979643Y-106557385D01*
X183968085Y-106561961D01*
X183968080Y-106561964D01*
X183960712Y-106564881D01*
X183954297Y-106569542D01*
X183924807Y-106590967D01*
X183914885Y-106597484D01*
X183883528Y-106616028D01*
X183883525Y-106616030D01*
X183876701Y-106620066D01*
X183862314Y-106634453D01*
X183847280Y-106647294D01*
X183830813Y-106659258D01*
X183825760Y-106665366D01*
X183802528Y-106693449D01*
X183794538Y-106702229D01*
X182701517Y-107795250D01*
X182639205Y-107829276D01*
X182568390Y-107824211D01*
X182511554Y-107781664D01*
X182486743Y-107715144D01*
X182487648Y-107688619D01*
X182491752Y-107659421D01*
X182491752Y-107659418D01*
X182492301Y-107655513D01*
X182492599Y-107634200D01*
X182473631Y-107465092D01*
X182457101Y-107417623D01*
X182419986Y-107311046D01*
X182417668Y-107304389D01*
X182413935Y-107298415D01*
X182413933Y-107298411D01*
X182371246Y-107230098D01*
X182352100Y-107163328D01*
X182352100Y-106288343D01*
X190879775Y-106288343D01*
X190896381Y-106457699D01*
X190898605Y-106464384D01*
X190898605Y-106464385D01*
X190907777Y-106491956D01*
X190950094Y-106619167D01*
X190953741Y-106625189D01*
X190953742Y-106625191D01*
X190992904Y-106689854D01*
X191038246Y-106764723D01*
X191156455Y-106887132D01*
X191162351Y-106890990D01*
X191286942Y-106972520D01*
X191298846Y-106980310D01*
X191305450Y-106982766D01*
X191305452Y-106982767D01*
X191341844Y-106996301D01*
X191458341Y-107039626D01*
X191627015Y-107062132D01*
X191634026Y-107061494D01*
X191634030Y-107061494D01*
X191789462Y-107047348D01*
X191796483Y-107046709D01*
X191803185Y-107044531D01*
X191803187Y-107044531D01*
X191951623Y-106996301D01*
X191951626Y-106996300D01*
X191958322Y-106994124D01*
X192104490Y-106906990D01*
X192109584Y-106902139D01*
X192109588Y-106902136D01*
X192176833Y-106838099D01*
X192227721Y-106789639D01*
X192321891Y-106647902D01*
X192382319Y-106488825D01*
X192406001Y-106320313D01*
X192406299Y-106299000D01*
X192387331Y-106129892D01*
X192331368Y-105969189D01*
X192325383Y-105959610D01*
X192280483Y-105887757D01*
X192241192Y-105824879D01*
X192219171Y-105802703D01*
X192126248Y-105709129D01*
X192121286Y-105704132D01*
X192114434Y-105699783D01*
X192066406Y-105669304D01*
X191977608Y-105612951D01*
X191817300Y-105555868D01*
X191648329Y-105535720D01*
X191641326Y-105536456D01*
X191641325Y-105536456D01*
X191486101Y-105552770D01*
X191486097Y-105552771D01*
X191479093Y-105553507D01*
X191472422Y-105555778D01*
X191324673Y-105606075D01*
X191324670Y-105606076D01*
X191318003Y-105608346D01*
X191312005Y-105612036D01*
X191312003Y-105612037D01*
X191179065Y-105693821D01*
X191179063Y-105693823D01*
X191173066Y-105697512D01*
X191051486Y-105816573D01*
X191047675Y-105822487D01*
X191047673Y-105822489D01*
X190963121Y-105953687D01*
X190959304Y-105959610D01*
X190901103Y-106119516D01*
X190879775Y-106288343D01*
X182352100Y-106288343D01*
X182352100Y-102493151D01*
X187562967Y-102493151D01*
X187579573Y-102662507D01*
X187581797Y-102669192D01*
X187581797Y-102669193D01*
X187592116Y-102700214D01*
X187633286Y-102823975D01*
X187636933Y-102829997D01*
X187636934Y-102829999D01*
X187650684Y-102852702D01*
X187721438Y-102969531D01*
X187839647Y-103091940D01*
X187982038Y-103185118D01*
X187988642Y-103187574D01*
X187988644Y-103187575D01*
X188061785Y-103214776D01*
X188141533Y-103244434D01*
X188310207Y-103266940D01*
X188317218Y-103266302D01*
X188317222Y-103266302D01*
X188472654Y-103252156D01*
X188479675Y-103251517D01*
X188486377Y-103249339D01*
X188486379Y-103249339D01*
X188641514Y-103198932D01*
X188642051Y-103200585D01*
X188703517Y-103191904D01*
X188729189Y-103198477D01*
X188852741Y-103244426D01*
X189021415Y-103266932D01*
X189028426Y-103266294D01*
X189028430Y-103266294D01*
X189183862Y-103252148D01*
X189190883Y-103251509D01*
X189197585Y-103249331D01*
X189197587Y-103249331D01*
X189346023Y-103201101D01*
X189346026Y-103201100D01*
X189352722Y-103198924D01*
X189498890Y-103111790D01*
X189503984Y-103106939D01*
X189503988Y-103106936D01*
X189571233Y-103042899D01*
X189622121Y-102994439D01*
X189635306Y-102974595D01*
X189712390Y-102858573D01*
X189716291Y-102852702D01*
X189776719Y-102693625D01*
X189800401Y-102525113D01*
X189800699Y-102503800D01*
X189781731Y-102334692D01*
X189778121Y-102324324D01*
X189728086Y-102180646D01*
X189725768Y-102173989D01*
X189719788Y-102164418D01*
X189697820Y-102129264D01*
X189635592Y-102029679D01*
X189515686Y-101908932D01*
X189505268Y-101902320D01*
X189460806Y-101874104D01*
X189372008Y-101817751D01*
X189211700Y-101760668D01*
X189042729Y-101740520D01*
X189035726Y-101741256D01*
X189035725Y-101741256D01*
X188880501Y-101757570D01*
X188880497Y-101757571D01*
X188873493Y-101758307D01*
X188720933Y-101810242D01*
X188650003Y-101813260D01*
X188638068Y-101809664D01*
X188500492Y-101760676D01*
X188331521Y-101740528D01*
X188324518Y-101741264D01*
X188324517Y-101741264D01*
X188169293Y-101757578D01*
X188169289Y-101757579D01*
X188162285Y-101758315D01*
X188155614Y-101760586D01*
X188007865Y-101810883D01*
X188007862Y-101810884D01*
X188001195Y-101813154D01*
X187995197Y-101816844D01*
X187995195Y-101816845D01*
X187862257Y-101898629D01*
X187862255Y-101898631D01*
X187856258Y-101902320D01*
X187734678Y-102021381D01*
X187730867Y-102027295D01*
X187730865Y-102027297D01*
X187646313Y-102158495D01*
X187642496Y-102164418D01*
X187584295Y-102324324D01*
X187562967Y-102493151D01*
X182352100Y-102493151D01*
X182352100Y-91868974D01*
X198395002Y-91868974D01*
X198403651Y-92099358D01*
X198450993Y-92324991D01*
X198452951Y-92329950D01*
X198452952Y-92329952D01*
X198466855Y-92365155D01*
X198535676Y-92539421D01*
X198538443Y-92543980D01*
X198538444Y-92543983D01*
X198600898Y-92646903D01*
X198655277Y-92736517D01*
X198658774Y-92740547D01*
X198745338Y-92840303D01*
X198806377Y-92910645D01*
X198810508Y-92914032D01*
X198980527Y-93053440D01*
X198980533Y-93053444D01*
X198984655Y-93056824D01*
X198989291Y-93059463D01*
X198989294Y-93059465D01*
X199115480Y-93131294D01*
X199185014Y-93170875D01*
X199401725Y-93249537D01*
X199406974Y-93250486D01*
X199406977Y-93250487D01*
X199624508Y-93289823D01*
X199624515Y-93289824D01*
X199628592Y-93290561D01*
X199646314Y-93291397D01*
X199651256Y-93291630D01*
X199651263Y-93291630D01*
X199652744Y-93291700D01*
X200064790Y-93291700D01*
X200131709Y-93286022D01*
X200231309Y-93277571D01*
X200231313Y-93277570D01*
X200236620Y-93277120D01*
X200241775Y-93275782D01*
X200241781Y-93275781D01*
X200454603Y-93220543D01*
X200454607Y-93220542D01*
X200459772Y-93219201D01*
X200464638Y-93217009D01*
X200464641Y-93217008D01*
X200665102Y-93126707D01*
X200669975Y-93124512D01*
X200861219Y-92995759D01*
X201028035Y-92836624D01*
X201034080Y-92828500D01*
X201137895Y-92688967D01*
X201165654Y-92651658D01*
X201270140Y-92446149D01*
X201288766Y-92386166D01*
X201336924Y-92231071D01*
X201338507Y-92225973D01*
X201344243Y-92182697D01*
X201368098Y-92002711D01*
X201368098Y-92002706D01*
X201368798Y-91997426D01*
X201360149Y-91767042D01*
X201312807Y-91541409D01*
X201228124Y-91326979D01*
X201108523Y-91129883D01*
X201021655Y-91029776D01*
X200960923Y-90959788D01*
X200960921Y-90959786D01*
X200957423Y-90955755D01*
X200878350Y-90890919D01*
X200783273Y-90812960D01*
X200783267Y-90812956D01*
X200779145Y-90809576D01*
X200747650Y-90791648D01*
X200698345Y-90740568D01*
X200684483Y-90670938D01*
X200710466Y-90604867D01*
X200739616Y-90577627D01*
X200775542Y-90553440D01*
X200861219Y-90495759D01*
X201028035Y-90336624D01*
X201165654Y-90151658D01*
X201270140Y-89946149D01*
X201306221Y-89829952D01*
X201336924Y-89731071D01*
X201338507Y-89725973D01*
X201354079Y-89608484D01*
X201368098Y-89502711D01*
X201368098Y-89502706D01*
X201368798Y-89497426D01*
X201360149Y-89267042D01*
X201312807Y-89041409D01*
X201307866Y-89028898D01*
X201230085Y-88831944D01*
X201230084Y-88831942D01*
X201228124Y-88826979D01*
X201165165Y-88723225D01*
X201111290Y-88634443D01*
X201108523Y-88629883D01*
X201021655Y-88529776D01*
X200960923Y-88459788D01*
X200960921Y-88459786D01*
X200957423Y-88455755D01*
X200915870Y-88421684D01*
X200783273Y-88312960D01*
X200783267Y-88312956D01*
X200779145Y-88309576D01*
X200747650Y-88291648D01*
X200698345Y-88240568D01*
X200684483Y-88170938D01*
X200710466Y-88104867D01*
X200739616Y-88077627D01*
X200770516Y-88056824D01*
X200861219Y-87995759D01*
X201028035Y-87836624D01*
X201165654Y-87651658D01*
X201270140Y-87446149D01*
X201306221Y-87329952D01*
X201336924Y-87231071D01*
X201338507Y-87225973D01*
X201344711Y-87179166D01*
X201368098Y-87002711D01*
X201368098Y-87002706D01*
X201368798Y-86997426D01*
X201368371Y-86986038D01*
X201360349Y-86772373D01*
X201360149Y-86767042D01*
X201342449Y-86682681D01*
X201313902Y-86546628D01*
X201312807Y-86541409D01*
X201296371Y-86499790D01*
X201230085Y-86331944D01*
X201230084Y-86331942D01*
X201228124Y-86326979D01*
X201108523Y-86129883D01*
X201019488Y-86027279D01*
X200960923Y-85959788D01*
X200960921Y-85959786D01*
X200957423Y-85955755D01*
X200921780Y-85926530D01*
X200881786Y-85867871D01*
X200879854Y-85796901D01*
X200916598Y-85736152D01*
X200935368Y-85721952D01*
X201075020Y-85635532D01*
X201081248Y-85631678D01*
X201102174Y-85610716D01*
X201201034Y-85511683D01*
X201206205Y-85506503D01*
X201210046Y-85500272D01*
X201295175Y-85362168D01*
X201295176Y-85362166D01*
X201299015Y-85355938D01*
X201352096Y-85195904D01*
X201352532Y-85194589D01*
X201352532Y-85194587D01*
X201354697Y-85188061D01*
X201365400Y-85083600D01*
X201365400Y-83782800D01*
X201354426Y-83677034D01*
X201298450Y-83509254D01*
X201205378Y-83358852D01*
X201080203Y-83233895D01*
X201073972Y-83230054D01*
X200935868Y-83144925D01*
X200935866Y-83144924D01*
X200929638Y-83141085D01*
X200769154Y-83087855D01*
X200768289Y-83087568D01*
X200768287Y-83087568D01*
X200761761Y-83085403D01*
X200754925Y-83084703D01*
X200754922Y-83084702D01*
X200711869Y-83080291D01*
X200657300Y-83074700D01*
X199106500Y-83074700D01*
X199103254Y-83075037D01*
X199103250Y-83075037D01*
X199007592Y-83084962D01*
X199007588Y-83084963D01*
X199000734Y-83085674D01*
X198994198Y-83087855D01*
X198994196Y-83087855D01*
X198862094Y-83131928D01*
X198832954Y-83141650D01*
X198682552Y-83234722D01*
X198557595Y-83359897D01*
X198464785Y-83510462D01*
X198409103Y-83678339D01*
X198398400Y-83782800D01*
X198398400Y-85083600D01*
X198398737Y-85086846D01*
X198398737Y-85086850D01*
X198405397Y-85151033D01*
X198409374Y-85189366D01*
X198411555Y-85195902D01*
X198411555Y-85195904D01*
X198445261Y-85296932D01*
X198465350Y-85357146D01*
X198558422Y-85507548D01*
X198683597Y-85632505D01*
X198829240Y-85722281D01*
X198876732Y-85775052D01*
X198888156Y-85845124D01*
X198859882Y-85910248D01*
X198850095Y-85920710D01*
X198735765Y-86029776D01*
X198598146Y-86214742D01*
X198595730Y-86219493D01*
X198595728Y-86219497D01*
X198585133Y-86240336D01*
X198493660Y-86420251D01*
X198492078Y-86425345D01*
X198492077Y-86425348D01*
X198450770Y-86558378D01*
X198425293Y-86640427D01*
X198424592Y-86645716D01*
X198397581Y-86849519D01*
X198395002Y-86868974D01*
X198403651Y-87099358D01*
X198450993Y-87324991D01*
X198452951Y-87329950D01*
X198452952Y-87329952D01*
X198521733Y-87504114D01*
X198535676Y-87539421D01*
X198538443Y-87543980D01*
X198538444Y-87543983D01*
X198600898Y-87646903D01*
X198655277Y-87736517D01*
X198658774Y-87740547D01*
X198778335Y-87878329D01*
X198806377Y-87910645D01*
X198810508Y-87914032D01*
X198980527Y-88053440D01*
X198980533Y-88053444D01*
X198984655Y-88056824D01*
X199016150Y-88074752D01*
X199065455Y-88125832D01*
X199079317Y-88195462D01*
X199053334Y-88261533D01*
X199024184Y-88288773D01*
X198902581Y-88370641D01*
X198735765Y-88529776D01*
X198598146Y-88714742D01*
X198493660Y-88920251D01*
X198492078Y-88925345D01*
X198492077Y-88925348D01*
X198430015Y-89125220D01*
X198425293Y-89140427D01*
X198424592Y-89145716D01*
X198401100Y-89322968D01*
X198395002Y-89368974D01*
X198403651Y-89599358D01*
X198450993Y-89824991D01*
X198535676Y-90039421D01*
X198655277Y-90236517D01*
X198658774Y-90240547D01*
X198745338Y-90340303D01*
X198806377Y-90410645D01*
X198810508Y-90414032D01*
X198980527Y-90553440D01*
X198980533Y-90553444D01*
X198984655Y-90556824D01*
X199016150Y-90574752D01*
X199065455Y-90625832D01*
X199079317Y-90695462D01*
X199053334Y-90761533D01*
X199024184Y-90788773D01*
X199019911Y-90791650D01*
X198902581Y-90870641D01*
X198898724Y-90874320D01*
X198898722Y-90874322D01*
X198847151Y-90923519D01*
X198735765Y-91029776D01*
X198598146Y-91214742D01*
X198493660Y-91420251D01*
X198492078Y-91425345D01*
X198492077Y-91425348D01*
X198436132Y-91605520D01*
X198425293Y-91640427D01*
X198424592Y-91645716D01*
X198407599Y-91773932D01*
X198395002Y-91868974D01*
X182352100Y-91868974D01*
X182352100Y-89385222D01*
X182372102Y-89317101D01*
X182425758Y-89270608D01*
X182439164Y-89265389D01*
X182545923Y-89230701D01*
X182545926Y-89230700D01*
X182552622Y-89228524D01*
X182698790Y-89141390D01*
X182703884Y-89136539D01*
X182703888Y-89136536D01*
X182798300Y-89046628D01*
X182822021Y-89024039D01*
X182916191Y-88882302D01*
X182976619Y-88723225D01*
X183000301Y-88554713D01*
X183000599Y-88533400D01*
X182981631Y-88364292D01*
X182978665Y-88355773D01*
X182938919Y-88241641D01*
X182925668Y-88203589D01*
X182835492Y-88059279D01*
X182715586Y-87938532D01*
X182704852Y-87931720D01*
X182658055Y-87878329D01*
X182647553Y-87808114D01*
X182676679Y-87743366D01*
X182685478Y-87734091D01*
X182712046Y-87708791D01*
X182771221Y-87652439D01*
X182865391Y-87510702D01*
X182925819Y-87351625D01*
X182949501Y-87183113D01*
X182949799Y-87161800D01*
X182930831Y-86992692D01*
X182874868Y-86831989D01*
X182854730Y-86799761D01*
X182823085Y-86749120D01*
X182784692Y-86687679D01*
X182762398Y-86665228D01*
X182728591Y-86602799D01*
X182733903Y-86532001D01*
X182764912Y-86485199D01*
X182833114Y-86420251D01*
X182872821Y-86382439D01*
X182966991Y-86240702D01*
X183027419Y-86081625D01*
X183051101Y-85913113D01*
X183051399Y-85891800D01*
X183032431Y-85722692D01*
X182976468Y-85561989D01*
X182886292Y-85417679D01*
X182870113Y-85401386D01*
X182810840Y-85341698D01*
X182766386Y-85296932D01*
X182745650Y-85283772D01*
X182703394Y-85256956D01*
X182622708Y-85205751D01*
X182462400Y-85148668D01*
X182293429Y-85128520D01*
X182286426Y-85129256D01*
X182286425Y-85129256D01*
X182131201Y-85145570D01*
X182131197Y-85145571D01*
X182124193Y-85146307D01*
X182117522Y-85148578D01*
X181969773Y-85198875D01*
X181969770Y-85198876D01*
X181963103Y-85201146D01*
X181872386Y-85256956D01*
X181834105Y-85271116D01*
X181834298Y-85271779D01*
X181815336Y-85277288D01*
X181795975Y-85281297D01*
X181784252Y-85282778D01*
X181784251Y-85282778D01*
X181776385Y-85283772D01*
X181769013Y-85286691D01*
X181769012Y-85286691D01*
X181736055Y-85299739D01*
X181724825Y-85303584D01*
X181690800Y-85313469D01*
X181683190Y-85315680D01*
X181666200Y-85325728D01*
X181648441Y-85334428D01*
X181642562Y-85336756D01*
X181630079Y-85341698D01*
X181610480Y-85355938D01*
X181595001Y-85367184D01*
X181585077Y-85373703D01*
X181554570Y-85391744D01*
X181554565Y-85391748D01*
X181547747Y-85395780D01*
X181533783Y-85409744D01*
X181518750Y-85422584D01*
X181502776Y-85434190D01*
X181481102Y-85460389D01*
X181475131Y-85467607D01*
X181467141Y-85476386D01*
X180276814Y-86666713D01*
X180268747Y-86674055D01*
X180262357Y-86678110D01*
X180216565Y-86726874D01*
X180213810Y-86729717D01*
X180194407Y-86749120D01*
X180191976Y-86752254D01*
X180191813Y-86752439D01*
X180184322Y-86761210D01*
X180154640Y-86792818D01*
X180150823Y-86799761D01*
X180145130Y-86810117D01*
X180134277Y-86826639D01*
X180122169Y-86842249D01*
X180104937Y-86882068D01*
X180099730Y-86892698D01*
X180078833Y-86930710D01*
X180076862Y-86938388D01*
X180076859Y-86938395D01*
X180073922Y-86949834D01*
X180067518Y-86968539D01*
X180059675Y-86986663D01*
X180058435Y-86994492D01*
X180052891Y-87029496D01*
X180050484Y-87041119D01*
X180047353Y-87053314D01*
X180039700Y-87083122D01*
X180039700Y-87102868D01*
X180038149Y-87122578D01*
X180035060Y-87142082D01*
X180035806Y-87149974D01*
X180039141Y-87185256D01*
X180039700Y-87197113D01*
X180039700Y-109995248D01*
X180039187Y-110006138D01*
X180037536Y-110013523D01*
X180037785Y-110021448D01*
X180037785Y-110021449D01*
X180039638Y-110080405D01*
X180039700Y-110084363D01*
X180039700Y-110111783D01*
X180040196Y-110115712D01*
X180040216Y-110116026D01*
X180041116Y-110127453D01*
X180042479Y-110170802D01*
X180045952Y-110182755D01*
X180047988Y-110189764D01*
X180051997Y-110209125D01*
X180053378Y-110220052D01*
X180054472Y-110228715D01*
X180057391Y-110236087D01*
X180057391Y-110236088D01*
X180070439Y-110269045D01*
X180074284Y-110280275D01*
X180083072Y-110310524D01*
X180086380Y-110321910D01*
X180090415Y-110328734D01*
X180090416Y-110328735D01*
X180096428Y-110338901D01*
X180105127Y-110356658D01*
X180112398Y-110375021D01*
X180130281Y-110399635D01*
X180137890Y-110410108D01*
X180144404Y-110420025D01*
X180166480Y-110457352D01*
X180180441Y-110471313D01*
X180193281Y-110486346D01*
X180204890Y-110502324D01*
X180235227Y-110527421D01*
X180238313Y-110529974D01*
X180247092Y-110537964D01*
X181103083Y-111393955D01*
X181133983Y-111450864D01*
X181135081Y-111450499D01*
X181188794Y-111611967D01*
X181192441Y-111617989D01*
X181192442Y-111617991D01*
X181222774Y-111668075D01*
X181240953Y-111736705D01*
X181219142Y-111804268D01*
X181164267Y-111849314D01*
X181100080Y-111858460D01*
X181023429Y-111849320D01*
X181016426Y-111850056D01*
X181016425Y-111850056D01*
X180861201Y-111866370D01*
X180861197Y-111866371D01*
X180854193Y-111867107D01*
X180847522Y-111869378D01*
X180699773Y-111919675D01*
X180699770Y-111919676D01*
X180693103Y-111921946D01*
X180687105Y-111925636D01*
X180687103Y-111925637D01*
X180554165Y-112007421D01*
X180554163Y-112007423D01*
X180548166Y-112011112D01*
X180426586Y-112130173D01*
X180422775Y-112136087D01*
X180422773Y-112136089D01*
X180348529Y-112251292D01*
X180334404Y-112273210D01*
X180313182Y-112331516D01*
X180279390Y-112424361D01*
X180276203Y-112433116D01*
X180254875Y-112601943D01*
X180271481Y-112771299D01*
X180325194Y-112932767D01*
X180328841Y-112938789D01*
X180328842Y-112938791D01*
X180380166Y-113023536D01*
X180413346Y-113078323D01*
X180531555Y-113200732D01*
X180673946Y-113293910D01*
X180680550Y-113296366D01*
X180680552Y-113296367D01*
X180716944Y-113309901D01*
X180833441Y-113353226D01*
X181002115Y-113375732D01*
X181009126Y-113375094D01*
X181009130Y-113375094D01*
X181164562Y-113360948D01*
X181171583Y-113360309D01*
X181178285Y-113358131D01*
X181178287Y-113358131D01*
X181326723Y-113309901D01*
X181326726Y-113309900D01*
X181333422Y-113307724D01*
X181479590Y-113220590D01*
X181484684Y-113215739D01*
X181484688Y-113215736D01*
X181593707Y-113111918D01*
X181602821Y-113103239D01*
X181696991Y-112961502D01*
X181757419Y-112802425D01*
X181781101Y-112633913D01*
X181781218Y-112625564D01*
X181781344Y-112616561D01*
X181781344Y-112616555D01*
X181781399Y-112612600D01*
X181762431Y-112443492D01*
X181755081Y-112422384D01*
X181712989Y-112301516D01*
X181706468Y-112282789D01*
X181678543Y-112238101D01*
X181659408Y-112169734D01*
X181680273Y-112101872D01*
X181734514Y-112056064D01*
X181802062Y-112046439D01*
X181814840Y-112048144D01*
X181865715Y-112054932D01*
X181872726Y-112054294D01*
X181872730Y-112054294D01*
X182028162Y-112040148D01*
X182035183Y-112039509D01*
X182041885Y-112037331D01*
X182041887Y-112037331D01*
X182190323Y-111989101D01*
X182190326Y-111989100D01*
X182197022Y-111986924D01*
X182343190Y-111899790D01*
X182348284Y-111894939D01*
X182348288Y-111894936D01*
X182425133Y-111821757D01*
X182466421Y-111782439D01*
X182560591Y-111640702D01*
X182621019Y-111481625D01*
X182644701Y-111313113D01*
X182644999Y-111291800D01*
X182626031Y-111122692D01*
X182570068Y-110961989D01*
X182479892Y-110817679D01*
X182473995Y-110811740D01*
X182364948Y-110701929D01*
X182359986Y-110696932D01*
X182349467Y-110690256D01*
X182268301Y-110638747D01*
X182216308Y-110605751D01*
X182073789Y-110555002D01*
X182016326Y-110513309D01*
X181990526Y-110447166D01*
X182004581Y-110377575D01*
X182054029Y-110326629D01*
X182077117Y-110316472D01*
X182080852Y-110315258D01*
X182095422Y-110310524D01*
X182241590Y-110223390D01*
X182246684Y-110218539D01*
X182246688Y-110218536D01*
X182321127Y-110147648D01*
X182364821Y-110106039D01*
X182380542Y-110082378D01*
X182411906Y-110035170D01*
X182458991Y-109964302D01*
X182519419Y-109805225D01*
X182520345Y-109798639D01*
X182553209Y-109741023D01*
X184495627Y-107798605D01*
X184557939Y-107764579D01*
X184584722Y-107761700D01*
X185163975Y-107761700D01*
X185232096Y-107781702D01*
X185278589Y-107835358D01*
X185288693Y-107905632D01*
X185282693Y-107929538D01*
X185282414Y-107930693D01*
X185280003Y-107937316D01*
X185258675Y-108106143D01*
X185275281Y-108275499D01*
X185277505Y-108282184D01*
X185277505Y-108282185D01*
X185285912Y-108307458D01*
X185328994Y-108436967D01*
X185332641Y-108442989D01*
X185332642Y-108442991D01*
X185406276Y-108564575D01*
X185424500Y-108629846D01*
X185424500Y-110147648D01*
X185423987Y-110158538D01*
X185422336Y-110165923D01*
X185422585Y-110173848D01*
X185422585Y-110173849D01*
X185424438Y-110232805D01*
X185424500Y-110236763D01*
X185424500Y-110264183D01*
X185424996Y-110268112D01*
X185425016Y-110268426D01*
X185425916Y-110279853D01*
X185427279Y-110323202D01*
X185431840Y-110338901D01*
X185432788Y-110342164D01*
X185436797Y-110361525D01*
X185439272Y-110381115D01*
X185442191Y-110388487D01*
X185442191Y-110388488D01*
X185455239Y-110421445D01*
X185459084Y-110432675D01*
X185471180Y-110474310D01*
X185475215Y-110481134D01*
X185475216Y-110481135D01*
X185481228Y-110491301D01*
X185489927Y-110509058D01*
X185497198Y-110527421D01*
X185501857Y-110533833D01*
X185522690Y-110562508D01*
X185529204Y-110572425D01*
X185551280Y-110609752D01*
X185565241Y-110623713D01*
X185578081Y-110638746D01*
X185589690Y-110654724D01*
X185595796Y-110659775D01*
X185623113Y-110682374D01*
X185631892Y-110690364D01*
X187300683Y-112359155D01*
X187331583Y-112416064D01*
X187332681Y-112415699D01*
X187386394Y-112577167D01*
X187390041Y-112583189D01*
X187390042Y-112583191D01*
X187443607Y-112671636D01*
X187474546Y-112722723D01*
X187592755Y-112845132D01*
X187598651Y-112848990D01*
X187716463Y-112926084D01*
X187735146Y-112938310D01*
X187741750Y-112940766D01*
X187741752Y-112940767D01*
X187797507Y-112961502D01*
X187894641Y-112997626D01*
X188063315Y-113020132D01*
X188070326Y-113019494D01*
X188070330Y-113019494D01*
X188225762Y-113005348D01*
X188232783Y-113004709D01*
X188239485Y-113002531D01*
X188239487Y-113002531D01*
X188387923Y-112954301D01*
X188387926Y-112954300D01*
X188394622Y-112952124D01*
X188540790Y-112864990D01*
X188545884Y-112860139D01*
X188545888Y-112860136D01*
X188639175Y-112771299D01*
X188664021Y-112747639D01*
X188734420Y-112641680D01*
X188788776Y-112596011D01*
X188859196Y-112586978D01*
X188923320Y-112617451D01*
X188958925Y-112671636D01*
X188977604Y-112727787D01*
X189011994Y-112831167D01*
X189015644Y-112837194D01*
X189015646Y-112837198D01*
X189042781Y-112882003D01*
X189060961Y-112950632D01*
X189039151Y-113018196D01*
X189024101Y-113036370D01*
X181548387Y-120512084D01*
X181486075Y-120546110D01*
X181459292Y-120548989D01*
X176959655Y-120548989D01*
X176943209Y-120547911D01*
X176919699Y-120544816D01*
X176911511Y-120543738D01*
X176752660Y-120564651D01*
X176604635Y-120625965D01*
X176573706Y-120649698D01*
X176509448Y-120699004D01*
X176509432Y-120699018D01*
X176484077Y-120718473D01*
X176484074Y-120718476D01*
X176477524Y-120723502D01*
X176472494Y-120730057D01*
X176458059Y-120748868D01*
X176447192Y-120761259D01*
X176327967Y-120880484D01*
X176265655Y-120914510D01*
X176206260Y-120913095D01*
X176126664Y-120891767D01*
X176126656Y-120891766D01*
X176121343Y-120890342D01*
X175895000Y-120870540D01*
X175668657Y-120890342D01*
X175570310Y-120916694D01*
X175454500Y-120947725D01*
X175454498Y-120947726D01*
X175449190Y-120949148D01*
X175444210Y-120951470D01*
X175444208Y-120951471D01*
X175248257Y-121042845D01*
X175248252Y-121042848D01*
X175243270Y-121045171D01*
X175238763Y-121048327D01*
X175238761Y-121048328D01*
X175061663Y-121172333D01*
X175061660Y-121172335D01*
X175057152Y-121175492D01*
X174896492Y-121336152D01*
X174766171Y-121522270D01*
X174763848Y-121527252D01*
X174763845Y-121527257D01*
X174672471Y-121723208D01*
X174670148Y-121728190D01*
X174611342Y-121947657D01*
X174591540Y-122174000D01*
X157243700Y-122174000D01*
X157243700Y-120981295D01*
X158783701Y-120981295D01*
X158784038Y-120987814D01*
X158793957Y-121083406D01*
X158796849Y-121096800D01*
X158848288Y-121250984D01*
X158854461Y-121264162D01*
X158939763Y-121402007D01*
X158948799Y-121413408D01*
X159063529Y-121527939D01*
X159074940Y-121536951D01*
X159212943Y-121622016D01*
X159226124Y-121628163D01*
X159380410Y-121679338D01*
X159393786Y-121682205D01*
X159488138Y-121691872D01*
X159494554Y-121692200D01*
X160019585Y-121692200D01*
X160034824Y-121687725D01*
X160036029Y-121686335D01*
X160037700Y-121678652D01*
X160037700Y-121674084D01*
X160545700Y-121674084D01*
X160550175Y-121689323D01*
X160551565Y-121690528D01*
X160559248Y-121692199D01*
X161088795Y-121692199D01*
X161095314Y-121691862D01*
X161190906Y-121681943D01*
X161204300Y-121679051D01*
X161358484Y-121627612D01*
X161371662Y-121621439D01*
X161509507Y-121536137D01*
X161520908Y-121527101D01*
X161635439Y-121412371D01*
X161644451Y-121400960D01*
X161729516Y-121262957D01*
X161735663Y-121249776D01*
X161786838Y-121095490D01*
X161789705Y-121082114D01*
X161799372Y-120987762D01*
X161799700Y-120981346D01*
X161799700Y-120606315D01*
X161795225Y-120591076D01*
X161793835Y-120589871D01*
X161786152Y-120588200D01*
X160563815Y-120588200D01*
X160548576Y-120592675D01*
X160547371Y-120594065D01*
X160545700Y-120601748D01*
X160545700Y-121674084D01*
X160037700Y-121674084D01*
X160037700Y-120606315D01*
X160033225Y-120591076D01*
X160031835Y-120589871D01*
X160024152Y-120588200D01*
X158801816Y-120588200D01*
X158786577Y-120592675D01*
X158785372Y-120594065D01*
X158783701Y-120601748D01*
X158783701Y-120981295D01*
X157243700Y-120981295D01*
X157243700Y-117769974D01*
X158779802Y-117769974D01*
X158788451Y-118000358D01*
X158835793Y-118225991D01*
X158837751Y-118230950D01*
X158837752Y-118230952D01*
X158913136Y-118421834D01*
X158920476Y-118440421D01*
X158923243Y-118444980D01*
X158923244Y-118444983D01*
X158942907Y-118477386D01*
X159040077Y-118637517D01*
X159043574Y-118641547D01*
X159130138Y-118741303D01*
X159191177Y-118811645D01*
X159195308Y-118815032D01*
X159227229Y-118841206D01*
X159267224Y-118899866D01*
X159269155Y-118970836D01*
X159232410Y-119031584D01*
X159213641Y-119045784D01*
X159073893Y-119132263D01*
X159062492Y-119141299D01*
X158947961Y-119256029D01*
X158938949Y-119267440D01*
X158853884Y-119405443D01*
X158847737Y-119418624D01*
X158796562Y-119572910D01*
X158793695Y-119586286D01*
X158784028Y-119680638D01*
X158783700Y-119687055D01*
X158783700Y-120062085D01*
X158788175Y-120077324D01*
X158789565Y-120078529D01*
X158797248Y-120080200D01*
X161781584Y-120080200D01*
X161796823Y-120075725D01*
X161798028Y-120074335D01*
X161799699Y-120066652D01*
X161799699Y-119687105D01*
X161799362Y-119680586D01*
X161789443Y-119584994D01*
X161786551Y-119571600D01*
X161735112Y-119417416D01*
X161728939Y-119404238D01*
X161643637Y-119266393D01*
X161634601Y-119254992D01*
X161519871Y-119140461D01*
X161508457Y-119131447D01*
X161368987Y-119045477D01*
X161321493Y-118992705D01*
X161310069Y-118922634D01*
X161338343Y-118857510D01*
X161348130Y-118847047D01*
X161352744Y-118842646D01*
X161462835Y-118737624D01*
X161600454Y-118552658D01*
X161635601Y-118483530D01*
X161666968Y-118421834D01*
X161704940Y-118347149D01*
X161741021Y-118230952D01*
X161771724Y-118132071D01*
X161773307Y-118126973D01*
X161774008Y-118121684D01*
X161802898Y-117903711D01*
X161802898Y-117903706D01*
X161803598Y-117898426D01*
X161794949Y-117668042D01*
X161747607Y-117442409D01*
X161662924Y-117227979D01*
X161543323Y-117030883D01*
X161453787Y-116927701D01*
X161395723Y-116860788D01*
X161395721Y-116860786D01*
X161392223Y-116856755D01*
X161339426Y-116813464D01*
X161218073Y-116713960D01*
X161218067Y-116713956D01*
X161213945Y-116710576D01*
X161209309Y-116707937D01*
X161209306Y-116707935D01*
X161018229Y-116599168D01*
X161013586Y-116596525D01*
X160796875Y-116517863D01*
X160791626Y-116516914D01*
X160791623Y-116516913D01*
X160574092Y-116477577D01*
X160574085Y-116477576D01*
X160570008Y-116476839D01*
X160552286Y-116476003D01*
X160547344Y-116475770D01*
X160547337Y-116475770D01*
X160545856Y-116475700D01*
X160083810Y-116475700D01*
X160016891Y-116481378D01*
X159917291Y-116489829D01*
X159917287Y-116489830D01*
X159911980Y-116490280D01*
X159906825Y-116491618D01*
X159906819Y-116491619D01*
X159693997Y-116546857D01*
X159693993Y-116546858D01*
X159688828Y-116548199D01*
X159683962Y-116550391D01*
X159683959Y-116550392D01*
X159575680Y-116599168D01*
X159478625Y-116642888D01*
X159287381Y-116771641D01*
X159283524Y-116775320D01*
X159283522Y-116775322D01*
X159217410Y-116838390D01*
X159120565Y-116930776D01*
X159117382Y-116935054D01*
X159074348Y-116992894D01*
X158982946Y-117115742D01*
X158878460Y-117321251D01*
X158876878Y-117326345D01*
X158876877Y-117326348D01*
X158814815Y-117526220D01*
X158810093Y-117541427D01*
X158809392Y-117546716D01*
X158794004Y-117662823D01*
X158779802Y-117769974D01*
X157243700Y-117769974D01*
X157243700Y-85779543D01*
X157801275Y-85779543D01*
X157817881Y-85948899D01*
X157871594Y-86110367D01*
X157875243Y-86116392D01*
X157910776Y-86175064D01*
X157929000Y-86240336D01*
X157929000Y-87049383D01*
X157929497Y-87053314D01*
X157941708Y-87149974D01*
X157944073Y-87168699D01*
X158003181Y-87317988D01*
X158007839Y-87324399D01*
X158007840Y-87324401D01*
X158032407Y-87358214D01*
X158097558Y-87447887D01*
X158103666Y-87452940D01*
X158215166Y-87545181D01*
X158215169Y-87545183D01*
X158221276Y-87550235D01*
X158221828Y-87550495D01*
X158236889Y-87562561D01*
X164571809Y-93897481D01*
X164579155Y-93905554D01*
X164583210Y-93911943D01*
X164630422Y-93956277D01*
X164632008Y-93957767D01*
X164634850Y-93960522D01*
X164654220Y-93979892D01*
X164657355Y-93982324D01*
X164657523Y-93982472D01*
X164666298Y-93989968D01*
X164697918Y-94019660D01*
X164704860Y-94023476D01*
X164704865Y-94023480D01*
X164715221Y-94029173D01*
X164731746Y-94040028D01*
X164747349Y-94052131D01*
X164787168Y-94069363D01*
X164797798Y-94074570D01*
X164835810Y-94095467D01*
X164843488Y-94097438D01*
X164843495Y-94097441D01*
X164854934Y-94100378D01*
X164873639Y-94106782D01*
X164891763Y-94114625D01*
X164934610Y-94121411D01*
X164946218Y-94123815D01*
X164974939Y-94131189D01*
X164980545Y-94132629D01*
X164980546Y-94132629D01*
X164988222Y-94134600D01*
X165007967Y-94134600D01*
X165027677Y-94136151D01*
X165047181Y-94139240D01*
X165055073Y-94138494D01*
X165090353Y-94135159D01*
X165102211Y-94134600D01*
X165327639Y-94134600D01*
X165358974Y-94138559D01*
X165362476Y-94139458D01*
X165393018Y-94147300D01*
X173403579Y-94147300D01*
X173472572Y-94167868D01*
X173511146Y-94193110D01*
X173517750Y-94195566D01*
X173517752Y-94195567D01*
X173554144Y-94209101D01*
X173670641Y-94252426D01*
X173839315Y-94274932D01*
X173846326Y-94274294D01*
X173846330Y-94274294D01*
X174001762Y-94260148D01*
X174008783Y-94259509D01*
X174015485Y-94257331D01*
X174015487Y-94257331D01*
X174163923Y-94209101D01*
X174163926Y-94209100D01*
X174170622Y-94206924D01*
X174316790Y-94119790D01*
X174321884Y-94114939D01*
X174321888Y-94114936D01*
X174392944Y-94047270D01*
X174440021Y-94002439D01*
X174448306Y-93989970D01*
X174496541Y-93917369D01*
X174534191Y-93860702D01*
X174594619Y-93701625D01*
X174618301Y-93533113D01*
X174618599Y-93511800D01*
X174599631Y-93342692D01*
X174543668Y-93181989D01*
X174453492Y-93037679D01*
X174333586Y-92916932D01*
X174323680Y-92910645D01*
X174269560Y-92876300D01*
X174189908Y-92825751D01*
X174029600Y-92768668D01*
X173860629Y-92748520D01*
X173853626Y-92749256D01*
X173853625Y-92749256D01*
X173698401Y-92765570D01*
X173698397Y-92765571D01*
X173691393Y-92766307D01*
X173684722Y-92768578D01*
X173536973Y-92818875D01*
X173536970Y-92818876D01*
X173530303Y-92821146D01*
X173471021Y-92857617D01*
X173404998Y-92876300D01*
X165433317Y-92876300D01*
X165386996Y-92882152D01*
X165316909Y-92870845D01*
X165282113Y-92846240D01*
X164794016Y-92358143D01*
X176571875Y-92358143D01*
X176588481Y-92527499D01*
X176642194Y-92688967D01*
X176645841Y-92694989D01*
X176645842Y-92694991D01*
X176722245Y-92821146D01*
X176730346Y-92834523D01*
X176848555Y-92956932D01*
X176990946Y-93050110D01*
X176997550Y-93052566D01*
X176997552Y-93052567D01*
X177033944Y-93066101D01*
X177150441Y-93109426D01*
X177319115Y-93131932D01*
X177326126Y-93131294D01*
X177326130Y-93131294D01*
X177481562Y-93117148D01*
X177488583Y-93116509D01*
X177495285Y-93114331D01*
X177495287Y-93114331D01*
X177643723Y-93066101D01*
X177643726Y-93066100D01*
X177650422Y-93063924D01*
X177796590Y-92976790D01*
X177801684Y-92971939D01*
X177801688Y-92971936D01*
X177907843Y-92870845D01*
X177919821Y-92859439D01*
X177928591Y-92846240D01*
X177981698Y-92766307D01*
X178013991Y-92717702D01*
X178074419Y-92558625D01*
X178098101Y-92390113D01*
X178098399Y-92368800D01*
X178079431Y-92199692D01*
X178023468Y-92038989D01*
X178017483Y-92029410D01*
X177994165Y-91992095D01*
X177933292Y-91894679D01*
X177813386Y-91773932D01*
X177802530Y-91767042D01*
X177758506Y-91739104D01*
X177669708Y-91682751D01*
X177509400Y-91625668D01*
X177340429Y-91605520D01*
X177333426Y-91606256D01*
X177333425Y-91606256D01*
X177178201Y-91622570D01*
X177178197Y-91622571D01*
X177171193Y-91623307D01*
X177164522Y-91625578D01*
X177016773Y-91675875D01*
X177016770Y-91675876D01*
X177010103Y-91678146D01*
X177004105Y-91681836D01*
X177004103Y-91681837D01*
X176871165Y-91763621D01*
X176871163Y-91763623D01*
X176865166Y-91767312D01*
X176743586Y-91886373D01*
X176739775Y-91892287D01*
X176739773Y-91892289D01*
X176655221Y-92023487D01*
X176651404Y-92029410D01*
X176593203Y-92189316D01*
X176571875Y-92358143D01*
X164794016Y-92358143D01*
X163648668Y-91212795D01*
X163614642Y-91150483D01*
X163619707Y-91079668D01*
X163662254Y-91022832D01*
X163728774Y-90998021D01*
X163737763Y-90997700D01*
X171845880Y-90997700D01*
X171857114Y-90998230D01*
X171864619Y-90999908D01*
X171932912Y-90997762D01*
X171936869Y-90997700D01*
X171964883Y-90997700D01*
X171968808Y-90997204D01*
X171968809Y-90997204D01*
X171968904Y-90997192D01*
X171980749Y-90996259D01*
X172010570Y-90995322D01*
X172017182Y-90995114D01*
X172017183Y-90995114D01*
X172025105Y-90994865D01*
X172044649Y-90989187D01*
X172064012Y-90985177D01*
X172076340Y-90983620D01*
X172076342Y-90983620D01*
X172084199Y-90982627D01*
X172091563Y-90979711D01*
X172091568Y-90979710D01*
X172125456Y-90966293D01*
X172136685Y-90962448D01*
X172153365Y-90957602D01*
X172179293Y-90950069D01*
X172186120Y-90946031D01*
X172186123Y-90946030D01*
X172196806Y-90939712D01*
X172214564Y-90931012D01*
X172226115Y-90926439D01*
X172226121Y-90926435D01*
X172233488Y-90923519D01*
X172269391Y-90897434D01*
X172279310Y-90890919D01*
X172310668Y-90872374D01*
X172310672Y-90872371D01*
X172317498Y-90868334D01*
X172331882Y-90853950D01*
X172346916Y-90841109D01*
X172356973Y-90833802D01*
X172363387Y-90829142D01*
X172391678Y-90794944D01*
X172399667Y-90786165D01*
X173577348Y-89608484D01*
X173627506Y-89577746D01*
X173757525Y-89535500D01*
X173764222Y-89533324D01*
X173910390Y-89446190D01*
X173915484Y-89441339D01*
X173915488Y-89441336D01*
X173997025Y-89363689D01*
X174033621Y-89328839D01*
X174127791Y-89187102D01*
X174188219Y-89028025D01*
X174211901Y-88859513D01*
X174212199Y-88838200D01*
X174193231Y-88669092D01*
X174137268Y-88508389D01*
X174131283Y-88498810D01*
X174102262Y-88452368D01*
X174047092Y-88364079D01*
X173927186Y-88243332D01*
X173910939Y-88233021D01*
X173864561Y-88203589D01*
X173783508Y-88152151D01*
X173623200Y-88095068D01*
X173454229Y-88074920D01*
X173447226Y-88075656D01*
X173447225Y-88075656D01*
X173292001Y-88091970D01*
X173291997Y-88091971D01*
X173284993Y-88092707D01*
X173278322Y-88094978D01*
X173130573Y-88145275D01*
X173130570Y-88145276D01*
X173123903Y-88147546D01*
X173117905Y-88151236D01*
X173117903Y-88151237D01*
X172984965Y-88233021D01*
X172984963Y-88233023D01*
X172978966Y-88236712D01*
X172857386Y-88355773D01*
X172853575Y-88361687D01*
X172853573Y-88361689D01*
X172848182Y-88370054D01*
X172765204Y-88498810D01*
X172707003Y-88658716D01*
X172706186Y-88658418D01*
X172675797Y-88712570D01*
X171698572Y-89689795D01*
X171636260Y-89723821D01*
X171609477Y-89726700D01*
X163350323Y-89726700D01*
X163282202Y-89706698D01*
X163261228Y-89689795D01*
X159946694Y-86375261D01*
X159916798Y-86327603D01*
X159886408Y-86240336D01*
X159862468Y-86171589D01*
X159772292Y-86027279D01*
X159652386Y-85906532D01*
X159508708Y-85815351D01*
X159397383Y-85775710D01*
X159339919Y-85734016D01*
X159314435Y-85671055D01*
X159309616Y-85628091D01*
X159308831Y-85621092D01*
X159252868Y-85460389D01*
X159246883Y-85450810D01*
X159194626Y-85367184D01*
X159162692Y-85316079D01*
X159042786Y-85195332D01*
X159033386Y-85189366D01*
X158969255Y-85148668D01*
X158899108Y-85104151D01*
X158738800Y-85047068D01*
X158569829Y-85026920D01*
X158562826Y-85027656D01*
X158562825Y-85027656D01*
X158407601Y-85043970D01*
X158407597Y-85043971D01*
X158400593Y-85044707D01*
X158393922Y-85046978D01*
X158246173Y-85097275D01*
X158246170Y-85097276D01*
X158239503Y-85099546D01*
X158233505Y-85103236D01*
X158233503Y-85103237D01*
X158100565Y-85185021D01*
X158100563Y-85185023D01*
X158094566Y-85188712D01*
X158089533Y-85193641D01*
X157978954Y-85301929D01*
X157972986Y-85307773D01*
X157969175Y-85313687D01*
X157969173Y-85313689D01*
X157891515Y-85434190D01*
X157880804Y-85450810D01*
X157822603Y-85610716D01*
X157801275Y-85779543D01*
X157243700Y-85779543D01*
X157243700Y-77159903D01*
X159071443Y-77159903D01*
X159108968Y-77444934D01*
X159184829Y-77722236D01*
X159297623Y-77986676D01*
X159445261Y-78233361D01*
X159625013Y-78457728D01*
X159833551Y-78655623D01*
X160067017Y-78823386D01*
X160070812Y-78825395D01*
X160070813Y-78825396D01*
X160092569Y-78836915D01*
X160321092Y-78957912D01*
X160591073Y-79056711D01*
X160871964Y-79117955D01*
X160900541Y-79120204D01*
X161094982Y-79135507D01*
X161094991Y-79135507D01*
X161097439Y-79135700D01*
X161252971Y-79135700D01*
X161255107Y-79135554D01*
X161255118Y-79135554D01*
X161463248Y-79121365D01*
X161463254Y-79121364D01*
X161467525Y-79121073D01*
X161471720Y-79120204D01*
X161471722Y-79120204D01*
X161608284Y-79091923D01*
X161749042Y-79062774D01*
X162020043Y-78966807D01*
X162275512Y-78834950D01*
X162279013Y-78832489D01*
X162279017Y-78832487D01*
X162393117Y-78752296D01*
X162510723Y-78669641D01*
X162721322Y-78473940D01*
X162903413Y-78251468D01*
X163053627Y-78006342D01*
X163169183Y-77743098D01*
X163247944Y-77466606D01*
X163288451Y-77181984D01*
X163288491Y-77174524D01*
X163289935Y-76898783D01*
X163289935Y-76898776D01*
X163289957Y-76894497D01*
X163252432Y-76609466D01*
X163213935Y-76468743D01*
X176325575Y-76468743D01*
X176342181Y-76638099D01*
X176395894Y-76799567D01*
X176399541Y-76805589D01*
X176399542Y-76805591D01*
X176453386Y-76894497D01*
X176484046Y-76945123D01*
X176602255Y-77067532D01*
X176744646Y-77160710D01*
X176751250Y-77163166D01*
X176751252Y-77163167D01*
X176787644Y-77176701D01*
X176904141Y-77220026D01*
X177072815Y-77242532D01*
X177079826Y-77241894D01*
X177079830Y-77241894D01*
X177235262Y-77227748D01*
X177242283Y-77227109D01*
X177248985Y-77224931D01*
X177248987Y-77224931D01*
X177397423Y-77176701D01*
X177397426Y-77176700D01*
X177404122Y-77174524D01*
X177428649Y-77159903D01*
X197171443Y-77159903D01*
X197208968Y-77444934D01*
X197284829Y-77722236D01*
X197397623Y-77986676D01*
X197545261Y-78233361D01*
X197725013Y-78457728D01*
X197933551Y-78655623D01*
X198167017Y-78823386D01*
X198170812Y-78825395D01*
X198170813Y-78825396D01*
X198192569Y-78836915D01*
X198421092Y-78957912D01*
X198691073Y-79056711D01*
X198971964Y-79117955D01*
X199000541Y-79120204D01*
X199194982Y-79135507D01*
X199194991Y-79135507D01*
X199197439Y-79135700D01*
X199352971Y-79135700D01*
X199355107Y-79135554D01*
X199355118Y-79135554D01*
X199563248Y-79121365D01*
X199563254Y-79121364D01*
X199567525Y-79121073D01*
X199571720Y-79120204D01*
X199571722Y-79120204D01*
X199708284Y-79091923D01*
X199849042Y-79062774D01*
X200120043Y-78966807D01*
X200375512Y-78834950D01*
X200379013Y-78832489D01*
X200379017Y-78832487D01*
X200493117Y-78752296D01*
X200610723Y-78669641D01*
X200821322Y-78473940D01*
X201003413Y-78251468D01*
X201153627Y-78006342D01*
X201269183Y-77743098D01*
X201347944Y-77466606D01*
X201388451Y-77181984D01*
X201388491Y-77174524D01*
X201389935Y-76898783D01*
X201389935Y-76898776D01*
X201389957Y-76894497D01*
X201352432Y-76609466D01*
X201276571Y-76332164D01*
X201237385Y-76240294D01*
X201165463Y-76071676D01*
X201165461Y-76071672D01*
X201163777Y-76067724D01*
X201085840Y-75937500D01*
X201018343Y-75824721D01*
X201018340Y-75824717D01*
X201016139Y-75821039D01*
X200836387Y-75596672D01*
X200627849Y-75398777D01*
X200394383Y-75231014D01*
X200372543Y-75219450D01*
X200237576Y-75147989D01*
X200140308Y-75096488D01*
X199903023Y-75009654D01*
X199874358Y-74999164D01*
X199874356Y-74999163D01*
X199870327Y-74997689D01*
X199589436Y-74936445D01*
X199558385Y-74934001D01*
X199366418Y-74918893D01*
X199366409Y-74918893D01*
X199363961Y-74918700D01*
X199208429Y-74918700D01*
X199206293Y-74918846D01*
X199206282Y-74918846D01*
X198998152Y-74933035D01*
X198998146Y-74933036D01*
X198993875Y-74933327D01*
X198989680Y-74934196D01*
X198989678Y-74934196D01*
X198890977Y-74954636D01*
X198712358Y-74991626D01*
X198441357Y-75087593D01*
X198185888Y-75219450D01*
X198182387Y-75221911D01*
X198182383Y-75221913D01*
X198172294Y-75229004D01*
X197950677Y-75384759D01*
X197740078Y-75580460D01*
X197557987Y-75802932D01*
X197407773Y-76048058D01*
X197406047Y-76051991D01*
X197406046Y-76051992D01*
X197391210Y-76085790D01*
X197292217Y-76311302D01*
X197213456Y-76587794D01*
X197172949Y-76872416D01*
X197172927Y-76876705D01*
X197172926Y-76876712D01*
X197171804Y-77090994D01*
X197171443Y-77159903D01*
X177428649Y-77159903D01*
X177550290Y-77087390D01*
X177555384Y-77082539D01*
X177555388Y-77082536D01*
X177651073Y-76991416D01*
X177673521Y-76970039D01*
X177767691Y-76828302D01*
X177828119Y-76669225D01*
X177851801Y-76500713D01*
X177852099Y-76479400D01*
X177833131Y-76310292D01*
X177777168Y-76149589D01*
X177771183Y-76140010D01*
X177749220Y-76104864D01*
X177686992Y-76005279D01*
X177644579Y-75962568D01*
X177572048Y-75889529D01*
X177567086Y-75884532D01*
X177550839Y-75874221D01*
X177485212Y-75832573D01*
X177423408Y-75793351D01*
X177263100Y-75736268D01*
X177094129Y-75716120D01*
X177087126Y-75716856D01*
X177087125Y-75716856D01*
X176931901Y-75733170D01*
X176931897Y-75733171D01*
X176924893Y-75733907D01*
X176918222Y-75736178D01*
X176770473Y-75786475D01*
X176770470Y-75786476D01*
X176763803Y-75788746D01*
X176757805Y-75792436D01*
X176757803Y-75792437D01*
X176624865Y-75874221D01*
X176624863Y-75874223D01*
X176618866Y-75877912D01*
X176497286Y-75996973D01*
X176493475Y-76002887D01*
X176493473Y-76002889D01*
X176443175Y-76080936D01*
X176405104Y-76140010D01*
X176346903Y-76299916D01*
X176325575Y-76468743D01*
X163213935Y-76468743D01*
X163176571Y-76332164D01*
X163137385Y-76240294D01*
X163065463Y-76071676D01*
X163065461Y-76071672D01*
X163063777Y-76067724D01*
X162985840Y-75937500D01*
X162918343Y-75824721D01*
X162918340Y-75824717D01*
X162916139Y-75821039D01*
X162736387Y-75596672D01*
X162599892Y-75467143D01*
X185690475Y-75467143D01*
X185707081Y-75636499D01*
X185760794Y-75797967D01*
X185764441Y-75803989D01*
X185764442Y-75803991D01*
X185813220Y-75884532D01*
X185848946Y-75943523D01*
X185967155Y-76065932D01*
X185973051Y-76069790D01*
X186090478Y-76146632D01*
X186109546Y-76159110D01*
X186116150Y-76161566D01*
X186116152Y-76161567D01*
X186152544Y-76175101D01*
X186269041Y-76218426D01*
X186437715Y-76240932D01*
X186444726Y-76240294D01*
X186444730Y-76240294D01*
X186600162Y-76226148D01*
X186607183Y-76225509D01*
X186613885Y-76223331D01*
X186613887Y-76223331D01*
X186762323Y-76175101D01*
X186762326Y-76175100D01*
X186769022Y-76172924D01*
X186915190Y-76085790D01*
X186920284Y-76080939D01*
X186920288Y-76080936D01*
X187002245Y-76002889D01*
X187038421Y-75968439D01*
X187047045Y-75955460D01*
X187128690Y-75832573D01*
X187132591Y-75826702D01*
X187193019Y-75667625D01*
X187216701Y-75499113D01*
X187216999Y-75477800D01*
X187198031Y-75308692D01*
X187142068Y-75147989D01*
X187136083Y-75138410D01*
X187109886Y-75096488D01*
X187051892Y-75003679D01*
X186931986Y-74882932D01*
X186915739Y-74872621D01*
X186877106Y-74848104D01*
X186788308Y-74791751D01*
X186628000Y-74734668D01*
X186459029Y-74714520D01*
X186452026Y-74715256D01*
X186452025Y-74715256D01*
X186296801Y-74731570D01*
X186296797Y-74731571D01*
X186289793Y-74732307D01*
X186283122Y-74734578D01*
X186135373Y-74784875D01*
X186135370Y-74784876D01*
X186128703Y-74787146D01*
X186122705Y-74790836D01*
X186122703Y-74790837D01*
X185989765Y-74872621D01*
X185989763Y-74872623D01*
X185983766Y-74876312D01*
X185862186Y-74995373D01*
X185858375Y-75001287D01*
X185858373Y-75001289D01*
X185797972Y-75095013D01*
X185770004Y-75138410D01*
X185736299Y-75231014D01*
X185723116Y-75267235D01*
X185711803Y-75298316D01*
X185690475Y-75467143D01*
X162599892Y-75467143D01*
X162527849Y-75398777D01*
X162294383Y-75231014D01*
X162272543Y-75219450D01*
X162137576Y-75147989D01*
X162040308Y-75096488D01*
X161803023Y-75009654D01*
X161774358Y-74999164D01*
X161774356Y-74999163D01*
X161770327Y-74997689D01*
X161489436Y-74936445D01*
X161458385Y-74934001D01*
X161266418Y-74918893D01*
X161266409Y-74918893D01*
X161263961Y-74918700D01*
X161108429Y-74918700D01*
X161106293Y-74918846D01*
X161106282Y-74918846D01*
X160898152Y-74933035D01*
X160898146Y-74933036D01*
X160893875Y-74933327D01*
X160889680Y-74934196D01*
X160889678Y-74934196D01*
X160790977Y-74954636D01*
X160612358Y-74991626D01*
X160341357Y-75087593D01*
X160085888Y-75219450D01*
X160082387Y-75221911D01*
X160082383Y-75221913D01*
X160072294Y-75229004D01*
X159850677Y-75384759D01*
X159640078Y-75580460D01*
X159457987Y-75802932D01*
X159307773Y-76048058D01*
X159306047Y-76051991D01*
X159306046Y-76051992D01*
X159291210Y-76085790D01*
X159192217Y-76311302D01*
X159113456Y-76587794D01*
X159072949Y-76872416D01*
X159072927Y-76876705D01*
X159072926Y-76876712D01*
X159071804Y-77090994D01*
X159071443Y-77159903D01*
X157243700Y-77159903D01*
X157243700Y-77076528D01*
X157245200Y-77057143D01*
X157247505Y-77042342D01*
X157247505Y-77042339D01*
X157248886Y-77033470D01*
X157246284Y-77013574D01*
X157245354Y-76991416D01*
X157260225Y-76669757D01*
X157261299Y-76658168D01*
X157309931Y-76309542D01*
X157312070Y-76298103D01*
X157367121Y-76064037D01*
X157392659Y-75955456D01*
X157395843Y-75944265D01*
X157398111Y-75937500D01*
X157465557Y-75736268D01*
X157507706Y-75610515D01*
X157511910Y-75599663D01*
X157654091Y-75277653D01*
X157659271Y-75267248D01*
X157830567Y-74959713D01*
X157836683Y-74949836D01*
X157857880Y-74918893D01*
X158035614Y-74659433D01*
X158042628Y-74650145D01*
X158267506Y-74379335D01*
X158275347Y-74370735D01*
X158524235Y-74121847D01*
X158532835Y-74114006D01*
X158803645Y-73889128D01*
X158812933Y-73882114D01*
X159103336Y-73683183D01*
X159113213Y-73677067D01*
X159420748Y-73505771D01*
X159431153Y-73500591D01*
X159753163Y-73358410D01*
X159764015Y-73354206D01*
X159930890Y-73298274D01*
X160097774Y-73242340D01*
X160108956Y-73239159D01*
X160258212Y-73204055D01*
X160451603Y-73158570D01*
X160463042Y-73156431D01*
X160811668Y-73107799D01*
X160823256Y-73106725D01*
X160848309Y-73105567D01*
X161137516Y-73092197D01*
X161162715Y-73093562D01*
X161165558Y-73094005D01*
X161165560Y-73094005D01*
X161174430Y-73095386D01*
X161183332Y-73094222D01*
X161183335Y-73094222D01*
X161205951Y-73091264D01*
X161222289Y-73090200D01*
X199263274Y-73090200D01*
X199282659Y-73091700D01*
G37*
%TD.AperFunction*%
%TD*%
M02*
