%TF.GenerationSoftware,KiCad,Pcbnew,(6.0.1-0)*%
%TF.CreationDate,2023-09-01T00:14:16-05:00*%
%TF.ProjectId,tackle_sensor_hardware,7461636b-6c65-45f7-9365-6e736f725f68,REV1*%
%TF.SameCoordinates,Original*%
%TF.FileFunction,Soldermask,Bot*%
%TF.FilePolarity,Negative*%
%FSLAX46Y46*%
G04 Gerber Fmt 4.6, Leading zero omitted, Abs format (unit mm)*
G04 Created by KiCad (PCBNEW (6.0.1-0)) date 2023-09-01 00:14:16*
%MOMM*%
%LPD*%
G01*
G04 APERTURE LIST*
G04 Aperture macros list*
%AMRoundRect*
0 Rectangle with rounded corners*
0 $1 Rounding radius*
0 $2 $3 $4 $5 $6 $7 $8 $9 X,Y pos of 4 corners*
0 Add a 4 corners polygon primitive as box body*
4,1,4,$2,$3,$4,$5,$6,$7,$8,$9,$2,$3,0*
0 Add four circle primitives for the rounded corners*
1,1,$1+$1,$2,$3*
1,1,$1+$1,$4,$5*
1,1,$1+$1,$6,$7*
1,1,$1+$1,$8,$9*
0 Add four rect primitives between the rounded corners*
20,1,$1+$1,$2,$3,$4,$5,0*
20,1,$1+$1,$4,$5,$6,$7,0*
20,1,$1+$1,$6,$7,$8,$9,0*
20,1,$1+$1,$8,$9,$2,$3,0*%
G04 Aperture macros list end*
%ADD10RoundRect,0.250000X-0.725000X0.600000X-0.725000X-0.600000X0.725000X-0.600000X0.725000X0.600000X0*%
%ADD11O,1.950000X1.700000*%
%ADD12C,1.784000*%
%ADD13RoundRect,0.102000X-0.790000X-0.790000X0.790000X-0.790000X0.790000X0.790000X-0.790000X0.790000X0*%
%ADD14C,3.200000*%
%ADD15RoundRect,0.250000X0.750000X-0.600000X0.750000X0.600000X-0.750000X0.600000X-0.750000X-0.600000X0*%
%ADD16O,2.000000X1.700000*%
G04 APERTURE END LIST*
%TO.C,G\u002A\u002A\u002A*%
G36*
X178939705Y-93136079D02*
G01*
X178917347Y-93194177D01*
X178887134Y-93233884D01*
X178797232Y-93353048D01*
X178658887Y-93536880D01*
X178481607Y-93772738D01*
X178274898Y-94047978D01*
X178048267Y-94349958D01*
X177883121Y-94569486D01*
X177659111Y-94865338D01*
X177456655Y-95130551D01*
X177286620Y-95350982D01*
X177159870Y-95512486D01*
X177087269Y-95600922D01*
X177043076Y-95655102D01*
X176934643Y-95795764D01*
X176777309Y-96004283D01*
X176579643Y-96269162D01*
X176350216Y-96578907D01*
X176097597Y-96922019D01*
X175830357Y-97287003D01*
X175621282Y-97573193D01*
X175370256Y-97916416D01*
X175143173Y-98226474D01*
X174948065Y-98492422D01*
X174792962Y-98703315D01*
X174685895Y-98848210D01*
X174634896Y-98916160D01*
X174618593Y-98931430D01*
X174602175Y-98926567D01*
X174588771Y-98888692D01*
X174578133Y-98809385D01*
X174570012Y-98680229D01*
X174564161Y-98492806D01*
X174560330Y-98238696D01*
X174558270Y-97909483D01*
X174557734Y-97496748D01*
X174558473Y-96992072D01*
X174560239Y-96387038D01*
X174560649Y-96273324D01*
X174563230Y-95774355D01*
X174566825Y-95324421D01*
X174571279Y-94932058D01*
X174576437Y-94605800D01*
X174582146Y-94354182D01*
X174588251Y-94185739D01*
X174594598Y-94109005D01*
X174601031Y-94132516D01*
X174660601Y-94487391D01*
X174793828Y-94830598D01*
X174828370Y-94894997D01*
X174951032Y-95085188D01*
X175084955Y-95250258D01*
X175209362Y-95366564D01*
X175303476Y-95410466D01*
X175307658Y-95415574D01*
X175318802Y-95496331D01*
X175325898Y-95660121D01*
X175328365Y-95887326D01*
X175325622Y-96158325D01*
X175311149Y-96906275D01*
X175760740Y-96440051D01*
X175855032Y-96341678D01*
X176045147Y-96141743D01*
X176288365Y-95884721D01*
X176572217Y-95583835D01*
X176884232Y-95252306D01*
X177211943Y-94903358D01*
X177542879Y-94550215D01*
X177834388Y-94240000D01*
X178121525Y-93936980D01*
X178377913Y-93669021D01*
X178594898Y-93445054D01*
X178763823Y-93274008D01*
X178876035Y-93164812D01*
X178922879Y-93126397D01*
X178939705Y-93136079D01*
G37*
G36*
X176494231Y-85567212D02*
G01*
X176506934Y-85660995D01*
X176509474Y-85842998D01*
X176510438Y-85908957D01*
X176511764Y-85982930D01*
X176507748Y-86049139D01*
X176492510Y-86117146D01*
X176460173Y-86196515D01*
X176404856Y-86296808D01*
X176320681Y-86427589D01*
X176201769Y-86598419D01*
X176042241Y-86818861D01*
X175836218Y-87098480D01*
X175577821Y-87446836D01*
X175261171Y-87873494D01*
X174578639Y-88794031D01*
X174563247Y-88184770D01*
X174547854Y-87575508D01*
X174799595Y-87264232D01*
X174812380Y-87248502D01*
X174961686Y-87072044D01*
X175150562Y-86858325D01*
X175365020Y-86622161D01*
X175591073Y-86378363D01*
X175814733Y-86141746D01*
X176022011Y-85927123D01*
X176198921Y-85749307D01*
X176331475Y-85623111D01*
X176405684Y-85563348D01*
X176407864Y-85562185D01*
X176463748Y-85541119D01*
X176494231Y-85567212D01*
G37*
G36*
X176508516Y-101970435D02*
G01*
X176480362Y-102399637D01*
X175827575Y-103269873D01*
X175620792Y-103545925D01*
X175395326Y-103847698D01*
X175184992Y-104129965D01*
X175006539Y-104370249D01*
X174876714Y-104546070D01*
X174578639Y-104952032D01*
X174547899Y-103666976D01*
X174953208Y-103223670D01*
X174991787Y-103181573D01*
X175196350Y-102960350D01*
X175442210Y-102696844D01*
X175701810Y-102420508D01*
X175947593Y-102160799D01*
X176536669Y-101541234D01*
X176508516Y-101970435D01*
G37*
G36*
X178166544Y-119426914D02*
G01*
X178305865Y-119545997D01*
X178424069Y-119695569D01*
X178282617Y-119712779D01*
X178189847Y-119741791D01*
X178139436Y-119821558D01*
X178122046Y-119898514D01*
X178057852Y-120018705D01*
X178010563Y-120104151D01*
X177977997Y-120241539D01*
X177969892Y-120299689D01*
X177904098Y-120435870D01*
X177799377Y-120547024D01*
X177688774Y-120592999D01*
X177632216Y-120608894D01*
X177548369Y-120688181D01*
X177519645Y-120730050D01*
X177471290Y-120749369D01*
X177385406Y-120723054D01*
X177233280Y-120647389D01*
X176993321Y-120470452D01*
X176809213Y-120206883D01*
X176703615Y-119871953D01*
X176701105Y-119857559D01*
X176688223Y-119727184D01*
X176721726Y-119658029D01*
X176819679Y-119609195D01*
X176911820Y-119580197D01*
X177114550Y-119531706D01*
X177363302Y-119482491D01*
X177620991Y-119439152D01*
X177850532Y-119408288D01*
X178014842Y-119396499D01*
X178166544Y-119426914D01*
G37*
G36*
X176518265Y-110268432D02*
G01*
X176513153Y-110364687D01*
X176494488Y-110541008D01*
X176454123Y-110677521D01*
X176376564Y-110815750D01*
X176246317Y-110997215D01*
X176228617Y-111020957D01*
X176106706Y-111184643D01*
X175937142Y-111412476D01*
X175734244Y-111685212D01*
X175512326Y-111983608D01*
X175285706Y-112288419D01*
X174578639Y-113239605D01*
X174563277Y-112615014D01*
X174547914Y-111990424D01*
X175008231Y-111464623D01*
X175200663Y-111249811D01*
X175469228Y-110960006D01*
X175748737Y-110666876D01*
X176002608Y-110409246D01*
X176536669Y-109879669D01*
X176518265Y-110268432D01*
G37*
%TD*%
D10*
%TO.C,J4*%
X199881900Y-84433200D03*
D11*
X199881900Y-86933200D03*
X199881900Y-89433200D03*
X199881900Y-91933200D03*
%TD*%
D10*
%TO.C,J5*%
X200042000Y-102589000D03*
D11*
X200042000Y-105089000D03*
X200042000Y-107589000D03*
X200042000Y-110089000D03*
X200042000Y-112589000D03*
X200042000Y-115089000D03*
%TD*%
D12*
%TO.C,S1*%
X178435000Y-122174000D03*
X178435000Y-129794000D03*
X175895000Y-122174000D03*
D13*
X175895000Y-129794000D03*
%TD*%
D14*
%TO.C,H3*%
X161180700Y-127827200D03*
%TD*%
%TO.C,H4*%
X199280700Y-127827200D03*
%TD*%
D15*
%TO.C,J2*%
X160291700Y-120334200D03*
D16*
X160291700Y-117834200D03*
%TD*%
D14*
%TO.C,H2*%
X199280700Y-77027200D03*
%TD*%
%TO.C,H1*%
X161180700Y-77027200D03*
%TD*%
M02*
