%TF.GenerationSoftware,KiCad,Pcbnew,(6.0.1-0)*%
%TF.CreationDate,2024-02-04T22:08:58-06:00*%
%TF.ProjectId,tackle_sensor_hardware,7461636b-6c65-45f7-9365-6e736f725f68,REV1*%
%TF.SameCoordinates,Original*%
%TF.FileFunction,Copper,L1,Top*%
%TF.FilePolarity,Positive*%
%FSLAX46Y46*%
G04 Gerber Fmt 4.6, Leading zero omitted, Abs format (unit mm)*
G04 Created by KiCad (PCBNEW (6.0.1-0)) date 2024-02-04 22:08:58*
%MOMM*%
%LPD*%
G01*
G04 APERTURE LIST*
G04 Aperture macros list*
%AMRoundRect*
0 Rectangle with rounded corners*
0 $1 Rounding radius*
0 $2 $3 $4 $5 $6 $7 $8 $9 X,Y pos of 4 corners*
0 Add a 4 corners polygon primitive as box body*
4,1,4,$2,$3,$4,$5,$6,$7,$8,$9,$2,$3,0*
0 Add four circle primitives for the rounded corners*
1,1,$1+$1,$2,$3*
1,1,$1+$1,$4,$5*
1,1,$1+$1,$6,$7*
1,1,$1+$1,$8,$9*
0 Add four rect primitives between the rounded corners*
20,1,$1+$1,$2,$3,$4,$5,0*
20,1,$1+$1,$4,$5,$6,$7,0*
20,1,$1+$1,$6,$7,$8,$9,0*
20,1,$1+$1,$8,$9,$2,$3,0*%
G04 Aperture macros list end*
%TA.AperFunction,SMDPad,CuDef*%
%ADD10RoundRect,0.200000X-0.275000X0.200000X-0.275000X-0.200000X0.275000X-0.200000X0.275000X0.200000X0*%
%TD*%
%TA.AperFunction,SMDPad,CuDef*%
%ADD11R,0.450000X1.450000*%
%TD*%
%TA.AperFunction,SMDPad,CuDef*%
%ADD12C,0.500000*%
%TD*%
%TA.AperFunction,SMDPad,CuDef*%
%ADD13RoundRect,0.135000X-0.135000X-0.185000X0.135000X-0.185000X0.135000X0.185000X-0.135000X0.185000X0*%
%TD*%
%TA.AperFunction,SMDPad,CuDef*%
%ADD14R,0.760000X2.400000*%
%TD*%
%TA.AperFunction,SMDPad,CuDef*%
%ADD15C,1.000000*%
%TD*%
%TA.AperFunction,SMDPad,CuDef*%
%ADD16RoundRect,0.250000X0.312500X0.625000X-0.312500X0.625000X-0.312500X-0.625000X0.312500X-0.625000X0*%
%TD*%
%TA.AperFunction,SMDPad,CuDef*%
%ADD17RoundRect,0.225000X0.225000X0.250000X-0.225000X0.250000X-0.225000X-0.250000X0.225000X-0.250000X0*%
%TD*%
%TA.AperFunction,SMDPad,CuDef*%
%ADD18RoundRect,0.250000X0.312500X1.075000X-0.312500X1.075000X-0.312500X-1.075000X0.312500X-1.075000X0*%
%TD*%
%TA.AperFunction,SMDPad,CuDef*%
%ADD19R,0.350000X0.375000*%
%TD*%
%TA.AperFunction,SMDPad,CuDef*%
%ADD20R,0.375000X0.350000*%
%TD*%
%TA.AperFunction,SMDPad,CuDef*%
%ADD21RoundRect,0.225000X-0.225000X-0.250000X0.225000X-0.250000X0.225000X0.250000X-0.225000X0.250000X0*%
%TD*%
%TA.AperFunction,ComponentPad*%
%ADD22RoundRect,0.250000X0.750000X-0.600000X0.750000X0.600000X-0.750000X0.600000X-0.750000X-0.600000X0*%
%TD*%
%TA.AperFunction,ComponentPad*%
%ADD23O,2.000000X1.700000*%
%TD*%
%TA.AperFunction,SMDPad,CuDef*%
%ADD24RoundRect,0.200000X0.200000X0.275000X-0.200000X0.275000X-0.200000X-0.275000X0.200000X-0.275000X0*%
%TD*%
%TA.AperFunction,SMDPad,CuDef*%
%ADD25RoundRect,0.250000X0.250000X0.475000X-0.250000X0.475000X-0.250000X-0.475000X0.250000X-0.475000X0*%
%TD*%
%TA.AperFunction,SMDPad,CuDef*%
%ADD26RoundRect,0.250000X1.500000X0.550000X-1.500000X0.550000X-1.500000X-0.550000X1.500000X-0.550000X0*%
%TD*%
%TA.AperFunction,SMDPad,CuDef*%
%ADD27RoundRect,0.135000X-0.185000X0.135000X-0.185000X-0.135000X0.185000X-0.135000X0.185000X0.135000X0*%
%TD*%
%TA.AperFunction,SMDPad,CuDef*%
%ADD28C,0.254000*%
%TD*%
%TA.AperFunction,SMDPad,CuDef*%
%ADD29RoundRect,0.250000X0.550000X-1.500000X0.550000X1.500000X-0.550000X1.500000X-0.550000X-1.500000X0*%
%TD*%
%TA.AperFunction,SMDPad,CuDef*%
%ADD30R,1.550000X1.300000*%
%TD*%
%TA.AperFunction,SMDPad,CuDef*%
%ADD31RoundRect,0.100000X0.637500X0.100000X-0.637500X0.100000X-0.637500X-0.100000X0.637500X-0.100000X0*%
%TD*%
%TA.AperFunction,SMDPad,CuDef*%
%ADD32RoundRect,0.150000X-0.825000X-0.150000X0.825000X-0.150000X0.825000X0.150000X-0.825000X0.150000X0*%
%TD*%
%TA.AperFunction,SMDPad,CuDef*%
%ADD33RoundRect,0.135000X0.135000X0.185000X-0.135000X0.185000X-0.135000X-0.185000X0.135000X-0.185000X0*%
%TD*%
%TA.AperFunction,SMDPad,CuDef*%
%ADD34RoundRect,0.135000X0.185000X-0.135000X0.185000X0.135000X-0.185000X0.135000X-0.185000X-0.135000X0*%
%TD*%
%TA.AperFunction,SMDPad,CuDef*%
%ADD35R,1.955800X2.362200*%
%TD*%
%TA.AperFunction,SMDPad,CuDef*%
%ADD36R,1.200000X2.200000*%
%TD*%
%TA.AperFunction,SMDPad,CuDef*%
%ADD37R,5.800000X6.400000*%
%TD*%
%TA.AperFunction,SMDPad,CuDef*%
%ADD38RoundRect,0.140000X0.170000X-0.140000X0.170000X0.140000X-0.170000X0.140000X-0.170000X-0.140000X0*%
%TD*%
%TA.AperFunction,ComponentPad*%
%ADD39R,1.580000X1.580000*%
%TD*%
%TA.AperFunction,ComponentPad*%
%ADD40C,1.580000*%
%TD*%
%TA.AperFunction,SMDPad,CuDef*%
%ADD41RoundRect,0.140000X-0.140000X-0.170000X0.140000X-0.170000X0.140000X0.170000X-0.140000X0.170000X0*%
%TD*%
%TA.AperFunction,SMDPad,CuDef*%
%ADD42RoundRect,0.218750X0.218750X0.256250X-0.218750X0.256250X-0.218750X-0.256250X0.218750X-0.256250X0*%
%TD*%
%TA.AperFunction,ComponentPad*%
%ADD43RoundRect,0.250000X-0.725000X0.600000X-0.725000X-0.600000X0.725000X-0.600000X0.725000X0.600000X0*%
%TD*%
%TA.AperFunction,ComponentPad*%
%ADD44O,1.950000X1.700000*%
%TD*%
%TA.AperFunction,SMDPad,CuDef*%
%ADD45R,1.500000X2.000000*%
%TD*%
%TA.AperFunction,SMDPad,CuDef*%
%ADD46R,3.800000X2.000000*%
%TD*%
%TA.AperFunction,SMDPad,CuDef*%
%ADD47RoundRect,0.250000X-0.250000X-0.475000X0.250000X-0.475000X0.250000X0.475000X-0.250000X0.475000X0*%
%TD*%
%TA.AperFunction,SMDPad,CuDef*%
%ADD48R,2.200000X1.200000*%
%TD*%
%TA.AperFunction,SMDPad,CuDef*%
%ADD49R,6.400000X5.800000*%
%TD*%
%TA.AperFunction,SMDPad,CuDef*%
%ADD50R,0.900000X1.200000*%
%TD*%
%TA.AperFunction,SMDPad,CuDef*%
%ADD51R,1.000000X0.800000*%
%TD*%
%TA.AperFunction,SMDPad,CuDef*%
%ADD52RoundRect,0.250000X-0.312500X-1.075000X0.312500X-1.075000X0.312500X1.075000X-0.312500X1.075000X0*%
%TD*%
%TA.AperFunction,SMDPad,CuDef*%
%ADD53RoundRect,0.250000X0.475000X-0.250000X0.475000X0.250000X-0.475000X0.250000X-0.475000X-0.250000X0*%
%TD*%
%TA.AperFunction,SMDPad,CuDef*%
%ADD54R,1.100000X1.100000*%
%TD*%
%TA.AperFunction,ViaPad*%
%ADD55C,0.500000*%
%TD*%
%TA.AperFunction,Conductor*%
%ADD56C,0.228600*%
%TD*%
%TA.AperFunction,Conductor*%
%ADD57C,1.016000*%
%TD*%
%TA.AperFunction,Conductor*%
%ADD58C,1.524000*%
%TD*%
%TA.AperFunction,Conductor*%
%ADD59C,0.508000*%
%TD*%
%TA.AperFunction,Conductor*%
%ADD60C,0.200000*%
%TD*%
%TA.AperFunction,Conductor*%
%ADD61C,0.254000*%
%TD*%
%TA.AperFunction,Conductor*%
%ADD62C,1.270000*%
%TD*%
G04 APERTURE END LIST*
D10*
%TO.P,R14,1*%
%TO.N,Net-(D4-Pad3)*%
X179832000Y-78360000D03*
%TO.P,R14,2*%
%TO.N,Net-(R14-Pad2)*%
X179832000Y-80010000D03*
%TD*%
D11*
%TO.P,U2,1,ISEN*%
%TO.N,Net-(C8-Pad1)*%
X160250700Y-83590200D03*
%TO.P,U2,2,COMP*%
%TO.N,Net-(C5-Pad1)*%
X159600700Y-83590200D03*
%TO.P,U2,3,FB*%
%TO.N,Net-(R8-Pad2)*%
X158950700Y-83590200D03*
%TO.P,U2,4,AGND*%
%TO.N,GND*%
X158300700Y-83590200D03*
%TO.P,U2,5,PGND*%
X158300700Y-87990200D03*
%TO.P,U2,6,DR*%
%TO.N,Net-(Q2-Pad1)*%
X158950700Y-87990200D03*
%TO.P,U2,7,FA/SYNC/SD*%
%TO.N,Net-(R4-Pad1)*%
X159600700Y-87990200D03*
%TO.P,U2,8,VIN*%
%TO.N,Net-(C2-Pad1)*%
X160250700Y-87990200D03*
%TD*%
D12*
%TO.P,FID2,*%
%TO.N,*%
X194310000Y-76200000D03*
%TD*%
D13*
%TO.P,R16,1*%
%TO.N,TACKLE_STATUS*%
X193413000Y-111252000D03*
%TO.P,R16,2*%
%TO.N,Net-(J5-Pad3)*%
X194433000Y-111252000D03*
%TD*%
D14*
%TO.P,J1,1,VTref*%
%TO.N,+3V3*%
X181018104Y-114777402D03*
%TO.P,J1,2,SWDIO/TMS*%
%TO.N,/SWDIO*%
X181018104Y-118677402D03*
%TO.P,J1,3,GND*%
%TO.N,GND*%
X179748104Y-114777402D03*
%TO.P,J1,4,SWDCLK/TCK*%
%TO.N,/SWCLK*%
X179748104Y-118677402D03*
%TO.P,J1,5,GND*%
%TO.N,GND*%
X178478104Y-114777402D03*
%TO.P,J1,6,SWO/TDO*%
%TO.N,unconnected-(J1-Pad6)*%
X178478104Y-118677402D03*
%TO.P,J1,7,KEY*%
%TO.N,unconnected-(J1-Pad7)*%
X177208104Y-114777402D03*
%TO.P,J1,8,NC/TDI*%
%TO.N,unconnected-(J1-Pad8)*%
X177208104Y-118677402D03*
%TO.P,J1,9,GNDDetect*%
%TO.N,GND*%
X175938104Y-114777402D03*
%TO.P,J1,10,~{RESET}*%
%TO.N,/RST*%
X175938104Y-118677402D03*
%TD*%
D15*
%TO.P,TP1,1,1*%
%TO.N,GND*%
X171213700Y-114111200D03*
%TD*%
D16*
%TO.P,R7,1*%
%TO.N,Net-(Q2-Pad2)*%
X170023900Y-80710200D03*
%TO.P,R7,2*%
%TO.N,GND*%
X167098900Y-80710200D03*
%TD*%
D12*
%TO.P,FID3,*%
%TO.N,*%
X194310000Y-120650000D03*
%TD*%
D13*
%TO.P,R1,1*%
%TO.N,Net-(D1-Pad2)*%
X172102700Y-118556200D03*
%TO.P,R1,2*%
%TO.N,GND*%
X173122700Y-118556200D03*
%TD*%
D17*
%TO.P,C11,1*%
%TO.N,+3V3*%
X189324500Y-118251400D03*
%TO.P,C11,2*%
%TO.N,GND*%
X187774500Y-118251400D03*
%TD*%
D18*
%TO.P,R19,1*%
%TO.N,Net-(J4-Pad4)*%
X192020300Y-88990600D03*
%TO.P,R19,2*%
%TO.N,Net-(R19-Pad2)*%
X189095300Y-88990600D03*
%TD*%
%TO.P,R17,1*%
%TO.N,Net-(J4-Pad3)*%
X191918700Y-84266200D03*
%TO.P,R17,2*%
%TO.N,Net-(R17-Pad2)*%
X188993700Y-84266200D03*
%TD*%
D12*
%TO.P,FID1,*%
%TO.N,*%
X170180000Y-76200000D03*
%TD*%
D19*
%TO.P,U3,1,SCL/SPC*%
%TO.N,/SPI1_SCK*%
X189540500Y-115253700D03*
%TO.P,U3,2,~{CS}*%
%TO.N,/SPI1_NSS*%
X189040500Y-115253700D03*
%TO.P,U3,3,SA0/SDO*%
%TO.N,/SPI1_MISO*%
X188540500Y-115253700D03*
%TO.P,U3,4,SDA/SDI*%
%TO.N,/SPI1_MOSI*%
X188040500Y-115253700D03*
D20*
%TO.P,U3,5,RES*%
%TO.N,/SPI_RST*%
X188028000Y-115766200D03*
%TO.P,U3,6,GND*%
%TO.N,GND*%
X188028000Y-116266200D03*
D19*
%TO.P,U3,7,GND*%
X188040500Y-116778700D03*
%TO.P,U3,8,GND*%
X188540500Y-116778700D03*
%TO.P,U3,9,Vdd*%
%TO.N,+3V3*%
X189040500Y-116778700D03*
%TO.P,U3,10,Vdd_IO*%
X189540500Y-116778700D03*
D20*
%TO.P,U3,11,INT2*%
%TO.N,/ACC_INT2*%
X189553000Y-116266200D03*
%TO.P,U3,12,INT1*%
%TO.N,/ACC_INT1*%
X189553000Y-115766200D03*
%TD*%
D21*
%TO.P,C7,1*%
%TO.N,+3V3*%
X192646000Y-106426000D03*
%TO.P,C7,2*%
%TO.N,GND*%
X194196000Y-106426000D03*
%TD*%
D22*
%TO.P,J2,1,Pin_1*%
%TO.N,GND*%
X160291700Y-120334200D03*
D23*
%TO.P,J2,2,Pin_2*%
%TO.N,Net-(J2-Pad2)*%
X160291700Y-117834200D03*
%TD*%
D24*
%TO.P,R12,1*%
%TO.N,Net-(D3-Pad1)*%
X198843400Y-121932200D03*
%TO.P,R12,2*%
%TO.N,GND*%
X197193400Y-121932200D03*
%TD*%
D25*
%TO.P,C3,1*%
%TO.N,Net-(C2-Pad1)*%
X160291700Y-90489200D03*
%TO.P,C3,2*%
%TO.N,GND*%
X158391700Y-90489200D03*
%TD*%
D26*
%TO.P,C2,1*%
%TO.N,Net-(C2-Pad1)*%
X165023700Y-110301200D03*
%TO.P,C2,2*%
%TO.N,GND*%
X159623700Y-110301200D03*
%TD*%
D27*
%TO.P,R3,1*%
%TO.N,GND*%
X183050100Y-114996200D03*
%TO.P,R3,2*%
%TO.N,/SWCLK*%
X183050100Y-116016200D03*
%TD*%
D13*
%TO.P,R20,1*%
%TO.N,UART_RX*%
X193673000Y-103632000D03*
%TO.P,R20,2*%
%TO.N,Net-(J5-Pad2)*%
X194693000Y-103632000D03*
%TD*%
D10*
%TO.P,R11,1*%
%TO.N,Net-(D4-Pad1)*%
X185572400Y-78360000D03*
%TO.P,R11,2*%
%TO.N,Net-(R11-Pad2)*%
X185572400Y-80010000D03*
%TD*%
D13*
%TO.P,R4,1*%
%TO.N,Net-(R4-Pad1)*%
X161862500Y-87517400D03*
%TO.P,R4,2*%
%TO.N,GND*%
X162882500Y-87517400D03*
%TD*%
D28*
%TO.P,TP11,1,1*%
%TO.N,/SPI1_SCK*%
X188739700Y-114187400D03*
%TD*%
D29*
%TO.P,C15,1*%
%TO.N,+3V3*%
X191990900Y-101596600D03*
%TO.P,C15,2*%
%TO.N,GND*%
X191990900Y-96196600D03*
%TD*%
D30*
%TO.P,SW1,1,1*%
%TO.N,/RST*%
X180324500Y-110189000D03*
X172364500Y-110189000D03*
%TO.P,SW1,2,2*%
%TO.N,GND*%
X180324500Y-105689000D03*
X172364500Y-105689000D03*
%TD*%
D31*
%TO.P,U1,1,PB7/PB8*%
%TO.N,HOME_SELECT*%
X188859000Y-111118000D03*
%TO.P,U1,2,PB9/PC14-OSC32_IN*%
%TO.N,TACKLE_STATUS*%
X188859000Y-110468000D03*
%TO.P,U1,3,PC15-OSC32_OUT*%
%TO.N,ELIGIBLE_SELECT*%
X188859000Y-109818000D03*
%TO.P,U1,4,VDD*%
%TO.N,+3V3*%
X188859000Y-109168000D03*
%TO.P,U1,5,VSS*%
%TO.N,GND*%
X188859000Y-108518000D03*
%TO.P,U1,6,PF2-NRST*%
%TO.N,/RST*%
X188859000Y-107868000D03*
%TO.P,U1,7,PA0*%
%TO.N,/ACC_INT1*%
X188859000Y-107218000D03*
%TO.P,U1,8,PA1*%
%TO.N,/SPI1_SCK*%
X188859000Y-106568000D03*
%TO.P,U1,9,PA2*%
%TO.N,UART_TX*%
X188859000Y-105918000D03*
%TO.P,U1,10,PA3*%
%TO.N,UART_RX*%
X188859000Y-105268000D03*
%TO.P,U1,11,PA4*%
%TO.N,/SPI1_NSS*%
X183134000Y-105268000D03*
%TO.P,U1,12,PA5*%
%TO.N,/ACC_INT2*%
X183134000Y-105918000D03*
%TO.P,U1,13,PA6*%
%TO.N,/SPI1_MISO*%
X183134000Y-106568000D03*
%TO.P,U1,14,PA7*%
%TO.N,/SPI1_MOSI*%
X183134000Y-107218000D03*
%TO.P,U1,15,PB0/PB1/PB2/PA8*%
%TO.N,B_PWM*%
X183134000Y-107868000D03*
%TO.P,U1,16,PA11[PA9]*%
%TO.N,G_PWM*%
X183134000Y-108518000D03*
%TO.P,U1,17,PA12[PA10]*%
%TO.N,/SPI_RST*%
X183134000Y-109168000D03*
%TO.P,U1,18,PA13*%
%TO.N,/SWDIO*%
X183134000Y-109818000D03*
%TO.P,U1,19,PA15/PA14-BOOT0*%
%TO.N,/SWCLK*%
X183134000Y-110468000D03*
%TO.P,U1,20,PB3/PB4/PB5/PB6*%
%TO.N,R_PWM*%
X183134000Y-111118000D03*
%TD*%
D13*
%TO.P,R18,1*%
%TO.N,UART_TX*%
X193673000Y-104775000D03*
%TO.P,R18,2*%
%TO.N,Net-(J5-Pad1)*%
X194693000Y-104775000D03*
%TD*%
D25*
%TO.P,C9,1*%
%TO.N,+3V3*%
X189318900Y-120232600D03*
%TO.P,C9,2*%
%TO.N,GND*%
X187418900Y-120232600D03*
%TD*%
D32*
%TO.P,U5,1,I1*%
%TO.N,R_PWM*%
X180676700Y-82107200D03*
%TO.P,U5,2,I2*%
%TO.N,G_PWM*%
X180676700Y-83377200D03*
%TO.P,U5,3,I3*%
%TO.N,B_PWM*%
X180676700Y-84647200D03*
%TO.P,U5,4,I4*%
%TO.N,R_PWM*%
X180676700Y-85917200D03*
%TO.P,U5,5,I5*%
%TO.N,G_PWM*%
X180676700Y-87187200D03*
%TO.P,U5,6,I6*%
%TO.N,B_PWM*%
X180676700Y-88457200D03*
%TO.P,U5,7,I7*%
%TO.N,GND*%
X180676700Y-89727200D03*
%TO.P,U5,8,GND*%
X180676700Y-90997200D03*
%TO.P,U5,9,COM*%
%TO.N,+12V*%
X185626700Y-90997200D03*
%TO.P,U5,10,O7*%
%TO.N,unconnected-(U5-Pad10)*%
X185626700Y-89727200D03*
%TO.P,U5,11,O6*%
%TO.N,Net-(R19-Pad2)*%
X185626700Y-88457200D03*
%TO.P,U5,12,O5*%
%TO.N,Net-(R17-Pad2)*%
X185626700Y-87187200D03*
%TO.P,U5,13,O4*%
%TO.N,Net-(R15-Pad2)*%
X185626700Y-85917200D03*
%TO.P,U5,14,O3*%
%TO.N,Net-(R14-Pad2)*%
X185626700Y-84647200D03*
%TO.P,U5,15,O2*%
%TO.N,Net-(R13-Pad2)*%
X185626700Y-83377200D03*
%TO.P,U5,16,O1*%
%TO.N,Net-(R11-Pad2)*%
X185626700Y-82107200D03*
%TD*%
D28*
%TO.P,TP13,1,1*%
%TO.N,/ACC_INT1*%
X188485700Y-113374600D03*
%TD*%
%TO.P,TP8,1,1*%
%TO.N,/SPI1_NSS*%
X187114100Y-113222200D03*
%TD*%
D33*
%TO.P,R9,1*%
%TO.N,Net-(R8-Pad2)*%
X172940900Y-93511800D03*
%TO.P,R9,2*%
%TO.N,GND*%
X171920900Y-93511800D03*
%TD*%
D13*
%TO.P,R2,1*%
%TO.N,Net-(C5-Pad1)*%
X161913300Y-83702200D03*
%TO.P,R2,2*%
%TO.N,Net-(C6-Pad1)*%
X162933300Y-83702200D03*
%TD*%
D33*
%TO.P,R22,1*%
%TO.N,+3V3*%
X194441000Y-113919000D03*
%TO.P,R22,2*%
%TO.N,HOME_SELECT*%
X193421000Y-113919000D03*
%TD*%
D34*
%TO.P,R23,1*%
%TO.N,Net-(R23-Pad1)*%
X185674000Y-119282400D03*
%TO.P,R23,2*%
%TO.N,GND*%
X185674000Y-118262400D03*
%TD*%
D35*
%TO.P,T1,1,AA*%
%TO.N,Net-(C10-Pad1)*%
X165855700Y-93422900D03*
%TO.P,T1,2,AB*%
%TO.N,Net-(C10-Pad2)*%
X162855700Y-93422900D03*
%TO.P,T1,3,SA*%
%TO.N,GND*%
X162855700Y-104065500D03*
%TO.P,T1,4,SB*%
%TO.N,Net-(C2-Pad1)*%
X165855700Y-104065500D03*
%TD*%
D33*
%TO.P,R8,1*%
%TO.N,+12V*%
X175887300Y-93511800D03*
%TO.P,R8,2*%
%TO.N,Net-(R8-Pad2)*%
X174867300Y-93511800D03*
%TD*%
%TO.P,R5,1*%
%TO.N,+3V3*%
X194441000Y-115062000D03*
%TO.P,R5,2*%
%TO.N,ELIGIBLE_SELECT*%
X193421000Y-115062000D03*
%TD*%
D36*
%TO.P,Q1,1,G*%
%TO.N,Net-(D1-Pad2)*%
X171462700Y-121503200D03*
D37*
%TO.P,Q1,2,D*%
%TO.N,Net-(J2-Pad2)*%
X169182700Y-127803200D03*
D36*
%TO.P,Q1,3,S*%
%TO.N,Net-(C2-Pad1)*%
X166902700Y-121503200D03*
%TD*%
D38*
%TO.P,C6,1*%
%TO.N,Net-(C6-Pad1)*%
X163085700Y-82533800D03*
%TO.P,C6,2*%
%TO.N,GND*%
X163085700Y-81573800D03*
%TD*%
D10*
%TO.P,R13,1*%
%TO.N,Net-(D4-Pad4)*%
X182676800Y-78360000D03*
%TO.P,R13,2*%
%TO.N,Net-(R13-Pad2)*%
X182676800Y-80010000D03*
%TD*%
D39*
%TO.P,S1,1A*%
%TO.N,Net-(R21-Pad1)*%
X175895000Y-129794000D03*
D40*
%TO.P,S1,1B*%
%TO.N,ELIGIBLE_SELECT*%
X175895000Y-122174000D03*
%TO.P,S1,2A*%
%TO.N,Net-(R23-Pad1)*%
X178435000Y-129794000D03*
%TO.P,S1,2B*%
%TO.N,HOME_SELECT*%
X178435000Y-122174000D03*
%TD*%
D34*
%TO.P,R21,1*%
%TO.N,Net-(R21-Pad1)*%
X184454800Y-119280400D03*
%TO.P,R21,2*%
%TO.N,GND*%
X184454800Y-118260400D03*
%TD*%
D41*
%TO.P,C8,1*%
%TO.N,Net-(C8-Pad1)*%
X161917300Y-86191400D03*
%TO.P,C8,2*%
%TO.N,GND*%
X162877300Y-86191400D03*
%TD*%
D42*
%TO.P,D3,1,K*%
%TO.N,Net-(D3-Pad1)*%
X198780400Y-120205000D03*
%TO.P,D3,2,A*%
%TO.N,+3V3*%
X197205400Y-120205000D03*
%TD*%
D13*
%TO.P,R6,1*%
%TO.N,Net-(C8-Pad1)*%
X161915300Y-84921400D03*
%TO.P,R6,2*%
%TO.N,Net-(Q2-Pad2)*%
X162935300Y-84921400D03*
%TD*%
D38*
%TO.P,C5,1*%
%TO.N,Net-(C5-Pad1)*%
X161917300Y-82533800D03*
%TO.P,C5,2*%
%TO.N,GND*%
X161917300Y-81573800D03*
%TD*%
D43*
%TO.P,J5,1,Pin_1*%
%TO.N,Net-(J5-Pad1)*%
X200042000Y-102589000D03*
D44*
%TO.P,J5,2,Pin_2*%
%TO.N,Net-(J5-Pad2)*%
X200042000Y-105089000D03*
%TO.P,J5,3,Pin_3*%
%TO.N,Net-(J5-Pad3)*%
X200042000Y-107589000D03*
%TO.P,J5,4,Pin_4*%
%TO.N,Net-(J5-Pad4)*%
X200042000Y-110089000D03*
%TO.P,J5,5,Pin_5*%
%TO.N,Net-(J5-Pad5)*%
X200042000Y-112589000D03*
%TO.P,J5,6,Pin_6*%
%TO.N,GND*%
X200042000Y-115089000D03*
%TD*%
D43*
%TO.P,J4,1,Pin_1*%
%TO.N,Net-(F1-Pad2)*%
X199881900Y-84433200D03*
D44*
%TO.P,J4,2,Pin_2*%
%TO.N,Net-(J4-Pad2)*%
X199881900Y-86933200D03*
%TO.P,J4,3,Pin_3*%
%TO.N,Net-(J4-Pad3)*%
X199881900Y-89433200D03*
%TO.P,J4,4,Pin_4*%
%TO.N,Net-(J4-Pad4)*%
X199881900Y-91933200D03*
%TD*%
D17*
%TO.P,C10,1*%
%TO.N,Net-(C10-Pad1)*%
X164406500Y-90616200D03*
%TO.P,C10,2*%
%TO.N,Net-(C10-Pad2)*%
X162856500Y-90616200D03*
%TD*%
D45*
%TO.P,U4,1,GND*%
%TO.N,GND*%
X186670900Y-96203800D03*
%TO.P,U4,2,VO*%
%TO.N,+3V3*%
X184370900Y-96203800D03*
D46*
X184370900Y-102503800D03*
D45*
%TO.P,U4,3,VI*%
%TO.N,+12V*%
X182070900Y-96203800D03*
%TD*%
D47*
%TO.P,C14,1*%
%TO.N,+12V*%
X188516100Y-93054600D03*
%TO.P,C14,2*%
%TO.N,GND*%
X190416100Y-93054600D03*
%TD*%
D26*
%TO.P,C12,1*%
%TO.N,+12V*%
X178738100Y-98744200D03*
%TO.P,C12,2*%
%TO.N,GND*%
X173138100Y-98744200D03*
%TD*%
D47*
%TO.P,C13,1*%
%TO.N,+12V*%
X184045700Y-93511800D03*
%TO.P,C13,2*%
%TO.N,GND*%
X185945700Y-93511800D03*
%TD*%
D28*
%TO.P,TP2,1,1*%
%TO.N,/RST*%
X174261700Y-112663400D03*
%TD*%
%TO.P,TP10,1,1*%
%TO.N,/SPI1_MISO*%
X187774500Y-114289000D03*
%TD*%
D48*
%TO.P,Q2,1,G*%
%TO.N,Net-(Q2-Pad1)*%
X175327900Y-88678800D03*
D49*
%TO.P,Q2,2,D*%
%TO.N,Net-(C10-Pad2)*%
X169027900Y-86398800D03*
D48*
%TO.P,Q2,3,S*%
%TO.N,Net-(Q2-Pad2)*%
X175327900Y-84118800D03*
%TD*%
D28*
%TO.P,TP14,1,1*%
%TO.N,/ACC_INT2*%
X189908100Y-113984200D03*
%TD*%
D47*
%TO.P,C4,1*%
%TO.N,+3V3*%
X192283000Y-108331000D03*
%TO.P,C4,2*%
%TO.N,GND*%
X194183000Y-108331000D03*
%TD*%
D13*
%TO.P,R24,1*%
%TO.N,ELIGIBLE_SELECT*%
X193413000Y-109982000D03*
%TO.P,R24,2*%
%TO.N,Net-(J5-Pad5)*%
X194433000Y-109982000D03*
%TD*%
D50*
%TO.P,D1,1,K*%
%TO.N,Net-(C2-Pad1)*%
X166896700Y-118556200D03*
%TO.P,D1,2,A*%
%TO.N,Net-(D1-Pad2)*%
X170196700Y-118556200D03*
%TD*%
D27*
%TO.P,R10,1*%
%TO.N,/SPI_RST*%
X186182000Y-115870800D03*
%TO.P,R10,2*%
%TO.N,GND*%
X186182000Y-116890800D03*
%TD*%
D15*
%TO.P,TP3,1,1*%
%TO.N,Net-(C2-Pad1)*%
X167944800Y-106680000D03*
%TD*%
D51*
%TO.P,D4,1,A*%
%TO.N,Net-(D4-Pad1)*%
X179090000Y-74509400D03*
%TO.P,D4,2,RK*%
%TO.N,+12V*%
X179090000Y-75909400D03*
%TO.P,D4,3,GK*%
%TO.N,Net-(D4-Pad3)*%
X181590000Y-75909400D03*
%TO.P,D4,4,BK*%
%TO.N,Net-(D4-Pad4)*%
X181590000Y-74509400D03*
%TD*%
D13*
%TO.P,R25,1*%
%TO.N,HOME_SELECT*%
X193417000Y-112522000D03*
%TO.P,R25,2*%
%TO.N,Net-(J5-Pad4)*%
X194437000Y-112522000D03*
%TD*%
D18*
%TO.P,R15,1*%
%TO.N,Net-(J4-Pad2)*%
X191889300Y-79745000D03*
%TO.P,R15,2*%
%TO.N,Net-(R15-Pad2)*%
X188964300Y-79745000D03*
%TD*%
D52*
%TO.P,F1,1*%
%TO.N,+12V*%
X188964300Y-76341400D03*
%TO.P,F1,2*%
%TO.N,Net-(F1-Pad2)*%
X191889300Y-76341400D03*
%TD*%
D28*
%TO.P,TP9,1,1*%
%TO.N,/SPI1_MOSI*%
X186402900Y-113628600D03*
%TD*%
D15*
%TO.P,TP15,1,1*%
%TO.N,+3V3*%
X179578000Y-103505000D03*
%TD*%
D53*
%TO.P,C1,1*%
%TO.N,/RST*%
X169943700Y-108548600D03*
%TO.P,C1,2*%
%TO.N,GND*%
X169943700Y-106648600D03*
%TD*%
D54*
%TO.P,D2,1,K*%
%TO.N,+12V*%
X175074500Y-91378200D03*
%TO.P,D2,2,A*%
%TO.N,Net-(C10-Pad1)*%
X172274500Y-91378200D03*
%TD*%
D15*
%TO.P,TP12,1,1*%
%TO.N,+12V*%
X184878900Y-74512600D03*
%TD*%
D55*
%TO.N,GND*%
X195326000Y-108331000D03*
X164000100Y-86196600D03*
X167149700Y-78170200D03*
X179087700Y-90971800D03*
X166133700Y-77281200D03*
X167149700Y-76392200D03*
X175938100Y-112460200D03*
X173144100Y-97220200D03*
X168165700Y-76392200D03*
X186656900Y-118251400D03*
X179595700Y-112511000D03*
X166133700Y-78170200D03*
X173992900Y-105689000D03*
X166133700Y-74360200D03*
X167149700Y-74360200D03*
X167149700Y-77281200D03*
X178478100Y-112561800D03*
X189704500Y-96203800D03*
X168165700Y-75376200D03*
X171213700Y-116016200D03*
X168165700Y-74360200D03*
X190162100Y-108599400D03*
X174134700Y-118556200D03*
X167149700Y-79059200D03*
X186250500Y-120486600D03*
X166133700Y-75376200D03*
X195199000Y-106426000D03*
X166133700Y-79059200D03*
X159656700Y-111952200D03*
X167149700Y-75376200D03*
X195947800Y-121983000D03*
X179036900Y-89701800D03*
X166133700Y-76392200D03*
%TO.N,+3V3*%
X190365300Y-119165800D03*
X194462400Y-116230400D03*
X181018100Y-112612600D03*
X195998600Y-120154200D03*
X191643000Y-106299000D03*
X189037400Y-102503800D03*
X188326192Y-102503808D03*
%TO.N,+12V*%
X186453700Y-75477800D03*
X177335100Y-92368800D03*
X177088800Y-76479400D03*
%TO.N,R_PWM*%
X182288100Y-85891800D03*
X181881700Y-111291800D03*
%TO.N,G_PWM*%
X181526100Y-108396200D03*
X182186500Y-87161800D03*
%TO.N,B_PWM*%
X181729300Y-107634200D03*
X182237300Y-88533400D03*
%TO.N,/RST*%
X181780100Y-109615400D03*
X190212900Y-107735800D03*
%TO.N,/ACC_INT2*%
X186021900Y-108116800D03*
X188079300Y-112257000D03*
%TO.N,Net-(Q2-Pad1)*%
X173448900Y-88838200D03*
X159174100Y-86501400D03*
%TO.N,ELIGIBLE_SELECT*%
X190517700Y-109767800D03*
X189704900Y-112511000D03*
%TO.N,HOME_SELECT*%
X190982600Y-112420400D03*
%TO.N,Net-(R8-Pad2)*%
X158564500Y-85790200D03*
X173855300Y-93511800D03*
%TD*%
D56*
%TO.N,/SPI_RST*%
X183134000Y-109168000D02*
X183703492Y-109168000D01*
X183703492Y-109168000D02*
X185166000Y-110630508D01*
X185166000Y-110630508D02*
X185166000Y-114854800D01*
X185166000Y-114854800D02*
X186182000Y-115870800D01*
D57*
%TO.N,GND*%
X189711700Y-96196600D02*
X189704500Y-96203800D01*
D58*
X162855700Y-107069200D02*
X159623700Y-110301200D01*
D59*
X180676700Y-90997200D02*
X179113100Y-90997200D01*
D57*
X191990900Y-96196600D02*
X189711700Y-96196600D01*
D56*
X187524500Y-116266200D02*
X187368100Y-116422600D01*
D60*
X186656900Y-118251400D02*
X185685000Y-118251400D01*
D57*
X173138100Y-98744200D02*
X173138100Y-97226200D01*
D56*
X181828089Y-116218211D02*
X180368911Y-116218211D01*
X187470200Y-117134300D02*
X187470200Y-116778700D01*
X187470200Y-116778700D02*
X188040500Y-116778700D01*
D60*
X184456800Y-118262400D02*
X184454800Y-118260400D01*
D56*
X183050100Y-114996200D02*
X181828089Y-116218211D01*
D59*
X178478100Y-114777400D02*
X178478100Y-112561800D01*
D56*
X187774500Y-118251400D02*
X186707700Y-118251400D01*
D57*
X159623700Y-111919200D02*
X159656700Y-111952200D01*
D56*
X195998600Y-121932200D02*
X195947800Y-121983000D01*
D57*
X173138100Y-97226200D02*
X173144100Y-97220200D01*
D60*
X187470200Y-116778700D02*
X187358100Y-116890800D01*
D56*
X187368100Y-116676600D02*
X187470200Y-116778700D01*
X186250500Y-120435800D02*
X186250500Y-120486600D01*
D57*
X186670900Y-96203800D02*
X189704500Y-96203800D01*
D56*
X194196000Y-106426000D02*
X194196000Y-108318000D01*
D59*
X172364500Y-105689000D02*
X173920900Y-105689000D01*
D61*
X162877300Y-86191400D02*
X162877300Y-87512200D01*
D56*
X180368911Y-116218211D02*
X179748100Y-115597400D01*
D59*
X171404900Y-106648600D02*
X172364500Y-105689000D01*
D56*
X194183000Y-108331000D02*
X195326000Y-108331000D01*
X194196000Y-106426000D02*
X195199000Y-106426000D01*
D59*
X169943700Y-106648600D02*
X171404900Y-106648600D01*
D58*
X162855700Y-104065500D02*
X162855700Y-107069200D01*
D56*
X186453700Y-120232600D02*
X186250500Y-120435800D01*
X187418900Y-120232600D02*
X186453700Y-120232600D01*
D57*
X186670900Y-96203800D02*
X186670900Y-94237000D01*
D59*
X179748100Y-112511000D02*
X179595700Y-112511000D01*
D61*
X171920900Y-93511800D02*
X171920900Y-95997000D01*
D59*
X180324500Y-105689000D02*
X173992900Y-105689000D01*
D56*
X188540500Y-116778700D02*
X188040500Y-116778700D01*
D57*
X190416100Y-93054600D02*
X190416100Y-95492200D01*
X186670900Y-94237000D02*
X185945700Y-93511800D01*
D56*
X190111300Y-108599400D02*
X190162100Y-108599400D01*
D61*
X163994900Y-86191400D02*
X164000100Y-86196600D01*
D57*
X171213700Y-114111200D02*
X171213700Y-116016200D01*
D60*
X185685000Y-118251400D02*
X185674000Y-118262400D01*
D61*
X173122700Y-118556200D02*
X174134700Y-118556200D01*
D56*
X188859000Y-108518000D02*
X190029900Y-108518000D01*
X186707700Y-118251400D02*
X186656900Y-118251400D01*
X197193400Y-121932200D02*
X195998600Y-121932200D01*
X187774500Y-117438600D02*
X187470200Y-117134300D01*
D57*
X159623700Y-110301200D02*
X159623700Y-111919200D01*
D59*
X179748100Y-114777400D02*
X179748100Y-112511000D01*
D56*
X194196000Y-108318000D02*
X194183000Y-108331000D01*
X187368100Y-116422600D02*
X187368100Y-116676600D01*
D61*
X171920900Y-95997000D02*
X173144100Y-97220200D01*
D56*
X188028000Y-116266200D02*
X187524500Y-116266200D01*
D60*
X187358100Y-116890800D02*
X186182000Y-116890800D01*
D56*
X187418900Y-120232600D02*
X187418900Y-118607000D01*
D59*
X180676700Y-89727200D02*
X179062300Y-89727200D01*
D56*
X187774500Y-118251400D02*
X187774500Y-117438600D01*
D57*
X190416100Y-95492200D02*
X189711700Y-96196600D01*
D56*
X187418900Y-118607000D02*
X187774500Y-118251400D01*
X190029900Y-108518000D02*
X190111300Y-108599400D01*
X179748100Y-115597400D02*
X179748100Y-114777400D01*
D59*
X175938100Y-114777400D02*
X175938100Y-112460200D01*
D61*
X162877300Y-86191400D02*
X163994900Y-86191400D01*
D59*
X179113100Y-90997200D02*
X179087700Y-90971800D01*
D61*
X162877300Y-87512200D02*
X162882500Y-87517400D01*
D60*
X185674000Y-118262400D02*
X184456800Y-118262400D01*
D59*
X179062300Y-89727200D02*
X179036900Y-89701800D01*
D58*
%TO.N,Net-(F1-Pad2)*%
X191889300Y-76341400D02*
X198899700Y-83351800D01*
X198899700Y-83351800D02*
X198899700Y-84433200D01*
X198899700Y-84433200D02*
X199881900Y-84433200D01*
%TO.N,Net-(J2-Pad2)*%
X162236700Y-117834200D02*
X163212700Y-118810200D01*
X163212700Y-123001200D02*
X168014700Y-127803200D01*
X168014700Y-127803200D02*
X169182700Y-127803200D01*
X163212700Y-118810200D02*
X163212700Y-123001200D01*
X160291700Y-117834200D02*
X162236700Y-117834200D01*
D56*
%TO.N,+3V3*%
X189318900Y-120232600D02*
X189318900Y-119135400D01*
X191770000Y-106426000D02*
X191643000Y-106299000D01*
X189540500Y-118035400D02*
X189324500Y-118251400D01*
D57*
X184370900Y-102503800D02*
X188326200Y-102503800D01*
X189037400Y-102503800D02*
X191083700Y-102503800D01*
D56*
X189318900Y-118257000D02*
X189324500Y-118251400D01*
X194441000Y-115062000D02*
X194441000Y-116209000D01*
X189318900Y-119135400D02*
X189318900Y-118257000D01*
D57*
X191083700Y-102503800D02*
X191990900Y-101596600D01*
D56*
X188859000Y-109168000D02*
X191446000Y-109168000D01*
X194441000Y-116209000D02*
X194462400Y-116230400D01*
X189040500Y-116778700D02*
X189540500Y-116778700D01*
D61*
X180579200Y-102503800D02*
X179578000Y-103505000D01*
D57*
X184370900Y-96203800D02*
X184370900Y-102503800D01*
D56*
X192646000Y-106426000D02*
X191770000Y-106426000D01*
X189318900Y-119135400D02*
X190334900Y-119135400D01*
D57*
X188326200Y-102503800D02*
X189037400Y-102503800D01*
D56*
X196049400Y-120205000D02*
X195998600Y-120154200D01*
X189540500Y-116778700D02*
X189540500Y-118035400D01*
D59*
X181018100Y-114777400D02*
X181018100Y-112612600D01*
D56*
X192283000Y-106789000D02*
X192646000Y-106426000D01*
X192283000Y-108331000D02*
X192283000Y-106789000D01*
D61*
X184370900Y-102503800D02*
X180579200Y-102503800D01*
D60*
X194441000Y-113919000D02*
X194441000Y-115062000D01*
D56*
X190334900Y-119135400D02*
X190365300Y-119165800D01*
X191446000Y-109168000D02*
X192283000Y-108331000D01*
X197205400Y-120205000D02*
X196049400Y-120205000D01*
%TO.N,/SWDIO*%
X184467431Y-117240469D02*
X183030500Y-118677400D01*
X183703492Y-109818000D02*
X184467431Y-110581939D01*
X184467431Y-110581939D02*
X184467431Y-117240469D01*
X183134000Y-109818000D02*
X183703492Y-109818000D01*
X183030500Y-118677400D02*
X181018100Y-118677400D01*
D61*
%TO.N,Net-(C8-Pad1)*%
X161915300Y-84921400D02*
X161915300Y-86189400D01*
X161581900Y-84921400D02*
X160250700Y-83590200D01*
X161915300Y-86189400D02*
X161917300Y-86191400D01*
X161915300Y-84921400D02*
X161581900Y-84921400D01*
%TO.N,Net-(C6-Pad1)*%
X163085700Y-82533800D02*
X163085700Y-83549800D01*
X163085700Y-83549800D02*
X162933300Y-83702200D01*
%TO.N,Net-(R4-Pad1)*%
X161356789Y-87011689D02*
X159772189Y-87011689D01*
X161862500Y-87517400D02*
X161356789Y-87011689D01*
X159600700Y-87183178D02*
X159600700Y-87990200D01*
X159772189Y-87011689D02*
X159600700Y-87183178D01*
D57*
%TO.N,+12V*%
X183785700Y-93771800D02*
X184045700Y-93511800D01*
X178738100Y-93771800D02*
X183785700Y-93771800D01*
D61*
X175887300Y-92191000D02*
X175074500Y-91378200D01*
X175887300Y-93511800D02*
X175887300Y-92191000D01*
D57*
X184045700Y-93511800D02*
X184045700Y-92578200D01*
D58*
X185844100Y-75477800D02*
X184878900Y-74512600D01*
D57*
X182070900Y-96203800D02*
X178744500Y-96203800D01*
D61*
X179090000Y-75909400D02*
X177658800Y-75909400D01*
D57*
X178738100Y-98744200D02*
X178738100Y-96210200D01*
D58*
X187317300Y-76341400D02*
X186453700Y-75477800D01*
X188964300Y-76341400D02*
X187317300Y-76341400D01*
D57*
X186458700Y-90997200D02*
X188516100Y-93054600D01*
X178738100Y-93771800D02*
X176344500Y-91378200D01*
D58*
X186453700Y-75477800D02*
X185844100Y-75477800D01*
D57*
X176344500Y-91378200D02*
X175074500Y-91378200D01*
D61*
X177658800Y-75909400D02*
X177088800Y-76479400D01*
D57*
X178744500Y-96203800D02*
X178738100Y-96210200D01*
X185626700Y-90997200D02*
X186458700Y-90997200D01*
X184045700Y-92578200D02*
X185626700Y-90997200D01*
X178738100Y-96210200D02*
X178738100Y-93771800D01*
D56*
%TO.N,/SWCLK*%
X180397289Y-117236589D02*
X179748100Y-117885778D01*
X183050100Y-116016200D02*
X181829711Y-117236589D01*
X183659700Y-116016200D02*
X184112320Y-115563580D01*
X179748100Y-117885778D02*
X179748100Y-118677400D01*
X183703492Y-110468000D02*
X183134000Y-110468000D01*
X184112320Y-110876828D02*
X183703492Y-110468000D01*
X184112320Y-115563580D02*
X184112320Y-110876828D01*
X181829711Y-117236589D02*
X180397289Y-117236589D01*
X183050100Y-116016200D02*
X183659700Y-116016200D01*
D61*
%TO.N,R_PWM*%
X181551500Y-82107200D02*
X182643700Y-83199400D01*
X182643700Y-83199400D02*
X182643700Y-85536200D01*
X182643700Y-85536200D02*
X182288100Y-85891800D01*
D56*
X182055500Y-111118000D02*
X181881700Y-111291800D01*
X183134000Y-111118000D02*
X182055500Y-111118000D01*
D61*
X180676700Y-82107200D02*
X181551500Y-82107200D01*
D56*
X182288100Y-85891800D02*
X180702100Y-85891800D01*
X180702100Y-85891800D02*
X180676700Y-85917200D01*
D61*
%TO.N,G_PWM*%
X179677180Y-85200720D02*
X179087700Y-85790200D01*
X179570300Y-87187200D02*
X180676700Y-87187200D01*
X180676700Y-83377200D02*
X181627700Y-83377200D01*
D56*
X183134000Y-108518000D02*
X181647900Y-108518000D01*
D61*
X179087700Y-85790200D02*
X179087700Y-86704600D01*
D56*
X182186500Y-87161800D02*
X180702100Y-87161800D01*
D61*
X182135700Y-84901200D02*
X181836180Y-85200720D01*
D56*
X181647900Y-108518000D02*
X181526100Y-108396200D01*
D61*
X181836180Y-85200720D02*
X179677180Y-85200720D01*
X179087700Y-86704600D02*
X179570300Y-87187200D01*
X182135700Y-83885200D02*
X182135700Y-84901200D01*
X181627700Y-83377200D02*
X182135700Y-83885200D01*
D56*
X180702100Y-87161800D02*
X180676700Y-87187200D01*
D61*
%TO.N,B_PWM*%
X178427300Y-87542800D02*
X178427300Y-85637800D01*
X179341700Y-88457200D02*
X178427300Y-87542800D01*
X178427300Y-85637800D02*
X179417900Y-84647200D01*
D56*
X183134000Y-107868000D02*
X181963100Y-107868000D01*
X181963100Y-107868000D02*
X181729300Y-107634200D01*
X180752900Y-88533400D02*
X180676700Y-88457200D01*
D61*
X180676700Y-88457200D02*
X179341700Y-88457200D01*
X179417900Y-84647200D02*
X180676700Y-84647200D01*
D56*
X182237300Y-88533400D02*
X180752900Y-88533400D01*
%TO.N,TACKLE_STATUS*%
X193413000Y-111252000D02*
X192629000Y-110468000D01*
X192629000Y-110468000D02*
X188859000Y-110468000D01*
D61*
%TO.N,/RST*%
X188859000Y-107868000D02*
X190080700Y-107868000D01*
X181780100Y-110021800D02*
X181612900Y-110189000D01*
D59*
X172364500Y-110189000D02*
X174297700Y-110189000D01*
D61*
X190080700Y-107868000D02*
X190212900Y-107735800D01*
D59*
X175938100Y-118677400D02*
X174261700Y-117001000D01*
X174261700Y-117001000D02*
X174261700Y-110225000D01*
D61*
X181612900Y-110189000D02*
X180324500Y-110189000D01*
D59*
X174261700Y-110225000D02*
X174297700Y-110189000D01*
X174297700Y-110189000D02*
X180324500Y-110189000D01*
X170724100Y-108548600D02*
X172364500Y-110189000D01*
D61*
X181780100Y-109615400D02*
X181780100Y-110021800D01*
D59*
X169943700Y-108548600D02*
X170724100Y-108548600D01*
D61*
%TO.N,Net-(R11-Pad2)*%
X185626700Y-82107200D02*
X185626700Y-80064300D01*
X185626700Y-80064300D02*
X185572400Y-80010000D01*
D56*
%TO.N,Net-(D3-Pad1)*%
X198780400Y-120205000D02*
X198780400Y-121869200D01*
X198780400Y-121869200D02*
X198843400Y-121932200D01*
D60*
%TO.N,UART_TX*%
X191468500Y-104775000D02*
X193673000Y-104775000D01*
D56*
X188859000Y-105918000D02*
X190325500Y-105918000D01*
D60*
X190325500Y-105918000D02*
X191468500Y-104775000D01*
D56*
%TO.N,/SPI1_SCK*%
X188859000Y-106568000D02*
X187367500Y-106568000D01*
X188818322Y-114187400D02*
X188739700Y-114187400D01*
X187180389Y-106755111D02*
X187180389Y-112678889D01*
X189540500Y-114909578D02*
X188818322Y-114187400D01*
X187180389Y-112678889D02*
X187660689Y-113159189D01*
X187367500Y-106568000D02*
X187180389Y-106755111D01*
X187711489Y-113159189D02*
X188739700Y-114187400D01*
X189540500Y-115253700D02*
X189540500Y-114909578D01*
X187660689Y-113159189D02*
X187711489Y-113159189D01*
%TO.N,/SPI1_NSS*%
X189040500Y-115253700D02*
X189040500Y-115008364D01*
X189040500Y-115008364D02*
X187559136Y-113527000D01*
X186591101Y-112699201D02*
X186591101Y-107916949D01*
X187114100Y-113222200D02*
X187418900Y-113527000D01*
X186591101Y-107916949D02*
X183942152Y-105268000D01*
X187418900Y-113527000D02*
X187559136Y-113527000D01*
X187114100Y-113222200D02*
X186591101Y-112699201D01*
X183942152Y-105268000D02*
X183134000Y-105268000D01*
%TO.N,/SPI1_MISO*%
X187660736Y-114289000D02*
X187774500Y-114289000D01*
X183134000Y-106568000D02*
X183703492Y-106568000D01*
X188540500Y-115010566D02*
X187818934Y-114289000D01*
X186098100Y-112726364D02*
X187660736Y-114289000D01*
X188540500Y-115253700D02*
X188540500Y-115010566D01*
X186098100Y-108962608D02*
X186098100Y-112726364D01*
X187818934Y-114289000D02*
X187774500Y-114289000D01*
X183703492Y-106568000D02*
X186098100Y-108962608D01*
%TO.N,/SPI1_MOSI*%
X183134000Y-107218000D02*
X183851290Y-107218000D01*
X186402900Y-113628600D02*
X188028000Y-115253700D01*
X188028000Y-115253700D02*
X188040500Y-115253700D01*
X185691700Y-112917400D02*
X186402900Y-113628600D01*
X185691700Y-109058410D02*
X185691700Y-112917400D01*
X183851290Y-107218000D02*
X185691700Y-109058410D01*
%TO.N,/ACC_INT2*%
X189969100Y-116266200D02*
X190517700Y-115717600D01*
X190517700Y-115717600D02*
X190517700Y-114593800D01*
X190517700Y-114593800D02*
X189908100Y-113984200D01*
X183823100Y-105918000D02*
X183134000Y-105918000D01*
X186047300Y-108142200D02*
X183823100Y-105918000D01*
X188180900Y-112257000D02*
X188079300Y-112257000D01*
X189908100Y-113984200D02*
X188180900Y-112257000D01*
X189553000Y-116266200D02*
X189969100Y-116266200D01*
%TO.N,/ACC_INT1*%
X189966898Y-114833774D02*
X188965413Y-113832289D01*
X189553000Y-115766200D02*
X189966898Y-115766200D01*
X187733500Y-107218000D02*
X187535499Y-107416001D01*
X188505522Y-113374600D02*
X188485700Y-113374600D01*
X188859000Y-107218000D02*
X187733500Y-107218000D01*
X188963212Y-113832290D02*
X188505522Y-113374600D01*
X187535499Y-107416001D02*
X187535499Y-112525999D01*
X189966898Y-115766200D02*
X189966898Y-114833774D01*
X188965413Y-113832289D02*
X188963212Y-113832290D01*
X187535499Y-112525999D02*
X187825300Y-112815800D01*
X187926900Y-112815800D02*
X188485700Y-113374600D01*
X187825300Y-112815800D02*
X187926900Y-112815800D01*
%TO.N,UART_RX*%
X188859000Y-105268000D02*
X189962900Y-105268000D01*
X189962900Y-105268000D02*
X190847900Y-104383000D01*
D60*
X192922000Y-104383000D02*
X193673000Y-103632000D01*
X190847900Y-104383000D02*
X192922000Y-104383000D01*
D62*
%TO.N,Net-(C2-Pad1)*%
X165855700Y-106673700D02*
X165855700Y-109469200D01*
X165855700Y-104065500D02*
X165855700Y-101614400D01*
D57*
X165862000Y-106680000D02*
X165855700Y-106673700D01*
D61*
X160250700Y-87990200D02*
X160250700Y-90448200D01*
D57*
X166902700Y-121503200D02*
X166902700Y-118562200D01*
D62*
X160291700Y-96050400D02*
X160291700Y-90489200D01*
D57*
X165023700Y-110301200D02*
X165023700Y-112239200D01*
X166896700Y-118556200D02*
X166896700Y-114112200D01*
D62*
X165855700Y-101614400D02*
X160291700Y-96050400D01*
D57*
X166902700Y-118562200D02*
X166896700Y-118556200D01*
D62*
X165855700Y-109469200D02*
X165023700Y-110301200D01*
D57*
X167944800Y-106680000D02*
X165862000Y-106680000D01*
D61*
X160250700Y-90448200D02*
X160291700Y-90489200D01*
D62*
X165855700Y-104065500D02*
X165855700Y-106673700D01*
D57*
X165023700Y-112239200D02*
X166896700Y-114112200D01*
D61*
%TO.N,Net-(C5-Pad1)*%
X161917300Y-82533800D02*
X161917300Y-83698200D01*
X159600700Y-82783178D02*
X159772189Y-82611689D01*
X159600700Y-83590200D02*
X159600700Y-82783178D01*
X161917300Y-83698200D02*
X161913300Y-83702200D01*
X159772189Y-82611689D02*
X161839411Y-82611689D01*
X161839411Y-82611689D02*
X161917300Y-82533800D01*
D57*
%TO.N,Net-(C10-Pad1)*%
X171512500Y-90616200D02*
X172274500Y-91378200D01*
X165855700Y-93422900D02*
X165855700Y-90792600D01*
X166032100Y-90616200D02*
X171512500Y-90616200D01*
X164406500Y-90616200D02*
X166032100Y-90616200D01*
X165855700Y-90792600D02*
X166032100Y-90616200D01*
%TO.N,Net-(C10-Pad2)*%
X168292599Y-87134101D02*
X164236027Y-87134101D01*
X162856500Y-89829400D02*
X162856500Y-90616200D01*
X169027900Y-86398800D02*
X168292599Y-87134101D01*
X164101700Y-87268428D02*
X164101700Y-88584200D01*
X162855700Y-93422900D02*
X162855700Y-90617000D01*
X162855700Y-90617000D02*
X162856500Y-90616200D01*
X164236027Y-87134101D02*
X164101700Y-87268428D01*
X164101700Y-88584200D02*
X162856500Y-89829400D01*
D61*
%TO.N,Net-(D1-Pad2)*%
X171467700Y-118556200D02*
X170196700Y-118556200D01*
X171462700Y-121503200D02*
X171462700Y-118561200D01*
X171462700Y-118561200D02*
X171467700Y-118556200D01*
X172102700Y-118556200D02*
X171467700Y-118556200D01*
%TO.N,Net-(D4-Pad1)*%
X182343511Y-73855889D02*
X179743511Y-73855889D01*
X185572400Y-78360000D02*
X185572400Y-77084778D01*
X185572400Y-77084778D02*
X182343511Y-73855889D01*
X179743511Y-73855889D02*
X179090000Y-74509400D01*
%TO.N,Net-(D4-Pad3)*%
X181590000Y-76602000D02*
X181590000Y-75909400D01*
X179832000Y-78360000D02*
X181590000Y-76602000D01*
%TO.N,Net-(D4-Pad4)*%
X182676800Y-75596200D02*
X181590000Y-74509400D01*
X182676800Y-78360000D02*
X182676800Y-75596200D01*
D58*
%TO.N,Net-(J4-Pad2)*%
X191889300Y-79745000D02*
X191889300Y-80357910D01*
X198464590Y-86933200D02*
X199881900Y-86933200D01*
X191889300Y-80357910D02*
X198464590Y-86933200D01*
%TO.N,Net-(J4-Pad3)*%
X197085700Y-89433200D02*
X199881900Y-89433200D01*
X191918700Y-84266200D02*
X197085700Y-89433200D01*
%TO.N,Net-(J4-Pad4)*%
X192020300Y-88990600D02*
X194962900Y-91933200D01*
X194962900Y-91933200D02*
X199881900Y-91933200D01*
D61*
%TO.N,Net-(Q2-Pad1)*%
X175125300Y-88881400D02*
X175327900Y-88678800D01*
X175168500Y-88838200D02*
X175327900Y-88678800D01*
X158950700Y-87990200D02*
X158950700Y-86724800D01*
X173448900Y-88838200D02*
X175168500Y-88838200D01*
X158950700Y-86724800D02*
X159174100Y-86501400D01*
%TO.N,Net-(Q2-Pad2)*%
X162940500Y-84926600D02*
X163898500Y-84926600D01*
D57*
X170023900Y-80710200D02*
X171919300Y-80710200D01*
X171919300Y-80710200D02*
X175327900Y-84118800D01*
D61*
X170023900Y-81595200D02*
X170023900Y-80710200D01*
D56*
X169334100Y-82285000D02*
X165447900Y-82285000D01*
D61*
X162935300Y-84921400D02*
X162940500Y-84926600D01*
X164711300Y-84113800D02*
X164711300Y-83021600D01*
X169334100Y-82285000D02*
X170023900Y-81595200D01*
X163898500Y-84926600D02*
X164711300Y-84113800D01*
D56*
X165447900Y-82285000D02*
X164711300Y-83021600D01*
D60*
%TO.N,Net-(J5-Pad1)*%
X201243520Y-103790520D02*
X200042000Y-102589000D01*
X196083520Y-106165520D02*
X200612909Y-106165520D01*
X200612909Y-106165520D02*
X201243520Y-105534909D01*
X194693000Y-104775000D02*
X196083520Y-106165520D01*
X201243520Y-105534909D02*
X201243520Y-103790520D01*
%TO.N,/SPI_RST*%
X188028000Y-115766200D02*
X186286600Y-115766200D01*
X186286600Y-115766200D02*
X186182000Y-115870800D01*
D61*
%TO.N,Net-(R13-Pad2)*%
X182694500Y-80720663D02*
X182694500Y-80027700D01*
X185351037Y-83377200D02*
X182694500Y-80720663D01*
X185626700Y-83377200D02*
X185351037Y-83377200D01*
X182694500Y-80027700D02*
X182676800Y-80010000D01*
%TO.N,Net-(R14-Pad2)*%
X185626700Y-84647200D02*
X184762363Y-84647200D01*
X184762363Y-84647200D02*
X180125163Y-80010000D01*
X180125163Y-80010000D02*
X179832000Y-80010000D01*
D59*
%TO.N,Net-(R15-Pad2)*%
X187317300Y-85045266D02*
X187317300Y-81392000D01*
X187317300Y-81392000D02*
X188964300Y-79745000D01*
X186445366Y-85917200D02*
X187317300Y-85045266D01*
X185626700Y-85917200D02*
X186445366Y-85917200D01*
%TO.N,Net-(R17-Pad2)*%
X188993700Y-84266200D02*
X188993700Y-85434600D01*
X187215700Y-87212600D02*
X185652100Y-87212600D01*
X188993700Y-85434600D02*
X187215700Y-87212600D01*
X185652100Y-87212600D02*
X185626700Y-87187200D01*
%TO.N,Net-(R19-Pad2)*%
X188561900Y-88457200D02*
X189095300Y-88990600D01*
X185626700Y-88457200D02*
X188561900Y-88457200D01*
D56*
%TO.N,Net-(J5-Pad3)*%
X194433000Y-111252000D02*
X198096000Y-107589000D01*
X198096000Y-107589000D02*
X200042000Y-107589000D01*
%TO.N,Net-(J5-Pad4)*%
X194437000Y-112522000D02*
X196870000Y-110089000D01*
X196870000Y-110089000D02*
X200042000Y-110089000D01*
D60*
%TO.N,ELIGIBLE_SELECT*%
X189704900Y-112511000D02*
X191533700Y-114339800D01*
X192698800Y-114339800D02*
X191533700Y-114339800D01*
D56*
X190731900Y-109982000D02*
X190517700Y-109767800D01*
D61*
X188859000Y-109818000D02*
X190467500Y-109818000D01*
D56*
X193413000Y-109982000D02*
X190731900Y-109982000D01*
D61*
X190467500Y-109818000D02*
X190517700Y-109767800D01*
D60*
X193421000Y-115062000D02*
X192698800Y-114339800D01*
D56*
%TO.N,HOME_SELECT*%
X191523000Y-111880000D02*
X190995300Y-112407700D01*
D60*
X191523000Y-111118000D02*
X191523000Y-111880000D01*
D56*
X190995300Y-112407700D02*
X190982600Y-112420400D01*
D60*
X191523000Y-111118000D02*
X192013000Y-111118000D01*
X193421000Y-113919000D02*
X193421000Y-112526000D01*
X192013000Y-111118000D02*
X193417000Y-112522000D01*
D56*
X191523000Y-111118000D02*
X188859000Y-111118000D01*
D61*
%TO.N,Net-(R8-Pad2)*%
X158950700Y-85404000D02*
X158950700Y-83590200D01*
X174867300Y-93511800D02*
X172940900Y-93511800D01*
X158564500Y-85790200D02*
X158950700Y-85404000D01*
D60*
%TO.N,Net-(R23-Pad1)*%
X178435000Y-126521400D02*
X178435000Y-129794000D01*
X185674000Y-119282400D02*
X178435000Y-126521400D01*
%TO.N,Net-(R21-Pad1)*%
X175895000Y-127840200D02*
X175895000Y-129794000D01*
X184454800Y-119280400D02*
X175895000Y-127840200D01*
%TO.N,Net-(J5-Pad5)*%
X200612909Y-106512480D02*
X201243520Y-107143091D01*
X194433000Y-109982000D02*
X197902520Y-106512480D01*
X201243520Y-111387480D02*
X200042000Y-112589000D01*
X201243520Y-107143091D02*
X201243520Y-111387480D01*
X197902520Y-106512480D02*
X200612909Y-106512480D01*
%TO.N,Net-(J5-Pad2)*%
X194693000Y-103632000D02*
X196150000Y-105089000D01*
X196150000Y-105089000D02*
X200042000Y-105089000D01*
%TD*%
%TA.AperFunction,Conductor*%
%TO.N,+12V*%
G36*
X176920297Y-90280602D02*
G01*
X176939970Y-90296222D01*
X178681300Y-91987800D01*
X183354900Y-91987800D01*
X184740395Y-90602305D01*
X184802707Y-90568279D01*
X184829490Y-90565400D01*
X185108500Y-90565400D01*
X185176621Y-90585402D01*
X185223114Y-90639058D01*
X185234500Y-90691400D01*
X185234500Y-92373024D01*
X185214498Y-92441145D01*
X185197673Y-92462042D01*
X185096395Y-92563497D01*
X185003585Y-92714062D01*
X184947903Y-92881939D01*
X184937200Y-92986400D01*
X184937200Y-93375882D01*
X184936463Y-93389490D01*
X184924338Y-93501104D01*
X184924875Y-93507239D01*
X184936721Y-93642644D01*
X184937200Y-93653625D01*
X184937200Y-94037200D01*
X184937537Y-94040446D01*
X184937537Y-94040450D01*
X184944481Y-94107369D01*
X184948174Y-94142966D01*
X184950355Y-94149502D01*
X184950355Y-94149504D01*
X184964903Y-94193110D01*
X185004150Y-94310746D01*
X185008004Y-94316974D01*
X185008005Y-94316976D01*
X185082339Y-94437097D01*
X185101177Y-94505549D01*
X185080016Y-94573318D01*
X185025575Y-94618890D01*
X184975195Y-94629400D01*
X183050100Y-94629400D01*
X183050100Y-100142200D01*
X183030098Y-100210321D01*
X182976442Y-100256814D01*
X182924100Y-100268200D01*
X176368900Y-100268200D01*
X176300779Y-100248198D01*
X176254286Y-100194542D01*
X176242900Y-100142200D01*
X176242900Y-95442200D01*
X176227395Y-95443169D01*
X176227394Y-95443169D01*
X176006249Y-95456991D01*
X175563959Y-95484634D01*
X175494724Y-95468920D01*
X175444975Y-95418269D01*
X175430100Y-95358879D01*
X175430100Y-94231237D01*
X175450102Y-94163116D01*
X175467005Y-94142142D01*
X175514806Y-94094341D01*
X175548599Y-94037200D01*
X175593534Y-93961219D01*
X175593534Y-93961218D01*
X175597569Y-93954396D01*
X175642929Y-93798266D01*
X175645800Y-93761789D01*
X175645799Y-93261812D01*
X175642929Y-93225334D01*
X175597569Y-93069204D01*
X175514806Y-92929259D01*
X175467005Y-92881458D01*
X175432979Y-92819146D01*
X175430100Y-92792363D01*
X175430100Y-92495800D01*
X174387700Y-92495800D01*
X174319579Y-92475798D01*
X174273086Y-92422142D01*
X174261700Y-92369800D01*
X174261700Y-90386600D01*
X174281702Y-90318479D01*
X174335358Y-90271986D01*
X174387700Y-90260600D01*
X176852176Y-90260600D01*
X176920297Y-90280602D01*
G37*
%TD.AperFunction*%
%TD*%
%TA.AperFunction,Conductor*%
%TO.N,GND*%
G36*
X169200021Y-73110202D02*
G01*
X169246514Y-73163858D01*
X169257900Y-73216200D01*
X169257900Y-77028200D01*
X169237898Y-77096321D01*
X169184242Y-77142814D01*
X169131900Y-77154200D01*
X168038700Y-77154200D01*
X168038700Y-81536200D01*
X168018698Y-81604321D01*
X167965042Y-81650814D01*
X167912700Y-81662200D01*
X165525263Y-81662200D01*
X165514364Y-81661686D01*
X165506977Y-81660035D01*
X165499052Y-81660284D01*
X165499051Y-81660284D01*
X165440076Y-81662138D01*
X165436117Y-81662200D01*
X165408717Y-81662200D01*
X165404792Y-81662696D01*
X165404489Y-81662715D01*
X165393053Y-81663616D01*
X165349699Y-81664979D01*
X165330741Y-81670487D01*
X165311379Y-81674497D01*
X165291785Y-81676972D01*
X165258421Y-81690182D01*
X165251459Y-81692938D01*
X165240229Y-81696783D01*
X165206204Y-81706668D01*
X165206202Y-81706669D01*
X165198591Y-81708880D01*
X165191768Y-81712915D01*
X165181595Y-81718931D01*
X165163843Y-81727627D01*
X165145479Y-81734898D01*
X165124708Y-81749989D01*
X165110389Y-81760392D01*
X165100469Y-81766908D01*
X165069975Y-81784942D01*
X165069973Y-81784944D01*
X165063148Y-81788980D01*
X165049187Y-81802941D01*
X165034154Y-81815781D01*
X165018176Y-81827390D01*
X165013125Y-81833496D01*
X164990526Y-81860813D01*
X164982536Y-81869592D01*
X164908833Y-81943295D01*
X164846521Y-81977321D01*
X164819738Y-81980200D01*
X163811407Y-81980200D01*
X163743286Y-81960198D01*
X163722312Y-81943295D01*
X163656329Y-81877312D01*
X163582240Y-81833496D01*
X163522120Y-81797941D01*
X163522119Y-81797941D01*
X163515297Y-81793906D01*
X163507686Y-81791695D01*
X163507684Y-81791694D01*
X163456705Y-81776884D01*
X163357954Y-81748194D01*
X163351549Y-81747690D01*
X163351544Y-81747689D01*
X163323640Y-81745493D01*
X163323632Y-81745493D01*
X163321184Y-81745300D01*
X162850216Y-81745300D01*
X162847768Y-81745493D01*
X162847760Y-81745493D01*
X162819856Y-81747689D01*
X162819851Y-81747690D01*
X162813446Y-81748194D01*
X162714695Y-81776884D01*
X162663716Y-81791694D01*
X162663714Y-81791695D01*
X162656103Y-81793906D01*
X162649281Y-81797941D01*
X162649280Y-81797941D01*
X162565639Y-81847406D01*
X162496823Y-81864865D01*
X162437361Y-81847406D01*
X162353720Y-81797941D01*
X162353719Y-81797941D01*
X162346897Y-81793906D01*
X162339286Y-81791695D01*
X162339284Y-81791694D01*
X162288305Y-81776884D01*
X162189554Y-81748194D01*
X162183149Y-81747690D01*
X162183144Y-81747689D01*
X162155240Y-81745493D01*
X162155232Y-81745493D01*
X162152784Y-81745300D01*
X161681816Y-81745300D01*
X161679368Y-81745493D01*
X161679360Y-81745493D01*
X161651456Y-81747689D01*
X161651451Y-81747690D01*
X161645046Y-81748194D01*
X161546295Y-81776884D01*
X161495316Y-81791694D01*
X161495314Y-81791695D01*
X161487703Y-81793906D01*
X161480881Y-81797941D01*
X161480880Y-81797941D01*
X161420760Y-81833496D01*
X161346671Y-81877312D01*
X161284699Y-81939284D01*
X161222387Y-81973310D01*
X161195604Y-81976189D01*
X159851209Y-81976189D01*
X159839975Y-81975659D01*
X159832470Y-81973981D01*
X159764760Y-81976109D01*
X159764177Y-81976127D01*
X159760220Y-81976189D01*
X159732206Y-81976189D01*
X159728281Y-81976685D01*
X159728280Y-81976685D01*
X159728185Y-81976697D01*
X159716340Y-81977630D01*
X159687904Y-81978524D01*
X159678569Y-81978817D01*
X159678567Y-81978817D01*
X159671984Y-81979024D01*
X159670515Y-81979451D01*
X159660994Y-81980200D01*
X157243700Y-81980200D01*
X157243700Y-77159903D01*
X159071443Y-77159903D01*
X159108968Y-77444934D01*
X159184829Y-77722236D01*
X159297623Y-77986676D01*
X159445261Y-78233361D01*
X159625013Y-78457728D01*
X159833551Y-78655623D01*
X160067017Y-78823386D01*
X160070812Y-78825395D01*
X160070813Y-78825396D01*
X160092569Y-78836915D01*
X160321092Y-78957912D01*
X160591073Y-79056711D01*
X160871964Y-79117955D01*
X160900541Y-79120204D01*
X161094982Y-79135507D01*
X161094991Y-79135507D01*
X161097439Y-79135700D01*
X161252971Y-79135700D01*
X161255107Y-79135554D01*
X161255118Y-79135554D01*
X161463248Y-79121365D01*
X161463254Y-79121364D01*
X161467525Y-79121073D01*
X161471720Y-79120204D01*
X161471722Y-79120204D01*
X161608284Y-79091923D01*
X161749042Y-79062774D01*
X162020043Y-78966807D01*
X162275512Y-78834950D01*
X162279013Y-78832489D01*
X162279017Y-78832487D01*
X162393117Y-78752296D01*
X162510723Y-78669641D01*
X162721322Y-78473940D01*
X162903413Y-78251468D01*
X163053627Y-78006342D01*
X163169183Y-77743098D01*
X163247944Y-77466606D01*
X163288451Y-77181984D01*
X163288545Y-77164151D01*
X163289935Y-76898783D01*
X163289935Y-76898776D01*
X163289957Y-76894497D01*
X163252432Y-76609466D01*
X163176571Y-76332164D01*
X163063777Y-76067724D01*
X162916139Y-75821039D01*
X162736387Y-75596672D01*
X162527849Y-75398777D01*
X162294383Y-75231014D01*
X162272543Y-75219450D01*
X162249354Y-75207172D01*
X162040308Y-75096488D01*
X161770327Y-74997689D01*
X161489436Y-74936445D01*
X161458385Y-74934001D01*
X161266418Y-74918893D01*
X161266409Y-74918893D01*
X161263961Y-74918700D01*
X161108429Y-74918700D01*
X161106293Y-74918846D01*
X161106282Y-74918846D01*
X160898152Y-74933035D01*
X160898146Y-74933036D01*
X160893875Y-74933327D01*
X160889680Y-74934196D01*
X160889678Y-74934196D01*
X160790977Y-74954636D01*
X160612358Y-74991626D01*
X160341357Y-75087593D01*
X160085888Y-75219450D01*
X160082387Y-75221911D01*
X160082383Y-75221913D01*
X160072294Y-75229004D01*
X159850677Y-75384759D01*
X159640078Y-75580460D01*
X159457987Y-75802932D01*
X159307773Y-76048058D01*
X159192217Y-76311302D01*
X159113456Y-76587794D01*
X159072949Y-76872416D01*
X159072927Y-76876705D01*
X159072926Y-76876712D01*
X159071465Y-77155617D01*
X159071443Y-77159903D01*
X157243700Y-77159903D01*
X157243700Y-77076528D01*
X157245200Y-77057143D01*
X157247505Y-77042342D01*
X157247505Y-77042339D01*
X157248886Y-77033470D01*
X157246284Y-77013574D01*
X157245354Y-76991416D01*
X157260225Y-76669757D01*
X157261299Y-76658168D01*
X157309931Y-76309542D01*
X157312070Y-76298103D01*
X157392658Y-75955460D01*
X157395843Y-75944265D01*
X157438267Y-75817692D01*
X157507706Y-75610515D01*
X157511910Y-75599663D01*
X157654091Y-75277653D01*
X157659271Y-75267248D01*
X157830567Y-74959713D01*
X157836683Y-74949836D01*
X157857880Y-74918893D01*
X158035614Y-74659433D01*
X158042628Y-74650145D01*
X158267506Y-74379335D01*
X158275347Y-74370735D01*
X158524235Y-74121847D01*
X158532835Y-74114006D01*
X158803645Y-73889128D01*
X158812933Y-73882114D01*
X159103336Y-73683183D01*
X159113213Y-73677067D01*
X159420748Y-73505771D01*
X159431153Y-73500591D01*
X159753163Y-73358410D01*
X159764015Y-73354206D01*
X159930890Y-73298274D01*
X160097774Y-73242340D01*
X160108956Y-73239159D01*
X160258212Y-73204055D01*
X160451603Y-73158570D01*
X160463042Y-73156431D01*
X160811668Y-73107799D01*
X160823256Y-73106725D01*
X160848309Y-73105567D01*
X161137516Y-73092197D01*
X161162715Y-73093562D01*
X161165558Y-73094005D01*
X161165560Y-73094005D01*
X161174430Y-73095386D01*
X161183332Y-73094222D01*
X161183335Y-73094222D01*
X161205951Y-73091264D01*
X161222289Y-73090200D01*
X169131900Y-73090200D01*
X169200021Y-73110202D01*
G37*
%TD.AperFunction*%
%TD*%
%TA.AperFunction,Conductor*%
%TO.N,GND*%
G36*
X158640700Y-82266637D02*
G01*
X158620698Y-82334758D01*
X158567042Y-82381251D01*
X158558929Y-82384619D01*
X158487405Y-82411432D01*
X158487404Y-82411433D01*
X158478995Y-82414585D01*
X158362439Y-82501939D01*
X158275085Y-82618495D01*
X158223955Y-82754884D01*
X158217200Y-82817066D01*
X158217200Y-84363334D01*
X158223955Y-84425516D01*
X158275085Y-84561905D01*
X158280468Y-84569088D01*
X158280470Y-84569091D01*
X158290027Y-84581842D01*
X158314874Y-84648348D01*
X158315200Y-84657406D01*
X158315200Y-84984831D01*
X158295198Y-85052952D01*
X158243655Y-85098133D01*
X158239503Y-85099546D01*
X158233505Y-85103236D01*
X158100565Y-85185021D01*
X158100563Y-85185023D01*
X158094566Y-85188712D01*
X157972986Y-85307773D01*
X157880804Y-85450810D01*
X157822603Y-85610716D01*
X157801275Y-85779543D01*
X157817881Y-85948899D01*
X157871594Y-86110367D01*
X157959746Y-86255923D01*
X158077955Y-86378332D01*
X158220346Y-86471510D01*
X158226950Y-86473966D01*
X158226954Y-86473968D01*
X158241144Y-86479245D01*
X158298021Y-86521736D01*
X158322896Y-86588232D01*
X158319269Y-86628672D01*
X158315200Y-86644518D01*
X158315200Y-86664865D01*
X158313649Y-86684576D01*
X158310465Y-86704679D01*
X158311211Y-86712571D01*
X158314641Y-86748856D01*
X158315200Y-86760714D01*
X158315200Y-86922994D01*
X158295198Y-86991115D01*
X158290027Y-86998558D01*
X158280470Y-87011309D01*
X158280468Y-87011312D01*
X158275085Y-87018495D01*
X158223955Y-87154884D01*
X158217200Y-87217066D01*
X158217200Y-88763334D01*
X158223955Y-88825516D01*
X158275085Y-88961905D01*
X158362439Y-89078461D01*
X158478995Y-89165815D01*
X158487404Y-89168967D01*
X158487405Y-89168968D01*
X158558929Y-89195781D01*
X158615694Y-89238422D01*
X158640394Y-89304984D01*
X158640700Y-89313763D01*
X158640700Y-91506200D01*
X158620698Y-91574321D01*
X158567042Y-91620814D01*
X158514700Y-91632200D01*
X157369700Y-91632200D01*
X157301579Y-91612198D01*
X157255086Y-91558542D01*
X157243700Y-91506200D01*
X157243700Y-81853200D01*
X158640700Y-81853200D01*
X158640700Y-82266637D01*
G37*
%TD.AperFunction*%
%TD*%
M02*
