M48
; DRILL file {KiCad (6.0.1-0)} date Sunday, February 04, 2024 at 10:07:02 PM
; FORMAT={-:-/ absolute / inch / decimal}
; #@! TF.CreationDate,2024-02-04T22:07:02-06:00
; #@! TF.GenerationSoftware,Kicad,Pcbnew,(6.0.1-0)
; #@! TF.FileFunction,MixedPlating,1,4
FMAT,2
INCH
; #@! TA.AperFunction,Plated,PTH,ViaDrill
T1C0.0079
; #@! TA.AperFunction,Plated,PTH,ComponentDrill
T2C0.0374
; #@! TA.AperFunction,Plated,PTH,ComponentDrill
T3C0.0394
; #@! TA.AperFunction,NonPlated,NPTH,ComponentDrill
T4C0.1260
%
G90
G05
T1
X6.2427Y-3.3776
X6.2667Y-3.4056
X6.2857Y-4.4076
X6.4567Y-3.3936
X6.5407Y-2.9276
X6.5407Y-2.9676
X6.5407Y-3.0076
X6.5407Y-3.0426
X6.5407Y-3.0776
X6.5407Y-3.1126
X6.5807Y-2.9276
X6.5807Y-2.9676
X6.5807Y-3.0076
X6.5807Y-3.0426
X6.5807Y-3.0776
X6.5807Y-3.1126
X6.6207Y-2.9276
X6.6207Y-2.9676
X6.6207Y-3.0076
X6.7407Y-4.5676
X6.8167Y-3.8276
X6.8287Y-3.4976
X6.8447Y-3.6816
X6.8501Y-4.161
X6.8557Y-4.6676
X6.9267Y-4.4276
X6.972Y-3.011
X6.9817Y-3.6366
X7.0267Y-4.4316
X7.0487Y-3.5316
X7.0507Y-3.5816
X7.0707Y-4.4296
X7.1267Y-4.4336
X7.1467Y-4.2676
X7.1547Y-4.2376
X7.1567Y-4.3156
X7.1607Y-4.3816
X7.1727Y-3.4316
X7.1747Y-3.4856
X7.1767Y-3.3816
X7.3237Y-4.2566
X7.3327Y-4.7436
X7.3407Y-2.9716
X7.3487Y-4.6556
X7.4047Y-4.4196
X7.4144Y-4.0356
X7.4424Y-4.0356
X7.4687Y-3.7876
X7.4687Y-4.4296
X7.4867Y-4.2756
X7.4887Y-4.2416
X7.4947Y-4.6916
X7.5007Y-4.3216
X7.519Y-4.426
X7.545Y-4.185
X7.656Y-4.576
X7.685Y-4.19
X7.69Y-4.265
X7.7145Y-4.8025
X7.7165Y-4.7305
T2
X7.8694Y-3.3241
X7.8694Y-3.4226
X7.8694Y-3.521
X7.8694Y-3.6194
X7.8757Y-4.0389
X7.8757Y-4.1374
X7.8757Y-4.2358
X7.8757Y-4.3342
X7.8757Y-4.4326
X7.8757Y-4.5311
T3
X6.3107Y-4.6391
X6.3107Y-4.7376
X6.925Y-4.81
X6.925Y-5.11
X7.025Y-4.81
X7.025Y-5.11
T4
X6.3457Y-3.0326
X6.3457Y-5.0326
X7.8457Y-3.0326
X7.8457Y-5.0326
T0
M30
