%TF.GenerationSoftware,KiCad,Pcbnew,(6.0.1-0)*%
%TF.CreationDate,2024-02-04T22:08:59-06:00*%
%TF.ProjectId,tackle_sensor_hardware,7461636b-6c65-45f7-9365-6e736f725f68,REV1*%
%TF.SameCoordinates,Original*%
%TF.FileFunction,AssemblyDrawing,Top*%
%FSLAX46Y46*%
G04 Gerber Fmt 4.6, Leading zero omitted, Abs format (unit mm)*
G04 Created by KiCad (PCBNEW (6.0.1-0)) date 2024-02-04 22:08:59*
%MOMM*%
%LPD*%
G01*
G04 APERTURE LIST*
%ADD10C,0.060000*%
%ADD11C,0.100000*%
%ADD12C,0.040000*%
%ADD13C,0.150000*%
%ADD14C,0.120000*%
%ADD15C,0.075000*%
%ADD16C,0.080000*%
%ADD17C,0.127000*%
G04 APERTURE END LIST*
D10*
%TO.C,R14*%
X180012952Y-79442142D02*
X179822476Y-79575476D01*
X180012952Y-79670714D02*
X179612952Y-79670714D01*
X179612952Y-79518333D01*
X179632000Y-79480238D01*
X179651047Y-79461190D01*
X179689142Y-79442142D01*
X179746285Y-79442142D01*
X179784380Y-79461190D01*
X179803428Y-79480238D01*
X179822476Y-79518333D01*
X179822476Y-79670714D01*
X180012952Y-79061190D02*
X180012952Y-79289761D01*
X180012952Y-79175476D02*
X179612952Y-79175476D01*
X179670095Y-79213571D01*
X179708190Y-79251666D01*
X179727238Y-79289761D01*
X179746285Y-78718333D02*
X180012952Y-78718333D01*
X179593904Y-78813571D02*
X179879619Y-78908809D01*
X179879619Y-78661190D01*
D11*
%TO.C,U2*%
X159001890Y-86171152D02*
X159406652Y-86171152D01*
X159454271Y-86147342D01*
X159478080Y-86123533D01*
X159501890Y-86075914D01*
X159501890Y-85980676D01*
X159478080Y-85933057D01*
X159454271Y-85909247D01*
X159406652Y-85885438D01*
X159001890Y-85885438D01*
X159049509Y-85671152D02*
X159025700Y-85647342D01*
X159001890Y-85599723D01*
X159001890Y-85480676D01*
X159025700Y-85433057D01*
X159049509Y-85409247D01*
X159097128Y-85385438D01*
X159144747Y-85385438D01*
X159216176Y-85409247D01*
X159501890Y-85694961D01*
X159501890Y-85385438D01*
D12*
%TO.C,FID2*%
X194095714Y-76185714D02*
X194029047Y-76185714D01*
X194029047Y-76290476D02*
X194029047Y-76090476D01*
X194124285Y-76090476D01*
X194200476Y-76290476D02*
X194200476Y-76090476D01*
X194295714Y-76290476D02*
X194295714Y-76090476D01*
X194343333Y-76090476D01*
X194371904Y-76100000D01*
X194390952Y-76119047D01*
X194400476Y-76138095D01*
X194410000Y-76176190D01*
X194410000Y-76204761D01*
X194400476Y-76242857D01*
X194390952Y-76261904D01*
X194371904Y-76280952D01*
X194343333Y-76290476D01*
X194295714Y-76290476D01*
X194486190Y-76109523D02*
X194495714Y-76100000D01*
X194514761Y-76090476D01*
X194562380Y-76090476D01*
X194581428Y-76100000D01*
X194590952Y-76109523D01*
X194600476Y-76128571D01*
X194600476Y-76147619D01*
X194590952Y-76176190D01*
X194476666Y-76290476D01*
X194600476Y-76290476D01*
D13*
%TO.C,H3*%
X160718795Y-128279580D02*
X160718795Y-127279580D01*
X160718795Y-127755771D02*
X161290223Y-127755771D01*
X161290223Y-128279580D02*
X161290223Y-127279580D01*
X161671176Y-127279580D02*
X162290223Y-127279580D01*
X161956890Y-127660533D01*
X162099747Y-127660533D01*
X162194985Y-127708152D01*
X162242604Y-127755771D01*
X162290223Y-127851009D01*
X162290223Y-128089104D01*
X162242604Y-128184342D01*
X162194985Y-128231961D01*
X162099747Y-128279580D01*
X161814033Y-128279580D01*
X161718795Y-128231961D01*
X161671176Y-128184342D01*
D12*
%TO.C,R16*%
X193755857Y-111369619D02*
X193669190Y-111245809D01*
X193607285Y-111369619D02*
X193607285Y-111109619D01*
X193706333Y-111109619D01*
X193731095Y-111122000D01*
X193743476Y-111134380D01*
X193755857Y-111159142D01*
X193755857Y-111196285D01*
X193743476Y-111221047D01*
X193731095Y-111233428D01*
X193706333Y-111245809D01*
X193607285Y-111245809D01*
X194003476Y-111369619D02*
X193854904Y-111369619D01*
X193929190Y-111369619D02*
X193929190Y-111109619D01*
X193904428Y-111146761D01*
X193879666Y-111171523D01*
X193854904Y-111183904D01*
X194226333Y-111109619D02*
X194176809Y-111109619D01*
X194152047Y-111122000D01*
X194139666Y-111134380D01*
X194114904Y-111171523D01*
X194102523Y-111221047D01*
X194102523Y-111320095D01*
X194114904Y-111344857D01*
X194127285Y-111357238D01*
X194152047Y-111369619D01*
X194201571Y-111369619D01*
X194226333Y-111357238D01*
X194238714Y-111344857D01*
X194251095Y-111320095D01*
X194251095Y-111258190D01*
X194238714Y-111233428D01*
X194226333Y-111221047D01*
X194201571Y-111208666D01*
X194152047Y-111208666D01*
X194127285Y-111221047D01*
X194114904Y-111233428D01*
X194102523Y-111258190D01*
D13*
%TO.C,TP1*%
X169951795Y-112113580D02*
X170523223Y-112113580D01*
X170237509Y-113113580D02*
X170237509Y-112113580D01*
X170856557Y-113113580D02*
X170856557Y-112113580D01*
X171237509Y-112113580D01*
X171332747Y-112161200D01*
X171380366Y-112208819D01*
X171427985Y-112304057D01*
X171427985Y-112446914D01*
X171380366Y-112542152D01*
X171332747Y-112589771D01*
X171237509Y-112637390D01*
X170856557Y-112637390D01*
X172380366Y-113113580D02*
X171808938Y-113113580D01*
X172094652Y-113113580D02*
X172094652Y-112113580D01*
X171999414Y-112256438D01*
X171904176Y-112351676D01*
X171808938Y-112399295D01*
%TO.C,H4*%
X198818795Y-128279580D02*
X198818795Y-127279580D01*
X198818795Y-127755771D02*
X199390223Y-127755771D01*
X199390223Y-128279580D02*
X199390223Y-127279580D01*
X200294985Y-127612914D02*
X200294985Y-128279580D01*
X200056890Y-127231961D02*
X199818795Y-127946247D01*
X200437842Y-127946247D01*
D14*
%TO.C,R7*%
X168428066Y-81072104D02*
X168161400Y-80691152D01*
X167970923Y-81072104D02*
X167970923Y-80272104D01*
X168275685Y-80272104D01*
X168351876Y-80310200D01*
X168389971Y-80348295D01*
X168428066Y-80424485D01*
X168428066Y-80538771D01*
X168389971Y-80614961D01*
X168351876Y-80653057D01*
X168275685Y-80691152D01*
X167970923Y-80691152D01*
X168694733Y-80272104D02*
X169228066Y-80272104D01*
X168885209Y-81072104D01*
D12*
%TO.C,FID3*%
X194095714Y-120635714D02*
X194029047Y-120635714D01*
X194029047Y-120740476D02*
X194029047Y-120540476D01*
X194124285Y-120540476D01*
X194200476Y-120740476D02*
X194200476Y-120540476D01*
X194295714Y-120740476D02*
X194295714Y-120540476D01*
X194343333Y-120540476D01*
X194371904Y-120550000D01*
X194390952Y-120569047D01*
X194400476Y-120588095D01*
X194410000Y-120626190D01*
X194410000Y-120654761D01*
X194400476Y-120692857D01*
X194390952Y-120711904D01*
X194371904Y-120730952D01*
X194343333Y-120740476D01*
X194295714Y-120740476D01*
X194476666Y-120540476D02*
X194600476Y-120540476D01*
X194533809Y-120616666D01*
X194562380Y-120616666D01*
X194581428Y-120626190D01*
X194590952Y-120635714D01*
X194600476Y-120654761D01*
X194600476Y-120702380D01*
X194590952Y-120721428D01*
X194581428Y-120730952D01*
X194562380Y-120740476D01*
X194505238Y-120740476D01*
X194486190Y-120730952D01*
X194476666Y-120721428D01*
%TO.C,R1*%
X172569366Y-118673819D02*
X172482700Y-118550009D01*
X172420795Y-118673819D02*
X172420795Y-118413819D01*
X172519842Y-118413819D01*
X172544604Y-118426200D01*
X172556985Y-118438580D01*
X172569366Y-118463342D01*
X172569366Y-118500485D01*
X172556985Y-118525247D01*
X172544604Y-118537628D01*
X172519842Y-118550009D01*
X172420795Y-118550009D01*
X172816985Y-118673819D02*
X172668414Y-118673819D01*
X172742700Y-118673819D02*
X172742700Y-118413819D01*
X172717938Y-118450961D01*
X172693176Y-118475723D01*
X172668414Y-118488104D01*
D10*
%TO.C,C11*%
X188292357Y-118394257D02*
X188273309Y-118413304D01*
X188216166Y-118432352D01*
X188178071Y-118432352D01*
X188120928Y-118413304D01*
X188082833Y-118375209D01*
X188063785Y-118337114D01*
X188044738Y-118260923D01*
X188044738Y-118203780D01*
X188063785Y-118127590D01*
X188082833Y-118089495D01*
X188120928Y-118051400D01*
X188178071Y-118032352D01*
X188216166Y-118032352D01*
X188273309Y-118051400D01*
X188292357Y-118070447D01*
X188673309Y-118432352D02*
X188444738Y-118432352D01*
X188559023Y-118432352D02*
X188559023Y-118032352D01*
X188520928Y-118089495D01*
X188482833Y-118127590D01*
X188444738Y-118146638D01*
X189054261Y-118432352D02*
X188825690Y-118432352D01*
X188939976Y-118432352D02*
X188939976Y-118032352D01*
X188901880Y-118089495D01*
X188863785Y-118127590D01*
X188825690Y-118146638D01*
D14*
%TO.C,R19*%
X190043514Y-89352504D02*
X189776847Y-88971552D01*
X189586371Y-89352504D02*
X189586371Y-88552504D01*
X189891133Y-88552504D01*
X189967323Y-88590600D01*
X190005419Y-88628695D01*
X190043514Y-88704885D01*
X190043514Y-88819171D01*
X190005419Y-88895361D01*
X189967323Y-88933457D01*
X189891133Y-88971552D01*
X189586371Y-88971552D01*
X190805419Y-89352504D02*
X190348276Y-89352504D01*
X190576847Y-89352504D02*
X190576847Y-88552504D01*
X190500657Y-88666790D01*
X190424466Y-88742980D01*
X190348276Y-88781076D01*
X191186371Y-89352504D02*
X191338752Y-89352504D01*
X191414942Y-89314409D01*
X191453038Y-89276314D01*
X191529228Y-89162028D01*
X191567323Y-89009647D01*
X191567323Y-88704885D01*
X191529228Y-88628695D01*
X191491133Y-88590600D01*
X191414942Y-88552504D01*
X191262561Y-88552504D01*
X191186371Y-88590600D01*
X191148276Y-88628695D01*
X191110180Y-88704885D01*
X191110180Y-88895361D01*
X191148276Y-88971552D01*
X191186371Y-89009647D01*
X191262561Y-89047742D01*
X191414942Y-89047742D01*
X191491133Y-89009647D01*
X191529228Y-88971552D01*
X191567323Y-88895361D01*
%TO.C,R17*%
X189941914Y-84628104D02*
X189675247Y-84247152D01*
X189484771Y-84628104D02*
X189484771Y-83828104D01*
X189789533Y-83828104D01*
X189865723Y-83866200D01*
X189903819Y-83904295D01*
X189941914Y-83980485D01*
X189941914Y-84094771D01*
X189903819Y-84170961D01*
X189865723Y-84209057D01*
X189789533Y-84247152D01*
X189484771Y-84247152D01*
X190703819Y-84628104D02*
X190246676Y-84628104D01*
X190475247Y-84628104D02*
X190475247Y-83828104D01*
X190399057Y-83942390D01*
X190322866Y-84018580D01*
X190246676Y-84056676D01*
X190970485Y-83828104D02*
X191503819Y-83828104D01*
X191160961Y-84628104D01*
D12*
%TO.C,FID1*%
X169965714Y-76185714D02*
X169899047Y-76185714D01*
X169899047Y-76290476D02*
X169899047Y-76090476D01*
X169994285Y-76090476D01*
X170070476Y-76290476D02*
X170070476Y-76090476D01*
X170165714Y-76290476D02*
X170165714Y-76090476D01*
X170213333Y-76090476D01*
X170241904Y-76100000D01*
X170260952Y-76119047D01*
X170270476Y-76138095D01*
X170280000Y-76176190D01*
X170280000Y-76204761D01*
X170270476Y-76242857D01*
X170260952Y-76261904D01*
X170241904Y-76280952D01*
X170213333Y-76290476D01*
X170165714Y-76290476D01*
X170470476Y-76290476D02*
X170356190Y-76290476D01*
X170413333Y-76290476D02*
X170413333Y-76090476D01*
X170394285Y-76119047D01*
X170375238Y-76138095D01*
X170356190Y-76147619D01*
D15*
%TO.C,U3*%
X188516690Y-116397152D02*
X188921452Y-116397152D01*
X188969071Y-116373342D01*
X188992880Y-116349533D01*
X189016690Y-116301914D01*
X189016690Y-116206676D01*
X188992880Y-116159057D01*
X188969071Y-116135247D01*
X188921452Y-116111438D01*
X188516690Y-116111438D01*
X188516690Y-115920961D02*
X188516690Y-115611438D01*
X188707166Y-115778104D01*
X188707166Y-115706676D01*
X188730976Y-115659057D01*
X188754785Y-115635247D01*
X188802404Y-115611438D01*
X188921452Y-115611438D01*
X188969071Y-115635247D01*
X188992880Y-115659057D01*
X189016690Y-115706676D01*
X189016690Y-115849533D01*
X188992880Y-115897152D01*
X188969071Y-115920961D01*
D10*
%TO.C,C7*%
X193354333Y-106568857D02*
X193335285Y-106587904D01*
X193278142Y-106606952D01*
X193240047Y-106606952D01*
X193182904Y-106587904D01*
X193144809Y-106549809D01*
X193125761Y-106511714D01*
X193106714Y-106435523D01*
X193106714Y-106378380D01*
X193125761Y-106302190D01*
X193144809Y-106264095D01*
X193182904Y-106226000D01*
X193240047Y-106206952D01*
X193278142Y-106206952D01*
X193335285Y-106226000D01*
X193354333Y-106245047D01*
X193487666Y-106206952D02*
X193754333Y-106206952D01*
X193582904Y-106606952D01*
D13*
%TO.C,J2*%
X162444080Y-119417533D02*
X163158366Y-119417533D01*
X163301223Y-119465152D01*
X163396461Y-119560390D01*
X163444080Y-119703247D01*
X163444080Y-119798485D01*
X162539319Y-118988961D02*
X162491700Y-118941342D01*
X162444080Y-118846104D01*
X162444080Y-118608009D01*
X162491700Y-118512771D01*
X162539319Y-118465152D01*
X162634557Y-118417533D01*
X162729795Y-118417533D01*
X162872652Y-118465152D01*
X163444080Y-119036580D01*
X163444080Y-118417533D01*
D10*
%TO.C,R12*%
X197761257Y-122113152D02*
X197627923Y-121922676D01*
X197532685Y-122113152D02*
X197532685Y-121713152D01*
X197685066Y-121713152D01*
X197723161Y-121732200D01*
X197742209Y-121751247D01*
X197761257Y-121789342D01*
X197761257Y-121846485D01*
X197742209Y-121884580D01*
X197723161Y-121903628D01*
X197685066Y-121922676D01*
X197532685Y-121922676D01*
X198142209Y-122113152D02*
X197913638Y-122113152D01*
X198027923Y-122113152D02*
X198027923Y-121713152D01*
X197989828Y-121770295D01*
X197951733Y-121808390D01*
X197913638Y-121827438D01*
X198294590Y-121751247D02*
X198313638Y-121732200D01*
X198351733Y-121713152D01*
X198446971Y-121713152D01*
X198485066Y-121732200D01*
X198504114Y-121751247D01*
X198523161Y-121789342D01*
X198523161Y-121827438D01*
X198504114Y-121884580D01*
X198275542Y-122113152D01*
X198523161Y-122113152D01*
D16*
%TO.C,C3*%
X159258366Y-90667771D02*
X159234557Y-90691580D01*
X159163128Y-90715390D01*
X159115509Y-90715390D01*
X159044080Y-90691580D01*
X158996461Y-90643961D01*
X158972652Y-90596342D01*
X158948842Y-90501104D01*
X158948842Y-90429676D01*
X158972652Y-90334438D01*
X158996461Y-90286819D01*
X159044080Y-90239200D01*
X159115509Y-90215390D01*
X159163128Y-90215390D01*
X159234557Y-90239200D01*
X159258366Y-90263009D01*
X159425033Y-90215390D02*
X159734557Y-90215390D01*
X159567890Y-90405866D01*
X159639319Y-90405866D01*
X159686938Y-90429676D01*
X159710747Y-90453485D01*
X159734557Y-90501104D01*
X159734557Y-90620152D01*
X159710747Y-90667771D01*
X159686938Y-90691580D01*
X159639319Y-90715390D01*
X159496461Y-90715390D01*
X159448842Y-90691580D01*
X159425033Y-90667771D01*
D13*
%TO.C,C2*%
X162157033Y-110658342D02*
X162109414Y-110705961D01*
X161966557Y-110753580D01*
X161871319Y-110753580D01*
X161728461Y-110705961D01*
X161633223Y-110610723D01*
X161585604Y-110515485D01*
X161537985Y-110325009D01*
X161537985Y-110182152D01*
X161585604Y-109991676D01*
X161633223Y-109896438D01*
X161728461Y-109801200D01*
X161871319Y-109753580D01*
X161966557Y-109753580D01*
X162109414Y-109801200D01*
X162157033Y-109848819D01*
X162537985Y-109848819D02*
X162585604Y-109801200D01*
X162680842Y-109753580D01*
X162918938Y-109753580D01*
X163014176Y-109801200D01*
X163061795Y-109848819D01*
X163109414Y-109944057D01*
X163109414Y-110039295D01*
X163061795Y-110182152D01*
X162490366Y-110753580D01*
X163109414Y-110753580D01*
D12*
%TO.C,R3*%
X183167719Y-115549533D02*
X183043909Y-115636200D01*
X183167719Y-115698104D02*
X182907719Y-115698104D01*
X182907719Y-115599057D01*
X182920100Y-115574295D01*
X182932480Y-115561914D01*
X182957242Y-115549533D01*
X182994385Y-115549533D01*
X183019147Y-115561914D01*
X183031528Y-115574295D01*
X183043909Y-115599057D01*
X183043909Y-115698104D01*
X182907719Y-115462866D02*
X182907719Y-115301914D01*
X183006766Y-115388580D01*
X183006766Y-115351438D01*
X183019147Y-115326676D01*
X183031528Y-115314295D01*
X183056290Y-115301914D01*
X183118195Y-115301914D01*
X183142957Y-115314295D01*
X183155338Y-115326676D01*
X183167719Y-115351438D01*
X183167719Y-115425723D01*
X183155338Y-115450485D01*
X183142957Y-115462866D01*
%TO.C,R20*%
X194015857Y-103749619D02*
X193929190Y-103625809D01*
X193867285Y-103749619D02*
X193867285Y-103489619D01*
X193966333Y-103489619D01*
X193991095Y-103502000D01*
X194003476Y-103514380D01*
X194015857Y-103539142D01*
X194015857Y-103576285D01*
X194003476Y-103601047D01*
X193991095Y-103613428D01*
X193966333Y-103625809D01*
X193867285Y-103625809D01*
X194114904Y-103514380D02*
X194127285Y-103502000D01*
X194152047Y-103489619D01*
X194213952Y-103489619D01*
X194238714Y-103502000D01*
X194251095Y-103514380D01*
X194263476Y-103539142D01*
X194263476Y-103563904D01*
X194251095Y-103601047D01*
X194102523Y-103749619D01*
X194263476Y-103749619D01*
X194424428Y-103489619D02*
X194449190Y-103489619D01*
X194473952Y-103502000D01*
X194486333Y-103514380D01*
X194498714Y-103539142D01*
X194511095Y-103588666D01*
X194511095Y-103650571D01*
X194498714Y-103700095D01*
X194486333Y-103724857D01*
X194473952Y-103737238D01*
X194449190Y-103749619D01*
X194424428Y-103749619D01*
X194399666Y-103737238D01*
X194387285Y-103724857D01*
X194374904Y-103700095D01*
X194362523Y-103650571D01*
X194362523Y-103588666D01*
X194374904Y-103539142D01*
X194387285Y-103514380D01*
X194399666Y-103502000D01*
X194424428Y-103489619D01*
D10*
%TO.C,R11*%
X185753352Y-79442142D02*
X185562876Y-79575476D01*
X185753352Y-79670714D02*
X185353352Y-79670714D01*
X185353352Y-79518333D01*
X185372400Y-79480238D01*
X185391447Y-79461190D01*
X185429542Y-79442142D01*
X185486685Y-79442142D01*
X185524780Y-79461190D01*
X185543828Y-79480238D01*
X185562876Y-79518333D01*
X185562876Y-79670714D01*
X185753352Y-79061190D02*
X185753352Y-79289761D01*
X185753352Y-79175476D02*
X185353352Y-79175476D01*
X185410495Y-79213571D01*
X185448590Y-79251666D01*
X185467638Y-79289761D01*
X185753352Y-78680238D02*
X185753352Y-78908809D01*
X185753352Y-78794523D02*
X185353352Y-78794523D01*
X185410495Y-78832619D01*
X185448590Y-78870714D01*
X185467638Y-78908809D01*
D12*
%TO.C,R4*%
X162329166Y-87635019D02*
X162242500Y-87511209D01*
X162180595Y-87635019D02*
X162180595Y-87375019D01*
X162279642Y-87375019D01*
X162304404Y-87387400D01*
X162316785Y-87399780D01*
X162329166Y-87424542D01*
X162329166Y-87461685D01*
X162316785Y-87486447D01*
X162304404Y-87498828D01*
X162279642Y-87511209D01*
X162180595Y-87511209D01*
X162552023Y-87461685D02*
X162552023Y-87635019D01*
X162490119Y-87362638D02*
X162428214Y-87548352D01*
X162589166Y-87548352D01*
D13*
%TO.C,TP11*%
X187001604Y-116139780D02*
X187573033Y-116139780D01*
X187287319Y-117139780D02*
X187287319Y-116139780D01*
X187906366Y-117139780D02*
X187906366Y-116139780D01*
X188287319Y-116139780D01*
X188382557Y-116187400D01*
X188430176Y-116235019D01*
X188477795Y-116330257D01*
X188477795Y-116473114D01*
X188430176Y-116568352D01*
X188382557Y-116615971D01*
X188287319Y-116663590D01*
X187906366Y-116663590D01*
X189430176Y-117139780D02*
X188858747Y-117139780D01*
X189144461Y-117139780D02*
X189144461Y-116139780D01*
X189049223Y-116282638D01*
X188953985Y-116377876D01*
X188858747Y-116425495D01*
X190382557Y-117139780D02*
X189811128Y-117139780D01*
X190096842Y-117139780D02*
X190096842Y-116139780D01*
X190001604Y-116282638D01*
X189906366Y-116377876D01*
X189811128Y-116425495D01*
%TO.C,C15*%
X192348042Y-99539457D02*
X192395661Y-99587076D01*
X192443280Y-99729933D01*
X192443280Y-99825171D01*
X192395661Y-99968028D01*
X192300423Y-100063266D01*
X192205185Y-100110885D01*
X192014709Y-100158504D01*
X191871852Y-100158504D01*
X191681376Y-100110885D01*
X191586138Y-100063266D01*
X191490900Y-99968028D01*
X191443280Y-99825171D01*
X191443280Y-99729933D01*
X191490900Y-99587076D01*
X191538519Y-99539457D01*
X192443280Y-98587076D02*
X192443280Y-99158504D01*
X192443280Y-98872790D02*
X191443280Y-98872790D01*
X191586138Y-98968028D01*
X191681376Y-99063266D01*
X191728995Y-99158504D01*
X191443280Y-97682314D02*
X191443280Y-98158504D01*
X191919471Y-98206123D01*
X191871852Y-98158504D01*
X191824233Y-98063266D01*
X191824233Y-97825171D01*
X191871852Y-97729933D01*
X191919471Y-97682314D01*
X192014709Y-97634695D01*
X192252804Y-97634695D01*
X192348042Y-97682314D01*
X192395661Y-97729933D01*
X192443280Y-97825171D01*
X192443280Y-98063266D01*
X192395661Y-98158504D01*
X192348042Y-98206123D01*
%TO.C,SW1*%
X175011166Y-112393761D02*
X175154023Y-112441380D01*
X175392119Y-112441380D01*
X175487357Y-112393761D01*
X175534976Y-112346142D01*
X175582595Y-112250904D01*
X175582595Y-112155666D01*
X175534976Y-112060428D01*
X175487357Y-112012809D01*
X175392119Y-111965190D01*
X175201642Y-111917571D01*
X175106404Y-111869952D01*
X175058785Y-111822333D01*
X175011166Y-111727095D01*
X175011166Y-111631857D01*
X175058785Y-111536619D01*
X175106404Y-111489000D01*
X175201642Y-111441380D01*
X175439738Y-111441380D01*
X175582595Y-111489000D01*
X175915928Y-111441380D02*
X176154023Y-112441380D01*
X176344500Y-111727095D01*
X176534976Y-112441380D01*
X176773071Y-111441380D01*
X177677833Y-112441380D02*
X177106404Y-112441380D01*
X177392119Y-112441380D02*
X177392119Y-111441380D01*
X177296880Y-111584238D01*
X177201642Y-111679476D01*
X177106404Y-111727095D01*
%TO.C,U1*%
X185234595Y-107645380D02*
X185234595Y-108454904D01*
X185282214Y-108550142D01*
X185329833Y-108597761D01*
X185425071Y-108645380D01*
X185615547Y-108645380D01*
X185710785Y-108597761D01*
X185758404Y-108550142D01*
X185806023Y-108454904D01*
X185806023Y-107645380D01*
X186806023Y-108645380D02*
X186234595Y-108645380D01*
X186520309Y-108645380D02*
X186520309Y-107645380D01*
X186425071Y-107788238D01*
X186329833Y-107883476D01*
X186234595Y-107931095D01*
D12*
%TO.C,R18*%
X194015857Y-104892619D02*
X193929190Y-104768809D01*
X193867285Y-104892619D02*
X193867285Y-104632619D01*
X193966333Y-104632619D01*
X193991095Y-104645000D01*
X194003476Y-104657380D01*
X194015857Y-104682142D01*
X194015857Y-104719285D01*
X194003476Y-104744047D01*
X193991095Y-104756428D01*
X193966333Y-104768809D01*
X193867285Y-104768809D01*
X194263476Y-104892619D02*
X194114904Y-104892619D01*
X194189190Y-104892619D02*
X194189190Y-104632619D01*
X194164428Y-104669761D01*
X194139666Y-104694523D01*
X194114904Y-104706904D01*
X194412047Y-104744047D02*
X194387285Y-104731666D01*
X194374904Y-104719285D01*
X194362523Y-104694523D01*
X194362523Y-104682142D01*
X194374904Y-104657380D01*
X194387285Y-104645000D01*
X194412047Y-104632619D01*
X194461571Y-104632619D01*
X194486333Y-104645000D01*
X194498714Y-104657380D01*
X194511095Y-104682142D01*
X194511095Y-104694523D01*
X194498714Y-104719285D01*
X194486333Y-104731666D01*
X194461571Y-104744047D01*
X194412047Y-104744047D01*
X194387285Y-104756428D01*
X194374904Y-104768809D01*
X194362523Y-104793571D01*
X194362523Y-104843095D01*
X194374904Y-104867857D01*
X194387285Y-104880238D01*
X194412047Y-104892619D01*
X194461571Y-104892619D01*
X194486333Y-104880238D01*
X194498714Y-104867857D01*
X194511095Y-104843095D01*
X194511095Y-104793571D01*
X194498714Y-104768809D01*
X194486333Y-104756428D01*
X194461571Y-104744047D01*
D16*
%TO.C,C9*%
X188285566Y-120411171D02*
X188261757Y-120434980D01*
X188190328Y-120458790D01*
X188142709Y-120458790D01*
X188071280Y-120434980D01*
X188023661Y-120387361D01*
X187999852Y-120339742D01*
X187976042Y-120244504D01*
X187976042Y-120173076D01*
X187999852Y-120077838D01*
X188023661Y-120030219D01*
X188071280Y-119982600D01*
X188142709Y-119958790D01*
X188190328Y-119958790D01*
X188261757Y-119982600D01*
X188285566Y-120006409D01*
X188523661Y-120458790D02*
X188618900Y-120458790D01*
X188666519Y-120434980D01*
X188690328Y-120411171D01*
X188737947Y-120339742D01*
X188761757Y-120244504D01*
X188761757Y-120054028D01*
X188737947Y-120006409D01*
X188714138Y-119982600D01*
X188666519Y-119958790D01*
X188571280Y-119958790D01*
X188523661Y-119982600D01*
X188499852Y-120006409D01*
X188476042Y-120054028D01*
X188476042Y-120173076D01*
X188499852Y-120220695D01*
X188523661Y-120244504D01*
X188571280Y-120268314D01*
X188666519Y-120268314D01*
X188714138Y-120244504D01*
X188737947Y-120220695D01*
X188761757Y-120173076D01*
D13*
%TO.C,U5*%
X182405033Y-86015533D02*
X182405033Y-86808866D01*
X182451700Y-86902200D01*
X182498366Y-86948866D01*
X182591700Y-86995533D01*
X182778366Y-86995533D01*
X182871700Y-86948866D01*
X182918366Y-86902200D01*
X182965033Y-86808866D01*
X182965033Y-86015533D01*
X183898366Y-86015533D02*
X183431700Y-86015533D01*
X183385033Y-86482200D01*
X183431700Y-86435533D01*
X183525033Y-86388866D01*
X183758366Y-86388866D01*
X183851700Y-86435533D01*
X183898366Y-86482200D01*
X183945033Y-86575533D01*
X183945033Y-86808866D01*
X183898366Y-86902200D01*
X183851700Y-86948866D01*
X183758366Y-86995533D01*
X183525033Y-86995533D01*
X183431700Y-86948866D01*
X183385033Y-86902200D01*
%TO.C,TP13*%
X186747604Y-115326980D02*
X187319033Y-115326980D01*
X187033319Y-116326980D02*
X187033319Y-115326980D01*
X187652366Y-116326980D02*
X187652366Y-115326980D01*
X188033319Y-115326980D01*
X188128557Y-115374600D01*
X188176176Y-115422219D01*
X188223795Y-115517457D01*
X188223795Y-115660314D01*
X188176176Y-115755552D01*
X188128557Y-115803171D01*
X188033319Y-115850790D01*
X187652366Y-115850790D01*
X189176176Y-116326980D02*
X188604747Y-116326980D01*
X188890461Y-116326980D02*
X188890461Y-115326980D01*
X188795223Y-115469838D01*
X188699985Y-115565076D01*
X188604747Y-115612695D01*
X189509509Y-115326980D02*
X190128557Y-115326980D01*
X189795223Y-115707933D01*
X189938080Y-115707933D01*
X190033319Y-115755552D01*
X190080938Y-115803171D01*
X190128557Y-115898409D01*
X190128557Y-116136504D01*
X190080938Y-116231742D01*
X190033319Y-116279361D01*
X189938080Y-116326980D01*
X189652366Y-116326980D01*
X189557128Y-116279361D01*
X189509509Y-116231742D01*
%TO.C,TP8*%
X185852195Y-115174580D02*
X186423623Y-115174580D01*
X186137909Y-116174580D02*
X186137909Y-115174580D01*
X186756957Y-116174580D02*
X186756957Y-115174580D01*
X187137909Y-115174580D01*
X187233147Y-115222200D01*
X187280766Y-115269819D01*
X187328385Y-115365057D01*
X187328385Y-115507914D01*
X187280766Y-115603152D01*
X187233147Y-115650771D01*
X187137909Y-115698390D01*
X186756957Y-115698390D01*
X187899814Y-115603152D02*
X187804576Y-115555533D01*
X187756957Y-115507914D01*
X187709338Y-115412676D01*
X187709338Y-115365057D01*
X187756957Y-115269819D01*
X187804576Y-115222200D01*
X187899814Y-115174580D01*
X188090290Y-115174580D01*
X188185528Y-115222200D01*
X188233147Y-115269819D01*
X188280766Y-115365057D01*
X188280766Y-115412676D01*
X188233147Y-115507914D01*
X188185528Y-115555533D01*
X188090290Y-115603152D01*
X187899814Y-115603152D01*
X187804576Y-115650771D01*
X187756957Y-115698390D01*
X187709338Y-115793628D01*
X187709338Y-115984104D01*
X187756957Y-116079342D01*
X187804576Y-116126961D01*
X187899814Y-116174580D01*
X188090290Y-116174580D01*
X188185528Y-116126961D01*
X188233147Y-116079342D01*
X188280766Y-115984104D01*
X188280766Y-115793628D01*
X188233147Y-115698390D01*
X188185528Y-115650771D01*
X188090290Y-115603152D01*
D12*
%TO.C,R9*%
X172387566Y-93629419D02*
X172300900Y-93505609D01*
X172238995Y-93629419D02*
X172238995Y-93369419D01*
X172338042Y-93369419D01*
X172362804Y-93381800D01*
X172375185Y-93394180D01*
X172387566Y-93418942D01*
X172387566Y-93456085D01*
X172375185Y-93480847D01*
X172362804Y-93493228D01*
X172338042Y-93505609D01*
X172238995Y-93505609D01*
X172511376Y-93629419D02*
X172560900Y-93629419D01*
X172585661Y-93617038D01*
X172598042Y-93604657D01*
X172622804Y-93567514D01*
X172635185Y-93517990D01*
X172635185Y-93418942D01*
X172622804Y-93394180D01*
X172610423Y-93381800D01*
X172585661Y-93369419D01*
X172536138Y-93369419D01*
X172511376Y-93381800D01*
X172498995Y-93394180D01*
X172486614Y-93418942D01*
X172486614Y-93480847D01*
X172498995Y-93505609D01*
X172511376Y-93517990D01*
X172536138Y-93530371D01*
X172585661Y-93530371D01*
X172610423Y-93517990D01*
X172622804Y-93505609D01*
X172635185Y-93480847D01*
%TO.C,R2*%
X162379966Y-83819819D02*
X162293300Y-83696009D01*
X162231395Y-83819819D02*
X162231395Y-83559819D01*
X162330442Y-83559819D01*
X162355204Y-83572200D01*
X162367585Y-83584580D01*
X162379966Y-83609342D01*
X162379966Y-83646485D01*
X162367585Y-83671247D01*
X162355204Y-83683628D01*
X162330442Y-83696009D01*
X162231395Y-83696009D01*
X162479014Y-83584580D02*
X162491395Y-83572200D01*
X162516157Y-83559819D01*
X162578061Y-83559819D01*
X162602823Y-83572200D01*
X162615204Y-83584580D01*
X162627585Y-83609342D01*
X162627585Y-83634104D01*
X162615204Y-83671247D01*
X162466633Y-83819819D01*
X162627585Y-83819819D01*
%TO.C,R22*%
X193763857Y-114036619D02*
X193677190Y-113912809D01*
X193615285Y-114036619D02*
X193615285Y-113776619D01*
X193714333Y-113776619D01*
X193739095Y-113789000D01*
X193751476Y-113801380D01*
X193763857Y-113826142D01*
X193763857Y-113863285D01*
X193751476Y-113888047D01*
X193739095Y-113900428D01*
X193714333Y-113912809D01*
X193615285Y-113912809D01*
X193862904Y-113801380D02*
X193875285Y-113789000D01*
X193900047Y-113776619D01*
X193961952Y-113776619D01*
X193986714Y-113789000D01*
X193999095Y-113801380D01*
X194011476Y-113826142D01*
X194011476Y-113850904D01*
X193999095Y-113888047D01*
X193850523Y-114036619D01*
X194011476Y-114036619D01*
X194110523Y-113801380D02*
X194122904Y-113789000D01*
X194147666Y-113776619D01*
X194209571Y-113776619D01*
X194234333Y-113789000D01*
X194246714Y-113801380D01*
X194259095Y-113826142D01*
X194259095Y-113850904D01*
X194246714Y-113888047D01*
X194098142Y-114036619D01*
X194259095Y-114036619D01*
%TO.C,R23*%
X185791619Y-118939542D02*
X185667809Y-119026209D01*
X185791619Y-119088114D02*
X185531619Y-119088114D01*
X185531619Y-118989066D01*
X185544000Y-118964304D01*
X185556380Y-118951923D01*
X185581142Y-118939542D01*
X185618285Y-118939542D01*
X185643047Y-118951923D01*
X185655428Y-118964304D01*
X185667809Y-118989066D01*
X185667809Y-119088114D01*
X185556380Y-118840495D02*
X185544000Y-118828114D01*
X185531619Y-118803352D01*
X185531619Y-118741447D01*
X185544000Y-118716685D01*
X185556380Y-118704304D01*
X185581142Y-118691923D01*
X185605904Y-118691923D01*
X185643047Y-118704304D01*
X185791619Y-118852876D01*
X185791619Y-118691923D01*
X185531619Y-118605257D02*
X185531619Y-118444304D01*
X185630666Y-118530971D01*
X185630666Y-118493828D01*
X185643047Y-118469066D01*
X185655428Y-118456685D01*
X185680190Y-118444304D01*
X185742095Y-118444304D01*
X185766857Y-118456685D01*
X185779238Y-118469066D01*
X185791619Y-118493828D01*
X185791619Y-118568114D01*
X185779238Y-118592876D01*
X185766857Y-118605257D01*
%TO.C,R8*%
X175333966Y-93629419D02*
X175247300Y-93505609D01*
X175185395Y-93629419D02*
X175185395Y-93369419D01*
X175284442Y-93369419D01*
X175309204Y-93381800D01*
X175321585Y-93394180D01*
X175333966Y-93418942D01*
X175333966Y-93456085D01*
X175321585Y-93480847D01*
X175309204Y-93493228D01*
X175284442Y-93505609D01*
X175185395Y-93505609D01*
X175482538Y-93480847D02*
X175457776Y-93468466D01*
X175445395Y-93456085D01*
X175433014Y-93431323D01*
X175433014Y-93418942D01*
X175445395Y-93394180D01*
X175457776Y-93381800D01*
X175482538Y-93369419D01*
X175532061Y-93369419D01*
X175556823Y-93381800D01*
X175569204Y-93394180D01*
X175581585Y-93418942D01*
X175581585Y-93431323D01*
X175569204Y-93456085D01*
X175556823Y-93468466D01*
X175532061Y-93480847D01*
X175482538Y-93480847D01*
X175457776Y-93493228D01*
X175445395Y-93505609D01*
X175433014Y-93530371D01*
X175433014Y-93579895D01*
X175445395Y-93604657D01*
X175457776Y-93617038D01*
X175482538Y-93629419D01*
X175532061Y-93629419D01*
X175556823Y-93617038D01*
X175569204Y-93604657D01*
X175581585Y-93579895D01*
X175581585Y-93530371D01*
X175569204Y-93505609D01*
X175556823Y-93493228D01*
X175532061Y-93480847D01*
%TO.C,R5*%
X193887666Y-115179619D02*
X193801000Y-115055809D01*
X193739095Y-115179619D02*
X193739095Y-114919619D01*
X193838142Y-114919619D01*
X193862904Y-114932000D01*
X193875285Y-114944380D01*
X193887666Y-114969142D01*
X193887666Y-115006285D01*
X193875285Y-115031047D01*
X193862904Y-115043428D01*
X193838142Y-115055809D01*
X193739095Y-115055809D01*
X194122904Y-114919619D02*
X193999095Y-114919619D01*
X193986714Y-115043428D01*
X193999095Y-115031047D01*
X194023857Y-115018666D01*
X194085761Y-115018666D01*
X194110523Y-115031047D01*
X194122904Y-115043428D01*
X194135285Y-115068190D01*
X194135285Y-115130095D01*
X194122904Y-115154857D01*
X194110523Y-115167238D01*
X194085761Y-115179619D01*
X194023857Y-115179619D01*
X193999095Y-115167238D01*
X193986714Y-115154857D01*
D13*
%TO.C,Q1*%
X169730319Y-125798438D02*
X169682700Y-125893676D01*
X169587461Y-125988914D01*
X169444604Y-126131771D01*
X169396985Y-126227009D01*
X169396985Y-126322247D01*
X169635080Y-126274628D02*
X169587461Y-126369866D01*
X169492223Y-126465104D01*
X169301747Y-126512723D01*
X168968414Y-126512723D01*
X168777938Y-126465104D01*
X168682700Y-126369866D01*
X168635080Y-126274628D01*
X168635080Y-126084152D01*
X168682700Y-125988914D01*
X168777938Y-125893676D01*
X168968414Y-125846057D01*
X169301747Y-125846057D01*
X169492223Y-125893676D01*
X169587461Y-125988914D01*
X169635080Y-126084152D01*
X169635080Y-126274628D01*
X169635080Y-124893676D02*
X169635080Y-125465104D01*
X169635080Y-125179390D02*
X168635080Y-125179390D01*
X168777938Y-125274628D01*
X168873176Y-125369866D01*
X168920795Y-125465104D01*
D12*
%TO.C,C6*%
X172671985Y-81714466D02*
X172683890Y-81726371D01*
X172695795Y-81762085D01*
X172695795Y-81785895D01*
X172683890Y-81821609D01*
X172660080Y-81845419D01*
X172636271Y-81857323D01*
X172588652Y-81869228D01*
X172552938Y-81869228D01*
X172505319Y-81857323D01*
X172481509Y-81845419D01*
X172457700Y-81821609D01*
X172445795Y-81785895D01*
X172445795Y-81762085D01*
X172457700Y-81726371D01*
X172469604Y-81714466D01*
X172445795Y-81500180D02*
X172445795Y-81547800D01*
X172457700Y-81571609D01*
X172469604Y-81583514D01*
X172505319Y-81607323D01*
X172552938Y-81619228D01*
X172648176Y-81619228D01*
X172671985Y-81607323D01*
X172683890Y-81595419D01*
X172695795Y-81571609D01*
X172695795Y-81523990D01*
X172683890Y-81500180D01*
X172671985Y-81488276D01*
X172648176Y-81476371D01*
X172588652Y-81476371D01*
X172564842Y-81488276D01*
X172552938Y-81500180D01*
X172541033Y-81523990D01*
X172541033Y-81571609D01*
X172552938Y-81595419D01*
X172564842Y-81607323D01*
X172588652Y-81619228D01*
D10*
%TO.C,R13*%
X182857752Y-79442142D02*
X182667276Y-79575476D01*
X182857752Y-79670714D02*
X182457752Y-79670714D01*
X182457752Y-79518333D01*
X182476800Y-79480238D01*
X182495847Y-79461190D01*
X182533942Y-79442142D01*
X182591085Y-79442142D01*
X182629180Y-79461190D01*
X182648228Y-79480238D01*
X182667276Y-79518333D01*
X182667276Y-79670714D01*
X182857752Y-79061190D02*
X182857752Y-79289761D01*
X182857752Y-79175476D02*
X182457752Y-79175476D01*
X182514895Y-79213571D01*
X182552990Y-79251666D01*
X182572038Y-79289761D01*
X182457752Y-78927857D02*
X182457752Y-78680238D01*
X182610133Y-78813571D01*
X182610133Y-78756428D01*
X182629180Y-78718333D01*
X182648228Y-78699285D01*
X182686323Y-78680238D01*
X182781561Y-78680238D01*
X182819657Y-78699285D01*
X182838704Y-78718333D01*
X182857752Y-78756428D01*
X182857752Y-78870714D01*
X182838704Y-78908809D01*
X182819657Y-78927857D01*
D12*
%TO.C,R21*%
X184572419Y-118937542D02*
X184448609Y-119024209D01*
X184572419Y-119086114D02*
X184312419Y-119086114D01*
X184312419Y-118987066D01*
X184324800Y-118962304D01*
X184337180Y-118949923D01*
X184361942Y-118937542D01*
X184399085Y-118937542D01*
X184423847Y-118949923D01*
X184436228Y-118962304D01*
X184448609Y-118987066D01*
X184448609Y-119086114D01*
X184337180Y-118838495D02*
X184324800Y-118826114D01*
X184312419Y-118801352D01*
X184312419Y-118739447D01*
X184324800Y-118714685D01*
X184337180Y-118702304D01*
X184361942Y-118689923D01*
X184386704Y-118689923D01*
X184423847Y-118702304D01*
X184572419Y-118850876D01*
X184572419Y-118689923D01*
X184572419Y-118442304D02*
X184572419Y-118590876D01*
X184572419Y-118516590D02*
X184312419Y-118516590D01*
X184349561Y-118541352D01*
X184374323Y-118566114D01*
X184386704Y-118590876D01*
%TO.C,C8*%
X162355633Y-86280685D02*
X162343728Y-86292590D01*
X162308014Y-86304495D01*
X162284204Y-86304495D01*
X162248490Y-86292590D01*
X162224680Y-86268780D01*
X162212776Y-86244971D01*
X162200871Y-86197352D01*
X162200871Y-86161638D01*
X162212776Y-86114019D01*
X162224680Y-86090209D01*
X162248490Y-86066400D01*
X162284204Y-86054495D01*
X162308014Y-86054495D01*
X162343728Y-86066400D01*
X162355633Y-86078304D01*
X162498490Y-86161638D02*
X162474680Y-86149733D01*
X162462776Y-86137828D01*
X162450871Y-86114019D01*
X162450871Y-86102114D01*
X162462776Y-86078304D01*
X162474680Y-86066400D01*
X162498490Y-86054495D01*
X162546109Y-86054495D01*
X162569919Y-86066400D01*
X162581823Y-86078304D01*
X162593728Y-86102114D01*
X162593728Y-86114019D01*
X162581823Y-86137828D01*
X162569919Y-86149733D01*
X162546109Y-86161638D01*
X162498490Y-86161638D01*
X162474680Y-86173542D01*
X162462776Y-86185447D01*
X162450871Y-86209257D01*
X162450871Y-86256876D01*
X162462776Y-86280685D01*
X162474680Y-86292590D01*
X162498490Y-86304495D01*
X162546109Y-86304495D01*
X162569919Y-86292590D01*
X162581823Y-86280685D01*
X162593728Y-86256876D01*
X162593728Y-86209257D01*
X162581823Y-86185447D01*
X162569919Y-86173542D01*
X162546109Y-86161638D01*
D10*
%TO.C,D3*%
X197697661Y-120385952D02*
X197697661Y-119985952D01*
X197792900Y-119985952D01*
X197850042Y-120005000D01*
X197888138Y-120043095D01*
X197907185Y-120081190D01*
X197926233Y-120157380D01*
X197926233Y-120214523D01*
X197907185Y-120290714D01*
X197888138Y-120328809D01*
X197850042Y-120366904D01*
X197792900Y-120385952D01*
X197697661Y-120385952D01*
X198059566Y-119985952D02*
X198307185Y-119985952D01*
X198173852Y-120138333D01*
X198230995Y-120138333D01*
X198269090Y-120157380D01*
X198288138Y-120176428D01*
X198307185Y-120214523D01*
X198307185Y-120309761D01*
X198288138Y-120347857D01*
X198269090Y-120366904D01*
X198230995Y-120385952D01*
X198116709Y-120385952D01*
X198078614Y-120366904D01*
X198059566Y-120347857D01*
D12*
%TO.C,R6*%
X162381966Y-85039019D02*
X162295300Y-84915209D01*
X162233395Y-85039019D02*
X162233395Y-84779019D01*
X162332442Y-84779019D01*
X162357204Y-84791400D01*
X162369585Y-84803780D01*
X162381966Y-84828542D01*
X162381966Y-84865685D01*
X162369585Y-84890447D01*
X162357204Y-84902828D01*
X162332442Y-84915209D01*
X162233395Y-84915209D01*
X162604823Y-84779019D02*
X162555300Y-84779019D01*
X162530538Y-84791400D01*
X162518157Y-84803780D01*
X162493395Y-84840923D01*
X162481014Y-84890447D01*
X162481014Y-84989495D01*
X162493395Y-85014257D01*
X162505776Y-85026638D01*
X162530538Y-85039019D01*
X162580061Y-85039019D01*
X162604823Y-85026638D01*
X162617204Y-85014257D01*
X162629585Y-84989495D01*
X162629585Y-84927590D01*
X162617204Y-84902828D01*
X162604823Y-84890447D01*
X162580061Y-84878066D01*
X162530538Y-84878066D01*
X162505776Y-84890447D01*
X162493395Y-84902828D01*
X162481014Y-84927590D01*
%TO.C,C5*%
X162006585Y-82095466D02*
X162018490Y-82107371D01*
X162030395Y-82143085D01*
X162030395Y-82166895D01*
X162018490Y-82202609D01*
X161994680Y-82226419D01*
X161970871Y-82238323D01*
X161923252Y-82250228D01*
X161887538Y-82250228D01*
X161839919Y-82238323D01*
X161816109Y-82226419D01*
X161792300Y-82202609D01*
X161780395Y-82166895D01*
X161780395Y-82143085D01*
X161792300Y-82107371D01*
X161804204Y-82095466D01*
X161780395Y-81869276D02*
X161780395Y-81988323D01*
X161899442Y-82000228D01*
X161887538Y-81988323D01*
X161875633Y-81964514D01*
X161875633Y-81904990D01*
X161887538Y-81881180D01*
X161899442Y-81869276D01*
X161923252Y-81857371D01*
X161982776Y-81857371D01*
X162006585Y-81869276D01*
X162018490Y-81881180D01*
X162030395Y-81904990D01*
X162030395Y-81964514D01*
X162018490Y-81988323D01*
X162006585Y-82000228D01*
D13*
%TO.C,J5*%
X196794380Y-109172333D02*
X197508666Y-109172333D01*
X197651523Y-109219952D01*
X197746761Y-109315190D01*
X197794380Y-109458047D01*
X197794380Y-109553285D01*
X196794380Y-108219952D02*
X196794380Y-108696142D01*
X197270571Y-108743761D01*
X197222952Y-108696142D01*
X197175333Y-108600904D01*
X197175333Y-108362809D01*
X197222952Y-108267571D01*
X197270571Y-108219952D01*
X197365809Y-108172333D01*
X197603904Y-108172333D01*
X197699142Y-108219952D01*
X197746761Y-108267571D01*
X197794380Y-108362809D01*
X197794380Y-108600904D01*
X197746761Y-108696142D01*
X197699142Y-108743761D01*
%TO.C,J4*%
X196634280Y-88516533D02*
X197348566Y-88516533D01*
X197491423Y-88564152D01*
X197586661Y-88659390D01*
X197634280Y-88802247D01*
X197634280Y-88897485D01*
X196967614Y-87611771D02*
X197634280Y-87611771D01*
X196586661Y-87849866D02*
X197300947Y-88087961D01*
X197300947Y-87468914D01*
D10*
%TO.C,C10*%
X163374357Y-90759057D02*
X163355309Y-90778104D01*
X163298166Y-90797152D01*
X163260071Y-90797152D01*
X163202928Y-90778104D01*
X163164833Y-90740009D01*
X163145785Y-90701914D01*
X163126738Y-90625723D01*
X163126738Y-90568580D01*
X163145785Y-90492390D01*
X163164833Y-90454295D01*
X163202928Y-90416200D01*
X163260071Y-90397152D01*
X163298166Y-90397152D01*
X163355309Y-90416200D01*
X163374357Y-90435247D01*
X163755309Y-90797152D02*
X163526738Y-90797152D01*
X163641023Y-90797152D02*
X163641023Y-90397152D01*
X163602928Y-90454295D01*
X163564833Y-90492390D01*
X163526738Y-90511438D01*
X164002928Y-90397152D02*
X164041023Y-90397152D01*
X164079119Y-90416200D01*
X164098166Y-90435247D01*
X164117214Y-90473342D01*
X164136261Y-90549533D01*
X164136261Y-90644771D01*
X164117214Y-90720961D01*
X164098166Y-90759057D01*
X164079119Y-90778104D01*
X164041023Y-90797152D01*
X164002928Y-90797152D01*
X163964833Y-90778104D01*
X163945785Y-90759057D01*
X163926738Y-90720961D01*
X163907690Y-90644771D01*
X163907690Y-90549533D01*
X163926738Y-90473342D01*
X163945785Y-90435247D01*
X163964833Y-90416200D01*
X164002928Y-90397152D01*
D14*
%TO.C,U4*%
X183761376Y-98915704D02*
X183761376Y-99563323D01*
X183799471Y-99639514D01*
X183837566Y-99677609D01*
X183913757Y-99715704D01*
X184066138Y-99715704D01*
X184142328Y-99677609D01*
X184180423Y-99639514D01*
X184218519Y-99563323D01*
X184218519Y-98915704D01*
X184942328Y-99182371D02*
X184942328Y-99715704D01*
X184751852Y-98877609D02*
X184561376Y-99449038D01*
X185056614Y-99449038D01*
D16*
%TO.C,C14*%
X189144671Y-93233171D02*
X189120861Y-93256980D01*
X189049433Y-93280790D01*
X189001814Y-93280790D01*
X188930385Y-93256980D01*
X188882766Y-93209361D01*
X188858957Y-93161742D01*
X188835147Y-93066504D01*
X188835147Y-92995076D01*
X188858957Y-92899838D01*
X188882766Y-92852219D01*
X188930385Y-92804600D01*
X189001814Y-92780790D01*
X189049433Y-92780790D01*
X189120861Y-92804600D01*
X189144671Y-92828409D01*
X189620861Y-93280790D02*
X189335147Y-93280790D01*
X189478004Y-93280790D02*
X189478004Y-92780790D01*
X189430385Y-92852219D01*
X189382766Y-92899838D01*
X189335147Y-92923647D01*
X190049433Y-92947457D02*
X190049433Y-93280790D01*
X189930385Y-92756980D02*
X189811338Y-93114123D01*
X190120861Y-93114123D01*
D13*
%TO.C,C12*%
X175295242Y-99101342D02*
X175247623Y-99148961D01*
X175104766Y-99196580D01*
X175009528Y-99196580D01*
X174866671Y-99148961D01*
X174771433Y-99053723D01*
X174723814Y-98958485D01*
X174676195Y-98768009D01*
X174676195Y-98625152D01*
X174723814Y-98434676D01*
X174771433Y-98339438D01*
X174866671Y-98244200D01*
X175009528Y-98196580D01*
X175104766Y-98196580D01*
X175247623Y-98244200D01*
X175295242Y-98291819D01*
X176247623Y-99196580D02*
X175676195Y-99196580D01*
X175961909Y-99196580D02*
X175961909Y-98196580D01*
X175866671Y-98339438D01*
X175771433Y-98434676D01*
X175676195Y-98482295D01*
X176628576Y-98291819D02*
X176676195Y-98244200D01*
X176771433Y-98196580D01*
X177009528Y-98196580D01*
X177104766Y-98244200D01*
X177152385Y-98291819D01*
X177200004Y-98387057D01*
X177200004Y-98482295D01*
X177152385Y-98625152D01*
X176580957Y-99196580D01*
X177200004Y-99196580D01*
D16*
%TO.C,C13*%
X184674271Y-93690371D02*
X184650461Y-93714180D01*
X184579033Y-93737990D01*
X184531414Y-93737990D01*
X184459985Y-93714180D01*
X184412366Y-93666561D01*
X184388557Y-93618942D01*
X184364747Y-93523704D01*
X184364747Y-93452276D01*
X184388557Y-93357038D01*
X184412366Y-93309419D01*
X184459985Y-93261800D01*
X184531414Y-93237990D01*
X184579033Y-93237990D01*
X184650461Y-93261800D01*
X184674271Y-93285609D01*
X185150461Y-93737990D02*
X184864747Y-93737990D01*
X185007604Y-93737990D02*
X185007604Y-93237990D01*
X184959985Y-93309419D01*
X184912366Y-93357038D01*
X184864747Y-93380847D01*
X185317128Y-93237990D02*
X185626652Y-93237990D01*
X185459985Y-93428466D01*
X185531414Y-93428466D01*
X185579033Y-93452276D01*
X185602842Y-93476085D01*
X185626652Y-93523704D01*
X185626652Y-93642752D01*
X185602842Y-93690371D01*
X185579033Y-93714180D01*
X185531414Y-93737990D01*
X185388557Y-93737990D01*
X185340938Y-93714180D01*
X185317128Y-93690371D01*
D13*
%TO.C,TP2*%
X172999795Y-114615780D02*
X173571223Y-114615780D01*
X173285509Y-115615780D02*
X173285509Y-114615780D01*
X173904557Y-115615780D02*
X173904557Y-114615780D01*
X174285509Y-114615780D01*
X174380747Y-114663400D01*
X174428366Y-114711019D01*
X174475985Y-114806257D01*
X174475985Y-114949114D01*
X174428366Y-115044352D01*
X174380747Y-115091971D01*
X174285509Y-115139590D01*
X173904557Y-115139590D01*
X174856938Y-114711019D02*
X174904557Y-114663400D01*
X174999795Y-114615780D01*
X175237890Y-114615780D01*
X175333128Y-114663400D01*
X175380747Y-114711019D01*
X175428366Y-114806257D01*
X175428366Y-114901495D01*
X175380747Y-115044352D01*
X174809319Y-115615780D01*
X175428366Y-115615780D01*
%TO.C,TP10*%
X186036404Y-116241380D02*
X186607833Y-116241380D01*
X186322119Y-117241380D02*
X186322119Y-116241380D01*
X186941166Y-117241380D02*
X186941166Y-116241380D01*
X187322119Y-116241380D01*
X187417357Y-116289000D01*
X187464976Y-116336619D01*
X187512595Y-116431857D01*
X187512595Y-116574714D01*
X187464976Y-116669952D01*
X187417357Y-116717571D01*
X187322119Y-116765190D01*
X186941166Y-116765190D01*
X188464976Y-117241380D02*
X187893547Y-117241380D01*
X188179261Y-117241380D02*
X188179261Y-116241380D01*
X188084023Y-116384238D01*
X187988785Y-116479476D01*
X187893547Y-116527095D01*
X189084023Y-116241380D02*
X189179261Y-116241380D01*
X189274500Y-116289000D01*
X189322119Y-116336619D01*
X189369738Y-116431857D01*
X189417357Y-116622333D01*
X189417357Y-116860428D01*
X189369738Y-117050904D01*
X189322119Y-117146142D01*
X189274500Y-117193761D01*
X189179261Y-117241380D01*
X189084023Y-117241380D01*
X188988785Y-117193761D01*
X188941166Y-117146142D01*
X188893547Y-117050904D01*
X188845928Y-116860428D01*
X188845928Y-116622333D01*
X188893547Y-116431857D01*
X188941166Y-116336619D01*
X188988785Y-116289000D01*
X189084023Y-116241380D01*
%TO.C,Q2*%
X171032661Y-86946419D02*
X170937423Y-86898800D01*
X170842185Y-86803561D01*
X170699328Y-86660704D01*
X170604090Y-86613085D01*
X170508852Y-86613085D01*
X170556471Y-86851180D02*
X170461233Y-86803561D01*
X170365995Y-86708323D01*
X170318376Y-86517847D01*
X170318376Y-86184514D01*
X170365995Y-85994038D01*
X170461233Y-85898800D01*
X170556471Y-85851180D01*
X170746947Y-85851180D01*
X170842185Y-85898800D01*
X170937423Y-85994038D01*
X170985042Y-86184514D01*
X170985042Y-86517847D01*
X170937423Y-86708323D01*
X170842185Y-86803561D01*
X170746947Y-86851180D01*
X170556471Y-86851180D01*
X171365995Y-85946419D02*
X171413614Y-85898800D01*
X171508852Y-85851180D01*
X171746947Y-85851180D01*
X171842185Y-85898800D01*
X171889804Y-85946419D01*
X171937423Y-86041657D01*
X171937423Y-86136895D01*
X171889804Y-86279752D01*
X171318376Y-86851180D01*
X171937423Y-86851180D01*
%TO.C,TP14*%
X188170004Y-115936580D02*
X188741433Y-115936580D01*
X188455719Y-116936580D02*
X188455719Y-115936580D01*
X189074766Y-116936580D02*
X189074766Y-115936580D01*
X189455719Y-115936580D01*
X189550957Y-115984200D01*
X189598576Y-116031819D01*
X189646195Y-116127057D01*
X189646195Y-116269914D01*
X189598576Y-116365152D01*
X189550957Y-116412771D01*
X189455719Y-116460390D01*
X189074766Y-116460390D01*
X190598576Y-116936580D02*
X190027147Y-116936580D01*
X190312861Y-116936580D02*
X190312861Y-115936580D01*
X190217623Y-116079438D01*
X190122385Y-116174676D01*
X190027147Y-116222295D01*
X191455719Y-116269914D02*
X191455719Y-116936580D01*
X191217623Y-115888961D02*
X190979528Y-116603247D01*
X191598576Y-116603247D01*
D16*
%TO.C,C4*%
X193149666Y-108509571D02*
X193125857Y-108533380D01*
X193054428Y-108557190D01*
X193006809Y-108557190D01*
X192935380Y-108533380D01*
X192887761Y-108485761D01*
X192863952Y-108438142D01*
X192840142Y-108342904D01*
X192840142Y-108271476D01*
X192863952Y-108176238D01*
X192887761Y-108128619D01*
X192935380Y-108081000D01*
X193006809Y-108057190D01*
X193054428Y-108057190D01*
X193125857Y-108081000D01*
X193149666Y-108104809D01*
X193578238Y-108223857D02*
X193578238Y-108557190D01*
X193459190Y-108033380D02*
X193340142Y-108390523D01*
X193649666Y-108390523D01*
D12*
%TO.C,R24*%
X193755857Y-110099619D02*
X193669190Y-109975809D01*
X193607285Y-110099619D02*
X193607285Y-109839619D01*
X193706333Y-109839619D01*
X193731095Y-109852000D01*
X193743476Y-109864380D01*
X193755857Y-109889142D01*
X193755857Y-109926285D01*
X193743476Y-109951047D01*
X193731095Y-109963428D01*
X193706333Y-109975809D01*
X193607285Y-109975809D01*
X193854904Y-109864380D02*
X193867285Y-109852000D01*
X193892047Y-109839619D01*
X193953952Y-109839619D01*
X193978714Y-109852000D01*
X193991095Y-109864380D01*
X194003476Y-109889142D01*
X194003476Y-109913904D01*
X193991095Y-109951047D01*
X193842523Y-110099619D01*
X194003476Y-110099619D01*
X194226333Y-109926285D02*
X194226333Y-110099619D01*
X194164428Y-109827238D02*
X194102523Y-110012952D01*
X194263476Y-110012952D01*
D13*
%TO.C,H2*%
X198818795Y-77479580D02*
X198818795Y-76479580D01*
X198818795Y-76955771D02*
X199390223Y-76955771D01*
X199390223Y-77479580D02*
X199390223Y-76479580D01*
X199818795Y-76574819D02*
X199866414Y-76527200D01*
X199961652Y-76479580D01*
X200199747Y-76479580D01*
X200294985Y-76527200D01*
X200342604Y-76574819D01*
X200390223Y-76670057D01*
X200390223Y-76765295D01*
X200342604Y-76908152D01*
X199771176Y-77479580D01*
X200390223Y-77479580D01*
%TO.C,D1*%
X167808604Y-117008580D02*
X167808604Y-116008580D01*
X168046700Y-116008580D01*
X168189557Y-116056200D01*
X168284795Y-116151438D01*
X168332414Y-116246676D01*
X168380033Y-116437152D01*
X168380033Y-116580009D01*
X168332414Y-116770485D01*
X168284795Y-116865723D01*
X168189557Y-116960961D01*
X168046700Y-117008580D01*
X167808604Y-117008580D01*
X169332414Y-117008580D02*
X168760985Y-117008580D01*
X169046700Y-117008580D02*
X169046700Y-116008580D01*
X168951461Y-116151438D01*
X168856223Y-116246676D01*
X168760985Y-116294295D01*
D12*
%TO.C,R10*%
X186299619Y-116547942D02*
X186175809Y-116634609D01*
X186299619Y-116696514D02*
X186039619Y-116696514D01*
X186039619Y-116597466D01*
X186052000Y-116572704D01*
X186064380Y-116560323D01*
X186089142Y-116547942D01*
X186126285Y-116547942D01*
X186151047Y-116560323D01*
X186163428Y-116572704D01*
X186175809Y-116597466D01*
X186175809Y-116696514D01*
X186299619Y-116300323D02*
X186299619Y-116448895D01*
X186299619Y-116374609D02*
X186039619Y-116374609D01*
X186076761Y-116399371D01*
X186101523Y-116424133D01*
X186113904Y-116448895D01*
X186039619Y-116139371D02*
X186039619Y-116114609D01*
X186052000Y-116089847D01*
X186064380Y-116077466D01*
X186089142Y-116065085D01*
X186138666Y-116052704D01*
X186200571Y-116052704D01*
X186250095Y-116065085D01*
X186274857Y-116077466D01*
X186287238Y-116089847D01*
X186299619Y-116114609D01*
X186299619Y-116139371D01*
X186287238Y-116164133D01*
X186274857Y-116176514D01*
X186250095Y-116188895D01*
X186200571Y-116201276D01*
X186138666Y-116201276D01*
X186089142Y-116188895D01*
X186064380Y-116176514D01*
X186052000Y-116164133D01*
X186039619Y-116139371D01*
D13*
%TO.C,TP3*%
X166682895Y-104682380D02*
X167254323Y-104682380D01*
X166968609Y-105682380D02*
X166968609Y-104682380D01*
X167587657Y-105682380D02*
X167587657Y-104682380D01*
X167968609Y-104682380D01*
X168063847Y-104730000D01*
X168111466Y-104777619D01*
X168159085Y-104872857D01*
X168159085Y-105015714D01*
X168111466Y-105110952D01*
X168063847Y-105158571D01*
X167968609Y-105206190D01*
X167587657Y-105206190D01*
X168492419Y-104682380D02*
X169111466Y-104682380D01*
X168778133Y-105063333D01*
X168920990Y-105063333D01*
X169016228Y-105110952D01*
X169063847Y-105158571D01*
X169111466Y-105253809D01*
X169111466Y-105491904D01*
X169063847Y-105587142D01*
X169016228Y-105634761D01*
X168920990Y-105682380D01*
X168635276Y-105682380D01*
X168540038Y-105634761D01*
X168492419Y-105587142D01*
D15*
%TO.C,D4*%
X179970952Y-75435590D02*
X179970952Y-74935590D01*
X180090000Y-74935590D01*
X180161428Y-74959400D01*
X180209047Y-75007019D01*
X180232857Y-75054638D01*
X180256666Y-75149876D01*
X180256666Y-75221304D01*
X180232857Y-75316542D01*
X180209047Y-75364161D01*
X180161428Y-75411780D01*
X180090000Y-75435590D01*
X179970952Y-75435590D01*
X180685238Y-75102257D02*
X180685238Y-75435590D01*
X180566190Y-74911780D02*
X180447142Y-75268923D01*
X180756666Y-75268923D01*
D12*
%TO.C,R25*%
X193759857Y-112639619D02*
X193673190Y-112515809D01*
X193611285Y-112639619D02*
X193611285Y-112379619D01*
X193710333Y-112379619D01*
X193735095Y-112392000D01*
X193747476Y-112404380D01*
X193759857Y-112429142D01*
X193759857Y-112466285D01*
X193747476Y-112491047D01*
X193735095Y-112503428D01*
X193710333Y-112515809D01*
X193611285Y-112515809D01*
X193858904Y-112404380D02*
X193871285Y-112392000D01*
X193896047Y-112379619D01*
X193957952Y-112379619D01*
X193982714Y-112392000D01*
X193995095Y-112404380D01*
X194007476Y-112429142D01*
X194007476Y-112453904D01*
X193995095Y-112491047D01*
X193846523Y-112639619D01*
X194007476Y-112639619D01*
X194242714Y-112379619D02*
X194118904Y-112379619D01*
X194106523Y-112503428D01*
X194118904Y-112491047D01*
X194143666Y-112478666D01*
X194205571Y-112478666D01*
X194230333Y-112491047D01*
X194242714Y-112503428D01*
X194255095Y-112528190D01*
X194255095Y-112590095D01*
X194242714Y-112614857D01*
X194230333Y-112627238D01*
X194205571Y-112639619D01*
X194143666Y-112639619D01*
X194118904Y-112627238D01*
X194106523Y-112614857D01*
D14*
%TO.C,R15*%
X189912514Y-80106904D02*
X189645847Y-79725952D01*
X189455371Y-80106904D02*
X189455371Y-79306904D01*
X189760133Y-79306904D01*
X189836323Y-79345000D01*
X189874419Y-79383095D01*
X189912514Y-79459285D01*
X189912514Y-79573571D01*
X189874419Y-79649761D01*
X189836323Y-79687857D01*
X189760133Y-79725952D01*
X189455371Y-79725952D01*
X190674419Y-80106904D02*
X190217276Y-80106904D01*
X190445847Y-80106904D02*
X190445847Y-79306904D01*
X190369657Y-79421190D01*
X190293466Y-79497380D01*
X190217276Y-79535476D01*
X191398228Y-79306904D02*
X191017276Y-79306904D01*
X190979180Y-79687857D01*
X191017276Y-79649761D01*
X191093466Y-79611666D01*
X191283942Y-79611666D01*
X191360133Y-79649761D01*
X191398228Y-79687857D01*
X191436323Y-79764047D01*
X191436323Y-79954523D01*
X191398228Y-80030714D01*
X191360133Y-80068809D01*
X191283942Y-80106904D01*
X191093466Y-80106904D01*
X191017276Y-80068809D01*
X190979180Y-80030714D01*
D13*
%TO.C,H1*%
X160718795Y-77479580D02*
X160718795Y-76479580D01*
X160718795Y-76955771D02*
X161290223Y-76955771D01*
X161290223Y-77479580D02*
X161290223Y-76479580D01*
X162290223Y-77479580D02*
X161718795Y-77479580D01*
X162004509Y-77479580D02*
X162004509Y-76479580D01*
X161909271Y-76622438D01*
X161814033Y-76717676D01*
X161718795Y-76765295D01*
D14*
%TO.C,F1*%
X190160133Y-76284257D02*
X189893466Y-76284257D01*
X189893466Y-76703304D02*
X189893466Y-75903304D01*
X190274419Y-75903304D01*
X190998228Y-76703304D02*
X190541085Y-76703304D01*
X190769657Y-76703304D02*
X190769657Y-75903304D01*
X190693466Y-76017590D01*
X190617276Y-76093780D01*
X190541085Y-76131876D01*
D13*
%TO.C,TP9*%
X185140995Y-115580980D02*
X185712423Y-115580980D01*
X185426709Y-116580980D02*
X185426709Y-115580980D01*
X186045757Y-116580980D02*
X186045757Y-115580980D01*
X186426709Y-115580980D01*
X186521947Y-115628600D01*
X186569566Y-115676219D01*
X186617185Y-115771457D01*
X186617185Y-115914314D01*
X186569566Y-116009552D01*
X186521947Y-116057171D01*
X186426709Y-116104790D01*
X186045757Y-116104790D01*
X187093376Y-116580980D02*
X187283852Y-116580980D01*
X187379090Y-116533361D01*
X187426709Y-116485742D01*
X187521947Y-116342885D01*
X187569566Y-116152409D01*
X187569566Y-115771457D01*
X187521947Y-115676219D01*
X187474328Y-115628600D01*
X187379090Y-115580980D01*
X187188614Y-115580980D01*
X187093376Y-115628600D01*
X187045757Y-115676219D01*
X186998138Y-115771457D01*
X186998138Y-116009552D01*
X187045757Y-116104790D01*
X187093376Y-116152409D01*
X187188614Y-116200028D01*
X187379090Y-116200028D01*
X187474328Y-116152409D01*
X187521947Y-116104790D01*
X187569566Y-116009552D01*
%TO.C,TP15*%
X177839904Y-101507380D02*
X178411333Y-101507380D01*
X178125619Y-102507380D02*
X178125619Y-101507380D01*
X178744666Y-102507380D02*
X178744666Y-101507380D01*
X179125619Y-101507380D01*
X179220857Y-101555000D01*
X179268476Y-101602619D01*
X179316095Y-101697857D01*
X179316095Y-101840714D01*
X179268476Y-101935952D01*
X179220857Y-101983571D01*
X179125619Y-102031190D01*
X178744666Y-102031190D01*
X180268476Y-102507380D02*
X179697047Y-102507380D01*
X179982761Y-102507380D02*
X179982761Y-101507380D01*
X179887523Y-101650238D01*
X179792285Y-101745476D01*
X179697047Y-101793095D01*
X181173238Y-101507380D02*
X180697047Y-101507380D01*
X180649428Y-101983571D01*
X180697047Y-101935952D01*
X180792285Y-101888333D01*
X181030380Y-101888333D01*
X181125619Y-101935952D01*
X181173238Y-101983571D01*
X181220857Y-102078809D01*
X181220857Y-102316904D01*
X181173238Y-102412142D01*
X181125619Y-102459761D01*
X181030380Y-102507380D01*
X180792285Y-102507380D01*
X180697047Y-102459761D01*
X180649428Y-102412142D01*
D16*
%TO.C,C1*%
X170122271Y-107681933D02*
X170146080Y-107705742D01*
X170169890Y-107777171D01*
X170169890Y-107824790D01*
X170146080Y-107896219D01*
X170098461Y-107943838D01*
X170050842Y-107967647D01*
X169955604Y-107991457D01*
X169884176Y-107991457D01*
X169788938Y-107967647D01*
X169741319Y-107943838D01*
X169693700Y-107896219D01*
X169669890Y-107824790D01*
X169669890Y-107777171D01*
X169693700Y-107705742D01*
X169717509Y-107681933D01*
X170169890Y-107205742D02*
X170169890Y-107491457D01*
X170169890Y-107348600D02*
X169669890Y-107348600D01*
X169741319Y-107396219D01*
X169788938Y-107443838D01*
X169812747Y-107491457D01*
D13*
%TO.C,D2*%
X173063404Y-93735580D02*
X173063404Y-92735580D01*
X173301500Y-92735580D01*
X173444357Y-92783200D01*
X173539595Y-92878438D01*
X173587214Y-92973676D01*
X173634833Y-93164152D01*
X173634833Y-93307009D01*
X173587214Y-93497485D01*
X173539595Y-93592723D01*
X173444357Y-93687961D01*
X173301500Y-93735580D01*
X173063404Y-93735580D01*
X174015785Y-92830819D02*
X174063404Y-92783200D01*
X174158642Y-92735580D01*
X174396738Y-92735580D01*
X174491976Y-92783200D01*
X174539595Y-92830819D01*
X174587214Y-92926057D01*
X174587214Y-93021295D01*
X174539595Y-93164152D01*
X173968166Y-93735580D01*
X174587214Y-93735580D01*
%TO.C,TP12*%
X183140804Y-72514980D02*
X183712233Y-72514980D01*
X183426519Y-73514980D02*
X183426519Y-72514980D01*
X184045566Y-73514980D02*
X184045566Y-72514980D01*
X184426519Y-72514980D01*
X184521757Y-72562600D01*
X184569376Y-72610219D01*
X184616995Y-72705457D01*
X184616995Y-72848314D01*
X184569376Y-72943552D01*
X184521757Y-72991171D01*
X184426519Y-73038790D01*
X184045566Y-73038790D01*
X185569376Y-73514980D02*
X184997947Y-73514980D01*
X185283661Y-73514980D02*
X185283661Y-72514980D01*
X185188423Y-72657838D01*
X185093185Y-72753076D01*
X184997947Y-72800695D01*
X185950328Y-72610219D02*
X185997947Y-72562600D01*
X186093185Y-72514980D01*
X186331280Y-72514980D01*
X186426519Y-72562600D01*
X186474138Y-72610219D01*
X186521757Y-72705457D01*
X186521757Y-72800695D01*
X186474138Y-72943552D01*
X185902709Y-73514980D01*
X186521757Y-73514980D01*
D11*
%TO.C,R14*%
X179419500Y-79985000D02*
X179419500Y-78385000D01*
X180244500Y-78385000D02*
X180244500Y-79985000D01*
X180244500Y-79985000D02*
X179419500Y-79985000D01*
X179419500Y-78385000D02*
X180244500Y-78385000D01*
%TO.C,U2*%
X157775700Y-84290200D02*
X159775700Y-84290200D01*
X160775700Y-85290200D02*
X160775700Y-87290200D01*
X157775700Y-87290200D02*
X157775700Y-84290200D01*
X160775700Y-85290200D02*
X159775700Y-84290200D01*
X160775700Y-87290200D02*
X157775700Y-87290200D01*
%TO.C,FID2*%
X195060000Y-76200000D02*
G75*
G03*
X195060000Y-76200000I-750000J0D01*
G01*
%TO.C,R16*%
X194448000Y-110982000D02*
X194448000Y-111522000D01*
X193398000Y-111522000D02*
X193398000Y-110982000D01*
X194448000Y-111522000D02*
X193398000Y-111522000D01*
X193398000Y-110982000D02*
X194448000Y-110982000D01*
%TO.C,R7*%
X170161400Y-79910200D02*
X170161400Y-81510200D01*
X170161400Y-81510200D02*
X166961400Y-81510200D01*
X166961400Y-79910200D02*
X170161400Y-79910200D01*
X166961400Y-81510200D02*
X166961400Y-79910200D01*
%TO.C,FID3*%
X195060000Y-120650000D02*
G75*
G03*
X195060000Y-120650000I-750000J0D01*
G01*
%TO.C,R1*%
X172087700Y-118826200D02*
X172087700Y-118286200D01*
X173137700Y-118826200D02*
X172087700Y-118826200D01*
X172087700Y-118286200D02*
X173137700Y-118286200D01*
X173137700Y-118286200D02*
X173137700Y-118826200D01*
%TO.C,C11*%
X187749500Y-118651400D02*
X187749500Y-117851400D01*
X189349500Y-117851400D02*
X189349500Y-118651400D01*
X189349500Y-118651400D02*
X187749500Y-118651400D01*
X187749500Y-117851400D02*
X189349500Y-117851400D01*
%TO.C,R19*%
X192157800Y-90235600D02*
X188957800Y-90235600D01*
X192157800Y-87745600D02*
X192157800Y-90235600D01*
X188957800Y-90235600D02*
X188957800Y-87745600D01*
X188957800Y-87745600D02*
X192157800Y-87745600D01*
%TO.C,R17*%
X188856200Y-83021200D02*
X192056200Y-83021200D01*
X192056200Y-85511200D02*
X188856200Y-85511200D01*
X192056200Y-83021200D02*
X192056200Y-85511200D01*
X188856200Y-85511200D02*
X188856200Y-83021200D01*
%TO.C,FID1*%
X170930000Y-76200000D02*
G75*
G03*
X170930000Y-76200000I-750000J0D01*
G01*
%TO.C,U3*%
X187790500Y-115016200D02*
X189290500Y-115016200D01*
X189290500Y-115016200D02*
X189790500Y-115516200D01*
X189790500Y-115516200D02*
X189790500Y-117016200D01*
X187790500Y-117016200D02*
X187790500Y-115016200D01*
X189790500Y-117016200D02*
X187790500Y-117016200D01*
%TO.C,C7*%
X194221000Y-106826000D02*
X192621000Y-106826000D01*
X194221000Y-106026000D02*
X194221000Y-106826000D01*
X192621000Y-106826000D02*
X192621000Y-106026000D01*
X192621000Y-106026000D02*
X194221000Y-106026000D01*
%TO.C,J2*%
X163691700Y-115384200D02*
X157941700Y-115384200D01*
X157941700Y-122784200D02*
X163691700Y-122784200D01*
X157941700Y-115384200D02*
X157941700Y-122784200D01*
X158941700Y-120334200D02*
X157941700Y-119709200D01*
X157941700Y-120959200D02*
X158941700Y-120334200D01*
X163691700Y-122784200D02*
X163691700Y-115384200D01*
%TO.C,R12*%
X197218400Y-122344700D02*
X197218400Y-121519700D01*
X197218400Y-121519700D02*
X198818400Y-121519700D01*
X198818400Y-121519700D02*
X198818400Y-122344700D01*
X198818400Y-122344700D02*
X197218400Y-122344700D01*
%TO.C,C3*%
X158341700Y-91114200D02*
X158341700Y-89864200D01*
X158341700Y-89864200D02*
X160341700Y-89864200D01*
X160341700Y-91114200D02*
X158341700Y-91114200D01*
X160341700Y-89864200D02*
X160341700Y-91114200D01*
%TO.C,C2*%
X164623700Y-107001200D02*
X159023700Y-107001200D01*
X165623700Y-108001200D02*
X164623700Y-107001200D01*
X165623700Y-112601200D02*
X164623700Y-113601200D01*
X159023700Y-113601200D02*
X159023700Y-107001200D01*
X164713538Y-111946200D02*
X164713538Y-111316200D01*
X165028538Y-111631200D02*
X164398538Y-111631200D01*
X164623700Y-113601200D02*
X159023700Y-113601200D01*
X165623700Y-112601200D02*
X165623700Y-108001200D01*
X165473700Y-110301200D02*
G75*
G03*
X165473700Y-110301200I-3150000J0D01*
G01*
%TO.C,R3*%
X183320100Y-116031200D02*
X182780100Y-116031200D01*
X182780100Y-116031200D02*
X182780100Y-114981200D01*
X182780100Y-114981200D02*
X183320100Y-114981200D01*
X183320100Y-114981200D02*
X183320100Y-116031200D01*
%TO.C,R20*%
X194708000Y-103902000D02*
X193658000Y-103902000D01*
X193658000Y-103362000D02*
X194708000Y-103362000D01*
X194708000Y-103362000D02*
X194708000Y-103902000D01*
X193658000Y-103902000D02*
X193658000Y-103362000D01*
%TO.C,R11*%
X185159900Y-78385000D02*
X185984900Y-78385000D01*
X185159900Y-79985000D02*
X185159900Y-78385000D01*
X185984900Y-78385000D02*
X185984900Y-79985000D01*
X185984900Y-79985000D02*
X185159900Y-79985000D01*
%TO.C,R4*%
X161847500Y-87787400D02*
X161847500Y-87247400D01*
X162897500Y-87787400D02*
X161847500Y-87787400D01*
X162897500Y-87247400D02*
X162897500Y-87787400D01*
X161847500Y-87247400D02*
X162897500Y-87247400D01*
%TO.C,C15*%
X190660900Y-101601438D02*
X190660900Y-100971438D01*
X190345900Y-101286438D02*
X190975900Y-101286438D01*
X194290900Y-102196600D02*
X195290900Y-101196600D01*
X188690900Y-95596600D02*
X195290900Y-95596600D01*
X188690900Y-101196600D02*
X188690900Y-95596600D01*
X189690900Y-102196600D02*
X188690900Y-101196600D01*
X195290900Y-101196600D02*
X195290900Y-95596600D01*
X189690900Y-102196600D02*
X194290900Y-102196600D01*
X195140900Y-98896600D02*
G75*
G03*
X195140900Y-98896600I-3150000J0D01*
G01*
%TO.C,SW1*%
X179344500Y-110939000D02*
X179344500Y-104939000D01*
X173344500Y-110939000D02*
X179344500Y-110939000D01*
X173344500Y-104939000D02*
X173344500Y-110939000D01*
X179344500Y-104939000D02*
X173344500Y-104939000D01*
X178095214Y-107939000D02*
G75*
G03*
X178095214Y-107939000I-1750714J0D01*
G01*
%TO.C,U1*%
X187196500Y-111443000D02*
X183796500Y-111443000D01*
X183796500Y-104943000D02*
X188196500Y-104943000D01*
X183796500Y-111443000D02*
X183796500Y-104943000D01*
X188196500Y-110443000D02*
X187196500Y-111443000D01*
X188196500Y-104943000D02*
X188196500Y-110443000D01*
%TO.C,R18*%
X194708000Y-104505000D02*
X194708000Y-105045000D01*
X194708000Y-105045000D02*
X193658000Y-105045000D01*
X193658000Y-104505000D02*
X194708000Y-104505000D01*
X193658000Y-105045000D02*
X193658000Y-104505000D01*
%TO.C,C9*%
X189368900Y-119607600D02*
X189368900Y-120857600D01*
X189368900Y-120857600D02*
X187368900Y-120857600D01*
X187368900Y-120857600D02*
X187368900Y-119607600D01*
X187368900Y-119607600D02*
X189368900Y-119607600D01*
%TO.C,U5*%
X181201700Y-82577200D02*
X182176700Y-81602200D01*
X185101700Y-91502200D02*
X181201700Y-91502200D01*
X181201700Y-91502200D02*
X181201700Y-82577200D01*
X185101700Y-81602200D02*
X185101700Y-91502200D01*
X182176700Y-81602200D02*
X185101700Y-81602200D01*
%TO.C,R9*%
X171905900Y-93241800D02*
X172955900Y-93241800D01*
X172955900Y-93781800D02*
X171905900Y-93781800D01*
X171905900Y-93781800D02*
X171905900Y-93241800D01*
X172955900Y-93241800D02*
X172955900Y-93781800D01*
%TO.C,R2*%
X161898300Y-83972200D02*
X161898300Y-83432200D01*
X161898300Y-83432200D02*
X162948300Y-83432200D01*
X162948300Y-83432200D02*
X162948300Y-83972200D01*
X162948300Y-83972200D02*
X161898300Y-83972200D01*
%TO.C,R22*%
X194456000Y-114189000D02*
X193406000Y-114189000D01*
X193406000Y-114189000D02*
X193406000Y-113649000D01*
X194456000Y-113649000D02*
X194456000Y-114189000D01*
X193406000Y-113649000D02*
X194456000Y-113649000D01*
%TO.C,R23*%
X185944000Y-119297400D02*
X185404000Y-119297400D01*
X185404000Y-119297400D02*
X185404000Y-118247400D01*
X185404000Y-118247400D02*
X185944000Y-118247400D01*
X185944000Y-118247400D02*
X185944000Y-119297400D01*
%TO.C,T1*%
X158107300Y-92546600D02*
X158107300Y-104941800D01*
X170604100Y-104941800D02*
X170604100Y-92546600D01*
X158107300Y-104941800D02*
X170604100Y-104941800D01*
X170604100Y-92546600D02*
X158107300Y-92546600D01*
X170604100Y-98439400D02*
G75*
G03*
X170604100Y-99049000I0J-304800D01*
G01*
X165855700Y-94604000D02*
G75*
G03*
X165855700Y-94604000I0J0D01*
G01*
%TO.C,R8*%
X174852300Y-93241800D02*
X175902300Y-93241800D01*
X175902300Y-93241800D02*
X175902300Y-93781800D01*
X174852300Y-93781800D02*
X174852300Y-93241800D01*
X175902300Y-93781800D02*
X174852300Y-93781800D01*
%TO.C,R5*%
X194456000Y-114792000D02*
X194456000Y-115332000D01*
X193406000Y-115332000D02*
X193406000Y-114792000D01*
X194456000Y-115332000D02*
X193406000Y-115332000D01*
X193406000Y-114792000D02*
X194456000Y-114792000D01*
%TO.C,Q1*%
X165932700Y-129653200D02*
X165932700Y-123433200D01*
X171882700Y-130653200D02*
X166482700Y-130653200D01*
X171837700Y-120733200D02*
X171087700Y-120733200D01*
X167277700Y-123433200D02*
X167277700Y-120733200D01*
X171837700Y-123838200D02*
X171837700Y-120733200D01*
X165932700Y-123433200D02*
X171432700Y-123433200D01*
X166482700Y-130653200D02*
X166482700Y-129653200D01*
X172432700Y-129653200D02*
X165932700Y-129653200D01*
X171432700Y-123433200D02*
X172432700Y-124433200D01*
X167277700Y-120733200D02*
X166527700Y-120733200D01*
X171882700Y-129653200D02*
X171882700Y-130653200D01*
X172432700Y-124433200D02*
X172432700Y-129653200D01*
X166527700Y-120733200D02*
X166527700Y-123433200D01*
X171087700Y-120733200D02*
X171087700Y-123433200D01*
%TO.C,C6*%
X163335700Y-81553800D02*
X163335700Y-82553800D01*
X162835700Y-82553800D02*
X162835700Y-81553800D01*
X163335700Y-82553800D02*
X162835700Y-82553800D01*
X162835700Y-81553800D02*
X163335700Y-81553800D01*
%TO.C,R13*%
X182264300Y-78385000D02*
X183089300Y-78385000D01*
X183089300Y-78385000D02*
X183089300Y-79985000D01*
X183089300Y-79985000D02*
X182264300Y-79985000D01*
X182264300Y-79985000D02*
X182264300Y-78385000D01*
D17*
%TO.C,S1*%
X173915000Y-121034000D02*
X180415000Y-121034000D01*
X180415000Y-121034000D02*
X180415000Y-130934000D01*
X173915000Y-130934000D02*
X173915000Y-121034000D01*
X180415000Y-130934000D02*
X173915000Y-130934000D01*
D11*
%TO.C,R21*%
X184184800Y-118245400D02*
X184724800Y-118245400D01*
X184724800Y-119295400D02*
X184184800Y-119295400D01*
X184184800Y-119295400D02*
X184184800Y-118245400D01*
X184724800Y-118245400D02*
X184724800Y-119295400D01*
%TO.C,C8*%
X162897300Y-85941400D02*
X162897300Y-86441400D01*
X161897300Y-85941400D02*
X162897300Y-85941400D01*
X161897300Y-86441400D02*
X161897300Y-85941400D01*
X162897300Y-86441400D02*
X161897300Y-86441400D01*
%TO.C,D3*%
X198792900Y-120305000D02*
X198792900Y-119805000D01*
X198492900Y-120605000D02*
X198792900Y-120305000D01*
X197192900Y-119805000D02*
X197192900Y-120605000D01*
X197192900Y-120605000D02*
X198492900Y-120605000D01*
X198792900Y-119805000D02*
X197192900Y-119805000D01*
%TO.C,R6*%
X161900300Y-84651400D02*
X162950300Y-84651400D01*
X162950300Y-85191400D02*
X161900300Y-85191400D01*
X161900300Y-85191400D02*
X161900300Y-84651400D01*
X162950300Y-84651400D02*
X162950300Y-85191400D01*
%TO.C,C5*%
X162167300Y-82553800D02*
X161667300Y-82553800D01*
X161667300Y-82553800D02*
X161667300Y-81553800D01*
X161667300Y-81553800D02*
X162167300Y-81553800D01*
X162167300Y-81553800D02*
X162167300Y-82553800D01*
%TO.C,J5*%
X202392000Y-117539000D02*
X202392000Y-100139000D01*
X201392000Y-102589000D02*
X202392000Y-103214000D01*
X196642000Y-100139000D02*
X196642000Y-117539000D01*
X196642000Y-117539000D02*
X202392000Y-117539000D01*
X202392000Y-101964000D02*
X201392000Y-102589000D01*
X202392000Y-100139000D02*
X196642000Y-100139000D01*
%TO.C,J4*%
X201231900Y-84433200D02*
X202231900Y-85058200D01*
X202231900Y-94383200D02*
X202231900Y-81983200D01*
X196481900Y-81983200D02*
X196481900Y-94383200D01*
X202231900Y-83808200D02*
X201231900Y-84433200D01*
X196481900Y-94383200D02*
X202231900Y-94383200D01*
X202231900Y-81983200D02*
X196481900Y-81983200D01*
%TO.C,C10*%
X164431500Y-91016200D02*
X162831500Y-91016200D01*
X164431500Y-90216200D02*
X164431500Y-91016200D01*
X162831500Y-90216200D02*
X164431500Y-90216200D01*
X162831500Y-91016200D02*
X162831500Y-90216200D01*
%TO.C,U4*%
X186720900Y-97503800D02*
X181020900Y-97503800D01*
X186720900Y-97503800D02*
X187720900Y-98503800D01*
X187720900Y-98503800D02*
X187720900Y-101203800D01*
X187720900Y-101203800D02*
X181020900Y-101203800D01*
X181020900Y-97503800D02*
X181020900Y-101203800D01*
%TO.C,C14*%
X190466100Y-92429600D02*
X190466100Y-93679600D01*
X188466100Y-92429600D02*
X190466100Y-92429600D01*
X188466100Y-93679600D02*
X188466100Y-92429600D01*
X190466100Y-93679600D02*
X188466100Y-93679600D01*
%TO.C,C12*%
X178327938Y-100389200D02*
X178327938Y-99759200D01*
X178238100Y-102044200D02*
X172638100Y-102044200D01*
X172638100Y-102044200D02*
X172638100Y-95444200D01*
X179238100Y-101044200D02*
X178238100Y-102044200D01*
X179238100Y-96444200D02*
X178238100Y-95444200D01*
X178642938Y-100074200D02*
X178012938Y-100074200D01*
X179238100Y-101044200D02*
X179238100Y-96444200D01*
X178238100Y-95444200D02*
X172638100Y-95444200D01*
X179088100Y-98744200D02*
G75*
G03*
X179088100Y-98744200I-3150000J0D01*
G01*
%TO.C,C13*%
X183995700Y-94136800D02*
X183995700Y-92886800D01*
X183995700Y-92886800D02*
X185995700Y-92886800D01*
X185995700Y-94136800D02*
X183995700Y-94136800D01*
X185995700Y-92886800D02*
X185995700Y-94136800D01*
%TO.C,Q2*%
X173397900Y-83148800D02*
X173397900Y-88648800D01*
X172397900Y-89648800D02*
X167177900Y-89648800D01*
X167177900Y-89098800D02*
X166177900Y-89098800D01*
X176097900Y-89053800D02*
X176097900Y-88303800D01*
X166177900Y-83698800D02*
X167177900Y-83698800D01*
X176097900Y-84493800D02*
X176097900Y-83743800D01*
X166177900Y-89098800D02*
X166177900Y-83698800D01*
X176097900Y-83743800D02*
X173397900Y-83743800D01*
X176097900Y-88303800D02*
X173397900Y-88303800D01*
X167177900Y-89648800D02*
X167177900Y-83148800D01*
X172992900Y-89053800D02*
X176097900Y-89053800D01*
X173397900Y-84493800D02*
X176097900Y-84493800D01*
X167177900Y-83148800D02*
X173397900Y-83148800D01*
X173397900Y-88648800D02*
X172397900Y-89648800D01*
%TO.C,C4*%
X194233000Y-107706000D02*
X194233000Y-108956000D01*
X194233000Y-108956000D02*
X192233000Y-108956000D01*
X192233000Y-107706000D02*
X194233000Y-107706000D01*
X192233000Y-108956000D02*
X192233000Y-107706000D01*
%TO.C,R24*%
X194448000Y-110252000D02*
X193398000Y-110252000D01*
X193398000Y-110252000D02*
X193398000Y-109712000D01*
X193398000Y-109712000D02*
X194448000Y-109712000D01*
X194448000Y-109712000D02*
X194448000Y-110252000D01*
%TO.C,D1*%
X168196700Y-118556200D02*
X168196700Y-119106200D01*
X169946700Y-119456200D02*
X167146700Y-119456200D01*
X167146700Y-119456200D02*
X167146700Y-117656200D01*
X168196700Y-118556200D02*
X168196700Y-118006200D01*
X168796700Y-118556200D02*
X169296700Y-118556200D01*
X168796700Y-118156200D02*
X168796700Y-118956200D01*
X167146700Y-117656200D02*
X169946700Y-117656200D01*
X169946700Y-117656200D02*
X169946700Y-119456200D01*
X168196700Y-118556200D02*
X168796700Y-118156200D01*
X168796700Y-118956200D02*
X168196700Y-118556200D01*
X167796700Y-118556200D02*
X168196700Y-118556200D01*
%TO.C,R10*%
X185912000Y-115855800D02*
X186452000Y-115855800D01*
X185912000Y-116905800D02*
X185912000Y-115855800D01*
X186452000Y-115855800D02*
X186452000Y-116905800D01*
X186452000Y-116905800D02*
X185912000Y-116905800D01*
%TO.C,D4*%
X178740000Y-76609400D02*
X181940000Y-76609400D01*
X181940000Y-76609400D02*
X181940000Y-73809400D01*
X179740000Y-73809400D02*
X178740000Y-74809400D01*
X181940000Y-73809400D02*
X178740000Y-73809400D01*
X178740000Y-73809400D02*
X178740000Y-76609400D01*
X181460000Y-75209400D02*
G75*
G03*
X181460000Y-75209400I-1120000J0D01*
G01*
%TO.C,R25*%
X193402000Y-112792000D02*
X193402000Y-112252000D01*
X194452000Y-112252000D02*
X194452000Y-112792000D01*
X193402000Y-112252000D02*
X194452000Y-112252000D01*
X194452000Y-112792000D02*
X193402000Y-112792000D01*
%TO.C,R15*%
X192026800Y-78500000D02*
X192026800Y-80990000D01*
X188826800Y-80990000D02*
X188826800Y-78500000D01*
X192026800Y-80990000D02*
X188826800Y-80990000D01*
X188826800Y-78500000D02*
X192026800Y-78500000D01*
%TO.C,F1*%
X188826800Y-77586400D02*
X188826800Y-75096400D01*
X192026800Y-75096400D02*
X192026800Y-77586400D01*
X188826800Y-75096400D02*
X192026800Y-75096400D01*
X192026800Y-77586400D02*
X188826800Y-77586400D01*
%TO.C,C1*%
X169318700Y-106598600D02*
X170568700Y-106598600D01*
X169318700Y-108598600D02*
X169318700Y-106598600D01*
X170568700Y-106598600D02*
X170568700Y-108598600D01*
X170568700Y-108598600D02*
X169318700Y-108598600D01*
%TO.C,D2*%
X174424500Y-91378200D02*
X174024500Y-91378200D01*
X172274500Y-92278200D02*
X172274500Y-90478200D01*
X174024500Y-91378200D02*
X174024500Y-91928200D01*
X175074500Y-90478200D02*
X175074500Y-92278200D01*
X174024500Y-91378200D02*
X173424500Y-91778200D01*
X173424500Y-91778200D02*
X173424500Y-90978200D01*
X173424500Y-90978200D02*
X174024500Y-91378200D01*
X173424500Y-91378200D02*
X172924500Y-91378200D01*
X172274500Y-90478200D02*
X175074500Y-90478200D01*
X174024500Y-91378200D02*
X174024500Y-90828200D01*
X175074500Y-92278200D02*
X172274500Y-92278200D01*
%TD*%
M02*
