%TF.GenerationSoftware,KiCad,Pcbnew,(6.0.1-0)*%
%TF.CreationDate,2022-12-01T23:09:06-06:00*%
%TF.ProjectId,tackle_sensor_hardware,7461636b-6c65-45f7-9365-6e736f725f68,rev?*%
%TF.SameCoordinates,Original*%
%TF.FileFunction,Legend,Top*%
%TF.FilePolarity,Positive*%
%FSLAX46Y46*%
G04 Gerber Fmt 4.6, Leading zero omitted, Abs format (unit mm)*
G04 Created by KiCad (PCBNEW (6.0.1-0)) date 2022-12-01 23:09:06*
%MOMM*%
%LPD*%
G01*
G04 APERTURE LIST*
G04 Aperture macros list*
%AMRoundRect*
0 Rectangle with rounded corners*
0 $1 Rounding radius*
0 $2 $3 $4 $5 $6 $7 $8 $9 X,Y pos of 4 corners*
0 Add a 4 corners polygon primitive as box body*
4,1,4,$2,$3,$4,$5,$6,$7,$8,$9,$2,$3,0*
0 Add four circle primitives for the rounded corners*
1,1,$1+$1,$2,$3*
1,1,$1+$1,$4,$5*
1,1,$1+$1,$6,$7*
1,1,$1+$1,$8,$9*
0 Add four rect primitives between the rounded corners*
20,1,$1+$1,$2,$3,$4,$5,0*
20,1,$1+$1,$4,$5,$6,$7,0*
20,1,$1+$1,$6,$7,$8,$9,0*
20,1,$1+$1,$8,$9,$2,$3,0*%
G04 Aperture macros list end*
%ADD10C,0.155000*%
%ADD11C,0.150000*%
%ADD12C,0.120000*%
%ADD13RoundRect,0.200000X-0.275000X0.200000X-0.275000X-0.200000X0.275000X-0.200000X0.275000X0.200000X0*%
%ADD14RoundRect,0.250000X-0.725000X0.600000X-0.725000X-0.600000X0.725000X-0.600000X0.725000X0.600000X0*%
%ADD15O,1.950000X1.700000*%
%ADD16R,0.450000X1.450000*%
%ADD17C,3.200000*%
%ADD18RoundRect,0.135000X-0.135000X-0.185000X0.135000X-0.185000X0.135000X0.185000X-0.135000X0.185000X0*%
%ADD19R,0.760000X2.400000*%
%ADD20C,1.000000*%
%ADD21RoundRect,0.250000X0.312500X0.625000X-0.312500X0.625000X-0.312500X-0.625000X0.312500X-0.625000X0*%
%ADD22R,0.700000X1.200000*%
%ADD23RoundRect,0.225000X0.225000X0.250000X-0.225000X0.250000X-0.225000X-0.250000X0.225000X-0.250000X0*%
%ADD24RoundRect,0.250000X0.312500X1.075000X-0.312500X1.075000X-0.312500X-1.075000X0.312500X-1.075000X0*%
%ADD25R,0.350000X0.375000*%
%ADD26R,0.375000X0.350000*%
%ADD27RoundRect,0.225000X-0.225000X-0.250000X0.225000X-0.250000X0.225000X0.250000X-0.225000X0.250000X0*%
%ADD28RoundRect,0.250000X0.750000X-0.600000X0.750000X0.600000X-0.750000X0.600000X-0.750000X-0.600000X0*%
%ADD29O,2.000000X1.700000*%
%ADD30RoundRect,0.200000X0.200000X0.275000X-0.200000X0.275000X-0.200000X-0.275000X0.200000X-0.275000X0*%
%ADD31RoundRect,0.250000X0.250000X0.475000X-0.250000X0.475000X-0.250000X-0.475000X0.250000X-0.475000X0*%
%ADD32RoundRect,0.250000X1.500000X0.550000X-1.500000X0.550000X-1.500000X-0.550000X1.500000X-0.550000X0*%
%ADD33RoundRect,0.135000X-0.185000X0.135000X-0.185000X-0.135000X0.185000X-0.135000X0.185000X0.135000X0*%
%ADD34C,0.254000*%
%ADD35RoundRect,0.250000X0.550000X-1.500000X0.550000X1.500000X-0.550000X1.500000X-0.550000X-1.500000X0*%
%ADD36R,1.550000X1.300000*%
%ADD37RoundRect,0.100000X0.637500X0.100000X-0.637500X0.100000X-0.637500X-0.100000X0.637500X-0.100000X0*%
%ADD38RoundRect,0.150000X-0.825000X-0.150000X0.825000X-0.150000X0.825000X0.150000X-0.825000X0.150000X0*%
%ADD39RoundRect,0.135000X0.135000X0.185000X-0.135000X0.185000X-0.135000X-0.185000X0.135000X-0.185000X0*%
%ADD40R,1.955800X2.362200*%
%ADD41R,1.200000X2.200000*%
%ADD42R,5.800000X6.400000*%
%ADD43RoundRect,0.140000X0.170000X-0.140000X0.170000X0.140000X-0.170000X0.140000X-0.170000X-0.140000X0*%
%ADD44RoundRect,0.140000X-0.140000X-0.170000X0.140000X-0.170000X0.140000X0.170000X-0.140000X0.170000X0*%
%ADD45RoundRect,0.218750X0.218750X0.256250X-0.218750X0.256250X-0.218750X-0.256250X0.218750X-0.256250X0*%
%ADD46R,1.500000X2.000000*%
%ADD47R,3.800000X2.000000*%
%ADD48RoundRect,0.250000X-0.250000X-0.475000X0.250000X-0.475000X0.250000X0.475000X-0.250000X0.475000X0*%
%ADD49R,2.200000X1.200000*%
%ADD50R,6.400000X5.800000*%
%ADD51R,0.900000X1.200000*%
%ADD52R,1.000000X0.800000*%
%ADD53RoundRect,0.250000X-0.312500X-1.075000X0.312500X-1.075000X0.312500X1.075000X-0.312500X1.075000X0*%
%ADD54RoundRect,0.250000X0.475000X-0.250000X0.475000X0.250000X-0.475000X0.250000X-0.475000X-0.250000X0*%
%ADD55R,1.100000X1.100000*%
G04 APERTURE END LIST*
D10*
X126898400Y-86817200D02*
X125577600Y-86817200D01*
X159969200Y-104038400D02*
X158546800Y-104038400D01*
X125577600Y-86817200D02*
X125069600Y-87833200D01*
X155600400Y-107543600D02*
X155905200Y-107315000D01*
X158546800Y-104038400D02*
X158191200Y-104648000D01*
X155600400Y-110236000D02*
X155600400Y-107543600D01*
X159867600Y-102565200D02*
X157886400Y-102565200D01*
D11*
X151034952Y-126039571D02*
X150701619Y-126039571D01*
X150701619Y-126563380D02*
X150701619Y-125563380D01*
X151177809Y-125563380D01*
X151511142Y-126277666D02*
X151987333Y-126277666D01*
X151415904Y-126563380D02*
X151749238Y-125563380D01*
X152082571Y-126563380D01*
X152892095Y-126563380D02*
X152415904Y-126563380D01*
X152415904Y-125563380D01*
X153177809Y-126515761D02*
X153320666Y-126563380D01*
X153558761Y-126563380D01*
X153654000Y-126515761D01*
X153701619Y-126468142D01*
X153749238Y-126372904D01*
X153749238Y-126277666D01*
X153701619Y-126182428D01*
X153654000Y-126134809D01*
X153558761Y-126087190D01*
X153368285Y-126039571D01*
X153273047Y-125991952D01*
X153225428Y-125944333D01*
X153177809Y-125849095D01*
X153177809Y-125753857D01*
X153225428Y-125658619D01*
X153273047Y-125611000D01*
X153368285Y-125563380D01*
X153606380Y-125563380D01*
X153749238Y-125611000D01*
X154177809Y-126039571D02*
X154511142Y-126039571D01*
X154654000Y-126563380D02*
X154177809Y-126563380D01*
X154177809Y-125563380D01*
X154654000Y-125563380D01*
X159026266Y-111364780D02*
X159645314Y-111364780D01*
X159311980Y-111745733D01*
X159454838Y-111745733D01*
X159550076Y-111793352D01*
X159597695Y-111840971D01*
X159645314Y-111936209D01*
X159645314Y-112174304D01*
X159597695Y-112269542D01*
X159550076Y-112317161D01*
X159454838Y-112364780D01*
X159169123Y-112364780D01*
X159073885Y-112317161D01*
X159026266Y-112269542D01*
X124228266Y-100493580D02*
X124847314Y-100493580D01*
X124513980Y-100874533D01*
X124656838Y-100874533D01*
X124752076Y-100922152D01*
X124799695Y-100969771D01*
X124847314Y-101065009D01*
X124847314Y-101303104D01*
X124799695Y-101398342D01*
X124752076Y-101445961D01*
X124656838Y-101493580D01*
X124371123Y-101493580D01*
X124275885Y-101445961D01*
X124228266Y-101398342D01*
X132067276Y-100928514D02*
X132067276Y-101595180D01*
X131829180Y-100547561D02*
X131591085Y-101261847D01*
X132210133Y-101261847D01*
X158921485Y-83520019D02*
X158969104Y-83472400D01*
X159064342Y-83424780D01*
X159302438Y-83424780D01*
X159397676Y-83472400D01*
X159445295Y-83520019D01*
X159492914Y-83615257D01*
X159492914Y-83710495D01*
X159445295Y-83853352D01*
X158873866Y-84424780D01*
X159492914Y-84424780D01*
X139843095Y-125563380D02*
X140414523Y-125563380D01*
X140128809Y-126563380D02*
X140128809Y-125563380D01*
X141319285Y-126563380D02*
X140985952Y-126087190D01*
X140747857Y-126563380D02*
X140747857Y-125563380D01*
X141128809Y-125563380D01*
X141224047Y-125611000D01*
X141271666Y-125658619D01*
X141319285Y-125753857D01*
X141319285Y-125896714D01*
X141271666Y-125991952D01*
X141224047Y-126039571D01*
X141128809Y-126087190D01*
X140747857Y-126087190D01*
X141747857Y-125563380D02*
X141747857Y-126372904D01*
X141795476Y-126468142D01*
X141843095Y-126515761D01*
X141938333Y-126563380D01*
X142128809Y-126563380D01*
X142224047Y-126515761D01*
X142271666Y-126468142D01*
X142319285Y-126372904D01*
X142319285Y-125563380D01*
X142795476Y-126039571D02*
X143128809Y-126039571D01*
X143271666Y-126563380D02*
X142795476Y-126563380D01*
X142795476Y-125563380D01*
X143271666Y-125563380D01*
X160320604Y-116901580D02*
X159749176Y-116901580D01*
X160034890Y-116901580D02*
X160034890Y-115901580D01*
X159939652Y-116044438D01*
X159844414Y-116139676D01*
X159749176Y-116187295D01*
X160749176Y-116806342D02*
X160796795Y-116853961D01*
X160749176Y-116901580D01*
X160701557Y-116853961D01*
X160749176Y-116806342D01*
X160749176Y-116901580D01*
X161225366Y-115901580D02*
X161225366Y-116711104D01*
X161272985Y-116806342D01*
X161320604Y-116853961D01*
X161415842Y-116901580D01*
X161606319Y-116901580D01*
X161701557Y-116853961D01*
X161749176Y-116806342D01*
X161796795Y-116711104D01*
X161796795Y-115901580D01*
X162225366Y-116615866D02*
X162701557Y-116615866D01*
X162130128Y-116901580D02*
X162463461Y-115901580D01*
X162796795Y-116901580D01*
X163701557Y-116901580D02*
X163368223Y-116425390D01*
X163130128Y-116901580D02*
X163130128Y-115901580D01*
X163511080Y-115901580D01*
X163606319Y-115949200D01*
X163653938Y-115996819D01*
X163701557Y-116092057D01*
X163701557Y-116234914D01*
X163653938Y-116330152D01*
X163606319Y-116377771D01*
X163511080Y-116425390D01*
X163130128Y-116425390D01*
X163987271Y-115901580D02*
X164558700Y-115901580D01*
X164272985Y-116901580D02*
X164272985Y-115901580D01*
X165511080Y-115901580D02*
X166082509Y-115901580D01*
X165796795Y-116901580D02*
X165796795Y-115901580D01*
X166320604Y-115901580D02*
X166987271Y-116901580D01*
X166987271Y-115901580D02*
X166320604Y-116901580D01*
X159749176Y-117606819D02*
X159796795Y-117559200D01*
X159892033Y-117511580D01*
X160130128Y-117511580D01*
X160225366Y-117559200D01*
X160272985Y-117606819D01*
X160320604Y-117702057D01*
X160320604Y-117797295D01*
X160272985Y-117940152D01*
X159701557Y-118511580D01*
X160320604Y-118511580D01*
X160749176Y-118416342D02*
X160796795Y-118463961D01*
X160749176Y-118511580D01*
X160701557Y-118463961D01*
X160749176Y-118416342D01*
X160749176Y-118511580D01*
X161177747Y-118463961D02*
X161320604Y-118511580D01*
X161558700Y-118511580D01*
X161653938Y-118463961D01*
X161701557Y-118416342D01*
X161749176Y-118321104D01*
X161749176Y-118225866D01*
X161701557Y-118130628D01*
X161653938Y-118083009D01*
X161558700Y-118035390D01*
X161368223Y-117987771D01*
X161272985Y-117940152D01*
X161225366Y-117892533D01*
X161177747Y-117797295D01*
X161177747Y-117702057D01*
X161225366Y-117606819D01*
X161272985Y-117559200D01*
X161368223Y-117511580D01*
X161606319Y-117511580D01*
X161749176Y-117559200D01*
X162034890Y-117511580D02*
X162606319Y-117511580D01*
X162320604Y-118511580D02*
X162320604Y-117511580D01*
X162892033Y-118225866D02*
X163368223Y-118225866D01*
X162796795Y-118511580D02*
X163130128Y-117511580D01*
X163463461Y-118511580D01*
X163653938Y-117511580D02*
X164225366Y-117511580D01*
X163939652Y-118511580D02*
X163939652Y-117511580D01*
X164558700Y-117511580D02*
X164558700Y-118321104D01*
X164606319Y-118416342D01*
X164653938Y-118463961D01*
X164749176Y-118511580D01*
X164939652Y-118511580D01*
X165034890Y-118463961D01*
X165082509Y-118416342D01*
X165130128Y-118321104D01*
X165130128Y-117511580D01*
X165558700Y-118463961D02*
X165701557Y-118511580D01*
X165939652Y-118511580D01*
X166034890Y-118463961D01*
X166082509Y-118416342D01*
X166130128Y-118321104D01*
X166130128Y-118225866D01*
X166082509Y-118130628D01*
X166034890Y-118083009D01*
X165939652Y-118035390D01*
X165749176Y-117987771D01*
X165653938Y-117940152D01*
X165606319Y-117892533D01*
X165558700Y-117797295D01*
X165558700Y-117702057D01*
X165606319Y-117606819D01*
X165653938Y-117559200D01*
X165749176Y-117511580D01*
X165987271Y-117511580D01*
X166130128Y-117559200D01*
X159701557Y-119121580D02*
X160320604Y-119121580D01*
X159987271Y-119502533D01*
X160130128Y-119502533D01*
X160225366Y-119550152D01*
X160272985Y-119597771D01*
X160320604Y-119693009D01*
X160320604Y-119931104D01*
X160272985Y-120026342D01*
X160225366Y-120073961D01*
X160130128Y-120121580D01*
X159844414Y-120121580D01*
X159749176Y-120073961D01*
X159701557Y-120026342D01*
X160749176Y-120026342D02*
X160796795Y-120073961D01*
X160749176Y-120121580D01*
X160701557Y-120073961D01*
X160749176Y-120026342D01*
X160749176Y-120121580D01*
X161749176Y-119169200D02*
X161653938Y-119121580D01*
X161511080Y-119121580D01*
X161368223Y-119169200D01*
X161272985Y-119264438D01*
X161225366Y-119359676D01*
X161177747Y-119550152D01*
X161177747Y-119693009D01*
X161225366Y-119883485D01*
X161272985Y-119978723D01*
X161368223Y-120073961D01*
X161511080Y-120121580D01*
X161606319Y-120121580D01*
X161749176Y-120073961D01*
X161796795Y-120026342D01*
X161796795Y-119693009D01*
X161606319Y-119693009D01*
X162225366Y-120121580D02*
X162225366Y-119121580D01*
X162796795Y-120121580D01*
X162796795Y-119121580D01*
X163272985Y-120121580D02*
X163272985Y-119121580D01*
X163511080Y-119121580D01*
X163653938Y-119169200D01*
X163749176Y-119264438D01*
X163796795Y-119359676D01*
X163844414Y-119550152D01*
X163844414Y-119693009D01*
X163796795Y-119883485D01*
X163749176Y-119978723D01*
X163653938Y-120073961D01*
X163511080Y-120121580D01*
X163272985Y-120121580D01*
X140843857Y-128071571D02*
X141177190Y-128071571D01*
X141320047Y-128595380D02*
X140843857Y-128595380D01*
X140843857Y-127595380D01*
X141320047Y-127595380D01*
X142224809Y-128595380D02*
X141748619Y-128595380D01*
X141748619Y-127595380D01*
X142558142Y-128595380D02*
X142558142Y-127595380D01*
X143558142Y-127643000D02*
X143462904Y-127595380D01*
X143320047Y-127595380D01*
X143177190Y-127643000D01*
X143081952Y-127738238D01*
X143034333Y-127833476D01*
X142986714Y-128023952D01*
X142986714Y-128166809D01*
X143034333Y-128357285D01*
X143081952Y-128452523D01*
X143177190Y-128547761D01*
X143320047Y-128595380D01*
X143415285Y-128595380D01*
X143558142Y-128547761D01*
X143605761Y-128500142D01*
X143605761Y-128166809D01*
X143415285Y-128166809D01*
X144034333Y-128595380D02*
X144034333Y-127595380D01*
X144843857Y-128071571D02*
X144986714Y-128119190D01*
X145034333Y-128166809D01*
X145081952Y-128262047D01*
X145081952Y-128404904D01*
X145034333Y-128500142D01*
X144986714Y-128547761D01*
X144891476Y-128595380D01*
X144510523Y-128595380D01*
X144510523Y-127595380D01*
X144843857Y-127595380D01*
X144939095Y-127643000D01*
X144986714Y-127690619D01*
X145034333Y-127785857D01*
X145034333Y-127881095D01*
X144986714Y-127976333D01*
X144939095Y-128023952D01*
X144843857Y-128071571D01*
X144510523Y-128071571D01*
X145986714Y-128595380D02*
X145510523Y-128595380D01*
X145510523Y-127595380D01*
X146320047Y-128071571D02*
X146653380Y-128071571D01*
X146796238Y-128595380D02*
X146320047Y-128595380D01*
X146320047Y-127595380D01*
X146796238Y-127595380D01*
X148558142Y-128595380D02*
X148224809Y-128119190D01*
X147986714Y-128595380D02*
X147986714Y-127595380D01*
X148367666Y-127595380D01*
X148462904Y-127643000D01*
X148510523Y-127690619D01*
X148558142Y-127785857D01*
X148558142Y-127928714D01*
X148510523Y-128023952D01*
X148462904Y-128071571D01*
X148367666Y-128119190D01*
X147986714Y-128119190D01*
X148986714Y-128071571D02*
X149320047Y-128071571D01*
X149462904Y-128595380D02*
X148986714Y-128595380D01*
X148986714Y-127595380D01*
X149462904Y-127595380D01*
X150462904Y-128500142D02*
X150415285Y-128547761D01*
X150272428Y-128595380D01*
X150177190Y-128595380D01*
X150034333Y-128547761D01*
X149939095Y-128452523D01*
X149891476Y-128357285D01*
X149843857Y-128166809D01*
X149843857Y-128023952D01*
X149891476Y-127833476D01*
X149939095Y-127738238D01*
X150034333Y-127643000D01*
X150177190Y-127595380D01*
X150272428Y-127595380D01*
X150415285Y-127643000D01*
X150462904Y-127690619D01*
X150891476Y-128071571D02*
X151224809Y-128071571D01*
X151367666Y-128595380D02*
X150891476Y-128595380D01*
X150891476Y-127595380D01*
X151367666Y-127595380D01*
X151796238Y-128595380D02*
X151796238Y-127595380D01*
X152129571Y-127595380D02*
X152462904Y-128595380D01*
X152796238Y-127595380D01*
X153129571Y-128071571D02*
X153462904Y-128071571D01*
X153605761Y-128595380D02*
X153129571Y-128595380D01*
X153129571Y-127595380D01*
X153605761Y-127595380D01*
X154605761Y-128595380D02*
X154272428Y-128119190D01*
X154034333Y-128595380D02*
X154034333Y-127595380D01*
X154415285Y-127595380D01*
X154510523Y-127643000D01*
X154558142Y-127690619D01*
X154605761Y-127785857D01*
X154605761Y-127928714D01*
X154558142Y-128023952D01*
X154510523Y-128071571D01*
X154415285Y-128119190D01*
X154034333Y-128119190D01*
X158873866Y-85964780D02*
X159492914Y-85964780D01*
X159159580Y-86345733D01*
X159302438Y-86345733D01*
X159397676Y-86393352D01*
X159445295Y-86440971D01*
X159492914Y-86536209D01*
X159492914Y-86774304D01*
X159445295Y-86869542D01*
X159397676Y-86917161D01*
X159302438Y-86964780D01*
X159016723Y-86964780D01*
X158921485Y-86917161D01*
X158873866Y-86869542D01*
X159397676Y-88838114D02*
X159397676Y-89504780D01*
X159159580Y-88457161D02*
X158921485Y-89171447D01*
X159540533Y-89171447D01*
X159492914Y-81884780D02*
X158921485Y-81884780D01*
X159207200Y-81884780D02*
X159207200Y-80884780D01*
X159111961Y-81027638D01*
X159016723Y-81122876D01*
X158921485Y-81170495D01*
X124021885Y-90733619D02*
X124069504Y-90686000D01*
X124164742Y-90638380D01*
X124402838Y-90638380D01*
X124498076Y-90686000D01*
X124545695Y-90733619D01*
X124593314Y-90828857D01*
X124593314Y-90924095D01*
X124545695Y-91066952D01*
X123974266Y-91638380D01*
X124593314Y-91638380D01*
X129158952Y-117319571D02*
X128397047Y-117319571D01*
X129158952Y-115709571D02*
X128397047Y-115709571D01*
X128778000Y-115328619D02*
X128778000Y-116090523D01*
X161539804Y-93896980D02*
X160968376Y-93896980D01*
X161254090Y-93896980D02*
X161254090Y-92896980D01*
X161158852Y-93039838D01*
X161063614Y-93135076D01*
X160968376Y-93182695D01*
X161968376Y-93801742D02*
X162015995Y-93849361D01*
X161968376Y-93896980D01*
X161920757Y-93849361D01*
X161968376Y-93801742D01*
X161968376Y-93896980D01*
X162444566Y-93516028D02*
X163206471Y-93516028D01*
X162825519Y-93896980D02*
X162825519Y-93135076D01*
X164206471Y-93896980D02*
X163635042Y-93896980D01*
X163920757Y-93896980D02*
X163920757Y-92896980D01*
X163825519Y-93039838D01*
X163730280Y-93135076D01*
X163635042Y-93182695D01*
X164587423Y-92992219D02*
X164635042Y-92944600D01*
X164730280Y-92896980D01*
X164968376Y-92896980D01*
X165063614Y-92944600D01*
X165111233Y-92992219D01*
X165158852Y-93087457D01*
X165158852Y-93182695D01*
X165111233Y-93325552D01*
X164539804Y-93896980D01*
X165158852Y-93896980D01*
X165444566Y-92896980D02*
X165777900Y-93896980D01*
X166111233Y-92896980D01*
X160968376Y-94602219D02*
X161015995Y-94554600D01*
X161111233Y-94506980D01*
X161349328Y-94506980D01*
X161444566Y-94554600D01*
X161492185Y-94602219D01*
X161539804Y-94697457D01*
X161539804Y-94792695D01*
X161492185Y-94935552D01*
X160920757Y-95506980D01*
X161539804Y-95506980D01*
X161968376Y-95411742D02*
X162015995Y-95459361D01*
X161968376Y-95506980D01*
X161920757Y-95459361D01*
X161968376Y-95411742D01*
X161968376Y-95506980D01*
X163015995Y-95506980D02*
X162682661Y-95030790D01*
X162444566Y-95506980D02*
X162444566Y-94506980D01*
X162825519Y-94506980D01*
X162920757Y-94554600D01*
X162968376Y-94602219D01*
X163015995Y-94697457D01*
X163015995Y-94840314D01*
X162968376Y-94935552D01*
X162920757Y-94983171D01*
X162825519Y-95030790D01*
X162444566Y-95030790D01*
X163444566Y-94983171D02*
X163777900Y-94983171D01*
X163920757Y-95506980D02*
X163444566Y-95506980D01*
X163444566Y-94506980D01*
X163920757Y-94506980D01*
X164349328Y-95506980D02*
X164349328Y-94506980D01*
X164587423Y-94506980D01*
X164730280Y-94554600D01*
X164825519Y-94649838D01*
X164873138Y-94745076D01*
X164920757Y-94935552D01*
X164920757Y-95078409D01*
X164873138Y-95268885D01*
X164825519Y-95364123D01*
X164730280Y-95459361D01*
X164587423Y-95506980D01*
X164349328Y-95506980D01*
X160920757Y-96116980D02*
X161539804Y-96116980D01*
X161206471Y-96497933D01*
X161349328Y-96497933D01*
X161444566Y-96545552D01*
X161492185Y-96593171D01*
X161539804Y-96688409D01*
X161539804Y-96926504D01*
X161492185Y-97021742D01*
X161444566Y-97069361D01*
X161349328Y-97116980D01*
X161063614Y-97116980D01*
X160968376Y-97069361D01*
X160920757Y-97021742D01*
X161968376Y-97021742D02*
X162015995Y-97069361D01*
X161968376Y-97116980D01*
X161920757Y-97069361D01*
X161968376Y-97021742D01*
X161968376Y-97116980D01*
X162968376Y-96164600D02*
X162873138Y-96116980D01*
X162730280Y-96116980D01*
X162587423Y-96164600D01*
X162492185Y-96259838D01*
X162444566Y-96355076D01*
X162396947Y-96545552D01*
X162396947Y-96688409D01*
X162444566Y-96878885D01*
X162492185Y-96974123D01*
X162587423Y-97069361D01*
X162730280Y-97116980D01*
X162825519Y-97116980D01*
X162968376Y-97069361D01*
X163015995Y-97021742D01*
X163015995Y-96688409D01*
X162825519Y-96688409D01*
X164015995Y-97116980D02*
X163682661Y-96640790D01*
X163444566Y-97116980D02*
X163444566Y-96116980D01*
X163825519Y-96116980D01*
X163920757Y-96164600D01*
X163968376Y-96212219D01*
X164015995Y-96307457D01*
X164015995Y-96450314D01*
X163968376Y-96545552D01*
X163920757Y-96593171D01*
X163825519Y-96640790D01*
X163444566Y-96640790D01*
X164444566Y-96593171D02*
X164777900Y-96593171D01*
X164920757Y-97116980D02*
X164444566Y-97116980D01*
X164444566Y-96116980D01*
X164920757Y-96116980D01*
X165349328Y-96593171D02*
X165682661Y-96593171D01*
X165825519Y-97116980D02*
X165349328Y-97116980D01*
X165349328Y-96116980D01*
X165825519Y-96116980D01*
X166254090Y-97116980D02*
X166254090Y-96116980D01*
X166825519Y-97116980D01*
X166825519Y-96116980D01*
X161444566Y-98060314D02*
X161444566Y-98726980D01*
X161206471Y-97679361D02*
X160968376Y-98393647D01*
X161587423Y-98393647D01*
X161968376Y-98631742D02*
X162015995Y-98679361D01*
X161968376Y-98726980D01*
X161920757Y-98679361D01*
X161968376Y-98631742D01*
X161968376Y-98726980D01*
X162777900Y-98203171D02*
X162920757Y-98250790D01*
X162968376Y-98298409D01*
X163015995Y-98393647D01*
X163015995Y-98536504D01*
X162968376Y-98631742D01*
X162920757Y-98679361D01*
X162825519Y-98726980D01*
X162444566Y-98726980D01*
X162444566Y-97726980D01*
X162777900Y-97726980D01*
X162873138Y-97774600D01*
X162920757Y-97822219D01*
X162968376Y-97917457D01*
X162968376Y-98012695D01*
X162920757Y-98107933D01*
X162873138Y-98155552D01*
X162777900Y-98203171D01*
X162444566Y-98203171D01*
X163920757Y-98726980D02*
X163444566Y-98726980D01*
X163444566Y-97726980D01*
X164254090Y-97726980D02*
X164254090Y-98536504D01*
X164301709Y-98631742D01*
X164349328Y-98679361D01*
X164444566Y-98726980D01*
X164635042Y-98726980D01*
X164730280Y-98679361D01*
X164777900Y-98631742D01*
X164825519Y-98536504D01*
X164825519Y-97726980D01*
X165301709Y-98203171D02*
X165635042Y-98203171D01*
X165777900Y-98726980D02*
X165301709Y-98726980D01*
X165301709Y-97726980D01*
X165777900Y-97726980D01*
X132314914Y-91536780D02*
X131743485Y-91536780D01*
X132029200Y-91536780D02*
X132029200Y-90536780D01*
X131933961Y-90679638D01*
X131838723Y-90774876D01*
X131743485Y-90822495D01*
X159073885Y-108920019D02*
X159121504Y-108872400D01*
X159216742Y-108824780D01*
X159454838Y-108824780D01*
X159550076Y-108872400D01*
X159597695Y-108920019D01*
X159645314Y-109015257D01*
X159645314Y-109110495D01*
X159597695Y-109253352D01*
X159026266Y-109824780D01*
X159645314Y-109824780D01*
X159645314Y-107284780D02*
X159073885Y-107284780D01*
X159359600Y-107284780D02*
X159359600Y-106284780D01*
X159264361Y-106427638D01*
X159169123Y-106522876D01*
X159073885Y-106570495D01*
%TO.C,R14*%
X145646380Y-76042257D02*
X145170190Y-76375590D01*
X145646380Y-76613685D02*
X144646380Y-76613685D01*
X144646380Y-76232733D01*
X144694000Y-76137495D01*
X144741619Y-76089876D01*
X144836857Y-76042257D01*
X144979714Y-76042257D01*
X145074952Y-76089876D01*
X145122571Y-76137495D01*
X145170190Y-76232733D01*
X145170190Y-76613685D01*
X145646380Y-75089876D02*
X145646380Y-75661304D01*
X145646380Y-75375590D02*
X144646380Y-75375590D01*
X144789238Y-75470828D01*
X144884476Y-75566066D01*
X144932095Y-75661304D01*
X144979714Y-74232733D02*
X145646380Y-74232733D01*
X144598761Y-74470828D02*
X145313047Y-74708923D01*
X145313047Y-74089876D01*
%TO.C,J3*%
X165418666Y-102565580D02*
X165418666Y-103279866D01*
X165371047Y-103422723D01*
X165275809Y-103517961D01*
X165132952Y-103565580D01*
X165037714Y-103565580D01*
X165799619Y-102565580D02*
X166418666Y-102565580D01*
X166085333Y-102946533D01*
X166228190Y-102946533D01*
X166323428Y-102994152D01*
X166371047Y-103041771D01*
X166418666Y-103137009D01*
X166418666Y-103375104D01*
X166371047Y-103470342D01*
X166323428Y-103517961D01*
X166228190Y-103565580D01*
X165942476Y-103565580D01*
X165847238Y-103517961D01*
X165799619Y-103470342D01*
%TO.C,U2*%
X121412095Y-78090780D02*
X121412095Y-78900304D01*
X121459714Y-78995542D01*
X121507333Y-79043161D01*
X121602571Y-79090780D01*
X121793047Y-79090780D01*
X121888285Y-79043161D01*
X121935904Y-78995542D01*
X121983523Y-78900304D01*
X121983523Y-78090780D01*
X122412095Y-78186019D02*
X122459714Y-78138400D01*
X122554952Y-78090780D01*
X122793047Y-78090780D01*
X122888285Y-78138400D01*
X122935904Y-78186019D01*
X122983523Y-78281257D01*
X122983523Y-78376495D01*
X122935904Y-78519352D01*
X122364476Y-79090780D01*
X122983523Y-79090780D01*
%TO.C,R16*%
X157221180Y-111183657D02*
X156744990Y-111516990D01*
X157221180Y-111755085D02*
X156221180Y-111755085D01*
X156221180Y-111374133D01*
X156268800Y-111278895D01*
X156316419Y-111231276D01*
X156411657Y-111183657D01*
X156554514Y-111183657D01*
X156649752Y-111231276D01*
X156697371Y-111278895D01*
X156744990Y-111374133D01*
X156744990Y-111755085D01*
X157221180Y-110231276D02*
X157221180Y-110802704D01*
X157221180Y-110516990D02*
X156221180Y-110516990D01*
X156364038Y-110612228D01*
X156459276Y-110707466D01*
X156506895Y-110802704D01*
X156221180Y-109374133D02*
X156221180Y-109564609D01*
X156268800Y-109659847D01*
X156316419Y-109707466D01*
X156459276Y-109802704D01*
X156649752Y-109850323D01*
X157030704Y-109850323D01*
X157125942Y-109802704D01*
X157173561Y-109755085D01*
X157221180Y-109659847D01*
X157221180Y-109469371D01*
X157173561Y-109374133D01*
X157125942Y-109326514D01*
X157030704Y-109278895D01*
X156792609Y-109278895D01*
X156697371Y-109326514D01*
X156649752Y-109374133D01*
X156602133Y-109469371D01*
X156602133Y-109659847D01*
X156649752Y-109755085D01*
X156697371Y-109802704D01*
X156792609Y-109850323D01*
%TO.C,J1*%
X139366666Y-118019580D02*
X139366666Y-118733866D01*
X139319047Y-118876723D01*
X139223809Y-118971961D01*
X139080952Y-119019580D01*
X138985714Y-119019580D01*
X140366666Y-119019580D02*
X139795238Y-119019580D01*
X140080952Y-119019580D02*
X140080952Y-118019580D01*
X139985714Y-118162438D01*
X139890476Y-118257676D01*
X139795238Y-118305295D01*
%TO.C,TP1*%
X133866095Y-109383380D02*
X134437523Y-109383380D01*
X134151809Y-110383380D02*
X134151809Y-109383380D01*
X134770857Y-110383380D02*
X134770857Y-109383380D01*
X135151809Y-109383380D01*
X135247047Y-109431000D01*
X135294666Y-109478619D01*
X135342285Y-109573857D01*
X135342285Y-109716714D01*
X135294666Y-109811952D01*
X135247047Y-109859571D01*
X135151809Y-109907190D01*
X134770857Y-109907190D01*
X136294666Y-110383380D02*
X135723238Y-110383380D01*
X136008952Y-110383380D02*
X136008952Y-109383380D01*
X135913714Y-109526238D01*
X135818476Y-109621476D01*
X135723238Y-109669095D01*
%TO.C,R7*%
X132298333Y-76296780D02*
X131965000Y-75820590D01*
X131726904Y-76296780D02*
X131726904Y-75296780D01*
X132107857Y-75296780D01*
X132203095Y-75344400D01*
X132250714Y-75392019D01*
X132298333Y-75487257D01*
X132298333Y-75630114D01*
X132250714Y-75725352D01*
X132203095Y-75772971D01*
X132107857Y-75820590D01*
X131726904Y-75820590D01*
X132631666Y-75296780D02*
X133298333Y-75296780D01*
X132869761Y-76296780D01*
%TO.C,R1*%
X136485333Y-114879380D02*
X136152000Y-114403190D01*
X135913904Y-114879380D02*
X135913904Y-113879380D01*
X136294857Y-113879380D01*
X136390095Y-113927000D01*
X136437714Y-113974619D01*
X136485333Y-114069857D01*
X136485333Y-114212714D01*
X136437714Y-114307952D01*
X136390095Y-114355571D01*
X136294857Y-114403190D01*
X135913904Y-114403190D01*
X137437714Y-114879380D02*
X136866285Y-114879380D01*
X137152000Y-114879380D02*
X137152000Y-113879380D01*
X137056761Y-114022238D01*
X136961523Y-114117476D01*
X136866285Y-114165095D01*
%TO.C,SW2*%
X145605666Y-124737761D02*
X145748523Y-124785380D01*
X145986619Y-124785380D01*
X146081857Y-124737761D01*
X146129476Y-124690142D01*
X146177095Y-124594904D01*
X146177095Y-124499666D01*
X146129476Y-124404428D01*
X146081857Y-124356809D01*
X145986619Y-124309190D01*
X145796142Y-124261571D01*
X145700904Y-124213952D01*
X145653285Y-124166333D01*
X145605666Y-124071095D01*
X145605666Y-123975857D01*
X145653285Y-123880619D01*
X145700904Y-123833000D01*
X145796142Y-123785380D01*
X146034238Y-123785380D01*
X146177095Y-123833000D01*
X146510428Y-123785380D02*
X146748523Y-124785380D01*
X146939000Y-124071095D01*
X147129476Y-124785380D01*
X147367571Y-123785380D01*
X147700904Y-123880619D02*
X147748523Y-123833000D01*
X147843761Y-123785380D01*
X148081857Y-123785380D01*
X148177095Y-123833000D01*
X148224714Y-123880619D01*
X148272333Y-123975857D01*
X148272333Y-124071095D01*
X148224714Y-124213952D01*
X147653285Y-124785380D01*
X148272333Y-124785380D01*
%TO.C,C11*%
X154868942Y-115825542D02*
X154821323Y-115873161D01*
X154678466Y-115920780D01*
X154583228Y-115920780D01*
X154440371Y-115873161D01*
X154345133Y-115777923D01*
X154297514Y-115682685D01*
X154249895Y-115492209D01*
X154249895Y-115349352D01*
X154297514Y-115158876D01*
X154345133Y-115063638D01*
X154440371Y-114968400D01*
X154583228Y-114920780D01*
X154678466Y-114920780D01*
X154821323Y-114968400D01*
X154868942Y-115016019D01*
X155821323Y-115920780D02*
X155249895Y-115920780D01*
X155535609Y-115920780D02*
X155535609Y-114920780D01*
X155440371Y-115063638D01*
X155345133Y-115158876D01*
X155249895Y-115206495D01*
X156773704Y-115920780D02*
X156202276Y-115920780D01*
X156487990Y-115920780D02*
X156487990Y-114920780D01*
X156392752Y-115063638D01*
X156297514Y-115158876D01*
X156202276Y-115206495D01*
%TO.C,R19*%
X153829242Y-88990780D02*
X153495909Y-88514590D01*
X153257814Y-88990780D02*
X153257814Y-87990780D01*
X153638766Y-87990780D01*
X153734004Y-88038400D01*
X153781623Y-88086019D01*
X153829242Y-88181257D01*
X153829242Y-88324114D01*
X153781623Y-88419352D01*
X153734004Y-88466971D01*
X153638766Y-88514590D01*
X153257814Y-88514590D01*
X154781623Y-88990780D02*
X154210195Y-88990780D01*
X154495909Y-88990780D02*
X154495909Y-87990780D01*
X154400671Y-88133638D01*
X154305433Y-88228876D01*
X154210195Y-88276495D01*
X155257814Y-88990780D02*
X155448290Y-88990780D01*
X155543528Y-88943161D01*
X155591147Y-88895542D01*
X155686385Y-88752685D01*
X155734004Y-88562209D01*
X155734004Y-88181257D01*
X155686385Y-88086019D01*
X155638766Y-88038400D01*
X155543528Y-87990780D01*
X155353052Y-87990780D01*
X155257814Y-88038400D01*
X155210195Y-88086019D01*
X155162576Y-88181257D01*
X155162576Y-88419352D01*
X155210195Y-88514590D01*
X155257814Y-88562209D01*
X155353052Y-88609828D01*
X155543528Y-88609828D01*
X155638766Y-88562209D01*
X155686385Y-88514590D01*
X155734004Y-88419352D01*
%TO.C,R17*%
X153687542Y-84424780D02*
X153354209Y-83948590D01*
X153116114Y-84424780D02*
X153116114Y-83424780D01*
X153497066Y-83424780D01*
X153592304Y-83472400D01*
X153639923Y-83520019D01*
X153687542Y-83615257D01*
X153687542Y-83758114D01*
X153639923Y-83853352D01*
X153592304Y-83900971D01*
X153497066Y-83948590D01*
X153116114Y-83948590D01*
X154639923Y-84424780D02*
X154068495Y-84424780D01*
X154354209Y-84424780D02*
X154354209Y-83424780D01*
X154258971Y-83567638D01*
X154163733Y-83662876D01*
X154068495Y-83710495D01*
X154973257Y-83424780D02*
X155639923Y-83424780D01*
X155211352Y-84424780D01*
%TO.C,U3*%
X154007180Y-114045904D02*
X154816704Y-114045904D01*
X154911942Y-113998285D01*
X154959561Y-113950666D01*
X155007180Y-113855428D01*
X155007180Y-113664952D01*
X154959561Y-113569714D01*
X154911942Y-113522095D01*
X154816704Y-113474476D01*
X154007180Y-113474476D01*
X154007180Y-113093523D02*
X154007180Y-112474476D01*
X154388133Y-112807809D01*
X154388133Y-112664952D01*
X154435752Y-112569714D01*
X154483371Y-112522095D01*
X154578609Y-112474476D01*
X154816704Y-112474476D01*
X154911942Y-112522095D01*
X154959561Y-112569714D01*
X155007180Y-112664952D01*
X155007180Y-112950666D01*
X154959561Y-113045904D01*
X154911942Y-113093523D01*
%TO.C,C7*%
X158735733Y-102261942D02*
X158688114Y-102309561D01*
X158545257Y-102357180D01*
X158450019Y-102357180D01*
X158307161Y-102309561D01*
X158211923Y-102214323D01*
X158164304Y-102119085D01*
X158116685Y-101928609D01*
X158116685Y-101785752D01*
X158164304Y-101595276D01*
X158211923Y-101500038D01*
X158307161Y-101404800D01*
X158450019Y-101357180D01*
X158545257Y-101357180D01*
X158688114Y-101404800D01*
X158735733Y-101452419D01*
X159069066Y-101357180D02*
X159735733Y-101357180D01*
X159307161Y-102357180D01*
%TO.C,J2*%
X121730666Y-121011380D02*
X121730666Y-121725666D01*
X121683047Y-121868523D01*
X121587809Y-121963761D01*
X121444952Y-122011380D01*
X121349714Y-122011380D01*
X122159238Y-121106619D02*
X122206857Y-121059000D01*
X122302095Y-121011380D01*
X122540190Y-121011380D01*
X122635428Y-121059000D01*
X122683047Y-121106619D01*
X122730666Y-121201857D01*
X122730666Y-121297095D01*
X122683047Y-121439952D01*
X122111619Y-122011380D01*
X122730666Y-122011380D01*
%TO.C,R12*%
X157536142Y-124302780D02*
X157202809Y-123826590D01*
X156964714Y-124302780D02*
X156964714Y-123302780D01*
X157345666Y-123302780D01*
X157440904Y-123350400D01*
X157488523Y-123398019D01*
X157536142Y-123493257D01*
X157536142Y-123636114D01*
X157488523Y-123731352D01*
X157440904Y-123778971D01*
X157345666Y-123826590D01*
X156964714Y-123826590D01*
X158488523Y-124302780D02*
X157917095Y-124302780D01*
X158202809Y-124302780D02*
X158202809Y-123302780D01*
X158107571Y-123445638D01*
X158012333Y-123540876D01*
X157917095Y-123588495D01*
X158869476Y-123398019D02*
X158917095Y-123350400D01*
X159012333Y-123302780D01*
X159250428Y-123302780D01*
X159345666Y-123350400D01*
X159393285Y-123398019D01*
X159440904Y-123493257D01*
X159440904Y-123588495D01*
X159393285Y-123731352D01*
X158821857Y-124302780D01*
X159440904Y-124302780D01*
%TO.C,C3*%
X125817333Y-86463142D02*
X125769714Y-86510761D01*
X125626857Y-86558380D01*
X125531619Y-86558380D01*
X125388761Y-86510761D01*
X125293523Y-86415523D01*
X125245904Y-86320285D01*
X125198285Y-86129809D01*
X125198285Y-85986952D01*
X125245904Y-85796476D01*
X125293523Y-85701238D01*
X125388761Y-85606000D01*
X125531619Y-85558380D01*
X125626857Y-85558380D01*
X125769714Y-85606000D01*
X125817333Y-85653619D01*
X126150666Y-85558380D02*
X126769714Y-85558380D01*
X126436380Y-85939333D01*
X126579238Y-85939333D01*
X126674476Y-85986952D01*
X126722095Y-86034571D01*
X126769714Y-86129809D01*
X126769714Y-86367904D01*
X126722095Y-86463142D01*
X126674476Y-86510761D01*
X126579238Y-86558380D01*
X126293523Y-86558380D01*
X126198285Y-86510761D01*
X126150666Y-86463142D01*
%TO.C,C2*%
X130676333Y-106148142D02*
X130628714Y-106195761D01*
X130485857Y-106243380D01*
X130390619Y-106243380D01*
X130247761Y-106195761D01*
X130152523Y-106100523D01*
X130104904Y-106005285D01*
X130057285Y-105814809D01*
X130057285Y-105671952D01*
X130104904Y-105481476D01*
X130152523Y-105386238D01*
X130247761Y-105291000D01*
X130390619Y-105243380D01*
X130485857Y-105243380D01*
X130628714Y-105291000D01*
X130676333Y-105338619D01*
X131057285Y-105338619D02*
X131104904Y-105291000D01*
X131200142Y-105243380D01*
X131438238Y-105243380D01*
X131533476Y-105291000D01*
X131581095Y-105338619D01*
X131628714Y-105433857D01*
X131628714Y-105529095D01*
X131581095Y-105671952D01*
X131009666Y-106243380D01*
X131628714Y-106243380D01*
%TO.C,R3*%
X147416780Y-115279466D02*
X146940590Y-115612800D01*
X147416780Y-115850895D02*
X146416780Y-115850895D01*
X146416780Y-115469942D01*
X146464400Y-115374704D01*
X146512019Y-115327085D01*
X146607257Y-115279466D01*
X146750114Y-115279466D01*
X146845352Y-115327085D01*
X146892971Y-115374704D01*
X146940590Y-115469942D01*
X146940590Y-115850895D01*
X146416780Y-114946133D02*
X146416780Y-114327085D01*
X146797733Y-114660419D01*
X146797733Y-114517561D01*
X146845352Y-114422323D01*
X146892971Y-114374704D01*
X146988209Y-114327085D01*
X147226304Y-114327085D01*
X147321542Y-114374704D01*
X147369161Y-114422323D01*
X147416780Y-114517561D01*
X147416780Y-114803276D01*
X147369161Y-114898514D01*
X147321542Y-114946133D01*
%TO.C,R11*%
X151335980Y-76042257D02*
X150859790Y-76375590D01*
X151335980Y-76613685D02*
X150335980Y-76613685D01*
X150335980Y-76232733D01*
X150383600Y-76137495D01*
X150431219Y-76089876D01*
X150526457Y-76042257D01*
X150669314Y-76042257D01*
X150764552Y-76089876D01*
X150812171Y-76137495D01*
X150859790Y-76232733D01*
X150859790Y-76613685D01*
X151335980Y-75089876D02*
X151335980Y-75661304D01*
X151335980Y-75375590D02*
X150335980Y-75375590D01*
X150478838Y-75470828D01*
X150574076Y-75566066D01*
X150621695Y-75661304D01*
X151335980Y-74137495D02*
X151335980Y-74708923D01*
X151335980Y-74423209D02*
X150335980Y-74423209D01*
X150478838Y-74518447D01*
X150574076Y-74613685D01*
X150621695Y-74708923D01*
%TO.C,R4*%
X128277133Y-85288380D02*
X127943800Y-84812190D01*
X127705704Y-85288380D02*
X127705704Y-84288380D01*
X128086657Y-84288380D01*
X128181895Y-84336000D01*
X128229514Y-84383619D01*
X128277133Y-84478857D01*
X128277133Y-84621714D01*
X128229514Y-84716952D01*
X128181895Y-84764571D01*
X128086657Y-84812190D01*
X127705704Y-84812190D01*
X129134276Y-84621714D02*
X129134276Y-85288380D01*
X128896180Y-84240761D02*
X128658085Y-84955047D01*
X129277133Y-84955047D01*
%TO.C,C15*%
X157903942Y-100788742D02*
X157856323Y-100836361D01*
X157713466Y-100883980D01*
X157618228Y-100883980D01*
X157475371Y-100836361D01*
X157380133Y-100741123D01*
X157332514Y-100645885D01*
X157284895Y-100455409D01*
X157284895Y-100312552D01*
X157332514Y-100122076D01*
X157380133Y-100026838D01*
X157475371Y-99931600D01*
X157618228Y-99883980D01*
X157713466Y-99883980D01*
X157856323Y-99931600D01*
X157903942Y-99979219D01*
X158856323Y-100883980D02*
X158284895Y-100883980D01*
X158570609Y-100883980D02*
X158570609Y-99883980D01*
X158475371Y-100026838D01*
X158380133Y-100122076D01*
X158284895Y-100169695D01*
X159761085Y-99883980D02*
X159284895Y-99883980D01*
X159237276Y-100360171D01*
X159284895Y-100312552D01*
X159380133Y-100264933D01*
X159618228Y-100264933D01*
X159713466Y-100312552D01*
X159761085Y-100360171D01*
X159808704Y-100455409D01*
X159808704Y-100693504D01*
X159761085Y-100788742D01*
X159713466Y-100836361D01*
X159618228Y-100883980D01*
X159380133Y-100883980D01*
X159284895Y-100836361D01*
X159237276Y-100788742D01*
%TO.C,SW1*%
X136472561Y-106540133D02*
X136520180Y-106397276D01*
X136520180Y-106159180D01*
X136472561Y-106063942D01*
X136424942Y-106016323D01*
X136329704Y-105968704D01*
X136234466Y-105968704D01*
X136139228Y-106016323D01*
X136091609Y-106063942D01*
X136043990Y-106159180D01*
X135996371Y-106349657D01*
X135948752Y-106444895D01*
X135901133Y-106492514D01*
X135805895Y-106540133D01*
X135710657Y-106540133D01*
X135615419Y-106492514D01*
X135567800Y-106444895D01*
X135520180Y-106349657D01*
X135520180Y-106111561D01*
X135567800Y-105968704D01*
X135520180Y-105635371D02*
X136520180Y-105397276D01*
X135805895Y-105206800D01*
X136520180Y-105016323D01*
X135520180Y-104778228D01*
X136520180Y-103873466D02*
X136520180Y-104444895D01*
X136520180Y-104159180D02*
X135520180Y-104159180D01*
X135663038Y-104254419D01*
X135758276Y-104349657D01*
X135805895Y-104444895D01*
%TO.C,TP7*%
X163177695Y-101153980D02*
X163749123Y-101153980D01*
X163463409Y-102153980D02*
X163463409Y-101153980D01*
X164082457Y-102153980D02*
X164082457Y-101153980D01*
X164463409Y-101153980D01*
X164558647Y-101201600D01*
X164606266Y-101249219D01*
X164653885Y-101344457D01*
X164653885Y-101487314D01*
X164606266Y-101582552D01*
X164558647Y-101630171D01*
X164463409Y-101677790D01*
X164082457Y-101677790D01*
X164987219Y-101153980D02*
X165653885Y-101153980D01*
X165225314Y-102153980D01*
%TO.C,U1*%
X149148895Y-109113180D02*
X149148895Y-109922704D01*
X149196514Y-110017942D01*
X149244133Y-110065561D01*
X149339371Y-110113180D01*
X149529847Y-110113180D01*
X149625085Y-110065561D01*
X149672704Y-110017942D01*
X149720323Y-109922704D01*
X149720323Y-109113180D01*
X150720323Y-110113180D02*
X150148895Y-110113180D01*
X150434609Y-110113180D02*
X150434609Y-109113180D01*
X150339371Y-109256038D01*
X150244133Y-109351276D01*
X150148895Y-109398895D01*
%TO.C,R18*%
X155239980Y-109710457D02*
X154763790Y-110043790D01*
X155239980Y-110281885D02*
X154239980Y-110281885D01*
X154239980Y-109900933D01*
X154287600Y-109805695D01*
X154335219Y-109758076D01*
X154430457Y-109710457D01*
X154573314Y-109710457D01*
X154668552Y-109758076D01*
X154716171Y-109805695D01*
X154763790Y-109900933D01*
X154763790Y-110281885D01*
X155239980Y-108758076D02*
X155239980Y-109329504D01*
X155239980Y-109043790D02*
X154239980Y-109043790D01*
X154382838Y-109139028D01*
X154478076Y-109234266D01*
X154525695Y-109329504D01*
X154668552Y-108186647D02*
X154620933Y-108281885D01*
X154573314Y-108329504D01*
X154478076Y-108377123D01*
X154430457Y-108377123D01*
X154335219Y-108329504D01*
X154287600Y-108281885D01*
X154239980Y-108186647D01*
X154239980Y-107996171D01*
X154287600Y-107900933D01*
X154335219Y-107853314D01*
X154430457Y-107805695D01*
X154478076Y-107805695D01*
X154573314Y-107853314D01*
X154620933Y-107900933D01*
X154668552Y-107996171D01*
X154668552Y-108186647D01*
X154716171Y-108281885D01*
X154763790Y-108329504D01*
X154859028Y-108377123D01*
X155049504Y-108377123D01*
X155144742Y-108329504D01*
X155192361Y-108281885D01*
X155239980Y-108186647D01*
X155239980Y-107996171D01*
X155192361Y-107900933D01*
X155144742Y-107853314D01*
X155049504Y-107805695D01*
X154859028Y-107805695D01*
X154763790Y-107853314D01*
X154716171Y-107900933D01*
X154668552Y-107996171D01*
%TO.C,C9*%
X154946133Y-117857542D02*
X154898514Y-117905161D01*
X154755657Y-117952780D01*
X154660419Y-117952780D01*
X154517561Y-117905161D01*
X154422323Y-117809923D01*
X154374704Y-117714685D01*
X154327085Y-117524209D01*
X154327085Y-117381352D01*
X154374704Y-117190876D01*
X154422323Y-117095638D01*
X154517561Y-117000400D01*
X154660419Y-116952780D01*
X154755657Y-116952780D01*
X154898514Y-117000400D01*
X154946133Y-117048019D01*
X155422323Y-117952780D02*
X155612800Y-117952780D01*
X155708038Y-117905161D01*
X155755657Y-117857542D01*
X155850895Y-117714685D01*
X155898514Y-117524209D01*
X155898514Y-117143257D01*
X155850895Y-117048019D01*
X155803276Y-117000400D01*
X155708038Y-116952780D01*
X155517561Y-116952780D01*
X155422323Y-117000400D01*
X155374704Y-117048019D01*
X155327085Y-117143257D01*
X155327085Y-117381352D01*
X155374704Y-117476590D01*
X155422323Y-117524209D01*
X155517561Y-117571828D01*
X155708038Y-117571828D01*
X155803276Y-117524209D01*
X155850895Y-117476590D01*
X155898514Y-117381352D01*
%TO.C,U5*%
X145988095Y-77300380D02*
X145988095Y-78109904D01*
X146035714Y-78205142D01*
X146083333Y-78252761D01*
X146178571Y-78300380D01*
X146369047Y-78300380D01*
X146464285Y-78252761D01*
X146511904Y-78205142D01*
X146559523Y-78109904D01*
X146559523Y-77300380D01*
X147511904Y-77300380D02*
X147035714Y-77300380D01*
X146988095Y-77776571D01*
X147035714Y-77728952D01*
X147130952Y-77681333D01*
X147369047Y-77681333D01*
X147464285Y-77728952D01*
X147511904Y-77776571D01*
X147559523Y-77871809D01*
X147559523Y-78109904D01*
X147511904Y-78205142D01*
X147464285Y-78252761D01*
X147369047Y-78300380D01*
X147130952Y-78300380D01*
X147035714Y-78252761D01*
X146988095Y-78205142D01*
%TO.C,R9*%
X136231333Y-92400380D02*
X135898000Y-91924190D01*
X135659904Y-92400380D02*
X135659904Y-91400380D01*
X136040857Y-91400380D01*
X136136095Y-91448000D01*
X136183714Y-91495619D01*
X136231333Y-91590857D01*
X136231333Y-91733714D01*
X136183714Y-91828952D01*
X136136095Y-91876571D01*
X136040857Y-91924190D01*
X135659904Y-91924190D01*
X136707523Y-92400380D02*
X136898000Y-92400380D01*
X136993238Y-92352761D01*
X137040857Y-92305142D01*
X137136095Y-92162285D01*
X137183714Y-91971809D01*
X137183714Y-91590857D01*
X137136095Y-91495619D01*
X137088476Y-91448000D01*
X136993238Y-91400380D01*
X136802761Y-91400380D01*
X136707523Y-91448000D01*
X136659904Y-91495619D01*
X136612285Y-91590857D01*
X136612285Y-91828952D01*
X136659904Y-91924190D01*
X136707523Y-91971809D01*
X136802761Y-92019428D01*
X136993238Y-92019428D01*
X137088476Y-91971809D01*
X137136095Y-91924190D01*
X137183714Y-91828952D01*
%TO.C,R2*%
X128154133Y-81422380D02*
X127820800Y-80946190D01*
X127582704Y-81422380D02*
X127582704Y-80422380D01*
X127963657Y-80422380D01*
X128058895Y-80470000D01*
X128106514Y-80517619D01*
X128154133Y-80612857D01*
X128154133Y-80755714D01*
X128106514Y-80850952D01*
X128058895Y-80898571D01*
X127963657Y-80946190D01*
X127582704Y-80946190D01*
X128535085Y-80517619D02*
X128582704Y-80470000D01*
X128677942Y-80422380D01*
X128916038Y-80422380D01*
X129011276Y-80470000D01*
X129058895Y-80517619D01*
X129106514Y-80612857D01*
X129106514Y-80708095D01*
X129058895Y-80850952D01*
X128487466Y-81422380D01*
X129106514Y-81422380D01*
%TO.C,T1*%
X127722380Y-96773904D02*
X127722380Y-96202476D01*
X128722380Y-96488190D02*
X127722380Y-96488190D01*
X128722380Y-95345333D02*
X128722380Y-95916761D01*
X128722380Y-95631047D02*
X127722380Y-95631047D01*
X127865238Y-95726285D01*
X127960476Y-95821523D01*
X128008095Y-95916761D01*
%TO.C,R8*%
X141260533Y-91333580D02*
X140927200Y-90857390D01*
X140689104Y-91333580D02*
X140689104Y-90333580D01*
X141070057Y-90333580D01*
X141165295Y-90381200D01*
X141212914Y-90428819D01*
X141260533Y-90524057D01*
X141260533Y-90666914D01*
X141212914Y-90762152D01*
X141165295Y-90809771D01*
X141070057Y-90857390D01*
X140689104Y-90857390D01*
X141831961Y-90762152D02*
X141736723Y-90714533D01*
X141689104Y-90666914D01*
X141641485Y-90571676D01*
X141641485Y-90524057D01*
X141689104Y-90428819D01*
X141736723Y-90381200D01*
X141831961Y-90333580D01*
X142022438Y-90333580D01*
X142117676Y-90381200D01*
X142165295Y-90428819D01*
X142212914Y-90524057D01*
X142212914Y-90571676D01*
X142165295Y-90666914D01*
X142117676Y-90714533D01*
X142022438Y-90762152D01*
X141831961Y-90762152D01*
X141736723Y-90809771D01*
X141689104Y-90857390D01*
X141641485Y-90952628D01*
X141641485Y-91143104D01*
X141689104Y-91238342D01*
X141736723Y-91285961D01*
X141831961Y-91333580D01*
X142022438Y-91333580D01*
X142117676Y-91285961D01*
X142165295Y-91238342D01*
X142212914Y-91143104D01*
X142212914Y-90952628D01*
X142165295Y-90857390D01*
X142117676Y-90809771D01*
X142022438Y-90762152D01*
%TO.C,R5*%
X155027333Y-120137180D02*
X154694000Y-119660990D01*
X154455904Y-120137180D02*
X154455904Y-119137180D01*
X154836857Y-119137180D01*
X154932095Y-119184800D01*
X154979714Y-119232419D01*
X155027333Y-119327657D01*
X155027333Y-119470514D01*
X154979714Y-119565752D01*
X154932095Y-119613371D01*
X154836857Y-119660990D01*
X154455904Y-119660990D01*
X155932095Y-119137180D02*
X155455904Y-119137180D01*
X155408285Y-119613371D01*
X155455904Y-119565752D01*
X155551142Y-119518133D01*
X155789238Y-119518133D01*
X155884476Y-119565752D01*
X155932095Y-119613371D01*
X155979714Y-119708609D01*
X155979714Y-119946704D01*
X155932095Y-120041942D01*
X155884476Y-120089561D01*
X155789238Y-120137180D01*
X155551142Y-120137180D01*
X155455904Y-120089561D01*
X155408285Y-120041942D01*
%TO.C,Q1*%
X133256761Y-119673619D02*
X133161523Y-119626000D01*
X133066285Y-119530761D01*
X132923428Y-119387904D01*
X132828190Y-119340285D01*
X132732952Y-119340285D01*
X132780571Y-119578380D02*
X132685333Y-119530761D01*
X132590095Y-119435523D01*
X132542476Y-119245047D01*
X132542476Y-118911714D01*
X132590095Y-118721238D01*
X132685333Y-118626000D01*
X132780571Y-118578380D01*
X132971047Y-118578380D01*
X133066285Y-118626000D01*
X133161523Y-118721238D01*
X133209142Y-118911714D01*
X133209142Y-119245047D01*
X133161523Y-119435523D01*
X133066285Y-119530761D01*
X132971047Y-119578380D01*
X132780571Y-119578380D01*
X134161523Y-119578380D02*
X133590095Y-119578380D01*
X133875809Y-119578380D02*
X133875809Y-118578380D01*
X133780571Y-118721238D01*
X133685333Y-118816476D01*
X133590095Y-118864095D01*
%TO.C,C6*%
X128306533Y-79046342D02*
X128258914Y-79093961D01*
X128116057Y-79141580D01*
X128020819Y-79141580D01*
X127877961Y-79093961D01*
X127782723Y-78998723D01*
X127735104Y-78903485D01*
X127687485Y-78713009D01*
X127687485Y-78570152D01*
X127735104Y-78379676D01*
X127782723Y-78284438D01*
X127877961Y-78189200D01*
X128020819Y-78141580D01*
X128116057Y-78141580D01*
X128258914Y-78189200D01*
X128306533Y-78236819D01*
X129163676Y-78141580D02*
X128973200Y-78141580D01*
X128877961Y-78189200D01*
X128830342Y-78236819D01*
X128735104Y-78379676D01*
X128687485Y-78570152D01*
X128687485Y-78951104D01*
X128735104Y-79046342D01*
X128782723Y-79093961D01*
X128877961Y-79141580D01*
X129068438Y-79141580D01*
X129163676Y-79093961D01*
X129211295Y-79046342D01*
X129258914Y-78951104D01*
X129258914Y-78713009D01*
X129211295Y-78617771D01*
X129163676Y-78570152D01*
X129068438Y-78522533D01*
X128877961Y-78522533D01*
X128782723Y-78570152D01*
X128735104Y-78617771D01*
X128687485Y-78713009D01*
%TO.C,R13*%
X148491180Y-76042257D02*
X148014990Y-76375590D01*
X148491180Y-76613685D02*
X147491180Y-76613685D01*
X147491180Y-76232733D01*
X147538800Y-76137495D01*
X147586419Y-76089876D01*
X147681657Y-76042257D01*
X147824514Y-76042257D01*
X147919752Y-76089876D01*
X147967371Y-76137495D01*
X148014990Y-76232733D01*
X148014990Y-76613685D01*
X148491180Y-75089876D02*
X148491180Y-75661304D01*
X148491180Y-75375590D02*
X147491180Y-75375590D01*
X147634038Y-75470828D01*
X147729276Y-75566066D01*
X147776895Y-75661304D01*
X147491180Y-74756542D02*
X147491180Y-74137495D01*
X147872133Y-74470828D01*
X147872133Y-74327971D01*
X147919752Y-74232733D01*
X147967371Y-74185114D01*
X148062609Y-74137495D01*
X148300704Y-74137495D01*
X148395942Y-74185114D01*
X148443561Y-74232733D01*
X148491180Y-74327971D01*
X148491180Y-74613685D01*
X148443561Y-74708923D01*
X148395942Y-74756542D01*
%TO.C,C8*%
X128148933Y-83867142D02*
X128101314Y-83914761D01*
X127958457Y-83962380D01*
X127863219Y-83962380D01*
X127720361Y-83914761D01*
X127625123Y-83819523D01*
X127577504Y-83724285D01*
X127529885Y-83533809D01*
X127529885Y-83390952D01*
X127577504Y-83200476D01*
X127625123Y-83105238D01*
X127720361Y-83010000D01*
X127863219Y-82962380D01*
X127958457Y-82962380D01*
X128101314Y-83010000D01*
X128148933Y-83057619D01*
X128720361Y-83390952D02*
X128625123Y-83343333D01*
X128577504Y-83295714D01*
X128529885Y-83200476D01*
X128529885Y-83152857D01*
X128577504Y-83057619D01*
X128625123Y-83010000D01*
X128720361Y-82962380D01*
X128910838Y-82962380D01*
X129006076Y-83010000D01*
X129053695Y-83057619D01*
X129101314Y-83152857D01*
X129101314Y-83200476D01*
X129053695Y-83295714D01*
X129006076Y-83343333D01*
X128910838Y-83390952D01*
X128720361Y-83390952D01*
X128625123Y-83438571D01*
X128577504Y-83486190D01*
X128529885Y-83581428D01*
X128529885Y-83771904D01*
X128577504Y-83867142D01*
X128625123Y-83914761D01*
X128720361Y-83962380D01*
X128910838Y-83962380D01*
X129006076Y-83914761D01*
X129053695Y-83867142D01*
X129101314Y-83771904D01*
X129101314Y-83581428D01*
X129053695Y-83486190D01*
X129006076Y-83438571D01*
X128910838Y-83390952D01*
%TO.C,D3*%
X156958204Y-122473980D02*
X156958204Y-121473980D01*
X157196300Y-121473980D01*
X157339157Y-121521600D01*
X157434395Y-121616838D01*
X157482014Y-121712076D01*
X157529633Y-121902552D01*
X157529633Y-122045409D01*
X157482014Y-122235885D01*
X157434395Y-122331123D01*
X157339157Y-122426361D01*
X157196300Y-122473980D01*
X156958204Y-122473980D01*
X157862966Y-121473980D02*
X158482014Y-121473980D01*
X158148680Y-121854933D01*
X158291538Y-121854933D01*
X158386776Y-121902552D01*
X158434395Y-121950171D01*
X158482014Y-122045409D01*
X158482014Y-122283504D01*
X158434395Y-122378742D01*
X158386776Y-122426361D01*
X158291538Y-122473980D01*
X158005823Y-122473980D01*
X157910585Y-122426361D01*
X157862966Y-122378742D01*
%TO.C,R6*%
X128154133Y-82641580D02*
X127820800Y-82165390D01*
X127582704Y-82641580D02*
X127582704Y-81641580D01*
X127963657Y-81641580D01*
X128058895Y-81689200D01*
X128106514Y-81736819D01*
X128154133Y-81832057D01*
X128154133Y-81974914D01*
X128106514Y-82070152D01*
X128058895Y-82117771D01*
X127963657Y-82165390D01*
X127582704Y-82165390D01*
X129011276Y-81641580D02*
X128820800Y-81641580D01*
X128725561Y-81689200D01*
X128677942Y-81736819D01*
X128582704Y-81879676D01*
X128535085Y-82070152D01*
X128535085Y-82451104D01*
X128582704Y-82546342D01*
X128630323Y-82593961D01*
X128725561Y-82641580D01*
X128916038Y-82641580D01*
X129011276Y-82593961D01*
X129058895Y-82546342D01*
X129106514Y-82451104D01*
X129106514Y-82213009D01*
X129058895Y-82117771D01*
X129011276Y-82070152D01*
X128916038Y-82022533D01*
X128725561Y-82022533D01*
X128630323Y-82070152D01*
X128582704Y-82117771D01*
X128535085Y-82213009D01*
%TO.C,C5*%
X124191733Y-78995542D02*
X124144114Y-79043161D01*
X124001257Y-79090780D01*
X123906019Y-79090780D01*
X123763161Y-79043161D01*
X123667923Y-78947923D01*
X123620304Y-78852685D01*
X123572685Y-78662209D01*
X123572685Y-78519352D01*
X123620304Y-78328876D01*
X123667923Y-78233638D01*
X123763161Y-78138400D01*
X123906019Y-78090780D01*
X124001257Y-78090780D01*
X124144114Y-78138400D01*
X124191733Y-78186019D01*
X125096495Y-78090780D02*
X124620304Y-78090780D01*
X124572685Y-78566971D01*
X124620304Y-78519352D01*
X124715542Y-78471733D01*
X124953638Y-78471733D01*
X125048876Y-78519352D01*
X125096495Y-78566971D01*
X125144114Y-78662209D01*
X125144114Y-78900304D01*
X125096495Y-78995542D01*
X125048876Y-79043161D01*
X124953638Y-79090780D01*
X124715542Y-79090780D01*
X124620304Y-79043161D01*
X124572685Y-78995542D01*
%TO.C,J4*%
X165621866Y-77125580D02*
X165621866Y-77839866D01*
X165574247Y-77982723D01*
X165479009Y-78077961D01*
X165336152Y-78125580D01*
X165240914Y-78125580D01*
X166526628Y-77458914D02*
X166526628Y-78125580D01*
X166288533Y-77077961D02*
X166050438Y-77792247D01*
X166669485Y-77792247D01*
%TO.C,C10*%
X130090342Y-88241142D02*
X130042723Y-88288761D01*
X129899866Y-88336380D01*
X129804628Y-88336380D01*
X129661771Y-88288761D01*
X129566533Y-88193523D01*
X129518914Y-88098285D01*
X129471295Y-87907809D01*
X129471295Y-87764952D01*
X129518914Y-87574476D01*
X129566533Y-87479238D01*
X129661771Y-87384000D01*
X129804628Y-87336380D01*
X129899866Y-87336380D01*
X130042723Y-87384000D01*
X130090342Y-87431619D01*
X131042723Y-88336380D02*
X130471295Y-88336380D01*
X130757009Y-88336380D02*
X130757009Y-87336380D01*
X130661771Y-87479238D01*
X130566533Y-87574476D01*
X130471295Y-87622095D01*
X131661771Y-87336380D02*
X131757009Y-87336380D01*
X131852247Y-87384000D01*
X131899866Y-87431619D01*
X131947485Y-87526857D01*
X131995104Y-87717333D01*
X131995104Y-87955428D01*
X131947485Y-88145904D01*
X131899866Y-88241142D01*
X131852247Y-88288761D01*
X131757009Y-88336380D01*
X131661771Y-88336380D01*
X131566533Y-88288761D01*
X131518914Y-88241142D01*
X131471295Y-88145904D01*
X131423676Y-87955428D01*
X131423676Y-87717333D01*
X131471295Y-87526857D01*
X131518914Y-87431619D01*
X131566533Y-87384000D01*
X131661771Y-87336380D01*
%TO.C,U4*%
X144816580Y-100685504D02*
X145626104Y-100685504D01*
X145721342Y-100637885D01*
X145768961Y-100590266D01*
X145816580Y-100495028D01*
X145816580Y-100304552D01*
X145768961Y-100209314D01*
X145721342Y-100161695D01*
X145626104Y-100114076D01*
X144816580Y-100114076D01*
X145149914Y-99209314D02*
X145816580Y-99209314D01*
X144768961Y-99447409D02*
X145483247Y-99685504D01*
X145483247Y-99066457D01*
%TO.C,C14*%
X155922742Y-90781142D02*
X155875123Y-90828761D01*
X155732266Y-90876380D01*
X155637028Y-90876380D01*
X155494171Y-90828761D01*
X155398933Y-90733523D01*
X155351314Y-90638285D01*
X155303695Y-90447809D01*
X155303695Y-90304952D01*
X155351314Y-90114476D01*
X155398933Y-90019238D01*
X155494171Y-89924000D01*
X155637028Y-89876380D01*
X155732266Y-89876380D01*
X155875123Y-89924000D01*
X155922742Y-89971619D01*
X156875123Y-90876380D02*
X156303695Y-90876380D01*
X156589409Y-90876380D02*
X156589409Y-89876380D01*
X156494171Y-90019238D01*
X156398933Y-90114476D01*
X156303695Y-90162095D01*
X157732266Y-90209714D02*
X157732266Y-90876380D01*
X157494171Y-89828761D02*
X157256076Y-90543047D01*
X157875123Y-90543047D01*
%TO.C,C12*%
X139209542Y-100719142D02*
X139161923Y-100766761D01*
X139019066Y-100814380D01*
X138923828Y-100814380D01*
X138780971Y-100766761D01*
X138685733Y-100671523D01*
X138638114Y-100576285D01*
X138590495Y-100385809D01*
X138590495Y-100242952D01*
X138638114Y-100052476D01*
X138685733Y-99957238D01*
X138780971Y-99862000D01*
X138923828Y-99814380D01*
X139019066Y-99814380D01*
X139161923Y-99862000D01*
X139209542Y-99909619D01*
X140161923Y-100814380D02*
X139590495Y-100814380D01*
X139876209Y-100814380D02*
X139876209Y-99814380D01*
X139780971Y-99957238D01*
X139685733Y-100052476D01*
X139590495Y-100100095D01*
X140542876Y-99909619D02*
X140590495Y-99862000D01*
X140685733Y-99814380D01*
X140923828Y-99814380D01*
X141019066Y-99862000D01*
X141066685Y-99909619D01*
X141114304Y-100004857D01*
X141114304Y-100100095D01*
X141066685Y-100242952D01*
X140495257Y-100814380D01*
X141114304Y-100814380D01*
%TO.C,C13*%
X144711142Y-91136742D02*
X144663523Y-91184361D01*
X144520666Y-91231980D01*
X144425428Y-91231980D01*
X144282571Y-91184361D01*
X144187333Y-91089123D01*
X144139714Y-90993885D01*
X144092095Y-90803409D01*
X144092095Y-90660552D01*
X144139714Y-90470076D01*
X144187333Y-90374838D01*
X144282571Y-90279600D01*
X144425428Y-90231980D01*
X144520666Y-90231980D01*
X144663523Y-90279600D01*
X144711142Y-90327219D01*
X145663523Y-91231980D02*
X145092095Y-91231980D01*
X145377809Y-91231980D02*
X145377809Y-90231980D01*
X145282571Y-90374838D01*
X145187333Y-90470076D01*
X145092095Y-90517695D01*
X145996857Y-90231980D02*
X146615904Y-90231980D01*
X146282571Y-90612933D01*
X146425428Y-90612933D01*
X146520666Y-90660552D01*
X146568285Y-90708171D01*
X146615904Y-90803409D01*
X146615904Y-91041504D01*
X146568285Y-91136742D01*
X146520666Y-91184361D01*
X146425428Y-91231980D01*
X146139714Y-91231980D01*
X146044476Y-91184361D01*
X145996857Y-91136742D01*
%TO.C,TP2*%
X136914095Y-108883580D02*
X137485523Y-108883580D01*
X137199809Y-109883580D02*
X137199809Y-108883580D01*
X137818857Y-109883580D02*
X137818857Y-108883580D01*
X138199809Y-108883580D01*
X138295047Y-108931200D01*
X138342666Y-108978819D01*
X138390285Y-109074057D01*
X138390285Y-109216914D01*
X138342666Y-109312152D01*
X138295047Y-109359771D01*
X138199809Y-109407390D01*
X137818857Y-109407390D01*
X138771238Y-108978819D02*
X138818857Y-108931200D01*
X138914095Y-108883580D01*
X139152190Y-108883580D01*
X139247428Y-108931200D01*
X139295047Y-108978819D01*
X139342666Y-109074057D01*
X139342666Y-109169295D01*
X139295047Y-109312152D01*
X138723619Y-109883580D01*
X139342666Y-109883580D01*
%TO.C,Q2*%
X139381219Y-83762838D02*
X139333600Y-83858076D01*
X139238361Y-83953314D01*
X139095504Y-84096171D01*
X139047885Y-84191409D01*
X139047885Y-84286647D01*
X139285980Y-84239028D02*
X139238361Y-84334266D01*
X139143123Y-84429504D01*
X138952647Y-84477123D01*
X138619314Y-84477123D01*
X138428838Y-84429504D01*
X138333600Y-84334266D01*
X138285980Y-84239028D01*
X138285980Y-84048552D01*
X138333600Y-83953314D01*
X138428838Y-83858076D01*
X138619314Y-83810457D01*
X138952647Y-83810457D01*
X139143123Y-83858076D01*
X139238361Y-83953314D01*
X139285980Y-84048552D01*
X139285980Y-84239028D01*
X138381219Y-83429504D02*
X138333600Y-83381885D01*
X138285980Y-83286647D01*
X138285980Y-83048552D01*
X138333600Y-82953314D01*
X138381219Y-82905695D01*
X138476457Y-82858076D01*
X138571695Y-82858076D01*
X138714552Y-82905695D01*
X139285980Y-83477123D01*
X139285980Y-82858076D01*
%TO.C,C4*%
X158837333Y-103735142D02*
X158789714Y-103782761D01*
X158646857Y-103830380D01*
X158551619Y-103830380D01*
X158408761Y-103782761D01*
X158313523Y-103687523D01*
X158265904Y-103592285D01*
X158218285Y-103401809D01*
X158218285Y-103258952D01*
X158265904Y-103068476D01*
X158313523Y-102973238D01*
X158408761Y-102878000D01*
X158551619Y-102830380D01*
X158646857Y-102830380D01*
X158789714Y-102878000D01*
X158837333Y-102925619D01*
X159694476Y-103163714D02*
X159694476Y-103830380D01*
X159456380Y-102782761D02*
X159218285Y-103497047D01*
X159837333Y-103497047D01*
%TO.C,D1*%
X131722904Y-114276380D02*
X131722904Y-113276380D01*
X131961000Y-113276380D01*
X132103857Y-113324000D01*
X132199095Y-113419238D01*
X132246714Y-113514476D01*
X132294333Y-113704952D01*
X132294333Y-113847809D01*
X132246714Y-114038285D01*
X132199095Y-114133523D01*
X132103857Y-114228761D01*
X131961000Y-114276380D01*
X131722904Y-114276380D01*
X133246714Y-114276380D02*
X132675285Y-114276380D01*
X132961000Y-114276380D02*
X132961000Y-113276380D01*
X132865761Y-113419238D01*
X132770523Y-113514476D01*
X132675285Y-113562095D01*
%TO.C,TP4*%
X155964095Y-113625580D02*
X156535523Y-113625580D01*
X156249809Y-114625580D02*
X156249809Y-113625580D01*
X156868857Y-114625580D02*
X156868857Y-113625580D01*
X157249809Y-113625580D01*
X157345047Y-113673200D01*
X157392666Y-113720819D01*
X157440285Y-113816057D01*
X157440285Y-113958914D01*
X157392666Y-114054152D01*
X157345047Y-114101771D01*
X157249809Y-114149390D01*
X156868857Y-114149390D01*
X158297428Y-113958914D02*
X158297428Y-114625580D01*
X158059333Y-113577961D02*
X157821238Y-114292247D01*
X158440285Y-114292247D01*
%TO.C,R10*%
X149855180Y-116818457D02*
X149378990Y-117151790D01*
X149855180Y-117389885D02*
X148855180Y-117389885D01*
X148855180Y-117008933D01*
X148902800Y-116913695D01*
X148950419Y-116866076D01*
X149045657Y-116818457D01*
X149188514Y-116818457D01*
X149283752Y-116866076D01*
X149331371Y-116913695D01*
X149378990Y-117008933D01*
X149378990Y-117389885D01*
X149855180Y-115866076D02*
X149855180Y-116437504D01*
X149855180Y-116151790D02*
X148855180Y-116151790D01*
X148998038Y-116247028D01*
X149093276Y-116342266D01*
X149140895Y-116437504D01*
X148855180Y-115247028D02*
X148855180Y-115151790D01*
X148902800Y-115056552D01*
X148950419Y-115008933D01*
X149045657Y-114961314D01*
X149236133Y-114913695D01*
X149474228Y-114913695D01*
X149664704Y-114961314D01*
X149759942Y-115008933D01*
X149807561Y-115056552D01*
X149855180Y-115151790D01*
X149855180Y-115247028D01*
X149807561Y-115342266D01*
X149759942Y-115389885D01*
X149664704Y-115437504D01*
X149474228Y-115485123D01*
X149236133Y-115485123D01*
X149045657Y-115437504D01*
X148950419Y-115389885D01*
X148902800Y-115342266D01*
X148855180Y-115247028D01*
%TO.C,TP3*%
X130945095Y-109383380D02*
X131516523Y-109383380D01*
X131230809Y-110383380D02*
X131230809Y-109383380D01*
X131849857Y-110383380D02*
X131849857Y-109383380D01*
X132230809Y-109383380D01*
X132326047Y-109431000D01*
X132373666Y-109478619D01*
X132421285Y-109573857D01*
X132421285Y-109716714D01*
X132373666Y-109811952D01*
X132326047Y-109859571D01*
X132230809Y-109907190D01*
X131849857Y-109907190D01*
X132754619Y-109383380D02*
X133373666Y-109383380D01*
X133040333Y-109764333D01*
X133183190Y-109764333D01*
X133278428Y-109811952D01*
X133326047Y-109859571D01*
X133373666Y-109954809D01*
X133373666Y-110192904D01*
X133326047Y-110288142D01*
X133278428Y-110335761D01*
X133183190Y-110383380D01*
X132897476Y-110383380D01*
X132802238Y-110335761D01*
X132754619Y-110288142D01*
%TO.C,D4*%
X139063504Y-77007980D02*
X139063504Y-76007980D01*
X139301600Y-76007980D01*
X139444457Y-76055600D01*
X139539695Y-76150838D01*
X139587314Y-76246076D01*
X139634933Y-76436552D01*
X139634933Y-76579409D01*
X139587314Y-76769885D01*
X139539695Y-76865123D01*
X139444457Y-76960361D01*
X139301600Y-77007980D01*
X139063504Y-77007980D01*
X140492076Y-76341314D02*
X140492076Y-77007980D01*
X140253980Y-75960361D02*
X140015885Y-76674647D01*
X140634933Y-76674647D01*
%TO.C,R15*%
X153698242Y-79745180D02*
X153364909Y-79268990D01*
X153126814Y-79745180D02*
X153126814Y-78745180D01*
X153507766Y-78745180D01*
X153603004Y-78792800D01*
X153650623Y-78840419D01*
X153698242Y-78935657D01*
X153698242Y-79078514D01*
X153650623Y-79173752D01*
X153603004Y-79221371D01*
X153507766Y-79268990D01*
X153126814Y-79268990D01*
X154650623Y-79745180D02*
X154079195Y-79745180D01*
X154364909Y-79745180D02*
X154364909Y-78745180D01*
X154269671Y-78888038D01*
X154174433Y-78983276D01*
X154079195Y-79030895D01*
X155555385Y-78745180D02*
X155079195Y-78745180D01*
X155031576Y-79221371D01*
X155079195Y-79173752D01*
X155174433Y-79126133D01*
X155412528Y-79126133D01*
X155507766Y-79173752D01*
X155555385Y-79221371D01*
X155603004Y-79316609D01*
X155603004Y-79554704D01*
X155555385Y-79649942D01*
X155507766Y-79697561D01*
X155412528Y-79745180D01*
X155174433Y-79745180D01*
X155079195Y-79697561D01*
X155031576Y-79649942D01*
%TO.C,F1*%
X154007766Y-71257771D02*
X153674433Y-71257771D01*
X153674433Y-71781580D02*
X153674433Y-70781580D01*
X154150623Y-70781580D01*
X155055385Y-71781580D02*
X154483957Y-71781580D01*
X154769671Y-71781580D02*
X154769671Y-70781580D01*
X154674433Y-70924438D01*
X154579195Y-71019676D01*
X154483957Y-71067295D01*
%TO.C,TP15*%
X153862304Y-101153980D02*
X154433733Y-101153980D01*
X154148019Y-102153980D02*
X154148019Y-101153980D01*
X154767066Y-102153980D02*
X154767066Y-101153980D01*
X155148019Y-101153980D01*
X155243257Y-101201600D01*
X155290876Y-101249219D01*
X155338495Y-101344457D01*
X155338495Y-101487314D01*
X155290876Y-101582552D01*
X155243257Y-101630171D01*
X155148019Y-101677790D01*
X154767066Y-101677790D01*
X156290876Y-102153980D02*
X155719447Y-102153980D01*
X156005161Y-102153980D02*
X156005161Y-101153980D01*
X155909923Y-101296838D01*
X155814685Y-101392076D01*
X155719447Y-101439695D01*
X157195638Y-101153980D02*
X156719447Y-101153980D01*
X156671828Y-101630171D01*
X156719447Y-101582552D01*
X156814685Y-101534933D01*
X157052780Y-101534933D01*
X157148019Y-101582552D01*
X157195638Y-101630171D01*
X157243257Y-101725409D01*
X157243257Y-101963504D01*
X157195638Y-102058742D01*
X157148019Y-102106361D01*
X157052780Y-102153980D01*
X156814685Y-102153980D01*
X156719447Y-102106361D01*
X156671828Y-102058742D01*
%TO.C,C1*%
X134215142Y-107888066D02*
X134262761Y-107935685D01*
X134310380Y-108078542D01*
X134310380Y-108173780D01*
X134262761Y-108316638D01*
X134167523Y-108411876D01*
X134072285Y-108459495D01*
X133881809Y-108507114D01*
X133738952Y-108507114D01*
X133548476Y-108459495D01*
X133453238Y-108411876D01*
X133358000Y-108316638D01*
X133310380Y-108173780D01*
X133310380Y-108078542D01*
X133358000Y-107935685D01*
X133405619Y-107888066D01*
X134310380Y-106935685D02*
X134310380Y-107507114D01*
X134310380Y-107221400D02*
X133310380Y-107221400D01*
X133453238Y-107316638D01*
X133548476Y-107411876D01*
X133596095Y-107507114D01*
%TO.C,D2*%
X140181104Y-89098380D02*
X140181104Y-88098380D01*
X140419200Y-88098380D01*
X140562057Y-88146000D01*
X140657295Y-88241238D01*
X140704914Y-88336476D01*
X140752533Y-88526952D01*
X140752533Y-88669809D01*
X140704914Y-88860285D01*
X140657295Y-88955523D01*
X140562057Y-89050761D01*
X140419200Y-89098380D01*
X140181104Y-89098380D01*
X141133485Y-88193619D02*
X141181104Y-88146000D01*
X141276342Y-88098380D01*
X141514438Y-88098380D01*
X141609676Y-88146000D01*
X141657295Y-88193619D01*
X141704914Y-88288857D01*
X141704914Y-88384095D01*
X141657295Y-88526952D01*
X141085866Y-89098380D01*
X141704914Y-89098380D01*
%TO.C,TP12*%
X143956304Y-71283580D02*
X144527733Y-71283580D01*
X144242019Y-72283580D02*
X144242019Y-71283580D01*
X144861066Y-72283580D02*
X144861066Y-71283580D01*
X145242019Y-71283580D01*
X145337257Y-71331200D01*
X145384876Y-71378819D01*
X145432495Y-71474057D01*
X145432495Y-71616914D01*
X145384876Y-71712152D01*
X145337257Y-71759771D01*
X145242019Y-71807390D01*
X144861066Y-71807390D01*
X146384876Y-72283580D02*
X145813447Y-72283580D01*
X146099161Y-72283580D02*
X146099161Y-71283580D01*
X146003923Y-71426438D01*
X145908685Y-71521676D01*
X145813447Y-71569295D01*
X146765828Y-71378819D02*
X146813447Y-71331200D01*
X146908685Y-71283580D01*
X147146780Y-71283580D01*
X147242019Y-71331200D01*
X147289638Y-71378819D01*
X147337257Y-71474057D01*
X147337257Y-71569295D01*
X147289638Y-71712152D01*
X146718209Y-72283580D01*
X147337257Y-72283580D01*
D12*
%TO.C,R14*%
X143241500Y-75162142D02*
X143241500Y-75636658D01*
X144286500Y-75162142D02*
X144286500Y-75636658D01*
%TO.C,J3*%
X160286200Y-114483200D02*
X166256200Y-114483200D01*
X165496200Y-114473200D02*
X166246200Y-114473200D01*
X160286200Y-104363200D02*
X160286200Y-114483200D01*
X163996200Y-114473200D02*
X163996200Y-113723200D01*
X166246200Y-114473200D02*
X166246200Y-112673200D01*
X166256200Y-114483200D02*
X166256200Y-104363200D01*
X166256200Y-104363200D02*
X160286200Y-104363200D01*
X166246200Y-111173200D02*
X166246200Y-107673200D01*
X166546200Y-105323200D02*
X166546200Y-104073200D01*
X161046200Y-105123200D02*
X161046200Y-109423200D01*
X165496200Y-112673200D02*
X165496200Y-114473200D01*
X165496200Y-106173200D02*
X166246200Y-106173200D01*
X166546200Y-104073200D02*
X165296200Y-104073200D01*
X165496200Y-104373200D02*
X165496200Y-106173200D01*
X166246200Y-107673200D02*
X165496200Y-107673200D01*
X166246200Y-104373200D02*
X165496200Y-104373200D01*
X163996200Y-104373200D02*
X163996200Y-105123200D01*
X165496200Y-111173200D02*
X166246200Y-111173200D01*
X161046200Y-113723200D02*
X161046200Y-109423200D01*
X163996200Y-105123200D02*
X161046200Y-105123200D01*
X165496200Y-107673200D02*
X165496200Y-111173200D01*
X163996200Y-113723200D02*
X161046200Y-113723200D01*
X166246200Y-106173200D02*
X166246200Y-104373200D01*
X166246200Y-112673200D02*
X165496200Y-112673200D01*
%TO.C,U2*%
X124810000Y-83058000D02*
X124810000Y-80058000D01*
X121570000Y-84058000D02*
X121570000Y-82058000D01*
%TO.C,R16*%
X156871159Y-108787200D02*
X157178441Y-108787200D01*
X156871159Y-108027200D02*
X157178441Y-108027200D01*
%TO.C,J1*%
X138972400Y-117645200D02*
X138972400Y-110345200D01*
X145812400Y-111145200D02*
X145812400Y-117645200D01*
X145012400Y-110345200D02*
X145812400Y-111145200D01*
X138972400Y-110345200D02*
X145012400Y-110345200D01*
X145812400Y-117645200D02*
X138972400Y-117645200D01*
%TO.C,TP1*%
X135828000Y-111379000D02*
G75*
G03*
X135828000Y-111379000I-700000J0D01*
G01*
%TO.C,R7*%
X133202764Y-77068000D02*
X131748636Y-77068000D01*
X133202764Y-78888000D02*
X131748636Y-78888000D01*
%TO.C,R1*%
X136373359Y-116204000D02*
X136680641Y-116204000D01*
X136373359Y-115444000D02*
X136680641Y-115444000D01*
%TO.C,SW2*%
X142113000Y-124959000D02*
X142089000Y-120659000D01*
X151789000Y-124959000D02*
X142113000Y-124959000D01*
X142089000Y-120659000D02*
X151789000Y-120659000D01*
X151789000Y-120659000D02*
X151789000Y-124959000D01*
X144653000Y-122301000D02*
X145923000Y-122301000D01*
X145923000Y-122301000D02*
X145923000Y-123317000D01*
X145923000Y-123317000D02*
X144653000Y-123317000D01*
X144653000Y-123317000D02*
X144653000Y-122301000D01*
G36*
X144653000Y-122301000D02*
G01*
X145923000Y-122301000D01*
X145923000Y-123317000D01*
X144653000Y-123317000D01*
X144653000Y-122301000D01*
G37*
X144399000Y-122047000D02*
X149479000Y-122047000D01*
X149479000Y-122047000D02*
X149479000Y-123571000D01*
X149479000Y-123571000D02*
X144399000Y-123571000D01*
X144399000Y-123571000D02*
X144399000Y-122047000D01*
%TO.C,C11*%
X152604380Y-116029200D02*
X152323220Y-116029200D01*
X152604380Y-115009200D02*
X152323220Y-115009200D01*
%TO.C,R19*%
X155195837Y-87613400D02*
X153748363Y-87613400D01*
X155195837Y-84903400D02*
X153748363Y-84903400D01*
%TO.C,R17*%
X155094237Y-82889000D02*
X153646763Y-82889000D01*
X155094237Y-80179000D02*
X153646763Y-80179000D01*
%TO.C,U3*%
X151604800Y-112184000D02*
X152104800Y-112184000D01*
X153804800Y-113884000D02*
X153804800Y-114384000D01*
X151604800Y-114384000D02*
X151604800Y-113884000D01*
X152104800Y-112184000D02*
X152104800Y-112184000D01*
X153804800Y-112684000D02*
X153804800Y-112184000D01*
X151604800Y-112684000D02*
X151604800Y-112184000D01*
X151604800Y-113884000D02*
X151604800Y-113884000D01*
X153804800Y-114384000D02*
X153304800Y-114384000D01*
X153304800Y-114384000D02*
X153304800Y-114384000D01*
X152104800Y-114384000D02*
X151604800Y-114384000D01*
X153804800Y-112184000D02*
X153804800Y-112184000D01*
%TO.C,C7*%
X156056420Y-103532400D02*
X156337580Y-103532400D01*
X156056420Y-102512400D02*
X156337580Y-102512400D01*
%TO.C,J2*%
X121756000Y-112552000D02*
X121756000Y-114352000D01*
X121746000Y-120162000D02*
X127716000Y-120162000D01*
X122506000Y-118352000D02*
X121756000Y-118352000D01*
X121746000Y-112542000D02*
X121746000Y-120162000D01*
X127716000Y-120162000D02*
X127716000Y-112542000D01*
X122506000Y-115852000D02*
X121756000Y-115852000D01*
X121756000Y-114352000D02*
X122506000Y-114352000D01*
X121456000Y-119202000D02*
X121456000Y-120452000D01*
X121756000Y-118352000D02*
X121756000Y-120152000D01*
X124006000Y-112552000D02*
X124006000Y-113302000D01*
X127716000Y-112542000D02*
X121746000Y-112542000D01*
X121756000Y-116852000D02*
X122506000Y-116852000D01*
X122506000Y-120152000D02*
X122506000Y-118352000D01*
X122506000Y-112552000D02*
X121756000Y-112552000D01*
X121756000Y-120152000D02*
X122506000Y-120152000D01*
X124006000Y-120152000D02*
X124006000Y-119402000D01*
X126956000Y-113302000D02*
X126956000Y-116352000D01*
X124006000Y-119402000D02*
X126956000Y-119402000D01*
X126956000Y-119402000D02*
X126956000Y-116352000D01*
X124006000Y-113302000D02*
X126956000Y-113302000D01*
X122506000Y-114352000D02*
X122506000Y-112552000D01*
X121756000Y-115852000D02*
X121756000Y-116852000D01*
X122506000Y-116852000D02*
X122506000Y-115852000D01*
X121456000Y-120452000D02*
X122706000Y-120452000D01*
%TO.C,R12*%
X155419058Y-124271300D02*
X154944542Y-124271300D01*
X155419058Y-123226300D02*
X154944542Y-123226300D01*
%TO.C,C3*%
X123517252Y-87022000D02*
X122994748Y-87022000D01*
X123517252Y-88492000D02*
X122994748Y-88492000D01*
%TO.C,C2*%
X129648000Y-105223437D02*
X129648000Y-106509000D01*
X122828000Y-104159000D02*
X122828000Y-106509000D01*
X129648000Y-109914563D02*
X128583563Y-110979000D01*
X130675500Y-109416500D02*
X129888000Y-109416500D01*
X122828000Y-110979000D02*
X122828000Y-108629000D01*
X129648000Y-105223437D02*
X128583563Y-104159000D01*
X128583563Y-110979000D02*
X122828000Y-110979000D01*
X130281750Y-109810250D02*
X130281750Y-109022750D01*
X129648000Y-109914563D02*
X129648000Y-108629000D01*
X128583563Y-104159000D02*
X122828000Y-104159000D01*
%TO.C,R3*%
X146584400Y-112620359D02*
X146584400Y-112927641D01*
X147344400Y-112620359D02*
X147344400Y-112927641D01*
%TO.C,R11*%
X149976100Y-75162142D02*
X149976100Y-75636658D01*
X148931100Y-75162142D02*
X148931100Y-75636658D01*
%TO.C,R4*%
X126133159Y-85165200D02*
X126440441Y-85165200D01*
X126133159Y-84405200D02*
X126440441Y-84405200D01*
%TO.C,C15*%
X159315200Y-98509963D02*
X159315200Y-92754400D01*
X153559637Y-99574400D02*
X154845200Y-99574400D01*
X153663950Y-100208150D02*
X154451450Y-100208150D01*
X153559637Y-99574400D02*
X152495200Y-98509963D01*
X154057700Y-100601900D02*
X154057700Y-99814400D01*
X158250763Y-99574400D02*
X159315200Y-98509963D01*
X152495200Y-98509963D02*
X152495200Y-92754400D01*
X158250763Y-99574400D02*
X156965200Y-99574400D01*
X159315200Y-92754400D02*
X156965200Y-92754400D01*
X152495200Y-92754400D02*
X154845200Y-92754400D01*
%TO.C,SW1*%
X143488800Y-108406800D02*
X143488800Y-108436800D01*
X137028800Y-108436800D02*
X137028800Y-108406800D01*
X143488800Y-108436800D02*
X137028800Y-108436800D01*
X143488800Y-101976800D02*
X143488800Y-102006800D01*
X143488800Y-106506800D02*
X143488800Y-103906800D01*
X137028800Y-106506800D02*
X137028800Y-103906800D01*
X137028800Y-101976800D02*
X137028800Y-102006800D01*
X143488800Y-101976800D02*
X137028800Y-101976800D01*
%TO.C,TP7*%
X162650400Y-101650800D02*
G75*
G03*
X162650400Y-101650800I-700000J0D01*
G01*
%TO.C,U1*%
X149910800Y-102075800D02*
X152110800Y-102075800D01*
X149910800Y-108845800D02*
X153510800Y-108845800D01*
X149910800Y-108845800D02*
X147710800Y-108845800D01*
X149910800Y-102075800D02*
X147710800Y-102075800D01*
%TO.C,R18*%
X156820359Y-107263200D02*
X157127641Y-107263200D01*
X156820359Y-106503200D02*
X157127641Y-106503200D01*
%TO.C,C9*%
X152544452Y-116765400D02*
X152021948Y-116765400D01*
X152544452Y-118235400D02*
X152021948Y-118235400D01*
%TO.C,U5*%
X147066000Y-78760000D02*
X143616000Y-78760000D01*
X147066000Y-88880000D02*
X149016000Y-88880000D01*
X147066000Y-78760000D02*
X149016000Y-78760000D01*
X147066000Y-88880000D02*
X145116000Y-88880000D01*
%TO.C,R9*%
X136498841Y-90399600D02*
X136191559Y-90399600D01*
X136498841Y-91159600D02*
X136191559Y-91159600D01*
%TO.C,R2*%
X126183959Y-80590000D02*
X126491241Y-80590000D01*
X126183959Y-81350000D02*
X126491241Y-81350000D01*
%TO.C,T1*%
X125459360Y-89687400D02*
X121894600Y-89687400D01*
X121894600Y-89687400D02*
X121894600Y-102336600D01*
X128080640Y-102336600D02*
X128459360Y-102336600D01*
X134645400Y-89687400D02*
X131080640Y-89687400D01*
X131080640Y-102336600D02*
X134645400Y-102336600D01*
X134645400Y-102336600D02*
X134645400Y-89687400D01*
X128459360Y-89687400D02*
X128080640Y-89687400D01*
X121894600Y-102336600D02*
X125459360Y-102336600D01*
X129870200Y-88646000D02*
G75*
G03*
X129870200Y-88646000I-76200J0D01*
G01*
%TO.C,R8*%
X139445241Y-91159600D02*
X139137959Y-91159600D01*
X139445241Y-90399600D02*
X139137959Y-90399600D01*
%TO.C,R5*%
X153163241Y-119963200D02*
X152855959Y-119963200D01*
X153163241Y-119203200D02*
X152855959Y-119203200D01*
%TO.C,Q1*%
X129647000Y-122001000D02*
X129647000Y-120501000D01*
X129917000Y-120501000D02*
X129917000Y-119401000D01*
X136547000Y-122001000D02*
X136547000Y-120501000D01*
X136277000Y-120501000D02*
X136277000Y-117671000D01*
X136547000Y-120501000D02*
X136277000Y-120501000D01*
X129647000Y-120501000D02*
X129917000Y-120501000D01*
%TO.C,C6*%
X127360000Y-79429436D02*
X127360000Y-79213764D01*
X126640000Y-79429436D02*
X126640000Y-79213764D01*
%TO.C,R13*%
X147131300Y-75162142D02*
X147131300Y-75636658D01*
X146086300Y-75162142D02*
X146086300Y-75636658D01*
%TO.C,C8*%
X126203764Y-83819200D02*
X126419436Y-83819200D01*
X126203764Y-83099200D02*
X126419436Y-83099200D01*
%TO.C,D3*%
X156641300Y-121286600D02*
X154356300Y-121286600D01*
X154356300Y-122756600D02*
X156641300Y-122756600D01*
X156641300Y-122756600D02*
X156641300Y-121286600D01*
%TO.C,R6*%
X126185959Y-81809200D02*
X126493241Y-81809200D01*
X126185959Y-82569200D02*
X126493241Y-82569200D01*
%TO.C,C5*%
X126191600Y-79429436D02*
X126191600Y-79213764D01*
X125471600Y-79429436D02*
X125471600Y-79213764D01*
%TO.C,J4*%
X163996200Y-91001000D02*
X161046200Y-91001000D01*
X165496200Y-88451000D02*
X166246200Y-88451000D01*
X165496200Y-91751000D02*
X166246200Y-91751000D01*
X165496200Y-80951000D02*
X166246200Y-80951000D01*
X166246200Y-82451000D02*
X165496200Y-82451000D01*
X163996200Y-79151000D02*
X163996200Y-79901000D01*
X165496200Y-89951000D02*
X165496200Y-91751000D01*
X166246200Y-88451000D02*
X166246200Y-82451000D01*
X166246200Y-80951000D02*
X166246200Y-79151000D01*
X166246200Y-91751000D02*
X166246200Y-89951000D01*
X166546200Y-80101000D02*
X166546200Y-78851000D01*
X161046200Y-91001000D02*
X161046200Y-85451000D01*
X163996200Y-91751000D02*
X163996200Y-91001000D01*
X160286200Y-79141000D02*
X160286200Y-91761000D01*
X166246200Y-79151000D02*
X165496200Y-79151000D01*
X166246200Y-89951000D02*
X165496200Y-89951000D01*
X161046200Y-79901000D02*
X161046200Y-85451000D01*
X166256200Y-91761000D02*
X166256200Y-79141000D01*
X163996200Y-79901000D02*
X161046200Y-79901000D01*
X165496200Y-82451000D02*
X165496200Y-88451000D01*
X160286200Y-91761000D02*
X166256200Y-91761000D01*
X165496200Y-79151000D02*
X165496200Y-80951000D01*
X166546200Y-78851000D02*
X165296200Y-78851000D01*
X166256200Y-79141000D02*
X160286200Y-79141000D01*
%TO.C,C10*%
X127686380Y-88394000D02*
X127405220Y-88394000D01*
X127686380Y-87374000D02*
X127405220Y-87374000D01*
%TO.C,U4*%
X151695200Y-98531600D02*
X150435200Y-98531600D01*
X151695200Y-92521600D02*
X151695200Y-98531600D01*
X144875200Y-94771600D02*
X144875200Y-98531600D01*
X144875200Y-98531600D02*
X146135200Y-98531600D01*
%TO.C,C14*%
X153119148Y-89587400D02*
X153641652Y-89587400D01*
X153119148Y-91057400D02*
X153641652Y-91057400D01*
%TO.C,C12*%
X143262400Y-98357563D02*
X143262400Y-97072000D01*
X144289900Y-97859500D02*
X143502400Y-97859500D01*
X136442400Y-92602000D02*
X136442400Y-94952000D01*
X143896150Y-98253250D02*
X143896150Y-97465750D01*
X142197963Y-99422000D02*
X136442400Y-99422000D01*
X136442400Y-99422000D02*
X136442400Y-97072000D01*
X143262400Y-98357563D02*
X142197963Y-99422000D01*
X143262400Y-93666437D02*
X143262400Y-94952000D01*
X143262400Y-93666437D02*
X142197963Y-92602000D01*
X142197963Y-92602000D02*
X136442400Y-92602000D01*
%TO.C,C13*%
X148648748Y-90044600D02*
X149171252Y-90044600D01*
X148648748Y-91514600D02*
X149171252Y-91514600D01*
%TO.C,Q2*%
X137512200Y-86846600D02*
X140342200Y-86846600D01*
X137512200Y-80216600D02*
X137512200Y-80486600D01*
X136012200Y-87116600D02*
X137512200Y-87116600D01*
X137512200Y-80486600D02*
X138612200Y-80486600D01*
X136012200Y-80216600D02*
X137512200Y-80216600D01*
X137512200Y-87116600D02*
X137512200Y-86846600D01*
%TO.C,C4*%
X156116348Y-105738600D02*
X156638852Y-105738600D01*
X156116348Y-104268600D02*
X156638852Y-104268600D01*
%TO.C,D1*%
X130211000Y-114824000D02*
X134111000Y-114824000D01*
X130211000Y-116824000D02*
X134111000Y-116824000D01*
X130211000Y-114824000D02*
X130211000Y-116824000D01*
%TO.C,TP4*%
X157926000Y-112725200D02*
G75*
G03*
X157926000Y-112725200I-700000J0D01*
G01*
%TO.C,R10*%
X149782800Y-113483959D02*
X149782800Y-113791241D01*
X149022800Y-113483959D02*
X149022800Y-113791241D01*
%TO.C,TP3*%
X132907000Y-111379000D02*
G75*
G03*
X132907000Y-111379000I-700000J0D01*
G01*
%TO.C,D4*%
X137800800Y-74906000D02*
X141700800Y-74906000D01*
X137800800Y-71906000D02*
X141700800Y-71906000D01*
X137800800Y-72706000D02*
X137800800Y-71906000D01*
%TO.C,R15*%
X155064837Y-75657800D02*
X153617363Y-75657800D01*
X155064837Y-78367800D02*
X153617363Y-78367800D01*
%TO.C,F1*%
X153617363Y-74964200D02*
X155064837Y-74964200D01*
X153617363Y-72254200D02*
X155064837Y-72254200D01*
%TO.C,TP15*%
X153760400Y-100838000D02*
G75*
G03*
X153760400Y-100838000I-700000J0D01*
G01*
%TO.C,C1*%
X133123000Y-105127652D02*
X133123000Y-104605148D01*
X134593000Y-105127652D02*
X134593000Y-104605148D01*
%TO.C,D2*%
X139788800Y-87646000D02*
X135938800Y-87646000D01*
X139788800Y-89646000D02*
X135938800Y-89646000D01*
X139788800Y-89646000D02*
X139788800Y-87646000D01*
%TO.C,TP12*%
X149493200Y-71780400D02*
G75*
G03*
X149493200Y-71780400I-700000J0D01*
G01*
%TD*%
%LPC*%
D13*
%TO.C,R14*%
X143764000Y-74574400D03*
X143764000Y-76224400D03*
%TD*%
D14*
%TO.C,J3*%
X163796200Y-106923200D03*
D15*
X163796200Y-109423200D03*
X163796200Y-111923200D03*
%TD*%
D16*
%TO.C,U2*%
X124165000Y-80858000D03*
X123515000Y-80858000D03*
X122865000Y-80858000D03*
X122215000Y-80858000D03*
X122215000Y-85258000D03*
X122865000Y-85258000D03*
X123515000Y-85258000D03*
X124165000Y-85258000D03*
%TD*%
D17*
%TO.C,H3*%
X125095000Y-125095000D03*
%TD*%
D18*
%TO.C,R16*%
X156514800Y-108407200D03*
X157534800Y-108407200D03*
%TD*%
D19*
%TO.C,J1*%
X144932400Y-112045200D03*
X144932400Y-115945200D03*
X143662400Y-112045200D03*
X143662400Y-115945200D03*
X142392400Y-112045200D03*
X142392400Y-115945200D03*
X141122400Y-112045200D03*
X141122400Y-115945200D03*
X139852400Y-112045200D03*
X139852400Y-115945200D03*
%TD*%
D20*
%TO.C,TP1*%
X135128000Y-111379000D03*
%TD*%
D17*
%TO.C,H4*%
X163195000Y-125095000D03*
%TD*%
D21*
%TO.C,R7*%
X133938200Y-77978000D03*
X131013200Y-77978000D03*
%TD*%
D18*
%TO.C,R1*%
X136017000Y-115824000D03*
X137037000Y-115824000D03*
%TD*%
D22*
%TO.C,SW2*%
X144439000Y-119559000D03*
X146939000Y-119559000D03*
X149439000Y-119559000D03*
X144439000Y-126059000D03*
X146939000Y-126059000D03*
X149439000Y-126059000D03*
%TD*%
D23*
%TO.C,C11*%
X153238800Y-115519200D03*
X151688800Y-115519200D03*
%TD*%
D24*
%TO.C,R19*%
X155934600Y-86258400D03*
X153009600Y-86258400D03*
%TD*%
%TO.C,R17*%
X155833000Y-81534000D03*
X152908000Y-81534000D03*
%TD*%
D25*
%TO.C,U3*%
X153454800Y-112521500D03*
X152954800Y-112521500D03*
X152454800Y-112521500D03*
X151954800Y-112521500D03*
D26*
X151942300Y-113034000D03*
X151942300Y-113534000D03*
D25*
X151954800Y-114046500D03*
X152454800Y-114046500D03*
X152954800Y-114046500D03*
X153454800Y-114046500D03*
D26*
X153467300Y-113534000D03*
X153467300Y-113034000D03*
%TD*%
D27*
%TO.C,C7*%
X155422000Y-103022400D03*
X156972000Y-103022400D03*
%TD*%
D28*
%TO.C,J2*%
X124206000Y-117602000D03*
D29*
X124206000Y-115102000D03*
%TD*%
D30*
%TO.C,R12*%
X156006800Y-123748800D03*
X154356800Y-123748800D03*
%TD*%
D31*
%TO.C,C3*%
X124206000Y-87757000D03*
X122306000Y-87757000D03*
%TD*%
D32*
%TO.C,C2*%
X128938000Y-107569000D03*
X123538000Y-107569000D03*
%TD*%
D33*
%TO.C,R3*%
X146964400Y-112264000D03*
X146964400Y-113284000D03*
%TD*%
D13*
%TO.C,R11*%
X149453600Y-74574400D03*
X149453600Y-76224400D03*
%TD*%
D18*
%TO.C,R4*%
X125776800Y-84785200D03*
X126796800Y-84785200D03*
%TD*%
D34*
%TO.C,TP11*%
X152654000Y-111455200D03*
%TD*%
D35*
%TO.C,C15*%
X155905200Y-98864400D03*
X155905200Y-93464400D03*
%TD*%
D36*
%TO.C,SW1*%
X144238800Y-107456800D03*
X136278800Y-107456800D03*
X144238800Y-102956800D03*
X136278800Y-102956800D03*
%TD*%
D20*
%TO.C,TP7*%
X161950400Y-101650800D03*
%TD*%
D37*
%TO.C,U1*%
X152773300Y-108385800D03*
X152773300Y-107735800D03*
X152773300Y-107085800D03*
X152773300Y-106435800D03*
X152773300Y-105785800D03*
X152773300Y-105135800D03*
X152773300Y-104485800D03*
X152773300Y-103835800D03*
X152773300Y-103185800D03*
X152773300Y-102535800D03*
X147048300Y-102535800D03*
X147048300Y-103185800D03*
X147048300Y-103835800D03*
X147048300Y-104485800D03*
X147048300Y-105135800D03*
X147048300Y-105785800D03*
X147048300Y-106435800D03*
X147048300Y-107085800D03*
X147048300Y-107735800D03*
X147048300Y-108385800D03*
%TD*%
D18*
%TO.C,R18*%
X156464000Y-106883200D03*
X157484000Y-106883200D03*
%TD*%
D31*
%TO.C,C9*%
X153233200Y-117500400D03*
X151333200Y-117500400D03*
%TD*%
D38*
%TO.C,U5*%
X144591000Y-79375000D03*
X144591000Y-80645000D03*
X144591000Y-81915000D03*
X144591000Y-83185000D03*
X144591000Y-84455000D03*
X144591000Y-85725000D03*
X144591000Y-86995000D03*
X144591000Y-88265000D03*
X149541000Y-88265000D03*
X149541000Y-86995000D03*
X149541000Y-85725000D03*
X149541000Y-84455000D03*
X149541000Y-83185000D03*
X149541000Y-81915000D03*
X149541000Y-80645000D03*
X149541000Y-79375000D03*
%TD*%
D34*
%TO.C,TP13*%
X152400000Y-110642400D03*
%TD*%
%TO.C,TP8*%
X151028400Y-110490000D03*
%TD*%
D39*
%TO.C,R9*%
X136855200Y-90779600D03*
X135835200Y-90779600D03*
%TD*%
D18*
%TO.C,R2*%
X125827600Y-80970000D03*
X126847600Y-80970000D03*
%TD*%
D40*
%TO.C,T1*%
X129770000Y-90690700D03*
X126770000Y-90690700D03*
X126770000Y-101333300D03*
X129770000Y-101333300D03*
%TD*%
D39*
%TO.C,R8*%
X139801600Y-90779600D03*
X138781600Y-90779600D03*
%TD*%
%TO.C,R5*%
X153519600Y-119583200D03*
X152499600Y-119583200D03*
%TD*%
D41*
%TO.C,Q1*%
X135377000Y-118771000D03*
D42*
X133097000Y-125071000D03*
D41*
X130817000Y-118771000D03*
%TD*%
D43*
%TO.C,C6*%
X127000000Y-79801600D03*
X127000000Y-78841600D03*
%TD*%
D13*
%TO.C,R13*%
X146608800Y-74574400D03*
X146608800Y-76224400D03*
%TD*%
D44*
%TO.C,C8*%
X125831600Y-83459200D03*
X126791600Y-83459200D03*
%TD*%
D45*
%TO.C,D3*%
X155943800Y-122021600D03*
X154368800Y-122021600D03*
%TD*%
D18*
%TO.C,R6*%
X125829600Y-82189200D03*
X126849600Y-82189200D03*
%TD*%
D43*
%TO.C,C5*%
X125831600Y-79801600D03*
X125831600Y-78841600D03*
%TD*%
D14*
%TO.C,J4*%
X163796200Y-81701000D03*
D15*
X163796200Y-84201000D03*
X163796200Y-86701000D03*
X163796200Y-89201000D03*
%TD*%
D23*
%TO.C,C10*%
X128320800Y-87884000D03*
X126770800Y-87884000D03*
%TD*%
D46*
%TO.C,U4*%
X150585200Y-93471600D03*
X148285200Y-93471600D03*
D47*
X148285200Y-99771600D03*
D46*
X145985200Y-93471600D03*
%TD*%
D48*
%TO.C,C14*%
X152430400Y-90322400D03*
X154330400Y-90322400D03*
%TD*%
D32*
%TO.C,C12*%
X142652400Y-96012000D03*
X137052400Y-96012000D03*
%TD*%
D48*
%TO.C,C13*%
X147960000Y-90779600D03*
X149860000Y-90779600D03*
%TD*%
D34*
%TO.C,TP2*%
X138176000Y-109931200D03*
%TD*%
%TO.C,TP10*%
X151688800Y-111556800D03*
%TD*%
D49*
%TO.C,Q2*%
X139242200Y-85946600D03*
D50*
X132942200Y-83666600D03*
D49*
X139242200Y-81386600D03*
%TD*%
D34*
%TO.C,TP14*%
X153822400Y-111252000D03*
%TD*%
D48*
%TO.C,C4*%
X155427600Y-105003600D03*
X157327600Y-105003600D03*
%TD*%
D17*
%TO.C,H2*%
X163195000Y-74295000D03*
%TD*%
D51*
%TO.C,D1*%
X130811000Y-115824000D03*
X134111000Y-115824000D03*
%TD*%
D20*
%TO.C,TP4*%
X157226000Y-112725200D03*
%TD*%
D33*
%TO.C,R10*%
X149402800Y-113127600D03*
X149402800Y-114147600D03*
%TD*%
D20*
%TO.C,TP3*%
X132207000Y-111379000D03*
%TD*%
D52*
%TO.C,D4*%
X138500800Y-72706000D03*
X138500800Y-74106000D03*
X141000800Y-74106000D03*
X141000800Y-72706000D03*
%TD*%
D24*
%TO.C,R15*%
X155803600Y-77012800D03*
X152878600Y-77012800D03*
%TD*%
D17*
%TO.C,H1*%
X125095000Y-74295000D03*
%TD*%
D53*
%TO.C,F1*%
X152878600Y-73609200D03*
X155803600Y-73609200D03*
%TD*%
D34*
%TO.C,TP9*%
X150317200Y-110896400D03*
%TD*%
D20*
%TO.C,TP15*%
X153060400Y-100838000D03*
%TD*%
D54*
%TO.C,C1*%
X133858000Y-105816400D03*
X133858000Y-103916400D03*
%TD*%
D55*
%TO.C,D2*%
X138988800Y-88646000D03*
X136188800Y-88646000D03*
%TD*%
D20*
%TO.C,TP12*%
X148793200Y-71780400D03*
%TD*%
M02*
