%TF.GenerationSoftware,KiCad,Pcbnew,(6.0.1-0)*%
%TF.CreationDate,2022-04-18T21:10:33-05:00*%
%TF.ProjectId,tackle_sensor_hardware,7461636b-6c65-45f7-9365-6e736f725f68,rev?*%
%TF.SameCoordinates,Original*%
%TF.FileFunction,Legend,Bot*%
%TF.FilePolarity,Positive*%
%FSLAX46Y46*%
G04 Gerber Fmt 4.6, Leading zero omitted, Abs format (unit mm)*
G04 Created by KiCad (PCBNEW (6.0.1-0)) date 2022-04-18 21:10:33*
%MOMM*%
%LPD*%
G01*
G04 APERTURE LIST*
G04 Aperture macros list*
%AMRoundRect*
0 Rectangle with rounded corners*
0 $1 Rounding radius*
0 $2 $3 $4 $5 $6 $7 $8 $9 X,Y pos of 4 corners*
0 Add a 4 corners polygon primitive as box body*
4,1,4,$2,$3,$4,$5,$6,$7,$8,$9,$2,$3,0*
0 Add four circle primitives for the rounded corners*
1,1,$1+$1,$2,$3*
1,1,$1+$1,$4,$5*
1,1,$1+$1,$6,$7*
1,1,$1+$1,$8,$9*
0 Add four rect primitives between the rounded corners*
20,1,$1+$1,$2,$3,$4,$5,0*
20,1,$1+$1,$4,$5,$6,$7,0*
20,1,$1+$1,$6,$7,$8,$9,0*
20,1,$1+$1,$8,$9,$2,$3,0*%
G04 Aperture macros list end*
%ADD10C,0.150000*%
%ADD11C,0.120000*%
%ADD12RoundRect,0.250000X-0.725000X0.600000X-0.725000X-0.600000X0.725000X-0.600000X0.725000X0.600000X0*%
%ADD13O,1.950000X1.700000*%
%ADD14C,3.200000*%
%ADD15RoundRect,0.250000X0.750000X-0.600000X0.750000X0.600000X-0.750000X0.600000X-0.750000X-0.600000X0*%
%ADD16O,2.000000X1.700000*%
%ADD17R,1.000000X1.000000*%
%ADD18O,1.000000X1.000000*%
%ADD19C,1.500000*%
G04 APERTURE END LIST*
D10*
X168902971Y-120262180D02*
X169236304Y-119785990D01*
X169474400Y-120262180D02*
X169474400Y-119262180D01*
X169093447Y-119262180D01*
X168998209Y-119309800D01*
X168950590Y-119357419D01*
X168902971Y-119452657D01*
X168902971Y-119595514D01*
X168950590Y-119690752D01*
X168998209Y-119738371D01*
X169093447Y-119785990D01*
X169474400Y-119785990D01*
X168331542Y-120262180D02*
X168426780Y-120214561D01*
X168474400Y-120166942D01*
X168522019Y-120071704D01*
X168522019Y-119785990D01*
X168474400Y-119690752D01*
X168426780Y-119643133D01*
X168331542Y-119595514D01*
X168188685Y-119595514D01*
X168093447Y-119643133D01*
X168045828Y-119690752D01*
X167998209Y-119785990D01*
X167998209Y-120071704D01*
X168045828Y-120166942D01*
X168093447Y-120214561D01*
X168188685Y-120262180D01*
X168331542Y-120262180D01*
X167569638Y-120262180D02*
X167569638Y-119262180D01*
X167569638Y-119643133D02*
X167474400Y-119595514D01*
X167283923Y-119595514D01*
X167188685Y-119643133D01*
X167141066Y-119690752D01*
X167093447Y-119785990D01*
X167093447Y-120071704D01*
X167141066Y-120166942D01*
X167188685Y-120214561D01*
X167283923Y-120262180D01*
X167474400Y-120262180D01*
X167569638Y-120214561D01*
X166522019Y-120262180D02*
X166617257Y-120214561D01*
X166664876Y-120166942D01*
X166712495Y-120071704D01*
X166712495Y-119785990D01*
X166664876Y-119690752D01*
X166617257Y-119643133D01*
X166522019Y-119595514D01*
X166379161Y-119595514D01*
X166283923Y-119643133D01*
X166236304Y-119690752D01*
X166188685Y-119785990D01*
X166188685Y-120071704D01*
X166236304Y-120166942D01*
X166283923Y-120214561D01*
X166379161Y-120262180D01*
X166522019Y-120262180D01*
X165902971Y-119595514D02*
X165522019Y-119595514D01*
X165760114Y-119262180D02*
X165760114Y-120119323D01*
X165712495Y-120214561D01*
X165617257Y-120262180D01*
X165522019Y-120262180D01*
X165188685Y-120262180D02*
X165188685Y-119595514D01*
X165188685Y-119262180D02*
X165236304Y-119309800D01*
X165188685Y-119357419D01*
X165141066Y-119309800D01*
X165188685Y-119262180D01*
X165188685Y-119357419D01*
X164283923Y-120214561D02*
X164379161Y-120262180D01*
X164569638Y-120262180D01*
X164664876Y-120214561D01*
X164712495Y-120166942D01*
X164760114Y-120071704D01*
X164760114Y-119785990D01*
X164712495Y-119690752D01*
X164664876Y-119643133D01*
X164569638Y-119595514D01*
X164379161Y-119595514D01*
X164283923Y-119643133D01*
X162760114Y-119738371D02*
X163093447Y-119738371D01*
X163093447Y-120262180D02*
X163093447Y-119262180D01*
X162617257Y-119262180D01*
X162093447Y-120262180D02*
X162188685Y-120214561D01*
X162236304Y-120166942D01*
X162283923Y-120071704D01*
X162283923Y-119785990D01*
X162236304Y-119690752D01*
X162188685Y-119643133D01*
X162093447Y-119595514D01*
X161950590Y-119595514D01*
X161855352Y-119643133D01*
X161807733Y-119690752D01*
X161760114Y-119785990D01*
X161760114Y-120071704D01*
X161807733Y-120166942D01*
X161855352Y-120214561D01*
X161950590Y-120262180D01*
X162093447Y-120262180D01*
X161188685Y-120262180D02*
X161283923Y-120214561D01*
X161331542Y-120166942D01*
X161379161Y-120071704D01*
X161379161Y-119785990D01*
X161331542Y-119690752D01*
X161283923Y-119643133D01*
X161188685Y-119595514D01*
X161045828Y-119595514D01*
X160950590Y-119643133D01*
X160902971Y-119690752D01*
X160855352Y-119785990D01*
X160855352Y-120071704D01*
X160902971Y-120166942D01*
X160950590Y-120214561D01*
X161045828Y-120262180D01*
X161188685Y-120262180D01*
X160569638Y-119595514D02*
X160188685Y-119595514D01*
X160426780Y-119262180D02*
X160426780Y-120119323D01*
X160379161Y-120214561D01*
X160283923Y-120262180D01*
X160188685Y-120262180D01*
X159855352Y-120262180D02*
X159855352Y-119262180D01*
X159855352Y-119643133D02*
X159760114Y-119595514D01*
X159569638Y-119595514D01*
X159474400Y-119643133D01*
X159426780Y-119690752D01*
X159379161Y-119785990D01*
X159379161Y-120071704D01*
X159426780Y-120166942D01*
X159474400Y-120214561D01*
X159569638Y-120262180D01*
X159760114Y-120262180D01*
X159855352Y-120214561D01*
X158522019Y-120262180D02*
X158522019Y-119738371D01*
X158569638Y-119643133D01*
X158664876Y-119595514D01*
X158855352Y-119595514D01*
X158950590Y-119643133D01*
X158522019Y-120214561D02*
X158617257Y-120262180D01*
X158855352Y-120262180D01*
X158950590Y-120214561D01*
X158998209Y-120119323D01*
X158998209Y-120024085D01*
X158950590Y-119928847D01*
X158855352Y-119881228D01*
X158617257Y-119881228D01*
X158522019Y-119833609D01*
X157902971Y-120262180D02*
X157998209Y-120214561D01*
X158045828Y-120119323D01*
X158045828Y-119262180D01*
X157379161Y-120262180D02*
X157474400Y-120214561D01*
X157522019Y-120119323D01*
X157522019Y-119262180D01*
X168641066Y-120872180D02*
X168069638Y-120872180D01*
X168355352Y-121872180D02*
X168355352Y-120872180D01*
X167307733Y-121872180D02*
X167307733Y-121348371D01*
X167355352Y-121253133D01*
X167450590Y-121205514D01*
X167641066Y-121205514D01*
X167736304Y-121253133D01*
X167307733Y-121824561D02*
X167402971Y-121872180D01*
X167641066Y-121872180D01*
X167736304Y-121824561D01*
X167783923Y-121729323D01*
X167783923Y-121634085D01*
X167736304Y-121538847D01*
X167641066Y-121491228D01*
X167402971Y-121491228D01*
X167307733Y-121443609D01*
X166402971Y-121824561D02*
X166498209Y-121872180D01*
X166688685Y-121872180D01*
X166783923Y-121824561D01*
X166831542Y-121776942D01*
X166879161Y-121681704D01*
X166879161Y-121395990D01*
X166831542Y-121300752D01*
X166783923Y-121253133D01*
X166688685Y-121205514D01*
X166498209Y-121205514D01*
X166402971Y-121253133D01*
X165974400Y-121872180D02*
X165974400Y-120872180D01*
X165879161Y-121491228D02*
X165593447Y-121872180D01*
X165593447Y-121205514D02*
X165974400Y-121586466D01*
X165022019Y-121872180D02*
X165117257Y-121824561D01*
X165164876Y-121729323D01*
X165164876Y-120872180D01*
X164260114Y-121824561D02*
X164355352Y-121872180D01*
X164545828Y-121872180D01*
X164641066Y-121824561D01*
X164688685Y-121729323D01*
X164688685Y-121348371D01*
X164641066Y-121253133D01*
X164545828Y-121205514D01*
X164355352Y-121205514D01*
X164260114Y-121253133D01*
X164212495Y-121348371D01*
X164212495Y-121443609D01*
X164688685Y-121538847D01*
X163069638Y-121824561D02*
X162926780Y-121872180D01*
X162688685Y-121872180D01*
X162593447Y-121824561D01*
X162545828Y-121776942D01*
X162498209Y-121681704D01*
X162498209Y-121586466D01*
X162545828Y-121491228D01*
X162593447Y-121443609D01*
X162688685Y-121395990D01*
X162879161Y-121348371D01*
X162974400Y-121300752D01*
X163022019Y-121253133D01*
X163069638Y-121157895D01*
X163069638Y-121062657D01*
X163022019Y-120967419D01*
X162974400Y-120919800D01*
X162879161Y-120872180D01*
X162641066Y-120872180D01*
X162498209Y-120919800D01*
X161688685Y-121824561D02*
X161783923Y-121872180D01*
X161974400Y-121872180D01*
X162069638Y-121824561D01*
X162117257Y-121729323D01*
X162117257Y-121348371D01*
X162069638Y-121253133D01*
X161974400Y-121205514D01*
X161783923Y-121205514D01*
X161688685Y-121253133D01*
X161641066Y-121348371D01*
X161641066Y-121443609D01*
X162117257Y-121538847D01*
X161212495Y-121205514D02*
X161212495Y-121872180D01*
X161212495Y-121300752D02*
X161164876Y-121253133D01*
X161069638Y-121205514D01*
X160926780Y-121205514D01*
X160831542Y-121253133D01*
X160783923Y-121348371D01*
X160783923Y-121872180D01*
X160355352Y-121824561D02*
X160260114Y-121872180D01*
X160069638Y-121872180D01*
X159974400Y-121824561D01*
X159926780Y-121729323D01*
X159926780Y-121681704D01*
X159974400Y-121586466D01*
X160069638Y-121538847D01*
X160212495Y-121538847D01*
X160307733Y-121491228D01*
X160355352Y-121395990D01*
X160355352Y-121348371D01*
X160307733Y-121253133D01*
X160212495Y-121205514D01*
X160069638Y-121205514D01*
X159974400Y-121253133D01*
X159355352Y-121872180D02*
X159450590Y-121824561D01*
X159498209Y-121776942D01*
X159545828Y-121681704D01*
X159545828Y-121395990D01*
X159498209Y-121300752D01*
X159450590Y-121253133D01*
X159355352Y-121205514D01*
X159212495Y-121205514D01*
X159117257Y-121253133D01*
X159069638Y-121300752D01*
X159022019Y-121395990D01*
X159022019Y-121681704D01*
X159069638Y-121776942D01*
X159117257Y-121824561D01*
X159212495Y-121872180D01*
X159355352Y-121872180D01*
X158593447Y-121872180D02*
X158593447Y-121205514D01*
X158593447Y-121395990D02*
X158545828Y-121300752D01*
X158498209Y-121253133D01*
X158402971Y-121205514D01*
X158307733Y-121205514D01*
X164998209Y-122482180D02*
X164664876Y-123482180D01*
X164331542Y-122482180D01*
X163807733Y-122482180D02*
X163712495Y-122482180D01*
X163617257Y-122529800D01*
X163569638Y-122577419D01*
X163522019Y-122672657D01*
X163474400Y-122863133D01*
X163474400Y-123101228D01*
X163522019Y-123291704D01*
X163569638Y-123386942D01*
X163617257Y-123434561D01*
X163712495Y-123482180D01*
X163807733Y-123482180D01*
X163902971Y-123434561D01*
X163950590Y-123386942D01*
X163998209Y-123291704D01*
X164045828Y-123101228D01*
X164045828Y-122863133D01*
X163998209Y-122672657D01*
X163950590Y-122577419D01*
X163902971Y-122529800D01*
X163807733Y-122482180D01*
X163045828Y-123386942D02*
X162998209Y-123434561D01*
X163045828Y-123482180D01*
X163093447Y-123434561D01*
X163045828Y-123386942D01*
X163045828Y-123482180D01*
X162379161Y-122482180D02*
X162283923Y-122482180D01*
X162188685Y-122529800D01*
X162141066Y-122577419D01*
X162093447Y-122672657D01*
X162045828Y-122863133D01*
X162045828Y-123101228D01*
X162093447Y-123291704D01*
X162141066Y-123386942D01*
X162188685Y-123434561D01*
X162283923Y-123482180D01*
X162379161Y-123482180D01*
X162474400Y-123434561D01*
X162522019Y-123386942D01*
X162569638Y-123291704D01*
X162617257Y-123101228D01*
X162617257Y-122863133D01*
X162569638Y-122672657D01*
X162522019Y-122577419D01*
X162474400Y-122529800D01*
X162379161Y-122482180D01*
X167188685Y-124425514D02*
X167188685Y-125092180D01*
X167426780Y-124044561D02*
X167664876Y-124758847D01*
X167045828Y-124758847D01*
X165950590Y-124044561D02*
X166807733Y-125330276D01*
X165093447Y-125092180D02*
X165664876Y-125092180D01*
X165379161Y-125092180D02*
X165379161Y-124092180D01*
X165474400Y-124235038D01*
X165569638Y-124330276D01*
X165664876Y-124377895D01*
X164522019Y-124520752D02*
X164617257Y-124473133D01*
X164664876Y-124425514D01*
X164712495Y-124330276D01*
X164712495Y-124282657D01*
X164664876Y-124187419D01*
X164617257Y-124139800D01*
X164522019Y-124092180D01*
X164331542Y-124092180D01*
X164236304Y-124139800D01*
X164188685Y-124187419D01*
X164141066Y-124282657D01*
X164141066Y-124330276D01*
X164188685Y-124425514D01*
X164236304Y-124473133D01*
X164331542Y-124520752D01*
X164522019Y-124520752D01*
X164617257Y-124568371D01*
X164664876Y-124615990D01*
X164712495Y-124711228D01*
X164712495Y-124901704D01*
X164664876Y-124996942D01*
X164617257Y-125044561D01*
X164522019Y-125092180D01*
X164331542Y-125092180D01*
X164236304Y-125044561D01*
X164188685Y-124996942D01*
X164141066Y-124901704D01*
X164141066Y-124711228D01*
X164188685Y-124615990D01*
X164236304Y-124568371D01*
X164331542Y-124520752D01*
X162998209Y-124044561D02*
X163855352Y-125330276D01*
X162712495Y-124187419D02*
X162664876Y-124139800D01*
X162569638Y-124092180D01*
X162331542Y-124092180D01*
X162236304Y-124139800D01*
X162188685Y-124187419D01*
X162141066Y-124282657D01*
X162141066Y-124377895D01*
X162188685Y-124520752D01*
X162760114Y-125092180D01*
X162141066Y-125092180D01*
X161522019Y-124092180D02*
X161426780Y-124092180D01*
X161331542Y-124139800D01*
X161283923Y-124187419D01*
X161236304Y-124282657D01*
X161188685Y-124473133D01*
X161188685Y-124711228D01*
X161236304Y-124901704D01*
X161283923Y-124996942D01*
X161331542Y-125044561D01*
X161426780Y-125092180D01*
X161522019Y-125092180D01*
X161617257Y-125044561D01*
X161664876Y-124996942D01*
X161712495Y-124901704D01*
X161760114Y-124711228D01*
X161760114Y-124473133D01*
X161712495Y-124282657D01*
X161664876Y-124187419D01*
X161617257Y-124139800D01*
X161522019Y-124092180D01*
X160807733Y-124187419D02*
X160760114Y-124139800D01*
X160664876Y-124092180D01*
X160426780Y-124092180D01*
X160331542Y-124139800D01*
X160283923Y-124187419D01*
X160236304Y-124282657D01*
X160236304Y-124377895D01*
X160283923Y-124520752D01*
X160855352Y-125092180D01*
X160236304Y-125092180D01*
X159855352Y-124187419D02*
X159807733Y-124139800D01*
X159712495Y-124092180D01*
X159474400Y-124092180D01*
X159379161Y-124139800D01*
X159331542Y-124187419D01*
X159283923Y-124282657D01*
X159283923Y-124377895D01*
X159331542Y-124520752D01*
X159902971Y-125092180D01*
X159283923Y-125092180D01*
%TO.C,TP7*%
X144644904Y-110831380D02*
X144073476Y-110831380D01*
X144359190Y-111831380D02*
X144359190Y-110831380D01*
X143740142Y-111831380D02*
X143740142Y-110831380D01*
X143359190Y-110831380D01*
X143263952Y-110879000D01*
X143216333Y-110926619D01*
X143168714Y-111021857D01*
X143168714Y-111164714D01*
X143216333Y-111259952D01*
X143263952Y-111307571D01*
X143359190Y-111355190D01*
X143740142Y-111355190D01*
X142835380Y-110831380D02*
X142168714Y-110831380D01*
X142597285Y-111831380D01*
%TO.C,TP5*%
X163313904Y-106640380D02*
X162742476Y-106640380D01*
X163028190Y-107640380D02*
X163028190Y-106640380D01*
X162409142Y-107640380D02*
X162409142Y-106640380D01*
X162028190Y-106640380D01*
X161932952Y-106688000D01*
X161885333Y-106735619D01*
X161837714Y-106830857D01*
X161837714Y-106973714D01*
X161885333Y-107068952D01*
X161932952Y-107116571D01*
X162028190Y-107164190D01*
X162409142Y-107164190D01*
X160932952Y-106640380D02*
X161409142Y-106640380D01*
X161456761Y-107116571D01*
X161409142Y-107068952D01*
X161313904Y-107021333D01*
X161075809Y-107021333D01*
X160980571Y-107068952D01*
X160932952Y-107116571D01*
X160885333Y-107211809D01*
X160885333Y-107449904D01*
X160932952Y-107545142D01*
X160980571Y-107592761D01*
X161075809Y-107640380D01*
X161313904Y-107640380D01*
X161409142Y-107592761D01*
X161456761Y-107545142D01*
%TO.C,TP13*%
X151471095Y-102833380D02*
X150899666Y-102833380D01*
X151185380Y-103833380D02*
X151185380Y-102833380D01*
X150566333Y-103833380D02*
X150566333Y-102833380D01*
X150185380Y-102833380D01*
X150090142Y-102881000D01*
X150042523Y-102928619D01*
X149994904Y-103023857D01*
X149994904Y-103166714D01*
X150042523Y-103261952D01*
X150090142Y-103309571D01*
X150185380Y-103357190D01*
X150566333Y-103357190D01*
X149042523Y-103833380D02*
X149613952Y-103833380D01*
X149328238Y-103833380D02*
X149328238Y-102833380D01*
X149423476Y-102976238D01*
X149518714Y-103071476D01*
X149613952Y-103119095D01*
X148709190Y-102833380D02*
X148090142Y-102833380D01*
X148423476Y-103214333D01*
X148280619Y-103214333D01*
X148185380Y-103261952D01*
X148137761Y-103309571D01*
X148090142Y-103404809D01*
X148090142Y-103642904D01*
X148137761Y-103738142D01*
X148185380Y-103785761D01*
X148280619Y-103833380D01*
X148566333Y-103833380D01*
X148661571Y-103785761D01*
X148709190Y-103738142D01*
%TO.C,TP8*%
X144263904Y-113879380D02*
X143692476Y-113879380D01*
X143978190Y-114879380D02*
X143978190Y-113879380D01*
X143359142Y-114879380D02*
X143359142Y-113879380D01*
X142978190Y-113879380D01*
X142882952Y-113927000D01*
X142835333Y-113974619D01*
X142787714Y-114069857D01*
X142787714Y-114212714D01*
X142835333Y-114307952D01*
X142882952Y-114355571D01*
X142978190Y-114403190D01*
X143359142Y-114403190D01*
X142216285Y-114307952D02*
X142311523Y-114260333D01*
X142359142Y-114212714D01*
X142406761Y-114117476D01*
X142406761Y-114069857D01*
X142359142Y-113974619D01*
X142311523Y-113927000D01*
X142216285Y-113879380D01*
X142025809Y-113879380D01*
X141930571Y-113927000D01*
X141882952Y-113974619D01*
X141835333Y-114069857D01*
X141835333Y-114117476D01*
X141882952Y-114212714D01*
X141930571Y-114260333D01*
X142025809Y-114307952D01*
X142216285Y-114307952D01*
X142311523Y-114355571D01*
X142359142Y-114403190D01*
X142406761Y-114498428D01*
X142406761Y-114688904D01*
X142359142Y-114784142D01*
X142311523Y-114831761D01*
X142216285Y-114879380D01*
X142025809Y-114879380D01*
X141930571Y-114831761D01*
X141882952Y-114784142D01*
X141835333Y-114688904D01*
X141835333Y-114498428D01*
X141882952Y-114403190D01*
X141930571Y-114355571D01*
X142025809Y-114307952D01*
%TO.C,TP6*%
X161281904Y-109180380D02*
X160710476Y-109180380D01*
X160996190Y-110180380D02*
X160996190Y-109180380D01*
X160377142Y-110180380D02*
X160377142Y-109180380D01*
X159996190Y-109180380D01*
X159900952Y-109228000D01*
X159853333Y-109275619D01*
X159805714Y-109370857D01*
X159805714Y-109513714D01*
X159853333Y-109608952D01*
X159900952Y-109656571D01*
X159996190Y-109704190D01*
X160377142Y-109704190D01*
X158948571Y-109180380D02*
X159139047Y-109180380D01*
X159234285Y-109228000D01*
X159281904Y-109275619D01*
X159377142Y-109418476D01*
X159424761Y-109608952D01*
X159424761Y-109989904D01*
X159377142Y-110085142D01*
X159329523Y-110132761D01*
X159234285Y-110180380D01*
X159043809Y-110180380D01*
X158948571Y-110132761D01*
X158900952Y-110085142D01*
X158853333Y-109989904D01*
X158853333Y-109751809D01*
X158900952Y-109656571D01*
X158948571Y-109608952D01*
X159043809Y-109561333D01*
X159234285Y-109561333D01*
X159329523Y-109608952D01*
X159377142Y-109656571D01*
X159424761Y-109751809D01*
%TO.C,TP14*%
X156170095Y-102703380D02*
X155598666Y-102703380D01*
X155884380Y-103703380D02*
X155884380Y-102703380D01*
X155265333Y-103703380D02*
X155265333Y-102703380D01*
X154884380Y-102703380D01*
X154789142Y-102751000D01*
X154741523Y-102798619D01*
X154693904Y-102893857D01*
X154693904Y-103036714D01*
X154741523Y-103131952D01*
X154789142Y-103179571D01*
X154884380Y-103227190D01*
X155265333Y-103227190D01*
X153741523Y-103703380D02*
X154312952Y-103703380D01*
X154027238Y-103703380D02*
X154027238Y-102703380D01*
X154122476Y-102846238D01*
X154217714Y-102941476D01*
X154312952Y-102989095D01*
X152884380Y-103036714D02*
X152884380Y-103703380D01*
X153122476Y-102655761D02*
X153360571Y-103370047D01*
X152741523Y-103370047D01*
%TO.C,TP4*%
X165345904Y-113371380D02*
X164774476Y-113371380D01*
X165060190Y-114371380D02*
X165060190Y-113371380D01*
X164441142Y-114371380D02*
X164441142Y-113371380D01*
X164060190Y-113371380D01*
X163964952Y-113419000D01*
X163917333Y-113466619D01*
X163869714Y-113561857D01*
X163869714Y-113704714D01*
X163917333Y-113799952D01*
X163964952Y-113847571D01*
X164060190Y-113895190D01*
X164441142Y-113895190D01*
X163012571Y-113704714D02*
X163012571Y-114371380D01*
X163250666Y-113323761D02*
X163488761Y-114038047D01*
X162869714Y-114038047D01*
%TO.C,TP9*%
X163567904Y-111339380D02*
X162996476Y-111339380D01*
X163282190Y-112339380D02*
X163282190Y-111339380D01*
X162663142Y-112339380D02*
X162663142Y-111339380D01*
X162282190Y-111339380D01*
X162186952Y-111387000D01*
X162139333Y-111434619D01*
X162091714Y-111529857D01*
X162091714Y-111672714D01*
X162139333Y-111767952D01*
X162186952Y-111815571D01*
X162282190Y-111863190D01*
X162663142Y-111863190D01*
X161615523Y-112339380D02*
X161425047Y-112339380D01*
X161329809Y-112291761D01*
X161282190Y-112244142D01*
X161186952Y-112101285D01*
X161139333Y-111910809D01*
X161139333Y-111529857D01*
X161186952Y-111434619D01*
X161234571Y-111387000D01*
X161329809Y-111339380D01*
X161520285Y-111339380D01*
X161615523Y-111387000D01*
X161663142Y-111434619D01*
X161710761Y-111529857D01*
X161710761Y-111767952D01*
X161663142Y-111863190D01*
X161615523Y-111910809D01*
X161520285Y-111958428D01*
X161329809Y-111958428D01*
X161234571Y-111910809D01*
X161186952Y-111863190D01*
X161139333Y-111767952D01*
%TO.C,G\u002A\u002A\u002A*%
G36*
X151552240Y-89659693D02*
G01*
X151558337Y-89694267D01*
X151473424Y-89731630D01*
X151442139Y-89731126D01*
X151355026Y-89705967D01*
X151428965Y-89636468D01*
X151454068Y-89625350D01*
X151552240Y-89659693D01*
G37*
G36*
X151096148Y-89717519D02*
G01*
X151053815Y-89759852D01*
X151011482Y-89717519D01*
X151053815Y-89675185D01*
X151096148Y-89717519D01*
G37*
G36*
X151058708Y-89340328D02*
G01*
X151138482Y-89421185D01*
X151154252Y-89451162D01*
X151148475Y-89505852D01*
X151133589Y-89502042D01*
X151053815Y-89421185D01*
X151038045Y-89391209D01*
X151043822Y-89336519D01*
X151058708Y-89340328D01*
G37*
G36*
X147759126Y-89252746D02*
G01*
X148498945Y-89256173D01*
X149169361Y-89261907D01*
X149753721Y-89269665D01*
X150235368Y-89279169D01*
X150597649Y-89290138D01*
X150823907Y-89302293D01*
X150897489Y-89315352D01*
X150844781Y-89325294D01*
X150638890Y-89337785D01*
X150293788Y-89349139D01*
X149826684Y-89359072D01*
X149254789Y-89367296D01*
X148595313Y-89373525D01*
X147865468Y-89377472D01*
X147082463Y-89378852D01*
X146485044Y-89378052D01*
X145743670Y-89374705D01*
X145069786Y-89369011D01*
X144480364Y-89361258D01*
X143992380Y-89351730D01*
X143622806Y-89340712D01*
X143388617Y-89328491D01*
X143306786Y-89315352D01*
X143359453Y-89304837D01*
X143564523Y-89292466D01*
X143908541Y-89281228D01*
X144374620Y-89271402D01*
X144945873Y-89263270D01*
X145605414Y-89257114D01*
X146336355Y-89253214D01*
X147121812Y-89251852D01*
X147759126Y-89252746D01*
G37*
G36*
X149074410Y-88735769D02*
G01*
X149109050Y-88778287D01*
X149111041Y-88905808D01*
X149087890Y-88935464D01*
X148964118Y-88997852D01*
X148920914Y-88981199D01*
X148968380Y-88884228D01*
X149011025Y-88817685D01*
X149021786Y-88714189D01*
X149013823Y-88696619D01*
X149074410Y-88735769D01*
G37*
G36*
X148740895Y-88894731D02*
G01*
X148743133Y-88897012D01*
X148738959Y-88943319D01*
X148583735Y-88928044D01*
X148514061Y-88912629D01*
X148429235Y-88876937D01*
X148501642Y-88845951D01*
X148596453Y-88840768D01*
X148740895Y-88894731D01*
G37*
G36*
X147956051Y-88932074D02*
G01*
X147944928Y-88933864D01*
X147692448Y-88949606D01*
X147393744Y-88935976D01*
X147102698Y-88899593D01*
X146873195Y-88847076D01*
X146761214Y-88786185D01*
X147032148Y-88786185D01*
X147074482Y-88828519D01*
X147116815Y-88786185D01*
X147074482Y-88743852D01*
X147032148Y-88786185D01*
X146761214Y-88786185D01*
X146759117Y-88785045D01*
X146666909Y-88727018D01*
X146471367Y-88725127D01*
X146461127Y-88727047D01*
X146311575Y-88734104D01*
X146305749Y-88670080D01*
X146338166Y-88633657D01*
X146445332Y-88620468D01*
X146473122Y-88631855D01*
X146524148Y-88579515D01*
X146536845Y-88555646D01*
X146664137Y-88505373D01*
X146883982Y-88481412D01*
X146930474Y-88480222D01*
X147110659Y-88469623D01*
X147139443Y-88447239D01*
X147032148Y-88405185D01*
X146895367Y-88358494D01*
X146899503Y-88337661D01*
X147065148Y-88328958D01*
X147253571Y-88354435D01*
X147411075Y-88450785D01*
X147464403Y-88583841D01*
X147383087Y-88716466D01*
X147323930Y-88773640D01*
X147382428Y-88779200D01*
X147582482Y-88731400D01*
X147654548Y-88711595D01*
X147873139Y-88644092D01*
X147999649Y-88593522D01*
X148020248Y-88584205D01*
X148181337Y-88548032D01*
X148416208Y-88520793D01*
X148482361Y-88513974D01*
X148699625Y-88463030D01*
X148819938Y-88389345D01*
X148857773Y-88346687D01*
X148946137Y-88343618D01*
X148956954Y-88358137D01*
X148939102Y-88467514D01*
X148828921Y-88594306D01*
X148677722Y-88692045D01*
X148536822Y-88714266D01*
X148442740Y-88709636D01*
X148272062Y-88786033D01*
X148271840Y-88786185D01*
X148163638Y-88860121D01*
X147956051Y-88932074D01*
G37*
G36*
X146016148Y-88955519D02*
G01*
X145973815Y-88997852D01*
X145931482Y-88955519D01*
X145973815Y-88913185D01*
X146016148Y-88955519D01*
G37*
G36*
X148019576Y-82393865D02*
G01*
X148019910Y-82299469D01*
X148026424Y-82126316D01*
X148100187Y-81929231D01*
X148122359Y-81898828D01*
X148167162Y-81847587D01*
X148203262Y-81849610D01*
X148238539Y-81927549D01*
X148280876Y-82104058D01*
X148338155Y-82401788D01*
X148396228Y-82721948D01*
X148418256Y-82843392D01*
X148457176Y-83063418D01*
X148493350Y-83313085D01*
X148493551Y-83460186D01*
X148455668Y-83544197D01*
X148377595Y-83604592D01*
X148374225Y-83606705D01*
X148238437Y-83719960D01*
X148243079Y-83783541D01*
X148386815Y-83773051D01*
X148395560Y-83770828D01*
X148522425Y-83778325D01*
X148556148Y-83914025D01*
X148576689Y-84038127D01*
X148675566Y-84218698D01*
X148688414Y-84234193D01*
X148766691Y-84397936D01*
X148855531Y-84668426D01*
X148938095Y-84995817D01*
X148944739Y-85026142D01*
X149031095Y-85392572D01*
X149120939Y-85733475D01*
X149195848Y-85978607D01*
X149210567Y-86020642D01*
X149265800Y-86202100D01*
X149255306Y-86267487D01*
X149176587Y-86252313D01*
X149037663Y-86250416D01*
X148880919Y-86335317D01*
X148810148Y-86467700D01*
X148812375Y-86476561D01*
X148907410Y-86510326D01*
X149099265Y-86504465D01*
X149278976Y-86508117D01*
X149431969Y-86583474D01*
X149469464Y-86707378D01*
X149365090Y-86845952D01*
X149246625Y-86980466D01*
X149272150Y-87090844D01*
X149443535Y-87135185D01*
X149602197Y-87171418D01*
X149694910Y-87325685D01*
X149709366Y-87399618D01*
X149739743Y-87633641D01*
X149752070Y-87859671D01*
X149746835Y-88037562D01*
X149724527Y-88127174D01*
X149685634Y-88088362D01*
X149624901Y-88028101D01*
X149479396Y-88070846D01*
X149341161Y-88112757D01*
X149265501Y-88027836D01*
X149231271Y-87964839D01*
X149134760Y-87897185D01*
X149108017Y-87903608D01*
X149106482Y-87981852D01*
X149113263Y-88026694D01*
X149021815Y-88066519D01*
X148957254Y-88053581D01*
X148937148Y-87981852D01*
X148937928Y-87980288D01*
X148866235Y-87950705D01*
X148628404Y-87927478D01*
X148227375Y-87910732D01*
X147666087Y-87900593D01*
X146947482Y-87897185D01*
X146909769Y-87897193D01*
X146198582Y-87900924D01*
X145644853Y-87911380D01*
X145251522Y-87928437D01*
X145021529Y-87951969D01*
X144957815Y-87981852D01*
X144971045Y-88014649D01*
X144920479Y-88066519D01*
X144861495Y-88119098D01*
X144830815Y-88278185D01*
X144833364Y-88335963D01*
X144888706Y-88462205D01*
X145031698Y-88470131D01*
X145282603Y-88363570D01*
X145402897Y-88306108D01*
X145534985Y-88285274D01*
X145642436Y-88358044D01*
X145707082Y-88439848D01*
X145719834Y-88472919D01*
X145764841Y-88589638D01*
X145790211Y-88637882D01*
X145880695Y-88552413D01*
X145918762Y-88504438D01*
X146005756Y-88450077D01*
X146101734Y-88533292D01*
X146143091Y-88588609D01*
X146166446Y-88677842D01*
X146082909Y-88733138D01*
X145871734Y-88763041D01*
X145512175Y-88776094D01*
X145490297Y-88776494D01*
X145148644Y-88795240D01*
X144945838Y-88838860D01*
X144853874Y-88913185D01*
X144826401Y-88930699D01*
X144795407Y-88836701D01*
X144781852Y-88712226D01*
X145363633Y-88712226D01*
X145370403Y-88716417D01*
X145450809Y-88678488D01*
X145546524Y-88574790D01*
X145592815Y-88472919D01*
X145558784Y-88407300D01*
X145469924Y-88431977D01*
X145388214Y-88544303D01*
X145364779Y-88620455D01*
X145363633Y-88712226D01*
X144781852Y-88712226D01*
X144773992Y-88640046D01*
X144763451Y-88379434D01*
X144765077Y-88093565D01*
X144780164Y-87821138D01*
X144810006Y-87600852D01*
X144880331Y-87262185D01*
X146485406Y-87209723D01*
X146995170Y-87192878D01*
X147470183Y-87176827D01*
X147869226Y-87162982D01*
X148161207Y-87152421D01*
X148315033Y-87146223D01*
X148438188Y-87114326D01*
X148460813Y-87091150D01*
X149082238Y-87091150D01*
X149092371Y-87191630D01*
X149117837Y-87204875D01*
X149148815Y-87135185D01*
X149142705Y-87090363D01*
X149092371Y-87078741D01*
X149082238Y-87091150D01*
X148460813Y-87091150D01*
X148597673Y-86950956D01*
X148677442Y-86676090D01*
X148664903Y-86319487D01*
X148650727Y-86218785D01*
X148653530Y-86076035D01*
X148712866Y-86069055D01*
X148772300Y-86081810D01*
X148862188Y-85997422D01*
X148866167Y-85984047D01*
X148864362Y-85830762D01*
X148822883Y-85601998D01*
X148755835Y-85346150D01*
X148677323Y-85111613D01*
X148601455Y-84946783D01*
X148542335Y-84900056D01*
X148513440Y-84904185D01*
X148520557Y-84819813D01*
X148532036Y-84756500D01*
X148477254Y-84641086D01*
X148456543Y-84634301D01*
X148402792Y-84714603D01*
X148380864Y-84950022D01*
X148371988Y-85145451D01*
X148347640Y-85215626D01*
X148302148Y-85145519D01*
X148253602Y-85056897D01*
X148220858Y-85060852D01*
X148200561Y-85084450D01*
X148132780Y-85009408D01*
X148094202Y-84900835D01*
X148088596Y-84689646D01*
X148092910Y-84582518D01*
X148042342Y-84556441D01*
X148014375Y-84584391D01*
X148011781Y-84706869D01*
X148016367Y-84716575D01*
X147994508Y-84713271D01*
X147896309Y-84602225D01*
X147729775Y-84397599D01*
X147496544Y-84581059D01*
X147494876Y-84582369D01*
X147270134Y-84727213D01*
X147073223Y-84751810D01*
X146824466Y-84666262D01*
X146732263Y-84618011D01*
X146622139Y-84498839D01*
X146681012Y-84381384D01*
X146908643Y-84266783D01*
X146940614Y-84254531D01*
X147164084Y-84132932D01*
X147310009Y-83995775D01*
X147418276Y-83894281D01*
X147646795Y-83833185D01*
X147746194Y-83837256D01*
X147844414Y-83886078D01*
X147837252Y-84023685D01*
X147822512Y-84144497D01*
X147857293Y-84317290D01*
X147946123Y-84403457D01*
X148061556Y-84361644D01*
X148108836Y-84303312D01*
X148101368Y-84256519D01*
X148091780Y-84223965D01*
X148173116Y-84119455D01*
X148221575Y-84068387D01*
X148265195Y-83963149D01*
X148179164Y-83837622D01*
X148100470Y-83730651D01*
X148048148Y-83593685D01*
X147986818Y-83508711D01*
X147828627Y-83510268D01*
X147621083Y-83600352D01*
X147589846Y-83619105D01*
X147459236Y-83660576D01*
X147370567Y-83579185D01*
X147361803Y-83564530D01*
X147353638Y-83466212D01*
X147491542Y-83409852D01*
X147692265Y-83367519D01*
X147523397Y-82917051D01*
X147446826Y-82725621D01*
X147367450Y-82559422D01*
X147716766Y-82559422D01*
X147783642Y-82670430D01*
X147794793Y-82681369D01*
X147856816Y-82721948D01*
X147831038Y-82623034D01*
X147788815Y-82544020D01*
X147725833Y-82518611D01*
X147716766Y-82559422D01*
X147367450Y-82559422D01*
X147364906Y-82554095D01*
X147319227Y-82501884D01*
X147314740Y-82515354D01*
X147338801Y-82641125D01*
X147412037Y-82843799D01*
X147454743Y-82949062D01*
X147527437Y-83176253D01*
X147517954Y-83292511D01*
X147427151Y-83325185D01*
X147354452Y-83269571D01*
X147223555Y-83093735D01*
X147060655Y-82833813D01*
X146886014Y-82527039D01*
X146719892Y-82210643D01*
X146706358Y-82182185D01*
X147201482Y-82182185D01*
X147243815Y-82224519D01*
X147286148Y-82182185D01*
X147243815Y-82139852D01*
X147201482Y-82182185D01*
X146706358Y-82182185D01*
X146585562Y-81928185D01*
X146778148Y-81928185D01*
X146820482Y-81970519D01*
X146862815Y-81928185D01*
X146820482Y-81885852D01*
X146778148Y-81928185D01*
X146585562Y-81928185D01*
X146582553Y-81921858D01*
X146548854Y-81836388D01*
X146993926Y-81836388D01*
X146999843Y-81923788D01*
X147001795Y-81928185D01*
X147027172Y-81985333D01*
X147089607Y-82052443D01*
X147116815Y-81975515D01*
X147113806Y-81952519D01*
X147033118Y-81844118D01*
X146993926Y-81836388D01*
X146548854Y-81836388D01*
X146494258Y-81697916D01*
X146475268Y-81576050D01*
X146486959Y-81555923D01*
X146638071Y-81486410D01*
X146937333Y-81462519D01*
X147117196Y-81468216D01*
X147295859Y-81510962D01*
X147335645Y-81610801D01*
X147254123Y-81785651D01*
X147218569Y-81857748D01*
X147229707Y-81945215D01*
X147323145Y-81936076D01*
X147334282Y-81926483D01*
X147558238Y-81926483D01*
X147563183Y-81975515D01*
X147568371Y-82026963D01*
X147593837Y-82040209D01*
X147624815Y-81970519D01*
X147618705Y-81925696D01*
X147568371Y-81914074D01*
X147558238Y-81926483D01*
X147334282Y-81926483D01*
X147455175Y-81822352D01*
X147585343Y-81683857D01*
X147678025Y-81631311D01*
X147692532Y-81695352D01*
X147698243Y-81740983D01*
X147757654Y-81908489D01*
X147785638Y-81970519D01*
X147862030Y-82139852D01*
X147868018Y-82152063D01*
X147883985Y-82182185D01*
X147971531Y-82347344D01*
X148019576Y-82393865D01*
G37*
G36*
X149453733Y-88747748D02*
G01*
X149529815Y-88828519D01*
X149543045Y-88861315D01*
X149492479Y-88913185D01*
X149467903Y-88909932D01*
X149402815Y-88828519D01*
X149403786Y-88809358D01*
X149440152Y-88743852D01*
X149453733Y-88747748D01*
G37*
G36*
X149233482Y-88616852D02*
G01*
X149191148Y-88659185D01*
X149148815Y-88616852D01*
X149191148Y-88574519D01*
X149233482Y-88616852D01*
G37*
G36*
X149741482Y-88447519D02*
G01*
X149699148Y-88489852D01*
X149656815Y-88447519D01*
X149699148Y-88405185D01*
X149741482Y-88447519D01*
G37*
G36*
X148640815Y-88362852D02*
G01*
X148598482Y-88405185D01*
X148556148Y-88362852D01*
X148598482Y-88320519D01*
X148640815Y-88362852D01*
G37*
G36*
X147814386Y-88238312D02*
G01*
X147878815Y-88320519D01*
X147876355Y-88340756D01*
X147794148Y-88405185D01*
X147773911Y-88402725D01*
X147709482Y-88320519D01*
X147711942Y-88300281D01*
X147794148Y-88235852D01*
X147814386Y-88238312D01*
G37*
G36*
X149169053Y-88153645D02*
G01*
X149233482Y-88235852D01*
X149231022Y-88256089D01*
X149148815Y-88320519D01*
X149128578Y-88318058D01*
X149064148Y-88235852D01*
X149066609Y-88215614D01*
X149148815Y-88151185D01*
X149169053Y-88153645D01*
G37*
G36*
X146100815Y-88193519D02*
G01*
X146058482Y-88235852D01*
X146016148Y-88193519D01*
X146058482Y-88151185D01*
X146100815Y-88193519D01*
G37*
G36*
X145803882Y-88067488D02*
G01*
X145787295Y-88089693D01*
X145672485Y-88151185D01*
X145625003Y-88146715D01*
X145605039Y-88102536D01*
X145724213Y-88034213D01*
X145790255Y-88019376D01*
X145803882Y-88067488D01*
G37*
G36*
X145254148Y-88024185D02*
G01*
X145211815Y-88066519D01*
X145169482Y-88024185D01*
X145211815Y-87981852D01*
X145254148Y-88024185D01*
G37*
G36*
X148406394Y-85360439D02*
G01*
X148471482Y-85441852D01*
X148470511Y-85461013D01*
X148434145Y-85526519D01*
X148420564Y-85522622D01*
X148344482Y-85441852D01*
X148331252Y-85409055D01*
X148381818Y-85357185D01*
X148406394Y-85360439D01*
G37*
G36*
X148640815Y-85187852D02*
G01*
X148634705Y-85232674D01*
X148584371Y-85244296D01*
X148574238Y-85231887D01*
X148584371Y-85131407D01*
X148609837Y-85118162D01*
X148640815Y-85187852D01*
G37*
G36*
X148000372Y-84112003D02*
G01*
X147958148Y-84191017D01*
X147895167Y-84216426D01*
X147886099Y-84175615D01*
X147952976Y-84064607D01*
X147964127Y-84053668D01*
X148026149Y-84013089D01*
X148000372Y-84112003D01*
G37*
G36*
X147370815Y-81843519D02*
G01*
X147328482Y-81885852D01*
X147286148Y-81843519D01*
X147328482Y-81801185D01*
X147370815Y-81843519D01*
G37*
G36*
X148890234Y-77512154D02*
G01*
X149307074Y-77991135D01*
X149780259Y-78510266D01*
X150075500Y-78821236D01*
X150288861Y-79045963D01*
X150811950Y-79574640D01*
X150813986Y-79576652D01*
X151169867Y-79934650D01*
X151479627Y-80258032D01*
X151724330Y-80526061D01*
X151885038Y-80717999D01*
X151942815Y-80813107D01*
X151936065Y-80869943D01*
X151835719Y-81003880D01*
X151659770Y-81053313D01*
X151465822Y-81012521D01*
X151311482Y-80875785D01*
X151269292Y-80823642D01*
X151126388Y-80776419D01*
X150985290Y-80857496D01*
X150895727Y-81046461D01*
X150829914Y-81225103D01*
X150736977Y-81268711D01*
X150693995Y-81240025D01*
X150664286Y-81113269D01*
X150701680Y-80976541D01*
X150724347Y-80830004D01*
X150707850Y-80690772D01*
X150638937Y-80537498D01*
X150504356Y-80348833D01*
X150290854Y-80103427D01*
X149985179Y-79779932D01*
X149574079Y-79356999D01*
X149285729Y-79063423D01*
X149129106Y-78907762D01*
X149425204Y-78907762D01*
X149545985Y-78921222D01*
X149665881Y-78905488D01*
X149783815Y-78837852D01*
X149792394Y-78821236D01*
X149764758Y-78762507D01*
X149644821Y-78768046D01*
X149487482Y-78837852D01*
X149458997Y-78857056D01*
X149425204Y-78907762D01*
X149129106Y-78907762D01*
X148933977Y-78713832D01*
X148678763Y-78474220D01*
X148509534Y-78335398D01*
X148415736Y-78288179D01*
X148386815Y-78323373D01*
X148346528Y-78486616D01*
X148223651Y-78681402D01*
X148203802Y-78702658D01*
X148121454Y-78779830D01*
X148080005Y-78765876D01*
X148066976Y-78634739D01*
X148069886Y-78360362D01*
X148069783Y-78184773D01*
X148048202Y-77822778D01*
X148002857Y-77517926D01*
X147940431Y-77307601D01*
X147867610Y-77229185D01*
X147850789Y-77241014D01*
X147820832Y-77369996D01*
X147809457Y-77605596D01*
X147814361Y-77903447D01*
X147833239Y-78219177D01*
X147863790Y-78508417D01*
X147903711Y-78726798D01*
X147950698Y-78829951D01*
X147996862Y-78884902D01*
X147999624Y-79035121D01*
X147984730Y-79114073D01*
X148039090Y-79176519D01*
X148093614Y-79144702D01*
X148132815Y-79007185D01*
X148159483Y-78899659D01*
X148298169Y-78837852D01*
X148332635Y-78840604D01*
X148457788Y-78927148D01*
X148551697Y-79155352D01*
X148586237Y-79303519D01*
X148621108Y-79453105D01*
X148617637Y-79557519D01*
X148614581Y-79649451D01*
X148513867Y-79790591D01*
X148302262Y-79928281D01*
X148213278Y-79981951D01*
X148002905Y-80139227D01*
X147929518Y-80220741D01*
X147878982Y-80276874D01*
X147842391Y-80361678D01*
X147878422Y-80419813D01*
X148049394Y-80427936D01*
X148060280Y-80427587D01*
X148220234Y-80409776D01*
X148262548Y-80378695D01*
X148260645Y-80376411D01*
X148291362Y-80297340D01*
X148404724Y-80178572D01*
X148544993Y-80070417D01*
X148656427Y-80023185D01*
X148702794Y-80046058D01*
X148774800Y-80171352D01*
X148839036Y-80339691D01*
X148941476Y-80559213D01*
X149023269Y-80786525D01*
X149064148Y-81062229D01*
X149058699Y-81229781D01*
X149025494Y-81261019D01*
X148939841Y-81161201D01*
X148869690Y-81072079D01*
X148822286Y-81055043D01*
X148812841Y-81187352D01*
X148811730Y-81221328D01*
X148807566Y-81236741D01*
X148788414Y-81307626D01*
X148706682Y-81354560D01*
X148529577Y-81374009D01*
X148220139Y-81377852D01*
X147970568Y-81374718D01*
X147766966Y-81357329D01*
X147679736Y-81318388D01*
X147679011Y-81262207D01*
X148317125Y-81262207D01*
X148386815Y-81293185D01*
X148431637Y-81287075D01*
X148443260Y-81236741D01*
X148430850Y-81226608D01*
X148330371Y-81236741D01*
X148317125Y-81262207D01*
X147679011Y-81262207D01*
X147678864Y-81250852D01*
X147692512Y-81186009D01*
X147647985Y-81123852D01*
X147611408Y-81109563D01*
X147568371Y-80996852D01*
X147581342Y-80937925D01*
X147681260Y-80869852D01*
X147726485Y-80876153D01*
X147794148Y-80944648D01*
X147859798Y-81031408D01*
X148019148Y-81061398D01*
X148205978Y-81032223D01*
X148354034Y-80943963D01*
X148423741Y-80861121D01*
X148433056Y-80780615D01*
X148296395Y-80714960D01*
X148263940Y-80703751D01*
X148138390Y-80679978D01*
X147975511Y-80688868D01*
X147733566Y-80735355D01*
X147370815Y-80824373D01*
X147283639Y-80841820D01*
X147074482Y-80864670D01*
X147042367Y-80866470D01*
X146959946Y-80889813D01*
X147032148Y-80954519D01*
X147049397Y-80965825D01*
X147106852Y-81023814D01*
X147004934Y-81037889D01*
X146945196Y-81039939D01*
X146897783Y-81070885D01*
X146983768Y-81172233D01*
X147065032Y-81258194D01*
X147116815Y-81327686D01*
X147108703Y-81332893D01*
X146991969Y-81349973D01*
X146780747Y-81363261D01*
X146676229Y-81364441D01*
X146470636Y-81326632D01*
X146357717Y-81213941D01*
X146306208Y-81015905D01*
X146390583Y-80834168D01*
X146615333Y-80728848D01*
X146708106Y-80705826D01*
X146822098Y-80620217D01*
X146837475Y-80436938D01*
X146827447Y-80347176D01*
X146774312Y-80246207D01*
X146962458Y-80246207D01*
X147032148Y-80277185D01*
X147076971Y-80271075D01*
X147088593Y-80220741D01*
X147076184Y-80210608D01*
X146975704Y-80220741D01*
X146962458Y-80246207D01*
X146774312Y-80246207D01*
X146761983Y-80222778D01*
X146597700Y-80192687D01*
X146572947Y-80192352D01*
X146438022Y-80161910D01*
X146352713Y-80051125D01*
X146280200Y-79816360D01*
X146265044Y-79756153D01*
X146217706Y-79557519D01*
X148048148Y-79557519D01*
X148090482Y-79599852D01*
X148132815Y-79557519D01*
X148090482Y-79515185D01*
X148048148Y-79557519D01*
X146217706Y-79557519D01*
X146208093Y-79517184D01*
X146195504Y-79395572D01*
X146230226Y-79351675D01*
X146315210Y-79345852D01*
X146411829Y-79303519D01*
X147878815Y-79303519D01*
X147921148Y-79345852D01*
X147963482Y-79303519D01*
X147921148Y-79261185D01*
X147878815Y-79303519D01*
X146411829Y-79303519D01*
X146412966Y-79303021D01*
X146516244Y-79155352D01*
X146546044Y-79047260D01*
X146500722Y-78966818D01*
X146323016Y-78922519D01*
X146290395Y-78917135D01*
X146158187Y-78880690D01*
X146079701Y-78801005D01*
X146030668Y-78636409D01*
X145986821Y-78345230D01*
X145949790Y-78125192D01*
X145877593Y-77875788D01*
X145796321Y-77764671D01*
X145744613Y-77736749D01*
X145677482Y-77638463D01*
X145683904Y-77611720D01*
X145762148Y-77610185D01*
X145795282Y-77623013D01*
X145846815Y-77567143D01*
X145817519Y-77519459D01*
X145684942Y-77523151D01*
X145628368Y-77536184D01*
X145529168Y-77495060D01*
X145466966Y-77319092D01*
X145442380Y-77035795D01*
X145444791Y-77028874D01*
X147216458Y-77028874D01*
X147286148Y-77059852D01*
X147330971Y-77053742D01*
X147342593Y-77003407D01*
X147330184Y-76993274D01*
X147229704Y-77003407D01*
X147216458Y-77028874D01*
X145444791Y-77028874D01*
X145526027Y-76795629D01*
X145726540Y-76669599D01*
X145872323Y-76607419D01*
X146009521Y-76482035D01*
X146123877Y-76386082D01*
X146325939Y-76329030D01*
X146505904Y-76315389D01*
X146629982Y-76304730D01*
X146661857Y-76287429D01*
X146692961Y-76174167D01*
X146669554Y-76029767D01*
X146599091Y-75941833D01*
X146556790Y-75891428D01*
X146553681Y-75756577D01*
X147370815Y-75756577D01*
X147377796Y-75847781D01*
X147419721Y-75849626D01*
X147518543Y-75708318D01*
X147548275Y-75659208D01*
X147577023Y-75576422D01*
X147496576Y-75590376D01*
X147439057Y-75625592D01*
X147370815Y-75756577D01*
X146553681Y-75756577D01*
X146553090Y-75730968D01*
X146603017Y-75436780D01*
X146661026Y-75186441D01*
X146734744Y-75017485D01*
X146856861Y-74914227D01*
X147067880Y-74823207D01*
X147258508Y-74758402D01*
X147466751Y-74730549D01*
X147647284Y-74780206D01*
X147844737Y-74934989D01*
X148012744Y-75178139D01*
X148088053Y-75424043D01*
X148090927Y-75449511D01*
X148150421Y-75576422D01*
X148155062Y-75586321D01*
X148165335Y-75601020D01*
X148202467Y-75747720D01*
X148217482Y-75973296D01*
X148207573Y-76100384D01*
X148140910Y-76268591D01*
X148034797Y-76311012D01*
X147916858Y-76206243D01*
X147904562Y-76192811D01*
X147792107Y-76209853D01*
X147604385Y-76354409D01*
X147535769Y-76416088D01*
X147381629Y-76517277D01*
X147309106Y-76484818D01*
X147259128Y-76420431D01*
X147150915Y-76474018D01*
X147043882Y-76622472D01*
X147062437Y-76751294D01*
X147201482Y-76805852D01*
X147299903Y-76789975D01*
X147370815Y-76721185D01*
X147443648Y-76661495D01*
X147619818Y-76636519D01*
X147806692Y-76612851D01*
X147921148Y-76551852D01*
X148000413Y-76476744D01*
X148119679Y-76517069D01*
X148273188Y-76713634D01*
X148309307Y-76768987D01*
X148481848Y-77003407D01*
X148550669Y-77096910D01*
X148890234Y-77512154D01*
G37*
G36*
X147540148Y-81335519D02*
G01*
X147497815Y-81377852D01*
X147455482Y-81335519D01*
X147497815Y-81293185D01*
X147540148Y-81335519D01*
G37*
G36*
X147370815Y-81250852D02*
G01*
X147328482Y-81293185D01*
X147286148Y-81250852D01*
X147328482Y-81208519D01*
X147370815Y-81250852D01*
G37*
G36*
X147370815Y-80996852D02*
G01*
X147328482Y-81039185D01*
X147286148Y-80996852D01*
X147328482Y-80954519D01*
X147370815Y-80996852D01*
G37*
G36*
X145650574Y-77869650D02*
G01*
X145728002Y-78035993D01*
X145722986Y-78198272D01*
X145620185Y-78473167D01*
X145429489Y-78788047D01*
X145172177Y-79102096D01*
X145167133Y-79107411D01*
X145062792Y-79195978D01*
X145001430Y-79176126D01*
X144971606Y-79027624D01*
X144961878Y-78730241D01*
X144961788Y-78643729D01*
X144982599Y-78394641D01*
X145057058Y-78223403D01*
X145211815Y-78058382D01*
X145331781Y-77955595D01*
X145524538Y-77842589D01*
X145650574Y-77869650D01*
G37*
G36*
X145508148Y-78964852D02*
G01*
X145465815Y-79007185D01*
X145423482Y-78964852D01*
X145465815Y-78922519D01*
X145508148Y-78964852D01*
G37*
D11*
%TO.C,TP7*%
X147000000Y-111252000D02*
G75*
G03*
X147000000Y-111252000I-950000J0D01*
G01*
%TO.C,TP5*%
X160208000Y-107188000D02*
G75*
G03*
X160208000Y-107188000I-950000J0D01*
G01*
%TO.C,TP13*%
X150683000Y-105029000D02*
G75*
G03*
X150683000Y-105029000I-950000J0D01*
G01*
%TO.C,TP8*%
X146619000Y-114300000D02*
G75*
G03*
X146619000Y-114300000I-950000J0D01*
G01*
%TO.C,TP6*%
X163510000Y-109728000D02*
G75*
G03*
X163510000Y-109728000I-950000J0D01*
G01*
%TO.C,TP14*%
X155382000Y-105029000D02*
G75*
G03*
X155382000Y-105029000I-950000J0D01*
G01*
%TO.C,TP4*%
X162494000Y-113919000D02*
G75*
G03*
X162494000Y-113919000I-950000J0D01*
G01*
%TO.C,TP9*%
X160335000Y-111887000D02*
G75*
G03*
X160335000Y-111887000I-950000J0D01*
G01*
%TD*%
%LPC*%
D12*
%TO.C,J3*%
X173990000Y-103505000D03*
D13*
X173990000Y-106005000D03*
X173990000Y-108505000D03*
%TD*%
D14*
%TO.C,H3*%
X125095000Y-122555000D03*
%TD*%
D15*
%TO.C,J1*%
X123935000Y-114935000D03*
D16*
X123935000Y-112435000D03*
%TD*%
D14*
%TO.C,H4*%
X173355000Y-122555000D03*
%TD*%
D12*
%TO.C,J2*%
X173880000Y-81340000D03*
D13*
X173880000Y-83840000D03*
X173880000Y-86340000D03*
X173880000Y-88840000D03*
%TD*%
D17*
%TO.C,J4*%
X145034000Y-92456000D03*
D18*
X145034000Y-91186000D03*
X146304000Y-92456000D03*
X146304000Y-91186000D03*
X147574000Y-92456000D03*
X147574000Y-91186000D03*
X148844000Y-92456000D03*
X148844000Y-91186000D03*
X150114000Y-92456000D03*
X150114000Y-91186000D03*
%TD*%
D14*
%TO.C,H2*%
X173355000Y-74295000D03*
%TD*%
%TO.C,H1*%
X125095000Y-74295000D03*
%TD*%
D19*
%TO.C,TP7*%
X146050000Y-111252000D03*
%TD*%
%TO.C,TP5*%
X159258000Y-107188000D03*
%TD*%
%TO.C,TP13*%
X149733000Y-105029000D03*
%TD*%
%TO.C,TP8*%
X145669000Y-114300000D03*
%TD*%
%TO.C,TP6*%
X162560000Y-109728000D03*
%TD*%
%TO.C,TP14*%
X154432000Y-105029000D03*
%TD*%
%TO.C,TP4*%
X161544000Y-113919000D03*
%TD*%
%TO.C,TP9*%
X159385000Y-111887000D03*
%TD*%
M02*
