%TF.GenerationSoftware,KiCad,Pcbnew,(6.0.1-0)*%
%TF.CreationDate,2022-04-18T21:10:33-05:00*%
%TF.ProjectId,tackle_sensor_hardware,7461636b-6c65-45f7-9365-6e736f725f68,rev?*%
%TF.SameCoordinates,Original*%
%TF.FileFunction,Copper,L4,Bot*%
%TF.FilePolarity,Positive*%
%FSLAX46Y46*%
G04 Gerber Fmt 4.6, Leading zero omitted, Abs format (unit mm)*
G04 Created by KiCad (PCBNEW (6.0.1-0)) date 2022-04-18 21:10:33*
%MOMM*%
%LPD*%
G01*
G04 APERTURE LIST*
G04 Aperture macros list*
%AMRoundRect*
0 Rectangle with rounded corners*
0 $1 Rounding radius*
0 $2 $3 $4 $5 $6 $7 $8 $9 X,Y pos of 4 corners*
0 Add a 4 corners polygon primitive as box body*
4,1,4,$2,$3,$4,$5,$6,$7,$8,$9,$2,$3,0*
0 Add four circle primitives for the rounded corners*
1,1,$1+$1,$2,$3*
1,1,$1+$1,$4,$5*
1,1,$1+$1,$6,$7*
1,1,$1+$1,$8,$9*
0 Add four rect primitives between the rounded corners*
20,1,$1+$1,$2,$3,$4,$5,0*
20,1,$1+$1,$4,$5,$6,$7,0*
20,1,$1+$1,$6,$7,$8,$9,0*
20,1,$1+$1,$8,$9,$2,$3,0*%
G04 Aperture macros list end*
%TA.AperFunction,ComponentPad*%
%ADD10RoundRect,0.250000X-0.725000X0.600000X-0.725000X-0.600000X0.725000X-0.600000X0.725000X0.600000X0*%
%TD*%
%TA.AperFunction,ComponentPad*%
%ADD11O,1.950000X1.700000*%
%TD*%
%TA.AperFunction,ComponentPad*%
%ADD12RoundRect,0.250000X0.750000X-0.600000X0.750000X0.600000X-0.750000X0.600000X-0.750000X-0.600000X0*%
%TD*%
%TA.AperFunction,ComponentPad*%
%ADD13O,2.000000X1.700000*%
%TD*%
%TA.AperFunction,ComponentPad*%
%ADD14R,1.000000X1.000000*%
%TD*%
%TA.AperFunction,ComponentPad*%
%ADD15O,1.000000X1.000000*%
%TD*%
%TA.AperFunction,SMDPad,CuDef*%
%ADD16C,1.500000*%
%TD*%
%TA.AperFunction,ViaPad*%
%ADD17C,0.500000*%
%TD*%
%TA.AperFunction,ViaPad*%
%ADD18C,0.800000*%
%TD*%
%TA.AperFunction,ViaPad*%
%ADD19C,1.000000*%
%TD*%
%TA.AperFunction,Conductor*%
%ADD20C,1.524000*%
%TD*%
%TA.AperFunction,Conductor*%
%ADD21C,0.254000*%
%TD*%
%TA.AperFunction,Conductor*%
%ADD22C,1.270000*%
%TD*%
G04 APERTURE END LIST*
D10*
%TO.P,J3,1,Pin_1*%
%TO.N,Net-(J3-Pad1)*%
X173990000Y-103505000D03*
D11*
%TO.P,J3,2,Pin_2*%
%TO.N,Net-(J3-Pad2)*%
X173990000Y-106005000D03*
%TO.P,J3,3,Pin_3*%
%TO.N,GND*%
X173990000Y-108505000D03*
%TD*%
D12*
%TO.P,J1,1,Pin_1*%
%TO.N,Net-(J1-Pad1)*%
X123935000Y-114935000D03*
D13*
%TO.P,J1,2,Pin_2*%
%TO.N,GND*%
X123935000Y-112435000D03*
%TD*%
D10*
%TO.P,J2,1,Pin_1*%
%TO.N,Net-(F1-Pad2)*%
X173880000Y-81340000D03*
D11*
%TO.P,J2,2,Pin_2*%
%TO.N,Net-(J2-Pad2)*%
X173880000Y-83840000D03*
%TO.P,J2,3,Pin_3*%
%TO.N,Net-(J2-Pad3)*%
X173880000Y-86340000D03*
%TO.P,J2,4,Pin_4*%
%TO.N,Net-(J2-Pad4)*%
X173880000Y-88840000D03*
%TD*%
D14*
%TO.P,J4,1,VTref*%
%TO.N,+3V3*%
X145034000Y-92456000D03*
D15*
%TO.P,J4,2,SWDIO/TMS*%
%TO.N,/SWDIO*%
X145034000Y-91186000D03*
%TO.P,J4,3,GND*%
%TO.N,GND*%
X146304000Y-92456000D03*
%TO.P,J4,4,SWDCLK/TCK*%
%TO.N,/SWCLK*%
X146304000Y-91186000D03*
%TO.P,J4,5,GND*%
%TO.N,GND*%
X147574000Y-92456000D03*
%TO.P,J4,6,SWO/TDO*%
%TO.N,unconnected-(J4-Pad6)*%
X147574000Y-91186000D03*
%TO.P,J4,7,KEY*%
%TO.N,unconnected-(J4-Pad7)*%
X148844000Y-92456000D03*
%TO.P,J4,8,NC/TDI*%
%TO.N,unconnected-(J4-Pad8)*%
X148844000Y-91186000D03*
%TO.P,J4,9,GNDDetect*%
%TO.N,GND*%
X150114000Y-92456000D03*
%TO.P,J4,10,~{RESET}*%
%TO.N,/RST*%
X150114000Y-91186000D03*
%TD*%
D16*
%TO.P,TP7,1,1*%
%TO.N,/SPI1_SCK*%
X146050000Y-111252000D03*
%TD*%
%TO.P,TP5,1,1*%
%TO.N,/SPI1_MOSI*%
X159258000Y-107188000D03*
%TD*%
%TO.P,TP13,1,1*%
%TO.N,UART_TX*%
X149733000Y-105029000D03*
%TD*%
%TO.P,TP8,1,1*%
%TO.N,/ACC_INT1*%
X145669000Y-114300000D03*
%TD*%
%TO.P,TP6,1,1*%
%TO.N,/SPI1_MISO*%
X162560000Y-109728000D03*
%TD*%
%TO.P,TP14,1,1*%
%TO.N,UART_RX*%
X154432000Y-105029000D03*
%TD*%
%TO.P,TP4,1,1*%
%TO.N,/SPI1_NSS*%
X161544000Y-113919000D03*
%TD*%
%TO.P,TP9,1,1*%
%TO.N,/ACC_INT2*%
X159385000Y-111887000D03*
%TD*%
D17*
%TO.N,GND*%
X126492000Y-78105000D03*
X127508000Y-78105000D03*
X125476000Y-78105000D03*
X130048000Y-76327000D03*
X131064000Y-76327000D03*
X131064000Y-75438000D03*
X132080000Y-75438000D03*
X130048000Y-75438000D03*
X131064000Y-74549000D03*
X130048000Y-74549000D03*
X132080000Y-74549000D03*
X136525000Y-70739000D03*
X137541000Y-70739000D03*
X135509000Y-70739000D03*
D18*
X135255000Y-111760000D03*
X163322000Y-93218000D03*
D17*
X143383000Y-97028000D03*
X131064000Y-73660000D03*
X132080000Y-73660000D03*
X151003000Y-124587000D03*
X159893000Y-117602000D03*
X150495000Y-117602000D03*
X152019000Y-118364000D03*
X155829000Y-96393000D03*
X139827000Y-82296000D03*
D18*
X163576000Y-87630000D03*
D17*
X159766000Y-115443000D03*
D19*
X140970000Y-107315000D03*
D17*
X130048000Y-71628000D03*
X131064000Y-71628000D03*
X150876000Y-86741000D03*
X154686000Y-86741000D03*
X147828000Y-109728000D03*
X132080000Y-72644000D03*
X159385000Y-119634000D03*
X143256000Y-109855000D03*
X132080000Y-71628000D03*
X130048000Y-72644000D03*
X143256000Y-107950000D03*
X138303000Y-94615000D03*
D18*
X163425892Y-82700108D03*
D17*
X131064000Y-72644000D03*
X146939000Y-86741000D03*
X127381000Y-83312000D03*
D19*
X126365000Y-103505000D03*
X121920000Y-107950000D03*
D17*
X130048000Y-73660000D03*
%TO.N,+3V3*%
X147637500Y-108648500D03*
X146558000Y-75184000D03*
X145288000Y-75184000D03*
X144018000Y-75184000D03*
X141351000Y-116967000D03*
X155067000Y-119634000D03*
X140208000Y-100584000D03*
X155067000Y-117602000D03*
X155067000Y-115443000D03*
%TO.N,Net-(R7-Pad2)*%
X123317000Y-79375000D03*
X136398000Y-82677000D03*
%TO.N,Net-(R4-Pad1)*%
X125095000Y-84582000D03*
X127635000Y-80645000D03*
D19*
%TO.N,+12V*%
X139065000Y-80772000D03*
X167005000Y-74168000D03*
D17*
%TO.N,R_PWM*%
X153543000Y-85979000D03*
X156464000Y-93599000D03*
%TO.N,G_PWM*%
X159131000Y-90678000D03*
X159639000Y-96520000D03*
%TO.N,TACKLE_STATUS*%
X163322000Y-104902000D03*
X151638000Y-103886000D03*
%TO.N,UART_TX*%
X151892000Y-107315000D03*
X163195000Y-103378000D03*
%TO.N,/SPI1_SCK*%
X153035000Y-114935000D03*
X147193000Y-112395000D03*
%TO.N,/SPI1_NSS*%
X156464000Y-112776000D03*
%TO.N,/SPI1_MISO*%
X156591000Y-111252000D03*
%TO.N,/SPI1_MOSI*%
X158242000Y-108585000D03*
%TO.N,/ACC_INT2*%
X157607000Y-112395000D03*
%TO.N,/ACC_INT1*%
X150876000Y-110617000D03*
X153797000Y-114554000D03*
X144907000Y-112649000D03*
%TO.N,UART_RX*%
X153289000Y-107188000D03*
%TO.N,Net-(R9-Pad2)*%
X147701000Y-107696000D03*
X143891000Y-110871000D03*
%TD*%
D20*
%TO.N,Net-(F1-Pad2)*%
X173880000Y-81340000D02*
X173878597Y-81338597D01*
D21*
%TO.N,Net-(R7-Pad2)*%
X133096000Y-79375000D02*
X136398000Y-82677000D01*
X123317000Y-79375000D02*
X133096000Y-79375000D01*
%TO.N,Net-(R4-Pad1)*%
X125095000Y-84582000D02*
X127635000Y-82042000D01*
X127635000Y-82042000D02*
X127635000Y-80645000D01*
D22*
%TO.N,+12V*%
X160401000Y-80772000D02*
X139065000Y-80772000D01*
X167005000Y-74168000D02*
X160401000Y-80772000D01*
D21*
%TO.N,R_PWM*%
X156464000Y-93599000D02*
X156464000Y-91186000D01*
X153543000Y-88265000D02*
X153543000Y-85979000D01*
X156464000Y-91186000D02*
X153543000Y-88265000D01*
%TO.N,G_PWM*%
X159131000Y-96012000D02*
X159639000Y-96520000D01*
X159131000Y-90678000D02*
X159131000Y-96012000D01*
%TO.N,TACKLE_STATUS*%
X162306000Y-103886000D02*
X163322000Y-104902000D01*
X151638000Y-103886000D02*
X162306000Y-103886000D01*
%TO.N,UART_TX*%
X149733000Y-103968340D02*
X150371841Y-103329499D01*
X151892000Y-107188000D02*
X149733000Y-105029000D01*
X149733000Y-105029000D02*
X149733000Y-103968340D01*
X151892000Y-107315000D02*
X151892000Y-107188000D01*
X163146499Y-103329499D02*
X163195000Y-103378000D01*
X150371841Y-103329499D02*
X163146499Y-103329499D01*
%TO.N,/SPI1_SCK*%
X151269489Y-113169489D02*
X147967489Y-113169489D01*
X147193000Y-112395000D02*
X146050000Y-111252000D01*
X153035000Y-114935000D02*
X151269489Y-113169489D01*
X147967489Y-113169489D02*
X147193000Y-112395000D01*
%TO.N,/SPI1_NSS*%
X157607000Y-113919000D02*
X161544000Y-113919000D01*
X156464000Y-112776000D02*
X157607000Y-113919000D01*
%TO.N,/SPI1_MISO*%
X158115000Y-109728000D02*
X162560000Y-109728000D01*
X156591000Y-111252000D02*
X158115000Y-109728000D01*
%TO.N,/SPI1_MOSI*%
X158242000Y-108585000D02*
X158242000Y-108204000D01*
X158242000Y-108204000D02*
X159258000Y-107188000D01*
%TO.N,/ACC_INT2*%
X157607000Y-112395000D02*
X158877000Y-112395000D01*
X158877000Y-112395000D02*
X159385000Y-111887000D01*
%TO.N,/ACC_INT1*%
X153797000Y-114554000D02*
X150876000Y-111633000D01*
X144907000Y-112649000D02*
X144907000Y-113538000D01*
X150876000Y-111633000D02*
X150876000Y-110617000D01*
X144907000Y-113538000D02*
X145669000Y-114300000D01*
%TO.N,UART_RX*%
X153289000Y-107188000D02*
X153289000Y-106172000D01*
X153289000Y-106172000D02*
X154432000Y-105029000D01*
%TO.N,Net-(R9-Pad2)*%
X143891000Y-109982000D02*
X143891000Y-110871000D01*
X146177000Y-107696000D02*
X143891000Y-109982000D01*
X147701000Y-107696000D02*
X146177000Y-107696000D01*
%TD*%
M02*
