M48
; DRILL file {KiCad (6.0.1-0)} date Monday, April 18, 2022 at 09:10:39 PM
; FORMAT={-:-/ absolute / inch / decimal}
; #@! TF.CreationDate,2022-04-18T21:10:39-05:00
; #@! TF.GenerationSoftware,Kicad,Pcbnew,(6.0.1-0)
; #@! TF.FileFunction,Plated,1,4,PTH
FMAT,2
INCH
; #@! TA.AperFunction,Plated,PTH,ViaDrill
T1C0.0079
; #@! TA.AperFunction,Plated,PTH,ViaDrill
T2C0.0157
; #@! TA.AperFunction,Plated,PTH,ViaDrill
T3C0.0197
; #@! TA.AperFunction,Plated,PTH,ComponentDrill
T4C0.0256
; #@! TA.AperFunction,Plated,PTH,ComponentDrill
T5C0.0374
; #@! TA.AperFunction,Plated,PTH,ComponentDrill
T6C0.0394
%
G90
G05
T1
X4.855Y-3.125
X4.925Y-3.33
X4.94Y-3.075
X4.98Y-3.075
X5.015Y-3.28
X5.02Y-3.075
X5.025Y-3.175
X5.12Y-2.82
X5.12Y-2.86
X5.12Y-2.9
X5.12Y-2.935
X5.12Y-2.97
X5.12Y-3.005
X5.16Y-2.82
X5.16Y-2.86
X5.16Y-2.9
X5.16Y-2.935
X5.16Y-2.97
X5.16Y-3.005
X5.2Y-2.82
X5.2Y-2.86
X5.2Y-2.9
X5.2Y-2.935
X5.2Y-2.97
X5.335Y-2.785
X5.37Y-3.255
X5.375Y-2.785
X5.415Y-2.785
X5.445Y-3.725
X5.505Y-3.24
X5.52Y-3.96
X5.565Y-4.605
X5.64Y-4.25
X5.64Y-4.325
X5.645Y-3.82
X5.665Y-4.365
X5.67Y-2.96
X5.705Y-4.435
X5.72Y-2.96
X5.77Y-2.96
X5.785Y-3.415
X5.795Y-4.425
X5.8125Y-4.2775
X5.815Y-4.24
X5.82Y-4.32
X5.925Y-4.63
X5.94Y-3.415
X5.94Y-4.355
X5.945Y-4.905
X5.97Y-4.09
X5.98Y-4.225
X5.985Y-4.66
X6.025Y-4.525
X6.035Y-4.22
X6.045Y-3.385
X6.055Y-4.51
X6.09Y-3.415
X6.105Y-4.545
X6.105Y-4.63
X6.105Y-4.71
X6.135Y-3.795
X6.16Y-3.685
X6.16Y-4.44
X6.165Y-4.38
X6.205Y-4.425
X6.23Y-4.275
X6.265Y-3.57
X6.275Y-4.71
X6.285Y-3.8
X6.29Y-4.545
X6.295Y-4.63
X6.425Y-4.07
X6.43Y-4.13
T2
X5.325Y-4.4
X6.43Y-3.67
X6.4341Y-3.2559
X6.44Y-3.45
T3
X4.8Y-4.25
X4.975Y-4.075
X5.475Y-3.18
X5.55Y-4.225
X6.575Y-2.92
T4
X5.71Y-3.59
X5.71Y-3.64
X5.76Y-3.59
X5.76Y-3.64
X5.81Y-3.59
X5.81Y-3.64
X5.86Y-3.59
X5.86Y-3.64
X5.91Y-3.59
X5.91Y-3.64
T5
X6.8457Y-3.2024
X6.8457Y-3.3008
X6.8457Y-3.3992
X6.8457Y-3.4976
X6.85Y-4.075
X6.85Y-4.1734
X6.85Y-4.2719
T6
X4.8793Y-4.4266
X4.8793Y-4.525
T0
M30
